<?xml version="1.0" standalone="no"?>
 <!DOCTYPE svg PUBLIC "-//W3C//DTD SVG 1.1//EN" 
 "http://www.w3.org/Graphics/SVG/1.1/DTD/svg11.dtd"> 
<svg xmlns="http://www.w3.org/2000/svg" version="1.1" 
    width="14.1732cm" height="1.76276cm" viewBox="0 0 55800 6940 ">
<title>SVG Picture created as chirp-v2.4-brd.svg date 2016/02/22 12:30:23 </title>
  <desc>Picture generated by PCBNEW </desc>
<g style="fill:#000000; fill-opacity:1;stroke:#000000; stroke-opacity:1;
stroke-linecap:round; stroke-linejoin:round; "
 transform="translate(0 0) scale(1 1)">
</g>
<g style="fill:#000000; fill-opacity:0.0; 
stroke:#000000; stroke-width:-0.000393701; stroke-opacity:1; 
stroke-linecap:round; stroke-linejoin:round;">
</g>
<g style="fill:#008484; fill-opacity:0.0; 
stroke:#008484; stroke-width:-0.000393701; stroke-opacity:1; 
stroke-linecap:round; stroke-linejoin:round;">
</g>
<g style="fill:#008484; fill-opacity:0.0; 
stroke:#008484; stroke-width:240; stroke-opacity:1; 
stroke-linecap:round; stroke-linejoin:round;">
<path d="M27926 463
L27926 5963
" />
</g>
<g style="fill:#008484; fill-opacity:0.0; 
stroke:#008484; stroke-width:120; stroke-opacity:1; 
stroke-linecap:round; stroke-linejoin:round;">
<path d="M32176 3213
L29176 3213
" />
<path d="M29176 3213
L29676 2713
" />
<path d="M29176 3213
L29676 3713
" />
<path d="M46676 3213
L49426 3213
" />
<path d="M49426 3213
L48926 2713
" />
<path d="M49426 3213
L48926 3713
" />
</g>
<g style="fill:#008484; fill-opacity:0.0; 
stroke:#008484; stroke-width:84; stroke-opacity:1; 
stroke-linecap:round; stroke-linejoin:round;">
<path d="M33584 2988
L33584 3653
" />
<path d="M33584 3020
L33647 2988
L33774 2988
L33837 3020
L33869 3051
L33901 3115
L33901 3305
L33869 3368
L33837 3400
L33774 3431
L33647 3431
L33584 3400
" />
<path d="M34471 2988
L34471 3431
" />
<path d="M34186 2988
L34186 3336
L34217 3400
L34281 3431
L34376 3431
L34439 3400
L34471 3368
" />
<path d="M34692 2988
L34946 2988
" />
<path d="M34787 2766
L34787 3336
L34819 3400
L34882 3431
L34946 3431
" />
<path d="M35579 2988
L35832 2988
" />
<path d="M35674 2766
L35674 3336
L35706 3400
L35769 3431
L35832 3431
" />
<path d="M36054 3431
L36054 2766
" />
<path d="M36339 3431
L36339 3083
L36307 3020
L36244 2988
L36149 2988
L36086 3020
L36054 3051
" />
<path d="M36656 3431
L36656 2988
" />
<path d="M36656 2766
L36624 2798
L36656 2830
L36687 2798
L36656 2766
L36656 2830
" />
<path d="M36941 3400
L37004 3431
L37131 3431
L37194 3400
L37226 3336
L37226 3305
L37194 3241
L37131 3210
L37036 3210
L36972 3178
L36941 3115
L36941 3083
L36972 3020
L37036 2988
L37131 2988
L37194 3020
" />
<path d="M38017 2988
L38017 3653
" />
<path d="M38017 3020
L38081 2988
L38207 2988
L38271 3020
L38302 3051
L38334 3115
L38334 3305
L38302 3368
L38271 3400
L38207 3431
L38081 3431
L38017 3400
" />
<path d="M38904 3431
L38904 3083
L38872 3020
L38809 2988
L38682 2988
L38619 3020
" />
<path d="M38904 3400
L38841 3431
L38682 3431
L38619 3400
L38587 3336
L38587 3273
L38619 3210
L38682 3178
L38841 3178
L38904 3146
" />
<path d="M39221 3431
L39221 2988
" />
<path d="M39221 3115
L39252 3051
L39284 3020
L39347 2988
L39411 2988
" />
<path d="M39537 2988
L39791 2988
" />
<path d="M39632 2766
L39632 3336
L39664 3400
L39727 3431
L39791 3431
" />
<path d="M40424 2988
L40677 2988
" />
<path d="M40519 2766
L40519 3336
L40551 3400
L40614 3431
L40677 3431
" />
<path d="M40994 3431
L40931 3400
L40899 3368
L40867 3305
L40867 3115
L40899 3051
L40931 3020
L40994 2988
L41089 2988
L41152 3020
L41184 3051
L41216 3115
L41216 3305
L41184 3368
L41152 3400
L41089 3431
L40994 3431
" />
<path d="M41976 3400
L42039 3431
L42166 3431
L42229 3400
L42261 3336
L42261 3305
L42229 3241
L42166 3210
L42071 3210
L42007 3178
L41976 3115
L41976 3083
L42007 3020
L42071 2988
L42166 2988
L42229 3020
" />
<path d="M42641 3431
L42577 3400
L42546 3368
L42514 3305
L42514 3115
L42546 3051
L42577 3020
L42641 2988
L42736 2988
L42799 3020
L42831 3051
L42862 3115
L42862 3305
L42831 3368
L42799 3400
L42736 3431
L42641 3431
" />
<path d="M43147 3431
L43147 2988
" />
<path d="M43147 2766
L43116 2798
L43147 2830
L43179 2798
L43147 2766
L43147 2830
" />
<path d="M43559 3431
L43496 3400
L43464 3336
L43464 2766
" />
<path d="M32084 1431
L32084 766
L32337 766
L32401 798
L32432 830
L32464 893
L32464 988
L32432 1051
L32401 1083
L32337 1115
L32084 1115
" />
<path d="M32844 1431
L32781 1400
L32749 1336
L32749 766
" />
<path d="M33382 1431
L33382 1083
L33351 1020
L33287 988
L33161 988
L33097 1020
" />
<path d="M33382 1400
L33319 1431
L33161 1431
L33097 1400
L33066 1336
L33066 1273
L33097 1210
L33161 1178
L33319 1178
L33382 1146
" />
<path d="M33699 988
L33699 1431
" />
<path d="M33699 1051
L33731 1020
L33794 988
L33889 988
L33952 1020
L33984 1083
L33984 1431
" />
<path d="M34206 988
L34459 988
" />
<path d="M34301 766
L34301 1336
L34332 1400
L34396 1431
L34459 1431
" />
<path d="M35124 988
L35251 1431
L35377 1115
L35504 1431
L35631 988
" />
<path d="M36169 1431
L36169 1083
L36137 1020
L36074 988
L35947 988
L35884 1020
" />
<path d="M36169 1400
L36106 1431
L35947 1431
L35884 1400
L35852 1336
L35852 1273
L35884 1210
L35947 1178
L36106 1178
L36169 1146
" />
<path d="M36391 988
L36644 988
" />
<path d="M36486 766
L36486 1336
L36517 1400
L36581 1431
L36644 1431
" />
<path d="M37119 1400
L37056 1431
L36929 1431
L36866 1400
L36834 1336
L36834 1083
L36866 1020
L36929 988
L37056 988
L37119 1020
L37151 1083
L37151 1146
L36834 1210
" />
<path d="M37436 1431
L37436 988
" />
<path d="M37436 1115
L37467 1051
L37499 1020
L37562 988
L37626 988
" />
<path d="M37847 1431
L37847 988
" />
<path d="M37847 766
L37816 798
L37847 830
L37879 798
L37847 766
L37847 830
" />
<path d="M38164 988
L38164 1431
" />
<path d="M38164 1051
L38196 1020
L38259 988
L38354 988
L38417 1020
L38449 1083
L38449 1431
" />
<path d="M39051 988
L39051 1526
L39019 1590
L38987 1621
L38924 1653
L38829 1653
L38766 1621
" />
<path d="M39051 1400
L38987 1431
L38861 1431
L38797 1400
L38766 1368
L38734 1305
L38734 1115
L38766 1051
L38797 1020
L38861 988
L38987 988
L39051 1020
" />
<path d="M40159 1431
L40159 1083
L40127 1020
L40064 988
L39937 988
L39874 1020
" />
<path d="M40159 1400
L40096 1431
L39937 1431
L39874 1400
L39842 1336
L39842 1273
L39874 1210
L39937 1178
L40096 1178
L40159 1146
" />
<path d="M40571 1431
L40507 1400
L40476 1336
L40476 766
" />
<path d="M41109 1431
L41109 1083
L41077 1020
L41014 988
L40887 988
L40824 1020
" />
<path d="M41109 1400
L41046 1431
L40887 1431
L40824 1400
L40792 1336
L40792 1273
L40824 1210
L40887 1178
L41046 1178
L41109 1146
" />
<path d="M41426 1431
L41426 988
" />
<path d="M41426 1115
L41457 1051
L41489 1020
L41552 988
L41616 988
" />
<path d="M41837 1431
L41837 988
" />
<path d="M41837 1051
L41869 1020
L41932 988
L42027 988
L42091 1020
L42122 1083
L42122 1431
" />
<path d="M42122 1083
L42154 1020
L42217 988
L42312 988
L42376 1020
L42407 1083
L42407 1431
" />
<path d="M43167 988
L43326 1431
L43484 988
" />
<path d="M43737 1368
L43769 1400
L43737 1431
L43706 1400
L43737 1368
L43737 1431
" />
<path d="M44022 830
L44054 798
L44117 766
L44276 766
L44339 798
L44371 830
L44402 893
L44402 956
L44371 1051
L43991 1431
L44402 1431
" />
<path d="M44687 1368
L44719 1400
L44687 1431
L44656 1400
L44687 1368
L44687 1431
" />
<path d="M45289 988
L45289 1431
" />
<path d="M45131 735
L44972 1210
L45384 1210
" />
</g>
<g style="fill:#008484; fill-opacity:0.0; 
stroke:#008484; stroke-width:67.2; stroke-opacity:1; 
stroke-linecap:round; stroke-linejoin:round;">
<path d="M32052 5688
L32052 5156
" />
<path d="M32280 5688
L32280 5409
L32255 5358
L32204 5333
L32128 5333
L32078 5358
L32052 5384
" />
<path d="M32458 5333
L32660 5333
" />
<path d="M32534 5156
L32534 5612
L32559 5662
L32610 5688
L32660 5688
" />
<path d="M32762 5333
L32964 5333
" />
<path d="M32838 5156
L32838 5612
L32863 5662
L32914 5688
L32964 5688
" />
<path d="M33142 5333
L33142 5865
" />
<path d="M33142 5358
L33192 5333
L33294 5333
L33344 5358
L33370 5384
L33395 5434
L33395 5586
L33370 5637
L33344 5662
L33294 5688
L33192 5688
L33142 5662
" />
<path d="M33623 5637
L33648 5662
L33623 5688
L33598 5662
L33623 5637
L33623 5688
" />
<path d="M33623 5358
L33648 5384
L33623 5409
L33598 5384
L33623 5358
L33623 5409
" />
<path d="M34256 5130
L33800 5814
" />
<path d="M34814 5130
L34358 5814
" />
<path d="M34940 5333
L35042 5688
L35143 5434
L35244 5688
L35346 5333
" />
<path d="M35751 5662
L35700 5688
L35599 5688
L35548 5662
L35523 5612
L35523 5409
L35548 5358
L35599 5333
L35700 5333
L35751 5358
L35776 5409
L35776 5460
L35523 5510
" />
<path d="M36004 5688
L36004 5333
" />
<path d="M36004 5384
L36030 5358
L36080 5333
L36156 5333
L36207 5358
L36232 5409
L36232 5688
" />
<path d="M36232 5409
L36258 5358
L36308 5333
L36384 5333
L36435 5358
L36460 5409
L36460 5688
" />
<path d="M36942 5688
L36942 5409
L36916 5358
L36866 5333
L36764 5333
L36714 5358
" />
<path d="M36942 5662
L36891 5688
L36764 5688
L36714 5662
L36688 5612
L36688 5561
L36714 5510
L36764 5485
L36891 5485
L36942 5460
" />
<path d="M37195 5688
L37195 5156
" />
<path d="M37246 5485
L37398 5688
" />
<path d="M37398 5333
L37195 5536
" />
<path d="M37828 5662
L37778 5688
L37676 5688
L37626 5662
L37600 5612
L37600 5409
L37626 5358
L37676 5333
L37778 5333
L37828 5358
L37854 5409
L37854 5460
L37600 5510
" />
<path d="M38006 5333
L38208 5333
" />
<path d="M38082 5156
L38082 5612
L38107 5662
L38158 5688
L38208 5688
" />
<path d="M38386 5688
L38386 5156
" />
<path d="M38614 5688
L38614 5409
L38588 5358
L38538 5333
L38462 5333
L38411 5358
L38386 5384
" />
<path d="M38867 5688
L38867 5333
" />
<path d="M38867 5156
L38842 5181
L38867 5206
L38892 5181
L38867 5156
L38867 5206
" />
<path d="M39120 5333
L39120 5688
" />
<path d="M39120 5384
L39146 5358
L39196 5333
L39272 5333
L39323 5358
L39348 5409
L39348 5688
" />
<path d="M39830 5333
L39830 5764
L39804 5814
L39779 5840
L39728 5865
L39652 5865
L39602 5840
" />
<path d="M39830 5662
L39779 5688
L39678 5688
L39627 5662
L39602 5637
L39576 5586
L39576 5434
L39602 5384
L39627 5358
L39678 5333
L39779 5333
L39830 5358
" />
<path d="M40058 5662
L40108 5688
L40210 5688
L40260 5662
L40286 5612
L40286 5586
L40260 5536
L40210 5510
L40134 5510
L40083 5485
L40058 5434
L40058 5409
L40083 5358
L40134 5333
L40210 5333
L40260 5358
" />
<path d="M40514 5637
L40539 5662
L40514 5688
L40488 5662
L40514 5637
L40514 5688
" />
<path d="M40767 5333
L40767 5688
" />
<path d="M40767 5384
L40792 5358
L40843 5333
L40919 5333
L40970 5358
L40995 5409
L40995 5688
" />
<path d="M41451 5662
L41400 5688
L41299 5688
L41248 5662
L41223 5612
L41223 5409
L41248 5358
L41299 5333
L41400 5333
L41451 5358
L41476 5409
L41476 5460
L41223 5510
" />
<path d="M41628 5333
L41831 5333
" />
<path d="M41704 5156
L41704 5612
L41730 5662
L41780 5688
L41831 5688
" />
<path d="M42388 5130
L41932 5814
" />
<path d="M42794 5662
L42743 5688
L42642 5688
L42591 5662
L42566 5637
L42540 5586
L42540 5434
L42566 5384
L42591 5358
L42642 5333
L42743 5333
L42794 5358
" />
<path d="M43022 5688
L43022 5156
" />
<path d="M43250 5688
L43250 5409
L43224 5358
L43174 5333
L43098 5333
L43047 5358
L43022 5384
" />
<path d="M43503 5688
L43503 5333
" />
<path d="M43503 5156
L43478 5181
L43503 5206
L43528 5181
L43503 5156
L43503 5206
" />
<path d="M43756 5688
L43756 5333
" />
<path d="M43756 5434
L43782 5384
L43807 5358
L43858 5333
L43908 5333
" />
<path d="M44086 5333
L44086 5865
" />
<path d="M44086 5358
L44136 5333
L44238 5333
L44288 5358
L44314 5384
L44339 5434
L44339 5586
L44314 5637
L44288 5662
L44238 5688
L44136 5688
L44086 5662
" />
</g>
<g style="fill:#008484; fill-opacity:1.0; 
stroke:#008484; stroke-width:0; stroke-opacity:1; 
stroke-linecap:round; stroke-linejoin:round;">
<polyline style="fill-rule:evenodd;"
points="11676,5174
11676,5252
11754,5252
11754,5174
" /> 
</g>
<g style="fill:#008484; fill-opacity:0.0; 
stroke:#008484; stroke-width:60; stroke-opacity:1; 
stroke-linecap:round; stroke-linejoin:round;">
<circle cx="12546.1" cy="3518.54" r="210" /> 
</g>
<g style="fill:#008484; fill-opacity:0.0; 
stroke:#008484; stroke-width:50; stroke-opacity:1; 
stroke-linecap:round; stroke-linejoin:round;">
<path d="M6001 4463
L5851 4463
" />
<path d="M5351 4613
L5351 4963
" />
<path d="M5351 4963
L5651 4963
" />
<path d="M6201 4963
L6501 4963
" />
<path d="M6501 4963
L6501 4613
" />
</g>
<g style="fill:#008484; fill-opacity:1.0; 
stroke:#008484; stroke-width:0; stroke-opacity:1; 
stroke-linecap:round; stroke-linejoin:round;">
<polyline style="fill-rule:evenodd;"
points="5836,3613
6016,3613
6016,3313
5836,3313
" /> 
<polyline style="fill-rule:evenodd;"
points="3836,3363
4016,3363
4016,3063
3836,3063
" /> 
</g>
<g style="fill:#008484; fill-opacity:1.0; 
stroke:#008484; stroke-width:220; stroke-opacity:1; 
stroke-linecap:round; stroke-linejoin:round;">
</g>
<g style="fill:#008484; fill-opacity:0.0; 
stroke:#008484; stroke-width:220; stroke-opacity:1; 
stroke-linecap:round; stroke-linejoin:round;">
<path d="M11676 4225
L11676 4201
" />
</g>
<g style="fill:#008484; fill-opacity:1.0; 
stroke:#008484; stroke-width:0; stroke-opacity:1; 
stroke-linecap:round; stroke-linejoin:round;">
<polyline style="fill-rule:evenodd;"
points="3986,1313
4166,1313
4166,1013
3986,1013
" /> 
</g>
<g style="fill:#008484; fill-opacity:1.0; 
stroke:#008484; stroke-width:220; stroke-opacity:1; 
stroke-linecap:round; stroke-linejoin:round;">
</g>
<g style="fill:#008484; fill-opacity:0.0; 
stroke:#008484; stroke-width:220; stroke-opacity:1; 
stroke-linecap:round; stroke-linejoin:round;">
<path d="M10926 2725
L10926 2701
" />
</g>
<g style="fill:#008484; fill-opacity:1.0; 
stroke:#008484; stroke-width:0; stroke-opacity:1; 
stroke-linecap:round; stroke-linejoin:round;">
<polyline style="fill-rule:evenodd;"
points="17016,2813
16836,2813
16836,3113
17016,3113
" /> 
</g>
<g style="fill:#008484; fill-opacity:1.0; 
stroke:#008484; stroke-width:220; stroke-opacity:1; 
stroke-linecap:round; stroke-linejoin:round;">
</g>
<g style="fill:#008484; fill-opacity:0.0; 
stroke:#008484; stroke-width:220; stroke-opacity:1; 
stroke-linecap:round; stroke-linejoin:round;">
<path d="M16926 951
L16926 975
" />
</g>
<g style="fill:#008484; fill-opacity:1.0; 
stroke:#008484; stroke-width:0; stroke-opacity:1; 
stroke-linecap:round; stroke-linejoin:round;">
<polyline style="fill-rule:evenodd;"
points="13016,813
12836,813
12836,1113
13016,1113
" /> 
<polyline style="fill-rule:evenodd;"
points="10116,5063
9936,5063
9936,5363
10116,5363
" /> 
</g>
<g style="fill:#008484; fill-opacity:1.0; 
stroke:#008484; stroke-width:220; stroke-opacity:1; 
stroke-linecap:round; stroke-linejoin:round;">
</g>
<g style="fill:#008484; fill-opacity:0.0; 
stroke:#008484; stroke-width:220; stroke-opacity:1; 
stroke-linecap:round; stroke-linejoin:round;">
<path d="M5926 1451
L5926 1475
" />
</g>
<g style="fill:#008484; fill-opacity:0.0; 
stroke:#008484; stroke-width:47.2441; stroke-opacity:1; 
stroke-linecap:round; stroke-linejoin:round;">
<path d="M15894 1918
L15894 1603
L15969 1603
L16014 1618
L16044 1648
L16059 1678
L16074 1738
L16074 1783
L16059 1843
L16044 1873
L16014 1903
L15969 1918
L15894 1918
" />
<path d="M16194 1633
L16209 1618
L16239 1603
L16314 1603
L16344 1618
L16359 1633
L16374 1663
L16374 1693
L16359 1738
L16179 1918
L16374 1918
" />
<path d="M11418 5954
L11268 5954
L11268 5639
" />
<path d="M11523 5789
L11628 5789
" />
<path d="M11673 5954
L11523 5954
L11523 5639
L11673 5639
" />
<path d="M11808 5954
L11808 5639
L11883 5639
L11928 5654
L11958 5684
L11973 5714
L11988 5774
L11988 5819
L11973 5879
L11958 5909
L11928 5939
L11883 5954
L11808 5954
" />
<path d="M12288 5954
L12108 5954
" />
<path d="M12198 5954
L12198 5639
L12168 5684
L12138 5714
L12108 5729
" />
<path d="M7528 4674
L7528 4359
L7603 4359
L7648 4374
L7678 4404
L7693 4434
L7708 4494
L7708 4539
L7693 4599
L7678 4629
L7648 4659
L7603 4674
L7528 4674
" />
<path d="M8008 4674
L7828 4674
" />
<path d="M7918 4674
L7918 4359
L7888 4404
L7858 4434
L7828 4449
" />
<path d="M12136 3938
L11821 3938
" />
<path d="M12106 3608
L12121 3623
L12136 3668
L12136 3698
L12121 3743
L12091 3773
L12061 3788
L12001 3803
L11956 3803
L11896 3788
L11866 3773
L11836 3743
L11821 3698
L11821 3668
L11836 3623
L11851 3608
" />
<path d="M12136 3308
L12136 3488
" />
<path d="M12136 3398
L11821 3398
L11866 3428
L11896 3458
L11911 3488
" />
<path d="M4746 4921
L4716 4906
L4686 4876
L4641 4831
L4611 4816
L4581 4816
" />
<path d="M4596 4891
L4566 4876
L4536 4846
L4521 4786
L4521 4681
L4536 4621
L4566 4591
L4596 4576
L4656 4576
L4686 4591
L4716 4621
L4731 4681
L4731 4786
L4716 4846
L4686 4876
L4656 4891
L4596 4891
" />
<path d="M5031 4891
L4851 4891
" />
<path d="M4941 4891
L4941 4576
L4911 4621
L4881 4651
L4851 4666
" />
<path d="M6035 3099
L5930 2949
" />
<path d="M5855 3099
L5855 2784
L5975 2784
L6005 2799
L6020 2814
L6035 2844
L6035 2889
L6020 2919
L6005 2934
L5975 2949
L5855 2949
" />
<path d="M6319 2784
L6169 2784
L6154 2934
L6169 2919
L6199 2904
L6274 2904
L6304 2919
L6319 2934
L6334 2964
L6334 3039
L6319 3069
L6304 3084
L6274 3099
L6199 3099
L6169 3084
L6154 3069
" />
<path d="M5035 3099
L4855 3099
" />
<path d="M4945 3099
L4945 2784
L4915 2829
L4885 2859
L4855 2874
" />
<path d="M5230 2784
L5260 2784
L5290 2799
L5305 2814
L5320 2844
L5335 2904
L5335 2979
L5320 3039
L5305 3069
L5290 3084
L5260 3099
L5230 3099
L5200 3084
L5185 3069
L5170 3039
L5155 2979
L5155 2904
L5170 2844
L5185 2814
L5200 2799
L5230 2784
" />
<path d="M5470 3099
L5470 2784
" />
<path d="M5650 3099
L5515 2919
" />
<path d="M5650 2784
L5470 2964
" />
<path d="M2931 3394
L2826 3244
" />
<path d="M2751 3394
L2751 3080
L2871 3080
L2901 3095
L2916 3109
L2931 3139
L2931 3184
L2916 3214
L2901 3229
L2871 3244
L2751 3244
" />
<path d="M3201 3080
L3141 3080
L3111 3095
L3096 3109
L3066 3154
L3051 3214
L3051 3334
L3066 3364
L3081 3379
L3111 3394
L3171 3394
L3201 3379
L3216 3364
L3231 3334
L3231 3259
L3216 3229
L3201 3214
L3171 3199
L3111 3199
L3081 3214
L3066 3229
L3051 3259
" />
<path d="M1984 3394
L1804 3394
" />
<path d="M1894 3394
L1894 3080
L1864 3124
L1834 3154
L1804 3169
" />
<path d="M2179 3080
L2209 3080
L2239 3095
L2254 3109
L2269 3139
L2284 3199
L2284 3274
L2269 3334
L2254 3364
L2239 3379
L2209 3394
L2179 3394
L2149 3379
L2134 3364
L2119 3334
L2104 3274
L2104 3199
L2119 3139
L2134 3109
L2149 3095
L2179 3080
" />
<path d="M2419 3394
L2419 3080
" />
<path d="M2599 3394
L2464 3214
" />
<path d="M2599 3080
L2419 3259
" />
<path d="M10636 4368
L10621 4383
L10576 4398
L10546 4398
L10501 4383
L10471 4353
L10456 4323
L10441 4263
L10441 4218
L10456 4158
L10471 4128
L10501 4098
L10546 4083
L10576 4083
L10621 4098
L10636 4113
" />
<path d="M10756 4113
L10771 4098
L10801 4083
L10876 4083
L10906 4098
L10921 4113
L10936 4143
L10936 4173
L10921 4218
L10741 4398
L10936 4398
" />
<path d="M9692 4398
L9512 4398
" />
<path d="M9602 4398
L9602 4083
L9572 4128
L9542 4158
L9512 4173
" />
<path d="M9962 4188
L9962 4398
" />
<path d="M9827 4188
L9827 4353
L9842 4383
L9872 4398
L9917 4398
L9947 4383
L9962 4368
" />
<path d="M10217 4233
L10112 4233
" />
<path d="M10112 4398
L10112 4083
L10262 4083
" />
<path d="M4558 737
L4453 587
" />
<path d="M4378 737
L4378 422
L4498 422
L4528 437
L4543 452
L4558 482
L4558 527
L4543 557
L4528 572
L4498 587
L4378 587
" />
<path d="M4663 422
L4873 422
L4738 737
" />
<path d="M3559 737
L3379 737
" />
<path d="M3469 737
L3469 422
L3439 467
L3409 497
L3379 512
" />
<path d="M3754 422
L3784 422
L3814 437
L3829 452
L3844 482
L3859 542
L3859 617
L3844 677
L3829 707
L3814 722
L3784 737
L3754 737
L3724 722
L3709 707
L3694 677
L3679 617
L3679 542
L3694 482
L3709 452
L3724 437
L3754 422
" />
<path d="M3994 737
L3994 422
" />
<path d="M4174 737
L4039 557
" />
<path d="M4174 422
L3994 602
" />
<path d="M9873 2774
L9858 2789
L9813 2804
L9783 2804
L9738 2789
L9708 2759
L9693 2729
L9678 2669
L9678 2624
L9693 2564
L9708 2534
L9738 2504
L9783 2489
L9813 2489
L9858 2504
L9873 2519
" />
<path d="M9978 2489
L10173 2489
L10068 2609
L10113 2609
L10143 2624
L10158 2639
L10173 2669
L10173 2744
L10158 2774
L10143 2789
L10113 2804
L10023 2804
L9993 2789
L9978 2774
" />
<path d="M8972 2804
L8792 2804
" />
<path d="M8882 2804
L8882 2489
L8852 2534
L8822 2564
L8792 2579
" />
<path d="M9242 2594
L9242 2804
" />
<path d="M9107 2594
L9107 2759
L9122 2789
L9152 2804
L9197 2804
L9227 2789
L9242 2774
" />
<path d="M9497 2639
L9392 2639
" />
<path d="M9392 2804
L9392 2489
L9542 2489
" />
<path d="M17231 2627
L17126 2477
" />
<path d="M17051 2627
L17051 2312
L17171 2312
L17201 2327
L17216 2342
L17231 2372
L17231 2417
L17216 2447
L17201 2462
L17171 2477
L17051 2477
" />
<path d="M17531 2627
L17351 2627
" />
<path d="M17441 2627
L17441 2312
L17411 2357
L17381 2387
L17351 2402
" />
<path d="M16227 2627
L16047 2627
" />
<path d="M16137 2627
L16137 2312
L16107 2357
L16077 2387
L16047 2402
" />
<path d="M16422 2312
L16452 2312
L16482 2327
L16497 2342
L16512 2372
L16527 2432
L16527 2507
L16512 2567
L16497 2597
L16482 2612
L16452 2627
L16422 2627
L16392 2612
L16377 2597
L16362 2567
L16347 2507
L16347 2432
L16362 2372
L16377 2342
L16392 2327
L16422 2312
" />
<path d="M16662 2627
L16662 2312
" />
<path d="M16842 2627
L16707 2447
" />
<path d="M16842 2312
L16662 2492
" />
<path d="M17353 609
L17338 624
L17293 639
L17263 639
L17218 624
L17188 594
L17173 564
L17158 504
L17158 459
L17173 399
L17188 369
L17218 339
L17263 324
L17293 324
L17338 339
L17353 354
" />
<path d="M17623 429
L17623 639
" />
<path d="M17548 309
L17473 534
L17668 534
" />
<path d="M16354 639
L16174 639
" />
<path d="M16264 639
L16264 324
L16234 369
L16204 399
L16174 414
" />
<path d="M16624 429
L16624 639
" />
<path d="M16489 429
L16489 594
L16504 624
L16534 639
L16579 639
L16609 624
L16624 609
" />
<path d="M16879 474
L16774 474
" />
<path d="M16774 639
L16774 324
L16924 324
" />
<path d="M11719 1150
L11614 1000
" />
<path d="M11539 1150
L11539 835
L11659 835
L11689 850
L11704 865
L11719 895
L11719 940
L11704 970
L11689 985
L11659 1000
L11539 1000
" />
<path d="M11839 865
L11854 850
L11884 835
L11959 835
L11989 850
L12004 865
L12019 895
L12019 925
L12004 970
L11824 1150
L12019 1150
" />
<path d="M10301 835
L10151 835
L10136 985
L10151 970
L10181 955
L10256 955
L10286 970
L10301 985
L10316 1015
L10316 1090
L10301 1120
L10286 1135
L10256 1150
L10181 1150
L10151 1135
L10136 1120
" />
<path d="M10616 1150
L10436 1150
" />
<path d="M10526 1150
L10526 835
L10496 880
L10466 910
L10436 925
" />
<path d="M10811 835
L10841 835
L10871 850
L10886 865
L10901 895
L10916 955
L10916 1030
L10901 1090
L10886 1120
L10871 1135
L10841 1150
L10811 1150
L10781 1135
L10766 1120
L10751 1090
L10736 1030
L10736 955
L10751 895
L10766 865
L10781 850
L10811 835
" />
<path d="M11051 1150
L11051 835
" />
<path d="M11231 1150
L11096 970
" />
<path d="M11231 835
L11051 1015
" />
<path d="M10341 6072
L10236 5922
" />
<path d="M10161 6072
L10161 5757
L10281 5757
L10311 5772
L10326 5787
L10341 5817
L10341 5862
L10326 5892
L10311 5907
L10281 5922
L10161 5922
" />
<path d="M10446 5757
L10641 5757
L10536 5877
L10581 5877
L10611 5892
L10626 5907
L10641 5937
L10641 6012
L10626 6042
L10611 6057
L10581 6072
L10491 6072
L10461 6057
L10446 6042
" />
<path d="M9037 6072
L8857 6072
" />
<path d="M8947 6072
L8947 5757
L8917 5802
L8887 5832
L8857 5847
" />
<path d="M9232 5757
L9262 5757
L9292 5772
L9307 5787
L9322 5817
L9337 5877
L9337 5952
L9322 6012
L9307 6042
L9292 6057
L9262 6072
L9232 6072
L9202 6057
L9187 6042
L9172 6012
L9157 5952
L9157 5877
L9172 5817
L9187 5787
L9202 5772
L9232 5757
" />
<path d="M9532 5757
L9562 5757
L9592 5772
L9607 5787
L9622 5817
L9637 5877
L9637 5952
L9622 6012
L9607 6042
L9592 6057
L9562 6072
L9532 6072
L9502 6057
L9487 6042
L9472 6012
L9457 5952
L9457 5877
L9472 5817
L9487 5787
L9502 5772
L9532 5757
" />
<path d="M9952 6072
L9847 5922
" />
<path d="M9772 6072
L9772 5757
L9892 5757
L9922 5772
L9937 5787
L9952 5817
L9952 5862
L9937 5892
L9922 5907
L9892 5922
L9772 5922
" />
<path d="M6231 1101
L6216 1116
L6171 1131
L6141 1131
L6096 1116
L6066 1086
L6051 1056
L6036 996
L6036 951
L6051 891
L6066 861
L6096 831
L6141 816
L6171 816
L6216 831
L6231 846
" />
<path d="M6516 816
L6366 816
L6351 966
L6366 951
L6396 936
L6471 936
L6501 951
L6516 966
L6531 996
L6531 1071
L6516 1101
L6501 1116
L6471 1131
L6396 1131
L6366 1116
L6351 1101
" />
<path d="M5331 1131
L5151 1131
" />
<path d="M5241 1131
L5241 816
L5211 861
L5181 891
L5151 906
" />
<path d="M5600 921
L5600 1131
" />
<path d="M5466 921
L5466 1086
L5481 1116
L5511 1131
L5556 1131
L5586 1116
L5600 1101
" />
<path d="M5855 966
L5750 966
" />
<path d="M5750 1131
L5750 816
L5900 816
" />
</g>
<g style="fill:#000000; fill-opacity:0.0; 
stroke:#000000; stroke-width:47.2441; stroke-opacity:1; 
stroke-linecap:round; stroke-linejoin:round;">
</g>
<g style="fill:#848484; fill-opacity:0.0; 
stroke:#848484; stroke-width:47.2441; stroke-opacity:1; 
stroke-linecap:round; stroke-linejoin:round;">
</g>
<g style="fill:#848484; fill-opacity:0.0; 
stroke:#848484; stroke-width:59.0551; stroke-opacity:1; 
stroke-linecap:round; stroke-linejoin:round;">
<circle cx="1926.14" cy="3213.54" r="590.551" /> 
<path d="M2910 1441
L2910 2032
" />
<path d="M2713 1441
L2910 1441
" />
<path d="M2713 2032
L2713 1441
" />
<path d="M1138 1441
L1138 2032
" />
<path d="M941 1441
L1138 1441
" />
<path d="M941 2032
L941 1441
" />
<path d="M2910 4985
L2910 4394
" />
<path d="M2713 4985
L2910 4985
" />
<path d="M2713 4394
L2713 4985
" />
<path d="M1138 4985
L1138 4394
" />
<path d="M941 4985
L1138 4985
" />
<path d="M941 4394
L941 4985
" />
<path d="M3107 4394
L745 4394
" />
<path d="M3107 2032
L3107 4394
" />
<path d="M745 2032
L3107 2032
" />
<path d="M745 4394
L745 2032
" />
</g>
<g style="fill:#000000; fill-opacity:0.0; 
stroke:#000000; stroke-width:59.0551; stroke-opacity:1; 
stroke-linecap:round; stroke-linejoin:round;">
</g>
<g style="fill:#484848; fill-opacity:0.0; 
stroke:#484848; stroke-width:59.0551; stroke-opacity:1; 
stroke-linecap:round; stroke-linejoin:round;">
</g>
<g style="fill:#484848; fill-opacity:0.0; 
stroke:#484848; stroke-width:50; stroke-opacity:1; 
stroke-linecap:round; stroke-linejoin:round;">
<path d="M16827 2304
L16827 2107
" />
<path d="M16827 2107
L16827 1910
" />
<path d="M17024 2304
L17024 2107
" />
<path d="M17024 2107
L17024 1910
" />
<path d="M17024 1910
L16827 2107
" />
<path d="M16827 2107
L17024 2304
" />
<path d="M16827 2107
L16630 2107
" />
<path d="M17024 2107
L17221 2107
" />
</g>
<g style="fill:#484848; fill-opacity:1.0; 
stroke:#484848; stroke-width:0; stroke-opacity:1; 
stroke-linecap:round; stroke-linejoin:round;">
<polyline style="fill-rule:evenodd;"
points="17162,1871
17162,1556
16689,1556
16689,1871
" /> 
<polyline style="fill-rule:evenodd;"
points="17241,1772
17241,1654
17162,1654
17162,1772
" /> 
<polyline style="fill-rule:evenodd;"
points="16689,1772
16689,1654
16611,1654
16611,1772
" /> 
</g>
<g style="fill:#484848; fill-opacity:1.0; 
stroke:#484848; stroke-width:59.0551; stroke-opacity:1; 
stroke-linecap:round; stroke-linejoin:round;">
</g>
<g style="fill:#484848; fill-opacity:0.0; 
stroke:#484848; stroke-width:59.0551; stroke-opacity:1; 
stroke-linecap:round; stroke-linejoin:round;">
<path d="M11833 6197
L11991 6197
" />
<path d="M11833 6197
L11833 6394
" />
<path d="M11833 6197
L11833 6000
" />
<path d="M11833 6197
L11518 6394
" />
<path d="M11518 6000
L11833 6197
" />
<path d="M11518 6394
L11518 6000
" />
</g>
<g style="fill:#484848; fill-opacity:0.0; 
stroke:#484848; stroke-width:40; stroke-opacity:1; 
stroke-linecap:round; stroke-linejoin:round;">
<path d="M12069.8 5075.75 A137.795 137.795 0.0 0 0 12069.8 5351.34 " />
<path d="M11282.4 5351.34 A137.795 137.795 0.0 0 0 11282.4 5075.75 " />
<path d="M11882 5439
L11469 5439
" />
<path d="M11479 4987
L12040 4987
" />
<circle cx="12010.8" cy="5036.38" r="40.5512" /> 
</g>
<g style="fill:#484848; fill-opacity:1.0; 
stroke:#484848; stroke-width:0; stroke-opacity:1; 
stroke-linecap:round; stroke-linejoin:round;">
<polyline style="fill-rule:evenodd;"
points="11872,5331
11872,5459
12069,5459
12069,5331
" /> 
<polyline style="fill-rule:evenodd;"
points="11872,5085
11872,5144
11971,5144
11971,5085
" /> 
<polyline style="fill-rule:evenodd;"
points="11872,5282
11872,5341
11971,5341
11971,5282
" /> 
<polyline style="fill-rule:evenodd;"
points="11872,5134
11872,5292
11941,5292
11941,5134
" /> 
<polyline style="fill-rule:evenodd;"
points="11282,5331
11282,5459
11479,5459
11479,5331
" /> 
<polyline style="fill-rule:evenodd;"
points="11282,4967
11282,5095
11479,5095
11479,4967
" /> 
<polyline style="fill-rule:evenodd;"
points="11380,5282
11380,5341
11479,5341
11479,5282
" /> 
<polyline style="fill-rule:evenodd;"
points="11380,5085
11380,5144
11479,5144
11479,5085
" /> 
<polyline style="fill-rule:evenodd;"
points="11410,5134
11410,5292
11479,5292
11479,5134
" /> 
<polyline style="fill-rule:evenodd;"
points="11872,4977
11872,5095
11991,5095
11991,4977
" /> 
<polyline style="fill-rule:evenodd;"
points="12040,4967
12040,5056
12069,5056
12069,4967
" /> 
</g>
<g style="fill:#484848; fill-opacity:1.0; 
stroke:#484848; stroke-width:59.0551; stroke-opacity:1; 
stroke-linecap:round; stroke-linejoin:round;">
</g>
<g style="fill:#484848; fill-opacity:0.0; 
stroke:#484848; stroke-width:59.0551; stroke-opacity:1; 
stroke-linecap:round; stroke-linejoin:round;">
<path d="M7618 6119
L7382 6119
" />
<path d="M7618 5764
L7618 6434
" />
</g>
<g style="fill:#484848; fill-opacity:0.0; 
stroke:#484848; stroke-width:100; stroke-opacity:1; 
stroke-linecap:round; stroke-linejoin:round;">
<path d="M6870 4819
L8681 4819
" />
<path d="M8681 4819
L8681 5587
" />
<path d="M8681 5587
L6870 5587
" />
<path d="M6870 5587
L6870 4819
" />
</g>
<g style="fill:#484848; fill-opacity:0.0; 
stroke:#484848; stroke-width:59.0551; stroke-opacity:1; 
stroke-linecap:round; stroke-linejoin:round;">
<path d="M7658 6099
L8071 5804
" />
<path d="M8071 5823
L8071 6394
" />
<path d="M8071 6394
L7658 6119
" />
</g>
<g style="fill:#484848; fill-opacity:1.0; 
stroke:#484848; stroke-width:0; stroke-opacity:1; 
stroke-linecap:round; stroke-linejoin:round;">
<polyline style="fill-rule:evenodd;"
points="6732,5489
6831,5489
6831,4957
6732,4957
" /> 
<polyline style="fill-rule:evenodd;"
points="8721,5489
8819,5489
8819,4957
8721,4957
" /> 
</g>
<g style="fill:#484848; fill-opacity:1.0; 
stroke:#484848; stroke-width:60; stroke-opacity:1; 
stroke-linecap:round; stroke-linejoin:round;">
</g>
<g style="fill:#484848; fill-opacity:0.0; 
stroke:#484848; stroke-width:60; stroke-opacity:1; 
stroke-linecap:round; stroke-linejoin:round;">
<path d="M12246 3918
L15606 3918
" />
<path d="M15606 2508
L12246 2508
" />
</g>
<g style="fill:#484848; fill-opacity:1.0; 
stroke:#484848; stroke-width:0; stroke-opacity:1; 
stroke-linecap:round; stroke-linejoin:round;">
<polyline style="fill-rule:evenodd;"
points="12356,2488
12496,2488
12496,2088
12356,2088
" /> 
<polyline style="fill-rule:evenodd;"
points="12856,2488
12996,2488
12996,2088
12856,2088
" /> 
<polyline style="fill-rule:evenodd;"
points="13356,2488
13496,2488
13496,2088
13356,2088
" /> 
<polyline style="fill-rule:evenodd;"
points="13856,2488
13996,2488
13996,2088
13856,2088
" /> 
<polyline style="fill-rule:evenodd;"
points="14356,2488
14496,2488
14496,2088
14356,2088
" /> 
<polyline style="fill-rule:evenodd;"
points="14856,2488
14996,2488
14996,2088
14856,2088
" /> 
<polyline style="fill-rule:evenodd;"
points="15356,2488
15496,2488
15496,2088
15356,2088
" /> 
<polyline style="fill-rule:evenodd;"
points="15356,4338
15496,4338
15496,3938
15356,3938
" /> 
<polyline style="fill-rule:evenodd;"
points="14856,4338
14996,4338
14996,3938
14856,3938
" /> 
<polyline style="fill-rule:evenodd;"
points="14356,4338
14496,4338
14496,3938
14356,3938
" /> 
<polyline style="fill-rule:evenodd;"
points="13856,4338
13996,4338
13996,3938
13856,3938
" /> 
<polyline style="fill-rule:evenodd;"
points="13356,4338
13496,4338
13496,3938
13356,3938
" /> 
<polyline style="fill-rule:evenodd;"
points="12856,4338
12996,4338
12996,3938
12856,3938
" /> 
<polyline style="fill-rule:evenodd;"
points="12356,4338
12496,4338
12496,3938
12356,3938
" /> 
<polyline style="fill-rule:evenodd;"
points="18526,4613
18326,4613
18326,4813
18526,4813
" /> 
<polyline style="fill-rule:evenodd;"
points="18526,5613
18326,5613
18326,5813
18526,5813
" /> 
<polyline style="fill-rule:evenodd;"
points="17526,5613
17326,5613
17326,5813
17526,5813
" /> 
<polyline style="fill-rule:evenodd;"
points="17526,4613
17326,4613
17326,4813
17526,4813
" /> 
<polyline style="fill-rule:evenodd;"
points="16526,5613
16326,5613
16326,5813
16526,5813
" /> 
<polyline style="fill-rule:evenodd;"
points="16526,4613
16326,4613
16326,4813
16526,4813
" /> 
<polyline style="fill-rule:evenodd;"
points="6016,4993
5836,4993
5836,5223
6016,5223
" /> 
<polyline style="fill-rule:evenodd;"
points="5646,4203
5466,4203
5466,4433
5646,4433
" /> 
<polyline style="fill-rule:evenodd;"
points="6386,4203
6206,4203
6206,4433
6386,4433
" /> 
</g>
<g style="fill:#484848; fill-opacity:1.0; 
stroke:#484848; stroke-width:40; stroke-opacity:1; 
stroke-linecap:round; stroke-linejoin:round;">
</g>
<g style="fill:#484848; fill-opacity:0.0; 
stroke:#484848; stroke-width:40; stroke-opacity:1; 
stroke-linecap:round; stroke-linejoin:round;">
<path d="M5785 3293
L6066 3293
" />
<path d="M5785 3628
L6066 3628
" />
</g>
<g style="fill:#484848; fill-opacity:1.0; 
stroke:#484848; stroke-width:0; stroke-opacity:1; 
stroke-linecap:round; stroke-linejoin:round;">
<polyline style="fill-rule:evenodd;"
points="5596,3648
5793,3648
5793,3274
5596,3274
" /> 
<polyline style="fill-rule:evenodd;"
points="6056,3648
6253,3648
6253,3274
6056,3274
" /> 
</g>
<g style="fill:#484848; fill-opacity:1.0; 
stroke:#484848; stroke-width:40; stroke-opacity:1; 
stroke-linecap:round; stroke-linejoin:round;">
</g>
<g style="fill:#484848; fill-opacity:0.0; 
stroke:#484848; stroke-width:40; stroke-opacity:1; 
stroke-linecap:round; stroke-linejoin:round;">
<path d="M3785 3043
L4066 3043
" />
<path d="M3785 3378
L4066 3378
" />
</g>
<g style="fill:#484848; fill-opacity:1.0; 
stroke:#484848; stroke-width:0; stroke-opacity:1; 
stroke-linecap:round; stroke-linejoin:round;">
<polyline style="fill-rule:evenodd;"
points="3596,3398
3793,3398
3793,3024
3596,3024
" /> 
<polyline style="fill-rule:evenodd;"
points="4056,3398
4253,3398
4253,3024
4056,3024
" /> 
</g>
<g style="fill:#484848; fill-opacity:1.0; 
stroke:#484848; stroke-width:40; stroke-opacity:1; 
stroke-linecap:round; stroke-linejoin:round;">
</g>
<g style="fill:#484848; fill-opacity:0.0; 
stroke:#484848; stroke-width:40; stroke-opacity:1; 
stroke-linecap:round; stroke-linejoin:round;">
<path d="M11816 4383
L11535 4383
" />
<path d="M11816 4048
L11535 4048
" />
</g>
<g style="fill:#484848; fill-opacity:1.0; 
stroke:#484848; stroke-width:0; stroke-opacity:1; 
stroke-linecap:round; stroke-linejoin:round;">
<polyline style="fill-rule:evenodd;"
points="12006,4028
11809,4028
11809,4402
12006,4402
" /> 
<polyline style="fill-rule:evenodd;"
points="11546,4028
11349,4028
11349,4402
11546,4402
" /> 
</g>
<g style="fill:#484848; fill-opacity:1.0; 
stroke:#484848; stroke-width:40; stroke-opacity:1; 
stroke-linecap:round; stroke-linejoin:round;">
</g>
<g style="fill:#484848; fill-opacity:0.0; 
stroke:#484848; stroke-width:40; stroke-opacity:1; 
stroke-linecap:round; stroke-linejoin:round;">
<path d="M3935 993
L4216 993
" />
<path d="M3935 1328
L4216 1328
" />
</g>
<g style="fill:#484848; fill-opacity:1.0; 
stroke:#484848; stroke-width:0; stroke-opacity:1; 
stroke-linecap:round; stroke-linejoin:round;">
<polyline style="fill-rule:evenodd;"
points="3746,1348
3943,1348
3943,974
3746,974
" /> 
<polyline style="fill-rule:evenodd;"
points="4206,1348
4403,1348
4403,974
4206,974
" /> 
</g>
<g style="fill:#484848; fill-opacity:1.0; 
stroke:#484848; stroke-width:40; stroke-opacity:1; 
stroke-linecap:round; stroke-linejoin:round;">
</g>
<g style="fill:#484848; fill-opacity:0.0; 
stroke:#484848; stroke-width:40; stroke-opacity:1; 
stroke-linecap:round; stroke-linejoin:round;">
<path d="M11066 2883
L10785 2883
" />
<path d="M11066 2548
L10785 2548
" />
</g>
<g style="fill:#484848; fill-opacity:1.0; 
stroke:#484848; stroke-width:0; stroke-opacity:1; 
stroke-linecap:round; stroke-linejoin:round;">
<polyline style="fill-rule:evenodd;"
points="11256,2528
11059,2528
11059,2902
11256,2902
" /> 
<polyline style="fill-rule:evenodd;"
points="10796,2528
10599,2528
10599,2902
10796,2902
" /> 
</g>
<g style="fill:#484848; fill-opacity:1.0; 
stroke:#484848; stroke-width:40; stroke-opacity:1; 
stroke-linecap:round; stroke-linejoin:round;">
</g>
<g style="fill:#484848; fill-opacity:0.0; 
stroke:#484848; stroke-width:40; stroke-opacity:1; 
stroke-linecap:round; stroke-linejoin:round;">
<path d="M17066 3133
L16785 3133
" />
<path d="M17066 2798
L16785 2798
" />
</g>
<g style="fill:#484848; fill-opacity:1.0; 
stroke:#484848; stroke-width:0; stroke-opacity:1; 
stroke-linecap:round; stroke-linejoin:round;">
<polyline style="fill-rule:evenodd;"
points="17256,2778
17059,2778
17059,3152
17256,3152
" /> 
<polyline style="fill-rule:evenodd;"
points="16796,2778
16599,2778
16599,3152
16796,3152
" /> 
</g>
<g style="fill:#484848; fill-opacity:1.0; 
stroke:#484848; stroke-width:40; stroke-opacity:1; 
stroke-linecap:round; stroke-linejoin:round;">
</g>
<g style="fill:#484848; fill-opacity:0.0; 
stroke:#484848; stroke-width:40; stroke-opacity:1; 
stroke-linecap:round; stroke-linejoin:round;">
<path d="M16785 793
L17066 793
" />
<path d="M16785 1128
L17066 1128
" />
</g>
<g style="fill:#484848; fill-opacity:1.0; 
stroke:#484848; stroke-width:0; stroke-opacity:1; 
stroke-linecap:round; stroke-linejoin:round;">
<polyline style="fill-rule:evenodd;"
points="16596,1148
16793,1148
16793,774
16596,774
" /> 
<polyline style="fill-rule:evenodd;"
points="17056,1148
17253,1148
17253,774
17056,774
" /> 
</g>
<g style="fill:#484848; fill-opacity:1.0; 
stroke:#484848; stroke-width:40; stroke-opacity:1; 
stroke-linecap:round; stroke-linejoin:round;">
</g>
<g style="fill:#484848; fill-opacity:0.0; 
stroke:#484848; stroke-width:40; stroke-opacity:1; 
stroke-linecap:round; stroke-linejoin:round;">
<path d="M13066 1133
L12785 1133
" />
<path d="M13066 798
L12785 798
" />
</g>
<g style="fill:#484848; fill-opacity:1.0; 
stroke:#484848; stroke-width:0; stroke-opacity:1; 
stroke-linecap:round; stroke-linejoin:round;">
<polyline style="fill-rule:evenodd;"
points="13256,778
13059,778
13059,1152
13256,1152
" /> 
<polyline style="fill-rule:evenodd;"
points="12796,778
12599,778
12599,1152
12796,1152
" /> 
</g>
<g style="fill:#484848; fill-opacity:1.0; 
stroke:#484848; stroke-width:40; stroke-opacity:1; 
stroke-linecap:round; stroke-linejoin:round;">
</g>
<g style="fill:#484848; fill-opacity:0.0; 
stroke:#484848; stroke-width:40; stroke-opacity:1; 
stroke-linecap:round; stroke-linejoin:round;">
<path d="M10166 5383
L9885 5383
" />
<path d="M10166 5048
L9885 5048
" />
</g>
<g style="fill:#484848; fill-opacity:1.0; 
stroke:#484848; stroke-width:0; stroke-opacity:1; 
stroke-linecap:round; stroke-linejoin:round;">
<polyline style="fill-rule:evenodd;"
points="10356,5028
10159,5028
10159,5402
10356,5402
" /> 
<polyline style="fill-rule:evenodd;"
points="9896,5028
9699,5028
9699,5402
9896,5402
" /> 
</g>
<g style="fill:#484848; fill-opacity:1.0; 
stroke:#484848; stroke-width:40; stroke-opacity:1; 
stroke-linecap:round; stroke-linejoin:round;">
</g>
<g style="fill:#484848; fill-opacity:0.0; 
stroke:#484848; stroke-width:40; stroke-opacity:1; 
stroke-linecap:round; stroke-linejoin:round;">
<path d="M5785 1293
L6066 1293
" />
<path d="M5785 1628
L6066 1628
" />
</g>
<g style="fill:#484848; fill-opacity:1.0; 
stroke:#484848; stroke-width:0; stroke-opacity:1; 
stroke-linecap:round; stroke-linejoin:round;">
<polyline style="fill-rule:evenodd;"
points="5596,1648
5793,1648
5793,1274
5596,1274
" /> 
<polyline style="fill-rule:evenodd;"
points="6056,1648
6253,1648
6253,1274
6056,1274
" /> 
</g>
<g style="fill:#000000; fill-opacity:1.0; 
stroke:#000000; stroke-width:0; stroke-opacity:1; 
stroke-linecap:round; stroke-linejoin:round;">
</g>
<g style="fill:#C2C200; fill-opacity:1.0; 
stroke:#C2C200; stroke-width:0; stroke-opacity:1; 
stroke-linecap:round; stroke-linejoin:round;">
</g>
<g style="fill:#C2C200; fill-opacity:1.0; 
stroke:#C2C200; stroke-width:59.0551; stroke-opacity:1; 
stroke-linecap:round; stroke-linejoin:round;">
</g>
<g style="fill:#C2C200; fill-opacity:0.0; 
stroke:#C2C200; stroke-width:59.0551; stroke-opacity:1; 
stroke-linecap:round; stroke-linejoin:round;">
<path d="M366 63
L49382 63
" />
<path d="M366 6362
L366 63
" />
<path d="M49382 6362
L366 6362
" />
<path d="M55780 3213
L49382 6362
" />
<path d="M55780 3213
L49382 63
" />
</g> 
</svg>
