<?xml version="1.0" standalone="no"?>
 <!DOCTYPE svg PUBLIC "-//W3C//DTD SVG 1.1//EN" 
 "http://www.w3.org/Graphics/SVG/1.1/DTD/svg11.dtd"> 
<svg xmlns="http://www.w3.org/2000/svg" version="1.1" 
    width="29.7002cm" height="21.0007cm" viewBox="0 0 116930 82680 ">
<title>SVG Picture created as chirp-v2.4-brd.svg date 2018/03/27 22:36:06 </title>
  <desc>Picture generated by PCBNEW </desc>
<g style="fill:#000000; fill-opacity:1;stroke:#000000; stroke-opacity:1;
stroke-linecap:round; stroke-linejoin:round; "
 transform="translate(0 0) scale(1 1)">
</g>
<g style="fill:#000000; fill-opacity:0.0; 
stroke:#000000; stroke-width:-0.000393701; stroke-opacity:1; 
stroke-linecap:round; stroke-linejoin:round;">
</g>
<g style="fill:#000000; fill-opacity:0.0; 
stroke:#000000; stroke-width:39.3701; stroke-opacity:1; 
stroke-linecap:round; stroke-linejoin:round;">
</g>
<g style="fill:#000000; fill-opacity:0.0; 
stroke:#000000; stroke-width:59.0551; stroke-opacity:1; 
stroke-linecap:round; stroke-linejoin:round;">
<rect x="69685.9" y="65357.2" width="42519.7" height="12598.4" rx="0" />
</g>
<g style="fill:#000000; fill-opacity:0.0; 
stroke:#000000; stroke-width:39.3701; stroke-opacity:1; 
stroke-linecap:round; stroke-linejoin:round;">
</g>
<g style="fill:#000000; fill-opacity:0.0; 
stroke:#000000; stroke-width:59.0551; stroke-opacity:1; 
stroke-linecap:round; stroke-linejoin:round;">
<rect x="3937.01" y="3937.01" width="109056" height="74806" rx="0" />
</g>
<g style="fill:#000000; fill-opacity:0.0; 
stroke:#000000; stroke-width:39.3701; stroke-opacity:1; 
stroke-linecap:round; stroke-linejoin:round;">
</g>
<g style="fill:#000000; fill-opacity:0.0; 
stroke:#000000; stroke-width:59.0551; stroke-opacity:1; 
stroke-linecap:round; stroke-linejoin:round;">
<rect x="4724.41" y="4724.41" width="107481" height="73231.2" rx="0" />
</g>
<g style="fill:#000000; fill-opacity:0.0; 
stroke:#000000; stroke-width:39.3701; stroke-opacity:1; 
stroke-linecap:round; stroke-linejoin:round;">
</g>
<g style="fill:#000000; fill-opacity:0.0; 
stroke:#000000; stroke-width:59.0551; stroke-opacity:1; 
stroke-linecap:round; stroke-linejoin:round;">
<path d="M23622 4724
L23622 3937
" />
</g>
<g style="fill:#000000; fill-opacity:0.0; 
stroke:#000000; stroke-width:39.3701; stroke-opacity:1; 
stroke-linecap:round; stroke-linejoin:round;">
</g>
<g style="fill:#000000; fill-opacity:0.0; 
stroke:#000000; stroke-width:59.0551; stroke-opacity:1; 
stroke-linecap:round; stroke-linejoin:round;">
<path d="M43307 4724
L43307 3937
" />
</g>
<g style="fill:#000000; fill-opacity:0.0; 
stroke:#000000; stroke-width:39.3701; stroke-opacity:1; 
stroke-linecap:round; stroke-linejoin:round;">
</g>
<g style="fill:#000000; fill-opacity:0.0; 
stroke:#000000; stroke-width:59.0551; stroke-opacity:1; 
stroke-linecap:round; stroke-linejoin:round;">
<path d="M62992 4724
L62992 3937
" />
</g>
<g style="fill:#000000; fill-opacity:0.0; 
stroke:#000000; stroke-width:39.3701; stroke-opacity:1; 
stroke-linecap:round; stroke-linejoin:round;">
</g>
<g style="fill:#000000; fill-opacity:0.0; 
stroke:#000000; stroke-width:59.0551; stroke-opacity:1; 
stroke-linecap:round; stroke-linejoin:round;">
<path d="M82677 4724
L82677 3937
" />
</g>
<g style="fill:#000000; fill-opacity:0.0; 
stroke:#000000; stroke-width:39.3701; stroke-opacity:1; 
stroke-linecap:round; stroke-linejoin:round;">
</g>
<g style="fill:#000000; fill-opacity:0.0; 
stroke:#000000; stroke-width:59.0551; stroke-opacity:1; 
stroke-linecap:round; stroke-linejoin:round;">
<path d="M102362 4724
L102362 3937
" />
</g>
<g style="fill:#000000; fill-opacity:0.0; 
stroke:#000000; stroke-width:39.3701; stroke-opacity:1; 
stroke-linecap:round; stroke-linejoin:round;">
</g>
<g style="fill:#000000; fill-opacity:0.0; 
stroke:#000000; stroke-width:59.0551; stroke-opacity:1; 
stroke-linecap:round; stroke-linejoin:round;">
<path d="M14199 4562
L13906 4562
" />
<path d="M14052 4562
L14052 4050
L14004 4123
L13955 4172
L13906 4196
" />
</g>
<g style="fill:#000000; fill-opacity:0.0; 
stroke:#000000; stroke-width:39.3701; stroke-opacity:1; 
stroke-linecap:round; stroke-linejoin:round;">
</g>
<g style="fill:#000000; fill-opacity:0.0; 
stroke:#000000; stroke-width:59.0551; stroke-opacity:1; 
stroke-linecap:round; stroke-linejoin:round;">
<path d="M33591 4099
L33615 4074
L33664 4050
L33786 4050
L33835 4074
L33859 4099
L33884 4147
L33884 4196
L33859 4269
L33567 4562
L33884 4562
" />
</g>
<g style="fill:#000000; fill-opacity:0.0; 
stroke:#000000; stroke-width:39.3701; stroke-opacity:1; 
stroke-linecap:round; stroke-linejoin:round;">
</g>
<g style="fill:#000000; fill-opacity:0.0; 
stroke:#000000; stroke-width:59.0551; stroke-opacity:1; 
stroke-linecap:round; stroke-linejoin:round;">
<path d="M53252 4050
L53569 4050
L53398 4245
L53471 4245
L53520 4269
L53544 4294
L53569 4342
L53569 4464
L53544 4513
L53520 4537
L53471 4562
L53325 4562
L53276 4537
L53252 4513
" />
</g>
<g style="fill:#000000; fill-opacity:0.0; 
stroke:#000000; stroke-width:39.3701; stroke-opacity:1; 
stroke-linecap:round; stroke-linejoin:round;">
</g>
<g style="fill:#000000; fill-opacity:0.0; 
stroke:#000000; stroke-width:59.0551; stroke-opacity:1; 
stroke-linecap:round; stroke-linejoin:round;">
<path d="M73205 4221
L73205 4562
" />
<path d="M73083 4026
L72961 4391
L73278 4391
" />
</g>
<g style="fill:#000000; fill-opacity:0.0; 
stroke:#000000; stroke-width:39.3701; stroke-opacity:1; 
stroke-linecap:round; stroke-linejoin:round;">
</g>
<g style="fill:#000000; fill-opacity:0.0; 
stroke:#000000; stroke-width:59.0551; stroke-opacity:1; 
stroke-linecap:round; stroke-linejoin:round;">
<path d="M92914 4050
L92671 4050
L92646 4294
L92671 4269
L92719 4245
L92841 4245
L92890 4269
L92914 4294
L92939 4342
L92939 4464
L92914 4513
L92890 4537
L92841 4562
L92719 4562
L92671 4537
L92646 4513
" />
</g>
<g style="fill:#000000; fill-opacity:0.0; 
stroke:#000000; stroke-width:39.3701; stroke-opacity:1; 
stroke-linecap:round; stroke-linejoin:round;">
</g>
<g style="fill:#000000; fill-opacity:0.0; 
stroke:#000000; stroke-width:59.0551; stroke-opacity:1; 
stroke-linecap:round; stroke-linejoin:round;">
<path d="M112575 4050
L112477 4050
L112429 4074
L112404 4099
L112356 4172
L112331 4269
L112331 4464
L112356 4513
L112380 4537
L112429 4562
L112526 4562
L112575 4537
L112599 4513
L112624 4464
L112624 4342
L112599 4294
L112575 4269
L112526 4245
L112429 4245
L112380 4269
L112356 4294
L112331 4342
" />
</g>
<g style="fill:#000000; fill-opacity:0.0; 
stroke:#000000; stroke-width:39.3701; stroke-opacity:1; 
stroke-linecap:round; stroke-linejoin:round;">
</g>
<g style="fill:#000000; fill-opacity:0.0; 
stroke:#000000; stroke-width:59.0551; stroke-opacity:1; 
stroke-linecap:round; stroke-linejoin:round;">
<path d="M23622 77955
L23622 78742
" />
</g>
<g style="fill:#000000; fill-opacity:0.0; 
stroke:#000000; stroke-width:39.3701; stroke-opacity:1; 
stroke-linecap:round; stroke-linejoin:round;">
</g>
<g style="fill:#000000; fill-opacity:0.0; 
stroke:#000000; stroke-width:59.0551; stroke-opacity:1; 
stroke-linecap:round; stroke-linejoin:round;">
<path d="M43307 77955
L43307 78742
" />
</g>
<g style="fill:#000000; fill-opacity:0.0; 
stroke:#000000; stroke-width:39.3701; stroke-opacity:1; 
stroke-linecap:round; stroke-linejoin:round;">
</g>
<g style="fill:#000000; fill-opacity:0.0; 
stroke:#000000; stroke-width:59.0551; stroke-opacity:1; 
stroke-linecap:round; stroke-linejoin:round;">
<path d="M62992 77955
L62992 78742
" />
</g>
<g style="fill:#000000; fill-opacity:0.0; 
stroke:#000000; stroke-width:39.3701; stroke-opacity:1; 
stroke-linecap:round; stroke-linejoin:round;">
</g>
<g style="fill:#000000; fill-opacity:0.0; 
stroke:#000000; stroke-width:59.0551; stroke-opacity:1; 
stroke-linecap:round; stroke-linejoin:round;">
<path d="M82677 77955
L82677 78742
" />
</g>
<g style="fill:#000000; fill-opacity:0.0; 
stroke:#000000; stroke-width:39.3701; stroke-opacity:1; 
stroke-linecap:round; stroke-linejoin:round;">
</g>
<g style="fill:#000000; fill-opacity:0.0; 
stroke:#000000; stroke-width:59.0551; stroke-opacity:1; 
stroke-linecap:round; stroke-linejoin:round;">
<path d="M102362 77955
L102362 78742
" />
</g>
<g style="fill:#000000; fill-opacity:0.0; 
stroke:#000000; stroke-width:39.3701; stroke-opacity:1; 
stroke-linecap:round; stroke-linejoin:round;">
</g>
<g style="fill:#000000; fill-opacity:0.0; 
stroke:#000000; stroke-width:59.0551; stroke-opacity:1; 
stroke-linecap:round; stroke-linejoin:round;">
<path d="M14199 78580
L13906 78580
" />
<path d="M14052 78580
L14052 78069
L14004 78142
L13955 78190
L13906 78215
" />
</g>
<g style="fill:#000000; fill-opacity:0.0; 
stroke:#000000; stroke-width:39.3701; stroke-opacity:1; 
stroke-linecap:round; stroke-linejoin:round;">
</g>
<g style="fill:#000000; fill-opacity:0.0; 
stroke:#000000; stroke-width:59.0551; stroke-opacity:1; 
stroke-linecap:round; stroke-linejoin:round;">
<path d="M33591 78117
L33615 78093
L33664 78069
L33786 78069
L33835 78093
L33859 78117
L33884 78166
L33884 78215
L33859 78288
L33567 78580
L33884 78580
" />
</g>
<g style="fill:#000000; fill-opacity:0.0; 
stroke:#000000; stroke-width:39.3701; stroke-opacity:1; 
stroke-linecap:round; stroke-linejoin:round;">
</g>
<g style="fill:#000000; fill-opacity:0.0; 
stroke:#000000; stroke-width:59.0551; stroke-opacity:1; 
stroke-linecap:round; stroke-linejoin:round;">
<path d="M53252 78069
L53569 78069
L53398 78263
L53471 78263
L53520 78288
L53544 78312
L53569 78361
L53569 78483
L53544 78532
L53520 78556
L53471 78580
L53325 78580
L53276 78556
L53252 78532
" />
</g>
<g style="fill:#000000; fill-opacity:0.0; 
stroke:#000000; stroke-width:39.3701; stroke-opacity:1; 
stroke-linecap:round; stroke-linejoin:round;">
</g>
<g style="fill:#000000; fill-opacity:0.0; 
stroke:#000000; stroke-width:59.0551; stroke-opacity:1; 
stroke-linecap:round; stroke-linejoin:round;">
<path d="M73205 78239
L73205 78580
" />
<path d="M73083 78044
L72961 78410
L73278 78410
" />
</g>
<g style="fill:#000000; fill-opacity:0.0; 
stroke:#000000; stroke-width:39.3701; stroke-opacity:1; 
stroke-linecap:round; stroke-linejoin:round;">
</g>
<g style="fill:#000000; fill-opacity:0.0; 
stroke:#000000; stroke-width:59.0551; stroke-opacity:1; 
stroke-linecap:round; stroke-linejoin:round;">
<path d="M92914 78069
L92671 78069
L92646 78312
L92671 78288
L92719 78263
L92841 78263
L92890 78288
L92914 78312
L92939 78361
L92939 78483
L92914 78532
L92890 78556
L92841 78580
L92719 78580
L92671 78556
L92646 78532
" />
</g>
<g style="fill:#000000; fill-opacity:0.0; 
stroke:#000000; stroke-width:39.3701; stroke-opacity:1; 
stroke-linecap:round; stroke-linejoin:round;">
</g>
<g style="fill:#000000; fill-opacity:0.0; 
stroke:#000000; stroke-width:59.0551; stroke-opacity:1; 
stroke-linecap:round; stroke-linejoin:round;">
<path d="M112575 78069
L112477 78069
L112429 78093
L112404 78117
L112356 78190
L112331 78288
L112331 78483
L112356 78532
L112380 78556
L112429 78580
L112526 78580
L112575 78556
L112599 78532
L112624 78483
L112624 78361
L112599 78312
L112575 78288
L112526 78263
L112429 78263
L112380 78288
L112356 78312
L112331 78361
" />
</g>
<g style="fill:#000000; fill-opacity:0.0; 
stroke:#000000; stroke-width:39.3701; stroke-opacity:1; 
stroke-linecap:round; stroke-linejoin:round;">
</g>
<g style="fill:#000000; fill-opacity:0.0; 
stroke:#000000; stroke-width:59.0551; stroke-opacity:1; 
stroke-linecap:round; stroke-linejoin:round;">
<path d="M3937 23622
L4724 23622
" />
</g>
<g style="fill:#000000; fill-opacity:0.0; 
stroke:#000000; stroke-width:39.3701; stroke-opacity:1; 
stroke-linecap:round; stroke-linejoin:round;">
</g>
<g style="fill:#000000; fill-opacity:0.0; 
stroke:#000000; stroke-width:59.0551; stroke-opacity:1; 
stroke-linecap:round; stroke-linejoin:round;">
<path d="M3937 43307
L4724 43307
" />
</g>
<g style="fill:#000000; fill-opacity:0.0; 
stroke:#000000; stroke-width:39.3701; stroke-opacity:1; 
stroke-linecap:round; stroke-linejoin:round;">
</g>
<g style="fill:#000000; fill-opacity:0.0; 
stroke:#000000; stroke-width:59.0551; stroke-opacity:1; 
stroke-linecap:round; stroke-linejoin:round;">
<path d="M3937 62992
L4724 62992
" />
</g>
<g style="fill:#000000; fill-opacity:0.0; 
stroke:#000000; stroke-width:39.3701; stroke-opacity:1; 
stroke-linecap:round; stroke-linejoin:round;">
</g>
<g style="fill:#000000; fill-opacity:0.0; 
stroke:#000000; stroke-width:59.0551; stroke-opacity:1; 
stroke-linecap:round; stroke-linejoin:round;">
<path d="M4208 13864
L4452 13864
" />
<path d="M4160 14011
L4330 13499
L4501 14011
" />
</g>
<g style="fill:#000000; fill-opacity:0.0; 
stroke:#000000; stroke-width:39.3701; stroke-opacity:1; 
stroke-linecap:round; stroke-linejoin:round;">
</g>
<g style="fill:#000000; fill-opacity:0.0; 
stroke:#000000; stroke-width:59.0551; stroke-opacity:1; 
stroke-linecap:round; stroke-linejoin:round;">
<path d="M4367 33428
L4440 33452
L4464 33476
L4489 33525
L4489 33598
L4464 33647
L4440 33671
L4391 33696
L4196 33696
L4196 33184
L4367 33184
L4416 33208
L4440 33233
L4464 33281
L4464 33330
L4440 33379
L4416 33403
L4367 33428
L4196 33428
" />
</g>
<g style="fill:#000000; fill-opacity:0.0; 
stroke:#000000; stroke-width:39.3701; stroke-opacity:1; 
stroke-linecap:round; stroke-linejoin:round;">
</g>
<g style="fill:#000000; fill-opacity:0.0; 
stroke:#000000; stroke-width:59.0551; stroke-opacity:1; 
stroke-linecap:round; stroke-linejoin:round;">
<path d="M4489 53332
L4464 53356
L4391 53381
L4342 53381
L4269 53356
L4221 53308
L4196 53259
L4172 53161
L4172 53088
L4196 52991
L4221 52942
L4269 52893
L4342 52869
L4391 52869
L4464 52893
L4489 52918
" />
</g>
<g style="fill:#000000; fill-opacity:0.0; 
stroke:#000000; stroke-width:39.3701; stroke-opacity:1; 
stroke-linecap:round; stroke-linejoin:round;">
</g>
<g style="fill:#000000; fill-opacity:0.0; 
stroke:#000000; stroke-width:59.0551; stroke-opacity:1; 
stroke-linecap:round; stroke-linejoin:round;">
<path d="M4196 73066
L4196 72554
L4318 72554
L4391 72578
L4440 72627
L4464 72676
L4489 72773
L4489 72846
L4464 72944
L4440 72993
L4391 73041
L4318 73066
L4196 73066
" />
</g>
<g style="fill:#000000; fill-opacity:0.0; 
stroke:#000000; stroke-width:39.3701; stroke-opacity:1; 
stroke-linecap:round; stroke-linejoin:round;">
</g>
<g style="fill:#000000; fill-opacity:0.0; 
stroke:#000000; stroke-width:59.0551; stroke-opacity:1; 
stroke-linecap:round; stroke-linejoin:round;">
<path d="M112992 23622
L112205 23622
" />
</g>
<g style="fill:#000000; fill-opacity:0.0; 
stroke:#000000; stroke-width:39.3701; stroke-opacity:1; 
stroke-linecap:round; stroke-linejoin:round;">
</g>
<g style="fill:#000000; fill-opacity:0.0; 
stroke:#000000; stroke-width:59.0551; stroke-opacity:1; 
stroke-linecap:round; stroke-linejoin:round;">
<path d="M112992 43307
L112205 43307
" />
</g>
<g style="fill:#000000; fill-opacity:0.0; 
stroke:#000000; stroke-width:39.3701; stroke-opacity:1; 
stroke-linecap:round; stroke-linejoin:round;">
</g>
<g style="fill:#000000; fill-opacity:0.0; 
stroke:#000000; stroke-width:59.0551; stroke-opacity:1; 
stroke-linecap:round; stroke-linejoin:round;">
<path d="M112992 62992
L112205 62992
" />
</g>
<g style="fill:#000000; fill-opacity:0.0; 
stroke:#000000; stroke-width:39.3701; stroke-opacity:1; 
stroke-linecap:round; stroke-linejoin:round;">
</g>
<g style="fill:#000000; fill-opacity:0.0; 
stroke:#000000; stroke-width:59.0551; stroke-opacity:1; 
stroke-linecap:round; stroke-linejoin:round;">
<path d="M112477 13864
L112721 13864
" />
<path d="M112428 14011
L112599 13499
L112769 14011
" />
</g>
<g style="fill:#000000; fill-opacity:0.0; 
stroke:#000000; stroke-width:39.3701; stroke-opacity:1; 
stroke-linecap:round; stroke-linejoin:round;">
</g>
<g style="fill:#000000; fill-opacity:0.0; 
stroke:#000000; stroke-width:59.0551; stroke-opacity:1; 
stroke-linecap:round; stroke-linejoin:round;">
<path d="M112635 33428
L112708 33452
L112733 33476
L112757 33525
L112757 33598
L112733 33647
L112708 33671
L112660 33696
L112465 33696
L112465 33184
L112635 33184
L112684 33208
L112708 33233
L112733 33281
L112733 33330
L112708 33379
L112684 33403
L112635 33428
L112465 33428
" />
</g>
<g style="fill:#000000; fill-opacity:0.0; 
stroke:#000000; stroke-width:39.3701; stroke-opacity:1; 
stroke-linecap:round; stroke-linejoin:round;">
</g>
<g style="fill:#000000; fill-opacity:0.0; 
stroke:#000000; stroke-width:59.0551; stroke-opacity:1; 
stroke-linecap:round; stroke-linejoin:round;">
<path d="M112757 53332
L112733 53356
L112660 53381
L112611 53381
L112538 53356
L112489 53308
L112465 53259
L112440 53161
L112440 53088
L112465 52991
L112489 52942
L112538 52893
L112611 52869
L112660 52869
L112733 52893
L112757 52918
" />
</g>
<g style="fill:#000000; fill-opacity:0.0; 
stroke:#000000; stroke-width:39.3701; stroke-opacity:1; 
stroke-linecap:round; stroke-linejoin:round;">
</g>
<g style="fill:#000000; fill-opacity:0.0; 
stroke:#000000; stroke-width:59.0551; stroke-opacity:1; 
stroke-linecap:round; stroke-linejoin:round;">
<path d="M112465 73066
L112465 72554
L112587 72554
L112660 72578
L112708 72627
L112733 72676
L112757 72773
L112757 72846
L112733 72944
L112708 72993
L112660 73041
L112587 73066
L112465 73066
" />
</g>
<g style="fill:#000000; fill-opacity:0.0; 
stroke:#000000; stroke-width:39.3701; stroke-opacity:1; 
stroke-linecap:round; stroke-linejoin:round;">
</g>
<g style="fill:#000000; fill-opacity:0.0; 
stroke:#000000; stroke-width:59.0551; stroke-opacity:1; 
stroke-linecap:round; stroke-linejoin:round;">
<path d="M78911 76293
L78911 75703
L79051 75703
L79136 75731
L79192 75787
L79220 75843
L79248 75956
L79248 76040
L79220 76153
L79192 76209
L79136 76265
L79051 76293
L78911 76293
" />
<path d="M79754 76293
L79754 75984
L79726 75928
L79670 75899
L79557 75899
L79501 75928
" />
<path d="M79754 76265
L79698 76293
L79557 76293
L79501 76265
L79473 76209
L79473 76153
L79501 76096
L79557 76068
L79698 76068
L79754 76040
" />
<path d="M79951 75899
L80176 75899
" />
<path d="M80036 75703
L80036 76209
L80064 76265
L80120 76293
L80176 76293
" />
<path d="M80598 76265
L80542 76293
L80429 76293
L80373 76265
L80345 76209
L80345 75984
L80373 75928
L80429 75899
L80542 75899
L80598 75928
L80626 75984
L80626 76040
L80345 76096
" />
<path d="M80879 76237
L80907 76265
L80879 76293
L80851 76265
L80879 76237
L80879 76293
" />
<path d="M80879 75928
L80907 75956
L80879 75984
L80851 75956
L80879 75928
L80879 75984
" />
<path d="M81582 75759
L81610 75731
L81667 75703
L81807 75703
L81863 75731
L81892 75759
L81920 75815
L81920 75871
L81892 75956
L81554 76293
L81920 76293
" />
<path d="M82285 75703
L82341 75703
L82398 75731
L82426 75759
L82454 75815
L82482 75928
L82482 76068
L82454 76181
L82426 76237
L82398 76265
L82341 76293
L82285 76293
L82229 76265
L82201 76237
L82173 76181
L82145 76068
L82145 75928
L82173 75815
L82201 75759
L82229 75731
L82285 75703
" />
<path d="M83045 76293
L82707 76293
" />
<path d="M82876 76293
L82876 75703
L82820 75787
L82763 75843
L82707 75871
" />
<path d="M83382 75956
L83326 75928
L83298 75899
L83269 75843
L83269 75815
L83298 75759
L83326 75731
L83382 75703
L83494 75703
L83551 75731
L83579 75759
L83607 75815
L83607 75843
L83579 75899
L83551 75928
L83494 75956
L83382 75956
L83326 75984
L83298 76012
L83269 76068
L83269 76181
L83298 76237
L83326 76265
L83382 76293
L83494 76293
L83551 76265
L83579 76237
L83607 76181
L83607 76068
L83579 76012
L83551 75984
L83494 75956
" />
<path d="M83860 76068
L84310 76068
" />
<path d="M84704 75703
L84760 75703
L84816 75731
L84844 75759
L84872 75815
L84901 75928
L84901 76068
L84872 76181
L84844 76237
L84816 76265
L84760 76293
L84704 76293
L84647 76265
L84619 76237
L84591 76181
L84563 76068
L84563 75928
L84591 75815
L84619 75759
L84647 75731
L84704 75703
" />
<path d="M85097 75703
L85463 75703
L85266 75928
L85350 75928
L85407 75956
L85435 75984
L85463 76040
L85463 76181
L85435 76237
L85407 76265
L85350 76293
L85182 76293
L85126 76265
L85097 76237
" />
<path d="M85716 76068
L86166 76068
" />
<path d="M86419 75759
L86447 75731
L86503 75703
L86644 75703
L86700 75731
L86728 75759
L86757 75815
L86757 75871
L86728 75956
L86391 76293
L86757 76293
" />
<path d="M86953 75703
L87347 75703
L87094 76293
" />
</g>
<g style="fill:#000000; fill-opacity:0.0; 
stroke:#000000; stroke-width:39.3701; stroke-opacity:1; 
stroke-linecap:round; stroke-linejoin:round;">
</g>
<g style="fill:#000000; fill-opacity:0.0; 
stroke:#000000; stroke-width:59.0551; stroke-opacity:1; 
stroke-linecap:round; stroke-linejoin:round;">
<path d="M69685 76577
L112205 76577
" />
</g>
<g style="fill:#000000; fill-opacity:0.0; 
stroke:#000000; stroke-width:39.3701; stroke-opacity:1; 
stroke-linecap:round; stroke-linejoin:round;">
</g>
<g style="fill:#000000; fill-opacity:0.0; 
stroke:#000000; stroke-width:59.0551; stroke-opacity:1; 
stroke-linecap:round; stroke-linejoin:round;">
<path d="M70249 77395
L70249 76805
" />
<path d="M70587 77395
L70334 77058
" />
<path d="M70587 76805
L70249 77142
" />
<path d="M70840 77395
L70840 77002
" />
<path d="M70840 76805
L70812 76833
L70840 76861
L70868 76833
L70840 76805
L70840 76861
" />
<path d="M71458 77339
L71430 77367
L71346 77395
L71290 77395
L71205 77367
L71149 77311
L71121 77255
L71093 77142
L71093 77058
L71121 76946
L71149 76889
L71205 76833
L71290 76805
L71346 76805
L71430 76833
L71458 76861
" />
<path d="M71965 77395
L71965 77086
L71937 77030
L71880 77002
L71768 77002
L71712 77030
" />
<path d="M71965 77367
L71908 77395
L71768 77395
L71712 77367
L71683 77311
L71683 77255
L71712 77199
L71768 77171
L71908 77171
L71965 77142
" />
<path d="M72499 77395
L72499 76805
" />
<path d="M72499 77367
L72443 77395
L72330 77395
L72274 77367
L72246 77339
L72218 77283
L72218 77114
L72246 77058
L72274 77030
L72330 77002
L72443 77002
L72499 77030
" />
<path d="M73230 77086
L73427 77086
" />
<path d="M73511 77395
L73230 77395
L73230 76805
L73511 76805
" />
<path d="M73764 77339
L73793 77367
L73764 77395
L73736 77367
L73764 77339
L73764 77395
" />
<path d="M74046 77395
L74046 76805
L74186 76805
L74271 76833
L74327 76889
L74355 76946
L74383 77058
L74383 77142
L74355 77255
L74327 77311
L74271 77367
L74186 77395
L74046 77395
" />
<path d="M74636 77339
L74664 77367
L74636 77395
L74608 77367
L74636 77339
L74636 77395
" />
<path d="M74889 77227
L75171 77227
" />
<path d="M74833 77395
L75030 76805
L75227 77395
" />
<path d="M75424 77339
L75452 77367
L75424 77395
L75395 77367
L75424 77339
L75424 77395
" />
<path d="M76605 77395
L76605 76805
" />
<path d="M76661 77171
L76830 77395
" />
<path d="M76830 77002
L76605 77227
" />
<path d="M77083 77395
L77083 77002
" />
<path d="M77083 76805
L77055 76833
L77083 76861
L77111 76833
L77083 76805
L77083 76861
" />
<path d="M77617 77367
L77561 77395
L77448 77395
L77392 77367
L77364 77339
L77336 77283
L77336 77114
L77364 77058
L77392 77030
L77448 77002
L77561 77002
L77617 77030
" />
<path d="M78123 77395
L78123 77086
L78095 77030
L78039 77002
L77926 77002
L77870 77030
" />
<path d="M78123 77367
L78067 77395
L77926 77395
L77870 77367
L77842 77311
L77842 77255
L77870 77199
L77926 77171
L78067 77171
L78123 77142
" />
<path d="M78658 77395
L78658 76805
" />
<path d="M78658 77367
L78601 77395
L78489 77395
L78433 77367
L78404 77339
L78376 77283
L78376 77114
L78404 77058
L78433 77030
L78489 77002
L78601 77002
L78658 77030
" />
<path d="M79670 76805
L79389 76805
L79361 77086
L79389 77058
L79445 77030
L79586 77030
L79642 77058
L79670 77086
L79698 77142
L79698 77283
L79670 77339
L79642 77367
L79586 77395
L79445 77395
L79389 77367
L79361 77339
" />
<path d="M79951 77339
L79979 77367
L79951 77395
L79923 77367
L79951 77339
L79951 77395
" />
<path d="M80345 76805
L80401 76805
L80457 76833
L80485 76861
L80514 76917
L80542 77030
L80542 77171
L80514 77283
L80485 77339
L80457 77367
L80401 77395
L80345 77395
L80289 77367
L80260 77339
L80232 77283
L80204 77171
L80204 77030
L80232 76917
L80260 76861
L80289 76833
L80345 76805
" />
<path d="M80795 77339
L80823 77367
L80795 77395
L80767 77367
L80795 77339
L80795 77395
" />
<path d="M81188 76805
L81245 76805
L81301 76833
L81329 76861
L81357 76917
L81385 77030
L81385 77171
L81357 77283
L81329 77339
L81301 77367
L81245 77395
L81188 77395
L81132 77367
L81104 77339
L81076 77283
L81048 77171
L81048 77030
L81076 76917
L81104 76861
L81132 76833
L81188 76805
" />
<path d="M81638 77171
L82088 77171
" />
<path d="M82370 77395
L82370 77002
" />
<path d="M82370 77114
L82398 77058
L82426 77030
L82482 77002
L82538 77002
" />
<path d="M82988 77367
L82932 77395
L82820 77395
L82763 77367
L82735 77339
L82707 77283
L82707 77114
L82735 77058
L82763 77030
L82820 77002
L82932 77002
L82988 77030
" />
<path d="M83213 76861
L83241 76833
L83298 76805
L83438 76805
L83494 76833
L83523 76861
L83551 76917
L83551 76974
L83523 77058
L83185 77395
L83551 77395
" />
<path d="M83804 77171
L84254 77171
" />
<path d="M84788 77395
L84788 76805
" />
<path d="M84788 77367
L84732 77395
L84619 77395
L84563 77367
L84535 77339
L84507 77283
L84507 77114
L84535 77058
L84563 77030
L84619 77002
L84732 77002
L84788 77030
" />
<path d="M85294 77367
L85238 77395
L85126 77395
L85069 77367
L85041 77311
L85041 77086
L85069 77030
L85126 77002
L85238 77002
L85294 77030
L85322 77086
L85322 77142
L85041 77199
" />
<path d="M85519 77002
L85660 77395
L85800 77002
" />
<path d="M86025 77171
L86475 77171
" />
<path d="M87010 77002
L87010 77395
" />
<path d="M86757 77002
L86757 77311
L86785 77367
L86841 77395
L86925 77395
L86982 77367
L87010 77339
" />
<path d="M87291 77002
L87291 77395
" />
<path d="M87291 77058
L87319 77030
L87375 77002
L87460 77002
L87516 77030
L87544 77086
L87544 77395
" />
<path d="M87825 77395
L87825 76805
" />
<path d="M87881 77171
L88050 77395
" />
<path d="M88050 77002
L87825 77227
" />
<path d="M88303 77002
L88303 77395
" />
<path d="M88303 77058
L88331 77030
L88388 77002
L88472 77002
L88528 77030
L88556 77086
L88556 77395
" />
<path d="M88922 77395
L88866 77367
L88838 77339
L88809 77283
L88809 77114
L88838 77058
L88866 77030
L88922 77002
L89006 77002
L89063 77030
L89091 77058
L89119 77114
L89119 77283
L89091 77339
L89063 77367
L89006 77395
L88922 77395
" />
<path d="M89316 77002
L89428 77395
L89541 77114
L89653 77395
L89766 77002
" />
<path d="M89991 77002
L89991 77395
" />
<path d="M89991 77058
L90019 77030
L90075 77002
L90159 77002
L90215 77030
L90244 77086
L90244 77395
" />
<path d="M90525 77171
L90975 77171
" />
<path d="M91368 76805
L91425 76805
L91481 76833
L91509 76861
L91537 76917
L91565 77030
L91565 77171
L91537 77283
L91509 77339
L91481 77367
L91425 77395
L91368 77395
L91312 77367
L91284 77339
L91256 77283
L91228 77171
L91228 77030
L91256 76917
L91284 76861
L91312 76833
L91368 76805
" />
<path d="M92072 77395
L92072 76805
" />
<path d="M92072 77367
L92015 77395
L91903 77395
L91847 77367
L91818 77339
L91790 77283
L91790 77114
L91818 77058
L91847 77030
L91903 77002
L92015 77002
L92072 77030
" />
<path d="M92578 77367
L92521 77395
L92409 77395
L92353 77367
L92325 77311
L92325 77086
L92353 77030
L92409 77002
L92521 77002
L92578 77030
L92606 77086
L92606 77142
L92325 77199
" />
<path d="M93112 77395
L93112 76805
" />
<path d="M93112 77367
L93056 77395
L92943 77395
L92887 77367
L92859 77339
L92831 77283
L92831 77114
L92859 77058
L92887 77030
L92943 77002
L93056 77002
L93112 77030
" />
<path d="M93646 77002
L93646 77395
" />
<path d="M93506 76777
L93365 77199
L93731 77199
" />
<path d="M93899 76805
L94293 76805
L94040 77395
" />
<path d="M94771 76805
L94659 76805
L94602 76833
L94574 76861
L94518 76946
L94490 77058
L94490 77283
L94518 77339
L94546 77367
L94602 77395
L94715 77395
L94771 77367
L94799 77339
L94827 77283
L94827 77142
L94799 77086
L94771 77058
L94715 77030
L94602 77030
L94546 77058
L94518 77086
L94490 77142
" />
<path d="M95037 76644
L95502 76644
" />
<path d="M95334 76805
L95221 76805
L95165 76833
L95137 76861
L95081 76946
L95052 77058
L95052 77283
L95081 77339
L95109 77367
L95165 77395
L95277 77395
L95334 77367
L95362 77339
L95390 77283
L95390 77142
L95362 77086
L95334 77058
L95277 77030
L95165 77030
L95109 77058
L95081 77086
L95052 77142
" />
<path d="M95502 76644
L96065 76644
" />
<path d="M95587 76805
L95952 76805
L95755 77030
L95840 77030
L95896 77058
L95924 77086
L95952 77142
L95952 77283
L95924 77339
L95896 77367
L95840 77395
L95671 77395
L95615 77367
L95587 77339
" />
<path d="M96458 77002
L96458 77395
" />
<path d="M96205 77002
L96205 77311
L96233 77367
L96290 77395
L96374 77395
L96430 77367
L96458 77339
" />
<path d="M96740 77395
L96740 76805
" />
<path d="M96740 77030
L96796 77002
L96908 77002
L96965 77030
L96993 77058
L97021 77114
L97021 77283
L96993 77339
L96965 77367
L96908 77395
L96796 77395
L96740 77367
" />
<path d="M97527 77002
L97527 77395
" />
<path d="M97274 77002
L97274 77311
L97302 77367
L97358 77395
L97443 77395
L97499 77367
L97527 77339
" />
<path d="M97808 77002
L97808 77395
" />
<path d="M97808 77058
L97836 77030
L97893 77002
L97977 77002
L98033 77030
L98061 77086
L98061 77395
" />
<path d="M98258 77002
L98483 77002
" />
<path d="M98343 76805
L98343 77311
L98371 77367
L98427 77395
L98483 77395
" />
<path d="M98933 77002
L98933 77395
" />
<path d="M98680 77002
L98680 77311
L98708 77367
L98764 77395
L98849 77395
L98905 77367
L98933 77339
" />
<path d="M99524 77395
L99186 77395
" />
<path d="M99355 77395
L99355 76805
L99299 76889
L99242 76946
L99186 76974
" />
<path d="M100030 76805
L99917 76805
L99861 76833
L99833 76861
L99777 76946
L99749 77058
L99749 77283
L99777 77339
L99805 77367
L99861 77395
L99974 77395
L100030 77367
L100058 77339
L100086 77283
L100086 77142
L100058 77086
L100030 77058
L99974 77030
L99861 77030
L99805 77058
L99777 77086
L99749 77142
" />
<path d="M100339 77339
L100367 77367
L100339 77395
L100311 77367
L100339 77339
L100339 77395
" />
<path d="M100733 76805
L100789 76805
L100845 76833
L100874 76861
L100902 76917
L100930 77030
L100930 77171
L100902 77283
L100874 77339
L100845 77367
L100789 77395
L100733 77395
L100677 77367
L100649 77339
L100620 77283
L100592 77171
L100592 77030
L100620 76917
L100649 76861
L100677 76833
L100733 76805
" />
<path d="M101436 77002
L101436 77395
" />
<path d="M101295 76777
L101155 77199
L101520 77199
" />
<path d="M101745 77339
L101773 77367
L101745 77395
L101717 77367
L101745 77339
L101745 77395
" />
<path d="M102336 77395
L101998 77395
" />
<path d="M102167 77395
L102167 76805
L102111 76889
L102055 76946
L101998 76974
" />
</g>
<g style="fill:#000000; fill-opacity:0.0; 
stroke:#000000; stroke-width:39.3701; stroke-opacity:1; 
stroke-linecap:round; stroke-linejoin:round;">
</g>
<g style="fill:#000000; fill-opacity:0.0; 
stroke:#000000; stroke-width:59.0551; stroke-opacity:1; 
stroke-linecap:round; stroke-linejoin:round;">
<path d="M69685 75396
L112205 75396
" />
</g>
<g style="fill:#000000; fill-opacity:0.0; 
stroke:#000000; stroke-width:39.3701; stroke-opacity:1; 
stroke-linecap:round; stroke-linejoin:round;">
</g>
<g style="fill:#000000; fill-opacity:0.0; 
stroke:#000000; stroke-width:118.11; stroke-opacity:1; 
stroke-linecap:round; stroke-linejoin:round;">
<path d="M104099 76293
L103902 76012
" />
<path d="M103761 76293
L103761 75703
L103986 75703
L104042 75731
L104070 75759
L104099 75815
L104099 75899
L104070 75956
L104042 75984
L103986 76012
L103761 76012
" />
<path d="M104577 76265
L104520 76293
L104408 76293
L104352 76265
L104323 76209
L104323 75984
L104352 75928
L104408 75899
L104520 75899
L104577 75928
L104605 75984
L104605 76040
L104323 76096
" />
<path d="M104802 75899
L104942 76293
L105083 75899
" />
<path d="M105308 76237
L105336 76265
L105308 76293
L105280 76265
L105308 76237
L105308 76293
" />
<path d="M105308 75928
L105336 75956
L105308 75984
L105280 75956
L105308 75928
L105308 75984
" />
<path d="M106011 75759
L106039 75731
L106095 75703
L106236 75703
L106292 75731
L106320 75759
L106348 75815
L106348 75871
L106320 75956
L105983 76293
L106348 76293
" />
<path d="M106601 76237
L106629 76265
L106601 76293
L106573 76265
L106601 76237
L106601 76293
" />
<path d="M107136 75899
L107136 76293
" />
<path d="M106995 75674
L106854 76096
L107220 76096
" />
<path d="M107445 76237
L107473 76265
L107445 76293
L107417 76265
L107445 76237
L107445 76293
" />
<path d="M108007 75703
L107726 75703
L107698 75984
L107726 75956
L107782 75928
L107923 75928
L107979 75956
L108007 75984
L108036 76040
L108036 76181
L108007 76237
L107979 76265
L107923 76293
L107782 76293
L107726 76265
L107698 76237
" />
</g>
<g style="fill:#000000; fill-opacity:0.0; 
stroke:#000000; stroke-width:39.3701; stroke-opacity:1; 
stroke-linecap:round; stroke-linejoin:round;">
</g>
<g style="fill:#000000; fill-opacity:0.0; 
stroke:#000000; stroke-width:59.0551; stroke-opacity:1; 
stroke-linecap:round; stroke-linejoin:round;">
<path d="M70221 76265
L70305 76293
L70446 76293
L70502 76265
L70530 76237
L70559 76181
L70559 76124
L70530 76068
L70502 76040
L70446 76012
L70334 75984
L70277 75956
L70249 75928
L70221 75871
L70221 75815
L70249 75759
L70277 75731
L70334 75703
L70474 75703
L70559 75731
" />
<path d="M70812 76293
L70812 75899
" />
<path d="M70812 75703
L70784 75731
L70812 75759
L70840 75731
L70812 75703
L70812 75759
" />
<path d="M71037 75899
L71346 75899
L71037 76293
L71346 76293
" />
<path d="M71796 76265
L71740 76293
L71627 76293
L71571 76265
L71543 76209
L71543 75984
L71571 75928
L71627 75899
L71740 75899
L71796 75928
L71824 75984
L71824 76040
L71543 76096
" />
<path d="M72077 76237
L72105 76265
L72077 76293
L72049 76265
L72077 76237
L72077 76293
" />
<path d="M72077 75928
L72105 75956
L72077 75984
L72049 75956
L72077 75928
L72077 75984
" />
<path d="M72780 76124
L73061 76124
" />
<path d="M72724 76293
L72921 75703
L73118 76293
" />
<path d="M73568 75899
L73568 76293
" />
<path d="M73427 75674
L73286 76096
L73652 76096
" />
</g>
<g style="fill:#000000; fill-opacity:0.0; 
stroke:#000000; stroke-width:39.3701; stroke-opacity:1; 
stroke-linecap:round; stroke-linejoin:round;">
</g>
<g style="fill:#000000; fill-opacity:0.0; 
stroke:#000000; stroke-width:59.0551; stroke-opacity:1; 
stroke-linecap:round; stroke-linejoin:round;">
<path d="M103714 77395
L103714 76805
" />
<path d="M104248 77395
L104248 76805
" />
<path d="M104248 77367
L104192 77395
L104079 77395
L104023 77367
L103995 77339
L103967 77283
L103967 77114
L103995 77058
L104023 77030
L104079 77002
L104192 77002
L104248 77030
" />
<path d="M104529 77339
L104557 77367
L104529 77395
L104501 77367
L104529 77339
L104529 77395
" />
<path d="M104529 77030
L104557 77058
L104529 77086
L104501 77058
L104529 77030
L104529 77086
" />
<path d="M105570 77395
L105232 77395
" />
<path d="M105401 77395
L105401 76805
L105345 76889
L105289 76946
L105232 76974
" />
<path d="M106245 76777
L105739 77536
" />
<path d="M106751 77395
L106413 77395
" />
<path d="M106582 77395
L106582 76805
L106526 76889
L106470 76946
L106413 76974
" />
</g>
<g style="fill:#000000; fill-opacity:0.0; 
stroke:#000000; stroke-width:39.3701; stroke-opacity:1; 
stroke-linecap:round; stroke-linejoin:round;">
</g>
<g style="fill:#000000; fill-opacity:0.0; 
stroke:#000000; stroke-width:59.0551; stroke-opacity:1; 
stroke-linecap:round; stroke-linejoin:round;">
<path d="M69685 73821
L112205 73821
" />
</g>
<g style="fill:#000000; fill-opacity:0.0; 
stroke:#000000; stroke-width:39.3701; stroke-opacity:1; 
stroke-linecap:round; stroke-linejoin:round;">
</g>
<g style="fill:#000000; fill-opacity:0.0; 
stroke:#000000; stroke-width:157.48; stroke-opacity:1; 
stroke-linecap:round; stroke-linejoin:round;">
<path d="M70360 74099
L70810 74099
" />
<path d="M70486 74886
L70585 74099
" />
<path d="M70974 74886
L71039 74361
" />
<path d="M71072 74099
L71030 74136
L71063 74174
L71105 74136
L71072 74099
L71063 74174
" />
<path d="M71302 74361
L71602 74361
" />
<path d="M71447 74099
L71363 74774
L71391 74849
L71461 74886
L71536 74886
" />
<path d="M71911 74886
L71841 74849
L71813 74774
L71897 74099
" />
<path d="M72516 74849
L72436 74886
L72286 74886
L72216 74849
L72187 74774
L72225 74474
L72272 74399
L72352 74361
L72501 74361
L72572 74399
L72600 74474
L72591 74549
L72206 74624
" />
<path d="M72895 74811
L72928 74849
L72886 74886
L72853 74849
L72895 74811
L72886 74886
" />
<path d="M72947 74399
L72980 74436
L72937 74474
L72905 74436
L72947 74399
L72937 74474
" />
<path d="M74320 74811
L74278 74849
L74161 74886
L74086 74886
L73978 74849
L73912 74774
L73884 74699
L73865 74549
L73879 74436
L73936 74286
L73983 74211
L74067 74136
L74184 74099
L74259 74099
L74367 74136
L74400 74174
" />
<path d="M74648 74886
L74747 74099
" />
<path d="M74986 74886
L75037 74474
L75009 74399
L74939 74361
L74826 74361
L74747 74399
L74704 74436
" />
<path d="M75361 74886
L75426 74361
" />
<path d="M75459 74099
L75417 74136
L75450 74174
L75492 74136
L75459 74099
L75450 74174
" />
<path d="M75735 74886
L75801 74361
" />
<path d="M75782 74511
L75829 74436
L75871 74399
L75951 74361
L76026 74361
" />
<path d="M76289 74361
L76190 75149
" />
<path d="M76284 74399
L76364 74361
L76513 74361
L76584 74399
L76617 74436
L76645 74511
L76617 74736
L76570 74811
L76528 74849
L76448 74886
L76298 74886
L76228 74849
" />
<path d="M77573 74586
L78173 74586
" />
<path d="M79176 74361
L79077 75149
" />
<path d="M79171 74399
L79251 74361
L79401 74361
L79471 74399
L79504 74436
L79532 74511
L79504 74736
L79457 74811
L79415 74849
L79335 74886
L79185 74886
L79115 74849
" />
<path d="M79935 74886
L79865 74849
L79837 74774
L79921 74099
" />
<path d="M80572 74886
L80624 74474
L80596 74399
L80525 74361
L80376 74361
L80296 74399
" />
<path d="M80577 74849
L80497 74886
L80310 74886
L80240 74849
L80211 74774
L80221 74699
L80268 74624
L80347 74586
L80535 74586
L80615 74549
" />
<path d="M81013 74361
L80947 74886
" />
<path d="M81004 74436
L81046 74399
L81125 74361
L81238 74361
L81308 74399
L81336 74474
L81285 74886
" />
<path d="M81613 74361
L81913 74361
" />
<path d="M81758 74099
L81674 74774
L81702 74849
L81772 74886
L81847 74886
" />
<path d="M82700 74361
L82785 74886
L82981 74511
L83085 74886
L83300 74361
" />
<path d="M83872 74886
L83924 74474
L83895 74399
L83825 74361
L83675 74361
L83595 74399
" />
<path d="M83877 74849
L83797 74886
L83609 74886
L83539 74849
L83511 74774
L83520 74699
L83567 74624
L83647 74586
L83834 74586
L83914 74549
" />
<path d="M84200 74361
L84500 74361
" />
<path d="M84345 74099
L84261 74774
L84289 74849
L84359 74886
L84434 74886
" />
<path d="M85001 74849
L84922 74886
L84772 74886
L84702 74849
L84673 74774
L84711 74474
L84758 74399
L84837 74361
L84987 74361
L85058 74399
L85086 74474
L85076 74549
L84692 74624
" />
<path d="M85372 74886
L85437 74361
" />
<path d="M85419 74511
L85465 74436
L85508 74399
L85587 74361
L85662 74361
" />
<path d="M85859 74886
L85925 74361
" />
<path d="M85958 74099
L85915 74136
L85948 74174
L85990 74136
L85958 74099
L85948 74174
" />
<path d="M86300 74361
L86234 74886
" />
<path d="M86290 74436
L86333 74399
L86412 74361
L86525 74361
L86595 74399
L86623 74474
L86572 74886
" />
<path d="M87350 74361
L87270 74999
L87223 75074
L87181 75111
L87101 75149
L86989 75149
L86918 75111
" />
<path d="M87289 74849
L87209 74886
L87059 74886
L86989 74849
L86956 74811
L86928 74736
L86956 74511
L87003 74436
L87045 74399
L87125 74361
L87275 74361
L87345 74399
" />
<path d="M88596 74886
L88648 74474
L88620 74399
L88549 74361
L88400 74361
L88320 74399
" />
<path d="M88601 74849
L88521 74886
L88334 74886
L88264 74849
L88235 74774
L88245 74699
L88292 74624
L88371 74586
L88559 74586
L88639 74549
" />
<path d="M89084 74886
L89013 74849
L88985 74774
L89070 74099
" />
<path d="M89721 74886
L89773 74474
L89745 74399
L89674 74361
L89524 74361
L89445 74399
" />
<path d="M89726 74849
L89646 74886
L89459 74886
L89388 74849
L89360 74774
L89370 74699
L89417 74624
L89496 74586
L89684 74586
L89763 74549
" />
<path d="M90096 74886
L90162 74361
" />
<path d="M90143 74511
L90190 74436
L90232 74399
L90312 74361
L90387 74361
" />
<path d="M90584 74886
L90649 74361
" />
<path d="M90640 74436
L90682 74399
L90762 74361
L90874 74361
L90944 74399
L90973 74474
L90921 74886
" />
<path d="M90973 74474
L91019 74399
L91099 74361
L91212 74361
L91282 74399
L91310 74474
L91259 74886
" />
</g>
<g style="fill:#000000; fill-opacity:0.0; 
stroke:#000000; stroke-width:39.3701; stroke-opacity:1; 
stroke-linecap:round; stroke-linejoin:round;">
</g>
<g style="fill:#000000; fill-opacity:0.0; 
stroke:#000000; stroke-width:59.0551; stroke-opacity:1; 
stroke-linecap:round; stroke-linejoin:round;">
<path d="M70446 73070
L70249 73070
" />
<path d="M70249 73380
L70249 72789
L70530 72789
" />
<path d="M70755 73380
L70755 72986
" />
<path d="M70755 72789
L70727 72817
L70755 72845
L70784 72817
L70755 72789
L70755 72845
" />
<path d="M71121 73380
L71065 73352
L71037 73295
L71037 72789
" />
<path d="M71571 73352
L71515 73380
L71402 73380
L71346 73352
L71318 73295
L71318 73070
L71346 73014
L71402 72986
L71515 72986
L71571 73014
L71599 73070
L71599 73127
L71318 73183
" />
<path d="M71852 73323
L71880 73352
L71852 73380
L71824 73352
L71852 73323
L71852 73380
" />
<path d="M71852 73014
L71880 73042
L71852 73070
L71824 73042
L71852 73014
L71852 73070
" />
<path d="M72836 73352
L72780 73380
L72668 73380
L72611 73352
L72583 73323
L72555 73267
L72555 73099
L72583 73042
L72611 73014
L72668 72986
L72780 72986
L72836 73014
" />
<path d="M73090 73380
L73090 72789
" />
<path d="M73343 73380
L73343 73070
L73314 73014
L73258 72986
L73174 72986
L73118 73014
L73090 73042
" />
<path d="M73624 73380
L73624 72986
" />
<path d="M73624 72789
L73596 72817
L73624 72845
L73652 72817
L73624 72789
L73624 72845
" />
<path d="M73905 73380
L73905 72986
" />
<path d="M73905 73099
L73933 73042
L73961 73014
L74018 72986
L74074 72986
" />
<path d="M74271 72986
L74271 73577
" />
<path d="M74271 73014
L74327 72986
L74439 72986
L74496 73014
L74524 73042
L74552 73099
L74552 73267
L74524 73323
L74496 73352
L74439 73380
L74327 73380
L74271 73352
" />
<path d="M74805 73155
L75255 73155
" />
<path d="M75480 72986
L75620 73380
L75761 72986
" />
<path d="M75958 72845
L75986 72817
L76042 72789
L76183 72789
L76239 72817
L76267 72845
L76295 72902
L76295 72958
L76267 73042
L75930 73380
L76295 73380
" />
<path d="M76548 73323
L76577 73352
L76548 73380
L76520 73352
L76548 73323
L76548 73380
" />
<path d="M77083 72986
L77083 73380
" />
<path d="M76942 72761
L76802 73183
L77167 73183
" />
<path d="M77392 73323
L77420 73352
L77392 73380
L77364 73352
L77392 73323
L77392 73380
" />
<path d="M77673 73380
L77673 72789
" />
<path d="M77730 73155
L77898 73380
" />
<path d="M77898 72986
L77673 73211
" />
<path d="M78151 73380
L78151 72986
" />
<path d="M78151 72789
L78123 72817
L78151 72845
L78180 72817
L78151 72789
L78151 72845
" />
<path d="M78686 73352
L78629 73380
L78517 73380
L78461 73352
L78433 73323
L78404 73267
L78404 73099
L78433 73042
L78461 73014
L78517 72986
L78629 72986
L78686 73014
" />
<path d="M79192 73380
L79192 73070
L79164 73014
L79108 72986
L78995 72986
L78939 73014
" />
<path d="M79192 73352
L79136 73380
L78995 73380
L78939 73352
L78911 73295
L78911 73239
L78939 73183
L78995 73155
L79136 73155
L79192 73127
" />
<path d="M79726 73380
L79726 72789
" />
<path d="M79726 73352
L79670 73380
L79557 73380
L79501 73352
L79473 73323
L79445 73267
L79445 73099
L79473 73042
L79501 73014
L79557 72986
L79670 72986
L79726 73014
" />
<path d="M79867 73436
L80317 73436
" />
<path d="M80457 72986
L80457 73577
" />
<path d="M80457 73014
L80514 72986
L80626 72986
L80682 73014
L80710 73042
L80739 73099
L80739 73267
L80710 73323
L80682 73352
L80626 73380
L80514 73380
L80457 73352
" />
<path d="M81245 73352
L81188 73380
L81076 73380
L81020 73352
L80992 73323
L80964 73267
L80964 73099
L80992 73042
L81020 73014
L81076 72986
L81188 72986
L81245 73014
" />
<path d="M81498 73380
L81498 72789
" />
<path d="M81498 73014
L81554 72986
L81667 72986
L81723 73014
L81751 73042
L81779 73099
L81779 73267
L81751 73323
L81723 73352
L81667 73380
L81554 73380
L81498 73352
" />
</g>
<g style="fill:#000000; fill-opacity:0.0; 
stroke:#000000; stroke-width:39.3701; stroke-opacity:1; 
stroke-linecap:round; stroke-linejoin:round;">
</g>
<g style="fill:#000000; fill-opacity:0.0; 
stroke:#000000; stroke-width:59.0551; stroke-opacity:1; 
stroke-linecap:round; stroke-linejoin:round;">
<path d="M69685 71459
L112205 71459
" />
</g>
<g style="fill:#000000; fill-opacity:0.0; 
stroke:#000000; stroke-width:39.3701; stroke-opacity:1; 
stroke-linecap:round; stroke-linejoin:round;">
</g>
<g style="fill:#000000; fill-opacity:0.0; 
stroke:#000000; stroke-width:59.0551; stroke-opacity:1; 
stroke-linecap:round; stroke-linejoin:round;">
<path d="M70221 72289
L70305 72317
L70446 72317
L70502 72289
L70530 72260
L70559 72204
L70559 72148
L70530 72092
L70502 72064
L70446 72036
L70334 72007
L70277 71979
L70249 71951
L70221 71895
L70221 71839
L70249 71782
L70277 71754
L70334 71726
L70474 71726
L70559 71754
" />
<path d="M70812 72317
L70812 71726
" />
<path d="M71065 72317
L71065 72007
L71037 71951
L70980 71923
L70896 71923
L70840 71951
L70812 71979
" />
<path d="M71571 72289
L71515 72317
L71402 72317
L71346 72289
L71318 72232
L71318 72007
L71346 71951
L71402 71923
L71515 71923
L71571 71951
L71599 72007
L71599 72064
L71318 72120
" />
<path d="M72077 72289
L72021 72317
L71908 72317
L71852 72289
L71824 72232
L71824 72007
L71852 71951
L71908 71923
L72021 71923
L72077 71951
L72105 72007
L72105 72064
L71824 72120
" />
<path d="M72274 71923
L72499 71923
" />
<path d="M72358 71726
L72358 72232
L72386 72289
L72443 72317
L72499 72317
" />
<path d="M72696 72260
L72724 72289
L72696 72317
L72668 72289
L72696 72260
L72696 72317
" />
<path d="M72696 71951
L72724 71979
L72696 72007
L72668 71979
L72696 71951
L72696 72007
" />
</g>
<g style="fill:#000000; fill-opacity:0.0; 
stroke:#000000; stroke-width:39.3701; stroke-opacity:1; 
stroke-linecap:round; stroke-linejoin:round;">
</g>
<g style="fill:#000000; fill-opacity:0.0; 
stroke:#000000; stroke-width:118.11; stroke-opacity:1; 
stroke-linecap:round; stroke-linejoin:round;">
<path d="M70634 71079
L70606 71108
L70521 71136
L70465 71136
L70381 71108
L70325 71051
L70296 70995
L70268 70883
L70268 70798
L70296 70686
L70325 70629
L70381 70573
L70465 70545
L70521 70545
L70606 70573
L70634 70601
" />
<path d="M71140 71136
L71140 70826
L71112 70770
L71056 70742
L70943 70742
L70887 70770
" />
<path d="M71140 71108
L71084 71136
L70943 71136
L70887 71108
L70859 71051
L70859 70995
L70887 70939
L70943 70911
L71084 70911
L71140 70883
" />
<path d="M71337 70742
L71562 70742
" />
<path d="M71421 70545
L71421 71051
L71449 71108
L71506 71136
L71562 71136
" />
<path d="M71759 70742
L71759 71136
" />
<path d="M71759 70798
L71787 70770
L71843 70742
L71928 70742
L71984 70770
L72012 70826
L72012 71136
" />
<path d="M72293 71136
L72293 70742
" />
<path d="M72293 70545
L72265 70573
L72293 70601
L72321 70573
L72293 70545
L72293 70601
" />
<path d="M72574 70742
L72574 71332
" />
<path d="M72574 70770
L72631 70742
L72743 70742
L72799 70770
L72827 70798
L72856 70854
L72856 71023
L72827 71079
L72799 71108
L72743 71136
L72631 71136
L72574 71108
" />
<path d="M73784 71108
L73727 71136
L73615 71136
L73559 71108
L73530 71051
L73530 70826
L73559 70770
L73615 70742
L73727 70742
L73784 70770
L73812 70826
L73812 70883
L73530 70939
" />
<path d="M74149 71136
L74093 71108
L74065 71051
L74065 70545
" />
<path d="M74599 71108
L74543 71136
L74430 71136
L74374 71108
L74346 71051
L74346 70826
L74374 70770
L74430 70742
L74543 70742
L74599 70770
L74627 70826
L74627 70883
L74346 70939
" />
<path d="M75133 71108
L75077 71136
L74965 71136
L74908 71108
L74880 71079
L74852 71023
L74852 70854
L74880 70798
L74908 70770
L74965 70742
L75077 70742
L75133 70770
" />
<path d="M75302 70742
L75527 70742
" />
<path d="M75386 70545
L75386 71051
L75415 71108
L75471 71136
L75527 71136
" />
<path d="M75808 71136
L75752 71108
L75724 71079
L75696 71023
L75696 70854
L75724 70798
L75752 70770
L75808 70742
L75893 70742
L75949 70770
L75977 70798
L76005 70854
L76005 71023
L75977 71079
L75949 71108
L75893 71136
L75808 71136
" />
<path d="M76258 71136
L76258 70742
" />
<path d="M76258 70854
L76286 70798
L76314 70770
L76371 70742
L76427 70742
" />
<path d="M76624 70742
L76624 71136
" />
<path d="M76624 70798
L76652 70770
L76708 70742
L76793 70742
L76849 70770
L76877 70826
L76877 71136
" />
<path d="M77158 71136
L77158 70742
" />
<path d="M77158 70545
L77130 70573
L77158 70601
L77186 70573
L77158 70545
L77158 70601
" />
<path d="M77692 71108
L77636 71136
L77524 71136
L77467 71108
L77439 71079
L77411 71023
L77411 70854
L77439 70798
L77467 70770
L77524 70742
L77636 70742
L77692 70770
" />
<path d="M77917 71108
L77974 71136
L78086 71136
L78142 71108
L78171 71051
L78171 71023
L78142 70967
L78086 70939
L78002 70939
L77946 70911
L77917 70854
L77917 70826
L77946 70770
L78002 70742
L78086 70742
L78142 70770
" />
</g>
<g style="fill:#000000; fill-opacity:0.0; 
stroke:#000000; stroke-width:39.3701; stroke-opacity:1; 
stroke-linecap:round; stroke-linejoin:round;">
</g>
<g style="fill:#000000; fill-opacity:0.0; 
stroke:#000000; stroke-width:59.0551; stroke-opacity:1; 
stroke-linecap:round; stroke-linejoin:round;">
<path d="M70221 69786
L70502 69786
" />
<path d="M70165 69955
L70362 69364
L70559 69955
" />
<path d="M70840 69955
L70784 69926
L70755 69870
L70755 69364
" />
<path d="M71065 69955
L71065 69364
" />
<path d="M71065 69589
L71121 69561
L71233 69561
L71290 69589
L71318 69617
L71346 69673
L71346 69842
L71318 69898
L71290 69926
L71233 69955
L71121 69955
L71065 69926
" />
<path d="M71824 69926
L71768 69955
L71655 69955
L71599 69926
L71571 69870
L71571 69645
L71599 69589
L71655 69561
L71768 69561
L71824 69589
L71852 69645
L71852 69701
L71571 69758
" />
<path d="M72105 69955
L72105 69561
" />
<path d="M72105 69673
L72133 69617
L72162 69589
L72218 69561
L72274 69561
" />
<path d="M72386 69561
L72611 69561
" />
<path d="M72471 69364
L72471 69870
L72499 69926
L72555 69955
L72611 69955
" />
<path d="M73061 69955
L73061 69645
L73033 69589
L72977 69561
L72865 69561
L72808 69589
" />
<path d="M73061 69926
L73005 69955
L72865 69955
L72808 69926
L72780 69870
L72780 69814
L72808 69758
L72865 69730
L73005 69730
L73061 69701
" />
<path d="M73314 69926
L73371 69955
L73483 69955
L73539 69926
L73568 69870
L73568 69842
L73539 69786
L73483 69758
L73399 69758
L73343 69730
L73314 69673
L73314 69645
L73343 69589
L73399 69561
L73483 69561
L73539 69589
" />
<path d="M74271 69955
L74271 69364
L74467 69786
L74664 69364
L74664 69955
" />
<path d="M74946 69955
L74946 69561
" />
<path d="M74946 69364
L74917 69392
L74946 69420
L74974 69392
L74946 69364
L74946 69420
" />
<path d="M75480 69926
L75424 69955
L75311 69955
L75255 69926
L75227 69898
L75199 69842
L75199 69673
L75227 69617
L75255 69589
L75311 69561
L75424 69561
L75480 69589
" />
<path d="M75733 69955
L75733 69364
" />
<path d="M75789 69730
L75958 69955
" />
<path d="M75958 69561
L75733 69786
" />
<path d="M76436 69926
L76380 69955
L76267 69955
L76211 69926
L76183 69870
L76183 69645
L76211 69589
L76267 69561
L76380 69561
L76436 69589
L76464 69645
L76464 69701
L76183 69758
" />
<path d="M76717 69561
L76717 69955
" />
<path d="M76717 69617
L76745 69589
L76802 69561
L76886 69561
L76942 69589
L76970 69645
L76970 69955
" />
<path d="M77505 69955
L77505 69645
L77476 69589
L77420 69561
L77308 69561
L77251 69589
" />
<path d="M77505 69926
L77448 69955
L77308 69955
L77251 69926
L77223 69870
L77223 69814
L77251 69758
L77308 69730
L77448 69730
L77505 69701
" />
<path d="M77758 69926
L77814 69955
L77926 69955
L77983 69926
L78011 69870
L78011 69842
L77983 69786
L77926 69758
L77842 69758
L77786 69730
L77758 69673
L77758 69645
L77786 69589
L77842 69561
L77926 69561
L77983 69589
" />
</g>
<g style="fill:#000000; fill-opacity:0.0; 
stroke:#000000; stroke-width:39.3701; stroke-opacity:1; 
stroke-linecap:round; stroke-linejoin:round;">
</g>
<g style="fill:#000000; fill-opacity:0.0; 
stroke:#000000; stroke-width:59.0551; stroke-opacity:1; 
stroke-linecap:round; stroke-linejoin:round;">
<path d="M70502 68773
L70502 68464
L70474 68408
L70418 68380
L70305 68380
L70249 68408
" />
<path d="M70502 68745
L70446 68773
L70305 68773
L70249 68745
L70221 68689
L70221 68633
L70249 68577
L70305 68548
L70446 68548
L70502 68520
" />
<path d="M70868 68773
L70812 68745
L70784 68689
L70784 68183
" />
<path d="M71093 68773
L71093 68183
" />
<path d="M71093 68408
L71149 68380
L71262 68380
L71318 68408
L71346 68436
L71374 68492
L71374 68661
L71346 68717
L71318 68745
L71262 68773
L71149 68773
L71093 68745
" />
<path d="M71852 68745
L71796 68773
L71683 68773
L71627 68745
L71599 68689
L71599 68464
L71627 68408
L71683 68380
L71796 68380
L71852 68408
L71880 68464
L71880 68520
L71599 68577
" />
<path d="M72133 68773
L72133 68380
" />
<path d="M72133 68492
L72162 68436
L72190 68408
L72246 68380
L72302 68380
" />
<path d="M72415 68380
L72640 68380
" />
<path d="M72499 68183
L72499 68689
L72527 68745
L72583 68773
L72640 68773
" />
<path d="M73090 68773
L73090 68464
L73061 68408
L73005 68380
L72893 68380
L72836 68408
" />
<path d="M73090 68745
L73033 68773
L72893 68773
L72836 68745
L72808 68689
L72808 68633
L72836 68577
L72893 68548
L73033 68548
L73090 68520
" />
<path d="M73343 68745
L73399 68773
L73511 68773
L73568 68745
L73596 68689
L73596 68661
L73568 68605
L73511 68577
L73427 68577
L73371 68548
L73343 68492
L73343 68464
L73371 68408
L73427 68380
L73511 68380
L73568 68408
" />
<path d="M74214 68492
L74186 68464
L74130 68436
L74074 68436
L74018 68464
L73989 68492
L73961 68548
L73961 68605
L73989 68661
L74018 68689
L74074 68717
L74130 68717
L74186 68689
L74214 68661
" />
<path d="M74214 68436
L74214 68661
L74242 68689
L74271 68689
L74327 68661
L74355 68605
L74355 68464
L74299 68380
L74214 68323
L74102 68295
L73989 68323
L73905 68380
L73849 68464
L73821 68577
L73849 68689
L73905 68773
L73989 68830
L74102 68858
L74214 68830
L74299 68773
" />
<path d="M74524 68380
L74749 68380
" />
<path d="M74608 68183
L74608 68689
L74636 68745
L74692 68773
L74749 68773
" />
<path d="M75171 68745
L75114 68773
L75002 68773
L74946 68745
L74917 68689
L74917 68464
L74946 68408
L75002 68380
L75114 68380
L75171 68408
L75199 68464
L75199 68520
L74917 68577
" />
<path d="M75705 68745
L75649 68773
L75536 68773
L75480 68745
L75452 68717
L75424 68661
L75424 68492
L75452 68436
L75480 68408
L75536 68380
L75649 68380
L75705 68408
" />
<path d="M75958 68773
L75958 68183
" />
<path d="M76211 68773
L76211 68464
L76183 68408
L76127 68380
L76042 68380
L75986 68408
L75958 68436
" />
<path d="M76492 68380
L76492 68773
" />
<path d="M76492 68436
L76520 68408
L76577 68380
L76661 68380
L76717 68408
L76745 68464
L76745 68773
" />
<path d="M77280 68773
L77280 68464
L77251 68408
L77195 68380
L77083 68380
L77027 68408
" />
<path d="M77280 68745
L77223 68773
L77083 68773
L77027 68745
L76998 68689
L76998 68633
L77027 68577
L77083 68548
L77223 68548
L77280 68520
" />
<path d="M77561 68773
L77561 68380
" />
<path d="M77561 68492
L77589 68436
L77617 68408
L77673 68380
L77730 68380
" />
<path d="M77926 68773
L77926 68380
" />
<path d="M77926 68183
L77898 68211
L77926 68239
L77955 68211
L77926 68183
L77926 68239
" />
<path d="M78461 68380
L78461 68773
" />
<path d="M78208 68380
L78208 68689
L78236 68745
L78292 68773
L78376 68773
L78433 68745
L78461 68717
" />
<path d="M78742 68773
L78742 68380
" />
<path d="M78742 68436
L78770 68408
L78826 68380
L78911 68380
L78967 68408
L78995 68464
L78995 68773
" />
<path d="M78995 68464
L79023 68408
L79079 68380
L79164 68380
L79220 68408
L79248 68464
L79248 68773
" />
<path d="M79529 68717
L79557 68745
L79529 68773
L79501 68745
L79529 68717
L79529 68773
" />
<path d="M79895 68773
L79839 68745
L79811 68689
L79811 68183
" />
<path d="M80036 68380
L80260 68380
" />
<path d="M80120 68183
L80120 68689
L80148 68745
L80204 68773
L80260 68773
" />
</g>
<g style="fill:#000000; fill-opacity:0.0; 
stroke:#000000; stroke-width:39.3701; stroke-opacity:1; 
stroke-linecap:round; stroke-linejoin:round;">
</g>
<g style="fill:#000000; fill-opacity:0.0; 
stroke:#000000; stroke-width:59.0551; stroke-opacity:1; 
stroke-linecap:round; stroke-linejoin:round;">
<path d="M77559 75396
L77559 76577
" />
</g>
<g style="fill:#000000; fill-opacity:0.0; 
stroke:#000000; stroke-width:39.3701; stroke-opacity:1; 
stroke-linecap:round; stroke-linejoin:round;">
</g>
<g style="fill:#000000; fill-opacity:0.0; 
stroke:#000000; stroke-width:59.0551; stroke-opacity:1; 
stroke-linecap:round; stroke-linejoin:round;">
<path d="M102756 75396
L102756 77955
" />
</g>
<g style="fill:#000000; fill-opacity:0.0; 
stroke:#000000; stroke-width:240; stroke-opacity:1; 
stroke-linecap:round; stroke-linejoin:round;">
<path d="M58465 38589
L58465 44089
" />
</g>
<g style="fill:#000000; fill-opacity:0.0; 
stroke:#000000; stroke-width:120; stroke-opacity:1; 
stroke-linecap:round; stroke-linejoin:round;">
<path d="M62715 41339
L59715 41339
" />
<path d="M59715 41339
L60215 40839
" />
<path d="M59715 41339
L60215 41839
" />
<path d="M77215 41339
L79965 41339
" />
<path d="M79965 41339
L79465 40839
" />
<path d="M79965 41339
L79465 41839
" />
</g>
<g style="fill:#000000; fill-opacity:0.0; 
stroke:#000000; stroke-width:84; stroke-opacity:1; 
stroke-linecap:round; stroke-linejoin:round;">
<path d="M64177 41114
L64177 41779
" />
<path d="M64177 41145
L64241 41114
L64367 41114
L64431 41145
L64462 41177
L64494 41240
L64494 41430
L64462 41494
L64431 41525
L64367 41557
L64241 41557
L64177 41525
" />
<path d="M65064 41114
L65064 41557
" />
<path d="M64779 41114
L64779 41462
L64811 41525
L64874 41557
L64969 41557
L65032 41525
L65064 41494
" />
<path d="M65286 41114
L65539 41114
" />
<path d="M65381 40892
L65381 41462
L65412 41525
L65476 41557
L65539 41557
" />
<path d="M66172 41114
L66426 41114
" />
<path d="M66267 40892
L66267 41462
L66299 41525
L66362 41557
L66426 41557
" />
<path d="M66647 41557
L66647 40892
" />
<path d="M66932 41557
L66932 41209
L66901 41145
L66837 41114
L66742 41114
L66679 41145
L66647 41177
" />
<path d="M67249 41557
L67249 41114
" />
<path d="M67249 40892
L67217 40924
L67249 40955
L67281 40924
L67249 40892
L67249 40955
" />
<path d="M67534 41525
L67597 41557
L67724 41557
L67787 41525
L67819 41462
L67819 41430
L67787 41367
L67724 41335
L67629 41335
L67566 41304
L67534 41240
L67534 41209
L67566 41145
L67629 41114
L67724 41114
L67787 41145
" />
<path d="M68611 41114
L68611 41779
" />
<path d="M68611 41145
L68674 41114
L68801 41114
L68864 41145
L68896 41177
L68927 41240
L68927 41430
L68896 41494
L68864 41525
L68801 41557
L68674 41557
L68611 41525
" />
<path d="M69497 41557
L69497 41209
L69466 41145
L69402 41114
L69276 41114
L69212 41145
" />
<path d="M69497 41525
L69434 41557
L69276 41557
L69212 41525
L69181 41462
L69181 41399
L69212 41335
L69276 41304
L69434 41304
L69497 41272
" />
<path d="M69814 41557
L69814 41114
" />
<path d="M69814 41240
L69846 41177
L69877 41145
L69941 41114
L70004 41114
" />
<path d="M70131 41114
L70384 41114
" />
<path d="M70226 40892
L70226 41462
L70257 41525
L70321 41557
L70384 41557
" />
<path d="M71017 41114
L71271 41114
" />
<path d="M71112 40892
L71112 41462
L71144 41525
L71207 41557
L71271 41557
" />
<path d="M71587 41557
L71524 41525
L71492 41494
L71461 41430
L71461 41240
L71492 41177
L71524 41145
L71587 41114
L71682 41114
L71746 41145
L71777 41177
L71809 41240
L71809 41430
L71777 41494
L71746 41525
L71682 41557
L71587 41557
" />
<path d="M72569 41525
L72632 41557
L72759 41557
L72822 41525
L72854 41462
L72854 41430
L72822 41367
L72759 41335
L72664 41335
L72601 41304
L72569 41240
L72569 41209
L72601 41145
L72664 41114
L72759 41114
L72822 41145
" />
<path d="M73234 41557
L73171 41525
L73139 41494
L73107 41430
L73107 41240
L73139 41177
L73171 41145
L73234 41114
L73329 41114
L73392 41145
L73424 41177
L73456 41240
L73456 41430
L73424 41494
L73392 41525
L73329 41557
L73234 41557
" />
<path d="M73741 41557
L73741 41114
" />
<path d="M73741 40892
L73709 40924
L73741 40955
L73772 40924
L73741 40892
L73741 40955
" />
<path d="M74152 41557
L74089 41525
L74057 41462
L74057 40892
" />
<path d="M62677 39557
L62677 38892
L62931 38892
L62994 38924
L63026 38955
L63057 39019
L63057 39114
L63026 39177
L62994 39209
L62931 39240
L62677 39240
" />
<path d="M63437 39557
L63374 39525
L63342 39462
L63342 38892
" />
<path d="M63976 39557
L63976 39209
L63944 39145
L63881 39114
L63754 39114
L63691 39145
" />
<path d="M63976 39525
L63912 39557
L63754 39557
L63691 39525
L63659 39462
L63659 39399
L63691 39335
L63754 39304
L63912 39304
L63976 39272
" />
<path d="M64292 39114
L64292 39557
" />
<path d="M64292 39177
L64324 39145
L64387 39114
L64482 39114
L64546 39145
L64577 39209
L64577 39557
" />
<path d="M64799 39114
L65052 39114
" />
<path d="M64894 38892
L64894 39462
L64926 39525
L64989 39557
L65052 39557
" />
<path d="M65717 39114
L65844 39557
L65971 39240
L66097 39557
L66224 39114
" />
<path d="M66762 39557
L66762 39209
L66731 39145
L66667 39114
L66541 39114
L66477 39145
" />
<path d="M66762 39525
L66699 39557
L66541 39557
L66477 39525
L66446 39462
L66446 39399
L66477 39335
L66541 39304
L66699 39304
L66762 39272
" />
<path d="M66984 39114
L67237 39114
" />
<path d="M67079 38892
L67079 39462
L67111 39525
L67174 39557
L67237 39557
" />
<path d="M67712 39525
L67649 39557
L67522 39557
L67459 39525
L67427 39462
L67427 39209
L67459 39145
L67522 39114
L67649 39114
L67712 39145
L67744 39209
L67744 39272
L67427 39335
" />
<path d="M68029 39557
L68029 39114
" />
<path d="M68029 39240
L68061 39177
L68092 39145
L68156 39114
L68219 39114
" />
<path d="M68441 39557
L68441 39114
" />
<path d="M68441 38892
L68409 38924
L68441 38955
L68472 38924
L68441 38892
L68441 38955
" />
<path d="M68757 39114
L68757 39557
" />
<path d="M68757 39177
L68789 39145
L68852 39114
L68947 39114
L69011 39145
L69042 39209
L69042 39557
" />
<path d="M69644 39114
L69644 39652
L69612 39715
L69581 39747
L69517 39779
L69422 39779
L69359 39747
" />
<path d="M69644 39525
L69581 39557
L69454 39557
L69391 39525
L69359 39494
L69327 39430
L69327 39240
L69359 39177
L69391 39145
L69454 39114
L69581 39114
L69644 39145
" />
<path d="M70752 39557
L70752 39209
L70721 39145
L70657 39114
L70531 39114
L70467 39145
" />
<path d="M70752 39525
L70689 39557
L70531 39557
L70467 39525
L70436 39462
L70436 39399
L70467 39335
L70531 39304
L70689 39304
L70752 39272
" />
<path d="M71164 39557
L71101 39525
L71069 39462
L71069 38892
" />
<path d="M71702 39557
L71702 39209
L71671 39145
L71607 39114
L71481 39114
L71417 39145
" />
<path d="M71702 39525
L71639 39557
L71481 39557
L71417 39525
L71386 39462
L71386 39399
L71417 39335
L71481 39304
L71639 39304
L71702 39272
" />
<path d="M72019 39557
L72019 39114
" />
<path d="M72019 39240
L72051 39177
L72082 39145
L72146 39114
L72209 39114
" />
<path d="M72431 39557
L72431 39114
" />
<path d="M72431 39177
L72462 39145
L72526 39114
L72621 39114
L72684 39145
L72716 39209
L72716 39557
" />
<path d="M72716 39209
L72747 39145
L72811 39114
L72906 39114
L72969 39145
L73001 39209
L73001 39557
" />
<path d="M73761 39114
L73919 39557
L74077 39114
" />
<path d="M74331 39494
L74362 39525
L74331 39557
L74299 39525
L74331 39494
L74331 39557
" />
<path d="M74616 38955
L74647 38924
L74711 38892
L74869 38892
L74932 38924
L74964 38955
L74996 39019
L74996 39082
L74964 39177
L74584 39557
L74996 39557
" />
<path d="M75281 39494
L75312 39525
L75281 39557
L75249 39525
L75281 39494
L75281 39557
" />
<path d="M75882 39114
L75882 39557
" />
<path d="M75724 38860
L75566 39335
L75977 39335
" />
<path d="M76231 39494
L76262 39525
L76231 39557
L76199 39525
L76231 39494
L76231 39557
" />
<path d="M76864 38892
L76547 38892
L76516 39209
L76547 39177
L76611 39145
L76769 39145
L76832 39177
L76864 39209
L76896 39272
L76896 39430
L76864 39494
L76832 39525
L76769 39557
L76611 39557
L76547 39525
L76516 39494
" />
</g>
<g style="fill:#000000; fill-opacity:0.0; 
stroke:#000000; stroke-width:67.2; stroke-opacity:1; 
stroke-linecap:round; stroke-linejoin:round;">
<path d="M62635 43813
L62635 43281
" />
<path d="M62863 43813
L62863 43535
L62838 43484
L62787 43459
L62711 43459
L62660 43484
L62635 43509
" />
<path d="M63040 43459
L63243 43459
" />
<path d="M63116 43281
L63116 43737
L63142 43788
L63192 43813
L63243 43813
" />
<path d="M63344 43459
L63547 43459
" />
<path d="M63420 43281
L63420 43737
L63446 43788
L63496 43813
L63547 43813
" />
<path d="M63724 43459
L63724 43991
" />
<path d="M63724 43484
L63775 43459
L63876 43459
L63927 43484
L63952 43509
L63978 43560
L63978 43712
L63952 43763
L63927 43788
L63876 43813
L63775 43813
L63724 43788
" />
<path d="M64206 43763
L64231 43788
L64206 43813
L64180 43788
L64206 43763
L64206 43813
" />
<path d="M64206 43484
L64231 43509
L64206 43535
L64180 43509
L64206 43484
L64206 43535
" />
<path d="M64839 43256
L64383 43940
" />
<path d="M65396 43256
L64940 43940
" />
<path d="M65523 43459
L65624 43813
L65726 43560
L65827 43813
L65928 43459
" />
<path d="M66334 43788
L66283 43813
L66182 43813
L66131 43788
L66106 43737
L66106 43535
L66131 43484
L66182 43459
L66283 43459
L66334 43484
L66359 43535
L66359 43585
L66106 43636
" />
<path d="M66587 43813
L66587 43459
" />
<path d="M66587 43509
L66612 43484
L66663 43459
L66739 43459
L66790 43484
L66815 43535
L66815 43813
" />
<path d="M66815 43535
L66840 43484
L66891 43459
L66967 43459
L67018 43484
L67043 43535
L67043 43813
" />
<path d="M67524 43813
L67524 43535
L67499 43484
L67448 43459
L67347 43459
L67296 43484
" />
<path d="M67524 43788
L67474 43813
L67347 43813
L67296 43788
L67271 43737
L67271 43687
L67296 43636
L67347 43611
L67474 43611
L67524 43585
" />
<path d="M67778 43813
L67778 43281
" />
<path d="M67828 43611
L67980 43813
" />
<path d="M67980 43459
L67778 43661
" />
<path d="M68411 43788
L68360 43813
L68259 43813
L68208 43788
L68183 43737
L68183 43535
L68208 43484
L68259 43459
L68360 43459
L68411 43484
L68436 43535
L68436 43585
L68183 43636
" />
<path d="M68588 43459
L68791 43459
" />
<path d="M68664 43281
L68664 43737
L68690 43788
L68740 43813
L68791 43813
" />
<path d="M68968 43813
L68968 43281
" />
<path d="M69196 43813
L69196 43535
L69171 43484
L69120 43459
L69044 43459
L68994 43484
L68968 43509
" />
<path d="M69450 43813
L69450 43459
" />
<path d="M69450 43281
L69424 43307
L69450 43332
L69475 43307
L69450 43281
L69450 43332
" />
<path d="M69703 43459
L69703 43813
" />
<path d="M69703 43509
L69728 43484
L69779 43459
L69855 43459
L69906 43484
L69931 43535
L69931 43813
" />
<path d="M70412 43459
L70412 43889
L70387 43940
L70362 43965
L70311 43991
L70235 43991
L70184 43965
" />
<path d="M70412 43788
L70362 43813
L70260 43813
L70210 43788
L70184 43763
L70159 43712
L70159 43560
L70184 43509
L70210 43484
L70260 43459
L70362 43459
L70412 43484
" />
<path d="M70640 43788
L70691 43813
L70792 43813
L70843 43788
L70868 43737
L70868 43712
L70843 43661
L70792 43636
L70716 43636
L70666 43611
L70640 43560
L70640 43535
L70666 43484
L70716 43459
L70792 43459
L70843 43484
" />
<path d="M71096 43763
L71122 43788
L71096 43813
L71071 43788
L71096 43763
L71096 43813
" />
<path d="M71350 43459
L71350 43813
" />
<path d="M71350 43509
L71375 43484
L71426 43459
L71502 43459
L71552 43484
L71578 43535
L71578 43813
" />
<path d="M72034 43788
L71983 43813
L71882 43813
L71831 43788
L71806 43737
L71806 43535
L71831 43484
L71882 43459
L71983 43459
L72034 43484
L72059 43535
L72059 43585
L71806 43636
" />
<path d="M72211 43459
L72414 43459
" />
<path d="M72287 43281
L72287 43737
L72312 43788
L72363 43813
L72414 43813
" />
<path d="M72971 43256
L72515 43940
" />
<path d="M73376 43788
L73326 43813
L73224 43813
L73174 43788
L73148 43763
L73123 43712
L73123 43560
L73148 43509
L73174 43484
L73224 43459
L73326 43459
L73376 43484
" />
<path d="M73604 43813
L73604 43281
" />
<path d="M73832 43813
L73832 43535
L73807 43484
L73756 43459
L73680 43459
L73630 43484
L73604 43509
" />
<path d="M74086 43813
L74086 43459
" />
<path d="M74086 43281
L74060 43307
L74086 43332
L74111 43307
L74086 43281
L74086 43332
" />
<path d="M74339 43813
L74339 43459
" />
<path d="M74339 43560
L74364 43509
L74390 43484
L74440 43459
L74491 43459
" />
<path d="M74668 43459
L74668 43991
" />
<path d="M74668 43484
L74719 43459
L74820 43459
L74871 43484
L74896 43509
L74922 43560
L74922 43712
L74896 43763
L74871 43788
L74820 43813
L74719 43813
L74668 43788
" />
</g>
<g style="fill:#000000; fill-opacity:0.0; 
stroke:#000000; stroke-width:59.0551; stroke-opacity:1; 
stroke-linecap:round; stroke-linejoin:round;">
<path d="M39645 40767
L37873 40767
" />
<path d="M39645 39389
L37873 39389
" />
<path d="M37873 40767
L37873 40629
" />
<path d="M39645 40767
L39645 40629
" />
<path d="M39645 39389
L39645 39527
" />
<path d="M37873 39389
L37873 39527
" />
<path d="M38050 40767
L38050 40629
" />
<path d="M38050 39389
L38050 39527
" />
</g>
<g style="fill:#000000; fill-opacity:1.0; 
stroke:#000000; stroke-width:0; stroke-opacity:1; 
stroke-linecap:round; stroke-linejoin:round;">
<polyline style="fill-rule:evenodd;"
points="42215,43378
42215,43299
42136,43299
42136,43378
42215,43378
" /> 
</g>
<g style="fill:#000000; fill-opacity:1.0; 
stroke:#000000; stroke-width:47.2441; stroke-opacity:1; 
stroke-linecap:round; stroke-linejoin:round;">
</g>
<g style="fill:#000000; fill-opacity:0.0; 
stroke:#000000; stroke-width:47.2441; stroke-opacity:1; 
stroke-linecap:round; stroke-linejoin:round;">
<path d="M35921 41720
L35921 42086
" />
<path d="M35921 42964
L35921 42598
" />
<path d="M35921 42964
L36771 42964
" />
<path d="M35921 41720
L36496 41720
" />
</g>
<g style="fill:#000000; fill-opacity:0.0; 
stroke:#000000; stroke-width:59.0551; stroke-opacity:1; 
stroke-linecap:round; stroke-linejoin:round;">
<path d="M42775 42155
L42785 42155
" />
<path d="M42775 40521
L42820 40521
" />
<path d="M46279 40521
L46234 40521
" />
<path d="M46279 42155
L46234 42155
" />
<path d="M42775 42155
L42775 40521
" />
<path d="M46279 42155
L46279 40521
" />
<path d="M42785 42155
L42785 42696
" />
</g>
<g style="fill:#000000; fill-opacity:0.0; 
stroke:#000000; stroke-width:47.2441; stroke-opacity:1; 
stroke-linecap:round; stroke-linejoin:round;">
<path d="M37586 42535
L37413 42535
" />
<path d="M37586 42937
L37413 42937
" />
<path d="M35417 41425
L35417 41251
" />
<path d="M35015 41425
L35015 41251
" />
<path d="M42133 41177
L41960 41177
" />
<path d="M42133 41578
L41960 41578
" />
<path d="M47551 40888
L47378 40888
" />
<path d="M47551 41289
L47378 41289
" />
<path d="M43767 39228
L43594 39228
" />
<path d="M43767 39629
L43594 39629
" />
<path d="M43594 43145
L43767 43145
" />
<path d="M43594 43547
L43767 43547
" />
<path d="M42144 42138
L41970 42138
" />
<path d="M42144 42539
L41970 42539
" />
<path d="M42133 40311
L41960 40311
" />
<path d="M42133 40712
L41960 40712
" />
<path d="M47374 39590
L47547 39590
" />
<path d="M47374 39188
L47547 39188
" />
<path d="M35555 39771
L35555 39598
" />
<path d="M35153 39771
L35153 39598
" />
<path d="M39885 42196
L39885 42370
" />
<path d="M39484 42196
L39484 42370
" />
<path d="M40409 41622
L40984 41622
" />
<path d="M40409 42866
L41259 42866
" />
<path d="M40409 42866
L40409 42500
" />
<path d="M40409 41622
L40409 41988
" />
</g>
<g style="fill:#000000; fill-opacity:0.0; 
stroke:#000000; stroke-width:39.3701; stroke-opacity:1; 
stroke-linecap:round; stroke-linejoin:round;">
<path d="M38556 39258
L38556 38982
L38622 38982
L38661 38996
L38687 39022
L38700 39048
L38713 39101
L38713 39140
L38700 39192
L38687 39219
L38661 39245
L38622 39258
L38556 39258
" />
<path d="M38976 39258
L38818 39258
" />
<path d="M38897 39258
L38897 38982
L38871 39022
L38845 39048
L38818 39061
" />
</g>
<g style="fill:#000000; fill-opacity:0.0; 
stroke:#000000; stroke-width:59.0551; stroke-opacity:1; 
stroke-linecap:round; stroke-linejoin:round;">
<path d="M37475 39587
L37475 39194
" />
<path d="M37700 39587
L37531 39362
" />
<path d="M37700 39194
L37475 39419
" />
<path d="M39965 39514
L40152 39514
" />
<path d="M39927 39626
L40058 39233
L40190 39626
" />
</g>
<g style="fill:#000000; fill-opacity:0.0; 
stroke:#000000; stroke-width:39.3701; stroke-opacity:1; 
stroke-linecap:round; stroke-linejoin:round;">
<path d="M41994 44514
L41862 44514
L41862 44238
" />
<path d="M42085 44370
L42177 44370
" />
<path d="M42217 44514
L42085 44514
L42085 44238
L42217 44238
" />
<path d="M42335 44514
L42335 44238
L42400 44238
L42440 44251
L42466 44278
L42479 44304
L42492 44356
L42492 44396
L42479 44448
L42466 44475
L42440 44501
L42400 44514
L42335 44514
" />
<path d="M42755 44514
L42597 44514
" />
<path d="M42676 44514
L42676 44238
L42650 44278
L42624 44304
L42597 44317
" />
<path d="M36194 43418
L36167 43405
L36141 43379
L36102 43339
L36076 43326
L36049 43326
" />
<path d="M36062 43392
L36036 43379
L36010 43353
L35997 43300
L35997 43208
L36010 43156
L36036 43129
L36062 43116
L36115 43116
L36141 43129
L36167 43156
L36181 43208
L36181 43300
L36167 43353
L36141 43379
L36115 43392
L36062 43392
" />
<path d="M36443 43392
L36286 43392
" />
<path d="M36364 43392
L36364 43116
L36338 43156
L36312 43182
L36286 43195
" />
<path d="M43274 41607
L42998 41607
" />
<path d="M43248 41318
L43261 41332
L43274 41371
L43274 41397
L43261 41437
L43234 41463
L43208 41476
L43156 41489
L43116 41489
L43064 41476
L43038 41463
L43011 41437
L42998 41397
L42998 41371
L43011 41332
L43024 41318
" />
<path d="M43274 41056
L43274 41213
" />
<path d="M43274 41135
L42998 41135
L43038 41161
L43064 41187
L43077 41213
" />
<path d="M37473 43392
L37381 43261
" />
<path d="M37316 43392
L37316 43116
L37421 43116
L37447 43129
L37460 43143
L37473 43169
L37473 43208
L37460 43234
L37447 43248
L37421 43261
L37316 43261
" />
<path d="M37723 43116
L37591 43116
L37578 43248
L37591 43234
L37618 43221
L37683 43221
L37709 43234
L37723 43248
L37736 43274
L37736 43339
L37723 43366
L37709 43379
L37683 43392
L37618 43392
L37591 43379
L37578 43366
" />
<path d="M34849 41384
L34717 41476
" />
<path d="M34849 41541
L34573 41541
L34573 41437
L34586 41410
L34599 41397
L34625 41384
L34665 41384
L34691 41397
L34704 41410
L34717 41437
L34717 41541
" />
<path d="M34573 41148
L34573 41200
L34586 41227
L34599 41240
L34639 41266
L34691 41279
L34796 41279
L34822 41266
L34835 41253
L34849 41227
L34849 41174
L34835 41148
L34822 41135
L34796 41122
L34730 41122
L34704 41135
L34691 41148
L34678 41174
L34678 41227
L34691 41253
L34704 41266
L34730 41279
" />
<path d="M42040 41108
L41948 40977
" />
<path d="M41883 41108
L41883 40833
L41988 40833
L42014 40846
L42027 40859
L42040 40885
L42040 40925
L42027 40951
L42014 40964
L41988 40977
L41883 40977
" />
<path d="M42132 40833
L42316 40833
L42198 41108
" />
<path d="M46607 41187
L46515 41056
" />
<path d="M46450 41187
L46450 40912
L46555 40912
L46581 40925
L46594 40938
L46607 40964
L46607 41003
L46594 41030
L46581 41043
L46555 41056
L46450 41056
" />
<path d="M46870 41187
L46712 41187
" />
<path d="M46791 41187
L46791 40912
L46765 40951
L46738 40977
L46712 40990
" />
<path d="M42729 39539
L42637 39408
" />
<path d="M42571 39539
L42571 39264
L42676 39264
L42702 39277
L42716 39290
L42729 39316
L42729 39355
L42716 39382
L42702 39395
L42676 39408
L42571 39408
" />
<path d="M42834 39290
L42847 39277
L42873 39264
L42939 39264
L42965 39277
L42978 39290
L42991 39316
L42991 39342
L42978 39382
L42821 39539
L42991 39539
" />
<path d="M43635 44022
L43543 43891
" />
<path d="M43477 44022
L43477 43746
L43582 43746
L43608 43759
L43622 43772
L43635 43799
L43635 43838
L43622 43864
L43608 43877
L43582 43891
L43477 43891
" />
<path d="M43727 43746
L43897 43746
L43805 43851
L43845 43851
L43871 43864
L43884 43877
L43897 43904
L43897 43969
L43884 43996
L43871 44009
L43845 44022
L43766 44022
L43740 44009
L43727 43996
" />
<path d="M42001 41988
L41988 42001
L41948 42014
L41922 42014
L41883 42001
L41856 41975
L41843 41948
L41830 41896
L41830 41856
L41843 41804
L41856 41778
L41883 41751
L41922 41738
L41948 41738
L41988 41751
L42001 41765
" />
<path d="M42106 41765
L42119 41751
L42145 41738
L42211 41738
L42237 41751
L42250 41765
L42263 41791
L42263 41817
L42250 41856
L42093 42014
L42263 42014
" />
<path d="M42001 40177
L41988 40190
L41948 40203
L41922 40203
L41883 40190
L41856 40164
L41843 40137
L41830 40085
L41830 40045
L41843 39993
L41856 39967
L41883 39940
L41922 39927
L41948 39927
L41988 39940
L42001 39954
" />
<path d="M42093 39927
L42263 39927
L42171 40032
L42211 40032
L42237 40045
L42250 40059
L42263 40085
L42263 40150
L42250 40177
L42237 40190
L42211 40203
L42132 40203
L42106 40190
L42093 40177
" />
<path d="M46544 39493
L46531 39506
L46491 39519
L46465 39519
L46426 39506
L46399 39480
L46386 39454
L46373 39401
L46373 39362
L46386 39309
L46399 39283
L46426 39257
L46465 39244
L46491 39244
L46531 39257
L46544 39270
" />
<path d="M46780 39336
L46780 39519
" />
<path d="M46714 39231
L46649 39428
L46819 39428
" />
<path d="M34940 39573
L34954 39586
L34967 39625
L34967 39652
L34954 39691
L34927 39717
L34901 39730
L34849 39744
L34809 39744
L34757 39730
L34730 39717
L34704 39691
L34691 39652
L34691 39625
L34704 39586
L34717 39573
" />
<path d="M34691 39324
L34691 39455
L34822 39468
L34809 39455
L34796 39429
L34796 39363
L34809 39337
L34822 39324
L34849 39311
L34914 39311
L34940 39324
L34954 39337
L34967 39363
L34967 39429
L34954 39455
L34940 39468
" />
<path d="M46445 40206
L46445 39931
L46510 39931
L46550 39944
L46576 39970
L46589 39996
L46602 40049
L46602 40088
L46589 40141
L46576 40167
L46550 40193
L46510 40206
L46445 40206
" />
<path d="M46707 39957
L46720 39944
L46746 39931
L46812 39931
L46838 39944
L46851 39957
L46865 39983
L46865 40010
L46851 40049
L46694 40206
L46865 40206
" />
<path d="M39271 42290
L39284 42303
L39297 42342
L39297 42368
L39284 42408
L39258 42434
L39232 42447
L39179 42460
L39140 42460
L39087 42447
L39061 42434
L39035 42408
L39022 42368
L39022 42342
L39035 42303
L39048 42290
" />
<path d="M39297 42027
L39297 42185
" />
<path d="M39297 42106
L39022 42106
L39061 42132
L39087 42158
L39101 42185
" />
<path d="M40498 41227
L40498 41450
L40511 41476
L40524 41489
L40551 41502
L40603 41502
L40629 41489
L40643 41476
L40656 41450
L40656 41227
" />
<path d="M40931 41502
L40774 41502
" />
<path d="M40853 41502
L40853 41227
L40826 41266
L40800 41292
L40774 41305
" />
</g>
<g style="fill:#000000; fill-opacity:0.0; 
stroke:#000000; stroke-width:59.0551; stroke-opacity:1; 
stroke-linecap:round; stroke-linejoin:round;">
<path d="M42057 43929
L41900 43929
" />
<path d="M42057 43929
L42057 43732
" />
<path d="M42057 43929
L42057 44126
" />
<path d="M42057 43929
L42372 43732
" />
<path d="M42372 44126
L42057 43929
" />
<path d="M42372 43732
L42372 44126
" />
</g>
<g style="fill:#000000; fill-opacity:0.0; 
stroke:#000000; stroke-width:40; stroke-opacity:1; 
stroke-linecap:round; stroke-linejoin:round;">
<path d="M41821.3 43476.8 A137.795 137.795 0.0 0 0 41821.3 43201.2 " />
<path d="M42608.7 43201.2 A137.795 137.795 0.0 0 0 42608.7 43476.8 " />
<path d="M42008 43112
L42421 43112
" />
<path d="M42411 43565
L41850 43565
" />
<circle cx="41880.4" cy="43516.2" r="40.5512" /> 
</g>
<g style="fill:#000000; fill-opacity:1.0; 
stroke:#000000; stroke-width:0; stroke-opacity:1; 
stroke-linecap:round; stroke-linejoin:round;">
<polyline style="fill-rule:evenodd;"
points="42018,43220
42018,43092
41821,43092
41821,43220
42018,43220
" /> 
<polyline style="fill-rule:evenodd;"
points="42018,43466
42018,43407
41919,43407
41919,43466
42018,43466
" /> 
<polyline style="fill-rule:evenodd;"
points="42018,43270
42018,43211
41919,43211
41919,43270
42018,43270
" /> 
<polyline style="fill-rule:evenodd;"
points="42018,43417
42018,43260
41949,43260
41949,43417
42018,43417
" /> 
<polyline style="fill-rule:evenodd;"
points="42608,43220
42608,43092
42411,43092
42411,43220
42608,43220
" /> 
<polyline style="fill-rule:evenodd;"
points="42608,43585
42608,43457
42411,43457
42411,43585
42608,43585
" /> 
<polyline style="fill-rule:evenodd;"
points="42510,43270
42510,43211
42411,43211
42411,43270
42510,43270
" /> 
<polyline style="fill-rule:evenodd;"
points="42510,43466
42510,43407
42411,43407
42411,43466
42510,43466
" /> 
<polyline style="fill-rule:evenodd;"
points="42480,43417
42480,43260
42411,43260
42411,43417
42480,43417
" /> 
<polyline style="fill-rule:evenodd;"
points="42018,43575
42018,43457
41900,43457
41900,43575
42018,43575
" /> 
<polyline style="fill-rule:evenodd;"
points="41850,43585
41850,43496
41821,43496
41821,43585
41850,43585
" /> 
</g>
<g style="fill:#000000; fill-opacity:1.0; 
stroke:#000000; stroke-width:50; stroke-opacity:1; 
stroke-linecap:round; stroke-linejoin:round;">
</g>
<g style="fill:#000000; fill-opacity:0.0; 
stroke:#000000; stroke-width:50; stroke-opacity:1; 
stroke-linecap:round; stroke-linejoin:round;">
<path d="M47362 40590
L47362 40393
" />
<path d="M47362 40393
L47362 40196
" />
<path d="M47559 40590
L47559 40393
" />
<path d="M47559 40393
L47559 40196
" />
<path d="M47559 40196
L47362 40393
" />
<path d="M47362 40393
L47559 40590
" />
<path d="M47362 40393
L47165 40393
" />
<path d="M47559 40393
L47755 40393
" />
</g>
<g style="fill:#000000; fill-opacity:1.0; 
stroke:#000000; stroke-width:0; stroke-opacity:1; 
stroke-linecap:round; stroke-linejoin:round;">
<polyline style="fill-rule:evenodd;"
points="47696,40157
47696,39842
47224,39842
47224,40157
47696,40157
" /> 
<polyline style="fill-rule:evenodd;"
points="47775,40059
47775,39940
47696,39940
47696,40059
47775,40059
" /> 
<polyline style="fill-rule:evenodd;"
points="47224,40059
47224,39940
47145,39940
47145,40059
47224,40059
" /> 
<polyline style="fill-rule:evenodd;"
points="49065,42739
48865,42739
48865,42939
49065,42939
49065,42739
" /> 
<polyline style="fill-rule:evenodd;"
points="49065,43739
48865,43739
48865,43939
49065,43939
49065,43739
" /> 
<polyline style="fill-rule:evenodd;"
points="48065,43739
47865,43739
47865,43939
48065,43939
48065,43739
" /> 
<polyline style="fill-rule:evenodd;"
points="48065,42739
47865,42739
47865,42939
48065,42939
48065,42739
" /> 
<polyline style="fill-rule:evenodd;"
points="47065,43739
46865,43739
46865,43939
47065,43939
47065,43739
" /> 
<polyline style="fill-rule:evenodd;"
points="47065,42739
46865,42739
46865,42939
47065,42939
47065,42739
" /> 
</g>
<g style="fill:#000000; fill-opacity:1.0; 
stroke:#000000; stroke-width:59.0551; stroke-opacity:1; 
stroke-linecap:round; stroke-linejoin:round;">
</g>
<g style="fill:#000000; fill-opacity:0.0; 
stroke:#000000; stroke-width:59.0551; stroke-opacity:1; 
stroke-linecap:round; stroke-linejoin:round;">
<path d="M30905 38188
L79921 38188
" />
<path d="M30905 44488
L30905 38188
" />
<path d="M79921 44488
L30905 44488
" />
<path d="M86318 41338
L79921 44488
" />
<path d="M86318 41338
L79921 38188
" />
</g> 
</svg>
