G04 #@! TF.FileFunction,Copper,L2,Bot,Signal*
%FSLAX46Y46*%
G04 Gerber Fmt 4.6, Leading zero omitted, Abs format (unit mm)*
G04 Created by KiCad (PCBNEW (2015-09-30 BZR 6232)-product) date Fri 09 Oct 2015 11:18:26 AM EEST*
%MOMM*%
G01*
G04 APERTURE LIST*
%ADD10C,0.100000*%
%ADD11R,1.879600X1.879600*%
%ADD12C,1.879600*%
%ADD13C,2.540000*%
%ADD14R,2.790000X5.080000*%
%ADD15C,0.704800*%
%ADD16C,0.600000*%
%ADD17C,0.609600*%
%ADD18C,0.812800*%
%ADD19C,0.304800*%
%ADD20C,0.406400*%
%ADD21C,0.250000*%
%ADD22C,0.254000*%
G04 APERTURE END LIST*
D10*
D11*
X85871100Y-51811100D03*
D12*
X85871100Y-54351100D03*
X83331100Y-51811100D03*
X83331100Y-54351100D03*
X80791100Y-51811100D03*
X80791100Y-54351100D03*
D13*
X49041100Y-45501100D03*
X49041100Y-50501100D03*
D14*
X56781100Y-48001100D03*
X68291100Y-48001100D03*
X79541100Y-48001100D03*
D11*
X85871100Y-67811100D03*
D12*
X85871100Y-70351100D03*
X83331100Y-67811100D03*
X83331100Y-70351100D03*
X80791100Y-67811100D03*
X80791100Y-70351100D03*
D13*
X49041100Y-61501100D03*
X49041100Y-66501100D03*
D14*
X56781100Y-64001100D03*
X68291100Y-64001100D03*
X79541100Y-64001100D03*
D11*
X85871100Y-83811100D03*
D12*
X85871100Y-86351100D03*
X83331100Y-83811100D03*
X83331100Y-86351100D03*
X80791100Y-83811100D03*
X80791100Y-86351100D03*
D13*
X49041100Y-77501100D03*
X49041100Y-82501100D03*
D14*
X56781100Y-80001100D03*
X68291100Y-80001100D03*
X79541100Y-80001100D03*
D11*
X85871100Y-99811100D03*
D12*
X85871100Y-102351100D03*
X83331100Y-99811100D03*
X83331100Y-102351100D03*
X80791100Y-99811100D03*
X80791100Y-102351100D03*
D13*
X49041100Y-93501100D03*
X49041100Y-98501100D03*
D14*
X56781100Y-96001100D03*
X68291100Y-96001100D03*
X79541100Y-96001100D03*
D11*
X85871100Y-115811100D03*
D12*
X85871100Y-118351100D03*
X83331100Y-115811100D03*
X83331100Y-118351100D03*
X80791100Y-115811100D03*
X80791100Y-118351100D03*
D13*
X49041100Y-109501100D03*
X49041100Y-114501100D03*
D14*
X56781100Y-112001100D03*
X68291100Y-112001100D03*
X79541100Y-112001100D03*
D15*
X56026100Y-44826100D03*
X87776100Y-53081100D03*
X69361100Y-51811100D03*
X59201100Y-49271100D03*
X56661100Y-51176100D03*
X56026100Y-60826100D03*
X87776100Y-69081100D03*
X69361100Y-67811100D03*
X59201100Y-65271100D03*
X56661100Y-67176100D03*
X56026100Y-76826100D03*
X87776100Y-85081100D03*
X69361100Y-83811100D03*
X59201100Y-81271100D03*
X56661100Y-83176100D03*
X56026100Y-92826100D03*
X87776100Y-101081100D03*
X69361100Y-99811100D03*
X59201100Y-97271100D03*
X56661100Y-99176100D03*
X56026100Y-108826100D03*
X87776100Y-117081100D03*
X69361100Y-115811100D03*
X59201100Y-113271100D03*
X56661100Y-115176100D03*
D16*
X79750000Y-44500000D03*
X74250000Y-43250000D03*
X69750000Y-43500000D03*
X70500000Y-43500000D03*
X90500000Y-50000000D03*
X94500000Y-50000000D03*
X98500000Y-50000000D03*
X98500000Y-44000000D03*
X94500000Y-44000000D03*
X90500000Y-44000000D03*
X84000000Y-42250000D03*
X67500000Y-51500000D03*
X79750000Y-60500000D03*
X74250000Y-59250000D03*
X69750000Y-59500000D03*
X70500000Y-59500000D03*
X90500000Y-66000000D03*
X94500000Y-66000000D03*
X98500000Y-66000000D03*
X98500000Y-60000000D03*
X94500000Y-60000000D03*
X90500000Y-60000000D03*
X84000000Y-58250000D03*
X67500000Y-67500000D03*
X79750000Y-76500000D03*
X74250000Y-75250000D03*
X69750000Y-75500000D03*
X70500000Y-75500000D03*
X90500000Y-82000000D03*
X94500000Y-82000000D03*
X98500000Y-82000000D03*
X98500000Y-76000000D03*
X94500000Y-76000000D03*
X90500000Y-76000000D03*
X84000000Y-74250000D03*
X67500000Y-83500000D03*
X79750000Y-92500000D03*
X74250000Y-91250000D03*
X69750000Y-91500000D03*
X70500000Y-91500000D03*
X90500000Y-98000000D03*
X94500000Y-98000000D03*
X98500000Y-98000000D03*
X98500000Y-92000000D03*
X94500000Y-92000000D03*
X90500000Y-92000000D03*
X84000000Y-90250000D03*
X67500000Y-99500000D03*
X79750000Y-108500000D03*
X74250000Y-107250000D03*
X69750000Y-107500000D03*
X70500000Y-107500000D03*
X90500000Y-114000000D03*
X94500000Y-114000000D03*
X98500000Y-114000000D03*
X98500000Y-108000000D03*
X94500000Y-108000000D03*
X90500000Y-108000000D03*
X84000000Y-106250000D03*
X67500000Y-115500000D03*
D15*
X46501100Y-48001100D03*
X51581100Y-46731100D03*
X46501100Y-64001100D03*
X51581100Y-62731100D03*
X46501100Y-80001100D03*
X51581100Y-78731100D03*
X46501100Y-96001100D03*
X51581100Y-94731100D03*
X46501100Y-112001100D03*
X51581100Y-110731100D03*
X83966100Y-49271100D03*
X83966100Y-46096100D03*
X83966100Y-65271100D03*
X83966100Y-62096100D03*
X83966100Y-81271100D03*
X83966100Y-78096100D03*
X83966100Y-97271100D03*
X83966100Y-94096100D03*
X83966100Y-113271100D03*
X83966100Y-110096100D03*
X82061100Y-49271100D03*
X79521100Y-43556100D03*
X82061100Y-65271100D03*
X79521100Y-59556100D03*
X82061100Y-81271100D03*
X79521100Y-75556100D03*
X82061100Y-97271100D03*
X79521100Y-91556100D03*
X82061100Y-113271100D03*
X79521100Y-107556100D03*
X76981100Y-52827100D03*
X58566100Y-51176100D03*
X76981100Y-68827100D03*
X58566100Y-67176100D03*
X76981100Y-84827100D03*
X58566100Y-83176100D03*
X76981100Y-100827100D03*
X58566100Y-99176100D03*
X76981100Y-116827100D03*
X58566100Y-115176100D03*
D17*
X56781100Y-45581100D02*
X56781100Y-48001100D01*
D18*
X56026100Y-44826100D02*
X56781100Y-45581100D01*
D19*
X79521100Y-53081100D02*
X87776100Y-53081100D01*
D20*
X78251100Y-51811100D02*
X79521100Y-53081100D01*
X69361100Y-51811100D02*
X78251100Y-51811100D01*
D18*
X58071100Y-49271100D02*
X59201100Y-49271100D01*
D20*
X56781100Y-48001100D02*
X58071100Y-49271100D01*
D17*
X56661100Y-48101100D02*
X56661100Y-51176100D01*
X56781100Y-48001100D02*
X56661100Y-48101100D01*
X56781100Y-61581100D02*
X56781100Y-64001100D01*
D18*
X56026100Y-60826100D02*
X56781100Y-61581100D01*
D19*
X79521100Y-69081100D02*
X87776100Y-69081100D01*
D20*
X78251100Y-67811100D02*
X79521100Y-69081100D01*
X69361100Y-67811100D02*
X78251100Y-67811100D01*
D18*
X58071100Y-65271100D02*
X59201100Y-65271100D01*
D20*
X56781100Y-64001100D02*
X58071100Y-65271100D01*
D17*
X56661100Y-64101100D02*
X56661100Y-67176100D01*
X56781100Y-64001100D02*
X56661100Y-64101100D01*
X56781100Y-77581100D02*
X56781100Y-80001100D01*
D18*
X56026100Y-76826100D02*
X56781100Y-77581100D01*
D19*
X79521100Y-85081100D02*
X87776100Y-85081100D01*
D20*
X78251100Y-83811100D02*
X79521100Y-85081100D01*
X69361100Y-83811100D02*
X78251100Y-83811100D01*
D18*
X58071100Y-81271100D02*
X59201100Y-81271100D01*
D20*
X56781100Y-80001100D02*
X58071100Y-81271100D01*
D17*
X56661100Y-80101100D02*
X56661100Y-83176100D01*
X56781100Y-80001100D02*
X56661100Y-80101100D01*
X56781100Y-93581100D02*
X56781100Y-96001100D01*
D18*
X56026100Y-92826100D02*
X56781100Y-93581100D01*
D19*
X79521100Y-101081100D02*
X87776100Y-101081100D01*
D20*
X78251100Y-99811100D02*
X79521100Y-101081100D01*
X69361100Y-99811100D02*
X78251100Y-99811100D01*
D18*
X58071100Y-97271100D02*
X59201100Y-97271100D01*
D20*
X56781100Y-96001100D02*
X58071100Y-97271100D01*
D17*
X56661100Y-96101100D02*
X56661100Y-99176100D01*
X56781100Y-96001100D02*
X56661100Y-96101100D01*
X56781100Y-109581100D02*
X56781100Y-112001100D01*
D18*
X56026100Y-108826100D02*
X56781100Y-109581100D01*
D19*
X79521100Y-117081100D02*
X87776100Y-117081100D01*
D20*
X78251100Y-115811100D02*
X79521100Y-117081100D01*
X69361100Y-115811100D02*
X78251100Y-115811100D01*
D18*
X58071100Y-113271100D02*
X59201100Y-113271100D01*
D20*
X56781100Y-112001100D02*
X58071100Y-113271100D01*
D17*
X56661100Y-112101100D02*
X56661100Y-115176100D01*
X56781100Y-112001100D02*
X56661100Y-112101100D01*
D21*
X74250000Y-43250000D02*
X75500000Y-44500000D01*
X75500000Y-44500000D02*
X79750000Y-44500000D01*
X70500000Y-43500000D02*
X74000000Y-43500000D01*
X74000000Y-43500000D02*
X74250000Y-43250000D01*
X70500000Y-43500000D02*
X69750000Y-43500000D01*
X94500000Y-50000000D02*
X90500000Y-50000000D01*
X98500000Y-44000000D02*
X98500000Y-50000000D01*
X94500000Y-44000000D02*
X98500000Y-44000000D01*
X84000000Y-42250000D02*
X88750000Y-42250000D01*
X88750000Y-42250000D02*
X90500000Y-44000000D01*
X68291100Y-48001100D02*
X68291100Y-50791100D01*
X68291100Y-50791100D02*
X67582200Y-51500000D01*
X67582200Y-51500000D02*
X67500000Y-51500000D01*
X74250000Y-59250000D02*
X75500000Y-60500000D01*
X75500000Y-60500000D02*
X79750000Y-60500000D01*
X70500000Y-59500000D02*
X74000000Y-59500000D01*
X74000000Y-59500000D02*
X74250000Y-59250000D01*
X70500000Y-59500000D02*
X69750000Y-59500000D01*
X94500000Y-66000000D02*
X90500000Y-66000000D01*
X98500000Y-60000000D02*
X98500000Y-66000000D01*
X94500000Y-60000000D02*
X98500000Y-60000000D01*
X84000000Y-58250000D02*
X88750000Y-58250000D01*
X88750000Y-58250000D02*
X90500000Y-60000000D01*
X68291100Y-64001100D02*
X68291100Y-66791100D01*
X68291100Y-66791100D02*
X67582200Y-67500000D01*
X67582200Y-67500000D02*
X67500000Y-67500000D01*
X74250000Y-75250000D02*
X75500000Y-76500000D01*
X75500000Y-76500000D02*
X79750000Y-76500000D01*
X70500000Y-75500000D02*
X74000000Y-75500000D01*
X74000000Y-75500000D02*
X74250000Y-75250000D01*
X70500000Y-75500000D02*
X69750000Y-75500000D01*
X94500000Y-82000000D02*
X90500000Y-82000000D01*
X98500000Y-76000000D02*
X98500000Y-82000000D01*
X94500000Y-76000000D02*
X98500000Y-76000000D01*
X84000000Y-74250000D02*
X88750000Y-74250000D01*
X88750000Y-74250000D02*
X90500000Y-76000000D01*
X68291100Y-80001100D02*
X68291100Y-82791100D01*
X68291100Y-82791100D02*
X67582200Y-83500000D01*
X67582200Y-83500000D02*
X67500000Y-83500000D01*
X74250000Y-91250000D02*
X75500000Y-92500000D01*
X75500000Y-92500000D02*
X79750000Y-92500000D01*
X70500000Y-91500000D02*
X74000000Y-91500000D01*
X74000000Y-91500000D02*
X74250000Y-91250000D01*
X70500000Y-91500000D02*
X69750000Y-91500000D01*
X94500000Y-98000000D02*
X90500000Y-98000000D01*
X98500000Y-92000000D02*
X98500000Y-98000000D01*
X94500000Y-92000000D02*
X98500000Y-92000000D01*
X84000000Y-90250000D02*
X88750000Y-90250000D01*
X88750000Y-90250000D02*
X90500000Y-92000000D01*
X68291100Y-96001100D02*
X68291100Y-98791100D01*
X68291100Y-98791100D02*
X67582200Y-99500000D01*
X67582200Y-99500000D02*
X67500000Y-99500000D01*
X74250000Y-107250000D02*
X75500000Y-108500000D01*
X75500000Y-108500000D02*
X79750000Y-108500000D01*
X70500000Y-107500000D02*
X74000000Y-107500000D01*
X74000000Y-107500000D02*
X74250000Y-107250000D01*
X70500000Y-107500000D02*
X69750000Y-107500000D01*
X94500000Y-114000000D02*
X90500000Y-114000000D01*
X98500000Y-108000000D02*
X98500000Y-114000000D01*
X94500000Y-108000000D02*
X98500000Y-108000000D01*
X84000000Y-106250000D02*
X88750000Y-106250000D01*
X88750000Y-106250000D02*
X90500000Y-108000000D01*
X68291100Y-112001100D02*
X68291100Y-114791100D01*
X68291100Y-114791100D02*
X67582200Y-115500000D01*
X67582200Y-115500000D02*
X67500000Y-115500000D01*
D17*
X51581100Y-46731100D02*
X50311100Y-48001100D01*
X50311100Y-48001100D02*
X46501100Y-48001100D01*
X51581100Y-62731100D02*
X50311100Y-64001100D01*
X50311100Y-64001100D02*
X46501100Y-64001100D01*
X51581100Y-78731100D02*
X50311100Y-80001100D01*
X50311100Y-80001100D02*
X46501100Y-80001100D01*
X51581100Y-94731100D02*
X50311100Y-96001100D01*
X50311100Y-96001100D02*
X46501100Y-96001100D01*
X51581100Y-110731100D02*
X50311100Y-112001100D01*
X50311100Y-112001100D02*
X46501100Y-112001100D01*
D20*
X83966100Y-46096100D02*
X83966100Y-49271100D01*
X83966100Y-62096100D02*
X83966100Y-65271100D01*
X83966100Y-78096100D02*
X83966100Y-81271100D01*
X83966100Y-94096100D02*
X83966100Y-97271100D01*
X83966100Y-110096100D02*
X83966100Y-113271100D01*
X82061100Y-49271100D02*
X82061100Y-44826100D01*
X82061100Y-44826100D02*
X80791100Y-43556100D01*
X80791100Y-43556100D02*
X79521100Y-43556100D01*
X82061100Y-65271100D02*
X82061100Y-60826100D01*
X82061100Y-60826100D02*
X80791100Y-59556100D01*
X80791100Y-59556100D02*
X79521100Y-59556100D01*
X82061100Y-81271100D02*
X82061100Y-76826100D01*
X82061100Y-76826100D02*
X80791100Y-75556100D01*
X80791100Y-75556100D02*
X79521100Y-75556100D01*
X82061100Y-97271100D02*
X82061100Y-92826100D01*
X82061100Y-92826100D02*
X80791100Y-91556100D01*
X80791100Y-91556100D02*
X79521100Y-91556100D01*
X82061100Y-113271100D02*
X82061100Y-108826100D01*
X82061100Y-108826100D02*
X80791100Y-107556100D01*
X80791100Y-107556100D02*
X79521100Y-107556100D01*
X60217100Y-52827100D02*
X76981100Y-52827100D01*
X58566100Y-51176100D02*
X60217100Y-52827100D01*
X60217100Y-68827100D02*
X76981100Y-68827100D01*
X58566100Y-67176100D02*
X60217100Y-68827100D01*
X60217100Y-84827100D02*
X76981100Y-84827100D01*
X58566100Y-83176100D02*
X60217100Y-84827100D01*
X60217100Y-100827100D02*
X76981100Y-100827100D01*
X58566100Y-99176100D02*
X60217100Y-100827100D01*
X60217100Y-116827100D02*
X76981100Y-116827100D01*
X58566100Y-115176100D02*
X60217100Y-116827100D01*
D22*
G36*
X179142517Y-48000000D02*
X164334704Y-55290000D01*
X87136060Y-55290000D01*
X87247006Y-55132723D01*
X87372620Y-54850589D01*
X87441042Y-54549430D01*
X87445968Y-54196683D01*
X87406465Y-53997178D01*
X87469500Y-54024717D01*
X87658622Y-54066299D01*
X87852219Y-54070354D01*
X88042916Y-54036729D01*
X88223451Y-53966704D01*
X88386946Y-53862947D01*
X88527174Y-53729410D01*
X88638794Y-53571178D01*
X88717554Y-53394280D01*
X88760454Y-53205453D01*
X88763543Y-52984280D01*
X88725931Y-52794329D01*
X88652141Y-52615301D01*
X88544983Y-52454014D01*
X88408538Y-52316614D01*
X88248004Y-52208332D01*
X88069495Y-52133294D01*
X87879811Y-52094357D01*
X87686176Y-52093005D01*
X87495967Y-52129290D01*
X87448972Y-52148277D01*
X87448972Y-50871300D01*
X87440908Y-50770179D01*
X87387794Y-50598666D01*
X87289000Y-50448741D01*
X87152350Y-50332275D01*
X86988663Y-50258490D01*
X86810900Y-50233228D01*
X84931300Y-50233228D01*
X84830179Y-50241292D01*
X84658666Y-50294406D01*
X84508741Y-50393200D01*
X84392275Y-50529850D01*
X84356669Y-50608839D01*
X84339772Y-50591824D01*
X84083737Y-50419127D01*
X83799034Y-50299448D01*
X83496508Y-50237349D01*
X83187681Y-50235193D01*
X82884317Y-50293062D01*
X82597971Y-50408754D01*
X82339550Y-50577860D01*
X82118896Y-50793940D01*
X82061637Y-50877564D01*
X82017388Y-50810964D01*
X81799772Y-50591824D01*
X81574172Y-50439656D01*
X81574172Y-50135190D01*
X81577056Y-50137194D01*
X81754500Y-50214717D01*
X81943622Y-50256299D01*
X82137219Y-50260354D01*
X82327916Y-50226729D01*
X82508451Y-50156704D01*
X82671946Y-50052947D01*
X82812174Y-49919410D01*
X82923794Y-49761178D01*
X83002554Y-49584280D01*
X83012007Y-49542673D01*
X83012357Y-49544581D01*
X83083641Y-49724623D01*
X83188537Y-49887389D01*
X83323050Y-50026682D01*
X83482056Y-50137194D01*
X83659500Y-50214717D01*
X83848622Y-50256299D01*
X84042219Y-50260354D01*
X84232916Y-50226729D01*
X84413451Y-50156704D01*
X84576946Y-50052947D01*
X84717174Y-49919410D01*
X84828794Y-49761178D01*
X84907554Y-49584280D01*
X84950454Y-49395453D01*
X84953543Y-49174280D01*
X84915931Y-48984329D01*
X84842141Y-48805301D01*
X84804300Y-48748345D01*
X84804300Y-46620901D01*
X84828794Y-46586178D01*
X84907554Y-46409280D01*
X84950454Y-46220453D01*
X84953543Y-45999280D01*
X84915931Y-45809329D01*
X84842141Y-45630301D01*
X84734983Y-45469014D01*
X84598538Y-45331614D01*
X84438004Y-45223332D01*
X84259495Y-45148294D01*
X84069811Y-45109357D01*
X83876176Y-45108005D01*
X83685967Y-45144290D01*
X83506428Y-45216828D01*
X83344397Y-45322858D01*
X83206048Y-45458340D01*
X83096648Y-45618115D01*
X83020365Y-45796095D01*
X82980105Y-45985503D01*
X82977402Y-46179123D01*
X83012357Y-46369581D01*
X83083641Y-46549623D01*
X83127900Y-46618299D01*
X83127900Y-48747473D01*
X83096648Y-48793115D01*
X83020365Y-48971095D01*
X83014124Y-49000456D01*
X83010931Y-48984329D01*
X82937141Y-48805301D01*
X82899300Y-48748345D01*
X82899300Y-44826100D01*
X82891741Y-44749006D01*
X82884996Y-44671912D01*
X82883767Y-44667683D01*
X82883337Y-44663293D01*
X82860946Y-44589130D01*
X82839356Y-44514819D01*
X82837328Y-44510906D01*
X82836054Y-44506687D01*
X82799699Y-44438312D01*
X82764074Y-44369584D01*
X82761325Y-44366141D01*
X82759255Y-44362247D01*
X82710308Y-44302233D01*
X82662014Y-44241736D01*
X82655962Y-44235598D01*
X82655862Y-44235476D01*
X82655749Y-44235382D01*
X82653797Y-44233403D01*
X81383797Y-42963403D01*
X81323959Y-42914252D01*
X81264655Y-42864490D01*
X81260794Y-42862367D01*
X81257387Y-42859569D01*
X81189169Y-42822991D01*
X81121302Y-42785681D01*
X81117098Y-42784347D01*
X81113216Y-42782266D01*
X81039158Y-42759623D01*
X80965372Y-42736217D01*
X80960997Y-42735726D01*
X80956777Y-42734436D01*
X80879721Y-42726610D01*
X80802803Y-42717982D01*
X80794179Y-42717922D01*
X80794026Y-42717906D01*
X80793883Y-42717920D01*
X80791100Y-42717900D01*
X80044253Y-42717900D01*
X79993004Y-42683332D01*
X79814495Y-42608294D01*
X79624811Y-42569357D01*
X79431176Y-42568005D01*
X79240967Y-42604290D01*
X79061428Y-42676828D01*
X78899397Y-42782858D01*
X78761048Y-42918340D01*
X78651648Y-43078115D01*
X78575365Y-43256095D01*
X78535105Y-43445503D01*
X78532402Y-43639123D01*
X78567357Y-43829581D01*
X78638641Y-44009623D01*
X78743537Y-44172389D01*
X78878050Y-44311682D01*
X79037056Y-44422194D01*
X79214500Y-44499717D01*
X79403622Y-44541299D01*
X79597219Y-44545354D01*
X79787916Y-44511729D01*
X79968451Y-44441704D01*
X80043148Y-44394300D01*
X80443906Y-44394300D01*
X80872634Y-44823028D01*
X78146100Y-44823028D01*
X78044979Y-44831092D01*
X77873466Y-44884206D01*
X77723541Y-44983000D01*
X77607075Y-45119650D01*
X77533290Y-45283337D01*
X77508028Y-45461100D01*
X77508028Y-50541100D01*
X77516092Y-50642221D01*
X77569206Y-50813734D01*
X77668000Y-50963659D01*
X77678843Y-50972900D01*
X70152326Y-50972900D01*
X70179337Y-50945889D01*
X70248830Y-50841885D01*
X70296697Y-50726323D01*
X70321100Y-50603642D01*
X70321100Y-48286850D01*
X70162350Y-48128100D01*
X68418100Y-48128100D01*
X68418100Y-51017350D01*
X68576850Y-51176100D01*
X68599158Y-51176100D01*
X68491648Y-51333115D01*
X68415365Y-51511095D01*
X68375105Y-51700503D01*
X68372402Y-51894123D01*
X68389797Y-51988900D01*
X60564294Y-51988900D01*
X59528574Y-50953180D01*
X59515931Y-50889329D01*
X59442141Y-50710301D01*
X59334983Y-50549014D01*
X59198538Y-50411614D01*
X59051596Y-50312500D01*
X59201100Y-50312500D01*
X59403376Y-50292667D01*
X59597947Y-50233922D01*
X59777402Y-50138504D01*
X59934906Y-50010047D01*
X60064460Y-49853443D01*
X60161128Y-49674659D01*
X60221230Y-49480503D01*
X60242475Y-49278370D01*
X60224054Y-49075961D01*
X60166669Y-48880985D01*
X60072506Y-48700868D01*
X59945152Y-48542471D01*
X59789457Y-48411827D01*
X59611351Y-48313912D01*
X59526041Y-48286850D01*
X66261100Y-48286850D01*
X66261100Y-50603642D01*
X66285503Y-50726323D01*
X66333370Y-50841885D01*
X66402863Y-50945889D01*
X66491311Y-51034337D01*
X66595315Y-51103830D01*
X66710877Y-51151697D01*
X66833558Y-51176100D01*
X68005350Y-51176100D01*
X68164100Y-51017350D01*
X68164100Y-48128100D01*
X66419850Y-48128100D01*
X66261100Y-48286850D01*
X59526041Y-48286850D01*
X59417619Y-48252457D01*
X59215640Y-48229802D01*
X59201100Y-48229700D01*
X58814172Y-48229700D01*
X58814172Y-45461100D01*
X58809185Y-45398558D01*
X66261100Y-45398558D01*
X66261100Y-47715350D01*
X66419850Y-47874100D01*
X68164100Y-47874100D01*
X68164100Y-44984850D01*
X68418100Y-44984850D01*
X68418100Y-47874100D01*
X70162350Y-47874100D01*
X70321100Y-47715350D01*
X70321100Y-45398558D01*
X70296697Y-45275877D01*
X70248830Y-45160315D01*
X70179337Y-45056311D01*
X70090889Y-44967863D01*
X69986885Y-44898370D01*
X69871323Y-44850503D01*
X69748642Y-44826100D01*
X68576850Y-44826100D01*
X68418100Y-44984850D01*
X68164100Y-44984850D01*
X68005350Y-44826100D01*
X66833558Y-44826100D01*
X66710877Y-44850503D01*
X66595315Y-44898370D01*
X66491311Y-44967863D01*
X66402863Y-45056311D01*
X66333370Y-45160315D01*
X66285503Y-45275877D01*
X66261100Y-45398558D01*
X58809185Y-45398558D01*
X58806108Y-45359979D01*
X58752994Y-45188466D01*
X58654200Y-45038541D01*
X58517550Y-44922075D01*
X58353863Y-44848290D01*
X58176100Y-44823028D01*
X57495790Y-44823028D01*
X56762481Y-44089719D01*
X56605426Y-43960712D01*
X56426305Y-43864669D01*
X56231940Y-43805246D01*
X56029735Y-43784706D01*
X55827391Y-43803834D01*
X55632617Y-43861898D01*
X55452829Y-43956689D01*
X55294877Y-44084596D01*
X55164778Y-44240746D01*
X55067487Y-44419193D01*
X55006708Y-44613138D01*
X54984757Y-44815194D01*
X54997481Y-44960635D01*
X54963541Y-44983000D01*
X54847075Y-45119650D01*
X54773290Y-45283337D01*
X54748028Y-45461100D01*
X54748028Y-50541100D01*
X54756092Y-50642221D01*
X54809206Y-50813734D01*
X54908000Y-50963659D01*
X55044650Y-51080125D01*
X55208337Y-51153910D01*
X55386100Y-51179172D01*
X55673518Y-51179172D01*
X55672402Y-51259123D01*
X55707357Y-51449581D01*
X55778641Y-51629623D01*
X55883537Y-51792389D01*
X56018050Y-51931682D01*
X56177056Y-52042194D01*
X56354500Y-52119717D01*
X56543622Y-52161299D01*
X56737219Y-52165354D01*
X56927916Y-52131729D01*
X57108451Y-52061704D01*
X57271946Y-51957947D01*
X57412174Y-51824410D01*
X57523794Y-51666178D01*
X57602554Y-51489280D01*
X57612007Y-51447673D01*
X57612357Y-51449581D01*
X57683641Y-51629623D01*
X57788537Y-51792389D01*
X57923050Y-51931682D01*
X58082056Y-52042194D01*
X58259500Y-52119717D01*
X58342592Y-52137986D01*
X59624403Y-53419797D01*
X59684268Y-53468971D01*
X59743545Y-53518710D01*
X59747403Y-53520831D01*
X59750813Y-53523632D01*
X59819104Y-53560249D01*
X59886898Y-53597519D01*
X59891098Y-53598851D01*
X59894984Y-53600935D01*
X59969075Y-53623587D01*
X60042828Y-53646983D01*
X60047204Y-53647474D01*
X60051424Y-53648764D01*
X60128519Y-53656595D01*
X60205397Y-53665218D01*
X60214010Y-53665278D01*
X60214174Y-53665295D01*
X60214327Y-53665281D01*
X60217100Y-53665300D01*
X76456922Y-53665300D01*
X76497056Y-53693194D01*
X76674500Y-53770717D01*
X76863622Y-53812299D01*
X77057219Y-53816354D01*
X77247916Y-53782729D01*
X77428451Y-53712704D01*
X77591946Y-53608947D01*
X77732174Y-53475410D01*
X77843794Y-53317178D01*
X77922554Y-53140280D01*
X77965454Y-52951453D01*
X77968543Y-52730280D01*
X77964508Y-52709902D01*
X78928403Y-53673797D01*
X79054812Y-53777631D01*
X79198984Y-53854934D01*
X79285960Y-53881526D01*
X79227719Y-54106375D01*
X79210016Y-54416077D01*
X79253073Y-54723284D01*
X79355235Y-55016186D01*
X79440377Y-55175477D01*
X79698622Y-55263970D01*
X79672592Y-55290000D01*
X40710000Y-55290000D01*
X40710000Y-48084123D01*
X45512402Y-48084123D01*
X45547357Y-48274581D01*
X45618641Y-48454623D01*
X45723537Y-48617389D01*
X45858050Y-48756682D01*
X46017056Y-48867194D01*
X46194500Y-48944717D01*
X46383622Y-48986299D01*
X46577219Y-48990354D01*
X46767916Y-48956729D01*
X46808726Y-48940900D01*
X47946137Y-48940900D01*
X47841644Y-49009278D01*
X47574725Y-49270665D01*
X47363659Y-49578919D01*
X47216486Y-49922298D01*
X47138813Y-50287724D01*
X47133596Y-50661278D01*
X47201037Y-51028730D01*
X47338564Y-51376085D01*
X47540941Y-51690112D01*
X47800458Y-51958850D01*
X48107231Y-52172062D01*
X48449574Y-52321629D01*
X48814449Y-52401851D01*
X49187957Y-52409675D01*
X49555871Y-52344802D01*
X49904177Y-52209703D01*
X50219610Y-52009524D01*
X50490153Y-51751889D01*
X50705502Y-51446612D01*
X50857455Y-51105321D01*
X50940223Y-50741015D01*
X50946181Y-50314305D01*
X50873617Y-49947830D01*
X50731253Y-49602430D01*
X50524512Y-49291259D01*
X50261268Y-49026170D01*
X50134850Y-48940900D01*
X50311100Y-48940900D01*
X50397510Y-48932428D01*
X50483978Y-48924863D01*
X50488724Y-48923484D01*
X50493641Y-48923002D01*
X50576727Y-48897916D01*
X50660111Y-48873691D01*
X50664499Y-48871416D01*
X50669230Y-48869988D01*
X50745873Y-48829236D01*
X50822952Y-48789282D01*
X50826815Y-48786199D01*
X50831177Y-48783879D01*
X50898454Y-48729010D01*
X50966295Y-48674853D01*
X50973172Y-48668071D01*
X50973315Y-48667955D01*
X50973424Y-48667823D01*
X50975639Y-48665639D01*
X52022117Y-47619161D01*
X52028451Y-47616704D01*
X52191946Y-47512947D01*
X52332174Y-47379410D01*
X52443794Y-47221178D01*
X52522554Y-47044280D01*
X52565454Y-46855453D01*
X52568543Y-46634280D01*
X52530931Y-46444329D01*
X52457141Y-46265301D01*
X52349983Y-46104014D01*
X52213538Y-45966614D01*
X52053004Y-45858332D01*
X51874495Y-45783294D01*
X51684811Y-45744357D01*
X51491176Y-45743005D01*
X51300967Y-45779290D01*
X51121428Y-45851828D01*
X50959397Y-45957858D01*
X50871374Y-46044057D01*
X50940223Y-45741015D01*
X50946181Y-45314305D01*
X50873617Y-44947830D01*
X50731253Y-44602430D01*
X50524512Y-44291259D01*
X50261268Y-44026170D01*
X49951548Y-43817262D01*
X49607149Y-43672490D01*
X49241190Y-43597369D01*
X48867610Y-43594761D01*
X48500637Y-43664765D01*
X48154251Y-43804714D01*
X47841644Y-44009278D01*
X47574725Y-44270665D01*
X47363659Y-44578919D01*
X47216486Y-44922298D01*
X47138813Y-45287724D01*
X47133596Y-45661278D01*
X47201037Y-46028730D01*
X47338564Y-46376085D01*
X47540941Y-46690112D01*
X47800458Y-46958850D01*
X47947865Y-47061300D01*
X46813541Y-47061300D01*
X46794495Y-47053294D01*
X46604811Y-47014357D01*
X46411176Y-47013005D01*
X46220967Y-47049290D01*
X46041428Y-47121828D01*
X45879397Y-47227858D01*
X45741048Y-47363340D01*
X45631648Y-47523115D01*
X45555365Y-47701095D01*
X45515105Y-47890503D01*
X45512402Y-48084123D01*
X40710000Y-48084123D01*
X40710000Y-40710000D01*
X164334704Y-40710000D01*
X179142517Y-48000000D01*
X179142517Y-48000000D01*
G37*
X179142517Y-48000000D02*
X164334704Y-55290000D01*
X87136060Y-55290000D01*
X87247006Y-55132723D01*
X87372620Y-54850589D01*
X87441042Y-54549430D01*
X87445968Y-54196683D01*
X87406465Y-53997178D01*
X87469500Y-54024717D01*
X87658622Y-54066299D01*
X87852219Y-54070354D01*
X88042916Y-54036729D01*
X88223451Y-53966704D01*
X88386946Y-53862947D01*
X88527174Y-53729410D01*
X88638794Y-53571178D01*
X88717554Y-53394280D01*
X88760454Y-53205453D01*
X88763543Y-52984280D01*
X88725931Y-52794329D01*
X88652141Y-52615301D01*
X88544983Y-52454014D01*
X88408538Y-52316614D01*
X88248004Y-52208332D01*
X88069495Y-52133294D01*
X87879811Y-52094357D01*
X87686176Y-52093005D01*
X87495967Y-52129290D01*
X87448972Y-52148277D01*
X87448972Y-50871300D01*
X87440908Y-50770179D01*
X87387794Y-50598666D01*
X87289000Y-50448741D01*
X87152350Y-50332275D01*
X86988663Y-50258490D01*
X86810900Y-50233228D01*
X84931300Y-50233228D01*
X84830179Y-50241292D01*
X84658666Y-50294406D01*
X84508741Y-50393200D01*
X84392275Y-50529850D01*
X84356669Y-50608839D01*
X84339772Y-50591824D01*
X84083737Y-50419127D01*
X83799034Y-50299448D01*
X83496508Y-50237349D01*
X83187681Y-50235193D01*
X82884317Y-50293062D01*
X82597971Y-50408754D01*
X82339550Y-50577860D01*
X82118896Y-50793940D01*
X82061637Y-50877564D01*
X82017388Y-50810964D01*
X81799772Y-50591824D01*
X81574172Y-50439656D01*
X81574172Y-50135190D01*
X81577056Y-50137194D01*
X81754500Y-50214717D01*
X81943622Y-50256299D01*
X82137219Y-50260354D01*
X82327916Y-50226729D01*
X82508451Y-50156704D01*
X82671946Y-50052947D01*
X82812174Y-49919410D01*
X82923794Y-49761178D01*
X83002554Y-49584280D01*
X83012007Y-49542673D01*
X83012357Y-49544581D01*
X83083641Y-49724623D01*
X83188537Y-49887389D01*
X83323050Y-50026682D01*
X83482056Y-50137194D01*
X83659500Y-50214717D01*
X83848622Y-50256299D01*
X84042219Y-50260354D01*
X84232916Y-50226729D01*
X84413451Y-50156704D01*
X84576946Y-50052947D01*
X84717174Y-49919410D01*
X84828794Y-49761178D01*
X84907554Y-49584280D01*
X84950454Y-49395453D01*
X84953543Y-49174280D01*
X84915931Y-48984329D01*
X84842141Y-48805301D01*
X84804300Y-48748345D01*
X84804300Y-46620901D01*
X84828794Y-46586178D01*
X84907554Y-46409280D01*
X84950454Y-46220453D01*
X84953543Y-45999280D01*
X84915931Y-45809329D01*
X84842141Y-45630301D01*
X84734983Y-45469014D01*
X84598538Y-45331614D01*
X84438004Y-45223332D01*
X84259495Y-45148294D01*
X84069811Y-45109357D01*
X83876176Y-45108005D01*
X83685967Y-45144290D01*
X83506428Y-45216828D01*
X83344397Y-45322858D01*
X83206048Y-45458340D01*
X83096648Y-45618115D01*
X83020365Y-45796095D01*
X82980105Y-45985503D01*
X82977402Y-46179123D01*
X83012357Y-46369581D01*
X83083641Y-46549623D01*
X83127900Y-46618299D01*
X83127900Y-48747473D01*
X83096648Y-48793115D01*
X83020365Y-48971095D01*
X83014124Y-49000456D01*
X83010931Y-48984329D01*
X82937141Y-48805301D01*
X82899300Y-48748345D01*
X82899300Y-44826100D01*
X82891741Y-44749006D01*
X82884996Y-44671912D01*
X82883767Y-44667683D01*
X82883337Y-44663293D01*
X82860946Y-44589130D01*
X82839356Y-44514819D01*
X82837328Y-44510906D01*
X82836054Y-44506687D01*
X82799699Y-44438312D01*
X82764074Y-44369584D01*
X82761325Y-44366141D01*
X82759255Y-44362247D01*
X82710308Y-44302233D01*
X82662014Y-44241736D01*
X82655962Y-44235598D01*
X82655862Y-44235476D01*
X82655749Y-44235382D01*
X82653797Y-44233403D01*
X81383797Y-42963403D01*
X81323959Y-42914252D01*
X81264655Y-42864490D01*
X81260794Y-42862367D01*
X81257387Y-42859569D01*
X81189169Y-42822991D01*
X81121302Y-42785681D01*
X81117098Y-42784347D01*
X81113216Y-42782266D01*
X81039158Y-42759623D01*
X80965372Y-42736217D01*
X80960997Y-42735726D01*
X80956777Y-42734436D01*
X80879721Y-42726610D01*
X80802803Y-42717982D01*
X80794179Y-42717922D01*
X80794026Y-42717906D01*
X80793883Y-42717920D01*
X80791100Y-42717900D01*
X80044253Y-42717900D01*
X79993004Y-42683332D01*
X79814495Y-42608294D01*
X79624811Y-42569357D01*
X79431176Y-42568005D01*
X79240967Y-42604290D01*
X79061428Y-42676828D01*
X78899397Y-42782858D01*
X78761048Y-42918340D01*
X78651648Y-43078115D01*
X78575365Y-43256095D01*
X78535105Y-43445503D01*
X78532402Y-43639123D01*
X78567357Y-43829581D01*
X78638641Y-44009623D01*
X78743537Y-44172389D01*
X78878050Y-44311682D01*
X79037056Y-44422194D01*
X79214500Y-44499717D01*
X79403622Y-44541299D01*
X79597219Y-44545354D01*
X79787916Y-44511729D01*
X79968451Y-44441704D01*
X80043148Y-44394300D01*
X80443906Y-44394300D01*
X80872634Y-44823028D01*
X78146100Y-44823028D01*
X78044979Y-44831092D01*
X77873466Y-44884206D01*
X77723541Y-44983000D01*
X77607075Y-45119650D01*
X77533290Y-45283337D01*
X77508028Y-45461100D01*
X77508028Y-50541100D01*
X77516092Y-50642221D01*
X77569206Y-50813734D01*
X77668000Y-50963659D01*
X77678843Y-50972900D01*
X70152326Y-50972900D01*
X70179337Y-50945889D01*
X70248830Y-50841885D01*
X70296697Y-50726323D01*
X70321100Y-50603642D01*
X70321100Y-48286850D01*
X70162350Y-48128100D01*
X68418100Y-48128100D01*
X68418100Y-51017350D01*
X68576850Y-51176100D01*
X68599158Y-51176100D01*
X68491648Y-51333115D01*
X68415365Y-51511095D01*
X68375105Y-51700503D01*
X68372402Y-51894123D01*
X68389797Y-51988900D01*
X60564294Y-51988900D01*
X59528574Y-50953180D01*
X59515931Y-50889329D01*
X59442141Y-50710301D01*
X59334983Y-50549014D01*
X59198538Y-50411614D01*
X59051596Y-50312500D01*
X59201100Y-50312500D01*
X59403376Y-50292667D01*
X59597947Y-50233922D01*
X59777402Y-50138504D01*
X59934906Y-50010047D01*
X60064460Y-49853443D01*
X60161128Y-49674659D01*
X60221230Y-49480503D01*
X60242475Y-49278370D01*
X60224054Y-49075961D01*
X60166669Y-48880985D01*
X60072506Y-48700868D01*
X59945152Y-48542471D01*
X59789457Y-48411827D01*
X59611351Y-48313912D01*
X59526041Y-48286850D01*
X66261100Y-48286850D01*
X66261100Y-50603642D01*
X66285503Y-50726323D01*
X66333370Y-50841885D01*
X66402863Y-50945889D01*
X66491311Y-51034337D01*
X66595315Y-51103830D01*
X66710877Y-51151697D01*
X66833558Y-51176100D01*
X68005350Y-51176100D01*
X68164100Y-51017350D01*
X68164100Y-48128100D01*
X66419850Y-48128100D01*
X66261100Y-48286850D01*
X59526041Y-48286850D01*
X59417619Y-48252457D01*
X59215640Y-48229802D01*
X59201100Y-48229700D01*
X58814172Y-48229700D01*
X58814172Y-45461100D01*
X58809185Y-45398558D01*
X66261100Y-45398558D01*
X66261100Y-47715350D01*
X66419850Y-47874100D01*
X68164100Y-47874100D01*
X68164100Y-44984850D01*
X68418100Y-44984850D01*
X68418100Y-47874100D01*
X70162350Y-47874100D01*
X70321100Y-47715350D01*
X70321100Y-45398558D01*
X70296697Y-45275877D01*
X70248830Y-45160315D01*
X70179337Y-45056311D01*
X70090889Y-44967863D01*
X69986885Y-44898370D01*
X69871323Y-44850503D01*
X69748642Y-44826100D01*
X68576850Y-44826100D01*
X68418100Y-44984850D01*
X68164100Y-44984850D01*
X68005350Y-44826100D01*
X66833558Y-44826100D01*
X66710877Y-44850503D01*
X66595315Y-44898370D01*
X66491311Y-44967863D01*
X66402863Y-45056311D01*
X66333370Y-45160315D01*
X66285503Y-45275877D01*
X66261100Y-45398558D01*
X58809185Y-45398558D01*
X58806108Y-45359979D01*
X58752994Y-45188466D01*
X58654200Y-45038541D01*
X58517550Y-44922075D01*
X58353863Y-44848290D01*
X58176100Y-44823028D01*
X57495790Y-44823028D01*
X56762481Y-44089719D01*
X56605426Y-43960712D01*
X56426305Y-43864669D01*
X56231940Y-43805246D01*
X56029735Y-43784706D01*
X55827391Y-43803834D01*
X55632617Y-43861898D01*
X55452829Y-43956689D01*
X55294877Y-44084596D01*
X55164778Y-44240746D01*
X55067487Y-44419193D01*
X55006708Y-44613138D01*
X54984757Y-44815194D01*
X54997481Y-44960635D01*
X54963541Y-44983000D01*
X54847075Y-45119650D01*
X54773290Y-45283337D01*
X54748028Y-45461100D01*
X54748028Y-50541100D01*
X54756092Y-50642221D01*
X54809206Y-50813734D01*
X54908000Y-50963659D01*
X55044650Y-51080125D01*
X55208337Y-51153910D01*
X55386100Y-51179172D01*
X55673518Y-51179172D01*
X55672402Y-51259123D01*
X55707357Y-51449581D01*
X55778641Y-51629623D01*
X55883537Y-51792389D01*
X56018050Y-51931682D01*
X56177056Y-52042194D01*
X56354500Y-52119717D01*
X56543622Y-52161299D01*
X56737219Y-52165354D01*
X56927916Y-52131729D01*
X57108451Y-52061704D01*
X57271946Y-51957947D01*
X57412174Y-51824410D01*
X57523794Y-51666178D01*
X57602554Y-51489280D01*
X57612007Y-51447673D01*
X57612357Y-51449581D01*
X57683641Y-51629623D01*
X57788537Y-51792389D01*
X57923050Y-51931682D01*
X58082056Y-52042194D01*
X58259500Y-52119717D01*
X58342592Y-52137986D01*
X59624403Y-53419797D01*
X59684268Y-53468971D01*
X59743545Y-53518710D01*
X59747403Y-53520831D01*
X59750813Y-53523632D01*
X59819104Y-53560249D01*
X59886898Y-53597519D01*
X59891098Y-53598851D01*
X59894984Y-53600935D01*
X59969075Y-53623587D01*
X60042828Y-53646983D01*
X60047204Y-53647474D01*
X60051424Y-53648764D01*
X60128519Y-53656595D01*
X60205397Y-53665218D01*
X60214010Y-53665278D01*
X60214174Y-53665295D01*
X60214327Y-53665281D01*
X60217100Y-53665300D01*
X76456922Y-53665300D01*
X76497056Y-53693194D01*
X76674500Y-53770717D01*
X76863622Y-53812299D01*
X77057219Y-53816354D01*
X77247916Y-53782729D01*
X77428451Y-53712704D01*
X77591946Y-53608947D01*
X77732174Y-53475410D01*
X77843794Y-53317178D01*
X77922554Y-53140280D01*
X77965454Y-52951453D01*
X77968543Y-52730280D01*
X77964508Y-52709902D01*
X78928403Y-53673797D01*
X79054812Y-53777631D01*
X79198984Y-53854934D01*
X79285960Y-53881526D01*
X79227719Y-54106375D01*
X79210016Y-54416077D01*
X79253073Y-54723284D01*
X79355235Y-55016186D01*
X79440377Y-55175477D01*
X79698622Y-55263970D01*
X79672592Y-55290000D01*
X40710000Y-55290000D01*
X40710000Y-48084123D01*
X45512402Y-48084123D01*
X45547357Y-48274581D01*
X45618641Y-48454623D01*
X45723537Y-48617389D01*
X45858050Y-48756682D01*
X46017056Y-48867194D01*
X46194500Y-48944717D01*
X46383622Y-48986299D01*
X46577219Y-48990354D01*
X46767916Y-48956729D01*
X46808726Y-48940900D01*
X47946137Y-48940900D01*
X47841644Y-49009278D01*
X47574725Y-49270665D01*
X47363659Y-49578919D01*
X47216486Y-49922298D01*
X47138813Y-50287724D01*
X47133596Y-50661278D01*
X47201037Y-51028730D01*
X47338564Y-51376085D01*
X47540941Y-51690112D01*
X47800458Y-51958850D01*
X48107231Y-52172062D01*
X48449574Y-52321629D01*
X48814449Y-52401851D01*
X49187957Y-52409675D01*
X49555871Y-52344802D01*
X49904177Y-52209703D01*
X50219610Y-52009524D01*
X50490153Y-51751889D01*
X50705502Y-51446612D01*
X50857455Y-51105321D01*
X50940223Y-50741015D01*
X50946181Y-50314305D01*
X50873617Y-49947830D01*
X50731253Y-49602430D01*
X50524512Y-49291259D01*
X50261268Y-49026170D01*
X50134850Y-48940900D01*
X50311100Y-48940900D01*
X50397510Y-48932428D01*
X50483978Y-48924863D01*
X50488724Y-48923484D01*
X50493641Y-48923002D01*
X50576727Y-48897916D01*
X50660111Y-48873691D01*
X50664499Y-48871416D01*
X50669230Y-48869988D01*
X50745873Y-48829236D01*
X50822952Y-48789282D01*
X50826815Y-48786199D01*
X50831177Y-48783879D01*
X50898454Y-48729010D01*
X50966295Y-48674853D01*
X50973172Y-48668071D01*
X50973315Y-48667955D01*
X50973424Y-48667823D01*
X50975639Y-48665639D01*
X52022117Y-47619161D01*
X52028451Y-47616704D01*
X52191946Y-47512947D01*
X52332174Y-47379410D01*
X52443794Y-47221178D01*
X52522554Y-47044280D01*
X52565454Y-46855453D01*
X52568543Y-46634280D01*
X52530931Y-46444329D01*
X52457141Y-46265301D01*
X52349983Y-46104014D01*
X52213538Y-45966614D01*
X52053004Y-45858332D01*
X51874495Y-45783294D01*
X51684811Y-45744357D01*
X51491176Y-45743005D01*
X51300967Y-45779290D01*
X51121428Y-45851828D01*
X50959397Y-45957858D01*
X50871374Y-46044057D01*
X50940223Y-45741015D01*
X50946181Y-45314305D01*
X50873617Y-44947830D01*
X50731253Y-44602430D01*
X50524512Y-44291259D01*
X50261268Y-44026170D01*
X49951548Y-43817262D01*
X49607149Y-43672490D01*
X49241190Y-43597369D01*
X48867610Y-43594761D01*
X48500637Y-43664765D01*
X48154251Y-43804714D01*
X47841644Y-44009278D01*
X47574725Y-44270665D01*
X47363659Y-44578919D01*
X47216486Y-44922298D01*
X47138813Y-45287724D01*
X47133596Y-45661278D01*
X47201037Y-46028730D01*
X47338564Y-46376085D01*
X47540941Y-46690112D01*
X47800458Y-46958850D01*
X47947865Y-47061300D01*
X46813541Y-47061300D01*
X46794495Y-47053294D01*
X46604811Y-47014357D01*
X46411176Y-47013005D01*
X46220967Y-47049290D01*
X46041428Y-47121828D01*
X45879397Y-47227858D01*
X45741048Y-47363340D01*
X45631648Y-47523115D01*
X45555365Y-47701095D01*
X45515105Y-47890503D01*
X45512402Y-48084123D01*
X40710000Y-48084123D01*
X40710000Y-40710000D01*
X164334704Y-40710000D01*
X179142517Y-48000000D01*
G36*
X80984848Y-54336958D02*
X80970705Y-54351100D01*
X80984848Y-54365243D01*
X80805243Y-54544848D01*
X80791100Y-54530705D01*
X80776958Y-54544848D01*
X80597353Y-54365243D01*
X80611495Y-54351100D01*
X80597353Y-54336958D01*
X80776958Y-54157353D01*
X80791100Y-54171495D01*
X80805243Y-54157353D01*
X80984848Y-54336958D01*
X80984848Y-54336958D01*
G37*
X80984848Y-54336958D02*
X80970705Y-54351100D01*
X80984848Y-54365243D01*
X80805243Y-54544848D01*
X80791100Y-54530705D01*
X80776958Y-54544848D01*
X80597353Y-54365243D01*
X80611495Y-54351100D01*
X80597353Y-54336958D01*
X80776958Y-54157353D01*
X80791100Y-54171495D01*
X80805243Y-54157353D01*
X80984848Y-54336958D01*
G36*
X179142517Y-64000000D02*
X164334704Y-71290000D01*
X87136060Y-71290000D01*
X87247006Y-71132723D01*
X87372620Y-70850589D01*
X87441042Y-70549430D01*
X87445968Y-70196683D01*
X87406465Y-69997178D01*
X87469500Y-70024717D01*
X87658622Y-70066299D01*
X87852219Y-70070354D01*
X88042916Y-70036729D01*
X88223451Y-69966704D01*
X88386946Y-69862947D01*
X88527174Y-69729410D01*
X88638794Y-69571178D01*
X88717554Y-69394280D01*
X88760454Y-69205453D01*
X88763543Y-68984280D01*
X88725931Y-68794329D01*
X88652141Y-68615301D01*
X88544983Y-68454014D01*
X88408538Y-68316614D01*
X88248004Y-68208332D01*
X88069495Y-68133294D01*
X87879811Y-68094357D01*
X87686176Y-68093005D01*
X87495967Y-68129290D01*
X87448972Y-68148277D01*
X87448972Y-66871300D01*
X87440908Y-66770179D01*
X87387794Y-66598666D01*
X87289000Y-66448741D01*
X87152350Y-66332275D01*
X86988663Y-66258490D01*
X86810900Y-66233228D01*
X84931300Y-66233228D01*
X84830179Y-66241292D01*
X84658666Y-66294406D01*
X84508741Y-66393200D01*
X84392275Y-66529850D01*
X84356669Y-66608839D01*
X84339772Y-66591824D01*
X84083737Y-66419127D01*
X83799034Y-66299448D01*
X83496508Y-66237349D01*
X83187681Y-66235193D01*
X82884317Y-66293062D01*
X82597971Y-66408754D01*
X82339550Y-66577860D01*
X82118896Y-66793940D01*
X82061637Y-66877564D01*
X82017388Y-66810964D01*
X81799772Y-66591824D01*
X81574172Y-66439656D01*
X81574172Y-66135190D01*
X81577056Y-66137194D01*
X81754500Y-66214717D01*
X81943622Y-66256299D01*
X82137219Y-66260354D01*
X82327916Y-66226729D01*
X82508451Y-66156704D01*
X82671946Y-66052947D01*
X82812174Y-65919410D01*
X82923794Y-65761178D01*
X83002554Y-65584280D01*
X83012007Y-65542673D01*
X83012357Y-65544581D01*
X83083641Y-65724623D01*
X83188537Y-65887389D01*
X83323050Y-66026682D01*
X83482056Y-66137194D01*
X83659500Y-66214717D01*
X83848622Y-66256299D01*
X84042219Y-66260354D01*
X84232916Y-66226729D01*
X84413451Y-66156704D01*
X84576946Y-66052947D01*
X84717174Y-65919410D01*
X84828794Y-65761178D01*
X84907554Y-65584280D01*
X84950454Y-65395453D01*
X84953543Y-65174280D01*
X84915931Y-64984329D01*
X84842141Y-64805301D01*
X84804300Y-64748345D01*
X84804300Y-62620901D01*
X84828794Y-62586178D01*
X84907554Y-62409280D01*
X84950454Y-62220453D01*
X84953543Y-61999280D01*
X84915931Y-61809329D01*
X84842141Y-61630301D01*
X84734983Y-61469014D01*
X84598538Y-61331614D01*
X84438004Y-61223332D01*
X84259495Y-61148294D01*
X84069811Y-61109357D01*
X83876176Y-61108005D01*
X83685967Y-61144290D01*
X83506428Y-61216828D01*
X83344397Y-61322858D01*
X83206048Y-61458340D01*
X83096648Y-61618115D01*
X83020365Y-61796095D01*
X82980105Y-61985503D01*
X82977402Y-62179123D01*
X83012357Y-62369581D01*
X83083641Y-62549623D01*
X83127900Y-62618299D01*
X83127900Y-64747473D01*
X83096648Y-64793115D01*
X83020365Y-64971095D01*
X83014124Y-65000456D01*
X83010931Y-64984329D01*
X82937141Y-64805301D01*
X82899300Y-64748345D01*
X82899300Y-60826100D01*
X82891741Y-60749006D01*
X82884996Y-60671912D01*
X82883767Y-60667683D01*
X82883337Y-60663293D01*
X82860946Y-60589130D01*
X82839356Y-60514819D01*
X82837328Y-60510906D01*
X82836054Y-60506687D01*
X82799699Y-60438312D01*
X82764074Y-60369584D01*
X82761325Y-60366141D01*
X82759255Y-60362247D01*
X82710308Y-60302233D01*
X82662014Y-60241736D01*
X82655962Y-60235598D01*
X82655862Y-60235476D01*
X82655749Y-60235382D01*
X82653797Y-60233403D01*
X81383797Y-58963403D01*
X81323959Y-58914252D01*
X81264655Y-58864490D01*
X81260794Y-58862367D01*
X81257387Y-58859569D01*
X81189169Y-58822991D01*
X81121302Y-58785681D01*
X81117098Y-58784347D01*
X81113216Y-58782266D01*
X81039158Y-58759623D01*
X80965372Y-58736217D01*
X80960997Y-58735726D01*
X80956777Y-58734436D01*
X80879721Y-58726610D01*
X80802803Y-58717982D01*
X80794179Y-58717922D01*
X80794026Y-58717906D01*
X80793883Y-58717920D01*
X80791100Y-58717900D01*
X80044253Y-58717900D01*
X79993004Y-58683332D01*
X79814495Y-58608294D01*
X79624811Y-58569357D01*
X79431176Y-58568005D01*
X79240967Y-58604290D01*
X79061428Y-58676828D01*
X78899397Y-58782858D01*
X78761048Y-58918340D01*
X78651648Y-59078115D01*
X78575365Y-59256095D01*
X78535105Y-59445503D01*
X78532402Y-59639123D01*
X78567357Y-59829581D01*
X78638641Y-60009623D01*
X78743537Y-60172389D01*
X78878050Y-60311682D01*
X79037056Y-60422194D01*
X79214500Y-60499717D01*
X79403622Y-60541299D01*
X79597219Y-60545354D01*
X79787916Y-60511729D01*
X79968451Y-60441704D01*
X80043148Y-60394300D01*
X80443906Y-60394300D01*
X80872634Y-60823028D01*
X78146100Y-60823028D01*
X78044979Y-60831092D01*
X77873466Y-60884206D01*
X77723541Y-60983000D01*
X77607075Y-61119650D01*
X77533290Y-61283337D01*
X77508028Y-61461100D01*
X77508028Y-66541100D01*
X77516092Y-66642221D01*
X77569206Y-66813734D01*
X77668000Y-66963659D01*
X77678843Y-66972900D01*
X70152326Y-66972900D01*
X70179337Y-66945889D01*
X70248830Y-66841885D01*
X70296697Y-66726323D01*
X70321100Y-66603642D01*
X70321100Y-64286850D01*
X70162350Y-64128100D01*
X68418100Y-64128100D01*
X68418100Y-67017350D01*
X68576850Y-67176100D01*
X68599158Y-67176100D01*
X68491648Y-67333115D01*
X68415365Y-67511095D01*
X68375105Y-67700503D01*
X68372402Y-67894123D01*
X68389797Y-67988900D01*
X60564294Y-67988900D01*
X59528574Y-66953180D01*
X59515931Y-66889329D01*
X59442141Y-66710301D01*
X59334983Y-66549014D01*
X59198538Y-66411614D01*
X59051596Y-66312500D01*
X59201100Y-66312500D01*
X59403376Y-66292667D01*
X59597947Y-66233922D01*
X59777402Y-66138504D01*
X59934906Y-66010047D01*
X60064460Y-65853443D01*
X60161128Y-65674659D01*
X60221230Y-65480503D01*
X60242475Y-65278370D01*
X60224054Y-65075961D01*
X60166669Y-64880985D01*
X60072506Y-64700868D01*
X59945152Y-64542471D01*
X59789457Y-64411827D01*
X59611351Y-64313912D01*
X59526041Y-64286850D01*
X66261100Y-64286850D01*
X66261100Y-66603642D01*
X66285503Y-66726323D01*
X66333370Y-66841885D01*
X66402863Y-66945889D01*
X66491311Y-67034337D01*
X66595315Y-67103830D01*
X66710877Y-67151697D01*
X66833558Y-67176100D01*
X68005350Y-67176100D01*
X68164100Y-67017350D01*
X68164100Y-64128100D01*
X66419850Y-64128100D01*
X66261100Y-64286850D01*
X59526041Y-64286850D01*
X59417619Y-64252457D01*
X59215640Y-64229802D01*
X59201100Y-64229700D01*
X58814172Y-64229700D01*
X58814172Y-61461100D01*
X58809185Y-61398558D01*
X66261100Y-61398558D01*
X66261100Y-63715350D01*
X66419850Y-63874100D01*
X68164100Y-63874100D01*
X68164100Y-60984850D01*
X68418100Y-60984850D01*
X68418100Y-63874100D01*
X70162350Y-63874100D01*
X70321100Y-63715350D01*
X70321100Y-61398558D01*
X70296697Y-61275877D01*
X70248830Y-61160315D01*
X70179337Y-61056311D01*
X70090889Y-60967863D01*
X69986885Y-60898370D01*
X69871323Y-60850503D01*
X69748642Y-60826100D01*
X68576850Y-60826100D01*
X68418100Y-60984850D01*
X68164100Y-60984850D01*
X68005350Y-60826100D01*
X66833558Y-60826100D01*
X66710877Y-60850503D01*
X66595315Y-60898370D01*
X66491311Y-60967863D01*
X66402863Y-61056311D01*
X66333370Y-61160315D01*
X66285503Y-61275877D01*
X66261100Y-61398558D01*
X58809185Y-61398558D01*
X58806108Y-61359979D01*
X58752994Y-61188466D01*
X58654200Y-61038541D01*
X58517550Y-60922075D01*
X58353863Y-60848290D01*
X58176100Y-60823028D01*
X57495790Y-60823028D01*
X56762481Y-60089719D01*
X56605426Y-59960712D01*
X56426305Y-59864669D01*
X56231940Y-59805246D01*
X56029735Y-59784706D01*
X55827391Y-59803834D01*
X55632617Y-59861898D01*
X55452829Y-59956689D01*
X55294877Y-60084596D01*
X55164778Y-60240746D01*
X55067487Y-60419193D01*
X55006708Y-60613138D01*
X54984757Y-60815194D01*
X54997481Y-60960635D01*
X54963541Y-60983000D01*
X54847075Y-61119650D01*
X54773290Y-61283337D01*
X54748028Y-61461100D01*
X54748028Y-66541100D01*
X54756092Y-66642221D01*
X54809206Y-66813734D01*
X54908000Y-66963659D01*
X55044650Y-67080125D01*
X55208337Y-67153910D01*
X55386100Y-67179172D01*
X55673518Y-67179172D01*
X55672402Y-67259123D01*
X55707357Y-67449581D01*
X55778641Y-67629623D01*
X55883537Y-67792389D01*
X56018050Y-67931682D01*
X56177056Y-68042194D01*
X56354500Y-68119717D01*
X56543622Y-68161299D01*
X56737219Y-68165354D01*
X56927916Y-68131729D01*
X57108451Y-68061704D01*
X57271946Y-67957947D01*
X57412174Y-67824410D01*
X57523794Y-67666178D01*
X57602554Y-67489280D01*
X57612007Y-67447673D01*
X57612357Y-67449581D01*
X57683641Y-67629623D01*
X57788537Y-67792389D01*
X57923050Y-67931682D01*
X58082056Y-68042194D01*
X58259500Y-68119717D01*
X58342592Y-68137986D01*
X59624403Y-69419797D01*
X59684268Y-69468971D01*
X59743545Y-69518710D01*
X59747403Y-69520831D01*
X59750813Y-69523632D01*
X59819104Y-69560249D01*
X59886898Y-69597519D01*
X59891098Y-69598851D01*
X59894984Y-69600935D01*
X59969075Y-69623587D01*
X60042828Y-69646983D01*
X60047204Y-69647474D01*
X60051424Y-69648764D01*
X60128519Y-69656595D01*
X60205397Y-69665218D01*
X60214010Y-69665278D01*
X60214174Y-69665295D01*
X60214327Y-69665281D01*
X60217100Y-69665300D01*
X76456922Y-69665300D01*
X76497056Y-69693194D01*
X76674500Y-69770717D01*
X76863622Y-69812299D01*
X77057219Y-69816354D01*
X77247916Y-69782729D01*
X77428451Y-69712704D01*
X77591946Y-69608947D01*
X77732174Y-69475410D01*
X77843794Y-69317178D01*
X77922554Y-69140280D01*
X77965454Y-68951453D01*
X77968543Y-68730280D01*
X77964508Y-68709902D01*
X78928403Y-69673797D01*
X79054812Y-69777631D01*
X79198984Y-69854934D01*
X79285960Y-69881526D01*
X79227719Y-70106375D01*
X79210016Y-70416077D01*
X79253073Y-70723284D01*
X79355235Y-71016186D01*
X79440377Y-71175477D01*
X79698622Y-71263970D01*
X79672592Y-71290000D01*
X40710000Y-71290000D01*
X40710000Y-64084123D01*
X45512402Y-64084123D01*
X45547357Y-64274581D01*
X45618641Y-64454623D01*
X45723537Y-64617389D01*
X45858050Y-64756682D01*
X46017056Y-64867194D01*
X46194500Y-64944717D01*
X46383622Y-64986299D01*
X46577219Y-64990354D01*
X46767916Y-64956729D01*
X46808726Y-64940900D01*
X47946137Y-64940900D01*
X47841644Y-65009278D01*
X47574725Y-65270665D01*
X47363659Y-65578919D01*
X47216486Y-65922298D01*
X47138813Y-66287724D01*
X47133596Y-66661278D01*
X47201037Y-67028730D01*
X47338564Y-67376085D01*
X47540941Y-67690112D01*
X47800458Y-67958850D01*
X48107231Y-68172062D01*
X48449574Y-68321629D01*
X48814449Y-68401851D01*
X49187957Y-68409675D01*
X49555871Y-68344802D01*
X49904177Y-68209703D01*
X50219610Y-68009524D01*
X50490153Y-67751889D01*
X50705502Y-67446612D01*
X50857455Y-67105321D01*
X50940223Y-66741015D01*
X50946181Y-66314305D01*
X50873617Y-65947830D01*
X50731253Y-65602430D01*
X50524512Y-65291259D01*
X50261268Y-65026170D01*
X50134850Y-64940900D01*
X50311100Y-64940900D01*
X50397510Y-64932428D01*
X50483978Y-64924863D01*
X50488724Y-64923484D01*
X50493641Y-64923002D01*
X50576727Y-64897916D01*
X50660111Y-64873691D01*
X50664499Y-64871416D01*
X50669230Y-64869988D01*
X50745873Y-64829236D01*
X50822952Y-64789282D01*
X50826815Y-64786199D01*
X50831177Y-64783879D01*
X50898454Y-64729010D01*
X50966295Y-64674853D01*
X50973172Y-64668071D01*
X50973315Y-64667955D01*
X50973424Y-64667823D01*
X50975639Y-64665639D01*
X52022117Y-63619161D01*
X52028451Y-63616704D01*
X52191946Y-63512947D01*
X52332174Y-63379410D01*
X52443794Y-63221178D01*
X52522554Y-63044280D01*
X52565454Y-62855453D01*
X52568543Y-62634280D01*
X52530931Y-62444329D01*
X52457141Y-62265301D01*
X52349983Y-62104014D01*
X52213538Y-61966614D01*
X52053004Y-61858332D01*
X51874495Y-61783294D01*
X51684811Y-61744357D01*
X51491176Y-61743005D01*
X51300967Y-61779290D01*
X51121428Y-61851828D01*
X50959397Y-61957858D01*
X50871374Y-62044057D01*
X50940223Y-61741015D01*
X50946181Y-61314305D01*
X50873617Y-60947830D01*
X50731253Y-60602430D01*
X50524512Y-60291259D01*
X50261268Y-60026170D01*
X49951548Y-59817262D01*
X49607149Y-59672490D01*
X49241190Y-59597369D01*
X48867610Y-59594761D01*
X48500637Y-59664765D01*
X48154251Y-59804714D01*
X47841644Y-60009278D01*
X47574725Y-60270665D01*
X47363659Y-60578919D01*
X47216486Y-60922298D01*
X47138813Y-61287724D01*
X47133596Y-61661278D01*
X47201037Y-62028730D01*
X47338564Y-62376085D01*
X47540941Y-62690112D01*
X47800458Y-62958850D01*
X47947865Y-63061300D01*
X46813541Y-63061300D01*
X46794495Y-63053294D01*
X46604811Y-63014357D01*
X46411176Y-63013005D01*
X46220967Y-63049290D01*
X46041428Y-63121828D01*
X45879397Y-63227858D01*
X45741048Y-63363340D01*
X45631648Y-63523115D01*
X45555365Y-63701095D01*
X45515105Y-63890503D01*
X45512402Y-64084123D01*
X40710000Y-64084123D01*
X40710000Y-56710000D01*
X164334704Y-56710000D01*
X179142517Y-64000000D01*
X179142517Y-64000000D01*
G37*
X179142517Y-64000000D02*
X164334704Y-71290000D01*
X87136060Y-71290000D01*
X87247006Y-71132723D01*
X87372620Y-70850589D01*
X87441042Y-70549430D01*
X87445968Y-70196683D01*
X87406465Y-69997178D01*
X87469500Y-70024717D01*
X87658622Y-70066299D01*
X87852219Y-70070354D01*
X88042916Y-70036729D01*
X88223451Y-69966704D01*
X88386946Y-69862947D01*
X88527174Y-69729410D01*
X88638794Y-69571178D01*
X88717554Y-69394280D01*
X88760454Y-69205453D01*
X88763543Y-68984280D01*
X88725931Y-68794329D01*
X88652141Y-68615301D01*
X88544983Y-68454014D01*
X88408538Y-68316614D01*
X88248004Y-68208332D01*
X88069495Y-68133294D01*
X87879811Y-68094357D01*
X87686176Y-68093005D01*
X87495967Y-68129290D01*
X87448972Y-68148277D01*
X87448972Y-66871300D01*
X87440908Y-66770179D01*
X87387794Y-66598666D01*
X87289000Y-66448741D01*
X87152350Y-66332275D01*
X86988663Y-66258490D01*
X86810900Y-66233228D01*
X84931300Y-66233228D01*
X84830179Y-66241292D01*
X84658666Y-66294406D01*
X84508741Y-66393200D01*
X84392275Y-66529850D01*
X84356669Y-66608839D01*
X84339772Y-66591824D01*
X84083737Y-66419127D01*
X83799034Y-66299448D01*
X83496508Y-66237349D01*
X83187681Y-66235193D01*
X82884317Y-66293062D01*
X82597971Y-66408754D01*
X82339550Y-66577860D01*
X82118896Y-66793940D01*
X82061637Y-66877564D01*
X82017388Y-66810964D01*
X81799772Y-66591824D01*
X81574172Y-66439656D01*
X81574172Y-66135190D01*
X81577056Y-66137194D01*
X81754500Y-66214717D01*
X81943622Y-66256299D01*
X82137219Y-66260354D01*
X82327916Y-66226729D01*
X82508451Y-66156704D01*
X82671946Y-66052947D01*
X82812174Y-65919410D01*
X82923794Y-65761178D01*
X83002554Y-65584280D01*
X83012007Y-65542673D01*
X83012357Y-65544581D01*
X83083641Y-65724623D01*
X83188537Y-65887389D01*
X83323050Y-66026682D01*
X83482056Y-66137194D01*
X83659500Y-66214717D01*
X83848622Y-66256299D01*
X84042219Y-66260354D01*
X84232916Y-66226729D01*
X84413451Y-66156704D01*
X84576946Y-66052947D01*
X84717174Y-65919410D01*
X84828794Y-65761178D01*
X84907554Y-65584280D01*
X84950454Y-65395453D01*
X84953543Y-65174280D01*
X84915931Y-64984329D01*
X84842141Y-64805301D01*
X84804300Y-64748345D01*
X84804300Y-62620901D01*
X84828794Y-62586178D01*
X84907554Y-62409280D01*
X84950454Y-62220453D01*
X84953543Y-61999280D01*
X84915931Y-61809329D01*
X84842141Y-61630301D01*
X84734983Y-61469014D01*
X84598538Y-61331614D01*
X84438004Y-61223332D01*
X84259495Y-61148294D01*
X84069811Y-61109357D01*
X83876176Y-61108005D01*
X83685967Y-61144290D01*
X83506428Y-61216828D01*
X83344397Y-61322858D01*
X83206048Y-61458340D01*
X83096648Y-61618115D01*
X83020365Y-61796095D01*
X82980105Y-61985503D01*
X82977402Y-62179123D01*
X83012357Y-62369581D01*
X83083641Y-62549623D01*
X83127900Y-62618299D01*
X83127900Y-64747473D01*
X83096648Y-64793115D01*
X83020365Y-64971095D01*
X83014124Y-65000456D01*
X83010931Y-64984329D01*
X82937141Y-64805301D01*
X82899300Y-64748345D01*
X82899300Y-60826100D01*
X82891741Y-60749006D01*
X82884996Y-60671912D01*
X82883767Y-60667683D01*
X82883337Y-60663293D01*
X82860946Y-60589130D01*
X82839356Y-60514819D01*
X82837328Y-60510906D01*
X82836054Y-60506687D01*
X82799699Y-60438312D01*
X82764074Y-60369584D01*
X82761325Y-60366141D01*
X82759255Y-60362247D01*
X82710308Y-60302233D01*
X82662014Y-60241736D01*
X82655962Y-60235598D01*
X82655862Y-60235476D01*
X82655749Y-60235382D01*
X82653797Y-60233403D01*
X81383797Y-58963403D01*
X81323959Y-58914252D01*
X81264655Y-58864490D01*
X81260794Y-58862367D01*
X81257387Y-58859569D01*
X81189169Y-58822991D01*
X81121302Y-58785681D01*
X81117098Y-58784347D01*
X81113216Y-58782266D01*
X81039158Y-58759623D01*
X80965372Y-58736217D01*
X80960997Y-58735726D01*
X80956777Y-58734436D01*
X80879721Y-58726610D01*
X80802803Y-58717982D01*
X80794179Y-58717922D01*
X80794026Y-58717906D01*
X80793883Y-58717920D01*
X80791100Y-58717900D01*
X80044253Y-58717900D01*
X79993004Y-58683332D01*
X79814495Y-58608294D01*
X79624811Y-58569357D01*
X79431176Y-58568005D01*
X79240967Y-58604290D01*
X79061428Y-58676828D01*
X78899397Y-58782858D01*
X78761048Y-58918340D01*
X78651648Y-59078115D01*
X78575365Y-59256095D01*
X78535105Y-59445503D01*
X78532402Y-59639123D01*
X78567357Y-59829581D01*
X78638641Y-60009623D01*
X78743537Y-60172389D01*
X78878050Y-60311682D01*
X79037056Y-60422194D01*
X79214500Y-60499717D01*
X79403622Y-60541299D01*
X79597219Y-60545354D01*
X79787916Y-60511729D01*
X79968451Y-60441704D01*
X80043148Y-60394300D01*
X80443906Y-60394300D01*
X80872634Y-60823028D01*
X78146100Y-60823028D01*
X78044979Y-60831092D01*
X77873466Y-60884206D01*
X77723541Y-60983000D01*
X77607075Y-61119650D01*
X77533290Y-61283337D01*
X77508028Y-61461100D01*
X77508028Y-66541100D01*
X77516092Y-66642221D01*
X77569206Y-66813734D01*
X77668000Y-66963659D01*
X77678843Y-66972900D01*
X70152326Y-66972900D01*
X70179337Y-66945889D01*
X70248830Y-66841885D01*
X70296697Y-66726323D01*
X70321100Y-66603642D01*
X70321100Y-64286850D01*
X70162350Y-64128100D01*
X68418100Y-64128100D01*
X68418100Y-67017350D01*
X68576850Y-67176100D01*
X68599158Y-67176100D01*
X68491648Y-67333115D01*
X68415365Y-67511095D01*
X68375105Y-67700503D01*
X68372402Y-67894123D01*
X68389797Y-67988900D01*
X60564294Y-67988900D01*
X59528574Y-66953180D01*
X59515931Y-66889329D01*
X59442141Y-66710301D01*
X59334983Y-66549014D01*
X59198538Y-66411614D01*
X59051596Y-66312500D01*
X59201100Y-66312500D01*
X59403376Y-66292667D01*
X59597947Y-66233922D01*
X59777402Y-66138504D01*
X59934906Y-66010047D01*
X60064460Y-65853443D01*
X60161128Y-65674659D01*
X60221230Y-65480503D01*
X60242475Y-65278370D01*
X60224054Y-65075961D01*
X60166669Y-64880985D01*
X60072506Y-64700868D01*
X59945152Y-64542471D01*
X59789457Y-64411827D01*
X59611351Y-64313912D01*
X59526041Y-64286850D01*
X66261100Y-64286850D01*
X66261100Y-66603642D01*
X66285503Y-66726323D01*
X66333370Y-66841885D01*
X66402863Y-66945889D01*
X66491311Y-67034337D01*
X66595315Y-67103830D01*
X66710877Y-67151697D01*
X66833558Y-67176100D01*
X68005350Y-67176100D01*
X68164100Y-67017350D01*
X68164100Y-64128100D01*
X66419850Y-64128100D01*
X66261100Y-64286850D01*
X59526041Y-64286850D01*
X59417619Y-64252457D01*
X59215640Y-64229802D01*
X59201100Y-64229700D01*
X58814172Y-64229700D01*
X58814172Y-61461100D01*
X58809185Y-61398558D01*
X66261100Y-61398558D01*
X66261100Y-63715350D01*
X66419850Y-63874100D01*
X68164100Y-63874100D01*
X68164100Y-60984850D01*
X68418100Y-60984850D01*
X68418100Y-63874100D01*
X70162350Y-63874100D01*
X70321100Y-63715350D01*
X70321100Y-61398558D01*
X70296697Y-61275877D01*
X70248830Y-61160315D01*
X70179337Y-61056311D01*
X70090889Y-60967863D01*
X69986885Y-60898370D01*
X69871323Y-60850503D01*
X69748642Y-60826100D01*
X68576850Y-60826100D01*
X68418100Y-60984850D01*
X68164100Y-60984850D01*
X68005350Y-60826100D01*
X66833558Y-60826100D01*
X66710877Y-60850503D01*
X66595315Y-60898370D01*
X66491311Y-60967863D01*
X66402863Y-61056311D01*
X66333370Y-61160315D01*
X66285503Y-61275877D01*
X66261100Y-61398558D01*
X58809185Y-61398558D01*
X58806108Y-61359979D01*
X58752994Y-61188466D01*
X58654200Y-61038541D01*
X58517550Y-60922075D01*
X58353863Y-60848290D01*
X58176100Y-60823028D01*
X57495790Y-60823028D01*
X56762481Y-60089719D01*
X56605426Y-59960712D01*
X56426305Y-59864669D01*
X56231940Y-59805246D01*
X56029735Y-59784706D01*
X55827391Y-59803834D01*
X55632617Y-59861898D01*
X55452829Y-59956689D01*
X55294877Y-60084596D01*
X55164778Y-60240746D01*
X55067487Y-60419193D01*
X55006708Y-60613138D01*
X54984757Y-60815194D01*
X54997481Y-60960635D01*
X54963541Y-60983000D01*
X54847075Y-61119650D01*
X54773290Y-61283337D01*
X54748028Y-61461100D01*
X54748028Y-66541100D01*
X54756092Y-66642221D01*
X54809206Y-66813734D01*
X54908000Y-66963659D01*
X55044650Y-67080125D01*
X55208337Y-67153910D01*
X55386100Y-67179172D01*
X55673518Y-67179172D01*
X55672402Y-67259123D01*
X55707357Y-67449581D01*
X55778641Y-67629623D01*
X55883537Y-67792389D01*
X56018050Y-67931682D01*
X56177056Y-68042194D01*
X56354500Y-68119717D01*
X56543622Y-68161299D01*
X56737219Y-68165354D01*
X56927916Y-68131729D01*
X57108451Y-68061704D01*
X57271946Y-67957947D01*
X57412174Y-67824410D01*
X57523794Y-67666178D01*
X57602554Y-67489280D01*
X57612007Y-67447673D01*
X57612357Y-67449581D01*
X57683641Y-67629623D01*
X57788537Y-67792389D01*
X57923050Y-67931682D01*
X58082056Y-68042194D01*
X58259500Y-68119717D01*
X58342592Y-68137986D01*
X59624403Y-69419797D01*
X59684268Y-69468971D01*
X59743545Y-69518710D01*
X59747403Y-69520831D01*
X59750813Y-69523632D01*
X59819104Y-69560249D01*
X59886898Y-69597519D01*
X59891098Y-69598851D01*
X59894984Y-69600935D01*
X59969075Y-69623587D01*
X60042828Y-69646983D01*
X60047204Y-69647474D01*
X60051424Y-69648764D01*
X60128519Y-69656595D01*
X60205397Y-69665218D01*
X60214010Y-69665278D01*
X60214174Y-69665295D01*
X60214327Y-69665281D01*
X60217100Y-69665300D01*
X76456922Y-69665300D01*
X76497056Y-69693194D01*
X76674500Y-69770717D01*
X76863622Y-69812299D01*
X77057219Y-69816354D01*
X77247916Y-69782729D01*
X77428451Y-69712704D01*
X77591946Y-69608947D01*
X77732174Y-69475410D01*
X77843794Y-69317178D01*
X77922554Y-69140280D01*
X77965454Y-68951453D01*
X77968543Y-68730280D01*
X77964508Y-68709902D01*
X78928403Y-69673797D01*
X79054812Y-69777631D01*
X79198984Y-69854934D01*
X79285960Y-69881526D01*
X79227719Y-70106375D01*
X79210016Y-70416077D01*
X79253073Y-70723284D01*
X79355235Y-71016186D01*
X79440377Y-71175477D01*
X79698622Y-71263970D01*
X79672592Y-71290000D01*
X40710000Y-71290000D01*
X40710000Y-64084123D01*
X45512402Y-64084123D01*
X45547357Y-64274581D01*
X45618641Y-64454623D01*
X45723537Y-64617389D01*
X45858050Y-64756682D01*
X46017056Y-64867194D01*
X46194500Y-64944717D01*
X46383622Y-64986299D01*
X46577219Y-64990354D01*
X46767916Y-64956729D01*
X46808726Y-64940900D01*
X47946137Y-64940900D01*
X47841644Y-65009278D01*
X47574725Y-65270665D01*
X47363659Y-65578919D01*
X47216486Y-65922298D01*
X47138813Y-66287724D01*
X47133596Y-66661278D01*
X47201037Y-67028730D01*
X47338564Y-67376085D01*
X47540941Y-67690112D01*
X47800458Y-67958850D01*
X48107231Y-68172062D01*
X48449574Y-68321629D01*
X48814449Y-68401851D01*
X49187957Y-68409675D01*
X49555871Y-68344802D01*
X49904177Y-68209703D01*
X50219610Y-68009524D01*
X50490153Y-67751889D01*
X50705502Y-67446612D01*
X50857455Y-67105321D01*
X50940223Y-66741015D01*
X50946181Y-66314305D01*
X50873617Y-65947830D01*
X50731253Y-65602430D01*
X50524512Y-65291259D01*
X50261268Y-65026170D01*
X50134850Y-64940900D01*
X50311100Y-64940900D01*
X50397510Y-64932428D01*
X50483978Y-64924863D01*
X50488724Y-64923484D01*
X50493641Y-64923002D01*
X50576727Y-64897916D01*
X50660111Y-64873691D01*
X50664499Y-64871416D01*
X50669230Y-64869988D01*
X50745873Y-64829236D01*
X50822952Y-64789282D01*
X50826815Y-64786199D01*
X50831177Y-64783879D01*
X50898454Y-64729010D01*
X50966295Y-64674853D01*
X50973172Y-64668071D01*
X50973315Y-64667955D01*
X50973424Y-64667823D01*
X50975639Y-64665639D01*
X52022117Y-63619161D01*
X52028451Y-63616704D01*
X52191946Y-63512947D01*
X52332174Y-63379410D01*
X52443794Y-63221178D01*
X52522554Y-63044280D01*
X52565454Y-62855453D01*
X52568543Y-62634280D01*
X52530931Y-62444329D01*
X52457141Y-62265301D01*
X52349983Y-62104014D01*
X52213538Y-61966614D01*
X52053004Y-61858332D01*
X51874495Y-61783294D01*
X51684811Y-61744357D01*
X51491176Y-61743005D01*
X51300967Y-61779290D01*
X51121428Y-61851828D01*
X50959397Y-61957858D01*
X50871374Y-62044057D01*
X50940223Y-61741015D01*
X50946181Y-61314305D01*
X50873617Y-60947830D01*
X50731253Y-60602430D01*
X50524512Y-60291259D01*
X50261268Y-60026170D01*
X49951548Y-59817262D01*
X49607149Y-59672490D01*
X49241190Y-59597369D01*
X48867610Y-59594761D01*
X48500637Y-59664765D01*
X48154251Y-59804714D01*
X47841644Y-60009278D01*
X47574725Y-60270665D01*
X47363659Y-60578919D01*
X47216486Y-60922298D01*
X47138813Y-61287724D01*
X47133596Y-61661278D01*
X47201037Y-62028730D01*
X47338564Y-62376085D01*
X47540941Y-62690112D01*
X47800458Y-62958850D01*
X47947865Y-63061300D01*
X46813541Y-63061300D01*
X46794495Y-63053294D01*
X46604811Y-63014357D01*
X46411176Y-63013005D01*
X46220967Y-63049290D01*
X46041428Y-63121828D01*
X45879397Y-63227858D01*
X45741048Y-63363340D01*
X45631648Y-63523115D01*
X45555365Y-63701095D01*
X45515105Y-63890503D01*
X45512402Y-64084123D01*
X40710000Y-64084123D01*
X40710000Y-56710000D01*
X164334704Y-56710000D01*
X179142517Y-64000000D01*
G36*
X80984848Y-70336958D02*
X80970705Y-70351100D01*
X80984848Y-70365243D01*
X80805243Y-70544848D01*
X80791100Y-70530705D01*
X80776958Y-70544848D01*
X80597353Y-70365243D01*
X80611495Y-70351100D01*
X80597353Y-70336958D01*
X80776958Y-70157353D01*
X80791100Y-70171495D01*
X80805243Y-70157353D01*
X80984848Y-70336958D01*
X80984848Y-70336958D01*
G37*
X80984848Y-70336958D02*
X80970705Y-70351100D01*
X80984848Y-70365243D01*
X80805243Y-70544848D01*
X80791100Y-70530705D01*
X80776958Y-70544848D01*
X80597353Y-70365243D01*
X80611495Y-70351100D01*
X80597353Y-70336958D01*
X80776958Y-70157353D01*
X80791100Y-70171495D01*
X80805243Y-70157353D01*
X80984848Y-70336958D01*
G36*
X179142517Y-80000000D02*
X164334704Y-87290000D01*
X87136060Y-87290000D01*
X87247006Y-87132723D01*
X87372620Y-86850589D01*
X87441042Y-86549430D01*
X87445968Y-86196683D01*
X87406465Y-85997178D01*
X87469500Y-86024717D01*
X87658622Y-86066299D01*
X87852219Y-86070354D01*
X88042916Y-86036729D01*
X88223451Y-85966704D01*
X88386946Y-85862947D01*
X88527174Y-85729410D01*
X88638794Y-85571178D01*
X88717554Y-85394280D01*
X88760454Y-85205453D01*
X88763543Y-84984280D01*
X88725931Y-84794329D01*
X88652141Y-84615301D01*
X88544983Y-84454014D01*
X88408538Y-84316614D01*
X88248004Y-84208332D01*
X88069495Y-84133294D01*
X87879811Y-84094357D01*
X87686176Y-84093005D01*
X87495967Y-84129290D01*
X87448972Y-84148277D01*
X87448972Y-82871300D01*
X87440908Y-82770179D01*
X87387794Y-82598666D01*
X87289000Y-82448741D01*
X87152350Y-82332275D01*
X86988663Y-82258490D01*
X86810900Y-82233228D01*
X84931300Y-82233228D01*
X84830179Y-82241292D01*
X84658666Y-82294406D01*
X84508741Y-82393200D01*
X84392275Y-82529850D01*
X84356669Y-82608839D01*
X84339772Y-82591824D01*
X84083737Y-82419127D01*
X83799034Y-82299448D01*
X83496508Y-82237349D01*
X83187681Y-82235193D01*
X82884317Y-82293062D01*
X82597971Y-82408754D01*
X82339550Y-82577860D01*
X82118896Y-82793940D01*
X82061637Y-82877564D01*
X82017388Y-82810964D01*
X81799772Y-82591824D01*
X81574172Y-82439656D01*
X81574172Y-82135190D01*
X81577056Y-82137194D01*
X81754500Y-82214717D01*
X81943622Y-82256299D01*
X82137219Y-82260354D01*
X82327916Y-82226729D01*
X82508451Y-82156704D01*
X82671946Y-82052947D01*
X82812174Y-81919410D01*
X82923794Y-81761178D01*
X83002554Y-81584280D01*
X83012007Y-81542673D01*
X83012357Y-81544581D01*
X83083641Y-81724623D01*
X83188537Y-81887389D01*
X83323050Y-82026682D01*
X83482056Y-82137194D01*
X83659500Y-82214717D01*
X83848622Y-82256299D01*
X84042219Y-82260354D01*
X84232916Y-82226729D01*
X84413451Y-82156704D01*
X84576946Y-82052947D01*
X84717174Y-81919410D01*
X84828794Y-81761178D01*
X84907554Y-81584280D01*
X84950454Y-81395453D01*
X84953543Y-81174280D01*
X84915931Y-80984329D01*
X84842141Y-80805301D01*
X84804300Y-80748345D01*
X84804300Y-78620901D01*
X84828794Y-78586178D01*
X84907554Y-78409280D01*
X84950454Y-78220453D01*
X84953543Y-77999280D01*
X84915931Y-77809329D01*
X84842141Y-77630301D01*
X84734983Y-77469014D01*
X84598538Y-77331614D01*
X84438004Y-77223332D01*
X84259495Y-77148294D01*
X84069811Y-77109357D01*
X83876176Y-77108005D01*
X83685967Y-77144290D01*
X83506428Y-77216828D01*
X83344397Y-77322858D01*
X83206048Y-77458340D01*
X83096648Y-77618115D01*
X83020365Y-77796095D01*
X82980105Y-77985503D01*
X82977402Y-78179123D01*
X83012357Y-78369581D01*
X83083641Y-78549623D01*
X83127900Y-78618299D01*
X83127900Y-80747473D01*
X83096648Y-80793115D01*
X83020365Y-80971095D01*
X83014124Y-81000456D01*
X83010931Y-80984329D01*
X82937141Y-80805301D01*
X82899300Y-80748345D01*
X82899300Y-76826100D01*
X82891741Y-76749006D01*
X82884996Y-76671912D01*
X82883767Y-76667683D01*
X82883337Y-76663293D01*
X82860946Y-76589130D01*
X82839356Y-76514819D01*
X82837328Y-76510906D01*
X82836054Y-76506687D01*
X82799699Y-76438312D01*
X82764074Y-76369584D01*
X82761325Y-76366141D01*
X82759255Y-76362247D01*
X82710308Y-76302233D01*
X82662014Y-76241736D01*
X82655962Y-76235598D01*
X82655862Y-76235476D01*
X82655749Y-76235382D01*
X82653797Y-76233403D01*
X81383797Y-74963403D01*
X81323959Y-74914252D01*
X81264655Y-74864490D01*
X81260794Y-74862367D01*
X81257387Y-74859569D01*
X81189169Y-74822991D01*
X81121302Y-74785681D01*
X81117098Y-74784347D01*
X81113216Y-74782266D01*
X81039158Y-74759623D01*
X80965372Y-74736217D01*
X80960997Y-74735726D01*
X80956777Y-74734436D01*
X80879721Y-74726610D01*
X80802803Y-74717982D01*
X80794179Y-74717922D01*
X80794026Y-74717906D01*
X80793883Y-74717920D01*
X80791100Y-74717900D01*
X80044253Y-74717900D01*
X79993004Y-74683332D01*
X79814495Y-74608294D01*
X79624811Y-74569357D01*
X79431176Y-74568005D01*
X79240967Y-74604290D01*
X79061428Y-74676828D01*
X78899397Y-74782858D01*
X78761048Y-74918340D01*
X78651648Y-75078115D01*
X78575365Y-75256095D01*
X78535105Y-75445503D01*
X78532402Y-75639123D01*
X78567357Y-75829581D01*
X78638641Y-76009623D01*
X78743537Y-76172389D01*
X78878050Y-76311682D01*
X79037056Y-76422194D01*
X79214500Y-76499717D01*
X79403622Y-76541299D01*
X79597219Y-76545354D01*
X79787916Y-76511729D01*
X79968451Y-76441704D01*
X80043148Y-76394300D01*
X80443906Y-76394300D01*
X80872634Y-76823028D01*
X78146100Y-76823028D01*
X78044979Y-76831092D01*
X77873466Y-76884206D01*
X77723541Y-76983000D01*
X77607075Y-77119650D01*
X77533290Y-77283337D01*
X77508028Y-77461100D01*
X77508028Y-82541100D01*
X77516092Y-82642221D01*
X77569206Y-82813734D01*
X77668000Y-82963659D01*
X77678843Y-82972900D01*
X70152326Y-82972900D01*
X70179337Y-82945889D01*
X70248830Y-82841885D01*
X70296697Y-82726323D01*
X70321100Y-82603642D01*
X70321100Y-80286850D01*
X70162350Y-80128100D01*
X68418100Y-80128100D01*
X68418100Y-83017350D01*
X68576850Y-83176100D01*
X68599158Y-83176100D01*
X68491648Y-83333115D01*
X68415365Y-83511095D01*
X68375105Y-83700503D01*
X68372402Y-83894123D01*
X68389797Y-83988900D01*
X60564294Y-83988900D01*
X59528574Y-82953180D01*
X59515931Y-82889329D01*
X59442141Y-82710301D01*
X59334983Y-82549014D01*
X59198538Y-82411614D01*
X59051596Y-82312500D01*
X59201100Y-82312500D01*
X59403376Y-82292667D01*
X59597947Y-82233922D01*
X59777402Y-82138504D01*
X59934906Y-82010047D01*
X60064460Y-81853443D01*
X60161128Y-81674659D01*
X60221230Y-81480503D01*
X60242475Y-81278370D01*
X60224054Y-81075961D01*
X60166669Y-80880985D01*
X60072506Y-80700868D01*
X59945152Y-80542471D01*
X59789457Y-80411827D01*
X59611351Y-80313912D01*
X59526041Y-80286850D01*
X66261100Y-80286850D01*
X66261100Y-82603642D01*
X66285503Y-82726323D01*
X66333370Y-82841885D01*
X66402863Y-82945889D01*
X66491311Y-83034337D01*
X66595315Y-83103830D01*
X66710877Y-83151697D01*
X66833558Y-83176100D01*
X68005350Y-83176100D01*
X68164100Y-83017350D01*
X68164100Y-80128100D01*
X66419850Y-80128100D01*
X66261100Y-80286850D01*
X59526041Y-80286850D01*
X59417619Y-80252457D01*
X59215640Y-80229802D01*
X59201100Y-80229700D01*
X58814172Y-80229700D01*
X58814172Y-77461100D01*
X58809185Y-77398558D01*
X66261100Y-77398558D01*
X66261100Y-79715350D01*
X66419850Y-79874100D01*
X68164100Y-79874100D01*
X68164100Y-76984850D01*
X68418100Y-76984850D01*
X68418100Y-79874100D01*
X70162350Y-79874100D01*
X70321100Y-79715350D01*
X70321100Y-77398558D01*
X70296697Y-77275877D01*
X70248830Y-77160315D01*
X70179337Y-77056311D01*
X70090889Y-76967863D01*
X69986885Y-76898370D01*
X69871323Y-76850503D01*
X69748642Y-76826100D01*
X68576850Y-76826100D01*
X68418100Y-76984850D01*
X68164100Y-76984850D01*
X68005350Y-76826100D01*
X66833558Y-76826100D01*
X66710877Y-76850503D01*
X66595315Y-76898370D01*
X66491311Y-76967863D01*
X66402863Y-77056311D01*
X66333370Y-77160315D01*
X66285503Y-77275877D01*
X66261100Y-77398558D01*
X58809185Y-77398558D01*
X58806108Y-77359979D01*
X58752994Y-77188466D01*
X58654200Y-77038541D01*
X58517550Y-76922075D01*
X58353863Y-76848290D01*
X58176100Y-76823028D01*
X57495790Y-76823028D01*
X56762481Y-76089719D01*
X56605426Y-75960712D01*
X56426305Y-75864669D01*
X56231940Y-75805246D01*
X56029735Y-75784706D01*
X55827391Y-75803834D01*
X55632617Y-75861898D01*
X55452829Y-75956689D01*
X55294877Y-76084596D01*
X55164778Y-76240746D01*
X55067487Y-76419193D01*
X55006708Y-76613138D01*
X54984757Y-76815194D01*
X54997481Y-76960635D01*
X54963541Y-76983000D01*
X54847075Y-77119650D01*
X54773290Y-77283337D01*
X54748028Y-77461100D01*
X54748028Y-82541100D01*
X54756092Y-82642221D01*
X54809206Y-82813734D01*
X54908000Y-82963659D01*
X55044650Y-83080125D01*
X55208337Y-83153910D01*
X55386100Y-83179172D01*
X55673518Y-83179172D01*
X55672402Y-83259123D01*
X55707357Y-83449581D01*
X55778641Y-83629623D01*
X55883537Y-83792389D01*
X56018050Y-83931682D01*
X56177056Y-84042194D01*
X56354500Y-84119717D01*
X56543622Y-84161299D01*
X56737219Y-84165354D01*
X56927916Y-84131729D01*
X57108451Y-84061704D01*
X57271946Y-83957947D01*
X57412174Y-83824410D01*
X57523794Y-83666178D01*
X57602554Y-83489280D01*
X57612007Y-83447673D01*
X57612357Y-83449581D01*
X57683641Y-83629623D01*
X57788537Y-83792389D01*
X57923050Y-83931682D01*
X58082056Y-84042194D01*
X58259500Y-84119717D01*
X58342592Y-84137986D01*
X59624403Y-85419797D01*
X59684268Y-85468971D01*
X59743545Y-85518710D01*
X59747403Y-85520831D01*
X59750813Y-85523632D01*
X59819104Y-85560249D01*
X59886898Y-85597519D01*
X59891098Y-85598851D01*
X59894984Y-85600935D01*
X59969075Y-85623587D01*
X60042828Y-85646983D01*
X60047204Y-85647474D01*
X60051424Y-85648764D01*
X60128519Y-85656595D01*
X60205397Y-85665218D01*
X60214010Y-85665278D01*
X60214174Y-85665295D01*
X60214327Y-85665281D01*
X60217100Y-85665300D01*
X76456922Y-85665300D01*
X76497056Y-85693194D01*
X76674500Y-85770717D01*
X76863622Y-85812299D01*
X77057219Y-85816354D01*
X77247916Y-85782729D01*
X77428451Y-85712704D01*
X77591946Y-85608947D01*
X77732174Y-85475410D01*
X77843794Y-85317178D01*
X77922554Y-85140280D01*
X77965454Y-84951453D01*
X77968543Y-84730280D01*
X77964508Y-84709902D01*
X78928403Y-85673797D01*
X79054812Y-85777631D01*
X79198984Y-85854934D01*
X79285960Y-85881526D01*
X79227719Y-86106375D01*
X79210016Y-86416077D01*
X79253073Y-86723284D01*
X79355235Y-87016186D01*
X79440377Y-87175477D01*
X79698622Y-87263970D01*
X79672592Y-87290000D01*
X40710000Y-87290000D01*
X40710000Y-80084123D01*
X45512402Y-80084123D01*
X45547357Y-80274581D01*
X45618641Y-80454623D01*
X45723537Y-80617389D01*
X45858050Y-80756682D01*
X46017056Y-80867194D01*
X46194500Y-80944717D01*
X46383622Y-80986299D01*
X46577219Y-80990354D01*
X46767916Y-80956729D01*
X46808726Y-80940900D01*
X47946137Y-80940900D01*
X47841644Y-81009278D01*
X47574725Y-81270665D01*
X47363659Y-81578919D01*
X47216486Y-81922298D01*
X47138813Y-82287724D01*
X47133596Y-82661278D01*
X47201037Y-83028730D01*
X47338564Y-83376085D01*
X47540941Y-83690112D01*
X47800458Y-83958850D01*
X48107231Y-84172062D01*
X48449574Y-84321629D01*
X48814449Y-84401851D01*
X49187957Y-84409675D01*
X49555871Y-84344802D01*
X49904177Y-84209703D01*
X50219610Y-84009524D01*
X50490153Y-83751889D01*
X50705502Y-83446612D01*
X50857455Y-83105321D01*
X50940223Y-82741015D01*
X50946181Y-82314305D01*
X50873617Y-81947830D01*
X50731253Y-81602430D01*
X50524512Y-81291259D01*
X50261268Y-81026170D01*
X50134850Y-80940900D01*
X50311100Y-80940900D01*
X50397510Y-80932428D01*
X50483978Y-80924863D01*
X50488724Y-80923484D01*
X50493641Y-80923002D01*
X50576727Y-80897916D01*
X50660111Y-80873691D01*
X50664499Y-80871416D01*
X50669230Y-80869988D01*
X50745873Y-80829236D01*
X50822952Y-80789282D01*
X50826815Y-80786199D01*
X50831177Y-80783879D01*
X50898454Y-80729010D01*
X50966295Y-80674853D01*
X50973172Y-80668071D01*
X50973315Y-80667955D01*
X50973424Y-80667823D01*
X50975639Y-80665639D01*
X52022117Y-79619161D01*
X52028451Y-79616704D01*
X52191946Y-79512947D01*
X52332174Y-79379410D01*
X52443794Y-79221178D01*
X52522554Y-79044280D01*
X52565454Y-78855453D01*
X52568543Y-78634280D01*
X52530931Y-78444329D01*
X52457141Y-78265301D01*
X52349983Y-78104014D01*
X52213538Y-77966614D01*
X52053004Y-77858332D01*
X51874495Y-77783294D01*
X51684811Y-77744357D01*
X51491176Y-77743005D01*
X51300967Y-77779290D01*
X51121428Y-77851828D01*
X50959397Y-77957858D01*
X50871374Y-78044057D01*
X50940223Y-77741015D01*
X50946181Y-77314305D01*
X50873617Y-76947830D01*
X50731253Y-76602430D01*
X50524512Y-76291259D01*
X50261268Y-76026170D01*
X49951548Y-75817262D01*
X49607149Y-75672490D01*
X49241190Y-75597369D01*
X48867610Y-75594761D01*
X48500637Y-75664765D01*
X48154251Y-75804714D01*
X47841644Y-76009278D01*
X47574725Y-76270665D01*
X47363659Y-76578919D01*
X47216486Y-76922298D01*
X47138813Y-77287724D01*
X47133596Y-77661278D01*
X47201037Y-78028730D01*
X47338564Y-78376085D01*
X47540941Y-78690112D01*
X47800458Y-78958850D01*
X47947865Y-79061300D01*
X46813541Y-79061300D01*
X46794495Y-79053294D01*
X46604811Y-79014357D01*
X46411176Y-79013005D01*
X46220967Y-79049290D01*
X46041428Y-79121828D01*
X45879397Y-79227858D01*
X45741048Y-79363340D01*
X45631648Y-79523115D01*
X45555365Y-79701095D01*
X45515105Y-79890503D01*
X45512402Y-80084123D01*
X40710000Y-80084123D01*
X40710000Y-72710000D01*
X164334704Y-72710000D01*
X179142517Y-80000000D01*
X179142517Y-80000000D01*
G37*
X179142517Y-80000000D02*
X164334704Y-87290000D01*
X87136060Y-87290000D01*
X87247006Y-87132723D01*
X87372620Y-86850589D01*
X87441042Y-86549430D01*
X87445968Y-86196683D01*
X87406465Y-85997178D01*
X87469500Y-86024717D01*
X87658622Y-86066299D01*
X87852219Y-86070354D01*
X88042916Y-86036729D01*
X88223451Y-85966704D01*
X88386946Y-85862947D01*
X88527174Y-85729410D01*
X88638794Y-85571178D01*
X88717554Y-85394280D01*
X88760454Y-85205453D01*
X88763543Y-84984280D01*
X88725931Y-84794329D01*
X88652141Y-84615301D01*
X88544983Y-84454014D01*
X88408538Y-84316614D01*
X88248004Y-84208332D01*
X88069495Y-84133294D01*
X87879811Y-84094357D01*
X87686176Y-84093005D01*
X87495967Y-84129290D01*
X87448972Y-84148277D01*
X87448972Y-82871300D01*
X87440908Y-82770179D01*
X87387794Y-82598666D01*
X87289000Y-82448741D01*
X87152350Y-82332275D01*
X86988663Y-82258490D01*
X86810900Y-82233228D01*
X84931300Y-82233228D01*
X84830179Y-82241292D01*
X84658666Y-82294406D01*
X84508741Y-82393200D01*
X84392275Y-82529850D01*
X84356669Y-82608839D01*
X84339772Y-82591824D01*
X84083737Y-82419127D01*
X83799034Y-82299448D01*
X83496508Y-82237349D01*
X83187681Y-82235193D01*
X82884317Y-82293062D01*
X82597971Y-82408754D01*
X82339550Y-82577860D01*
X82118896Y-82793940D01*
X82061637Y-82877564D01*
X82017388Y-82810964D01*
X81799772Y-82591824D01*
X81574172Y-82439656D01*
X81574172Y-82135190D01*
X81577056Y-82137194D01*
X81754500Y-82214717D01*
X81943622Y-82256299D01*
X82137219Y-82260354D01*
X82327916Y-82226729D01*
X82508451Y-82156704D01*
X82671946Y-82052947D01*
X82812174Y-81919410D01*
X82923794Y-81761178D01*
X83002554Y-81584280D01*
X83012007Y-81542673D01*
X83012357Y-81544581D01*
X83083641Y-81724623D01*
X83188537Y-81887389D01*
X83323050Y-82026682D01*
X83482056Y-82137194D01*
X83659500Y-82214717D01*
X83848622Y-82256299D01*
X84042219Y-82260354D01*
X84232916Y-82226729D01*
X84413451Y-82156704D01*
X84576946Y-82052947D01*
X84717174Y-81919410D01*
X84828794Y-81761178D01*
X84907554Y-81584280D01*
X84950454Y-81395453D01*
X84953543Y-81174280D01*
X84915931Y-80984329D01*
X84842141Y-80805301D01*
X84804300Y-80748345D01*
X84804300Y-78620901D01*
X84828794Y-78586178D01*
X84907554Y-78409280D01*
X84950454Y-78220453D01*
X84953543Y-77999280D01*
X84915931Y-77809329D01*
X84842141Y-77630301D01*
X84734983Y-77469014D01*
X84598538Y-77331614D01*
X84438004Y-77223332D01*
X84259495Y-77148294D01*
X84069811Y-77109357D01*
X83876176Y-77108005D01*
X83685967Y-77144290D01*
X83506428Y-77216828D01*
X83344397Y-77322858D01*
X83206048Y-77458340D01*
X83096648Y-77618115D01*
X83020365Y-77796095D01*
X82980105Y-77985503D01*
X82977402Y-78179123D01*
X83012357Y-78369581D01*
X83083641Y-78549623D01*
X83127900Y-78618299D01*
X83127900Y-80747473D01*
X83096648Y-80793115D01*
X83020365Y-80971095D01*
X83014124Y-81000456D01*
X83010931Y-80984329D01*
X82937141Y-80805301D01*
X82899300Y-80748345D01*
X82899300Y-76826100D01*
X82891741Y-76749006D01*
X82884996Y-76671912D01*
X82883767Y-76667683D01*
X82883337Y-76663293D01*
X82860946Y-76589130D01*
X82839356Y-76514819D01*
X82837328Y-76510906D01*
X82836054Y-76506687D01*
X82799699Y-76438312D01*
X82764074Y-76369584D01*
X82761325Y-76366141D01*
X82759255Y-76362247D01*
X82710308Y-76302233D01*
X82662014Y-76241736D01*
X82655962Y-76235598D01*
X82655862Y-76235476D01*
X82655749Y-76235382D01*
X82653797Y-76233403D01*
X81383797Y-74963403D01*
X81323959Y-74914252D01*
X81264655Y-74864490D01*
X81260794Y-74862367D01*
X81257387Y-74859569D01*
X81189169Y-74822991D01*
X81121302Y-74785681D01*
X81117098Y-74784347D01*
X81113216Y-74782266D01*
X81039158Y-74759623D01*
X80965372Y-74736217D01*
X80960997Y-74735726D01*
X80956777Y-74734436D01*
X80879721Y-74726610D01*
X80802803Y-74717982D01*
X80794179Y-74717922D01*
X80794026Y-74717906D01*
X80793883Y-74717920D01*
X80791100Y-74717900D01*
X80044253Y-74717900D01*
X79993004Y-74683332D01*
X79814495Y-74608294D01*
X79624811Y-74569357D01*
X79431176Y-74568005D01*
X79240967Y-74604290D01*
X79061428Y-74676828D01*
X78899397Y-74782858D01*
X78761048Y-74918340D01*
X78651648Y-75078115D01*
X78575365Y-75256095D01*
X78535105Y-75445503D01*
X78532402Y-75639123D01*
X78567357Y-75829581D01*
X78638641Y-76009623D01*
X78743537Y-76172389D01*
X78878050Y-76311682D01*
X79037056Y-76422194D01*
X79214500Y-76499717D01*
X79403622Y-76541299D01*
X79597219Y-76545354D01*
X79787916Y-76511729D01*
X79968451Y-76441704D01*
X80043148Y-76394300D01*
X80443906Y-76394300D01*
X80872634Y-76823028D01*
X78146100Y-76823028D01*
X78044979Y-76831092D01*
X77873466Y-76884206D01*
X77723541Y-76983000D01*
X77607075Y-77119650D01*
X77533290Y-77283337D01*
X77508028Y-77461100D01*
X77508028Y-82541100D01*
X77516092Y-82642221D01*
X77569206Y-82813734D01*
X77668000Y-82963659D01*
X77678843Y-82972900D01*
X70152326Y-82972900D01*
X70179337Y-82945889D01*
X70248830Y-82841885D01*
X70296697Y-82726323D01*
X70321100Y-82603642D01*
X70321100Y-80286850D01*
X70162350Y-80128100D01*
X68418100Y-80128100D01*
X68418100Y-83017350D01*
X68576850Y-83176100D01*
X68599158Y-83176100D01*
X68491648Y-83333115D01*
X68415365Y-83511095D01*
X68375105Y-83700503D01*
X68372402Y-83894123D01*
X68389797Y-83988900D01*
X60564294Y-83988900D01*
X59528574Y-82953180D01*
X59515931Y-82889329D01*
X59442141Y-82710301D01*
X59334983Y-82549014D01*
X59198538Y-82411614D01*
X59051596Y-82312500D01*
X59201100Y-82312500D01*
X59403376Y-82292667D01*
X59597947Y-82233922D01*
X59777402Y-82138504D01*
X59934906Y-82010047D01*
X60064460Y-81853443D01*
X60161128Y-81674659D01*
X60221230Y-81480503D01*
X60242475Y-81278370D01*
X60224054Y-81075961D01*
X60166669Y-80880985D01*
X60072506Y-80700868D01*
X59945152Y-80542471D01*
X59789457Y-80411827D01*
X59611351Y-80313912D01*
X59526041Y-80286850D01*
X66261100Y-80286850D01*
X66261100Y-82603642D01*
X66285503Y-82726323D01*
X66333370Y-82841885D01*
X66402863Y-82945889D01*
X66491311Y-83034337D01*
X66595315Y-83103830D01*
X66710877Y-83151697D01*
X66833558Y-83176100D01*
X68005350Y-83176100D01*
X68164100Y-83017350D01*
X68164100Y-80128100D01*
X66419850Y-80128100D01*
X66261100Y-80286850D01*
X59526041Y-80286850D01*
X59417619Y-80252457D01*
X59215640Y-80229802D01*
X59201100Y-80229700D01*
X58814172Y-80229700D01*
X58814172Y-77461100D01*
X58809185Y-77398558D01*
X66261100Y-77398558D01*
X66261100Y-79715350D01*
X66419850Y-79874100D01*
X68164100Y-79874100D01*
X68164100Y-76984850D01*
X68418100Y-76984850D01*
X68418100Y-79874100D01*
X70162350Y-79874100D01*
X70321100Y-79715350D01*
X70321100Y-77398558D01*
X70296697Y-77275877D01*
X70248830Y-77160315D01*
X70179337Y-77056311D01*
X70090889Y-76967863D01*
X69986885Y-76898370D01*
X69871323Y-76850503D01*
X69748642Y-76826100D01*
X68576850Y-76826100D01*
X68418100Y-76984850D01*
X68164100Y-76984850D01*
X68005350Y-76826100D01*
X66833558Y-76826100D01*
X66710877Y-76850503D01*
X66595315Y-76898370D01*
X66491311Y-76967863D01*
X66402863Y-77056311D01*
X66333370Y-77160315D01*
X66285503Y-77275877D01*
X66261100Y-77398558D01*
X58809185Y-77398558D01*
X58806108Y-77359979D01*
X58752994Y-77188466D01*
X58654200Y-77038541D01*
X58517550Y-76922075D01*
X58353863Y-76848290D01*
X58176100Y-76823028D01*
X57495790Y-76823028D01*
X56762481Y-76089719D01*
X56605426Y-75960712D01*
X56426305Y-75864669D01*
X56231940Y-75805246D01*
X56029735Y-75784706D01*
X55827391Y-75803834D01*
X55632617Y-75861898D01*
X55452829Y-75956689D01*
X55294877Y-76084596D01*
X55164778Y-76240746D01*
X55067487Y-76419193D01*
X55006708Y-76613138D01*
X54984757Y-76815194D01*
X54997481Y-76960635D01*
X54963541Y-76983000D01*
X54847075Y-77119650D01*
X54773290Y-77283337D01*
X54748028Y-77461100D01*
X54748028Y-82541100D01*
X54756092Y-82642221D01*
X54809206Y-82813734D01*
X54908000Y-82963659D01*
X55044650Y-83080125D01*
X55208337Y-83153910D01*
X55386100Y-83179172D01*
X55673518Y-83179172D01*
X55672402Y-83259123D01*
X55707357Y-83449581D01*
X55778641Y-83629623D01*
X55883537Y-83792389D01*
X56018050Y-83931682D01*
X56177056Y-84042194D01*
X56354500Y-84119717D01*
X56543622Y-84161299D01*
X56737219Y-84165354D01*
X56927916Y-84131729D01*
X57108451Y-84061704D01*
X57271946Y-83957947D01*
X57412174Y-83824410D01*
X57523794Y-83666178D01*
X57602554Y-83489280D01*
X57612007Y-83447673D01*
X57612357Y-83449581D01*
X57683641Y-83629623D01*
X57788537Y-83792389D01*
X57923050Y-83931682D01*
X58082056Y-84042194D01*
X58259500Y-84119717D01*
X58342592Y-84137986D01*
X59624403Y-85419797D01*
X59684268Y-85468971D01*
X59743545Y-85518710D01*
X59747403Y-85520831D01*
X59750813Y-85523632D01*
X59819104Y-85560249D01*
X59886898Y-85597519D01*
X59891098Y-85598851D01*
X59894984Y-85600935D01*
X59969075Y-85623587D01*
X60042828Y-85646983D01*
X60047204Y-85647474D01*
X60051424Y-85648764D01*
X60128519Y-85656595D01*
X60205397Y-85665218D01*
X60214010Y-85665278D01*
X60214174Y-85665295D01*
X60214327Y-85665281D01*
X60217100Y-85665300D01*
X76456922Y-85665300D01*
X76497056Y-85693194D01*
X76674500Y-85770717D01*
X76863622Y-85812299D01*
X77057219Y-85816354D01*
X77247916Y-85782729D01*
X77428451Y-85712704D01*
X77591946Y-85608947D01*
X77732174Y-85475410D01*
X77843794Y-85317178D01*
X77922554Y-85140280D01*
X77965454Y-84951453D01*
X77968543Y-84730280D01*
X77964508Y-84709902D01*
X78928403Y-85673797D01*
X79054812Y-85777631D01*
X79198984Y-85854934D01*
X79285960Y-85881526D01*
X79227719Y-86106375D01*
X79210016Y-86416077D01*
X79253073Y-86723284D01*
X79355235Y-87016186D01*
X79440377Y-87175477D01*
X79698622Y-87263970D01*
X79672592Y-87290000D01*
X40710000Y-87290000D01*
X40710000Y-80084123D01*
X45512402Y-80084123D01*
X45547357Y-80274581D01*
X45618641Y-80454623D01*
X45723537Y-80617389D01*
X45858050Y-80756682D01*
X46017056Y-80867194D01*
X46194500Y-80944717D01*
X46383622Y-80986299D01*
X46577219Y-80990354D01*
X46767916Y-80956729D01*
X46808726Y-80940900D01*
X47946137Y-80940900D01*
X47841644Y-81009278D01*
X47574725Y-81270665D01*
X47363659Y-81578919D01*
X47216486Y-81922298D01*
X47138813Y-82287724D01*
X47133596Y-82661278D01*
X47201037Y-83028730D01*
X47338564Y-83376085D01*
X47540941Y-83690112D01*
X47800458Y-83958850D01*
X48107231Y-84172062D01*
X48449574Y-84321629D01*
X48814449Y-84401851D01*
X49187957Y-84409675D01*
X49555871Y-84344802D01*
X49904177Y-84209703D01*
X50219610Y-84009524D01*
X50490153Y-83751889D01*
X50705502Y-83446612D01*
X50857455Y-83105321D01*
X50940223Y-82741015D01*
X50946181Y-82314305D01*
X50873617Y-81947830D01*
X50731253Y-81602430D01*
X50524512Y-81291259D01*
X50261268Y-81026170D01*
X50134850Y-80940900D01*
X50311100Y-80940900D01*
X50397510Y-80932428D01*
X50483978Y-80924863D01*
X50488724Y-80923484D01*
X50493641Y-80923002D01*
X50576727Y-80897916D01*
X50660111Y-80873691D01*
X50664499Y-80871416D01*
X50669230Y-80869988D01*
X50745873Y-80829236D01*
X50822952Y-80789282D01*
X50826815Y-80786199D01*
X50831177Y-80783879D01*
X50898454Y-80729010D01*
X50966295Y-80674853D01*
X50973172Y-80668071D01*
X50973315Y-80667955D01*
X50973424Y-80667823D01*
X50975639Y-80665639D01*
X52022117Y-79619161D01*
X52028451Y-79616704D01*
X52191946Y-79512947D01*
X52332174Y-79379410D01*
X52443794Y-79221178D01*
X52522554Y-79044280D01*
X52565454Y-78855453D01*
X52568543Y-78634280D01*
X52530931Y-78444329D01*
X52457141Y-78265301D01*
X52349983Y-78104014D01*
X52213538Y-77966614D01*
X52053004Y-77858332D01*
X51874495Y-77783294D01*
X51684811Y-77744357D01*
X51491176Y-77743005D01*
X51300967Y-77779290D01*
X51121428Y-77851828D01*
X50959397Y-77957858D01*
X50871374Y-78044057D01*
X50940223Y-77741015D01*
X50946181Y-77314305D01*
X50873617Y-76947830D01*
X50731253Y-76602430D01*
X50524512Y-76291259D01*
X50261268Y-76026170D01*
X49951548Y-75817262D01*
X49607149Y-75672490D01*
X49241190Y-75597369D01*
X48867610Y-75594761D01*
X48500637Y-75664765D01*
X48154251Y-75804714D01*
X47841644Y-76009278D01*
X47574725Y-76270665D01*
X47363659Y-76578919D01*
X47216486Y-76922298D01*
X47138813Y-77287724D01*
X47133596Y-77661278D01*
X47201037Y-78028730D01*
X47338564Y-78376085D01*
X47540941Y-78690112D01*
X47800458Y-78958850D01*
X47947865Y-79061300D01*
X46813541Y-79061300D01*
X46794495Y-79053294D01*
X46604811Y-79014357D01*
X46411176Y-79013005D01*
X46220967Y-79049290D01*
X46041428Y-79121828D01*
X45879397Y-79227858D01*
X45741048Y-79363340D01*
X45631648Y-79523115D01*
X45555365Y-79701095D01*
X45515105Y-79890503D01*
X45512402Y-80084123D01*
X40710000Y-80084123D01*
X40710000Y-72710000D01*
X164334704Y-72710000D01*
X179142517Y-80000000D01*
G36*
X80984848Y-86336958D02*
X80970705Y-86351100D01*
X80984848Y-86365243D01*
X80805243Y-86544848D01*
X80791100Y-86530705D01*
X80776958Y-86544848D01*
X80597353Y-86365243D01*
X80611495Y-86351100D01*
X80597353Y-86336958D01*
X80776958Y-86157353D01*
X80791100Y-86171495D01*
X80805243Y-86157353D01*
X80984848Y-86336958D01*
X80984848Y-86336958D01*
G37*
X80984848Y-86336958D02*
X80970705Y-86351100D01*
X80984848Y-86365243D01*
X80805243Y-86544848D01*
X80791100Y-86530705D01*
X80776958Y-86544848D01*
X80597353Y-86365243D01*
X80611495Y-86351100D01*
X80597353Y-86336958D01*
X80776958Y-86157353D01*
X80791100Y-86171495D01*
X80805243Y-86157353D01*
X80984848Y-86336958D01*
G36*
X179142517Y-96000000D02*
X164334704Y-103290000D01*
X87136060Y-103290000D01*
X87247006Y-103132723D01*
X87372620Y-102850589D01*
X87441042Y-102549430D01*
X87445968Y-102196683D01*
X87406465Y-101997178D01*
X87469500Y-102024717D01*
X87658622Y-102066299D01*
X87852219Y-102070354D01*
X88042916Y-102036729D01*
X88223451Y-101966704D01*
X88386946Y-101862947D01*
X88527174Y-101729410D01*
X88638794Y-101571178D01*
X88717554Y-101394280D01*
X88760454Y-101205453D01*
X88763543Y-100984280D01*
X88725931Y-100794329D01*
X88652141Y-100615301D01*
X88544983Y-100454014D01*
X88408538Y-100316614D01*
X88248004Y-100208332D01*
X88069495Y-100133294D01*
X87879811Y-100094357D01*
X87686176Y-100093005D01*
X87495967Y-100129290D01*
X87448972Y-100148277D01*
X87448972Y-98871300D01*
X87440908Y-98770179D01*
X87387794Y-98598666D01*
X87289000Y-98448741D01*
X87152350Y-98332275D01*
X86988663Y-98258490D01*
X86810900Y-98233228D01*
X84931300Y-98233228D01*
X84830179Y-98241292D01*
X84658666Y-98294406D01*
X84508741Y-98393200D01*
X84392275Y-98529850D01*
X84356669Y-98608839D01*
X84339772Y-98591824D01*
X84083737Y-98419127D01*
X83799034Y-98299448D01*
X83496508Y-98237349D01*
X83187681Y-98235193D01*
X82884317Y-98293062D01*
X82597971Y-98408754D01*
X82339550Y-98577860D01*
X82118896Y-98793940D01*
X82061637Y-98877564D01*
X82017388Y-98810964D01*
X81799772Y-98591824D01*
X81574172Y-98439656D01*
X81574172Y-98135190D01*
X81577056Y-98137194D01*
X81754500Y-98214717D01*
X81943622Y-98256299D01*
X82137219Y-98260354D01*
X82327916Y-98226729D01*
X82508451Y-98156704D01*
X82671946Y-98052947D01*
X82812174Y-97919410D01*
X82923794Y-97761178D01*
X83002554Y-97584280D01*
X83012007Y-97542673D01*
X83012357Y-97544581D01*
X83083641Y-97724623D01*
X83188537Y-97887389D01*
X83323050Y-98026682D01*
X83482056Y-98137194D01*
X83659500Y-98214717D01*
X83848622Y-98256299D01*
X84042219Y-98260354D01*
X84232916Y-98226729D01*
X84413451Y-98156704D01*
X84576946Y-98052947D01*
X84717174Y-97919410D01*
X84828794Y-97761178D01*
X84907554Y-97584280D01*
X84950454Y-97395453D01*
X84953543Y-97174280D01*
X84915931Y-96984329D01*
X84842141Y-96805301D01*
X84804300Y-96748345D01*
X84804300Y-94620901D01*
X84828794Y-94586178D01*
X84907554Y-94409280D01*
X84950454Y-94220453D01*
X84953543Y-93999280D01*
X84915931Y-93809329D01*
X84842141Y-93630301D01*
X84734983Y-93469014D01*
X84598538Y-93331614D01*
X84438004Y-93223332D01*
X84259495Y-93148294D01*
X84069811Y-93109357D01*
X83876176Y-93108005D01*
X83685967Y-93144290D01*
X83506428Y-93216828D01*
X83344397Y-93322858D01*
X83206048Y-93458340D01*
X83096648Y-93618115D01*
X83020365Y-93796095D01*
X82980105Y-93985503D01*
X82977402Y-94179123D01*
X83012357Y-94369581D01*
X83083641Y-94549623D01*
X83127900Y-94618299D01*
X83127900Y-96747473D01*
X83096648Y-96793115D01*
X83020365Y-96971095D01*
X83014124Y-97000456D01*
X83010931Y-96984329D01*
X82937141Y-96805301D01*
X82899300Y-96748345D01*
X82899300Y-92826100D01*
X82891741Y-92749006D01*
X82884996Y-92671912D01*
X82883767Y-92667683D01*
X82883337Y-92663293D01*
X82860946Y-92589130D01*
X82839356Y-92514819D01*
X82837328Y-92510906D01*
X82836054Y-92506687D01*
X82799699Y-92438312D01*
X82764074Y-92369584D01*
X82761325Y-92366141D01*
X82759255Y-92362247D01*
X82710308Y-92302233D01*
X82662014Y-92241736D01*
X82655962Y-92235598D01*
X82655862Y-92235476D01*
X82655749Y-92235382D01*
X82653797Y-92233403D01*
X81383797Y-90963403D01*
X81323959Y-90914252D01*
X81264655Y-90864490D01*
X81260794Y-90862367D01*
X81257387Y-90859569D01*
X81189169Y-90822991D01*
X81121302Y-90785681D01*
X81117098Y-90784347D01*
X81113216Y-90782266D01*
X81039158Y-90759623D01*
X80965372Y-90736217D01*
X80960997Y-90735726D01*
X80956777Y-90734436D01*
X80879721Y-90726610D01*
X80802803Y-90717982D01*
X80794179Y-90717922D01*
X80794026Y-90717906D01*
X80793883Y-90717920D01*
X80791100Y-90717900D01*
X80044253Y-90717900D01*
X79993004Y-90683332D01*
X79814495Y-90608294D01*
X79624811Y-90569357D01*
X79431176Y-90568005D01*
X79240967Y-90604290D01*
X79061428Y-90676828D01*
X78899397Y-90782858D01*
X78761048Y-90918340D01*
X78651648Y-91078115D01*
X78575365Y-91256095D01*
X78535105Y-91445503D01*
X78532402Y-91639123D01*
X78567357Y-91829581D01*
X78638641Y-92009623D01*
X78743537Y-92172389D01*
X78878050Y-92311682D01*
X79037056Y-92422194D01*
X79214500Y-92499717D01*
X79403622Y-92541299D01*
X79597219Y-92545354D01*
X79787916Y-92511729D01*
X79968451Y-92441704D01*
X80043148Y-92394300D01*
X80443906Y-92394300D01*
X80872634Y-92823028D01*
X78146100Y-92823028D01*
X78044979Y-92831092D01*
X77873466Y-92884206D01*
X77723541Y-92983000D01*
X77607075Y-93119650D01*
X77533290Y-93283337D01*
X77508028Y-93461100D01*
X77508028Y-98541100D01*
X77516092Y-98642221D01*
X77569206Y-98813734D01*
X77668000Y-98963659D01*
X77678843Y-98972900D01*
X70152326Y-98972900D01*
X70179337Y-98945889D01*
X70248830Y-98841885D01*
X70296697Y-98726323D01*
X70321100Y-98603642D01*
X70321100Y-96286850D01*
X70162350Y-96128100D01*
X68418100Y-96128100D01*
X68418100Y-99017350D01*
X68576850Y-99176100D01*
X68599158Y-99176100D01*
X68491648Y-99333115D01*
X68415365Y-99511095D01*
X68375105Y-99700503D01*
X68372402Y-99894123D01*
X68389797Y-99988900D01*
X60564294Y-99988900D01*
X59528574Y-98953180D01*
X59515931Y-98889329D01*
X59442141Y-98710301D01*
X59334983Y-98549014D01*
X59198538Y-98411614D01*
X59051596Y-98312500D01*
X59201100Y-98312500D01*
X59403376Y-98292667D01*
X59597947Y-98233922D01*
X59777402Y-98138504D01*
X59934906Y-98010047D01*
X60064460Y-97853443D01*
X60161128Y-97674659D01*
X60221230Y-97480503D01*
X60242475Y-97278370D01*
X60224054Y-97075961D01*
X60166669Y-96880985D01*
X60072506Y-96700868D01*
X59945152Y-96542471D01*
X59789457Y-96411827D01*
X59611351Y-96313912D01*
X59526041Y-96286850D01*
X66261100Y-96286850D01*
X66261100Y-98603642D01*
X66285503Y-98726323D01*
X66333370Y-98841885D01*
X66402863Y-98945889D01*
X66491311Y-99034337D01*
X66595315Y-99103830D01*
X66710877Y-99151697D01*
X66833558Y-99176100D01*
X68005350Y-99176100D01*
X68164100Y-99017350D01*
X68164100Y-96128100D01*
X66419850Y-96128100D01*
X66261100Y-96286850D01*
X59526041Y-96286850D01*
X59417619Y-96252457D01*
X59215640Y-96229802D01*
X59201100Y-96229700D01*
X58814172Y-96229700D01*
X58814172Y-93461100D01*
X58809185Y-93398558D01*
X66261100Y-93398558D01*
X66261100Y-95715350D01*
X66419850Y-95874100D01*
X68164100Y-95874100D01*
X68164100Y-92984850D01*
X68418100Y-92984850D01*
X68418100Y-95874100D01*
X70162350Y-95874100D01*
X70321100Y-95715350D01*
X70321100Y-93398558D01*
X70296697Y-93275877D01*
X70248830Y-93160315D01*
X70179337Y-93056311D01*
X70090889Y-92967863D01*
X69986885Y-92898370D01*
X69871323Y-92850503D01*
X69748642Y-92826100D01*
X68576850Y-92826100D01*
X68418100Y-92984850D01*
X68164100Y-92984850D01*
X68005350Y-92826100D01*
X66833558Y-92826100D01*
X66710877Y-92850503D01*
X66595315Y-92898370D01*
X66491311Y-92967863D01*
X66402863Y-93056311D01*
X66333370Y-93160315D01*
X66285503Y-93275877D01*
X66261100Y-93398558D01*
X58809185Y-93398558D01*
X58806108Y-93359979D01*
X58752994Y-93188466D01*
X58654200Y-93038541D01*
X58517550Y-92922075D01*
X58353863Y-92848290D01*
X58176100Y-92823028D01*
X57495790Y-92823028D01*
X56762481Y-92089719D01*
X56605426Y-91960712D01*
X56426305Y-91864669D01*
X56231940Y-91805246D01*
X56029735Y-91784706D01*
X55827391Y-91803834D01*
X55632617Y-91861898D01*
X55452829Y-91956689D01*
X55294877Y-92084596D01*
X55164778Y-92240746D01*
X55067487Y-92419193D01*
X55006708Y-92613138D01*
X54984757Y-92815194D01*
X54997481Y-92960635D01*
X54963541Y-92983000D01*
X54847075Y-93119650D01*
X54773290Y-93283337D01*
X54748028Y-93461100D01*
X54748028Y-98541100D01*
X54756092Y-98642221D01*
X54809206Y-98813734D01*
X54908000Y-98963659D01*
X55044650Y-99080125D01*
X55208337Y-99153910D01*
X55386100Y-99179172D01*
X55673518Y-99179172D01*
X55672402Y-99259123D01*
X55707357Y-99449581D01*
X55778641Y-99629623D01*
X55883537Y-99792389D01*
X56018050Y-99931682D01*
X56177056Y-100042194D01*
X56354500Y-100119717D01*
X56543622Y-100161299D01*
X56737219Y-100165354D01*
X56927916Y-100131729D01*
X57108451Y-100061704D01*
X57271946Y-99957947D01*
X57412174Y-99824410D01*
X57523794Y-99666178D01*
X57602554Y-99489280D01*
X57612007Y-99447673D01*
X57612357Y-99449581D01*
X57683641Y-99629623D01*
X57788537Y-99792389D01*
X57923050Y-99931682D01*
X58082056Y-100042194D01*
X58259500Y-100119717D01*
X58342592Y-100137986D01*
X59624403Y-101419797D01*
X59684268Y-101468971D01*
X59743545Y-101518710D01*
X59747403Y-101520831D01*
X59750813Y-101523632D01*
X59819104Y-101560249D01*
X59886898Y-101597519D01*
X59891098Y-101598851D01*
X59894984Y-101600935D01*
X59969075Y-101623587D01*
X60042828Y-101646983D01*
X60047204Y-101647474D01*
X60051424Y-101648764D01*
X60128519Y-101656595D01*
X60205397Y-101665218D01*
X60214010Y-101665278D01*
X60214174Y-101665295D01*
X60214327Y-101665281D01*
X60217100Y-101665300D01*
X76456922Y-101665300D01*
X76497056Y-101693194D01*
X76674500Y-101770717D01*
X76863622Y-101812299D01*
X77057219Y-101816354D01*
X77247916Y-101782729D01*
X77428451Y-101712704D01*
X77591946Y-101608947D01*
X77732174Y-101475410D01*
X77843794Y-101317178D01*
X77922554Y-101140280D01*
X77965454Y-100951453D01*
X77968543Y-100730280D01*
X77964508Y-100709902D01*
X78928403Y-101673797D01*
X79054812Y-101777631D01*
X79198984Y-101854934D01*
X79285960Y-101881526D01*
X79227719Y-102106375D01*
X79210016Y-102416077D01*
X79253073Y-102723284D01*
X79355235Y-103016186D01*
X79440377Y-103175477D01*
X79698622Y-103263970D01*
X79672592Y-103290000D01*
X40710000Y-103290000D01*
X40710000Y-96084123D01*
X45512402Y-96084123D01*
X45547357Y-96274581D01*
X45618641Y-96454623D01*
X45723537Y-96617389D01*
X45858050Y-96756682D01*
X46017056Y-96867194D01*
X46194500Y-96944717D01*
X46383622Y-96986299D01*
X46577219Y-96990354D01*
X46767916Y-96956729D01*
X46808726Y-96940900D01*
X47946137Y-96940900D01*
X47841644Y-97009278D01*
X47574725Y-97270665D01*
X47363659Y-97578919D01*
X47216486Y-97922298D01*
X47138813Y-98287724D01*
X47133596Y-98661278D01*
X47201037Y-99028730D01*
X47338564Y-99376085D01*
X47540941Y-99690112D01*
X47800458Y-99958850D01*
X48107231Y-100172062D01*
X48449574Y-100321629D01*
X48814449Y-100401851D01*
X49187957Y-100409675D01*
X49555871Y-100344802D01*
X49904177Y-100209703D01*
X50219610Y-100009524D01*
X50490153Y-99751889D01*
X50705502Y-99446612D01*
X50857455Y-99105321D01*
X50940223Y-98741015D01*
X50946181Y-98314305D01*
X50873617Y-97947830D01*
X50731253Y-97602430D01*
X50524512Y-97291259D01*
X50261268Y-97026170D01*
X50134850Y-96940900D01*
X50311100Y-96940900D01*
X50397510Y-96932428D01*
X50483978Y-96924863D01*
X50488724Y-96923484D01*
X50493641Y-96923002D01*
X50576727Y-96897916D01*
X50660111Y-96873691D01*
X50664499Y-96871416D01*
X50669230Y-96869988D01*
X50745873Y-96829236D01*
X50822952Y-96789282D01*
X50826815Y-96786199D01*
X50831177Y-96783879D01*
X50898454Y-96729010D01*
X50966295Y-96674853D01*
X50973172Y-96668071D01*
X50973315Y-96667955D01*
X50973424Y-96667823D01*
X50975639Y-96665639D01*
X52022117Y-95619161D01*
X52028451Y-95616704D01*
X52191946Y-95512947D01*
X52332174Y-95379410D01*
X52443794Y-95221178D01*
X52522554Y-95044280D01*
X52565454Y-94855453D01*
X52568543Y-94634280D01*
X52530931Y-94444329D01*
X52457141Y-94265301D01*
X52349983Y-94104014D01*
X52213538Y-93966614D01*
X52053004Y-93858332D01*
X51874495Y-93783294D01*
X51684811Y-93744357D01*
X51491176Y-93743005D01*
X51300967Y-93779290D01*
X51121428Y-93851828D01*
X50959397Y-93957858D01*
X50871374Y-94044057D01*
X50940223Y-93741015D01*
X50946181Y-93314305D01*
X50873617Y-92947830D01*
X50731253Y-92602430D01*
X50524512Y-92291259D01*
X50261268Y-92026170D01*
X49951548Y-91817262D01*
X49607149Y-91672490D01*
X49241190Y-91597369D01*
X48867610Y-91594761D01*
X48500637Y-91664765D01*
X48154251Y-91804714D01*
X47841644Y-92009278D01*
X47574725Y-92270665D01*
X47363659Y-92578919D01*
X47216486Y-92922298D01*
X47138813Y-93287724D01*
X47133596Y-93661278D01*
X47201037Y-94028730D01*
X47338564Y-94376085D01*
X47540941Y-94690112D01*
X47800458Y-94958850D01*
X47947865Y-95061300D01*
X46813541Y-95061300D01*
X46794495Y-95053294D01*
X46604811Y-95014357D01*
X46411176Y-95013005D01*
X46220967Y-95049290D01*
X46041428Y-95121828D01*
X45879397Y-95227858D01*
X45741048Y-95363340D01*
X45631648Y-95523115D01*
X45555365Y-95701095D01*
X45515105Y-95890503D01*
X45512402Y-96084123D01*
X40710000Y-96084123D01*
X40710000Y-88710000D01*
X164334704Y-88710000D01*
X179142517Y-96000000D01*
X179142517Y-96000000D01*
G37*
X179142517Y-96000000D02*
X164334704Y-103290000D01*
X87136060Y-103290000D01*
X87247006Y-103132723D01*
X87372620Y-102850589D01*
X87441042Y-102549430D01*
X87445968Y-102196683D01*
X87406465Y-101997178D01*
X87469500Y-102024717D01*
X87658622Y-102066299D01*
X87852219Y-102070354D01*
X88042916Y-102036729D01*
X88223451Y-101966704D01*
X88386946Y-101862947D01*
X88527174Y-101729410D01*
X88638794Y-101571178D01*
X88717554Y-101394280D01*
X88760454Y-101205453D01*
X88763543Y-100984280D01*
X88725931Y-100794329D01*
X88652141Y-100615301D01*
X88544983Y-100454014D01*
X88408538Y-100316614D01*
X88248004Y-100208332D01*
X88069495Y-100133294D01*
X87879811Y-100094357D01*
X87686176Y-100093005D01*
X87495967Y-100129290D01*
X87448972Y-100148277D01*
X87448972Y-98871300D01*
X87440908Y-98770179D01*
X87387794Y-98598666D01*
X87289000Y-98448741D01*
X87152350Y-98332275D01*
X86988663Y-98258490D01*
X86810900Y-98233228D01*
X84931300Y-98233228D01*
X84830179Y-98241292D01*
X84658666Y-98294406D01*
X84508741Y-98393200D01*
X84392275Y-98529850D01*
X84356669Y-98608839D01*
X84339772Y-98591824D01*
X84083737Y-98419127D01*
X83799034Y-98299448D01*
X83496508Y-98237349D01*
X83187681Y-98235193D01*
X82884317Y-98293062D01*
X82597971Y-98408754D01*
X82339550Y-98577860D01*
X82118896Y-98793940D01*
X82061637Y-98877564D01*
X82017388Y-98810964D01*
X81799772Y-98591824D01*
X81574172Y-98439656D01*
X81574172Y-98135190D01*
X81577056Y-98137194D01*
X81754500Y-98214717D01*
X81943622Y-98256299D01*
X82137219Y-98260354D01*
X82327916Y-98226729D01*
X82508451Y-98156704D01*
X82671946Y-98052947D01*
X82812174Y-97919410D01*
X82923794Y-97761178D01*
X83002554Y-97584280D01*
X83012007Y-97542673D01*
X83012357Y-97544581D01*
X83083641Y-97724623D01*
X83188537Y-97887389D01*
X83323050Y-98026682D01*
X83482056Y-98137194D01*
X83659500Y-98214717D01*
X83848622Y-98256299D01*
X84042219Y-98260354D01*
X84232916Y-98226729D01*
X84413451Y-98156704D01*
X84576946Y-98052947D01*
X84717174Y-97919410D01*
X84828794Y-97761178D01*
X84907554Y-97584280D01*
X84950454Y-97395453D01*
X84953543Y-97174280D01*
X84915931Y-96984329D01*
X84842141Y-96805301D01*
X84804300Y-96748345D01*
X84804300Y-94620901D01*
X84828794Y-94586178D01*
X84907554Y-94409280D01*
X84950454Y-94220453D01*
X84953543Y-93999280D01*
X84915931Y-93809329D01*
X84842141Y-93630301D01*
X84734983Y-93469014D01*
X84598538Y-93331614D01*
X84438004Y-93223332D01*
X84259495Y-93148294D01*
X84069811Y-93109357D01*
X83876176Y-93108005D01*
X83685967Y-93144290D01*
X83506428Y-93216828D01*
X83344397Y-93322858D01*
X83206048Y-93458340D01*
X83096648Y-93618115D01*
X83020365Y-93796095D01*
X82980105Y-93985503D01*
X82977402Y-94179123D01*
X83012357Y-94369581D01*
X83083641Y-94549623D01*
X83127900Y-94618299D01*
X83127900Y-96747473D01*
X83096648Y-96793115D01*
X83020365Y-96971095D01*
X83014124Y-97000456D01*
X83010931Y-96984329D01*
X82937141Y-96805301D01*
X82899300Y-96748345D01*
X82899300Y-92826100D01*
X82891741Y-92749006D01*
X82884996Y-92671912D01*
X82883767Y-92667683D01*
X82883337Y-92663293D01*
X82860946Y-92589130D01*
X82839356Y-92514819D01*
X82837328Y-92510906D01*
X82836054Y-92506687D01*
X82799699Y-92438312D01*
X82764074Y-92369584D01*
X82761325Y-92366141D01*
X82759255Y-92362247D01*
X82710308Y-92302233D01*
X82662014Y-92241736D01*
X82655962Y-92235598D01*
X82655862Y-92235476D01*
X82655749Y-92235382D01*
X82653797Y-92233403D01*
X81383797Y-90963403D01*
X81323959Y-90914252D01*
X81264655Y-90864490D01*
X81260794Y-90862367D01*
X81257387Y-90859569D01*
X81189169Y-90822991D01*
X81121302Y-90785681D01*
X81117098Y-90784347D01*
X81113216Y-90782266D01*
X81039158Y-90759623D01*
X80965372Y-90736217D01*
X80960997Y-90735726D01*
X80956777Y-90734436D01*
X80879721Y-90726610D01*
X80802803Y-90717982D01*
X80794179Y-90717922D01*
X80794026Y-90717906D01*
X80793883Y-90717920D01*
X80791100Y-90717900D01*
X80044253Y-90717900D01*
X79993004Y-90683332D01*
X79814495Y-90608294D01*
X79624811Y-90569357D01*
X79431176Y-90568005D01*
X79240967Y-90604290D01*
X79061428Y-90676828D01*
X78899397Y-90782858D01*
X78761048Y-90918340D01*
X78651648Y-91078115D01*
X78575365Y-91256095D01*
X78535105Y-91445503D01*
X78532402Y-91639123D01*
X78567357Y-91829581D01*
X78638641Y-92009623D01*
X78743537Y-92172389D01*
X78878050Y-92311682D01*
X79037056Y-92422194D01*
X79214500Y-92499717D01*
X79403622Y-92541299D01*
X79597219Y-92545354D01*
X79787916Y-92511729D01*
X79968451Y-92441704D01*
X80043148Y-92394300D01*
X80443906Y-92394300D01*
X80872634Y-92823028D01*
X78146100Y-92823028D01*
X78044979Y-92831092D01*
X77873466Y-92884206D01*
X77723541Y-92983000D01*
X77607075Y-93119650D01*
X77533290Y-93283337D01*
X77508028Y-93461100D01*
X77508028Y-98541100D01*
X77516092Y-98642221D01*
X77569206Y-98813734D01*
X77668000Y-98963659D01*
X77678843Y-98972900D01*
X70152326Y-98972900D01*
X70179337Y-98945889D01*
X70248830Y-98841885D01*
X70296697Y-98726323D01*
X70321100Y-98603642D01*
X70321100Y-96286850D01*
X70162350Y-96128100D01*
X68418100Y-96128100D01*
X68418100Y-99017350D01*
X68576850Y-99176100D01*
X68599158Y-99176100D01*
X68491648Y-99333115D01*
X68415365Y-99511095D01*
X68375105Y-99700503D01*
X68372402Y-99894123D01*
X68389797Y-99988900D01*
X60564294Y-99988900D01*
X59528574Y-98953180D01*
X59515931Y-98889329D01*
X59442141Y-98710301D01*
X59334983Y-98549014D01*
X59198538Y-98411614D01*
X59051596Y-98312500D01*
X59201100Y-98312500D01*
X59403376Y-98292667D01*
X59597947Y-98233922D01*
X59777402Y-98138504D01*
X59934906Y-98010047D01*
X60064460Y-97853443D01*
X60161128Y-97674659D01*
X60221230Y-97480503D01*
X60242475Y-97278370D01*
X60224054Y-97075961D01*
X60166669Y-96880985D01*
X60072506Y-96700868D01*
X59945152Y-96542471D01*
X59789457Y-96411827D01*
X59611351Y-96313912D01*
X59526041Y-96286850D01*
X66261100Y-96286850D01*
X66261100Y-98603642D01*
X66285503Y-98726323D01*
X66333370Y-98841885D01*
X66402863Y-98945889D01*
X66491311Y-99034337D01*
X66595315Y-99103830D01*
X66710877Y-99151697D01*
X66833558Y-99176100D01*
X68005350Y-99176100D01*
X68164100Y-99017350D01*
X68164100Y-96128100D01*
X66419850Y-96128100D01*
X66261100Y-96286850D01*
X59526041Y-96286850D01*
X59417619Y-96252457D01*
X59215640Y-96229802D01*
X59201100Y-96229700D01*
X58814172Y-96229700D01*
X58814172Y-93461100D01*
X58809185Y-93398558D01*
X66261100Y-93398558D01*
X66261100Y-95715350D01*
X66419850Y-95874100D01*
X68164100Y-95874100D01*
X68164100Y-92984850D01*
X68418100Y-92984850D01*
X68418100Y-95874100D01*
X70162350Y-95874100D01*
X70321100Y-95715350D01*
X70321100Y-93398558D01*
X70296697Y-93275877D01*
X70248830Y-93160315D01*
X70179337Y-93056311D01*
X70090889Y-92967863D01*
X69986885Y-92898370D01*
X69871323Y-92850503D01*
X69748642Y-92826100D01*
X68576850Y-92826100D01*
X68418100Y-92984850D01*
X68164100Y-92984850D01*
X68005350Y-92826100D01*
X66833558Y-92826100D01*
X66710877Y-92850503D01*
X66595315Y-92898370D01*
X66491311Y-92967863D01*
X66402863Y-93056311D01*
X66333370Y-93160315D01*
X66285503Y-93275877D01*
X66261100Y-93398558D01*
X58809185Y-93398558D01*
X58806108Y-93359979D01*
X58752994Y-93188466D01*
X58654200Y-93038541D01*
X58517550Y-92922075D01*
X58353863Y-92848290D01*
X58176100Y-92823028D01*
X57495790Y-92823028D01*
X56762481Y-92089719D01*
X56605426Y-91960712D01*
X56426305Y-91864669D01*
X56231940Y-91805246D01*
X56029735Y-91784706D01*
X55827391Y-91803834D01*
X55632617Y-91861898D01*
X55452829Y-91956689D01*
X55294877Y-92084596D01*
X55164778Y-92240746D01*
X55067487Y-92419193D01*
X55006708Y-92613138D01*
X54984757Y-92815194D01*
X54997481Y-92960635D01*
X54963541Y-92983000D01*
X54847075Y-93119650D01*
X54773290Y-93283337D01*
X54748028Y-93461100D01*
X54748028Y-98541100D01*
X54756092Y-98642221D01*
X54809206Y-98813734D01*
X54908000Y-98963659D01*
X55044650Y-99080125D01*
X55208337Y-99153910D01*
X55386100Y-99179172D01*
X55673518Y-99179172D01*
X55672402Y-99259123D01*
X55707357Y-99449581D01*
X55778641Y-99629623D01*
X55883537Y-99792389D01*
X56018050Y-99931682D01*
X56177056Y-100042194D01*
X56354500Y-100119717D01*
X56543622Y-100161299D01*
X56737219Y-100165354D01*
X56927916Y-100131729D01*
X57108451Y-100061704D01*
X57271946Y-99957947D01*
X57412174Y-99824410D01*
X57523794Y-99666178D01*
X57602554Y-99489280D01*
X57612007Y-99447673D01*
X57612357Y-99449581D01*
X57683641Y-99629623D01*
X57788537Y-99792389D01*
X57923050Y-99931682D01*
X58082056Y-100042194D01*
X58259500Y-100119717D01*
X58342592Y-100137986D01*
X59624403Y-101419797D01*
X59684268Y-101468971D01*
X59743545Y-101518710D01*
X59747403Y-101520831D01*
X59750813Y-101523632D01*
X59819104Y-101560249D01*
X59886898Y-101597519D01*
X59891098Y-101598851D01*
X59894984Y-101600935D01*
X59969075Y-101623587D01*
X60042828Y-101646983D01*
X60047204Y-101647474D01*
X60051424Y-101648764D01*
X60128519Y-101656595D01*
X60205397Y-101665218D01*
X60214010Y-101665278D01*
X60214174Y-101665295D01*
X60214327Y-101665281D01*
X60217100Y-101665300D01*
X76456922Y-101665300D01*
X76497056Y-101693194D01*
X76674500Y-101770717D01*
X76863622Y-101812299D01*
X77057219Y-101816354D01*
X77247916Y-101782729D01*
X77428451Y-101712704D01*
X77591946Y-101608947D01*
X77732174Y-101475410D01*
X77843794Y-101317178D01*
X77922554Y-101140280D01*
X77965454Y-100951453D01*
X77968543Y-100730280D01*
X77964508Y-100709902D01*
X78928403Y-101673797D01*
X79054812Y-101777631D01*
X79198984Y-101854934D01*
X79285960Y-101881526D01*
X79227719Y-102106375D01*
X79210016Y-102416077D01*
X79253073Y-102723284D01*
X79355235Y-103016186D01*
X79440377Y-103175477D01*
X79698622Y-103263970D01*
X79672592Y-103290000D01*
X40710000Y-103290000D01*
X40710000Y-96084123D01*
X45512402Y-96084123D01*
X45547357Y-96274581D01*
X45618641Y-96454623D01*
X45723537Y-96617389D01*
X45858050Y-96756682D01*
X46017056Y-96867194D01*
X46194500Y-96944717D01*
X46383622Y-96986299D01*
X46577219Y-96990354D01*
X46767916Y-96956729D01*
X46808726Y-96940900D01*
X47946137Y-96940900D01*
X47841644Y-97009278D01*
X47574725Y-97270665D01*
X47363659Y-97578919D01*
X47216486Y-97922298D01*
X47138813Y-98287724D01*
X47133596Y-98661278D01*
X47201037Y-99028730D01*
X47338564Y-99376085D01*
X47540941Y-99690112D01*
X47800458Y-99958850D01*
X48107231Y-100172062D01*
X48449574Y-100321629D01*
X48814449Y-100401851D01*
X49187957Y-100409675D01*
X49555871Y-100344802D01*
X49904177Y-100209703D01*
X50219610Y-100009524D01*
X50490153Y-99751889D01*
X50705502Y-99446612D01*
X50857455Y-99105321D01*
X50940223Y-98741015D01*
X50946181Y-98314305D01*
X50873617Y-97947830D01*
X50731253Y-97602430D01*
X50524512Y-97291259D01*
X50261268Y-97026170D01*
X50134850Y-96940900D01*
X50311100Y-96940900D01*
X50397510Y-96932428D01*
X50483978Y-96924863D01*
X50488724Y-96923484D01*
X50493641Y-96923002D01*
X50576727Y-96897916D01*
X50660111Y-96873691D01*
X50664499Y-96871416D01*
X50669230Y-96869988D01*
X50745873Y-96829236D01*
X50822952Y-96789282D01*
X50826815Y-96786199D01*
X50831177Y-96783879D01*
X50898454Y-96729010D01*
X50966295Y-96674853D01*
X50973172Y-96668071D01*
X50973315Y-96667955D01*
X50973424Y-96667823D01*
X50975639Y-96665639D01*
X52022117Y-95619161D01*
X52028451Y-95616704D01*
X52191946Y-95512947D01*
X52332174Y-95379410D01*
X52443794Y-95221178D01*
X52522554Y-95044280D01*
X52565454Y-94855453D01*
X52568543Y-94634280D01*
X52530931Y-94444329D01*
X52457141Y-94265301D01*
X52349983Y-94104014D01*
X52213538Y-93966614D01*
X52053004Y-93858332D01*
X51874495Y-93783294D01*
X51684811Y-93744357D01*
X51491176Y-93743005D01*
X51300967Y-93779290D01*
X51121428Y-93851828D01*
X50959397Y-93957858D01*
X50871374Y-94044057D01*
X50940223Y-93741015D01*
X50946181Y-93314305D01*
X50873617Y-92947830D01*
X50731253Y-92602430D01*
X50524512Y-92291259D01*
X50261268Y-92026170D01*
X49951548Y-91817262D01*
X49607149Y-91672490D01*
X49241190Y-91597369D01*
X48867610Y-91594761D01*
X48500637Y-91664765D01*
X48154251Y-91804714D01*
X47841644Y-92009278D01*
X47574725Y-92270665D01*
X47363659Y-92578919D01*
X47216486Y-92922298D01*
X47138813Y-93287724D01*
X47133596Y-93661278D01*
X47201037Y-94028730D01*
X47338564Y-94376085D01*
X47540941Y-94690112D01*
X47800458Y-94958850D01*
X47947865Y-95061300D01*
X46813541Y-95061300D01*
X46794495Y-95053294D01*
X46604811Y-95014357D01*
X46411176Y-95013005D01*
X46220967Y-95049290D01*
X46041428Y-95121828D01*
X45879397Y-95227858D01*
X45741048Y-95363340D01*
X45631648Y-95523115D01*
X45555365Y-95701095D01*
X45515105Y-95890503D01*
X45512402Y-96084123D01*
X40710000Y-96084123D01*
X40710000Y-88710000D01*
X164334704Y-88710000D01*
X179142517Y-96000000D01*
G36*
X80984848Y-102336958D02*
X80970705Y-102351100D01*
X80984848Y-102365243D01*
X80805243Y-102544848D01*
X80791100Y-102530705D01*
X80776958Y-102544848D01*
X80597353Y-102365243D01*
X80611495Y-102351100D01*
X80597353Y-102336958D01*
X80776958Y-102157353D01*
X80791100Y-102171495D01*
X80805243Y-102157353D01*
X80984848Y-102336958D01*
X80984848Y-102336958D01*
G37*
X80984848Y-102336958D02*
X80970705Y-102351100D01*
X80984848Y-102365243D01*
X80805243Y-102544848D01*
X80791100Y-102530705D01*
X80776958Y-102544848D01*
X80597353Y-102365243D01*
X80611495Y-102351100D01*
X80597353Y-102336958D01*
X80776958Y-102157353D01*
X80791100Y-102171495D01*
X80805243Y-102157353D01*
X80984848Y-102336958D01*
G36*
X179142517Y-112000000D02*
X164334704Y-119290000D01*
X87136060Y-119290000D01*
X87247006Y-119132723D01*
X87372620Y-118850589D01*
X87441042Y-118549430D01*
X87445968Y-118196683D01*
X87406465Y-117997178D01*
X87469500Y-118024717D01*
X87658622Y-118066299D01*
X87852219Y-118070354D01*
X88042916Y-118036729D01*
X88223451Y-117966704D01*
X88386946Y-117862947D01*
X88527174Y-117729410D01*
X88638794Y-117571178D01*
X88717554Y-117394280D01*
X88760454Y-117205453D01*
X88763543Y-116984280D01*
X88725931Y-116794329D01*
X88652141Y-116615301D01*
X88544983Y-116454014D01*
X88408538Y-116316614D01*
X88248004Y-116208332D01*
X88069495Y-116133294D01*
X87879811Y-116094357D01*
X87686176Y-116093005D01*
X87495967Y-116129290D01*
X87448972Y-116148277D01*
X87448972Y-114871300D01*
X87440908Y-114770179D01*
X87387794Y-114598666D01*
X87289000Y-114448741D01*
X87152350Y-114332275D01*
X86988663Y-114258490D01*
X86810900Y-114233228D01*
X84931300Y-114233228D01*
X84830179Y-114241292D01*
X84658666Y-114294406D01*
X84508741Y-114393200D01*
X84392275Y-114529850D01*
X84356669Y-114608839D01*
X84339772Y-114591824D01*
X84083737Y-114419127D01*
X83799034Y-114299448D01*
X83496508Y-114237349D01*
X83187681Y-114235193D01*
X82884317Y-114293062D01*
X82597971Y-114408754D01*
X82339550Y-114577860D01*
X82118896Y-114793940D01*
X82061637Y-114877564D01*
X82017388Y-114810964D01*
X81799772Y-114591824D01*
X81574172Y-114439656D01*
X81574172Y-114135190D01*
X81577056Y-114137194D01*
X81754500Y-114214717D01*
X81943622Y-114256299D01*
X82137219Y-114260354D01*
X82327916Y-114226729D01*
X82508451Y-114156704D01*
X82671946Y-114052947D01*
X82812174Y-113919410D01*
X82923794Y-113761178D01*
X83002554Y-113584280D01*
X83012007Y-113542673D01*
X83012357Y-113544581D01*
X83083641Y-113724623D01*
X83188537Y-113887389D01*
X83323050Y-114026682D01*
X83482056Y-114137194D01*
X83659500Y-114214717D01*
X83848622Y-114256299D01*
X84042219Y-114260354D01*
X84232916Y-114226729D01*
X84413451Y-114156704D01*
X84576946Y-114052947D01*
X84717174Y-113919410D01*
X84828794Y-113761178D01*
X84907554Y-113584280D01*
X84950454Y-113395453D01*
X84953543Y-113174280D01*
X84915931Y-112984329D01*
X84842141Y-112805301D01*
X84804300Y-112748345D01*
X84804300Y-110620901D01*
X84828794Y-110586178D01*
X84907554Y-110409280D01*
X84950454Y-110220453D01*
X84953543Y-109999280D01*
X84915931Y-109809329D01*
X84842141Y-109630301D01*
X84734983Y-109469014D01*
X84598538Y-109331614D01*
X84438004Y-109223332D01*
X84259495Y-109148294D01*
X84069811Y-109109357D01*
X83876176Y-109108005D01*
X83685967Y-109144290D01*
X83506428Y-109216828D01*
X83344397Y-109322858D01*
X83206048Y-109458340D01*
X83096648Y-109618115D01*
X83020365Y-109796095D01*
X82980105Y-109985503D01*
X82977402Y-110179123D01*
X83012357Y-110369581D01*
X83083641Y-110549623D01*
X83127900Y-110618299D01*
X83127900Y-112747473D01*
X83096648Y-112793115D01*
X83020365Y-112971095D01*
X83014124Y-113000456D01*
X83010931Y-112984329D01*
X82937141Y-112805301D01*
X82899300Y-112748345D01*
X82899300Y-108826100D01*
X82891741Y-108749006D01*
X82884996Y-108671912D01*
X82883767Y-108667683D01*
X82883337Y-108663293D01*
X82860946Y-108589130D01*
X82839356Y-108514819D01*
X82837328Y-108510906D01*
X82836054Y-108506687D01*
X82799699Y-108438312D01*
X82764074Y-108369584D01*
X82761325Y-108366141D01*
X82759255Y-108362247D01*
X82710308Y-108302233D01*
X82662014Y-108241736D01*
X82655962Y-108235598D01*
X82655862Y-108235476D01*
X82655749Y-108235382D01*
X82653797Y-108233403D01*
X81383797Y-106963403D01*
X81323959Y-106914252D01*
X81264655Y-106864490D01*
X81260794Y-106862367D01*
X81257387Y-106859569D01*
X81189169Y-106822991D01*
X81121302Y-106785681D01*
X81117098Y-106784347D01*
X81113216Y-106782266D01*
X81039158Y-106759623D01*
X80965372Y-106736217D01*
X80960997Y-106735726D01*
X80956777Y-106734436D01*
X80879721Y-106726610D01*
X80802803Y-106717982D01*
X80794179Y-106717922D01*
X80794026Y-106717906D01*
X80793883Y-106717920D01*
X80791100Y-106717900D01*
X80044253Y-106717900D01*
X79993004Y-106683332D01*
X79814495Y-106608294D01*
X79624811Y-106569357D01*
X79431176Y-106568005D01*
X79240967Y-106604290D01*
X79061428Y-106676828D01*
X78899397Y-106782858D01*
X78761048Y-106918340D01*
X78651648Y-107078115D01*
X78575365Y-107256095D01*
X78535105Y-107445503D01*
X78532402Y-107639123D01*
X78567357Y-107829581D01*
X78638641Y-108009623D01*
X78743537Y-108172389D01*
X78878050Y-108311682D01*
X79037056Y-108422194D01*
X79214500Y-108499717D01*
X79403622Y-108541299D01*
X79597219Y-108545354D01*
X79787916Y-108511729D01*
X79968451Y-108441704D01*
X80043148Y-108394300D01*
X80443906Y-108394300D01*
X80872634Y-108823028D01*
X78146100Y-108823028D01*
X78044979Y-108831092D01*
X77873466Y-108884206D01*
X77723541Y-108983000D01*
X77607075Y-109119650D01*
X77533290Y-109283337D01*
X77508028Y-109461100D01*
X77508028Y-114541100D01*
X77516092Y-114642221D01*
X77569206Y-114813734D01*
X77668000Y-114963659D01*
X77678843Y-114972900D01*
X70152326Y-114972900D01*
X70179337Y-114945889D01*
X70248830Y-114841885D01*
X70296697Y-114726323D01*
X70321100Y-114603642D01*
X70321100Y-112286850D01*
X70162350Y-112128100D01*
X68418100Y-112128100D01*
X68418100Y-115017350D01*
X68576850Y-115176100D01*
X68599158Y-115176100D01*
X68491648Y-115333115D01*
X68415365Y-115511095D01*
X68375105Y-115700503D01*
X68372402Y-115894123D01*
X68389797Y-115988900D01*
X60564294Y-115988900D01*
X59528574Y-114953180D01*
X59515931Y-114889329D01*
X59442141Y-114710301D01*
X59334983Y-114549014D01*
X59198538Y-114411614D01*
X59051596Y-114312500D01*
X59201100Y-114312500D01*
X59403376Y-114292667D01*
X59597947Y-114233922D01*
X59777402Y-114138504D01*
X59934906Y-114010047D01*
X60064460Y-113853443D01*
X60161128Y-113674659D01*
X60221230Y-113480503D01*
X60242475Y-113278370D01*
X60224054Y-113075961D01*
X60166669Y-112880985D01*
X60072506Y-112700868D01*
X59945152Y-112542471D01*
X59789457Y-112411827D01*
X59611351Y-112313912D01*
X59526041Y-112286850D01*
X66261100Y-112286850D01*
X66261100Y-114603642D01*
X66285503Y-114726323D01*
X66333370Y-114841885D01*
X66402863Y-114945889D01*
X66491311Y-115034337D01*
X66595315Y-115103830D01*
X66710877Y-115151697D01*
X66833558Y-115176100D01*
X68005350Y-115176100D01*
X68164100Y-115017350D01*
X68164100Y-112128100D01*
X66419850Y-112128100D01*
X66261100Y-112286850D01*
X59526041Y-112286850D01*
X59417619Y-112252457D01*
X59215640Y-112229802D01*
X59201100Y-112229700D01*
X58814172Y-112229700D01*
X58814172Y-109461100D01*
X58809185Y-109398558D01*
X66261100Y-109398558D01*
X66261100Y-111715350D01*
X66419850Y-111874100D01*
X68164100Y-111874100D01*
X68164100Y-108984850D01*
X68418100Y-108984850D01*
X68418100Y-111874100D01*
X70162350Y-111874100D01*
X70321100Y-111715350D01*
X70321100Y-109398558D01*
X70296697Y-109275877D01*
X70248830Y-109160315D01*
X70179337Y-109056311D01*
X70090889Y-108967863D01*
X69986885Y-108898370D01*
X69871323Y-108850503D01*
X69748642Y-108826100D01*
X68576850Y-108826100D01*
X68418100Y-108984850D01*
X68164100Y-108984850D01*
X68005350Y-108826100D01*
X66833558Y-108826100D01*
X66710877Y-108850503D01*
X66595315Y-108898370D01*
X66491311Y-108967863D01*
X66402863Y-109056311D01*
X66333370Y-109160315D01*
X66285503Y-109275877D01*
X66261100Y-109398558D01*
X58809185Y-109398558D01*
X58806108Y-109359979D01*
X58752994Y-109188466D01*
X58654200Y-109038541D01*
X58517550Y-108922075D01*
X58353863Y-108848290D01*
X58176100Y-108823028D01*
X57495790Y-108823028D01*
X56762481Y-108089719D01*
X56605426Y-107960712D01*
X56426305Y-107864669D01*
X56231940Y-107805246D01*
X56029735Y-107784706D01*
X55827391Y-107803834D01*
X55632617Y-107861898D01*
X55452829Y-107956689D01*
X55294877Y-108084596D01*
X55164778Y-108240746D01*
X55067487Y-108419193D01*
X55006708Y-108613138D01*
X54984757Y-108815194D01*
X54997481Y-108960635D01*
X54963541Y-108983000D01*
X54847075Y-109119650D01*
X54773290Y-109283337D01*
X54748028Y-109461100D01*
X54748028Y-114541100D01*
X54756092Y-114642221D01*
X54809206Y-114813734D01*
X54908000Y-114963659D01*
X55044650Y-115080125D01*
X55208337Y-115153910D01*
X55386100Y-115179172D01*
X55673518Y-115179172D01*
X55672402Y-115259123D01*
X55707357Y-115449581D01*
X55778641Y-115629623D01*
X55883537Y-115792389D01*
X56018050Y-115931682D01*
X56177056Y-116042194D01*
X56354500Y-116119717D01*
X56543622Y-116161299D01*
X56737219Y-116165354D01*
X56927916Y-116131729D01*
X57108451Y-116061704D01*
X57271946Y-115957947D01*
X57412174Y-115824410D01*
X57523794Y-115666178D01*
X57602554Y-115489280D01*
X57612007Y-115447673D01*
X57612357Y-115449581D01*
X57683641Y-115629623D01*
X57788537Y-115792389D01*
X57923050Y-115931682D01*
X58082056Y-116042194D01*
X58259500Y-116119717D01*
X58342592Y-116137986D01*
X59624403Y-117419797D01*
X59684268Y-117468971D01*
X59743545Y-117518710D01*
X59747403Y-117520831D01*
X59750813Y-117523632D01*
X59819104Y-117560249D01*
X59886898Y-117597519D01*
X59891098Y-117598851D01*
X59894984Y-117600935D01*
X59969075Y-117623587D01*
X60042828Y-117646983D01*
X60047204Y-117647474D01*
X60051424Y-117648764D01*
X60128519Y-117656595D01*
X60205397Y-117665218D01*
X60214010Y-117665278D01*
X60214174Y-117665295D01*
X60214327Y-117665281D01*
X60217100Y-117665300D01*
X76456922Y-117665300D01*
X76497056Y-117693194D01*
X76674500Y-117770717D01*
X76863622Y-117812299D01*
X77057219Y-117816354D01*
X77247916Y-117782729D01*
X77428451Y-117712704D01*
X77591946Y-117608947D01*
X77732174Y-117475410D01*
X77843794Y-117317178D01*
X77922554Y-117140280D01*
X77965454Y-116951453D01*
X77968543Y-116730280D01*
X77964508Y-116709902D01*
X78928403Y-117673797D01*
X79054812Y-117777631D01*
X79198984Y-117854934D01*
X79285960Y-117881526D01*
X79227719Y-118106375D01*
X79210016Y-118416077D01*
X79253073Y-118723284D01*
X79355235Y-119016186D01*
X79440377Y-119175477D01*
X79698622Y-119263970D01*
X79672592Y-119290000D01*
X40710000Y-119290000D01*
X40710000Y-112084123D01*
X45512402Y-112084123D01*
X45547357Y-112274581D01*
X45618641Y-112454623D01*
X45723537Y-112617389D01*
X45858050Y-112756682D01*
X46017056Y-112867194D01*
X46194500Y-112944717D01*
X46383622Y-112986299D01*
X46577219Y-112990354D01*
X46767916Y-112956729D01*
X46808726Y-112940900D01*
X47946137Y-112940900D01*
X47841644Y-113009278D01*
X47574725Y-113270665D01*
X47363659Y-113578919D01*
X47216486Y-113922298D01*
X47138813Y-114287724D01*
X47133596Y-114661278D01*
X47201037Y-115028730D01*
X47338564Y-115376085D01*
X47540941Y-115690112D01*
X47800458Y-115958850D01*
X48107231Y-116172062D01*
X48449574Y-116321629D01*
X48814449Y-116401851D01*
X49187957Y-116409675D01*
X49555871Y-116344802D01*
X49904177Y-116209703D01*
X50219610Y-116009524D01*
X50490153Y-115751889D01*
X50705502Y-115446612D01*
X50857455Y-115105321D01*
X50940223Y-114741015D01*
X50946181Y-114314305D01*
X50873617Y-113947830D01*
X50731253Y-113602430D01*
X50524512Y-113291259D01*
X50261268Y-113026170D01*
X50134850Y-112940900D01*
X50311100Y-112940900D01*
X50397510Y-112932428D01*
X50483978Y-112924863D01*
X50488724Y-112923484D01*
X50493641Y-112923002D01*
X50576727Y-112897916D01*
X50660111Y-112873691D01*
X50664499Y-112871416D01*
X50669230Y-112869988D01*
X50745873Y-112829236D01*
X50822952Y-112789282D01*
X50826815Y-112786199D01*
X50831177Y-112783879D01*
X50898454Y-112729010D01*
X50966295Y-112674853D01*
X50973172Y-112668071D01*
X50973315Y-112667955D01*
X50973424Y-112667823D01*
X50975639Y-112665639D01*
X52022117Y-111619161D01*
X52028451Y-111616704D01*
X52191946Y-111512947D01*
X52332174Y-111379410D01*
X52443794Y-111221178D01*
X52522554Y-111044280D01*
X52565454Y-110855453D01*
X52568543Y-110634280D01*
X52530931Y-110444329D01*
X52457141Y-110265301D01*
X52349983Y-110104014D01*
X52213538Y-109966614D01*
X52053004Y-109858332D01*
X51874495Y-109783294D01*
X51684811Y-109744357D01*
X51491176Y-109743005D01*
X51300967Y-109779290D01*
X51121428Y-109851828D01*
X50959397Y-109957858D01*
X50871374Y-110044057D01*
X50940223Y-109741015D01*
X50946181Y-109314305D01*
X50873617Y-108947830D01*
X50731253Y-108602430D01*
X50524512Y-108291259D01*
X50261268Y-108026170D01*
X49951548Y-107817262D01*
X49607149Y-107672490D01*
X49241190Y-107597369D01*
X48867610Y-107594761D01*
X48500637Y-107664765D01*
X48154251Y-107804714D01*
X47841644Y-108009278D01*
X47574725Y-108270665D01*
X47363659Y-108578919D01*
X47216486Y-108922298D01*
X47138813Y-109287724D01*
X47133596Y-109661278D01*
X47201037Y-110028730D01*
X47338564Y-110376085D01*
X47540941Y-110690112D01*
X47800458Y-110958850D01*
X47947865Y-111061300D01*
X46813541Y-111061300D01*
X46794495Y-111053294D01*
X46604811Y-111014357D01*
X46411176Y-111013005D01*
X46220967Y-111049290D01*
X46041428Y-111121828D01*
X45879397Y-111227858D01*
X45741048Y-111363340D01*
X45631648Y-111523115D01*
X45555365Y-111701095D01*
X45515105Y-111890503D01*
X45512402Y-112084123D01*
X40710000Y-112084123D01*
X40710000Y-104710000D01*
X164334704Y-104710000D01*
X179142517Y-112000000D01*
X179142517Y-112000000D01*
G37*
X179142517Y-112000000D02*
X164334704Y-119290000D01*
X87136060Y-119290000D01*
X87247006Y-119132723D01*
X87372620Y-118850589D01*
X87441042Y-118549430D01*
X87445968Y-118196683D01*
X87406465Y-117997178D01*
X87469500Y-118024717D01*
X87658622Y-118066299D01*
X87852219Y-118070354D01*
X88042916Y-118036729D01*
X88223451Y-117966704D01*
X88386946Y-117862947D01*
X88527174Y-117729410D01*
X88638794Y-117571178D01*
X88717554Y-117394280D01*
X88760454Y-117205453D01*
X88763543Y-116984280D01*
X88725931Y-116794329D01*
X88652141Y-116615301D01*
X88544983Y-116454014D01*
X88408538Y-116316614D01*
X88248004Y-116208332D01*
X88069495Y-116133294D01*
X87879811Y-116094357D01*
X87686176Y-116093005D01*
X87495967Y-116129290D01*
X87448972Y-116148277D01*
X87448972Y-114871300D01*
X87440908Y-114770179D01*
X87387794Y-114598666D01*
X87289000Y-114448741D01*
X87152350Y-114332275D01*
X86988663Y-114258490D01*
X86810900Y-114233228D01*
X84931300Y-114233228D01*
X84830179Y-114241292D01*
X84658666Y-114294406D01*
X84508741Y-114393200D01*
X84392275Y-114529850D01*
X84356669Y-114608839D01*
X84339772Y-114591824D01*
X84083737Y-114419127D01*
X83799034Y-114299448D01*
X83496508Y-114237349D01*
X83187681Y-114235193D01*
X82884317Y-114293062D01*
X82597971Y-114408754D01*
X82339550Y-114577860D01*
X82118896Y-114793940D01*
X82061637Y-114877564D01*
X82017388Y-114810964D01*
X81799772Y-114591824D01*
X81574172Y-114439656D01*
X81574172Y-114135190D01*
X81577056Y-114137194D01*
X81754500Y-114214717D01*
X81943622Y-114256299D01*
X82137219Y-114260354D01*
X82327916Y-114226729D01*
X82508451Y-114156704D01*
X82671946Y-114052947D01*
X82812174Y-113919410D01*
X82923794Y-113761178D01*
X83002554Y-113584280D01*
X83012007Y-113542673D01*
X83012357Y-113544581D01*
X83083641Y-113724623D01*
X83188537Y-113887389D01*
X83323050Y-114026682D01*
X83482056Y-114137194D01*
X83659500Y-114214717D01*
X83848622Y-114256299D01*
X84042219Y-114260354D01*
X84232916Y-114226729D01*
X84413451Y-114156704D01*
X84576946Y-114052947D01*
X84717174Y-113919410D01*
X84828794Y-113761178D01*
X84907554Y-113584280D01*
X84950454Y-113395453D01*
X84953543Y-113174280D01*
X84915931Y-112984329D01*
X84842141Y-112805301D01*
X84804300Y-112748345D01*
X84804300Y-110620901D01*
X84828794Y-110586178D01*
X84907554Y-110409280D01*
X84950454Y-110220453D01*
X84953543Y-109999280D01*
X84915931Y-109809329D01*
X84842141Y-109630301D01*
X84734983Y-109469014D01*
X84598538Y-109331614D01*
X84438004Y-109223332D01*
X84259495Y-109148294D01*
X84069811Y-109109357D01*
X83876176Y-109108005D01*
X83685967Y-109144290D01*
X83506428Y-109216828D01*
X83344397Y-109322858D01*
X83206048Y-109458340D01*
X83096648Y-109618115D01*
X83020365Y-109796095D01*
X82980105Y-109985503D01*
X82977402Y-110179123D01*
X83012357Y-110369581D01*
X83083641Y-110549623D01*
X83127900Y-110618299D01*
X83127900Y-112747473D01*
X83096648Y-112793115D01*
X83020365Y-112971095D01*
X83014124Y-113000456D01*
X83010931Y-112984329D01*
X82937141Y-112805301D01*
X82899300Y-112748345D01*
X82899300Y-108826100D01*
X82891741Y-108749006D01*
X82884996Y-108671912D01*
X82883767Y-108667683D01*
X82883337Y-108663293D01*
X82860946Y-108589130D01*
X82839356Y-108514819D01*
X82837328Y-108510906D01*
X82836054Y-108506687D01*
X82799699Y-108438312D01*
X82764074Y-108369584D01*
X82761325Y-108366141D01*
X82759255Y-108362247D01*
X82710308Y-108302233D01*
X82662014Y-108241736D01*
X82655962Y-108235598D01*
X82655862Y-108235476D01*
X82655749Y-108235382D01*
X82653797Y-108233403D01*
X81383797Y-106963403D01*
X81323959Y-106914252D01*
X81264655Y-106864490D01*
X81260794Y-106862367D01*
X81257387Y-106859569D01*
X81189169Y-106822991D01*
X81121302Y-106785681D01*
X81117098Y-106784347D01*
X81113216Y-106782266D01*
X81039158Y-106759623D01*
X80965372Y-106736217D01*
X80960997Y-106735726D01*
X80956777Y-106734436D01*
X80879721Y-106726610D01*
X80802803Y-106717982D01*
X80794179Y-106717922D01*
X80794026Y-106717906D01*
X80793883Y-106717920D01*
X80791100Y-106717900D01*
X80044253Y-106717900D01*
X79993004Y-106683332D01*
X79814495Y-106608294D01*
X79624811Y-106569357D01*
X79431176Y-106568005D01*
X79240967Y-106604290D01*
X79061428Y-106676828D01*
X78899397Y-106782858D01*
X78761048Y-106918340D01*
X78651648Y-107078115D01*
X78575365Y-107256095D01*
X78535105Y-107445503D01*
X78532402Y-107639123D01*
X78567357Y-107829581D01*
X78638641Y-108009623D01*
X78743537Y-108172389D01*
X78878050Y-108311682D01*
X79037056Y-108422194D01*
X79214500Y-108499717D01*
X79403622Y-108541299D01*
X79597219Y-108545354D01*
X79787916Y-108511729D01*
X79968451Y-108441704D01*
X80043148Y-108394300D01*
X80443906Y-108394300D01*
X80872634Y-108823028D01*
X78146100Y-108823028D01*
X78044979Y-108831092D01*
X77873466Y-108884206D01*
X77723541Y-108983000D01*
X77607075Y-109119650D01*
X77533290Y-109283337D01*
X77508028Y-109461100D01*
X77508028Y-114541100D01*
X77516092Y-114642221D01*
X77569206Y-114813734D01*
X77668000Y-114963659D01*
X77678843Y-114972900D01*
X70152326Y-114972900D01*
X70179337Y-114945889D01*
X70248830Y-114841885D01*
X70296697Y-114726323D01*
X70321100Y-114603642D01*
X70321100Y-112286850D01*
X70162350Y-112128100D01*
X68418100Y-112128100D01*
X68418100Y-115017350D01*
X68576850Y-115176100D01*
X68599158Y-115176100D01*
X68491648Y-115333115D01*
X68415365Y-115511095D01*
X68375105Y-115700503D01*
X68372402Y-115894123D01*
X68389797Y-115988900D01*
X60564294Y-115988900D01*
X59528574Y-114953180D01*
X59515931Y-114889329D01*
X59442141Y-114710301D01*
X59334983Y-114549014D01*
X59198538Y-114411614D01*
X59051596Y-114312500D01*
X59201100Y-114312500D01*
X59403376Y-114292667D01*
X59597947Y-114233922D01*
X59777402Y-114138504D01*
X59934906Y-114010047D01*
X60064460Y-113853443D01*
X60161128Y-113674659D01*
X60221230Y-113480503D01*
X60242475Y-113278370D01*
X60224054Y-113075961D01*
X60166669Y-112880985D01*
X60072506Y-112700868D01*
X59945152Y-112542471D01*
X59789457Y-112411827D01*
X59611351Y-112313912D01*
X59526041Y-112286850D01*
X66261100Y-112286850D01*
X66261100Y-114603642D01*
X66285503Y-114726323D01*
X66333370Y-114841885D01*
X66402863Y-114945889D01*
X66491311Y-115034337D01*
X66595315Y-115103830D01*
X66710877Y-115151697D01*
X66833558Y-115176100D01*
X68005350Y-115176100D01*
X68164100Y-115017350D01*
X68164100Y-112128100D01*
X66419850Y-112128100D01*
X66261100Y-112286850D01*
X59526041Y-112286850D01*
X59417619Y-112252457D01*
X59215640Y-112229802D01*
X59201100Y-112229700D01*
X58814172Y-112229700D01*
X58814172Y-109461100D01*
X58809185Y-109398558D01*
X66261100Y-109398558D01*
X66261100Y-111715350D01*
X66419850Y-111874100D01*
X68164100Y-111874100D01*
X68164100Y-108984850D01*
X68418100Y-108984850D01*
X68418100Y-111874100D01*
X70162350Y-111874100D01*
X70321100Y-111715350D01*
X70321100Y-109398558D01*
X70296697Y-109275877D01*
X70248830Y-109160315D01*
X70179337Y-109056311D01*
X70090889Y-108967863D01*
X69986885Y-108898370D01*
X69871323Y-108850503D01*
X69748642Y-108826100D01*
X68576850Y-108826100D01*
X68418100Y-108984850D01*
X68164100Y-108984850D01*
X68005350Y-108826100D01*
X66833558Y-108826100D01*
X66710877Y-108850503D01*
X66595315Y-108898370D01*
X66491311Y-108967863D01*
X66402863Y-109056311D01*
X66333370Y-109160315D01*
X66285503Y-109275877D01*
X66261100Y-109398558D01*
X58809185Y-109398558D01*
X58806108Y-109359979D01*
X58752994Y-109188466D01*
X58654200Y-109038541D01*
X58517550Y-108922075D01*
X58353863Y-108848290D01*
X58176100Y-108823028D01*
X57495790Y-108823028D01*
X56762481Y-108089719D01*
X56605426Y-107960712D01*
X56426305Y-107864669D01*
X56231940Y-107805246D01*
X56029735Y-107784706D01*
X55827391Y-107803834D01*
X55632617Y-107861898D01*
X55452829Y-107956689D01*
X55294877Y-108084596D01*
X55164778Y-108240746D01*
X55067487Y-108419193D01*
X55006708Y-108613138D01*
X54984757Y-108815194D01*
X54997481Y-108960635D01*
X54963541Y-108983000D01*
X54847075Y-109119650D01*
X54773290Y-109283337D01*
X54748028Y-109461100D01*
X54748028Y-114541100D01*
X54756092Y-114642221D01*
X54809206Y-114813734D01*
X54908000Y-114963659D01*
X55044650Y-115080125D01*
X55208337Y-115153910D01*
X55386100Y-115179172D01*
X55673518Y-115179172D01*
X55672402Y-115259123D01*
X55707357Y-115449581D01*
X55778641Y-115629623D01*
X55883537Y-115792389D01*
X56018050Y-115931682D01*
X56177056Y-116042194D01*
X56354500Y-116119717D01*
X56543622Y-116161299D01*
X56737219Y-116165354D01*
X56927916Y-116131729D01*
X57108451Y-116061704D01*
X57271946Y-115957947D01*
X57412174Y-115824410D01*
X57523794Y-115666178D01*
X57602554Y-115489280D01*
X57612007Y-115447673D01*
X57612357Y-115449581D01*
X57683641Y-115629623D01*
X57788537Y-115792389D01*
X57923050Y-115931682D01*
X58082056Y-116042194D01*
X58259500Y-116119717D01*
X58342592Y-116137986D01*
X59624403Y-117419797D01*
X59684268Y-117468971D01*
X59743545Y-117518710D01*
X59747403Y-117520831D01*
X59750813Y-117523632D01*
X59819104Y-117560249D01*
X59886898Y-117597519D01*
X59891098Y-117598851D01*
X59894984Y-117600935D01*
X59969075Y-117623587D01*
X60042828Y-117646983D01*
X60047204Y-117647474D01*
X60051424Y-117648764D01*
X60128519Y-117656595D01*
X60205397Y-117665218D01*
X60214010Y-117665278D01*
X60214174Y-117665295D01*
X60214327Y-117665281D01*
X60217100Y-117665300D01*
X76456922Y-117665300D01*
X76497056Y-117693194D01*
X76674500Y-117770717D01*
X76863622Y-117812299D01*
X77057219Y-117816354D01*
X77247916Y-117782729D01*
X77428451Y-117712704D01*
X77591946Y-117608947D01*
X77732174Y-117475410D01*
X77843794Y-117317178D01*
X77922554Y-117140280D01*
X77965454Y-116951453D01*
X77968543Y-116730280D01*
X77964508Y-116709902D01*
X78928403Y-117673797D01*
X79054812Y-117777631D01*
X79198984Y-117854934D01*
X79285960Y-117881526D01*
X79227719Y-118106375D01*
X79210016Y-118416077D01*
X79253073Y-118723284D01*
X79355235Y-119016186D01*
X79440377Y-119175477D01*
X79698622Y-119263970D01*
X79672592Y-119290000D01*
X40710000Y-119290000D01*
X40710000Y-112084123D01*
X45512402Y-112084123D01*
X45547357Y-112274581D01*
X45618641Y-112454623D01*
X45723537Y-112617389D01*
X45858050Y-112756682D01*
X46017056Y-112867194D01*
X46194500Y-112944717D01*
X46383622Y-112986299D01*
X46577219Y-112990354D01*
X46767916Y-112956729D01*
X46808726Y-112940900D01*
X47946137Y-112940900D01*
X47841644Y-113009278D01*
X47574725Y-113270665D01*
X47363659Y-113578919D01*
X47216486Y-113922298D01*
X47138813Y-114287724D01*
X47133596Y-114661278D01*
X47201037Y-115028730D01*
X47338564Y-115376085D01*
X47540941Y-115690112D01*
X47800458Y-115958850D01*
X48107231Y-116172062D01*
X48449574Y-116321629D01*
X48814449Y-116401851D01*
X49187957Y-116409675D01*
X49555871Y-116344802D01*
X49904177Y-116209703D01*
X50219610Y-116009524D01*
X50490153Y-115751889D01*
X50705502Y-115446612D01*
X50857455Y-115105321D01*
X50940223Y-114741015D01*
X50946181Y-114314305D01*
X50873617Y-113947830D01*
X50731253Y-113602430D01*
X50524512Y-113291259D01*
X50261268Y-113026170D01*
X50134850Y-112940900D01*
X50311100Y-112940900D01*
X50397510Y-112932428D01*
X50483978Y-112924863D01*
X50488724Y-112923484D01*
X50493641Y-112923002D01*
X50576727Y-112897916D01*
X50660111Y-112873691D01*
X50664499Y-112871416D01*
X50669230Y-112869988D01*
X50745873Y-112829236D01*
X50822952Y-112789282D01*
X50826815Y-112786199D01*
X50831177Y-112783879D01*
X50898454Y-112729010D01*
X50966295Y-112674853D01*
X50973172Y-112668071D01*
X50973315Y-112667955D01*
X50973424Y-112667823D01*
X50975639Y-112665639D01*
X52022117Y-111619161D01*
X52028451Y-111616704D01*
X52191946Y-111512947D01*
X52332174Y-111379410D01*
X52443794Y-111221178D01*
X52522554Y-111044280D01*
X52565454Y-110855453D01*
X52568543Y-110634280D01*
X52530931Y-110444329D01*
X52457141Y-110265301D01*
X52349983Y-110104014D01*
X52213538Y-109966614D01*
X52053004Y-109858332D01*
X51874495Y-109783294D01*
X51684811Y-109744357D01*
X51491176Y-109743005D01*
X51300967Y-109779290D01*
X51121428Y-109851828D01*
X50959397Y-109957858D01*
X50871374Y-110044057D01*
X50940223Y-109741015D01*
X50946181Y-109314305D01*
X50873617Y-108947830D01*
X50731253Y-108602430D01*
X50524512Y-108291259D01*
X50261268Y-108026170D01*
X49951548Y-107817262D01*
X49607149Y-107672490D01*
X49241190Y-107597369D01*
X48867610Y-107594761D01*
X48500637Y-107664765D01*
X48154251Y-107804714D01*
X47841644Y-108009278D01*
X47574725Y-108270665D01*
X47363659Y-108578919D01*
X47216486Y-108922298D01*
X47138813Y-109287724D01*
X47133596Y-109661278D01*
X47201037Y-110028730D01*
X47338564Y-110376085D01*
X47540941Y-110690112D01*
X47800458Y-110958850D01*
X47947865Y-111061300D01*
X46813541Y-111061300D01*
X46794495Y-111053294D01*
X46604811Y-111014357D01*
X46411176Y-111013005D01*
X46220967Y-111049290D01*
X46041428Y-111121828D01*
X45879397Y-111227858D01*
X45741048Y-111363340D01*
X45631648Y-111523115D01*
X45555365Y-111701095D01*
X45515105Y-111890503D01*
X45512402Y-112084123D01*
X40710000Y-112084123D01*
X40710000Y-104710000D01*
X164334704Y-104710000D01*
X179142517Y-112000000D01*
G36*
X80984848Y-118336958D02*
X80970705Y-118351100D01*
X80984848Y-118365243D01*
X80805243Y-118544848D01*
X80791100Y-118530705D01*
X80776958Y-118544848D01*
X80597353Y-118365243D01*
X80611495Y-118351100D01*
X80597353Y-118336958D01*
X80776958Y-118157353D01*
X80791100Y-118171495D01*
X80805243Y-118157353D01*
X80984848Y-118336958D01*
X80984848Y-118336958D01*
G37*
X80984848Y-118336958D02*
X80970705Y-118351100D01*
X80984848Y-118365243D01*
X80805243Y-118544848D01*
X80791100Y-118530705D01*
X80776958Y-118544848D01*
X80597353Y-118365243D01*
X80611495Y-118351100D01*
X80597353Y-118336958D01*
X80776958Y-118157353D01*
X80791100Y-118171495D01*
X80805243Y-118157353D01*
X80984848Y-118336958D01*
G36*
X180544000Y-124544000D02*
X40456000Y-124544000D01*
X40456000Y-122823003D01*
X53368718Y-122823003D01*
X53616499Y-123422680D01*
X54074907Y-123881888D01*
X54674151Y-124130716D01*
X55323003Y-124131282D01*
X55922680Y-123883501D01*
X56381888Y-123425093D01*
X56630716Y-122825849D01*
X56631282Y-122176997D01*
X56383501Y-121577320D01*
X55925093Y-121118112D01*
X55325849Y-120869284D01*
X54676997Y-120868718D01*
X54077320Y-121116499D01*
X53618112Y-121574907D01*
X53369284Y-122174151D01*
X53368718Y-122823003D01*
X40456000Y-122823003D01*
X40456000Y-120456000D01*
X180544000Y-120456000D01*
X180544000Y-124544000D01*
X180544000Y-124544000D01*
G37*
X180544000Y-124544000D02*
X40456000Y-124544000D01*
X40456000Y-122823003D01*
X53368718Y-122823003D01*
X53616499Y-123422680D01*
X54074907Y-123881888D01*
X54674151Y-124130716D01*
X55323003Y-124131282D01*
X55922680Y-123883501D01*
X56381888Y-123425093D01*
X56630716Y-122825849D01*
X56631282Y-122176997D01*
X56383501Y-121577320D01*
X55925093Y-121118112D01*
X55325849Y-120869284D01*
X54676997Y-120868718D01*
X54077320Y-121116499D01*
X53618112Y-121574907D01*
X53369284Y-122174151D01*
X53368718Y-122823003D01*
X40456000Y-122823003D01*
X40456000Y-120456000D01*
X180544000Y-120456000D01*
X180544000Y-124544000D01*
G36*
X180544000Y-39544000D02*
X40456000Y-39544000D01*
X40456000Y-37823003D01*
X165868718Y-37823003D01*
X166116499Y-38422680D01*
X166574907Y-38881888D01*
X167174151Y-39130716D01*
X167823003Y-39131282D01*
X168422680Y-38883501D01*
X168881888Y-38425093D01*
X169130716Y-37825849D01*
X169131282Y-37176997D01*
X168883501Y-36577320D01*
X168425093Y-36118112D01*
X167825849Y-35869284D01*
X167176997Y-35868718D01*
X166577320Y-36116499D01*
X166118112Y-36574907D01*
X165869284Y-37174151D01*
X165868718Y-37823003D01*
X40456000Y-37823003D01*
X40456000Y-35456000D01*
X180544000Y-35456000D01*
X180544000Y-39544000D01*
X180544000Y-39544000D01*
G37*
X180544000Y-39544000D02*
X40456000Y-39544000D01*
X40456000Y-37823003D01*
X165868718Y-37823003D01*
X166116499Y-38422680D01*
X166574907Y-38881888D01*
X167174151Y-39130716D01*
X167823003Y-39131282D01*
X168422680Y-38883501D01*
X168881888Y-38425093D01*
X169130716Y-37825849D01*
X169131282Y-37176997D01*
X168883501Y-36577320D01*
X168425093Y-36118112D01*
X167825849Y-35869284D01*
X167176997Y-35868718D01*
X166577320Y-36116499D01*
X166118112Y-36574907D01*
X165869284Y-37174151D01*
X165868718Y-37823003D01*
X40456000Y-37823003D01*
X40456000Y-35456000D01*
X180544000Y-35456000D01*
X180544000Y-39544000D01*
M02*
