G04 #@! TF.FileFunction,Legend,Bot*
%FSLAX46Y46*%
G04 Gerber Fmt 4.6, Leading zero omitted, Abs format (unit mm)*
G04 Created by KiCad (PCBNEW (2015-09-30 BZR 6232)-product) date Fri 09 Oct 2015 11:18:26 AM EEST*
%MOMM*%
G01*
G04 APERTURE LIST*
%ADD10C,0.100000*%
%ADD11C,0.304800*%
%ADD12C,0.010000*%
%ADD13R,2.279600X2.279600*%
%ADD14C,2.279600*%
%ADD15C,2.940000*%
%ADD16R,3.190000X5.480000*%
G04 APERTURE END LIST*
D10*
D11*
X92111033Y-51105948D02*
X91927186Y-51014024D01*
X91559490Y-51014024D01*
X91375643Y-51105948D01*
X91283719Y-51197871D01*
X91191795Y-51381719D01*
X91191795Y-51933262D01*
X91283719Y-52117110D01*
X91375643Y-52209033D01*
X91559490Y-52300957D01*
X91927186Y-52300957D01*
X92111033Y-52209033D01*
X92938348Y-51014024D02*
X92938348Y-52944424D01*
X93765662Y-51014024D02*
X93765662Y-52025186D01*
X93673739Y-52209033D01*
X93489891Y-52300957D01*
X93214119Y-52300957D01*
X93030272Y-52209033D01*
X92938348Y-52117110D01*
X94684900Y-51014024D02*
X94684900Y-52300957D01*
X94684900Y-52944424D02*
X94592976Y-52852500D01*
X94684900Y-52760576D01*
X94776824Y-52852500D01*
X94684900Y-52944424D01*
X94684900Y-52760576D01*
X95604138Y-51014024D02*
X95604138Y-52300957D01*
X95604138Y-51933262D02*
X95696062Y-52117110D01*
X95787986Y-52209033D01*
X95971833Y-52300957D01*
X96155681Y-52300957D01*
X96799148Y-52300957D02*
X96799148Y-50370557D01*
X96799148Y-52209033D02*
X96982996Y-52300957D01*
X97350691Y-52300957D01*
X97534539Y-52209033D01*
X97626462Y-52117110D01*
X97718386Y-51933262D01*
X97718386Y-51381719D01*
X97626462Y-51197871D01*
X97534539Y-51105948D01*
X97350691Y-51014024D01*
X96982996Y-51014024D01*
X96799148Y-51105948D01*
X98545700Y-51197871D02*
X98637624Y-51105948D01*
X98545700Y-51014024D01*
X98453776Y-51105948D01*
X98545700Y-51197871D01*
X98545700Y-51014024D01*
X98545700Y-51749414D02*
X98453776Y-52852500D01*
X98545700Y-52944424D01*
X98637624Y-52852500D01*
X98545700Y-51749414D01*
X98545700Y-52944424D01*
X92111033Y-67105948D02*
X91927186Y-67014024D01*
X91559490Y-67014024D01*
X91375643Y-67105948D01*
X91283719Y-67197871D01*
X91191795Y-67381719D01*
X91191795Y-67933262D01*
X91283719Y-68117110D01*
X91375643Y-68209033D01*
X91559490Y-68300957D01*
X91927186Y-68300957D01*
X92111033Y-68209033D01*
X92938348Y-67014024D02*
X92938348Y-68944424D01*
X93765662Y-67014024D02*
X93765662Y-68025186D01*
X93673739Y-68209033D01*
X93489891Y-68300957D01*
X93214119Y-68300957D01*
X93030272Y-68209033D01*
X92938348Y-68117110D01*
X94684900Y-67014024D02*
X94684900Y-68300957D01*
X94684900Y-68944424D02*
X94592976Y-68852500D01*
X94684900Y-68760576D01*
X94776824Y-68852500D01*
X94684900Y-68944424D01*
X94684900Y-68760576D01*
X95604138Y-67014024D02*
X95604138Y-68300957D01*
X95604138Y-67933262D02*
X95696062Y-68117110D01*
X95787986Y-68209033D01*
X95971833Y-68300957D01*
X96155681Y-68300957D01*
X96799148Y-68300957D02*
X96799148Y-66370557D01*
X96799148Y-68209033D02*
X96982996Y-68300957D01*
X97350691Y-68300957D01*
X97534539Y-68209033D01*
X97626462Y-68117110D01*
X97718386Y-67933262D01*
X97718386Y-67381719D01*
X97626462Y-67197871D01*
X97534539Y-67105948D01*
X97350691Y-67014024D01*
X96982996Y-67014024D01*
X96799148Y-67105948D01*
X98545700Y-67197871D02*
X98637624Y-67105948D01*
X98545700Y-67014024D01*
X98453776Y-67105948D01*
X98545700Y-67197871D01*
X98545700Y-67014024D01*
X98545700Y-67749414D02*
X98453776Y-68852500D01*
X98545700Y-68944424D01*
X98637624Y-68852500D01*
X98545700Y-67749414D01*
X98545700Y-68944424D01*
X92111033Y-83105948D02*
X91927186Y-83014024D01*
X91559490Y-83014024D01*
X91375643Y-83105948D01*
X91283719Y-83197871D01*
X91191795Y-83381719D01*
X91191795Y-83933262D01*
X91283719Y-84117110D01*
X91375643Y-84209033D01*
X91559490Y-84300957D01*
X91927186Y-84300957D01*
X92111033Y-84209033D01*
X92938348Y-83014024D02*
X92938348Y-84944424D01*
X93765662Y-83014024D02*
X93765662Y-84025186D01*
X93673739Y-84209033D01*
X93489891Y-84300957D01*
X93214119Y-84300957D01*
X93030272Y-84209033D01*
X92938348Y-84117110D01*
X94684900Y-83014024D02*
X94684900Y-84300957D01*
X94684900Y-84944424D02*
X94592976Y-84852500D01*
X94684900Y-84760576D01*
X94776824Y-84852500D01*
X94684900Y-84944424D01*
X94684900Y-84760576D01*
X95604138Y-83014024D02*
X95604138Y-84300957D01*
X95604138Y-83933262D02*
X95696062Y-84117110D01*
X95787986Y-84209033D01*
X95971833Y-84300957D01*
X96155681Y-84300957D01*
X96799148Y-84300957D02*
X96799148Y-82370557D01*
X96799148Y-84209033D02*
X96982996Y-84300957D01*
X97350691Y-84300957D01*
X97534539Y-84209033D01*
X97626462Y-84117110D01*
X97718386Y-83933262D01*
X97718386Y-83381719D01*
X97626462Y-83197871D01*
X97534539Y-83105948D01*
X97350691Y-83014024D01*
X96982996Y-83014024D01*
X96799148Y-83105948D01*
X98545700Y-83197871D02*
X98637624Y-83105948D01*
X98545700Y-83014024D01*
X98453776Y-83105948D01*
X98545700Y-83197871D01*
X98545700Y-83014024D01*
X98545700Y-83749414D02*
X98453776Y-84852500D01*
X98545700Y-84944424D01*
X98637624Y-84852500D01*
X98545700Y-83749414D01*
X98545700Y-84944424D01*
X92111033Y-99105948D02*
X91927186Y-99014024D01*
X91559490Y-99014024D01*
X91375643Y-99105948D01*
X91283719Y-99197871D01*
X91191795Y-99381719D01*
X91191795Y-99933262D01*
X91283719Y-100117110D01*
X91375643Y-100209033D01*
X91559490Y-100300957D01*
X91927186Y-100300957D01*
X92111033Y-100209033D01*
X92938348Y-99014024D02*
X92938348Y-100944424D01*
X93765662Y-99014024D02*
X93765662Y-100025186D01*
X93673739Y-100209033D01*
X93489891Y-100300957D01*
X93214119Y-100300957D01*
X93030272Y-100209033D01*
X92938348Y-100117110D01*
X94684900Y-99014024D02*
X94684900Y-100300957D01*
X94684900Y-100944424D02*
X94592976Y-100852500D01*
X94684900Y-100760576D01*
X94776824Y-100852500D01*
X94684900Y-100944424D01*
X94684900Y-100760576D01*
X95604138Y-99014024D02*
X95604138Y-100300957D01*
X95604138Y-99933262D02*
X95696062Y-100117110D01*
X95787986Y-100209033D01*
X95971833Y-100300957D01*
X96155681Y-100300957D01*
X96799148Y-100300957D02*
X96799148Y-98370557D01*
X96799148Y-100209033D02*
X96982996Y-100300957D01*
X97350691Y-100300957D01*
X97534539Y-100209033D01*
X97626462Y-100117110D01*
X97718386Y-99933262D01*
X97718386Y-99381719D01*
X97626462Y-99197871D01*
X97534539Y-99105948D01*
X97350691Y-99014024D01*
X96982996Y-99014024D01*
X96799148Y-99105948D01*
X98545700Y-99197871D02*
X98637624Y-99105948D01*
X98545700Y-99014024D01*
X98453776Y-99105948D01*
X98545700Y-99197871D01*
X98545700Y-99014024D01*
X98545700Y-99749414D02*
X98453776Y-100852500D01*
X98545700Y-100944424D01*
X98637624Y-100852500D01*
X98545700Y-99749414D01*
X98545700Y-100944424D01*
X92111033Y-115105948D02*
X91927186Y-115014024D01*
X91559490Y-115014024D01*
X91375643Y-115105948D01*
X91283719Y-115197871D01*
X91191795Y-115381719D01*
X91191795Y-115933262D01*
X91283719Y-116117110D01*
X91375643Y-116209033D01*
X91559490Y-116300957D01*
X91927186Y-116300957D01*
X92111033Y-116209033D01*
X92938348Y-115014024D02*
X92938348Y-116944424D01*
X93765662Y-115014024D02*
X93765662Y-116025186D01*
X93673739Y-116209033D01*
X93489891Y-116300957D01*
X93214119Y-116300957D01*
X93030272Y-116209033D01*
X92938348Y-116117110D01*
X94684900Y-115014024D02*
X94684900Y-116300957D01*
X94684900Y-116944424D02*
X94592976Y-116852500D01*
X94684900Y-116760576D01*
X94776824Y-116852500D01*
X94684900Y-116944424D01*
X94684900Y-116760576D01*
X95604138Y-115014024D02*
X95604138Y-116300957D01*
X95604138Y-115933262D02*
X95696062Y-116117110D01*
X95787986Y-116209033D01*
X95971833Y-116300957D01*
X96155681Y-116300957D01*
X96799148Y-116300957D02*
X96799148Y-114370557D01*
X96799148Y-116209033D02*
X96982996Y-116300957D01*
X97350691Y-116300957D01*
X97534539Y-116209033D01*
X97626462Y-116117110D01*
X97718386Y-115933262D01*
X97718386Y-115381719D01*
X97626462Y-115197871D01*
X97534539Y-115105948D01*
X97350691Y-115014024D01*
X96982996Y-115014024D01*
X96799148Y-115105948D01*
X98545700Y-115197871D02*
X98637624Y-115105948D01*
X98545700Y-115014024D01*
X98453776Y-115105948D01*
X98545700Y-115197871D01*
X98545700Y-115014024D01*
X98545700Y-115749414D02*
X98453776Y-116852500D01*
X98545700Y-116944424D01*
X98637624Y-116852500D01*
X98545700Y-115749414D01*
X98545700Y-116944424D01*
D12*
G36*
X126977643Y-41562140D02*
X126983798Y-41650000D01*
X127080153Y-41900108D01*
X127171523Y-41944371D01*
X127322559Y-41804827D01*
X127356907Y-41650000D01*
X127408991Y-41589739D01*
X127516884Y-41807236D01*
X127550278Y-41905195D01*
X127640935Y-42303414D01*
X127629127Y-42548779D01*
X127619704Y-42561532D01*
X127418051Y-42605629D01*
X126952257Y-42643970D01*
X126294604Y-42672099D01*
X125620346Y-42684814D01*
X124794477Y-42696860D01*
X124245995Y-42722576D01*
X123915882Y-42772089D01*
X123745117Y-42855528D01*
X123674684Y-42983019D01*
X123666380Y-43020111D01*
X123590301Y-43226838D01*
X123466701Y-43120263D01*
X123456400Y-43104217D01*
X123348438Y-43021303D01*
X123306803Y-43246351D01*
X123305224Y-43332120D01*
X123238436Y-43682724D01*
X123005126Y-43793737D01*
X122966225Y-43794702D01*
X122692243Y-43689524D01*
X122629801Y-43542385D01*
X122489563Y-43336898D01*
X122293377Y-43290067D01*
X122019395Y-43395245D01*
X121956953Y-43542385D01*
X121891208Y-43675029D01*
X121653497Y-43753106D01*
X121183109Y-43788661D01*
X120685436Y-43794702D01*
X120062225Y-43813435D01*
X119649490Y-43864405D01*
X119506242Y-43939775D01*
X119510396Y-43950804D01*
X119458239Y-44118692D01*
X119293532Y-44206355D01*
X119049791Y-44381159D01*
X118821545Y-44684347D01*
X118671270Y-45003717D01*
X118661435Y-45227064D01*
X118705370Y-45262723D01*
X119309715Y-45576716D01*
X119785038Y-46025347D01*
X120024444Y-46494872D01*
X120055917Y-46925675D01*
X119886022Y-47182115D01*
X119467874Y-47301864D01*
X118991788Y-47324577D01*
X118453214Y-47399255D01*
X118085943Y-47589047D01*
X117955284Y-47849298D01*
X118003973Y-48000000D01*
X118006904Y-48267070D01*
X117919867Y-48420530D01*
X117803770Y-48704395D01*
X117831025Y-48833396D01*
X117824945Y-49086209D01*
X117677294Y-49382829D01*
X117474279Y-49845281D01*
X117415231Y-50224184D01*
X117361848Y-50566339D01*
X117137173Y-50683991D01*
X116978602Y-50691391D01*
X116495786Y-50611543D01*
X116095490Y-50459565D01*
X115603455Y-50219550D01*
X115228476Y-50052605D01*
X114845921Y-49887593D01*
X114296267Y-49643979D01*
X113860438Y-49447768D01*
X113428027Y-49261590D01*
X115060264Y-49261590D01*
X115144370Y-49345696D01*
X115228476Y-49261590D01*
X115144370Y-49177484D01*
X115060264Y-49261590D01*
X113428027Y-49261590D01*
X113319551Y-49214885D01*
X112938112Y-49113158D01*
X112572191Y-49128344D01*
X112077855Y-49246198D01*
X112010107Y-49264641D01*
X111311009Y-49448645D01*
X110585019Y-49629397D01*
X110308278Y-49694713D01*
X109845782Y-49826769D01*
X109557311Y-49958868D01*
X109509271Y-50017284D01*
X109356297Y-50108836D01*
X108952400Y-50222417D01*
X108380114Y-50335493D01*
X108289735Y-50350243D01*
X107334997Y-50520065D01*
X106664047Y-50710811D01*
X106225785Y-50975557D01*
X105969114Y-51367379D01*
X105842937Y-51939351D01*
X105796156Y-52744551D01*
X105791700Y-52944977D01*
X105757668Y-53657862D01*
X105696103Y-54154601D01*
X105620585Y-54411295D01*
X105544692Y-54404048D01*
X105482006Y-54108961D01*
X105447343Y-53550994D01*
X105417349Y-52457616D01*
X105318608Y-53381324D01*
X105231182Y-53948106D01*
X105103255Y-54251611D01*
X104911538Y-54363564D01*
X104702864Y-54363833D01*
X104731905Y-54186762D01*
X104785379Y-54081710D01*
X104901902Y-53699347D01*
X104966767Y-53168456D01*
X104971243Y-53015364D01*
X105048517Y-52395231D01*
X105237025Y-51729828D01*
X105312391Y-51545585D01*
X105515037Y-50992904D01*
X105510199Y-50674946D01*
X105476908Y-50628830D01*
X105366684Y-50345547D01*
X105313872Y-49858707D01*
X105315397Y-49682120D01*
X105808609Y-49682120D01*
X105870155Y-49820577D01*
X105920750Y-49794261D01*
X105940882Y-49594633D01*
X105920750Y-49569978D01*
X105820748Y-49593069D01*
X105808609Y-49682120D01*
X105315397Y-49682120D01*
X105318731Y-49296284D01*
X105357856Y-48978459D01*
X108888828Y-48978459D01*
X109024449Y-49075547D01*
X109048008Y-49087745D01*
X109394520Y-49187765D01*
X109838373Y-49137354D01*
X110182119Y-49039728D01*
X110807034Y-48851541D01*
X111532894Y-48646990D01*
X111864238Y-48558471D01*
X112141594Y-48484669D01*
X113966887Y-48484669D01*
X114363999Y-48831077D01*
X114713654Y-49111671D01*
X114872164Y-49167855D01*
X114892052Y-49112724D01*
X114784095Y-49009272D01*
X116910596Y-49009272D01*
X116972142Y-49147729D01*
X117022737Y-49121413D01*
X117042869Y-48921785D01*
X117022737Y-48897131D01*
X116922735Y-48920221D01*
X116910596Y-49009272D01*
X114784095Y-49009272D01*
X114764638Y-48990627D01*
X114455342Y-48782170D01*
X114429470Y-48766317D01*
X113966887Y-48484669D01*
X112141594Y-48484669D01*
X112418135Y-48411084D01*
X112621403Y-48354435D01*
X115420277Y-48354435D01*
X115575119Y-48519059D01*
X115661286Y-48585130D01*
X116010772Y-48801590D01*
X116185099Y-48747371D01*
X116237194Y-48399094D01*
X116237748Y-48330506D01*
X116215169Y-47986701D01*
X116182987Y-47967186D01*
X117024616Y-47967186D01*
X117040327Y-48207442D01*
X117122247Y-48460274D01*
X117200036Y-48397489D01*
X117263457Y-48243310D01*
X117376830Y-47860810D01*
X117403408Y-47685033D01*
X117358985Y-47543000D01*
X117180279Y-47649165D01*
X117024616Y-47967186D01*
X116182987Y-47967186D01*
X116095359Y-47914051D01*
X115859271Y-48016867D01*
X115504712Y-48216549D01*
X115420277Y-48354435D01*
X112621403Y-48354435D01*
X112859245Y-48288151D01*
X113031306Y-48236003D01*
X113047917Y-48123671D01*
X112778240Y-47917216D01*
X112470038Y-47747873D01*
X111666866Y-47341255D01*
X110168859Y-48118357D01*
X109496217Y-48472692D01*
X109085084Y-48711305D01*
X108895830Y-48868470D01*
X108888828Y-48978459D01*
X105357856Y-48978459D01*
X105381517Y-48786254D01*
X105472639Y-48503789D01*
X105628054Y-48298389D01*
X105843332Y-48305604D01*
X106086273Y-48419486D01*
X106382539Y-48542914D01*
X106613992Y-48505129D01*
X106901216Y-48268141D01*
X107053038Y-48114905D01*
X107427189Y-47626723D01*
X107522795Y-47191960D01*
X107518277Y-47148150D01*
X107428808Y-46846251D01*
X107198038Y-46766300D01*
X106973742Y-46788449D01*
X106451274Y-46805396D01*
X106063080Y-46753982D01*
X105785856Y-46634860D01*
X105665009Y-46392275D01*
X105640397Y-45975048D01*
X105623665Y-45549196D01*
X105533922Y-45379461D01*
X105311842Y-45385814D01*
X105219867Y-45407746D01*
X104899719Y-45435242D01*
X104800012Y-45270191D01*
X104799337Y-45242739D01*
X104909564Y-45044778D01*
X105277286Y-44973581D01*
X105368980Y-44972186D01*
X105729673Y-44996948D01*
X105914578Y-45133251D01*
X106011728Y-45474120D01*
X106045511Y-45687086D01*
X106152401Y-46401987D01*
X108079470Y-46401987D01*
X108132180Y-46948676D01*
X108223266Y-47341710D01*
X108356249Y-47487136D01*
X108468031Y-47362296D01*
X108500000Y-47080753D01*
X108502057Y-47074835D01*
X108836423Y-47074835D01*
X108920529Y-47158941D01*
X109004635Y-47074835D01*
X108920529Y-46990729D01*
X108836423Y-47074835D01*
X108502057Y-47074835D01*
X108560531Y-46906623D01*
X109172847Y-46906623D01*
X109256953Y-46990729D01*
X109341059Y-46906623D01*
X109256953Y-46822517D01*
X109172847Y-46906623D01*
X108560531Y-46906623D01*
X108647161Y-46657417D01*
X108915769Y-46491954D01*
X113546357Y-46491954D01*
X113661746Y-46662306D01*
X113943322Y-46953467D01*
X114294195Y-47276548D01*
X114617479Y-47542661D01*
X114816285Y-47662916D01*
X114823418Y-47663577D01*
X115025576Y-47625913D01*
X115435090Y-47530701D01*
X115658624Y-47475395D01*
X116405960Y-47287214D01*
X116405960Y-46446514D01*
X116394246Y-45952137D01*
X116333553Y-45718710D01*
X116185548Y-45670930D01*
X116027483Y-45702954D01*
X114980948Y-45978524D01*
X114238295Y-46191054D01*
X113774557Y-46348482D01*
X113564767Y-46458750D01*
X113546357Y-46491954D01*
X108915769Y-46491954D01*
X109069605Y-46397191D01*
X109666424Y-46317881D01*
X110035747Y-46271630D01*
X110172522Y-46085714D01*
X110183970Y-45939404D01*
X110212873Y-45516071D01*
X110279638Y-44997011D01*
X111024679Y-44997011D01*
X111053162Y-45366598D01*
X111122694Y-45520266D01*
X111291003Y-45575371D01*
X111622854Y-45519292D01*
X111664241Y-45505879D01*
X117142245Y-45505879D01*
X117171835Y-46206251D01*
X117195293Y-46662641D01*
X117218154Y-46956540D01*
X117224223Y-46996228D01*
X117385003Y-47024005D01*
X117779881Y-47031839D01*
X118307341Y-47023150D01*
X118865869Y-47001354D01*
X119353951Y-46969870D01*
X119670072Y-46932114D01*
X119732105Y-46911793D01*
X119720715Y-46744257D01*
X119673361Y-46597679D01*
X119401104Y-46258808D01*
X118908527Y-45932615D01*
X118308155Y-45680714D01*
X117798655Y-45571181D01*
X117142245Y-45505879D01*
X111664241Y-45505879D01*
X112178051Y-45339363D01*
X112452980Y-45238518D01*
X112984944Y-45075227D01*
X113459945Y-44985894D01*
X113546357Y-44980681D01*
X114032345Y-44948366D01*
X114639982Y-44873547D01*
X115282977Y-44771677D01*
X115875041Y-44658210D01*
X116329880Y-44548599D01*
X116561206Y-44458298D01*
X116574172Y-44438446D01*
X116416813Y-44384745D01*
X115988069Y-44340675D01*
X115352939Y-44310715D01*
X114576422Y-44299345D01*
X114555629Y-44299338D01*
X113697456Y-44304006D01*
X113120380Y-44323330D01*
X112769140Y-44365293D01*
X112588477Y-44437876D01*
X112523130Y-44549061D01*
X112517573Y-44593709D01*
X112494077Y-44801021D01*
X112444424Y-44681569D01*
X112421133Y-44593709D01*
X112255977Y-44357498D01*
X112026410Y-44312637D01*
X111873878Y-44469808D01*
X111864238Y-44551656D01*
X111729590Y-44774666D01*
X111611920Y-44803974D01*
X111391277Y-44668549D01*
X111359602Y-44541729D01*
X111285466Y-44383444D01*
X111527814Y-44383444D01*
X111611920Y-44467550D01*
X111696026Y-44383444D01*
X111611920Y-44299338D01*
X111527814Y-44383444D01*
X111285466Y-44383444D01*
X111278054Y-44367620D01*
X111191390Y-44383444D01*
X111074256Y-44611357D01*
X111024679Y-44997011D01*
X110279638Y-44997011D01*
X110280952Y-44986796D01*
X110290085Y-44930133D01*
X110340906Y-44519653D01*
X110266098Y-44342193D01*
X110002213Y-44300141D01*
X109880038Y-44299338D01*
X109444023Y-44387744D01*
X109288800Y-44593709D01*
X109224870Y-44801021D01*
X109198515Y-44681569D01*
X109192360Y-44593709D01*
X109071072Y-44361249D01*
X108851172Y-44308528D01*
X108685316Y-44447795D01*
X108668211Y-44551656D01*
X108585011Y-44778266D01*
X108414051Y-44751446D01*
X108279528Y-44509603D01*
X108215598Y-44302291D01*
X108189243Y-44421743D01*
X108183088Y-44509603D01*
X108045324Y-44744062D01*
X107774356Y-44794750D01*
X107518779Y-44661666D01*
X107438469Y-44509603D01*
X107374539Y-44302291D01*
X107348184Y-44421743D01*
X107342029Y-44509603D01*
X107296593Y-44645358D01*
X107141646Y-44732051D01*
X106816655Y-44780277D01*
X106261087Y-44800629D01*
X105660016Y-44803974D01*
X104849031Y-44794942D01*
X104315881Y-44744124D01*
X104002034Y-44615935D01*
X103848957Y-44374792D01*
X103798120Y-43985110D01*
X103792363Y-43668543D01*
X103727178Y-43373077D01*
X103621854Y-43290067D01*
X103473424Y-43150699D01*
X103441819Y-42995696D01*
X103419521Y-42797875D01*
X103348185Y-42910907D01*
X103309093Y-43008143D01*
X103140318Y-43262434D01*
X103033112Y-43314962D01*
X102851125Y-43179297D01*
X102757132Y-43008143D01*
X102661033Y-42799219D01*
X102628954Y-42902552D01*
X102624405Y-42995696D01*
X102552725Y-43177485D01*
X102304463Y-43266341D01*
X101801165Y-43290064D01*
X101793671Y-43290067D01*
X100974760Y-43290067D01*
X100831786Y-44004967D01*
X100776118Y-44452887D01*
X100730454Y-45142824D01*
X100699535Y-45980411D01*
X100688104Y-46864570D01*
X100687396Y-49009272D01*
X99962591Y-49009272D01*
X99403736Y-48950222D01*
X99146548Y-48770231D01*
X99140962Y-48756954D01*
X98975850Y-48534362D01*
X98893923Y-48504636D01*
X98760573Y-48641145D01*
X98743708Y-48756954D01*
X98609060Y-48979964D01*
X98491390Y-49009272D01*
X98268380Y-48874624D01*
X98239072Y-48756954D01*
X98120230Y-48552610D01*
X97860830Y-48516574D01*
X97606559Y-48640398D01*
X97513966Y-48799007D01*
X97450036Y-49006319D01*
X97423681Y-48886867D01*
X97417526Y-48799007D01*
X97322882Y-48600800D01*
X97021523Y-48515557D01*
X96725165Y-48504636D01*
X96272481Y-48539203D01*
X96072264Y-48665534D01*
X96040495Y-48799007D01*
X96013132Y-48979045D01*
X95928608Y-48857560D01*
X95884105Y-48756954D01*
X95770637Y-48516558D01*
X95728991Y-48585256D01*
X95714436Y-48756954D01*
X95664779Y-48946278D01*
X95601128Y-48873026D01*
X95389345Y-48526925D01*
X95077657Y-48194199D01*
X94762522Y-47961351D01*
X94540398Y-47914885D01*
X94535712Y-47917562D01*
X94354142Y-47874510D01*
X94242216Y-47638448D01*
X94136878Y-47243047D01*
X94017988Y-47663577D01*
X93930492Y-47945452D01*
X93895024Y-47913115D01*
X93882330Y-47705630D01*
X93810073Y-47409835D01*
X93709050Y-47327153D01*
X93559445Y-47469684D01*
X93479639Y-47705630D01*
X93406742Y-48084106D01*
X93383834Y-47705630D01*
X93310987Y-47446332D01*
X93069726Y-47341476D01*
X92772185Y-47327153D01*
X92336742Y-47272438D01*
X92184507Y-47097815D01*
X92183443Y-47074835D01*
X92111054Y-46844707D01*
X91957238Y-46869948D01*
X91817024Y-47119495D01*
X91797520Y-47200994D01*
X91724622Y-47579471D01*
X91701715Y-47200994D01*
X91662658Y-46996871D01*
X91525286Y-46883197D01*
X91212441Y-46833812D01*
X90646964Y-46822554D01*
X90585430Y-46822517D01*
X89993711Y-46812032D01*
X89663814Y-46765327D01*
X89521400Y-46659529D01*
X89492053Y-46486093D01*
X89537348Y-46282597D01*
X89728767Y-46182162D01*
X90149615Y-46150739D01*
X90315115Y-46149669D01*
X90894402Y-46192634D01*
X91190291Y-46329368D01*
X91235002Y-46401987D01*
X91430060Y-46612090D01*
X91681687Y-46634096D01*
X91839705Y-46468005D01*
X91847019Y-46401987D01*
X91981667Y-46178977D01*
X92099337Y-46149669D01*
X92322347Y-46284317D01*
X92351655Y-46401987D01*
X92486303Y-46624997D01*
X92603973Y-46654305D01*
X92826983Y-46788953D01*
X92856291Y-46906623D01*
X92992233Y-47096223D01*
X93313454Y-47172628D01*
X93690049Y-47140280D01*
X93992109Y-47003621D01*
X94086034Y-46864570D01*
X94149964Y-46657258D01*
X94176318Y-46776710D01*
X94182473Y-46864570D01*
X94312430Y-47089617D01*
X94698191Y-47158925D01*
X94706622Y-47158941D01*
X95107255Y-47234167D01*
X95211258Y-47411259D01*
X95228454Y-47525081D01*
X95314092Y-47603906D01*
X95519242Y-47653448D01*
X95894977Y-47679422D01*
X96492370Y-47687544D01*
X97362492Y-47683530D01*
X97624659Y-47681334D01*
X98345977Y-47682866D01*
X98798452Y-47711180D01*
X99049373Y-47778991D01*
X99166027Y-47899015D01*
X99193817Y-47977867D01*
X99368816Y-48207747D01*
X99773010Y-48267360D01*
X99808230Y-48266213D01*
X100341721Y-48245112D01*
X100444144Y-45389112D01*
X100479145Y-44447770D01*
X100511836Y-43632107D01*
X100539795Y-42997808D01*
X100560596Y-42600555D01*
X100570303Y-42491060D01*
X100736008Y-42465895D01*
X101127478Y-42450871D01*
X101350993Y-42449007D01*
X101849911Y-42415986D01*
X102077168Y-42303707D01*
X102107947Y-42196689D01*
X102207009Y-42030383D01*
X102543846Y-41954631D01*
X102864900Y-41944371D01*
X103378671Y-41982539D01*
X103603729Y-42105268D01*
X103621854Y-42178692D01*
X103757966Y-42436025D01*
X103884666Y-42513864D01*
X104042429Y-42649742D01*
X104080731Y-42946226D01*
X104033779Y-43372920D01*
X103920079Y-44131126D01*
X104780238Y-44131126D01*
X105291668Y-44114206D01*
X105362698Y-44094330D01*
X117286376Y-44094330D01*
X117343860Y-44259400D01*
X117441514Y-44262542D01*
X117633342Y-44361878D01*
X117691721Y-44551656D01*
X117728926Y-44946625D01*
X117788302Y-45108550D01*
X117909144Y-45140375D01*
X117916448Y-45140398D01*
X118084937Y-45003540D01*
X118320273Y-44657617D01*
X118429651Y-44457460D01*
X118778060Y-43774522D01*
X118067666Y-43826665D01*
X117613066Y-43905370D01*
X117325228Y-44040139D01*
X117286376Y-44094330D01*
X105362698Y-44094330D01*
X105549462Y-44042069D01*
X105635609Y-43882645D01*
X105640397Y-43794702D01*
X105711819Y-43506554D01*
X105864787Y-43496626D01*
X106007356Y-43754898D01*
X106026320Y-43836755D01*
X106082978Y-44080392D01*
X106112154Y-44002458D01*
X106121963Y-43878808D01*
X106141800Y-43766939D01*
X106212530Y-43683898D01*
X106376832Y-43626218D01*
X106677384Y-43590430D01*
X107156864Y-43573065D01*
X107857950Y-43570655D01*
X108823320Y-43579730D01*
X109664780Y-43590861D01*
X113184851Y-43639337D01*
X113258591Y-43254437D01*
X113332330Y-42869537D01*
X113355238Y-43248014D01*
X113466156Y-43545764D01*
X113786976Y-43626490D01*
X114139100Y-43519239D01*
X114268704Y-43248014D01*
X114341602Y-42869537D01*
X114364509Y-43248014D01*
X114451526Y-43523278D01*
X114731594Y-43621062D01*
X114892052Y-43626490D01*
X115260457Y-43574978D01*
X115400159Y-43372895D01*
X115413456Y-43248014D01*
X115433592Y-42997937D01*
X115484674Y-43050766D01*
X115564900Y-43290067D01*
X115667309Y-43529343D01*
X115714970Y-43436679D01*
X115716345Y-43416226D01*
X115804517Y-43166118D01*
X115888990Y-43121855D01*
X116057292Y-43260416D01*
X116121795Y-43416226D01*
X116185725Y-43623538D01*
X116212080Y-43504086D01*
X116218235Y-43416226D01*
X116376273Y-43168713D01*
X116574172Y-43121855D01*
X116850780Y-43013470D01*
X116910596Y-42862503D01*
X117018517Y-42555694D01*
X117242501Y-42246894D01*
X117574406Y-41890635D01*
X117727764Y-42295980D01*
X117788146Y-42733024D01*
X117711686Y-42911590D01*
X117652548Y-43084510D01*
X117820444Y-43121855D01*
X118116095Y-42989152D01*
X118195461Y-42869537D01*
X118397214Y-42646159D01*
X118508609Y-42617219D01*
X118752057Y-42752561D01*
X118821757Y-42869537D01*
X119005884Y-43103486D01*
X119192854Y-43044252D01*
X119282330Y-42743378D01*
X119303500Y-42483283D01*
X119355692Y-42548092D01*
X119408489Y-42707108D01*
X119548455Y-42926637D01*
X119847551Y-43038247D01*
X120316887Y-43077383D01*
X120829577Y-43066967D01*
X121072948Y-42977751D01*
X121115894Y-42861335D01*
X121187022Y-42634773D01*
X121242052Y-42604719D01*
X121911850Y-42474995D01*
X122296161Y-42253196D01*
X122339758Y-42191942D01*
X122545389Y-41965703D01*
X122736897Y-42064322D01*
X122924719Y-42491060D01*
X123100092Y-43037749D01*
X123117264Y-42491060D01*
X123178736Y-42098180D01*
X123363008Y-41952258D01*
X123458526Y-41944371D01*
X123762970Y-41812386D01*
X123859543Y-41650000D01*
X123923473Y-41442688D01*
X123949828Y-41562140D01*
X123955983Y-41650000D01*
X124006512Y-41795092D01*
X124177892Y-41883521D01*
X124535185Y-41928615D01*
X125143451Y-41943703D01*
X125392964Y-41944371D01*
X126099347Y-41934777D01*
X126537125Y-41897129D01*
X126773789Y-41818133D01*
X126876834Y-41684495D01*
X126887358Y-41650000D01*
X126951288Y-41442688D01*
X126977643Y-41562140D01*
X126977643Y-41562140D01*
G37*
X126977643Y-41562140D02*
X126983798Y-41650000D01*
X127080153Y-41900108D01*
X127171523Y-41944371D01*
X127322559Y-41804827D01*
X127356907Y-41650000D01*
X127408991Y-41589739D01*
X127516884Y-41807236D01*
X127550278Y-41905195D01*
X127640935Y-42303414D01*
X127629127Y-42548779D01*
X127619704Y-42561532D01*
X127418051Y-42605629D01*
X126952257Y-42643970D01*
X126294604Y-42672099D01*
X125620346Y-42684814D01*
X124794477Y-42696860D01*
X124245995Y-42722576D01*
X123915882Y-42772089D01*
X123745117Y-42855528D01*
X123674684Y-42983019D01*
X123666380Y-43020111D01*
X123590301Y-43226838D01*
X123466701Y-43120263D01*
X123456400Y-43104217D01*
X123348438Y-43021303D01*
X123306803Y-43246351D01*
X123305224Y-43332120D01*
X123238436Y-43682724D01*
X123005126Y-43793737D01*
X122966225Y-43794702D01*
X122692243Y-43689524D01*
X122629801Y-43542385D01*
X122489563Y-43336898D01*
X122293377Y-43290067D01*
X122019395Y-43395245D01*
X121956953Y-43542385D01*
X121891208Y-43675029D01*
X121653497Y-43753106D01*
X121183109Y-43788661D01*
X120685436Y-43794702D01*
X120062225Y-43813435D01*
X119649490Y-43864405D01*
X119506242Y-43939775D01*
X119510396Y-43950804D01*
X119458239Y-44118692D01*
X119293532Y-44206355D01*
X119049791Y-44381159D01*
X118821545Y-44684347D01*
X118671270Y-45003717D01*
X118661435Y-45227064D01*
X118705370Y-45262723D01*
X119309715Y-45576716D01*
X119785038Y-46025347D01*
X120024444Y-46494872D01*
X120055917Y-46925675D01*
X119886022Y-47182115D01*
X119467874Y-47301864D01*
X118991788Y-47324577D01*
X118453214Y-47399255D01*
X118085943Y-47589047D01*
X117955284Y-47849298D01*
X118003973Y-48000000D01*
X118006904Y-48267070D01*
X117919867Y-48420530D01*
X117803770Y-48704395D01*
X117831025Y-48833396D01*
X117824945Y-49086209D01*
X117677294Y-49382829D01*
X117474279Y-49845281D01*
X117415231Y-50224184D01*
X117361848Y-50566339D01*
X117137173Y-50683991D01*
X116978602Y-50691391D01*
X116495786Y-50611543D01*
X116095490Y-50459565D01*
X115603455Y-50219550D01*
X115228476Y-50052605D01*
X114845921Y-49887593D01*
X114296267Y-49643979D01*
X113860438Y-49447768D01*
X113428027Y-49261590D01*
X115060264Y-49261590D01*
X115144370Y-49345696D01*
X115228476Y-49261590D01*
X115144370Y-49177484D01*
X115060264Y-49261590D01*
X113428027Y-49261590D01*
X113319551Y-49214885D01*
X112938112Y-49113158D01*
X112572191Y-49128344D01*
X112077855Y-49246198D01*
X112010107Y-49264641D01*
X111311009Y-49448645D01*
X110585019Y-49629397D01*
X110308278Y-49694713D01*
X109845782Y-49826769D01*
X109557311Y-49958868D01*
X109509271Y-50017284D01*
X109356297Y-50108836D01*
X108952400Y-50222417D01*
X108380114Y-50335493D01*
X108289735Y-50350243D01*
X107334997Y-50520065D01*
X106664047Y-50710811D01*
X106225785Y-50975557D01*
X105969114Y-51367379D01*
X105842937Y-51939351D01*
X105796156Y-52744551D01*
X105791700Y-52944977D01*
X105757668Y-53657862D01*
X105696103Y-54154601D01*
X105620585Y-54411295D01*
X105544692Y-54404048D01*
X105482006Y-54108961D01*
X105447343Y-53550994D01*
X105417349Y-52457616D01*
X105318608Y-53381324D01*
X105231182Y-53948106D01*
X105103255Y-54251611D01*
X104911538Y-54363564D01*
X104702864Y-54363833D01*
X104731905Y-54186762D01*
X104785379Y-54081710D01*
X104901902Y-53699347D01*
X104966767Y-53168456D01*
X104971243Y-53015364D01*
X105048517Y-52395231D01*
X105237025Y-51729828D01*
X105312391Y-51545585D01*
X105515037Y-50992904D01*
X105510199Y-50674946D01*
X105476908Y-50628830D01*
X105366684Y-50345547D01*
X105313872Y-49858707D01*
X105315397Y-49682120D01*
X105808609Y-49682120D01*
X105870155Y-49820577D01*
X105920750Y-49794261D01*
X105940882Y-49594633D01*
X105920750Y-49569978D01*
X105820748Y-49593069D01*
X105808609Y-49682120D01*
X105315397Y-49682120D01*
X105318731Y-49296284D01*
X105357856Y-48978459D01*
X108888828Y-48978459D01*
X109024449Y-49075547D01*
X109048008Y-49087745D01*
X109394520Y-49187765D01*
X109838373Y-49137354D01*
X110182119Y-49039728D01*
X110807034Y-48851541D01*
X111532894Y-48646990D01*
X111864238Y-48558471D01*
X112141594Y-48484669D01*
X113966887Y-48484669D01*
X114363999Y-48831077D01*
X114713654Y-49111671D01*
X114872164Y-49167855D01*
X114892052Y-49112724D01*
X114784095Y-49009272D01*
X116910596Y-49009272D01*
X116972142Y-49147729D01*
X117022737Y-49121413D01*
X117042869Y-48921785D01*
X117022737Y-48897131D01*
X116922735Y-48920221D01*
X116910596Y-49009272D01*
X114784095Y-49009272D01*
X114764638Y-48990627D01*
X114455342Y-48782170D01*
X114429470Y-48766317D01*
X113966887Y-48484669D01*
X112141594Y-48484669D01*
X112418135Y-48411084D01*
X112621403Y-48354435D01*
X115420277Y-48354435D01*
X115575119Y-48519059D01*
X115661286Y-48585130D01*
X116010772Y-48801590D01*
X116185099Y-48747371D01*
X116237194Y-48399094D01*
X116237748Y-48330506D01*
X116215169Y-47986701D01*
X116182987Y-47967186D01*
X117024616Y-47967186D01*
X117040327Y-48207442D01*
X117122247Y-48460274D01*
X117200036Y-48397489D01*
X117263457Y-48243310D01*
X117376830Y-47860810D01*
X117403408Y-47685033D01*
X117358985Y-47543000D01*
X117180279Y-47649165D01*
X117024616Y-47967186D01*
X116182987Y-47967186D01*
X116095359Y-47914051D01*
X115859271Y-48016867D01*
X115504712Y-48216549D01*
X115420277Y-48354435D01*
X112621403Y-48354435D01*
X112859245Y-48288151D01*
X113031306Y-48236003D01*
X113047917Y-48123671D01*
X112778240Y-47917216D01*
X112470038Y-47747873D01*
X111666866Y-47341255D01*
X110168859Y-48118357D01*
X109496217Y-48472692D01*
X109085084Y-48711305D01*
X108895830Y-48868470D01*
X108888828Y-48978459D01*
X105357856Y-48978459D01*
X105381517Y-48786254D01*
X105472639Y-48503789D01*
X105628054Y-48298389D01*
X105843332Y-48305604D01*
X106086273Y-48419486D01*
X106382539Y-48542914D01*
X106613992Y-48505129D01*
X106901216Y-48268141D01*
X107053038Y-48114905D01*
X107427189Y-47626723D01*
X107522795Y-47191960D01*
X107518277Y-47148150D01*
X107428808Y-46846251D01*
X107198038Y-46766300D01*
X106973742Y-46788449D01*
X106451274Y-46805396D01*
X106063080Y-46753982D01*
X105785856Y-46634860D01*
X105665009Y-46392275D01*
X105640397Y-45975048D01*
X105623665Y-45549196D01*
X105533922Y-45379461D01*
X105311842Y-45385814D01*
X105219867Y-45407746D01*
X104899719Y-45435242D01*
X104800012Y-45270191D01*
X104799337Y-45242739D01*
X104909564Y-45044778D01*
X105277286Y-44973581D01*
X105368980Y-44972186D01*
X105729673Y-44996948D01*
X105914578Y-45133251D01*
X106011728Y-45474120D01*
X106045511Y-45687086D01*
X106152401Y-46401987D01*
X108079470Y-46401987D01*
X108132180Y-46948676D01*
X108223266Y-47341710D01*
X108356249Y-47487136D01*
X108468031Y-47362296D01*
X108500000Y-47080753D01*
X108502057Y-47074835D01*
X108836423Y-47074835D01*
X108920529Y-47158941D01*
X109004635Y-47074835D01*
X108920529Y-46990729D01*
X108836423Y-47074835D01*
X108502057Y-47074835D01*
X108560531Y-46906623D01*
X109172847Y-46906623D01*
X109256953Y-46990729D01*
X109341059Y-46906623D01*
X109256953Y-46822517D01*
X109172847Y-46906623D01*
X108560531Y-46906623D01*
X108647161Y-46657417D01*
X108915769Y-46491954D01*
X113546357Y-46491954D01*
X113661746Y-46662306D01*
X113943322Y-46953467D01*
X114294195Y-47276548D01*
X114617479Y-47542661D01*
X114816285Y-47662916D01*
X114823418Y-47663577D01*
X115025576Y-47625913D01*
X115435090Y-47530701D01*
X115658624Y-47475395D01*
X116405960Y-47287214D01*
X116405960Y-46446514D01*
X116394246Y-45952137D01*
X116333553Y-45718710D01*
X116185548Y-45670930D01*
X116027483Y-45702954D01*
X114980948Y-45978524D01*
X114238295Y-46191054D01*
X113774557Y-46348482D01*
X113564767Y-46458750D01*
X113546357Y-46491954D01*
X108915769Y-46491954D01*
X109069605Y-46397191D01*
X109666424Y-46317881D01*
X110035747Y-46271630D01*
X110172522Y-46085714D01*
X110183970Y-45939404D01*
X110212873Y-45516071D01*
X110279638Y-44997011D01*
X111024679Y-44997011D01*
X111053162Y-45366598D01*
X111122694Y-45520266D01*
X111291003Y-45575371D01*
X111622854Y-45519292D01*
X111664241Y-45505879D01*
X117142245Y-45505879D01*
X117171835Y-46206251D01*
X117195293Y-46662641D01*
X117218154Y-46956540D01*
X117224223Y-46996228D01*
X117385003Y-47024005D01*
X117779881Y-47031839D01*
X118307341Y-47023150D01*
X118865869Y-47001354D01*
X119353951Y-46969870D01*
X119670072Y-46932114D01*
X119732105Y-46911793D01*
X119720715Y-46744257D01*
X119673361Y-46597679D01*
X119401104Y-46258808D01*
X118908527Y-45932615D01*
X118308155Y-45680714D01*
X117798655Y-45571181D01*
X117142245Y-45505879D01*
X111664241Y-45505879D01*
X112178051Y-45339363D01*
X112452980Y-45238518D01*
X112984944Y-45075227D01*
X113459945Y-44985894D01*
X113546357Y-44980681D01*
X114032345Y-44948366D01*
X114639982Y-44873547D01*
X115282977Y-44771677D01*
X115875041Y-44658210D01*
X116329880Y-44548599D01*
X116561206Y-44458298D01*
X116574172Y-44438446D01*
X116416813Y-44384745D01*
X115988069Y-44340675D01*
X115352939Y-44310715D01*
X114576422Y-44299345D01*
X114555629Y-44299338D01*
X113697456Y-44304006D01*
X113120380Y-44323330D01*
X112769140Y-44365293D01*
X112588477Y-44437876D01*
X112523130Y-44549061D01*
X112517573Y-44593709D01*
X112494077Y-44801021D01*
X112444424Y-44681569D01*
X112421133Y-44593709D01*
X112255977Y-44357498D01*
X112026410Y-44312637D01*
X111873878Y-44469808D01*
X111864238Y-44551656D01*
X111729590Y-44774666D01*
X111611920Y-44803974D01*
X111391277Y-44668549D01*
X111359602Y-44541729D01*
X111285466Y-44383444D01*
X111527814Y-44383444D01*
X111611920Y-44467550D01*
X111696026Y-44383444D01*
X111611920Y-44299338D01*
X111527814Y-44383444D01*
X111285466Y-44383444D01*
X111278054Y-44367620D01*
X111191390Y-44383444D01*
X111074256Y-44611357D01*
X111024679Y-44997011D01*
X110279638Y-44997011D01*
X110280952Y-44986796D01*
X110290085Y-44930133D01*
X110340906Y-44519653D01*
X110266098Y-44342193D01*
X110002213Y-44300141D01*
X109880038Y-44299338D01*
X109444023Y-44387744D01*
X109288800Y-44593709D01*
X109224870Y-44801021D01*
X109198515Y-44681569D01*
X109192360Y-44593709D01*
X109071072Y-44361249D01*
X108851172Y-44308528D01*
X108685316Y-44447795D01*
X108668211Y-44551656D01*
X108585011Y-44778266D01*
X108414051Y-44751446D01*
X108279528Y-44509603D01*
X108215598Y-44302291D01*
X108189243Y-44421743D01*
X108183088Y-44509603D01*
X108045324Y-44744062D01*
X107774356Y-44794750D01*
X107518779Y-44661666D01*
X107438469Y-44509603D01*
X107374539Y-44302291D01*
X107348184Y-44421743D01*
X107342029Y-44509603D01*
X107296593Y-44645358D01*
X107141646Y-44732051D01*
X106816655Y-44780277D01*
X106261087Y-44800629D01*
X105660016Y-44803974D01*
X104849031Y-44794942D01*
X104315881Y-44744124D01*
X104002034Y-44615935D01*
X103848957Y-44374792D01*
X103798120Y-43985110D01*
X103792363Y-43668543D01*
X103727178Y-43373077D01*
X103621854Y-43290067D01*
X103473424Y-43150699D01*
X103441819Y-42995696D01*
X103419521Y-42797875D01*
X103348185Y-42910907D01*
X103309093Y-43008143D01*
X103140318Y-43262434D01*
X103033112Y-43314962D01*
X102851125Y-43179297D01*
X102757132Y-43008143D01*
X102661033Y-42799219D01*
X102628954Y-42902552D01*
X102624405Y-42995696D01*
X102552725Y-43177485D01*
X102304463Y-43266341D01*
X101801165Y-43290064D01*
X101793671Y-43290067D01*
X100974760Y-43290067D01*
X100831786Y-44004967D01*
X100776118Y-44452887D01*
X100730454Y-45142824D01*
X100699535Y-45980411D01*
X100688104Y-46864570D01*
X100687396Y-49009272D01*
X99962591Y-49009272D01*
X99403736Y-48950222D01*
X99146548Y-48770231D01*
X99140962Y-48756954D01*
X98975850Y-48534362D01*
X98893923Y-48504636D01*
X98760573Y-48641145D01*
X98743708Y-48756954D01*
X98609060Y-48979964D01*
X98491390Y-49009272D01*
X98268380Y-48874624D01*
X98239072Y-48756954D01*
X98120230Y-48552610D01*
X97860830Y-48516574D01*
X97606559Y-48640398D01*
X97513966Y-48799007D01*
X97450036Y-49006319D01*
X97423681Y-48886867D01*
X97417526Y-48799007D01*
X97322882Y-48600800D01*
X97021523Y-48515557D01*
X96725165Y-48504636D01*
X96272481Y-48539203D01*
X96072264Y-48665534D01*
X96040495Y-48799007D01*
X96013132Y-48979045D01*
X95928608Y-48857560D01*
X95884105Y-48756954D01*
X95770637Y-48516558D01*
X95728991Y-48585256D01*
X95714436Y-48756954D01*
X95664779Y-48946278D01*
X95601128Y-48873026D01*
X95389345Y-48526925D01*
X95077657Y-48194199D01*
X94762522Y-47961351D01*
X94540398Y-47914885D01*
X94535712Y-47917562D01*
X94354142Y-47874510D01*
X94242216Y-47638448D01*
X94136878Y-47243047D01*
X94017988Y-47663577D01*
X93930492Y-47945452D01*
X93895024Y-47913115D01*
X93882330Y-47705630D01*
X93810073Y-47409835D01*
X93709050Y-47327153D01*
X93559445Y-47469684D01*
X93479639Y-47705630D01*
X93406742Y-48084106D01*
X93383834Y-47705630D01*
X93310987Y-47446332D01*
X93069726Y-47341476D01*
X92772185Y-47327153D01*
X92336742Y-47272438D01*
X92184507Y-47097815D01*
X92183443Y-47074835D01*
X92111054Y-46844707D01*
X91957238Y-46869948D01*
X91817024Y-47119495D01*
X91797520Y-47200994D01*
X91724622Y-47579471D01*
X91701715Y-47200994D01*
X91662658Y-46996871D01*
X91525286Y-46883197D01*
X91212441Y-46833812D01*
X90646964Y-46822554D01*
X90585430Y-46822517D01*
X89993711Y-46812032D01*
X89663814Y-46765327D01*
X89521400Y-46659529D01*
X89492053Y-46486093D01*
X89537348Y-46282597D01*
X89728767Y-46182162D01*
X90149615Y-46150739D01*
X90315115Y-46149669D01*
X90894402Y-46192634D01*
X91190291Y-46329368D01*
X91235002Y-46401987D01*
X91430060Y-46612090D01*
X91681687Y-46634096D01*
X91839705Y-46468005D01*
X91847019Y-46401987D01*
X91981667Y-46178977D01*
X92099337Y-46149669D01*
X92322347Y-46284317D01*
X92351655Y-46401987D01*
X92486303Y-46624997D01*
X92603973Y-46654305D01*
X92826983Y-46788953D01*
X92856291Y-46906623D01*
X92992233Y-47096223D01*
X93313454Y-47172628D01*
X93690049Y-47140280D01*
X93992109Y-47003621D01*
X94086034Y-46864570D01*
X94149964Y-46657258D01*
X94176318Y-46776710D01*
X94182473Y-46864570D01*
X94312430Y-47089617D01*
X94698191Y-47158925D01*
X94706622Y-47158941D01*
X95107255Y-47234167D01*
X95211258Y-47411259D01*
X95228454Y-47525081D01*
X95314092Y-47603906D01*
X95519242Y-47653448D01*
X95894977Y-47679422D01*
X96492370Y-47687544D01*
X97362492Y-47683530D01*
X97624659Y-47681334D01*
X98345977Y-47682866D01*
X98798452Y-47711180D01*
X99049373Y-47778991D01*
X99166027Y-47899015D01*
X99193817Y-47977867D01*
X99368816Y-48207747D01*
X99773010Y-48267360D01*
X99808230Y-48266213D01*
X100341721Y-48245112D01*
X100444144Y-45389112D01*
X100479145Y-44447770D01*
X100511836Y-43632107D01*
X100539795Y-42997808D01*
X100560596Y-42600555D01*
X100570303Y-42491060D01*
X100736008Y-42465895D01*
X101127478Y-42450871D01*
X101350993Y-42449007D01*
X101849911Y-42415986D01*
X102077168Y-42303707D01*
X102107947Y-42196689D01*
X102207009Y-42030383D01*
X102543846Y-41954631D01*
X102864900Y-41944371D01*
X103378671Y-41982539D01*
X103603729Y-42105268D01*
X103621854Y-42178692D01*
X103757966Y-42436025D01*
X103884666Y-42513864D01*
X104042429Y-42649742D01*
X104080731Y-42946226D01*
X104033779Y-43372920D01*
X103920079Y-44131126D01*
X104780238Y-44131126D01*
X105291668Y-44114206D01*
X105362698Y-44094330D01*
X117286376Y-44094330D01*
X117343860Y-44259400D01*
X117441514Y-44262542D01*
X117633342Y-44361878D01*
X117691721Y-44551656D01*
X117728926Y-44946625D01*
X117788302Y-45108550D01*
X117909144Y-45140375D01*
X117916448Y-45140398D01*
X118084937Y-45003540D01*
X118320273Y-44657617D01*
X118429651Y-44457460D01*
X118778060Y-43774522D01*
X118067666Y-43826665D01*
X117613066Y-43905370D01*
X117325228Y-44040139D01*
X117286376Y-44094330D01*
X105362698Y-44094330D01*
X105549462Y-44042069D01*
X105635609Y-43882645D01*
X105640397Y-43794702D01*
X105711819Y-43506554D01*
X105864787Y-43496626D01*
X106007356Y-43754898D01*
X106026320Y-43836755D01*
X106082978Y-44080392D01*
X106112154Y-44002458D01*
X106121963Y-43878808D01*
X106141800Y-43766939D01*
X106212530Y-43683898D01*
X106376832Y-43626218D01*
X106677384Y-43590430D01*
X107156864Y-43573065D01*
X107857950Y-43570655D01*
X108823320Y-43579730D01*
X109664780Y-43590861D01*
X113184851Y-43639337D01*
X113258591Y-43254437D01*
X113332330Y-42869537D01*
X113355238Y-43248014D01*
X113466156Y-43545764D01*
X113786976Y-43626490D01*
X114139100Y-43519239D01*
X114268704Y-43248014D01*
X114341602Y-42869537D01*
X114364509Y-43248014D01*
X114451526Y-43523278D01*
X114731594Y-43621062D01*
X114892052Y-43626490D01*
X115260457Y-43574978D01*
X115400159Y-43372895D01*
X115413456Y-43248014D01*
X115433592Y-42997937D01*
X115484674Y-43050766D01*
X115564900Y-43290067D01*
X115667309Y-43529343D01*
X115714970Y-43436679D01*
X115716345Y-43416226D01*
X115804517Y-43166118D01*
X115888990Y-43121855D01*
X116057292Y-43260416D01*
X116121795Y-43416226D01*
X116185725Y-43623538D01*
X116212080Y-43504086D01*
X116218235Y-43416226D01*
X116376273Y-43168713D01*
X116574172Y-43121855D01*
X116850780Y-43013470D01*
X116910596Y-42862503D01*
X117018517Y-42555694D01*
X117242501Y-42246894D01*
X117574406Y-41890635D01*
X117727764Y-42295980D01*
X117788146Y-42733024D01*
X117711686Y-42911590D01*
X117652548Y-43084510D01*
X117820444Y-43121855D01*
X118116095Y-42989152D01*
X118195461Y-42869537D01*
X118397214Y-42646159D01*
X118508609Y-42617219D01*
X118752057Y-42752561D01*
X118821757Y-42869537D01*
X119005884Y-43103486D01*
X119192854Y-43044252D01*
X119282330Y-42743378D01*
X119303500Y-42483283D01*
X119355692Y-42548092D01*
X119408489Y-42707108D01*
X119548455Y-42926637D01*
X119847551Y-43038247D01*
X120316887Y-43077383D01*
X120829577Y-43066967D01*
X121072948Y-42977751D01*
X121115894Y-42861335D01*
X121187022Y-42634773D01*
X121242052Y-42604719D01*
X121911850Y-42474995D01*
X122296161Y-42253196D01*
X122339758Y-42191942D01*
X122545389Y-41965703D01*
X122736897Y-42064322D01*
X122924719Y-42491060D01*
X123100092Y-43037749D01*
X123117264Y-42491060D01*
X123178736Y-42098180D01*
X123363008Y-41952258D01*
X123458526Y-41944371D01*
X123762970Y-41812386D01*
X123859543Y-41650000D01*
X123923473Y-41442688D01*
X123949828Y-41562140D01*
X123955983Y-41650000D01*
X124006512Y-41795092D01*
X124177892Y-41883521D01*
X124535185Y-41928615D01*
X125143451Y-41943703D01*
X125392964Y-41944371D01*
X126099347Y-41934777D01*
X126537125Y-41897129D01*
X126773789Y-41818133D01*
X126876834Y-41684495D01*
X126887358Y-41650000D01*
X126951288Y-41442688D01*
X126977643Y-41562140D01*
G36*
X126977643Y-57562140D02*
X126983798Y-57650000D01*
X127080153Y-57900108D01*
X127171523Y-57944371D01*
X127322559Y-57804827D01*
X127356907Y-57650000D01*
X127408991Y-57589739D01*
X127516884Y-57807236D01*
X127550278Y-57905195D01*
X127640935Y-58303414D01*
X127629127Y-58548779D01*
X127619704Y-58561532D01*
X127418051Y-58605629D01*
X126952257Y-58643970D01*
X126294604Y-58672099D01*
X125620346Y-58684814D01*
X124794477Y-58696860D01*
X124245995Y-58722576D01*
X123915882Y-58772089D01*
X123745117Y-58855528D01*
X123674684Y-58983019D01*
X123666380Y-59020111D01*
X123590301Y-59226838D01*
X123466701Y-59120263D01*
X123456400Y-59104217D01*
X123348438Y-59021303D01*
X123306803Y-59246351D01*
X123305224Y-59332120D01*
X123238436Y-59682724D01*
X123005126Y-59793737D01*
X122966225Y-59794702D01*
X122692243Y-59689524D01*
X122629801Y-59542385D01*
X122489563Y-59336898D01*
X122293377Y-59290067D01*
X122019395Y-59395245D01*
X121956953Y-59542385D01*
X121891208Y-59675029D01*
X121653497Y-59753106D01*
X121183109Y-59788661D01*
X120685436Y-59794702D01*
X120062225Y-59813435D01*
X119649490Y-59864405D01*
X119506242Y-59939775D01*
X119510396Y-59950804D01*
X119458239Y-60118692D01*
X119293532Y-60206355D01*
X119049791Y-60381159D01*
X118821545Y-60684347D01*
X118671270Y-61003717D01*
X118661435Y-61227064D01*
X118705370Y-61262723D01*
X119309715Y-61576716D01*
X119785038Y-62025347D01*
X120024444Y-62494872D01*
X120055917Y-62925675D01*
X119886022Y-63182115D01*
X119467874Y-63301864D01*
X118991788Y-63324577D01*
X118453214Y-63399255D01*
X118085943Y-63589047D01*
X117955284Y-63849298D01*
X118003973Y-64000000D01*
X118006904Y-64267070D01*
X117919867Y-64420530D01*
X117803770Y-64704395D01*
X117831025Y-64833396D01*
X117824945Y-65086209D01*
X117677294Y-65382829D01*
X117474279Y-65845281D01*
X117415231Y-66224184D01*
X117361848Y-66566339D01*
X117137173Y-66683991D01*
X116978602Y-66691391D01*
X116495786Y-66611543D01*
X116095490Y-66459565D01*
X115603455Y-66219550D01*
X115228476Y-66052605D01*
X114845921Y-65887593D01*
X114296267Y-65643979D01*
X113860438Y-65447768D01*
X113428027Y-65261590D01*
X115060264Y-65261590D01*
X115144370Y-65345696D01*
X115228476Y-65261590D01*
X115144370Y-65177484D01*
X115060264Y-65261590D01*
X113428027Y-65261590D01*
X113319551Y-65214885D01*
X112938112Y-65113158D01*
X112572191Y-65128344D01*
X112077855Y-65246198D01*
X112010107Y-65264641D01*
X111311009Y-65448645D01*
X110585019Y-65629397D01*
X110308278Y-65694713D01*
X109845782Y-65826769D01*
X109557311Y-65958868D01*
X109509271Y-66017284D01*
X109356297Y-66108836D01*
X108952400Y-66222417D01*
X108380114Y-66335493D01*
X108289735Y-66350243D01*
X107334997Y-66520065D01*
X106664047Y-66710811D01*
X106225785Y-66975557D01*
X105969114Y-67367379D01*
X105842937Y-67939351D01*
X105796156Y-68744551D01*
X105791700Y-68944977D01*
X105757668Y-69657862D01*
X105696103Y-70154601D01*
X105620585Y-70411295D01*
X105544692Y-70404048D01*
X105482006Y-70108961D01*
X105447343Y-69550994D01*
X105417349Y-68457616D01*
X105318608Y-69381324D01*
X105231182Y-69948106D01*
X105103255Y-70251611D01*
X104911538Y-70363564D01*
X104702864Y-70363833D01*
X104731905Y-70186762D01*
X104785379Y-70081710D01*
X104901902Y-69699347D01*
X104966767Y-69168456D01*
X104971243Y-69015364D01*
X105048517Y-68395231D01*
X105237025Y-67729828D01*
X105312391Y-67545585D01*
X105515037Y-66992904D01*
X105510199Y-66674946D01*
X105476908Y-66628830D01*
X105366684Y-66345547D01*
X105313872Y-65858707D01*
X105315397Y-65682120D01*
X105808609Y-65682120D01*
X105870155Y-65820577D01*
X105920750Y-65794261D01*
X105940882Y-65594633D01*
X105920750Y-65569978D01*
X105820748Y-65593069D01*
X105808609Y-65682120D01*
X105315397Y-65682120D01*
X105318731Y-65296284D01*
X105357856Y-64978459D01*
X108888828Y-64978459D01*
X109024449Y-65075547D01*
X109048008Y-65087745D01*
X109394520Y-65187765D01*
X109838373Y-65137354D01*
X110182119Y-65039728D01*
X110807034Y-64851541D01*
X111532894Y-64646990D01*
X111864238Y-64558471D01*
X112141594Y-64484669D01*
X113966887Y-64484669D01*
X114363999Y-64831077D01*
X114713654Y-65111671D01*
X114872164Y-65167855D01*
X114892052Y-65112724D01*
X114784095Y-65009272D01*
X116910596Y-65009272D01*
X116972142Y-65147729D01*
X117022737Y-65121413D01*
X117042869Y-64921785D01*
X117022737Y-64897131D01*
X116922735Y-64920221D01*
X116910596Y-65009272D01*
X114784095Y-65009272D01*
X114764638Y-64990627D01*
X114455342Y-64782170D01*
X114429470Y-64766317D01*
X113966887Y-64484669D01*
X112141594Y-64484669D01*
X112418135Y-64411084D01*
X112621403Y-64354435D01*
X115420277Y-64354435D01*
X115575119Y-64519059D01*
X115661286Y-64585130D01*
X116010772Y-64801590D01*
X116185099Y-64747371D01*
X116237194Y-64399094D01*
X116237748Y-64330506D01*
X116215169Y-63986701D01*
X116182987Y-63967186D01*
X117024616Y-63967186D01*
X117040327Y-64207442D01*
X117122247Y-64460274D01*
X117200036Y-64397489D01*
X117263457Y-64243310D01*
X117376830Y-63860810D01*
X117403408Y-63685033D01*
X117358985Y-63543000D01*
X117180279Y-63649165D01*
X117024616Y-63967186D01*
X116182987Y-63967186D01*
X116095359Y-63914051D01*
X115859271Y-64016867D01*
X115504712Y-64216549D01*
X115420277Y-64354435D01*
X112621403Y-64354435D01*
X112859245Y-64288151D01*
X113031306Y-64236003D01*
X113047917Y-64123671D01*
X112778240Y-63917216D01*
X112470038Y-63747873D01*
X111666866Y-63341255D01*
X110168859Y-64118357D01*
X109496217Y-64472692D01*
X109085084Y-64711305D01*
X108895830Y-64868470D01*
X108888828Y-64978459D01*
X105357856Y-64978459D01*
X105381517Y-64786254D01*
X105472639Y-64503789D01*
X105628054Y-64298389D01*
X105843332Y-64305604D01*
X106086273Y-64419486D01*
X106382539Y-64542914D01*
X106613992Y-64505129D01*
X106901216Y-64268141D01*
X107053038Y-64114905D01*
X107427189Y-63626723D01*
X107522795Y-63191960D01*
X107518277Y-63148150D01*
X107428808Y-62846251D01*
X107198038Y-62766300D01*
X106973742Y-62788449D01*
X106451274Y-62805396D01*
X106063080Y-62753982D01*
X105785856Y-62634860D01*
X105665009Y-62392275D01*
X105640397Y-61975048D01*
X105623665Y-61549196D01*
X105533922Y-61379461D01*
X105311842Y-61385814D01*
X105219867Y-61407746D01*
X104899719Y-61435242D01*
X104800012Y-61270191D01*
X104799337Y-61242739D01*
X104909564Y-61044778D01*
X105277286Y-60973581D01*
X105368980Y-60972186D01*
X105729673Y-60996948D01*
X105914578Y-61133251D01*
X106011728Y-61474120D01*
X106045511Y-61687086D01*
X106152401Y-62401987D01*
X108079470Y-62401987D01*
X108132180Y-62948676D01*
X108223266Y-63341710D01*
X108356249Y-63487136D01*
X108468031Y-63362296D01*
X108500000Y-63080753D01*
X108502057Y-63074835D01*
X108836423Y-63074835D01*
X108920529Y-63158941D01*
X109004635Y-63074835D01*
X108920529Y-62990729D01*
X108836423Y-63074835D01*
X108502057Y-63074835D01*
X108560531Y-62906623D01*
X109172847Y-62906623D01*
X109256953Y-62990729D01*
X109341059Y-62906623D01*
X109256953Y-62822517D01*
X109172847Y-62906623D01*
X108560531Y-62906623D01*
X108647161Y-62657417D01*
X108915769Y-62491954D01*
X113546357Y-62491954D01*
X113661746Y-62662306D01*
X113943322Y-62953467D01*
X114294195Y-63276548D01*
X114617479Y-63542661D01*
X114816285Y-63662916D01*
X114823418Y-63663577D01*
X115025576Y-63625913D01*
X115435090Y-63530701D01*
X115658624Y-63475395D01*
X116405960Y-63287214D01*
X116405960Y-62446514D01*
X116394246Y-61952137D01*
X116333553Y-61718710D01*
X116185548Y-61670930D01*
X116027483Y-61702954D01*
X114980948Y-61978524D01*
X114238295Y-62191054D01*
X113774557Y-62348482D01*
X113564767Y-62458750D01*
X113546357Y-62491954D01*
X108915769Y-62491954D01*
X109069605Y-62397191D01*
X109666424Y-62317881D01*
X110035747Y-62271630D01*
X110172522Y-62085714D01*
X110183970Y-61939404D01*
X110212873Y-61516071D01*
X110279638Y-60997011D01*
X111024679Y-60997011D01*
X111053162Y-61366598D01*
X111122694Y-61520266D01*
X111291003Y-61575371D01*
X111622854Y-61519292D01*
X111664241Y-61505879D01*
X117142245Y-61505879D01*
X117171835Y-62206251D01*
X117195293Y-62662641D01*
X117218154Y-62956540D01*
X117224223Y-62996228D01*
X117385003Y-63024005D01*
X117779881Y-63031839D01*
X118307341Y-63023150D01*
X118865869Y-63001354D01*
X119353951Y-62969870D01*
X119670072Y-62932114D01*
X119732105Y-62911793D01*
X119720715Y-62744257D01*
X119673361Y-62597679D01*
X119401104Y-62258808D01*
X118908527Y-61932615D01*
X118308155Y-61680714D01*
X117798655Y-61571181D01*
X117142245Y-61505879D01*
X111664241Y-61505879D01*
X112178051Y-61339363D01*
X112452980Y-61238518D01*
X112984944Y-61075227D01*
X113459945Y-60985894D01*
X113546357Y-60980681D01*
X114032345Y-60948366D01*
X114639982Y-60873547D01*
X115282977Y-60771677D01*
X115875041Y-60658210D01*
X116329880Y-60548599D01*
X116561206Y-60458298D01*
X116574172Y-60438446D01*
X116416813Y-60384745D01*
X115988069Y-60340675D01*
X115352939Y-60310715D01*
X114576422Y-60299345D01*
X114555629Y-60299338D01*
X113697456Y-60304006D01*
X113120380Y-60323330D01*
X112769140Y-60365293D01*
X112588477Y-60437876D01*
X112523130Y-60549061D01*
X112517573Y-60593709D01*
X112494077Y-60801021D01*
X112444424Y-60681569D01*
X112421133Y-60593709D01*
X112255977Y-60357498D01*
X112026410Y-60312637D01*
X111873878Y-60469808D01*
X111864238Y-60551656D01*
X111729590Y-60774666D01*
X111611920Y-60803974D01*
X111391277Y-60668549D01*
X111359602Y-60541729D01*
X111285466Y-60383444D01*
X111527814Y-60383444D01*
X111611920Y-60467550D01*
X111696026Y-60383444D01*
X111611920Y-60299338D01*
X111527814Y-60383444D01*
X111285466Y-60383444D01*
X111278054Y-60367620D01*
X111191390Y-60383444D01*
X111074256Y-60611357D01*
X111024679Y-60997011D01*
X110279638Y-60997011D01*
X110280952Y-60986796D01*
X110290085Y-60930133D01*
X110340906Y-60519653D01*
X110266098Y-60342193D01*
X110002213Y-60300141D01*
X109880038Y-60299338D01*
X109444023Y-60387744D01*
X109288800Y-60593709D01*
X109224870Y-60801021D01*
X109198515Y-60681569D01*
X109192360Y-60593709D01*
X109071072Y-60361249D01*
X108851172Y-60308528D01*
X108685316Y-60447795D01*
X108668211Y-60551656D01*
X108585011Y-60778266D01*
X108414051Y-60751446D01*
X108279528Y-60509603D01*
X108215598Y-60302291D01*
X108189243Y-60421743D01*
X108183088Y-60509603D01*
X108045324Y-60744062D01*
X107774356Y-60794750D01*
X107518779Y-60661666D01*
X107438469Y-60509603D01*
X107374539Y-60302291D01*
X107348184Y-60421743D01*
X107342029Y-60509603D01*
X107296593Y-60645358D01*
X107141646Y-60732051D01*
X106816655Y-60780277D01*
X106261087Y-60800629D01*
X105660016Y-60803974D01*
X104849031Y-60794942D01*
X104315881Y-60744124D01*
X104002034Y-60615935D01*
X103848957Y-60374792D01*
X103798120Y-59985110D01*
X103792363Y-59668543D01*
X103727178Y-59373077D01*
X103621854Y-59290067D01*
X103473424Y-59150699D01*
X103441819Y-58995696D01*
X103419521Y-58797875D01*
X103348185Y-58910907D01*
X103309093Y-59008143D01*
X103140318Y-59262434D01*
X103033112Y-59314962D01*
X102851125Y-59179297D01*
X102757132Y-59008143D01*
X102661033Y-58799219D01*
X102628954Y-58902552D01*
X102624405Y-58995696D01*
X102552725Y-59177485D01*
X102304463Y-59266341D01*
X101801165Y-59290064D01*
X101793671Y-59290067D01*
X100974760Y-59290067D01*
X100831786Y-60004967D01*
X100776118Y-60452887D01*
X100730454Y-61142824D01*
X100699535Y-61980411D01*
X100688104Y-62864570D01*
X100687396Y-65009272D01*
X99962591Y-65009272D01*
X99403736Y-64950222D01*
X99146548Y-64770231D01*
X99140962Y-64756954D01*
X98975850Y-64534362D01*
X98893923Y-64504636D01*
X98760573Y-64641145D01*
X98743708Y-64756954D01*
X98609060Y-64979964D01*
X98491390Y-65009272D01*
X98268380Y-64874624D01*
X98239072Y-64756954D01*
X98120230Y-64552610D01*
X97860830Y-64516574D01*
X97606559Y-64640398D01*
X97513966Y-64799007D01*
X97450036Y-65006319D01*
X97423681Y-64886867D01*
X97417526Y-64799007D01*
X97322882Y-64600800D01*
X97021523Y-64515557D01*
X96725165Y-64504636D01*
X96272481Y-64539203D01*
X96072264Y-64665534D01*
X96040495Y-64799007D01*
X96013132Y-64979045D01*
X95928608Y-64857560D01*
X95884105Y-64756954D01*
X95770637Y-64516558D01*
X95728991Y-64585256D01*
X95714436Y-64756954D01*
X95664779Y-64946278D01*
X95601128Y-64873026D01*
X95389345Y-64526925D01*
X95077657Y-64194199D01*
X94762522Y-63961351D01*
X94540398Y-63914885D01*
X94535712Y-63917562D01*
X94354142Y-63874510D01*
X94242216Y-63638448D01*
X94136878Y-63243047D01*
X94017988Y-63663577D01*
X93930492Y-63945452D01*
X93895024Y-63913115D01*
X93882330Y-63705630D01*
X93810073Y-63409835D01*
X93709050Y-63327153D01*
X93559445Y-63469684D01*
X93479639Y-63705630D01*
X93406742Y-64084106D01*
X93383834Y-63705630D01*
X93310987Y-63446332D01*
X93069726Y-63341476D01*
X92772185Y-63327153D01*
X92336742Y-63272438D01*
X92184507Y-63097815D01*
X92183443Y-63074835D01*
X92111054Y-62844707D01*
X91957238Y-62869948D01*
X91817024Y-63119495D01*
X91797520Y-63200994D01*
X91724622Y-63579471D01*
X91701715Y-63200994D01*
X91662658Y-62996871D01*
X91525286Y-62883197D01*
X91212441Y-62833812D01*
X90646964Y-62822554D01*
X90585430Y-62822517D01*
X89993711Y-62812032D01*
X89663814Y-62765327D01*
X89521400Y-62659529D01*
X89492053Y-62486093D01*
X89537348Y-62282597D01*
X89728767Y-62182162D01*
X90149615Y-62150739D01*
X90315115Y-62149669D01*
X90894402Y-62192634D01*
X91190291Y-62329368D01*
X91235002Y-62401987D01*
X91430060Y-62612090D01*
X91681687Y-62634096D01*
X91839705Y-62468005D01*
X91847019Y-62401987D01*
X91981667Y-62178977D01*
X92099337Y-62149669D01*
X92322347Y-62284317D01*
X92351655Y-62401987D01*
X92486303Y-62624997D01*
X92603973Y-62654305D01*
X92826983Y-62788953D01*
X92856291Y-62906623D01*
X92992233Y-63096223D01*
X93313454Y-63172628D01*
X93690049Y-63140280D01*
X93992109Y-63003621D01*
X94086034Y-62864570D01*
X94149964Y-62657258D01*
X94176318Y-62776710D01*
X94182473Y-62864570D01*
X94312430Y-63089617D01*
X94698191Y-63158925D01*
X94706622Y-63158941D01*
X95107255Y-63234167D01*
X95211258Y-63411259D01*
X95228454Y-63525081D01*
X95314092Y-63603906D01*
X95519242Y-63653448D01*
X95894977Y-63679422D01*
X96492370Y-63687544D01*
X97362492Y-63683530D01*
X97624659Y-63681334D01*
X98345977Y-63682866D01*
X98798452Y-63711180D01*
X99049373Y-63778991D01*
X99166027Y-63899015D01*
X99193817Y-63977867D01*
X99368816Y-64207747D01*
X99773010Y-64267360D01*
X99808230Y-64266213D01*
X100341721Y-64245112D01*
X100444144Y-61389112D01*
X100479145Y-60447770D01*
X100511836Y-59632107D01*
X100539795Y-58997808D01*
X100560596Y-58600555D01*
X100570303Y-58491060D01*
X100736008Y-58465895D01*
X101127478Y-58450871D01*
X101350993Y-58449007D01*
X101849911Y-58415986D01*
X102077168Y-58303707D01*
X102107947Y-58196689D01*
X102207009Y-58030383D01*
X102543846Y-57954631D01*
X102864900Y-57944371D01*
X103378671Y-57982539D01*
X103603729Y-58105268D01*
X103621854Y-58178692D01*
X103757966Y-58436025D01*
X103884666Y-58513864D01*
X104042429Y-58649742D01*
X104080731Y-58946226D01*
X104033779Y-59372920D01*
X103920079Y-60131126D01*
X104780238Y-60131126D01*
X105291668Y-60114206D01*
X105362698Y-60094330D01*
X117286376Y-60094330D01*
X117343860Y-60259400D01*
X117441514Y-60262542D01*
X117633342Y-60361878D01*
X117691721Y-60551656D01*
X117728926Y-60946625D01*
X117788302Y-61108550D01*
X117909144Y-61140375D01*
X117916448Y-61140398D01*
X118084937Y-61003540D01*
X118320273Y-60657617D01*
X118429651Y-60457460D01*
X118778060Y-59774522D01*
X118067666Y-59826665D01*
X117613066Y-59905370D01*
X117325228Y-60040139D01*
X117286376Y-60094330D01*
X105362698Y-60094330D01*
X105549462Y-60042069D01*
X105635609Y-59882645D01*
X105640397Y-59794702D01*
X105711819Y-59506554D01*
X105864787Y-59496626D01*
X106007356Y-59754898D01*
X106026320Y-59836755D01*
X106082978Y-60080392D01*
X106112154Y-60002458D01*
X106121963Y-59878808D01*
X106141800Y-59766939D01*
X106212530Y-59683898D01*
X106376832Y-59626218D01*
X106677384Y-59590430D01*
X107156864Y-59573065D01*
X107857950Y-59570655D01*
X108823320Y-59579730D01*
X109664780Y-59590861D01*
X113184851Y-59639337D01*
X113258591Y-59254437D01*
X113332330Y-58869537D01*
X113355238Y-59248014D01*
X113466156Y-59545764D01*
X113786976Y-59626490D01*
X114139100Y-59519239D01*
X114268704Y-59248014D01*
X114341602Y-58869537D01*
X114364509Y-59248014D01*
X114451526Y-59523278D01*
X114731594Y-59621062D01*
X114892052Y-59626490D01*
X115260457Y-59574978D01*
X115400159Y-59372895D01*
X115413456Y-59248014D01*
X115433592Y-58997937D01*
X115484674Y-59050766D01*
X115564900Y-59290067D01*
X115667309Y-59529343D01*
X115714970Y-59436679D01*
X115716345Y-59416226D01*
X115804517Y-59166118D01*
X115888990Y-59121855D01*
X116057292Y-59260416D01*
X116121795Y-59416226D01*
X116185725Y-59623538D01*
X116212080Y-59504086D01*
X116218235Y-59416226D01*
X116376273Y-59168713D01*
X116574172Y-59121855D01*
X116850780Y-59013470D01*
X116910596Y-58862503D01*
X117018517Y-58555694D01*
X117242501Y-58246894D01*
X117574406Y-57890635D01*
X117727764Y-58295980D01*
X117788146Y-58733024D01*
X117711686Y-58911590D01*
X117652548Y-59084510D01*
X117820444Y-59121855D01*
X118116095Y-58989152D01*
X118195461Y-58869537D01*
X118397214Y-58646159D01*
X118508609Y-58617219D01*
X118752057Y-58752561D01*
X118821757Y-58869537D01*
X119005884Y-59103486D01*
X119192854Y-59044252D01*
X119282330Y-58743378D01*
X119303500Y-58483283D01*
X119355692Y-58548092D01*
X119408489Y-58707108D01*
X119548455Y-58926637D01*
X119847551Y-59038247D01*
X120316887Y-59077383D01*
X120829577Y-59066967D01*
X121072948Y-58977751D01*
X121115894Y-58861335D01*
X121187022Y-58634773D01*
X121242052Y-58604719D01*
X121911850Y-58474995D01*
X122296161Y-58253196D01*
X122339758Y-58191942D01*
X122545389Y-57965703D01*
X122736897Y-58064322D01*
X122924719Y-58491060D01*
X123100092Y-59037749D01*
X123117264Y-58491060D01*
X123178736Y-58098180D01*
X123363008Y-57952258D01*
X123458526Y-57944371D01*
X123762970Y-57812386D01*
X123859543Y-57650000D01*
X123923473Y-57442688D01*
X123949828Y-57562140D01*
X123955983Y-57650000D01*
X124006512Y-57795092D01*
X124177892Y-57883521D01*
X124535185Y-57928615D01*
X125143451Y-57943703D01*
X125392964Y-57944371D01*
X126099347Y-57934777D01*
X126537125Y-57897129D01*
X126773789Y-57818133D01*
X126876834Y-57684495D01*
X126887358Y-57650000D01*
X126951288Y-57442688D01*
X126977643Y-57562140D01*
X126977643Y-57562140D01*
G37*
X126977643Y-57562140D02*
X126983798Y-57650000D01*
X127080153Y-57900108D01*
X127171523Y-57944371D01*
X127322559Y-57804827D01*
X127356907Y-57650000D01*
X127408991Y-57589739D01*
X127516884Y-57807236D01*
X127550278Y-57905195D01*
X127640935Y-58303414D01*
X127629127Y-58548779D01*
X127619704Y-58561532D01*
X127418051Y-58605629D01*
X126952257Y-58643970D01*
X126294604Y-58672099D01*
X125620346Y-58684814D01*
X124794477Y-58696860D01*
X124245995Y-58722576D01*
X123915882Y-58772089D01*
X123745117Y-58855528D01*
X123674684Y-58983019D01*
X123666380Y-59020111D01*
X123590301Y-59226838D01*
X123466701Y-59120263D01*
X123456400Y-59104217D01*
X123348438Y-59021303D01*
X123306803Y-59246351D01*
X123305224Y-59332120D01*
X123238436Y-59682724D01*
X123005126Y-59793737D01*
X122966225Y-59794702D01*
X122692243Y-59689524D01*
X122629801Y-59542385D01*
X122489563Y-59336898D01*
X122293377Y-59290067D01*
X122019395Y-59395245D01*
X121956953Y-59542385D01*
X121891208Y-59675029D01*
X121653497Y-59753106D01*
X121183109Y-59788661D01*
X120685436Y-59794702D01*
X120062225Y-59813435D01*
X119649490Y-59864405D01*
X119506242Y-59939775D01*
X119510396Y-59950804D01*
X119458239Y-60118692D01*
X119293532Y-60206355D01*
X119049791Y-60381159D01*
X118821545Y-60684347D01*
X118671270Y-61003717D01*
X118661435Y-61227064D01*
X118705370Y-61262723D01*
X119309715Y-61576716D01*
X119785038Y-62025347D01*
X120024444Y-62494872D01*
X120055917Y-62925675D01*
X119886022Y-63182115D01*
X119467874Y-63301864D01*
X118991788Y-63324577D01*
X118453214Y-63399255D01*
X118085943Y-63589047D01*
X117955284Y-63849298D01*
X118003973Y-64000000D01*
X118006904Y-64267070D01*
X117919867Y-64420530D01*
X117803770Y-64704395D01*
X117831025Y-64833396D01*
X117824945Y-65086209D01*
X117677294Y-65382829D01*
X117474279Y-65845281D01*
X117415231Y-66224184D01*
X117361848Y-66566339D01*
X117137173Y-66683991D01*
X116978602Y-66691391D01*
X116495786Y-66611543D01*
X116095490Y-66459565D01*
X115603455Y-66219550D01*
X115228476Y-66052605D01*
X114845921Y-65887593D01*
X114296267Y-65643979D01*
X113860438Y-65447768D01*
X113428027Y-65261590D01*
X115060264Y-65261590D01*
X115144370Y-65345696D01*
X115228476Y-65261590D01*
X115144370Y-65177484D01*
X115060264Y-65261590D01*
X113428027Y-65261590D01*
X113319551Y-65214885D01*
X112938112Y-65113158D01*
X112572191Y-65128344D01*
X112077855Y-65246198D01*
X112010107Y-65264641D01*
X111311009Y-65448645D01*
X110585019Y-65629397D01*
X110308278Y-65694713D01*
X109845782Y-65826769D01*
X109557311Y-65958868D01*
X109509271Y-66017284D01*
X109356297Y-66108836D01*
X108952400Y-66222417D01*
X108380114Y-66335493D01*
X108289735Y-66350243D01*
X107334997Y-66520065D01*
X106664047Y-66710811D01*
X106225785Y-66975557D01*
X105969114Y-67367379D01*
X105842937Y-67939351D01*
X105796156Y-68744551D01*
X105791700Y-68944977D01*
X105757668Y-69657862D01*
X105696103Y-70154601D01*
X105620585Y-70411295D01*
X105544692Y-70404048D01*
X105482006Y-70108961D01*
X105447343Y-69550994D01*
X105417349Y-68457616D01*
X105318608Y-69381324D01*
X105231182Y-69948106D01*
X105103255Y-70251611D01*
X104911538Y-70363564D01*
X104702864Y-70363833D01*
X104731905Y-70186762D01*
X104785379Y-70081710D01*
X104901902Y-69699347D01*
X104966767Y-69168456D01*
X104971243Y-69015364D01*
X105048517Y-68395231D01*
X105237025Y-67729828D01*
X105312391Y-67545585D01*
X105515037Y-66992904D01*
X105510199Y-66674946D01*
X105476908Y-66628830D01*
X105366684Y-66345547D01*
X105313872Y-65858707D01*
X105315397Y-65682120D01*
X105808609Y-65682120D01*
X105870155Y-65820577D01*
X105920750Y-65794261D01*
X105940882Y-65594633D01*
X105920750Y-65569978D01*
X105820748Y-65593069D01*
X105808609Y-65682120D01*
X105315397Y-65682120D01*
X105318731Y-65296284D01*
X105357856Y-64978459D01*
X108888828Y-64978459D01*
X109024449Y-65075547D01*
X109048008Y-65087745D01*
X109394520Y-65187765D01*
X109838373Y-65137354D01*
X110182119Y-65039728D01*
X110807034Y-64851541D01*
X111532894Y-64646990D01*
X111864238Y-64558471D01*
X112141594Y-64484669D01*
X113966887Y-64484669D01*
X114363999Y-64831077D01*
X114713654Y-65111671D01*
X114872164Y-65167855D01*
X114892052Y-65112724D01*
X114784095Y-65009272D01*
X116910596Y-65009272D01*
X116972142Y-65147729D01*
X117022737Y-65121413D01*
X117042869Y-64921785D01*
X117022737Y-64897131D01*
X116922735Y-64920221D01*
X116910596Y-65009272D01*
X114784095Y-65009272D01*
X114764638Y-64990627D01*
X114455342Y-64782170D01*
X114429470Y-64766317D01*
X113966887Y-64484669D01*
X112141594Y-64484669D01*
X112418135Y-64411084D01*
X112621403Y-64354435D01*
X115420277Y-64354435D01*
X115575119Y-64519059D01*
X115661286Y-64585130D01*
X116010772Y-64801590D01*
X116185099Y-64747371D01*
X116237194Y-64399094D01*
X116237748Y-64330506D01*
X116215169Y-63986701D01*
X116182987Y-63967186D01*
X117024616Y-63967186D01*
X117040327Y-64207442D01*
X117122247Y-64460274D01*
X117200036Y-64397489D01*
X117263457Y-64243310D01*
X117376830Y-63860810D01*
X117403408Y-63685033D01*
X117358985Y-63543000D01*
X117180279Y-63649165D01*
X117024616Y-63967186D01*
X116182987Y-63967186D01*
X116095359Y-63914051D01*
X115859271Y-64016867D01*
X115504712Y-64216549D01*
X115420277Y-64354435D01*
X112621403Y-64354435D01*
X112859245Y-64288151D01*
X113031306Y-64236003D01*
X113047917Y-64123671D01*
X112778240Y-63917216D01*
X112470038Y-63747873D01*
X111666866Y-63341255D01*
X110168859Y-64118357D01*
X109496217Y-64472692D01*
X109085084Y-64711305D01*
X108895830Y-64868470D01*
X108888828Y-64978459D01*
X105357856Y-64978459D01*
X105381517Y-64786254D01*
X105472639Y-64503789D01*
X105628054Y-64298389D01*
X105843332Y-64305604D01*
X106086273Y-64419486D01*
X106382539Y-64542914D01*
X106613992Y-64505129D01*
X106901216Y-64268141D01*
X107053038Y-64114905D01*
X107427189Y-63626723D01*
X107522795Y-63191960D01*
X107518277Y-63148150D01*
X107428808Y-62846251D01*
X107198038Y-62766300D01*
X106973742Y-62788449D01*
X106451274Y-62805396D01*
X106063080Y-62753982D01*
X105785856Y-62634860D01*
X105665009Y-62392275D01*
X105640397Y-61975048D01*
X105623665Y-61549196D01*
X105533922Y-61379461D01*
X105311842Y-61385814D01*
X105219867Y-61407746D01*
X104899719Y-61435242D01*
X104800012Y-61270191D01*
X104799337Y-61242739D01*
X104909564Y-61044778D01*
X105277286Y-60973581D01*
X105368980Y-60972186D01*
X105729673Y-60996948D01*
X105914578Y-61133251D01*
X106011728Y-61474120D01*
X106045511Y-61687086D01*
X106152401Y-62401987D01*
X108079470Y-62401987D01*
X108132180Y-62948676D01*
X108223266Y-63341710D01*
X108356249Y-63487136D01*
X108468031Y-63362296D01*
X108500000Y-63080753D01*
X108502057Y-63074835D01*
X108836423Y-63074835D01*
X108920529Y-63158941D01*
X109004635Y-63074835D01*
X108920529Y-62990729D01*
X108836423Y-63074835D01*
X108502057Y-63074835D01*
X108560531Y-62906623D01*
X109172847Y-62906623D01*
X109256953Y-62990729D01*
X109341059Y-62906623D01*
X109256953Y-62822517D01*
X109172847Y-62906623D01*
X108560531Y-62906623D01*
X108647161Y-62657417D01*
X108915769Y-62491954D01*
X113546357Y-62491954D01*
X113661746Y-62662306D01*
X113943322Y-62953467D01*
X114294195Y-63276548D01*
X114617479Y-63542661D01*
X114816285Y-63662916D01*
X114823418Y-63663577D01*
X115025576Y-63625913D01*
X115435090Y-63530701D01*
X115658624Y-63475395D01*
X116405960Y-63287214D01*
X116405960Y-62446514D01*
X116394246Y-61952137D01*
X116333553Y-61718710D01*
X116185548Y-61670930D01*
X116027483Y-61702954D01*
X114980948Y-61978524D01*
X114238295Y-62191054D01*
X113774557Y-62348482D01*
X113564767Y-62458750D01*
X113546357Y-62491954D01*
X108915769Y-62491954D01*
X109069605Y-62397191D01*
X109666424Y-62317881D01*
X110035747Y-62271630D01*
X110172522Y-62085714D01*
X110183970Y-61939404D01*
X110212873Y-61516071D01*
X110279638Y-60997011D01*
X111024679Y-60997011D01*
X111053162Y-61366598D01*
X111122694Y-61520266D01*
X111291003Y-61575371D01*
X111622854Y-61519292D01*
X111664241Y-61505879D01*
X117142245Y-61505879D01*
X117171835Y-62206251D01*
X117195293Y-62662641D01*
X117218154Y-62956540D01*
X117224223Y-62996228D01*
X117385003Y-63024005D01*
X117779881Y-63031839D01*
X118307341Y-63023150D01*
X118865869Y-63001354D01*
X119353951Y-62969870D01*
X119670072Y-62932114D01*
X119732105Y-62911793D01*
X119720715Y-62744257D01*
X119673361Y-62597679D01*
X119401104Y-62258808D01*
X118908527Y-61932615D01*
X118308155Y-61680714D01*
X117798655Y-61571181D01*
X117142245Y-61505879D01*
X111664241Y-61505879D01*
X112178051Y-61339363D01*
X112452980Y-61238518D01*
X112984944Y-61075227D01*
X113459945Y-60985894D01*
X113546357Y-60980681D01*
X114032345Y-60948366D01*
X114639982Y-60873547D01*
X115282977Y-60771677D01*
X115875041Y-60658210D01*
X116329880Y-60548599D01*
X116561206Y-60458298D01*
X116574172Y-60438446D01*
X116416813Y-60384745D01*
X115988069Y-60340675D01*
X115352939Y-60310715D01*
X114576422Y-60299345D01*
X114555629Y-60299338D01*
X113697456Y-60304006D01*
X113120380Y-60323330D01*
X112769140Y-60365293D01*
X112588477Y-60437876D01*
X112523130Y-60549061D01*
X112517573Y-60593709D01*
X112494077Y-60801021D01*
X112444424Y-60681569D01*
X112421133Y-60593709D01*
X112255977Y-60357498D01*
X112026410Y-60312637D01*
X111873878Y-60469808D01*
X111864238Y-60551656D01*
X111729590Y-60774666D01*
X111611920Y-60803974D01*
X111391277Y-60668549D01*
X111359602Y-60541729D01*
X111285466Y-60383444D01*
X111527814Y-60383444D01*
X111611920Y-60467550D01*
X111696026Y-60383444D01*
X111611920Y-60299338D01*
X111527814Y-60383444D01*
X111285466Y-60383444D01*
X111278054Y-60367620D01*
X111191390Y-60383444D01*
X111074256Y-60611357D01*
X111024679Y-60997011D01*
X110279638Y-60997011D01*
X110280952Y-60986796D01*
X110290085Y-60930133D01*
X110340906Y-60519653D01*
X110266098Y-60342193D01*
X110002213Y-60300141D01*
X109880038Y-60299338D01*
X109444023Y-60387744D01*
X109288800Y-60593709D01*
X109224870Y-60801021D01*
X109198515Y-60681569D01*
X109192360Y-60593709D01*
X109071072Y-60361249D01*
X108851172Y-60308528D01*
X108685316Y-60447795D01*
X108668211Y-60551656D01*
X108585011Y-60778266D01*
X108414051Y-60751446D01*
X108279528Y-60509603D01*
X108215598Y-60302291D01*
X108189243Y-60421743D01*
X108183088Y-60509603D01*
X108045324Y-60744062D01*
X107774356Y-60794750D01*
X107518779Y-60661666D01*
X107438469Y-60509603D01*
X107374539Y-60302291D01*
X107348184Y-60421743D01*
X107342029Y-60509603D01*
X107296593Y-60645358D01*
X107141646Y-60732051D01*
X106816655Y-60780277D01*
X106261087Y-60800629D01*
X105660016Y-60803974D01*
X104849031Y-60794942D01*
X104315881Y-60744124D01*
X104002034Y-60615935D01*
X103848957Y-60374792D01*
X103798120Y-59985110D01*
X103792363Y-59668543D01*
X103727178Y-59373077D01*
X103621854Y-59290067D01*
X103473424Y-59150699D01*
X103441819Y-58995696D01*
X103419521Y-58797875D01*
X103348185Y-58910907D01*
X103309093Y-59008143D01*
X103140318Y-59262434D01*
X103033112Y-59314962D01*
X102851125Y-59179297D01*
X102757132Y-59008143D01*
X102661033Y-58799219D01*
X102628954Y-58902552D01*
X102624405Y-58995696D01*
X102552725Y-59177485D01*
X102304463Y-59266341D01*
X101801165Y-59290064D01*
X101793671Y-59290067D01*
X100974760Y-59290067D01*
X100831786Y-60004967D01*
X100776118Y-60452887D01*
X100730454Y-61142824D01*
X100699535Y-61980411D01*
X100688104Y-62864570D01*
X100687396Y-65009272D01*
X99962591Y-65009272D01*
X99403736Y-64950222D01*
X99146548Y-64770231D01*
X99140962Y-64756954D01*
X98975850Y-64534362D01*
X98893923Y-64504636D01*
X98760573Y-64641145D01*
X98743708Y-64756954D01*
X98609060Y-64979964D01*
X98491390Y-65009272D01*
X98268380Y-64874624D01*
X98239072Y-64756954D01*
X98120230Y-64552610D01*
X97860830Y-64516574D01*
X97606559Y-64640398D01*
X97513966Y-64799007D01*
X97450036Y-65006319D01*
X97423681Y-64886867D01*
X97417526Y-64799007D01*
X97322882Y-64600800D01*
X97021523Y-64515557D01*
X96725165Y-64504636D01*
X96272481Y-64539203D01*
X96072264Y-64665534D01*
X96040495Y-64799007D01*
X96013132Y-64979045D01*
X95928608Y-64857560D01*
X95884105Y-64756954D01*
X95770637Y-64516558D01*
X95728991Y-64585256D01*
X95714436Y-64756954D01*
X95664779Y-64946278D01*
X95601128Y-64873026D01*
X95389345Y-64526925D01*
X95077657Y-64194199D01*
X94762522Y-63961351D01*
X94540398Y-63914885D01*
X94535712Y-63917562D01*
X94354142Y-63874510D01*
X94242216Y-63638448D01*
X94136878Y-63243047D01*
X94017988Y-63663577D01*
X93930492Y-63945452D01*
X93895024Y-63913115D01*
X93882330Y-63705630D01*
X93810073Y-63409835D01*
X93709050Y-63327153D01*
X93559445Y-63469684D01*
X93479639Y-63705630D01*
X93406742Y-64084106D01*
X93383834Y-63705630D01*
X93310987Y-63446332D01*
X93069726Y-63341476D01*
X92772185Y-63327153D01*
X92336742Y-63272438D01*
X92184507Y-63097815D01*
X92183443Y-63074835D01*
X92111054Y-62844707D01*
X91957238Y-62869948D01*
X91817024Y-63119495D01*
X91797520Y-63200994D01*
X91724622Y-63579471D01*
X91701715Y-63200994D01*
X91662658Y-62996871D01*
X91525286Y-62883197D01*
X91212441Y-62833812D01*
X90646964Y-62822554D01*
X90585430Y-62822517D01*
X89993711Y-62812032D01*
X89663814Y-62765327D01*
X89521400Y-62659529D01*
X89492053Y-62486093D01*
X89537348Y-62282597D01*
X89728767Y-62182162D01*
X90149615Y-62150739D01*
X90315115Y-62149669D01*
X90894402Y-62192634D01*
X91190291Y-62329368D01*
X91235002Y-62401987D01*
X91430060Y-62612090D01*
X91681687Y-62634096D01*
X91839705Y-62468005D01*
X91847019Y-62401987D01*
X91981667Y-62178977D01*
X92099337Y-62149669D01*
X92322347Y-62284317D01*
X92351655Y-62401987D01*
X92486303Y-62624997D01*
X92603973Y-62654305D01*
X92826983Y-62788953D01*
X92856291Y-62906623D01*
X92992233Y-63096223D01*
X93313454Y-63172628D01*
X93690049Y-63140280D01*
X93992109Y-63003621D01*
X94086034Y-62864570D01*
X94149964Y-62657258D01*
X94176318Y-62776710D01*
X94182473Y-62864570D01*
X94312430Y-63089617D01*
X94698191Y-63158925D01*
X94706622Y-63158941D01*
X95107255Y-63234167D01*
X95211258Y-63411259D01*
X95228454Y-63525081D01*
X95314092Y-63603906D01*
X95519242Y-63653448D01*
X95894977Y-63679422D01*
X96492370Y-63687544D01*
X97362492Y-63683530D01*
X97624659Y-63681334D01*
X98345977Y-63682866D01*
X98798452Y-63711180D01*
X99049373Y-63778991D01*
X99166027Y-63899015D01*
X99193817Y-63977867D01*
X99368816Y-64207747D01*
X99773010Y-64267360D01*
X99808230Y-64266213D01*
X100341721Y-64245112D01*
X100444144Y-61389112D01*
X100479145Y-60447770D01*
X100511836Y-59632107D01*
X100539795Y-58997808D01*
X100560596Y-58600555D01*
X100570303Y-58491060D01*
X100736008Y-58465895D01*
X101127478Y-58450871D01*
X101350993Y-58449007D01*
X101849911Y-58415986D01*
X102077168Y-58303707D01*
X102107947Y-58196689D01*
X102207009Y-58030383D01*
X102543846Y-57954631D01*
X102864900Y-57944371D01*
X103378671Y-57982539D01*
X103603729Y-58105268D01*
X103621854Y-58178692D01*
X103757966Y-58436025D01*
X103884666Y-58513864D01*
X104042429Y-58649742D01*
X104080731Y-58946226D01*
X104033779Y-59372920D01*
X103920079Y-60131126D01*
X104780238Y-60131126D01*
X105291668Y-60114206D01*
X105362698Y-60094330D01*
X117286376Y-60094330D01*
X117343860Y-60259400D01*
X117441514Y-60262542D01*
X117633342Y-60361878D01*
X117691721Y-60551656D01*
X117728926Y-60946625D01*
X117788302Y-61108550D01*
X117909144Y-61140375D01*
X117916448Y-61140398D01*
X118084937Y-61003540D01*
X118320273Y-60657617D01*
X118429651Y-60457460D01*
X118778060Y-59774522D01*
X118067666Y-59826665D01*
X117613066Y-59905370D01*
X117325228Y-60040139D01*
X117286376Y-60094330D01*
X105362698Y-60094330D01*
X105549462Y-60042069D01*
X105635609Y-59882645D01*
X105640397Y-59794702D01*
X105711819Y-59506554D01*
X105864787Y-59496626D01*
X106007356Y-59754898D01*
X106026320Y-59836755D01*
X106082978Y-60080392D01*
X106112154Y-60002458D01*
X106121963Y-59878808D01*
X106141800Y-59766939D01*
X106212530Y-59683898D01*
X106376832Y-59626218D01*
X106677384Y-59590430D01*
X107156864Y-59573065D01*
X107857950Y-59570655D01*
X108823320Y-59579730D01*
X109664780Y-59590861D01*
X113184851Y-59639337D01*
X113258591Y-59254437D01*
X113332330Y-58869537D01*
X113355238Y-59248014D01*
X113466156Y-59545764D01*
X113786976Y-59626490D01*
X114139100Y-59519239D01*
X114268704Y-59248014D01*
X114341602Y-58869537D01*
X114364509Y-59248014D01*
X114451526Y-59523278D01*
X114731594Y-59621062D01*
X114892052Y-59626490D01*
X115260457Y-59574978D01*
X115400159Y-59372895D01*
X115413456Y-59248014D01*
X115433592Y-58997937D01*
X115484674Y-59050766D01*
X115564900Y-59290067D01*
X115667309Y-59529343D01*
X115714970Y-59436679D01*
X115716345Y-59416226D01*
X115804517Y-59166118D01*
X115888990Y-59121855D01*
X116057292Y-59260416D01*
X116121795Y-59416226D01*
X116185725Y-59623538D01*
X116212080Y-59504086D01*
X116218235Y-59416226D01*
X116376273Y-59168713D01*
X116574172Y-59121855D01*
X116850780Y-59013470D01*
X116910596Y-58862503D01*
X117018517Y-58555694D01*
X117242501Y-58246894D01*
X117574406Y-57890635D01*
X117727764Y-58295980D01*
X117788146Y-58733024D01*
X117711686Y-58911590D01*
X117652548Y-59084510D01*
X117820444Y-59121855D01*
X118116095Y-58989152D01*
X118195461Y-58869537D01*
X118397214Y-58646159D01*
X118508609Y-58617219D01*
X118752057Y-58752561D01*
X118821757Y-58869537D01*
X119005884Y-59103486D01*
X119192854Y-59044252D01*
X119282330Y-58743378D01*
X119303500Y-58483283D01*
X119355692Y-58548092D01*
X119408489Y-58707108D01*
X119548455Y-58926637D01*
X119847551Y-59038247D01*
X120316887Y-59077383D01*
X120829577Y-59066967D01*
X121072948Y-58977751D01*
X121115894Y-58861335D01*
X121187022Y-58634773D01*
X121242052Y-58604719D01*
X121911850Y-58474995D01*
X122296161Y-58253196D01*
X122339758Y-58191942D01*
X122545389Y-57965703D01*
X122736897Y-58064322D01*
X122924719Y-58491060D01*
X123100092Y-59037749D01*
X123117264Y-58491060D01*
X123178736Y-58098180D01*
X123363008Y-57952258D01*
X123458526Y-57944371D01*
X123762970Y-57812386D01*
X123859543Y-57650000D01*
X123923473Y-57442688D01*
X123949828Y-57562140D01*
X123955983Y-57650000D01*
X124006512Y-57795092D01*
X124177892Y-57883521D01*
X124535185Y-57928615D01*
X125143451Y-57943703D01*
X125392964Y-57944371D01*
X126099347Y-57934777D01*
X126537125Y-57897129D01*
X126773789Y-57818133D01*
X126876834Y-57684495D01*
X126887358Y-57650000D01*
X126951288Y-57442688D01*
X126977643Y-57562140D01*
G36*
X126977643Y-73562140D02*
X126983798Y-73650000D01*
X127080153Y-73900108D01*
X127171523Y-73944371D01*
X127322559Y-73804827D01*
X127356907Y-73650000D01*
X127408991Y-73589739D01*
X127516884Y-73807236D01*
X127550278Y-73905195D01*
X127640935Y-74303414D01*
X127629127Y-74548779D01*
X127619704Y-74561532D01*
X127418051Y-74605629D01*
X126952257Y-74643970D01*
X126294604Y-74672099D01*
X125620346Y-74684814D01*
X124794477Y-74696860D01*
X124245995Y-74722576D01*
X123915882Y-74772089D01*
X123745117Y-74855528D01*
X123674684Y-74983019D01*
X123666380Y-75020111D01*
X123590301Y-75226838D01*
X123466701Y-75120263D01*
X123456400Y-75104217D01*
X123348438Y-75021303D01*
X123306803Y-75246351D01*
X123305224Y-75332120D01*
X123238436Y-75682724D01*
X123005126Y-75793737D01*
X122966225Y-75794702D01*
X122692243Y-75689524D01*
X122629801Y-75542385D01*
X122489563Y-75336898D01*
X122293377Y-75290067D01*
X122019395Y-75395245D01*
X121956953Y-75542385D01*
X121891208Y-75675029D01*
X121653497Y-75753106D01*
X121183109Y-75788661D01*
X120685436Y-75794702D01*
X120062225Y-75813435D01*
X119649490Y-75864405D01*
X119506242Y-75939775D01*
X119510396Y-75950804D01*
X119458239Y-76118692D01*
X119293532Y-76206355D01*
X119049791Y-76381159D01*
X118821545Y-76684347D01*
X118671270Y-77003717D01*
X118661435Y-77227064D01*
X118705370Y-77262723D01*
X119309715Y-77576716D01*
X119785038Y-78025347D01*
X120024444Y-78494872D01*
X120055917Y-78925675D01*
X119886022Y-79182115D01*
X119467874Y-79301864D01*
X118991788Y-79324577D01*
X118453214Y-79399255D01*
X118085943Y-79589047D01*
X117955284Y-79849298D01*
X118003973Y-80000000D01*
X118006904Y-80267070D01*
X117919867Y-80420530D01*
X117803770Y-80704395D01*
X117831025Y-80833396D01*
X117824945Y-81086209D01*
X117677294Y-81382829D01*
X117474279Y-81845281D01*
X117415231Y-82224184D01*
X117361848Y-82566339D01*
X117137173Y-82683991D01*
X116978602Y-82691391D01*
X116495786Y-82611543D01*
X116095490Y-82459565D01*
X115603455Y-82219550D01*
X115228476Y-82052605D01*
X114845921Y-81887593D01*
X114296267Y-81643979D01*
X113860438Y-81447768D01*
X113428027Y-81261590D01*
X115060264Y-81261590D01*
X115144370Y-81345696D01*
X115228476Y-81261590D01*
X115144370Y-81177484D01*
X115060264Y-81261590D01*
X113428027Y-81261590D01*
X113319551Y-81214885D01*
X112938112Y-81113158D01*
X112572191Y-81128344D01*
X112077855Y-81246198D01*
X112010107Y-81264641D01*
X111311009Y-81448645D01*
X110585019Y-81629397D01*
X110308278Y-81694713D01*
X109845782Y-81826769D01*
X109557311Y-81958868D01*
X109509271Y-82017284D01*
X109356297Y-82108836D01*
X108952400Y-82222417D01*
X108380114Y-82335493D01*
X108289735Y-82350243D01*
X107334997Y-82520065D01*
X106664047Y-82710811D01*
X106225785Y-82975557D01*
X105969114Y-83367379D01*
X105842937Y-83939351D01*
X105796156Y-84744551D01*
X105791700Y-84944977D01*
X105757668Y-85657862D01*
X105696103Y-86154601D01*
X105620585Y-86411295D01*
X105544692Y-86404048D01*
X105482006Y-86108961D01*
X105447343Y-85550994D01*
X105417349Y-84457616D01*
X105318608Y-85381324D01*
X105231182Y-85948106D01*
X105103255Y-86251611D01*
X104911538Y-86363564D01*
X104702864Y-86363833D01*
X104731905Y-86186762D01*
X104785379Y-86081710D01*
X104901902Y-85699347D01*
X104966767Y-85168456D01*
X104971243Y-85015364D01*
X105048517Y-84395231D01*
X105237025Y-83729828D01*
X105312391Y-83545585D01*
X105515037Y-82992904D01*
X105510199Y-82674946D01*
X105476908Y-82628830D01*
X105366684Y-82345547D01*
X105313872Y-81858707D01*
X105315397Y-81682120D01*
X105808609Y-81682120D01*
X105870155Y-81820577D01*
X105920750Y-81794261D01*
X105940882Y-81594633D01*
X105920750Y-81569978D01*
X105820748Y-81593069D01*
X105808609Y-81682120D01*
X105315397Y-81682120D01*
X105318731Y-81296284D01*
X105357856Y-80978459D01*
X108888828Y-80978459D01*
X109024449Y-81075547D01*
X109048008Y-81087745D01*
X109394520Y-81187765D01*
X109838373Y-81137354D01*
X110182119Y-81039728D01*
X110807034Y-80851541D01*
X111532894Y-80646990D01*
X111864238Y-80558471D01*
X112141594Y-80484669D01*
X113966887Y-80484669D01*
X114363999Y-80831077D01*
X114713654Y-81111671D01*
X114872164Y-81167855D01*
X114892052Y-81112724D01*
X114784095Y-81009272D01*
X116910596Y-81009272D01*
X116972142Y-81147729D01*
X117022737Y-81121413D01*
X117042869Y-80921785D01*
X117022737Y-80897131D01*
X116922735Y-80920221D01*
X116910596Y-81009272D01*
X114784095Y-81009272D01*
X114764638Y-80990627D01*
X114455342Y-80782170D01*
X114429470Y-80766317D01*
X113966887Y-80484669D01*
X112141594Y-80484669D01*
X112418135Y-80411084D01*
X112621403Y-80354435D01*
X115420277Y-80354435D01*
X115575119Y-80519059D01*
X115661286Y-80585130D01*
X116010772Y-80801590D01*
X116185099Y-80747371D01*
X116237194Y-80399094D01*
X116237748Y-80330506D01*
X116215169Y-79986701D01*
X116182987Y-79967186D01*
X117024616Y-79967186D01*
X117040327Y-80207442D01*
X117122247Y-80460274D01*
X117200036Y-80397489D01*
X117263457Y-80243310D01*
X117376830Y-79860810D01*
X117403408Y-79685033D01*
X117358985Y-79543000D01*
X117180279Y-79649165D01*
X117024616Y-79967186D01*
X116182987Y-79967186D01*
X116095359Y-79914051D01*
X115859271Y-80016867D01*
X115504712Y-80216549D01*
X115420277Y-80354435D01*
X112621403Y-80354435D01*
X112859245Y-80288151D01*
X113031306Y-80236003D01*
X113047917Y-80123671D01*
X112778240Y-79917216D01*
X112470038Y-79747873D01*
X111666866Y-79341255D01*
X110168859Y-80118357D01*
X109496217Y-80472692D01*
X109085084Y-80711305D01*
X108895830Y-80868470D01*
X108888828Y-80978459D01*
X105357856Y-80978459D01*
X105381517Y-80786254D01*
X105472639Y-80503789D01*
X105628054Y-80298389D01*
X105843332Y-80305604D01*
X106086273Y-80419486D01*
X106382539Y-80542914D01*
X106613992Y-80505129D01*
X106901216Y-80268141D01*
X107053038Y-80114905D01*
X107427189Y-79626723D01*
X107522795Y-79191960D01*
X107518277Y-79148150D01*
X107428808Y-78846251D01*
X107198038Y-78766300D01*
X106973742Y-78788449D01*
X106451274Y-78805396D01*
X106063080Y-78753982D01*
X105785856Y-78634860D01*
X105665009Y-78392275D01*
X105640397Y-77975048D01*
X105623665Y-77549196D01*
X105533922Y-77379461D01*
X105311842Y-77385814D01*
X105219867Y-77407746D01*
X104899719Y-77435242D01*
X104800012Y-77270191D01*
X104799337Y-77242739D01*
X104909564Y-77044778D01*
X105277286Y-76973581D01*
X105368980Y-76972186D01*
X105729673Y-76996948D01*
X105914578Y-77133251D01*
X106011728Y-77474120D01*
X106045511Y-77687086D01*
X106152401Y-78401987D01*
X108079470Y-78401987D01*
X108132180Y-78948676D01*
X108223266Y-79341710D01*
X108356249Y-79487136D01*
X108468031Y-79362296D01*
X108500000Y-79080753D01*
X108502057Y-79074835D01*
X108836423Y-79074835D01*
X108920529Y-79158941D01*
X109004635Y-79074835D01*
X108920529Y-78990729D01*
X108836423Y-79074835D01*
X108502057Y-79074835D01*
X108560531Y-78906623D01*
X109172847Y-78906623D01*
X109256953Y-78990729D01*
X109341059Y-78906623D01*
X109256953Y-78822517D01*
X109172847Y-78906623D01*
X108560531Y-78906623D01*
X108647161Y-78657417D01*
X108915769Y-78491954D01*
X113546357Y-78491954D01*
X113661746Y-78662306D01*
X113943322Y-78953467D01*
X114294195Y-79276548D01*
X114617479Y-79542661D01*
X114816285Y-79662916D01*
X114823418Y-79663577D01*
X115025576Y-79625913D01*
X115435090Y-79530701D01*
X115658624Y-79475395D01*
X116405960Y-79287214D01*
X116405960Y-78446514D01*
X116394246Y-77952137D01*
X116333553Y-77718710D01*
X116185548Y-77670930D01*
X116027483Y-77702954D01*
X114980948Y-77978524D01*
X114238295Y-78191054D01*
X113774557Y-78348482D01*
X113564767Y-78458750D01*
X113546357Y-78491954D01*
X108915769Y-78491954D01*
X109069605Y-78397191D01*
X109666424Y-78317881D01*
X110035747Y-78271630D01*
X110172522Y-78085714D01*
X110183970Y-77939404D01*
X110212873Y-77516071D01*
X110279638Y-76997011D01*
X111024679Y-76997011D01*
X111053162Y-77366598D01*
X111122694Y-77520266D01*
X111291003Y-77575371D01*
X111622854Y-77519292D01*
X111664241Y-77505879D01*
X117142245Y-77505879D01*
X117171835Y-78206251D01*
X117195293Y-78662641D01*
X117218154Y-78956540D01*
X117224223Y-78996228D01*
X117385003Y-79024005D01*
X117779881Y-79031839D01*
X118307341Y-79023150D01*
X118865869Y-79001354D01*
X119353951Y-78969870D01*
X119670072Y-78932114D01*
X119732105Y-78911793D01*
X119720715Y-78744257D01*
X119673361Y-78597679D01*
X119401104Y-78258808D01*
X118908527Y-77932615D01*
X118308155Y-77680714D01*
X117798655Y-77571181D01*
X117142245Y-77505879D01*
X111664241Y-77505879D01*
X112178051Y-77339363D01*
X112452980Y-77238518D01*
X112984944Y-77075227D01*
X113459945Y-76985894D01*
X113546357Y-76980681D01*
X114032345Y-76948366D01*
X114639982Y-76873547D01*
X115282977Y-76771677D01*
X115875041Y-76658210D01*
X116329880Y-76548599D01*
X116561206Y-76458298D01*
X116574172Y-76438446D01*
X116416813Y-76384745D01*
X115988069Y-76340675D01*
X115352939Y-76310715D01*
X114576422Y-76299345D01*
X114555629Y-76299338D01*
X113697456Y-76304006D01*
X113120380Y-76323330D01*
X112769140Y-76365293D01*
X112588477Y-76437876D01*
X112523130Y-76549061D01*
X112517573Y-76593709D01*
X112494077Y-76801021D01*
X112444424Y-76681569D01*
X112421133Y-76593709D01*
X112255977Y-76357498D01*
X112026410Y-76312637D01*
X111873878Y-76469808D01*
X111864238Y-76551656D01*
X111729590Y-76774666D01*
X111611920Y-76803974D01*
X111391277Y-76668549D01*
X111359602Y-76541729D01*
X111285466Y-76383444D01*
X111527814Y-76383444D01*
X111611920Y-76467550D01*
X111696026Y-76383444D01*
X111611920Y-76299338D01*
X111527814Y-76383444D01*
X111285466Y-76383444D01*
X111278054Y-76367620D01*
X111191390Y-76383444D01*
X111074256Y-76611357D01*
X111024679Y-76997011D01*
X110279638Y-76997011D01*
X110280952Y-76986796D01*
X110290085Y-76930133D01*
X110340906Y-76519653D01*
X110266098Y-76342193D01*
X110002213Y-76300141D01*
X109880038Y-76299338D01*
X109444023Y-76387744D01*
X109288800Y-76593709D01*
X109224870Y-76801021D01*
X109198515Y-76681569D01*
X109192360Y-76593709D01*
X109071072Y-76361249D01*
X108851172Y-76308528D01*
X108685316Y-76447795D01*
X108668211Y-76551656D01*
X108585011Y-76778266D01*
X108414051Y-76751446D01*
X108279528Y-76509603D01*
X108215598Y-76302291D01*
X108189243Y-76421743D01*
X108183088Y-76509603D01*
X108045324Y-76744062D01*
X107774356Y-76794750D01*
X107518779Y-76661666D01*
X107438469Y-76509603D01*
X107374539Y-76302291D01*
X107348184Y-76421743D01*
X107342029Y-76509603D01*
X107296593Y-76645358D01*
X107141646Y-76732051D01*
X106816655Y-76780277D01*
X106261087Y-76800629D01*
X105660016Y-76803974D01*
X104849031Y-76794942D01*
X104315881Y-76744124D01*
X104002034Y-76615935D01*
X103848957Y-76374792D01*
X103798120Y-75985110D01*
X103792363Y-75668543D01*
X103727178Y-75373077D01*
X103621854Y-75290067D01*
X103473424Y-75150699D01*
X103441819Y-74995696D01*
X103419521Y-74797875D01*
X103348185Y-74910907D01*
X103309093Y-75008143D01*
X103140318Y-75262434D01*
X103033112Y-75314962D01*
X102851125Y-75179297D01*
X102757132Y-75008143D01*
X102661033Y-74799219D01*
X102628954Y-74902552D01*
X102624405Y-74995696D01*
X102552725Y-75177485D01*
X102304463Y-75266341D01*
X101801165Y-75290064D01*
X101793671Y-75290067D01*
X100974760Y-75290067D01*
X100831786Y-76004967D01*
X100776118Y-76452887D01*
X100730454Y-77142824D01*
X100699535Y-77980411D01*
X100688104Y-78864570D01*
X100687396Y-81009272D01*
X99962591Y-81009272D01*
X99403736Y-80950222D01*
X99146548Y-80770231D01*
X99140962Y-80756954D01*
X98975850Y-80534362D01*
X98893923Y-80504636D01*
X98760573Y-80641145D01*
X98743708Y-80756954D01*
X98609060Y-80979964D01*
X98491390Y-81009272D01*
X98268380Y-80874624D01*
X98239072Y-80756954D01*
X98120230Y-80552610D01*
X97860830Y-80516574D01*
X97606559Y-80640398D01*
X97513966Y-80799007D01*
X97450036Y-81006319D01*
X97423681Y-80886867D01*
X97417526Y-80799007D01*
X97322882Y-80600800D01*
X97021523Y-80515557D01*
X96725165Y-80504636D01*
X96272481Y-80539203D01*
X96072264Y-80665534D01*
X96040495Y-80799007D01*
X96013132Y-80979045D01*
X95928608Y-80857560D01*
X95884105Y-80756954D01*
X95770637Y-80516558D01*
X95728991Y-80585256D01*
X95714436Y-80756954D01*
X95664779Y-80946278D01*
X95601128Y-80873026D01*
X95389345Y-80526925D01*
X95077657Y-80194199D01*
X94762522Y-79961351D01*
X94540398Y-79914885D01*
X94535712Y-79917562D01*
X94354142Y-79874510D01*
X94242216Y-79638448D01*
X94136878Y-79243047D01*
X94017988Y-79663577D01*
X93930492Y-79945452D01*
X93895024Y-79913115D01*
X93882330Y-79705630D01*
X93810073Y-79409835D01*
X93709050Y-79327153D01*
X93559445Y-79469684D01*
X93479639Y-79705630D01*
X93406742Y-80084106D01*
X93383834Y-79705630D01*
X93310987Y-79446332D01*
X93069726Y-79341476D01*
X92772185Y-79327153D01*
X92336742Y-79272438D01*
X92184507Y-79097815D01*
X92183443Y-79074835D01*
X92111054Y-78844707D01*
X91957238Y-78869948D01*
X91817024Y-79119495D01*
X91797520Y-79200994D01*
X91724622Y-79579471D01*
X91701715Y-79200994D01*
X91662658Y-78996871D01*
X91525286Y-78883197D01*
X91212441Y-78833812D01*
X90646964Y-78822554D01*
X90585430Y-78822517D01*
X89993711Y-78812032D01*
X89663814Y-78765327D01*
X89521400Y-78659529D01*
X89492053Y-78486093D01*
X89537348Y-78282597D01*
X89728767Y-78182162D01*
X90149615Y-78150739D01*
X90315115Y-78149669D01*
X90894402Y-78192634D01*
X91190291Y-78329368D01*
X91235002Y-78401987D01*
X91430060Y-78612090D01*
X91681687Y-78634096D01*
X91839705Y-78468005D01*
X91847019Y-78401987D01*
X91981667Y-78178977D01*
X92099337Y-78149669D01*
X92322347Y-78284317D01*
X92351655Y-78401987D01*
X92486303Y-78624997D01*
X92603973Y-78654305D01*
X92826983Y-78788953D01*
X92856291Y-78906623D01*
X92992233Y-79096223D01*
X93313454Y-79172628D01*
X93690049Y-79140280D01*
X93992109Y-79003621D01*
X94086034Y-78864570D01*
X94149964Y-78657258D01*
X94176318Y-78776710D01*
X94182473Y-78864570D01*
X94312430Y-79089617D01*
X94698191Y-79158925D01*
X94706622Y-79158941D01*
X95107255Y-79234167D01*
X95211258Y-79411259D01*
X95228454Y-79525081D01*
X95314092Y-79603906D01*
X95519242Y-79653448D01*
X95894977Y-79679422D01*
X96492370Y-79687544D01*
X97362492Y-79683530D01*
X97624659Y-79681334D01*
X98345977Y-79682866D01*
X98798452Y-79711180D01*
X99049373Y-79778991D01*
X99166027Y-79899015D01*
X99193817Y-79977867D01*
X99368816Y-80207747D01*
X99773010Y-80267360D01*
X99808230Y-80266213D01*
X100341721Y-80245112D01*
X100444144Y-77389112D01*
X100479145Y-76447770D01*
X100511836Y-75632107D01*
X100539795Y-74997808D01*
X100560596Y-74600555D01*
X100570303Y-74491060D01*
X100736008Y-74465895D01*
X101127478Y-74450871D01*
X101350993Y-74449007D01*
X101849911Y-74415986D01*
X102077168Y-74303707D01*
X102107947Y-74196689D01*
X102207009Y-74030383D01*
X102543846Y-73954631D01*
X102864900Y-73944371D01*
X103378671Y-73982539D01*
X103603729Y-74105268D01*
X103621854Y-74178692D01*
X103757966Y-74436025D01*
X103884666Y-74513864D01*
X104042429Y-74649742D01*
X104080731Y-74946226D01*
X104033779Y-75372920D01*
X103920079Y-76131126D01*
X104780238Y-76131126D01*
X105291668Y-76114206D01*
X105362698Y-76094330D01*
X117286376Y-76094330D01*
X117343860Y-76259400D01*
X117441514Y-76262542D01*
X117633342Y-76361878D01*
X117691721Y-76551656D01*
X117728926Y-76946625D01*
X117788302Y-77108550D01*
X117909144Y-77140375D01*
X117916448Y-77140398D01*
X118084937Y-77003540D01*
X118320273Y-76657617D01*
X118429651Y-76457460D01*
X118778060Y-75774522D01*
X118067666Y-75826665D01*
X117613066Y-75905370D01*
X117325228Y-76040139D01*
X117286376Y-76094330D01*
X105362698Y-76094330D01*
X105549462Y-76042069D01*
X105635609Y-75882645D01*
X105640397Y-75794702D01*
X105711819Y-75506554D01*
X105864787Y-75496626D01*
X106007356Y-75754898D01*
X106026320Y-75836755D01*
X106082978Y-76080392D01*
X106112154Y-76002458D01*
X106121963Y-75878808D01*
X106141800Y-75766939D01*
X106212530Y-75683898D01*
X106376832Y-75626218D01*
X106677384Y-75590430D01*
X107156864Y-75573065D01*
X107857950Y-75570655D01*
X108823320Y-75579730D01*
X109664780Y-75590861D01*
X113184851Y-75639337D01*
X113258591Y-75254437D01*
X113332330Y-74869537D01*
X113355238Y-75248014D01*
X113466156Y-75545764D01*
X113786976Y-75626490D01*
X114139100Y-75519239D01*
X114268704Y-75248014D01*
X114341602Y-74869537D01*
X114364509Y-75248014D01*
X114451526Y-75523278D01*
X114731594Y-75621062D01*
X114892052Y-75626490D01*
X115260457Y-75574978D01*
X115400159Y-75372895D01*
X115413456Y-75248014D01*
X115433592Y-74997937D01*
X115484674Y-75050766D01*
X115564900Y-75290067D01*
X115667309Y-75529343D01*
X115714970Y-75436679D01*
X115716345Y-75416226D01*
X115804517Y-75166118D01*
X115888990Y-75121855D01*
X116057292Y-75260416D01*
X116121795Y-75416226D01*
X116185725Y-75623538D01*
X116212080Y-75504086D01*
X116218235Y-75416226D01*
X116376273Y-75168713D01*
X116574172Y-75121855D01*
X116850780Y-75013470D01*
X116910596Y-74862503D01*
X117018517Y-74555694D01*
X117242501Y-74246894D01*
X117574406Y-73890635D01*
X117727764Y-74295980D01*
X117788146Y-74733024D01*
X117711686Y-74911590D01*
X117652548Y-75084510D01*
X117820444Y-75121855D01*
X118116095Y-74989152D01*
X118195461Y-74869537D01*
X118397214Y-74646159D01*
X118508609Y-74617219D01*
X118752057Y-74752561D01*
X118821757Y-74869537D01*
X119005884Y-75103486D01*
X119192854Y-75044252D01*
X119282330Y-74743378D01*
X119303500Y-74483283D01*
X119355692Y-74548092D01*
X119408489Y-74707108D01*
X119548455Y-74926637D01*
X119847551Y-75038247D01*
X120316887Y-75077383D01*
X120829577Y-75066967D01*
X121072948Y-74977751D01*
X121115894Y-74861335D01*
X121187022Y-74634773D01*
X121242052Y-74604719D01*
X121911850Y-74474995D01*
X122296161Y-74253196D01*
X122339758Y-74191942D01*
X122545389Y-73965703D01*
X122736897Y-74064322D01*
X122924719Y-74491060D01*
X123100092Y-75037749D01*
X123117264Y-74491060D01*
X123178736Y-74098180D01*
X123363008Y-73952258D01*
X123458526Y-73944371D01*
X123762970Y-73812386D01*
X123859543Y-73650000D01*
X123923473Y-73442688D01*
X123949828Y-73562140D01*
X123955983Y-73650000D01*
X124006512Y-73795092D01*
X124177892Y-73883521D01*
X124535185Y-73928615D01*
X125143451Y-73943703D01*
X125392964Y-73944371D01*
X126099347Y-73934777D01*
X126537125Y-73897129D01*
X126773789Y-73818133D01*
X126876834Y-73684495D01*
X126887358Y-73650000D01*
X126951288Y-73442688D01*
X126977643Y-73562140D01*
X126977643Y-73562140D01*
G37*
X126977643Y-73562140D02*
X126983798Y-73650000D01*
X127080153Y-73900108D01*
X127171523Y-73944371D01*
X127322559Y-73804827D01*
X127356907Y-73650000D01*
X127408991Y-73589739D01*
X127516884Y-73807236D01*
X127550278Y-73905195D01*
X127640935Y-74303414D01*
X127629127Y-74548779D01*
X127619704Y-74561532D01*
X127418051Y-74605629D01*
X126952257Y-74643970D01*
X126294604Y-74672099D01*
X125620346Y-74684814D01*
X124794477Y-74696860D01*
X124245995Y-74722576D01*
X123915882Y-74772089D01*
X123745117Y-74855528D01*
X123674684Y-74983019D01*
X123666380Y-75020111D01*
X123590301Y-75226838D01*
X123466701Y-75120263D01*
X123456400Y-75104217D01*
X123348438Y-75021303D01*
X123306803Y-75246351D01*
X123305224Y-75332120D01*
X123238436Y-75682724D01*
X123005126Y-75793737D01*
X122966225Y-75794702D01*
X122692243Y-75689524D01*
X122629801Y-75542385D01*
X122489563Y-75336898D01*
X122293377Y-75290067D01*
X122019395Y-75395245D01*
X121956953Y-75542385D01*
X121891208Y-75675029D01*
X121653497Y-75753106D01*
X121183109Y-75788661D01*
X120685436Y-75794702D01*
X120062225Y-75813435D01*
X119649490Y-75864405D01*
X119506242Y-75939775D01*
X119510396Y-75950804D01*
X119458239Y-76118692D01*
X119293532Y-76206355D01*
X119049791Y-76381159D01*
X118821545Y-76684347D01*
X118671270Y-77003717D01*
X118661435Y-77227064D01*
X118705370Y-77262723D01*
X119309715Y-77576716D01*
X119785038Y-78025347D01*
X120024444Y-78494872D01*
X120055917Y-78925675D01*
X119886022Y-79182115D01*
X119467874Y-79301864D01*
X118991788Y-79324577D01*
X118453214Y-79399255D01*
X118085943Y-79589047D01*
X117955284Y-79849298D01*
X118003973Y-80000000D01*
X118006904Y-80267070D01*
X117919867Y-80420530D01*
X117803770Y-80704395D01*
X117831025Y-80833396D01*
X117824945Y-81086209D01*
X117677294Y-81382829D01*
X117474279Y-81845281D01*
X117415231Y-82224184D01*
X117361848Y-82566339D01*
X117137173Y-82683991D01*
X116978602Y-82691391D01*
X116495786Y-82611543D01*
X116095490Y-82459565D01*
X115603455Y-82219550D01*
X115228476Y-82052605D01*
X114845921Y-81887593D01*
X114296267Y-81643979D01*
X113860438Y-81447768D01*
X113428027Y-81261590D01*
X115060264Y-81261590D01*
X115144370Y-81345696D01*
X115228476Y-81261590D01*
X115144370Y-81177484D01*
X115060264Y-81261590D01*
X113428027Y-81261590D01*
X113319551Y-81214885D01*
X112938112Y-81113158D01*
X112572191Y-81128344D01*
X112077855Y-81246198D01*
X112010107Y-81264641D01*
X111311009Y-81448645D01*
X110585019Y-81629397D01*
X110308278Y-81694713D01*
X109845782Y-81826769D01*
X109557311Y-81958868D01*
X109509271Y-82017284D01*
X109356297Y-82108836D01*
X108952400Y-82222417D01*
X108380114Y-82335493D01*
X108289735Y-82350243D01*
X107334997Y-82520065D01*
X106664047Y-82710811D01*
X106225785Y-82975557D01*
X105969114Y-83367379D01*
X105842937Y-83939351D01*
X105796156Y-84744551D01*
X105791700Y-84944977D01*
X105757668Y-85657862D01*
X105696103Y-86154601D01*
X105620585Y-86411295D01*
X105544692Y-86404048D01*
X105482006Y-86108961D01*
X105447343Y-85550994D01*
X105417349Y-84457616D01*
X105318608Y-85381324D01*
X105231182Y-85948106D01*
X105103255Y-86251611D01*
X104911538Y-86363564D01*
X104702864Y-86363833D01*
X104731905Y-86186762D01*
X104785379Y-86081710D01*
X104901902Y-85699347D01*
X104966767Y-85168456D01*
X104971243Y-85015364D01*
X105048517Y-84395231D01*
X105237025Y-83729828D01*
X105312391Y-83545585D01*
X105515037Y-82992904D01*
X105510199Y-82674946D01*
X105476908Y-82628830D01*
X105366684Y-82345547D01*
X105313872Y-81858707D01*
X105315397Y-81682120D01*
X105808609Y-81682120D01*
X105870155Y-81820577D01*
X105920750Y-81794261D01*
X105940882Y-81594633D01*
X105920750Y-81569978D01*
X105820748Y-81593069D01*
X105808609Y-81682120D01*
X105315397Y-81682120D01*
X105318731Y-81296284D01*
X105357856Y-80978459D01*
X108888828Y-80978459D01*
X109024449Y-81075547D01*
X109048008Y-81087745D01*
X109394520Y-81187765D01*
X109838373Y-81137354D01*
X110182119Y-81039728D01*
X110807034Y-80851541D01*
X111532894Y-80646990D01*
X111864238Y-80558471D01*
X112141594Y-80484669D01*
X113966887Y-80484669D01*
X114363999Y-80831077D01*
X114713654Y-81111671D01*
X114872164Y-81167855D01*
X114892052Y-81112724D01*
X114784095Y-81009272D01*
X116910596Y-81009272D01*
X116972142Y-81147729D01*
X117022737Y-81121413D01*
X117042869Y-80921785D01*
X117022737Y-80897131D01*
X116922735Y-80920221D01*
X116910596Y-81009272D01*
X114784095Y-81009272D01*
X114764638Y-80990627D01*
X114455342Y-80782170D01*
X114429470Y-80766317D01*
X113966887Y-80484669D01*
X112141594Y-80484669D01*
X112418135Y-80411084D01*
X112621403Y-80354435D01*
X115420277Y-80354435D01*
X115575119Y-80519059D01*
X115661286Y-80585130D01*
X116010772Y-80801590D01*
X116185099Y-80747371D01*
X116237194Y-80399094D01*
X116237748Y-80330506D01*
X116215169Y-79986701D01*
X116182987Y-79967186D01*
X117024616Y-79967186D01*
X117040327Y-80207442D01*
X117122247Y-80460274D01*
X117200036Y-80397489D01*
X117263457Y-80243310D01*
X117376830Y-79860810D01*
X117403408Y-79685033D01*
X117358985Y-79543000D01*
X117180279Y-79649165D01*
X117024616Y-79967186D01*
X116182987Y-79967186D01*
X116095359Y-79914051D01*
X115859271Y-80016867D01*
X115504712Y-80216549D01*
X115420277Y-80354435D01*
X112621403Y-80354435D01*
X112859245Y-80288151D01*
X113031306Y-80236003D01*
X113047917Y-80123671D01*
X112778240Y-79917216D01*
X112470038Y-79747873D01*
X111666866Y-79341255D01*
X110168859Y-80118357D01*
X109496217Y-80472692D01*
X109085084Y-80711305D01*
X108895830Y-80868470D01*
X108888828Y-80978459D01*
X105357856Y-80978459D01*
X105381517Y-80786254D01*
X105472639Y-80503789D01*
X105628054Y-80298389D01*
X105843332Y-80305604D01*
X106086273Y-80419486D01*
X106382539Y-80542914D01*
X106613992Y-80505129D01*
X106901216Y-80268141D01*
X107053038Y-80114905D01*
X107427189Y-79626723D01*
X107522795Y-79191960D01*
X107518277Y-79148150D01*
X107428808Y-78846251D01*
X107198038Y-78766300D01*
X106973742Y-78788449D01*
X106451274Y-78805396D01*
X106063080Y-78753982D01*
X105785856Y-78634860D01*
X105665009Y-78392275D01*
X105640397Y-77975048D01*
X105623665Y-77549196D01*
X105533922Y-77379461D01*
X105311842Y-77385814D01*
X105219867Y-77407746D01*
X104899719Y-77435242D01*
X104800012Y-77270191D01*
X104799337Y-77242739D01*
X104909564Y-77044778D01*
X105277286Y-76973581D01*
X105368980Y-76972186D01*
X105729673Y-76996948D01*
X105914578Y-77133251D01*
X106011728Y-77474120D01*
X106045511Y-77687086D01*
X106152401Y-78401987D01*
X108079470Y-78401987D01*
X108132180Y-78948676D01*
X108223266Y-79341710D01*
X108356249Y-79487136D01*
X108468031Y-79362296D01*
X108500000Y-79080753D01*
X108502057Y-79074835D01*
X108836423Y-79074835D01*
X108920529Y-79158941D01*
X109004635Y-79074835D01*
X108920529Y-78990729D01*
X108836423Y-79074835D01*
X108502057Y-79074835D01*
X108560531Y-78906623D01*
X109172847Y-78906623D01*
X109256953Y-78990729D01*
X109341059Y-78906623D01*
X109256953Y-78822517D01*
X109172847Y-78906623D01*
X108560531Y-78906623D01*
X108647161Y-78657417D01*
X108915769Y-78491954D01*
X113546357Y-78491954D01*
X113661746Y-78662306D01*
X113943322Y-78953467D01*
X114294195Y-79276548D01*
X114617479Y-79542661D01*
X114816285Y-79662916D01*
X114823418Y-79663577D01*
X115025576Y-79625913D01*
X115435090Y-79530701D01*
X115658624Y-79475395D01*
X116405960Y-79287214D01*
X116405960Y-78446514D01*
X116394246Y-77952137D01*
X116333553Y-77718710D01*
X116185548Y-77670930D01*
X116027483Y-77702954D01*
X114980948Y-77978524D01*
X114238295Y-78191054D01*
X113774557Y-78348482D01*
X113564767Y-78458750D01*
X113546357Y-78491954D01*
X108915769Y-78491954D01*
X109069605Y-78397191D01*
X109666424Y-78317881D01*
X110035747Y-78271630D01*
X110172522Y-78085714D01*
X110183970Y-77939404D01*
X110212873Y-77516071D01*
X110279638Y-76997011D01*
X111024679Y-76997011D01*
X111053162Y-77366598D01*
X111122694Y-77520266D01*
X111291003Y-77575371D01*
X111622854Y-77519292D01*
X111664241Y-77505879D01*
X117142245Y-77505879D01*
X117171835Y-78206251D01*
X117195293Y-78662641D01*
X117218154Y-78956540D01*
X117224223Y-78996228D01*
X117385003Y-79024005D01*
X117779881Y-79031839D01*
X118307341Y-79023150D01*
X118865869Y-79001354D01*
X119353951Y-78969870D01*
X119670072Y-78932114D01*
X119732105Y-78911793D01*
X119720715Y-78744257D01*
X119673361Y-78597679D01*
X119401104Y-78258808D01*
X118908527Y-77932615D01*
X118308155Y-77680714D01*
X117798655Y-77571181D01*
X117142245Y-77505879D01*
X111664241Y-77505879D01*
X112178051Y-77339363D01*
X112452980Y-77238518D01*
X112984944Y-77075227D01*
X113459945Y-76985894D01*
X113546357Y-76980681D01*
X114032345Y-76948366D01*
X114639982Y-76873547D01*
X115282977Y-76771677D01*
X115875041Y-76658210D01*
X116329880Y-76548599D01*
X116561206Y-76458298D01*
X116574172Y-76438446D01*
X116416813Y-76384745D01*
X115988069Y-76340675D01*
X115352939Y-76310715D01*
X114576422Y-76299345D01*
X114555629Y-76299338D01*
X113697456Y-76304006D01*
X113120380Y-76323330D01*
X112769140Y-76365293D01*
X112588477Y-76437876D01*
X112523130Y-76549061D01*
X112517573Y-76593709D01*
X112494077Y-76801021D01*
X112444424Y-76681569D01*
X112421133Y-76593709D01*
X112255977Y-76357498D01*
X112026410Y-76312637D01*
X111873878Y-76469808D01*
X111864238Y-76551656D01*
X111729590Y-76774666D01*
X111611920Y-76803974D01*
X111391277Y-76668549D01*
X111359602Y-76541729D01*
X111285466Y-76383444D01*
X111527814Y-76383444D01*
X111611920Y-76467550D01*
X111696026Y-76383444D01*
X111611920Y-76299338D01*
X111527814Y-76383444D01*
X111285466Y-76383444D01*
X111278054Y-76367620D01*
X111191390Y-76383444D01*
X111074256Y-76611357D01*
X111024679Y-76997011D01*
X110279638Y-76997011D01*
X110280952Y-76986796D01*
X110290085Y-76930133D01*
X110340906Y-76519653D01*
X110266098Y-76342193D01*
X110002213Y-76300141D01*
X109880038Y-76299338D01*
X109444023Y-76387744D01*
X109288800Y-76593709D01*
X109224870Y-76801021D01*
X109198515Y-76681569D01*
X109192360Y-76593709D01*
X109071072Y-76361249D01*
X108851172Y-76308528D01*
X108685316Y-76447795D01*
X108668211Y-76551656D01*
X108585011Y-76778266D01*
X108414051Y-76751446D01*
X108279528Y-76509603D01*
X108215598Y-76302291D01*
X108189243Y-76421743D01*
X108183088Y-76509603D01*
X108045324Y-76744062D01*
X107774356Y-76794750D01*
X107518779Y-76661666D01*
X107438469Y-76509603D01*
X107374539Y-76302291D01*
X107348184Y-76421743D01*
X107342029Y-76509603D01*
X107296593Y-76645358D01*
X107141646Y-76732051D01*
X106816655Y-76780277D01*
X106261087Y-76800629D01*
X105660016Y-76803974D01*
X104849031Y-76794942D01*
X104315881Y-76744124D01*
X104002034Y-76615935D01*
X103848957Y-76374792D01*
X103798120Y-75985110D01*
X103792363Y-75668543D01*
X103727178Y-75373077D01*
X103621854Y-75290067D01*
X103473424Y-75150699D01*
X103441819Y-74995696D01*
X103419521Y-74797875D01*
X103348185Y-74910907D01*
X103309093Y-75008143D01*
X103140318Y-75262434D01*
X103033112Y-75314962D01*
X102851125Y-75179297D01*
X102757132Y-75008143D01*
X102661033Y-74799219D01*
X102628954Y-74902552D01*
X102624405Y-74995696D01*
X102552725Y-75177485D01*
X102304463Y-75266341D01*
X101801165Y-75290064D01*
X101793671Y-75290067D01*
X100974760Y-75290067D01*
X100831786Y-76004967D01*
X100776118Y-76452887D01*
X100730454Y-77142824D01*
X100699535Y-77980411D01*
X100688104Y-78864570D01*
X100687396Y-81009272D01*
X99962591Y-81009272D01*
X99403736Y-80950222D01*
X99146548Y-80770231D01*
X99140962Y-80756954D01*
X98975850Y-80534362D01*
X98893923Y-80504636D01*
X98760573Y-80641145D01*
X98743708Y-80756954D01*
X98609060Y-80979964D01*
X98491390Y-81009272D01*
X98268380Y-80874624D01*
X98239072Y-80756954D01*
X98120230Y-80552610D01*
X97860830Y-80516574D01*
X97606559Y-80640398D01*
X97513966Y-80799007D01*
X97450036Y-81006319D01*
X97423681Y-80886867D01*
X97417526Y-80799007D01*
X97322882Y-80600800D01*
X97021523Y-80515557D01*
X96725165Y-80504636D01*
X96272481Y-80539203D01*
X96072264Y-80665534D01*
X96040495Y-80799007D01*
X96013132Y-80979045D01*
X95928608Y-80857560D01*
X95884105Y-80756954D01*
X95770637Y-80516558D01*
X95728991Y-80585256D01*
X95714436Y-80756954D01*
X95664779Y-80946278D01*
X95601128Y-80873026D01*
X95389345Y-80526925D01*
X95077657Y-80194199D01*
X94762522Y-79961351D01*
X94540398Y-79914885D01*
X94535712Y-79917562D01*
X94354142Y-79874510D01*
X94242216Y-79638448D01*
X94136878Y-79243047D01*
X94017988Y-79663577D01*
X93930492Y-79945452D01*
X93895024Y-79913115D01*
X93882330Y-79705630D01*
X93810073Y-79409835D01*
X93709050Y-79327153D01*
X93559445Y-79469684D01*
X93479639Y-79705630D01*
X93406742Y-80084106D01*
X93383834Y-79705630D01*
X93310987Y-79446332D01*
X93069726Y-79341476D01*
X92772185Y-79327153D01*
X92336742Y-79272438D01*
X92184507Y-79097815D01*
X92183443Y-79074835D01*
X92111054Y-78844707D01*
X91957238Y-78869948D01*
X91817024Y-79119495D01*
X91797520Y-79200994D01*
X91724622Y-79579471D01*
X91701715Y-79200994D01*
X91662658Y-78996871D01*
X91525286Y-78883197D01*
X91212441Y-78833812D01*
X90646964Y-78822554D01*
X90585430Y-78822517D01*
X89993711Y-78812032D01*
X89663814Y-78765327D01*
X89521400Y-78659529D01*
X89492053Y-78486093D01*
X89537348Y-78282597D01*
X89728767Y-78182162D01*
X90149615Y-78150739D01*
X90315115Y-78149669D01*
X90894402Y-78192634D01*
X91190291Y-78329368D01*
X91235002Y-78401987D01*
X91430060Y-78612090D01*
X91681687Y-78634096D01*
X91839705Y-78468005D01*
X91847019Y-78401987D01*
X91981667Y-78178977D01*
X92099337Y-78149669D01*
X92322347Y-78284317D01*
X92351655Y-78401987D01*
X92486303Y-78624997D01*
X92603973Y-78654305D01*
X92826983Y-78788953D01*
X92856291Y-78906623D01*
X92992233Y-79096223D01*
X93313454Y-79172628D01*
X93690049Y-79140280D01*
X93992109Y-79003621D01*
X94086034Y-78864570D01*
X94149964Y-78657258D01*
X94176318Y-78776710D01*
X94182473Y-78864570D01*
X94312430Y-79089617D01*
X94698191Y-79158925D01*
X94706622Y-79158941D01*
X95107255Y-79234167D01*
X95211258Y-79411259D01*
X95228454Y-79525081D01*
X95314092Y-79603906D01*
X95519242Y-79653448D01*
X95894977Y-79679422D01*
X96492370Y-79687544D01*
X97362492Y-79683530D01*
X97624659Y-79681334D01*
X98345977Y-79682866D01*
X98798452Y-79711180D01*
X99049373Y-79778991D01*
X99166027Y-79899015D01*
X99193817Y-79977867D01*
X99368816Y-80207747D01*
X99773010Y-80267360D01*
X99808230Y-80266213D01*
X100341721Y-80245112D01*
X100444144Y-77389112D01*
X100479145Y-76447770D01*
X100511836Y-75632107D01*
X100539795Y-74997808D01*
X100560596Y-74600555D01*
X100570303Y-74491060D01*
X100736008Y-74465895D01*
X101127478Y-74450871D01*
X101350993Y-74449007D01*
X101849911Y-74415986D01*
X102077168Y-74303707D01*
X102107947Y-74196689D01*
X102207009Y-74030383D01*
X102543846Y-73954631D01*
X102864900Y-73944371D01*
X103378671Y-73982539D01*
X103603729Y-74105268D01*
X103621854Y-74178692D01*
X103757966Y-74436025D01*
X103884666Y-74513864D01*
X104042429Y-74649742D01*
X104080731Y-74946226D01*
X104033779Y-75372920D01*
X103920079Y-76131126D01*
X104780238Y-76131126D01*
X105291668Y-76114206D01*
X105362698Y-76094330D01*
X117286376Y-76094330D01*
X117343860Y-76259400D01*
X117441514Y-76262542D01*
X117633342Y-76361878D01*
X117691721Y-76551656D01*
X117728926Y-76946625D01*
X117788302Y-77108550D01*
X117909144Y-77140375D01*
X117916448Y-77140398D01*
X118084937Y-77003540D01*
X118320273Y-76657617D01*
X118429651Y-76457460D01*
X118778060Y-75774522D01*
X118067666Y-75826665D01*
X117613066Y-75905370D01*
X117325228Y-76040139D01*
X117286376Y-76094330D01*
X105362698Y-76094330D01*
X105549462Y-76042069D01*
X105635609Y-75882645D01*
X105640397Y-75794702D01*
X105711819Y-75506554D01*
X105864787Y-75496626D01*
X106007356Y-75754898D01*
X106026320Y-75836755D01*
X106082978Y-76080392D01*
X106112154Y-76002458D01*
X106121963Y-75878808D01*
X106141800Y-75766939D01*
X106212530Y-75683898D01*
X106376832Y-75626218D01*
X106677384Y-75590430D01*
X107156864Y-75573065D01*
X107857950Y-75570655D01*
X108823320Y-75579730D01*
X109664780Y-75590861D01*
X113184851Y-75639337D01*
X113258591Y-75254437D01*
X113332330Y-74869537D01*
X113355238Y-75248014D01*
X113466156Y-75545764D01*
X113786976Y-75626490D01*
X114139100Y-75519239D01*
X114268704Y-75248014D01*
X114341602Y-74869537D01*
X114364509Y-75248014D01*
X114451526Y-75523278D01*
X114731594Y-75621062D01*
X114892052Y-75626490D01*
X115260457Y-75574978D01*
X115400159Y-75372895D01*
X115413456Y-75248014D01*
X115433592Y-74997937D01*
X115484674Y-75050766D01*
X115564900Y-75290067D01*
X115667309Y-75529343D01*
X115714970Y-75436679D01*
X115716345Y-75416226D01*
X115804517Y-75166118D01*
X115888990Y-75121855D01*
X116057292Y-75260416D01*
X116121795Y-75416226D01*
X116185725Y-75623538D01*
X116212080Y-75504086D01*
X116218235Y-75416226D01*
X116376273Y-75168713D01*
X116574172Y-75121855D01*
X116850780Y-75013470D01*
X116910596Y-74862503D01*
X117018517Y-74555694D01*
X117242501Y-74246894D01*
X117574406Y-73890635D01*
X117727764Y-74295980D01*
X117788146Y-74733024D01*
X117711686Y-74911590D01*
X117652548Y-75084510D01*
X117820444Y-75121855D01*
X118116095Y-74989152D01*
X118195461Y-74869537D01*
X118397214Y-74646159D01*
X118508609Y-74617219D01*
X118752057Y-74752561D01*
X118821757Y-74869537D01*
X119005884Y-75103486D01*
X119192854Y-75044252D01*
X119282330Y-74743378D01*
X119303500Y-74483283D01*
X119355692Y-74548092D01*
X119408489Y-74707108D01*
X119548455Y-74926637D01*
X119847551Y-75038247D01*
X120316887Y-75077383D01*
X120829577Y-75066967D01*
X121072948Y-74977751D01*
X121115894Y-74861335D01*
X121187022Y-74634773D01*
X121242052Y-74604719D01*
X121911850Y-74474995D01*
X122296161Y-74253196D01*
X122339758Y-74191942D01*
X122545389Y-73965703D01*
X122736897Y-74064322D01*
X122924719Y-74491060D01*
X123100092Y-75037749D01*
X123117264Y-74491060D01*
X123178736Y-74098180D01*
X123363008Y-73952258D01*
X123458526Y-73944371D01*
X123762970Y-73812386D01*
X123859543Y-73650000D01*
X123923473Y-73442688D01*
X123949828Y-73562140D01*
X123955983Y-73650000D01*
X124006512Y-73795092D01*
X124177892Y-73883521D01*
X124535185Y-73928615D01*
X125143451Y-73943703D01*
X125392964Y-73944371D01*
X126099347Y-73934777D01*
X126537125Y-73897129D01*
X126773789Y-73818133D01*
X126876834Y-73684495D01*
X126887358Y-73650000D01*
X126951288Y-73442688D01*
X126977643Y-73562140D01*
G36*
X126977643Y-89562140D02*
X126983798Y-89650000D01*
X127080153Y-89900108D01*
X127171523Y-89944371D01*
X127322559Y-89804827D01*
X127356907Y-89650000D01*
X127408991Y-89589739D01*
X127516884Y-89807236D01*
X127550278Y-89905195D01*
X127640935Y-90303414D01*
X127629127Y-90548779D01*
X127619704Y-90561532D01*
X127418051Y-90605629D01*
X126952257Y-90643970D01*
X126294604Y-90672099D01*
X125620346Y-90684814D01*
X124794477Y-90696860D01*
X124245995Y-90722576D01*
X123915882Y-90772089D01*
X123745117Y-90855528D01*
X123674684Y-90983019D01*
X123666380Y-91020111D01*
X123590301Y-91226838D01*
X123466701Y-91120263D01*
X123456400Y-91104217D01*
X123348438Y-91021303D01*
X123306803Y-91246351D01*
X123305224Y-91332120D01*
X123238436Y-91682724D01*
X123005126Y-91793737D01*
X122966225Y-91794702D01*
X122692243Y-91689524D01*
X122629801Y-91542385D01*
X122489563Y-91336898D01*
X122293377Y-91290067D01*
X122019395Y-91395245D01*
X121956953Y-91542385D01*
X121891208Y-91675029D01*
X121653497Y-91753106D01*
X121183109Y-91788661D01*
X120685436Y-91794702D01*
X120062225Y-91813435D01*
X119649490Y-91864405D01*
X119506242Y-91939775D01*
X119510396Y-91950804D01*
X119458239Y-92118692D01*
X119293532Y-92206355D01*
X119049791Y-92381159D01*
X118821545Y-92684347D01*
X118671270Y-93003717D01*
X118661435Y-93227064D01*
X118705370Y-93262723D01*
X119309715Y-93576716D01*
X119785038Y-94025347D01*
X120024444Y-94494872D01*
X120055917Y-94925675D01*
X119886022Y-95182115D01*
X119467874Y-95301864D01*
X118991788Y-95324577D01*
X118453214Y-95399255D01*
X118085943Y-95589047D01*
X117955284Y-95849298D01*
X118003973Y-96000000D01*
X118006904Y-96267070D01*
X117919867Y-96420530D01*
X117803770Y-96704395D01*
X117831025Y-96833396D01*
X117824945Y-97086209D01*
X117677294Y-97382829D01*
X117474279Y-97845281D01*
X117415231Y-98224184D01*
X117361848Y-98566339D01*
X117137173Y-98683991D01*
X116978602Y-98691391D01*
X116495786Y-98611543D01*
X116095490Y-98459565D01*
X115603455Y-98219550D01*
X115228476Y-98052605D01*
X114845921Y-97887593D01*
X114296267Y-97643979D01*
X113860438Y-97447768D01*
X113428027Y-97261590D01*
X115060264Y-97261590D01*
X115144370Y-97345696D01*
X115228476Y-97261590D01*
X115144370Y-97177484D01*
X115060264Y-97261590D01*
X113428027Y-97261590D01*
X113319551Y-97214885D01*
X112938112Y-97113158D01*
X112572191Y-97128344D01*
X112077855Y-97246198D01*
X112010107Y-97264641D01*
X111311009Y-97448645D01*
X110585019Y-97629397D01*
X110308278Y-97694713D01*
X109845782Y-97826769D01*
X109557311Y-97958868D01*
X109509271Y-98017284D01*
X109356297Y-98108836D01*
X108952400Y-98222417D01*
X108380114Y-98335493D01*
X108289735Y-98350243D01*
X107334997Y-98520065D01*
X106664047Y-98710811D01*
X106225785Y-98975557D01*
X105969114Y-99367379D01*
X105842937Y-99939351D01*
X105796156Y-100744551D01*
X105791700Y-100944977D01*
X105757668Y-101657862D01*
X105696103Y-102154601D01*
X105620585Y-102411295D01*
X105544692Y-102404048D01*
X105482006Y-102108961D01*
X105447343Y-101550994D01*
X105417349Y-100457616D01*
X105318608Y-101381324D01*
X105231182Y-101948106D01*
X105103255Y-102251611D01*
X104911538Y-102363564D01*
X104702864Y-102363833D01*
X104731905Y-102186762D01*
X104785379Y-102081710D01*
X104901902Y-101699347D01*
X104966767Y-101168456D01*
X104971243Y-101015364D01*
X105048517Y-100395231D01*
X105237025Y-99729828D01*
X105312391Y-99545585D01*
X105515037Y-98992904D01*
X105510199Y-98674946D01*
X105476908Y-98628830D01*
X105366684Y-98345547D01*
X105313872Y-97858707D01*
X105315397Y-97682120D01*
X105808609Y-97682120D01*
X105870155Y-97820577D01*
X105920750Y-97794261D01*
X105940882Y-97594633D01*
X105920750Y-97569978D01*
X105820748Y-97593069D01*
X105808609Y-97682120D01*
X105315397Y-97682120D01*
X105318731Y-97296284D01*
X105357856Y-96978459D01*
X108888828Y-96978459D01*
X109024449Y-97075547D01*
X109048008Y-97087745D01*
X109394520Y-97187765D01*
X109838373Y-97137354D01*
X110182119Y-97039728D01*
X110807034Y-96851541D01*
X111532894Y-96646990D01*
X111864238Y-96558471D01*
X112141594Y-96484669D01*
X113966887Y-96484669D01*
X114363999Y-96831077D01*
X114713654Y-97111671D01*
X114872164Y-97167855D01*
X114892052Y-97112724D01*
X114784095Y-97009272D01*
X116910596Y-97009272D01*
X116972142Y-97147729D01*
X117022737Y-97121413D01*
X117042869Y-96921785D01*
X117022737Y-96897131D01*
X116922735Y-96920221D01*
X116910596Y-97009272D01*
X114784095Y-97009272D01*
X114764638Y-96990627D01*
X114455342Y-96782170D01*
X114429470Y-96766317D01*
X113966887Y-96484669D01*
X112141594Y-96484669D01*
X112418135Y-96411084D01*
X112621403Y-96354435D01*
X115420277Y-96354435D01*
X115575119Y-96519059D01*
X115661286Y-96585130D01*
X116010772Y-96801590D01*
X116185099Y-96747371D01*
X116237194Y-96399094D01*
X116237748Y-96330506D01*
X116215169Y-95986701D01*
X116182987Y-95967186D01*
X117024616Y-95967186D01*
X117040327Y-96207442D01*
X117122247Y-96460274D01*
X117200036Y-96397489D01*
X117263457Y-96243310D01*
X117376830Y-95860810D01*
X117403408Y-95685033D01*
X117358985Y-95543000D01*
X117180279Y-95649165D01*
X117024616Y-95967186D01*
X116182987Y-95967186D01*
X116095359Y-95914051D01*
X115859271Y-96016867D01*
X115504712Y-96216549D01*
X115420277Y-96354435D01*
X112621403Y-96354435D01*
X112859245Y-96288151D01*
X113031306Y-96236003D01*
X113047917Y-96123671D01*
X112778240Y-95917216D01*
X112470038Y-95747873D01*
X111666866Y-95341255D01*
X110168859Y-96118357D01*
X109496217Y-96472692D01*
X109085084Y-96711305D01*
X108895830Y-96868470D01*
X108888828Y-96978459D01*
X105357856Y-96978459D01*
X105381517Y-96786254D01*
X105472639Y-96503789D01*
X105628054Y-96298389D01*
X105843332Y-96305604D01*
X106086273Y-96419486D01*
X106382539Y-96542914D01*
X106613992Y-96505129D01*
X106901216Y-96268141D01*
X107053038Y-96114905D01*
X107427189Y-95626723D01*
X107522795Y-95191960D01*
X107518277Y-95148150D01*
X107428808Y-94846251D01*
X107198038Y-94766300D01*
X106973742Y-94788449D01*
X106451274Y-94805396D01*
X106063080Y-94753982D01*
X105785856Y-94634860D01*
X105665009Y-94392275D01*
X105640397Y-93975048D01*
X105623665Y-93549196D01*
X105533922Y-93379461D01*
X105311842Y-93385814D01*
X105219867Y-93407746D01*
X104899719Y-93435242D01*
X104800012Y-93270191D01*
X104799337Y-93242739D01*
X104909564Y-93044778D01*
X105277286Y-92973581D01*
X105368980Y-92972186D01*
X105729673Y-92996948D01*
X105914578Y-93133251D01*
X106011728Y-93474120D01*
X106045511Y-93687086D01*
X106152401Y-94401987D01*
X108079470Y-94401987D01*
X108132180Y-94948676D01*
X108223266Y-95341710D01*
X108356249Y-95487136D01*
X108468031Y-95362296D01*
X108500000Y-95080753D01*
X108502057Y-95074835D01*
X108836423Y-95074835D01*
X108920529Y-95158941D01*
X109004635Y-95074835D01*
X108920529Y-94990729D01*
X108836423Y-95074835D01*
X108502057Y-95074835D01*
X108560531Y-94906623D01*
X109172847Y-94906623D01*
X109256953Y-94990729D01*
X109341059Y-94906623D01*
X109256953Y-94822517D01*
X109172847Y-94906623D01*
X108560531Y-94906623D01*
X108647161Y-94657417D01*
X108915769Y-94491954D01*
X113546357Y-94491954D01*
X113661746Y-94662306D01*
X113943322Y-94953467D01*
X114294195Y-95276548D01*
X114617479Y-95542661D01*
X114816285Y-95662916D01*
X114823418Y-95663577D01*
X115025576Y-95625913D01*
X115435090Y-95530701D01*
X115658624Y-95475395D01*
X116405960Y-95287214D01*
X116405960Y-94446514D01*
X116394246Y-93952137D01*
X116333553Y-93718710D01*
X116185548Y-93670930D01*
X116027483Y-93702954D01*
X114980948Y-93978524D01*
X114238295Y-94191054D01*
X113774557Y-94348482D01*
X113564767Y-94458750D01*
X113546357Y-94491954D01*
X108915769Y-94491954D01*
X109069605Y-94397191D01*
X109666424Y-94317881D01*
X110035747Y-94271630D01*
X110172522Y-94085714D01*
X110183970Y-93939404D01*
X110212873Y-93516071D01*
X110279638Y-92997011D01*
X111024679Y-92997011D01*
X111053162Y-93366598D01*
X111122694Y-93520266D01*
X111291003Y-93575371D01*
X111622854Y-93519292D01*
X111664241Y-93505879D01*
X117142245Y-93505879D01*
X117171835Y-94206251D01*
X117195293Y-94662641D01*
X117218154Y-94956540D01*
X117224223Y-94996228D01*
X117385003Y-95024005D01*
X117779881Y-95031839D01*
X118307341Y-95023150D01*
X118865869Y-95001354D01*
X119353951Y-94969870D01*
X119670072Y-94932114D01*
X119732105Y-94911793D01*
X119720715Y-94744257D01*
X119673361Y-94597679D01*
X119401104Y-94258808D01*
X118908527Y-93932615D01*
X118308155Y-93680714D01*
X117798655Y-93571181D01*
X117142245Y-93505879D01*
X111664241Y-93505879D01*
X112178051Y-93339363D01*
X112452980Y-93238518D01*
X112984944Y-93075227D01*
X113459945Y-92985894D01*
X113546357Y-92980681D01*
X114032345Y-92948366D01*
X114639982Y-92873547D01*
X115282977Y-92771677D01*
X115875041Y-92658210D01*
X116329880Y-92548599D01*
X116561206Y-92458298D01*
X116574172Y-92438446D01*
X116416813Y-92384745D01*
X115988069Y-92340675D01*
X115352939Y-92310715D01*
X114576422Y-92299345D01*
X114555629Y-92299338D01*
X113697456Y-92304006D01*
X113120380Y-92323330D01*
X112769140Y-92365293D01*
X112588477Y-92437876D01*
X112523130Y-92549061D01*
X112517573Y-92593709D01*
X112494077Y-92801021D01*
X112444424Y-92681569D01*
X112421133Y-92593709D01*
X112255977Y-92357498D01*
X112026410Y-92312637D01*
X111873878Y-92469808D01*
X111864238Y-92551656D01*
X111729590Y-92774666D01*
X111611920Y-92803974D01*
X111391277Y-92668549D01*
X111359602Y-92541729D01*
X111285466Y-92383444D01*
X111527814Y-92383444D01*
X111611920Y-92467550D01*
X111696026Y-92383444D01*
X111611920Y-92299338D01*
X111527814Y-92383444D01*
X111285466Y-92383444D01*
X111278054Y-92367620D01*
X111191390Y-92383444D01*
X111074256Y-92611357D01*
X111024679Y-92997011D01*
X110279638Y-92997011D01*
X110280952Y-92986796D01*
X110290085Y-92930133D01*
X110340906Y-92519653D01*
X110266098Y-92342193D01*
X110002213Y-92300141D01*
X109880038Y-92299338D01*
X109444023Y-92387744D01*
X109288800Y-92593709D01*
X109224870Y-92801021D01*
X109198515Y-92681569D01*
X109192360Y-92593709D01*
X109071072Y-92361249D01*
X108851172Y-92308528D01*
X108685316Y-92447795D01*
X108668211Y-92551656D01*
X108585011Y-92778266D01*
X108414051Y-92751446D01*
X108279528Y-92509603D01*
X108215598Y-92302291D01*
X108189243Y-92421743D01*
X108183088Y-92509603D01*
X108045324Y-92744062D01*
X107774356Y-92794750D01*
X107518779Y-92661666D01*
X107438469Y-92509603D01*
X107374539Y-92302291D01*
X107348184Y-92421743D01*
X107342029Y-92509603D01*
X107296593Y-92645358D01*
X107141646Y-92732051D01*
X106816655Y-92780277D01*
X106261087Y-92800629D01*
X105660016Y-92803974D01*
X104849031Y-92794942D01*
X104315881Y-92744124D01*
X104002034Y-92615935D01*
X103848957Y-92374792D01*
X103798120Y-91985110D01*
X103792363Y-91668543D01*
X103727178Y-91373077D01*
X103621854Y-91290067D01*
X103473424Y-91150699D01*
X103441819Y-90995696D01*
X103419521Y-90797875D01*
X103348185Y-90910907D01*
X103309093Y-91008143D01*
X103140318Y-91262434D01*
X103033112Y-91314962D01*
X102851125Y-91179297D01*
X102757132Y-91008143D01*
X102661033Y-90799219D01*
X102628954Y-90902552D01*
X102624405Y-90995696D01*
X102552725Y-91177485D01*
X102304463Y-91266341D01*
X101801165Y-91290064D01*
X101793671Y-91290067D01*
X100974760Y-91290067D01*
X100831786Y-92004967D01*
X100776118Y-92452887D01*
X100730454Y-93142824D01*
X100699535Y-93980411D01*
X100688104Y-94864570D01*
X100687396Y-97009272D01*
X99962591Y-97009272D01*
X99403736Y-96950222D01*
X99146548Y-96770231D01*
X99140962Y-96756954D01*
X98975850Y-96534362D01*
X98893923Y-96504636D01*
X98760573Y-96641145D01*
X98743708Y-96756954D01*
X98609060Y-96979964D01*
X98491390Y-97009272D01*
X98268380Y-96874624D01*
X98239072Y-96756954D01*
X98120230Y-96552610D01*
X97860830Y-96516574D01*
X97606559Y-96640398D01*
X97513966Y-96799007D01*
X97450036Y-97006319D01*
X97423681Y-96886867D01*
X97417526Y-96799007D01*
X97322882Y-96600800D01*
X97021523Y-96515557D01*
X96725165Y-96504636D01*
X96272481Y-96539203D01*
X96072264Y-96665534D01*
X96040495Y-96799007D01*
X96013132Y-96979045D01*
X95928608Y-96857560D01*
X95884105Y-96756954D01*
X95770637Y-96516558D01*
X95728991Y-96585256D01*
X95714436Y-96756954D01*
X95664779Y-96946278D01*
X95601128Y-96873026D01*
X95389345Y-96526925D01*
X95077657Y-96194199D01*
X94762522Y-95961351D01*
X94540398Y-95914885D01*
X94535712Y-95917562D01*
X94354142Y-95874510D01*
X94242216Y-95638448D01*
X94136878Y-95243047D01*
X94017988Y-95663577D01*
X93930492Y-95945452D01*
X93895024Y-95913115D01*
X93882330Y-95705630D01*
X93810073Y-95409835D01*
X93709050Y-95327153D01*
X93559445Y-95469684D01*
X93479639Y-95705630D01*
X93406742Y-96084106D01*
X93383834Y-95705630D01*
X93310987Y-95446332D01*
X93069726Y-95341476D01*
X92772185Y-95327153D01*
X92336742Y-95272438D01*
X92184507Y-95097815D01*
X92183443Y-95074835D01*
X92111054Y-94844707D01*
X91957238Y-94869948D01*
X91817024Y-95119495D01*
X91797520Y-95200994D01*
X91724622Y-95579471D01*
X91701715Y-95200994D01*
X91662658Y-94996871D01*
X91525286Y-94883197D01*
X91212441Y-94833812D01*
X90646964Y-94822554D01*
X90585430Y-94822517D01*
X89993711Y-94812032D01*
X89663814Y-94765327D01*
X89521400Y-94659529D01*
X89492053Y-94486093D01*
X89537348Y-94282597D01*
X89728767Y-94182162D01*
X90149615Y-94150739D01*
X90315115Y-94149669D01*
X90894402Y-94192634D01*
X91190291Y-94329368D01*
X91235002Y-94401987D01*
X91430060Y-94612090D01*
X91681687Y-94634096D01*
X91839705Y-94468005D01*
X91847019Y-94401987D01*
X91981667Y-94178977D01*
X92099337Y-94149669D01*
X92322347Y-94284317D01*
X92351655Y-94401987D01*
X92486303Y-94624997D01*
X92603973Y-94654305D01*
X92826983Y-94788953D01*
X92856291Y-94906623D01*
X92992233Y-95096223D01*
X93313454Y-95172628D01*
X93690049Y-95140280D01*
X93992109Y-95003621D01*
X94086034Y-94864570D01*
X94149964Y-94657258D01*
X94176318Y-94776710D01*
X94182473Y-94864570D01*
X94312430Y-95089617D01*
X94698191Y-95158925D01*
X94706622Y-95158941D01*
X95107255Y-95234167D01*
X95211258Y-95411259D01*
X95228454Y-95525081D01*
X95314092Y-95603906D01*
X95519242Y-95653448D01*
X95894977Y-95679422D01*
X96492370Y-95687544D01*
X97362492Y-95683530D01*
X97624659Y-95681334D01*
X98345977Y-95682866D01*
X98798452Y-95711180D01*
X99049373Y-95778991D01*
X99166027Y-95899015D01*
X99193817Y-95977867D01*
X99368816Y-96207747D01*
X99773010Y-96267360D01*
X99808230Y-96266213D01*
X100341721Y-96245112D01*
X100444144Y-93389112D01*
X100479145Y-92447770D01*
X100511836Y-91632107D01*
X100539795Y-90997808D01*
X100560596Y-90600555D01*
X100570303Y-90491060D01*
X100736008Y-90465895D01*
X101127478Y-90450871D01*
X101350993Y-90449007D01*
X101849911Y-90415986D01*
X102077168Y-90303707D01*
X102107947Y-90196689D01*
X102207009Y-90030383D01*
X102543846Y-89954631D01*
X102864900Y-89944371D01*
X103378671Y-89982539D01*
X103603729Y-90105268D01*
X103621854Y-90178692D01*
X103757966Y-90436025D01*
X103884666Y-90513864D01*
X104042429Y-90649742D01*
X104080731Y-90946226D01*
X104033779Y-91372920D01*
X103920079Y-92131126D01*
X104780238Y-92131126D01*
X105291668Y-92114206D01*
X105362698Y-92094330D01*
X117286376Y-92094330D01*
X117343860Y-92259400D01*
X117441514Y-92262542D01*
X117633342Y-92361878D01*
X117691721Y-92551656D01*
X117728926Y-92946625D01*
X117788302Y-93108550D01*
X117909144Y-93140375D01*
X117916448Y-93140398D01*
X118084937Y-93003540D01*
X118320273Y-92657617D01*
X118429651Y-92457460D01*
X118778060Y-91774522D01*
X118067666Y-91826665D01*
X117613066Y-91905370D01*
X117325228Y-92040139D01*
X117286376Y-92094330D01*
X105362698Y-92094330D01*
X105549462Y-92042069D01*
X105635609Y-91882645D01*
X105640397Y-91794702D01*
X105711819Y-91506554D01*
X105864787Y-91496626D01*
X106007356Y-91754898D01*
X106026320Y-91836755D01*
X106082978Y-92080392D01*
X106112154Y-92002458D01*
X106121963Y-91878808D01*
X106141800Y-91766939D01*
X106212530Y-91683898D01*
X106376832Y-91626218D01*
X106677384Y-91590430D01*
X107156864Y-91573065D01*
X107857950Y-91570655D01*
X108823320Y-91579730D01*
X109664780Y-91590861D01*
X113184851Y-91639337D01*
X113258591Y-91254437D01*
X113332330Y-90869537D01*
X113355238Y-91248014D01*
X113466156Y-91545764D01*
X113786976Y-91626490D01*
X114139100Y-91519239D01*
X114268704Y-91248014D01*
X114341602Y-90869537D01*
X114364509Y-91248014D01*
X114451526Y-91523278D01*
X114731594Y-91621062D01*
X114892052Y-91626490D01*
X115260457Y-91574978D01*
X115400159Y-91372895D01*
X115413456Y-91248014D01*
X115433592Y-90997937D01*
X115484674Y-91050766D01*
X115564900Y-91290067D01*
X115667309Y-91529343D01*
X115714970Y-91436679D01*
X115716345Y-91416226D01*
X115804517Y-91166118D01*
X115888990Y-91121855D01*
X116057292Y-91260416D01*
X116121795Y-91416226D01*
X116185725Y-91623538D01*
X116212080Y-91504086D01*
X116218235Y-91416226D01*
X116376273Y-91168713D01*
X116574172Y-91121855D01*
X116850780Y-91013470D01*
X116910596Y-90862503D01*
X117018517Y-90555694D01*
X117242501Y-90246894D01*
X117574406Y-89890635D01*
X117727764Y-90295980D01*
X117788146Y-90733024D01*
X117711686Y-90911590D01*
X117652548Y-91084510D01*
X117820444Y-91121855D01*
X118116095Y-90989152D01*
X118195461Y-90869537D01*
X118397214Y-90646159D01*
X118508609Y-90617219D01*
X118752057Y-90752561D01*
X118821757Y-90869537D01*
X119005884Y-91103486D01*
X119192854Y-91044252D01*
X119282330Y-90743378D01*
X119303500Y-90483283D01*
X119355692Y-90548092D01*
X119408489Y-90707108D01*
X119548455Y-90926637D01*
X119847551Y-91038247D01*
X120316887Y-91077383D01*
X120829577Y-91066967D01*
X121072948Y-90977751D01*
X121115894Y-90861335D01*
X121187022Y-90634773D01*
X121242052Y-90604719D01*
X121911850Y-90474995D01*
X122296161Y-90253196D01*
X122339758Y-90191942D01*
X122545389Y-89965703D01*
X122736897Y-90064322D01*
X122924719Y-90491060D01*
X123100092Y-91037749D01*
X123117264Y-90491060D01*
X123178736Y-90098180D01*
X123363008Y-89952258D01*
X123458526Y-89944371D01*
X123762970Y-89812386D01*
X123859543Y-89650000D01*
X123923473Y-89442688D01*
X123949828Y-89562140D01*
X123955983Y-89650000D01*
X124006512Y-89795092D01*
X124177892Y-89883521D01*
X124535185Y-89928615D01*
X125143451Y-89943703D01*
X125392964Y-89944371D01*
X126099347Y-89934777D01*
X126537125Y-89897129D01*
X126773789Y-89818133D01*
X126876834Y-89684495D01*
X126887358Y-89650000D01*
X126951288Y-89442688D01*
X126977643Y-89562140D01*
X126977643Y-89562140D01*
G37*
X126977643Y-89562140D02*
X126983798Y-89650000D01*
X127080153Y-89900108D01*
X127171523Y-89944371D01*
X127322559Y-89804827D01*
X127356907Y-89650000D01*
X127408991Y-89589739D01*
X127516884Y-89807236D01*
X127550278Y-89905195D01*
X127640935Y-90303414D01*
X127629127Y-90548779D01*
X127619704Y-90561532D01*
X127418051Y-90605629D01*
X126952257Y-90643970D01*
X126294604Y-90672099D01*
X125620346Y-90684814D01*
X124794477Y-90696860D01*
X124245995Y-90722576D01*
X123915882Y-90772089D01*
X123745117Y-90855528D01*
X123674684Y-90983019D01*
X123666380Y-91020111D01*
X123590301Y-91226838D01*
X123466701Y-91120263D01*
X123456400Y-91104217D01*
X123348438Y-91021303D01*
X123306803Y-91246351D01*
X123305224Y-91332120D01*
X123238436Y-91682724D01*
X123005126Y-91793737D01*
X122966225Y-91794702D01*
X122692243Y-91689524D01*
X122629801Y-91542385D01*
X122489563Y-91336898D01*
X122293377Y-91290067D01*
X122019395Y-91395245D01*
X121956953Y-91542385D01*
X121891208Y-91675029D01*
X121653497Y-91753106D01*
X121183109Y-91788661D01*
X120685436Y-91794702D01*
X120062225Y-91813435D01*
X119649490Y-91864405D01*
X119506242Y-91939775D01*
X119510396Y-91950804D01*
X119458239Y-92118692D01*
X119293532Y-92206355D01*
X119049791Y-92381159D01*
X118821545Y-92684347D01*
X118671270Y-93003717D01*
X118661435Y-93227064D01*
X118705370Y-93262723D01*
X119309715Y-93576716D01*
X119785038Y-94025347D01*
X120024444Y-94494872D01*
X120055917Y-94925675D01*
X119886022Y-95182115D01*
X119467874Y-95301864D01*
X118991788Y-95324577D01*
X118453214Y-95399255D01*
X118085943Y-95589047D01*
X117955284Y-95849298D01*
X118003973Y-96000000D01*
X118006904Y-96267070D01*
X117919867Y-96420530D01*
X117803770Y-96704395D01*
X117831025Y-96833396D01*
X117824945Y-97086209D01*
X117677294Y-97382829D01*
X117474279Y-97845281D01*
X117415231Y-98224184D01*
X117361848Y-98566339D01*
X117137173Y-98683991D01*
X116978602Y-98691391D01*
X116495786Y-98611543D01*
X116095490Y-98459565D01*
X115603455Y-98219550D01*
X115228476Y-98052605D01*
X114845921Y-97887593D01*
X114296267Y-97643979D01*
X113860438Y-97447768D01*
X113428027Y-97261590D01*
X115060264Y-97261590D01*
X115144370Y-97345696D01*
X115228476Y-97261590D01*
X115144370Y-97177484D01*
X115060264Y-97261590D01*
X113428027Y-97261590D01*
X113319551Y-97214885D01*
X112938112Y-97113158D01*
X112572191Y-97128344D01*
X112077855Y-97246198D01*
X112010107Y-97264641D01*
X111311009Y-97448645D01*
X110585019Y-97629397D01*
X110308278Y-97694713D01*
X109845782Y-97826769D01*
X109557311Y-97958868D01*
X109509271Y-98017284D01*
X109356297Y-98108836D01*
X108952400Y-98222417D01*
X108380114Y-98335493D01*
X108289735Y-98350243D01*
X107334997Y-98520065D01*
X106664047Y-98710811D01*
X106225785Y-98975557D01*
X105969114Y-99367379D01*
X105842937Y-99939351D01*
X105796156Y-100744551D01*
X105791700Y-100944977D01*
X105757668Y-101657862D01*
X105696103Y-102154601D01*
X105620585Y-102411295D01*
X105544692Y-102404048D01*
X105482006Y-102108961D01*
X105447343Y-101550994D01*
X105417349Y-100457616D01*
X105318608Y-101381324D01*
X105231182Y-101948106D01*
X105103255Y-102251611D01*
X104911538Y-102363564D01*
X104702864Y-102363833D01*
X104731905Y-102186762D01*
X104785379Y-102081710D01*
X104901902Y-101699347D01*
X104966767Y-101168456D01*
X104971243Y-101015364D01*
X105048517Y-100395231D01*
X105237025Y-99729828D01*
X105312391Y-99545585D01*
X105515037Y-98992904D01*
X105510199Y-98674946D01*
X105476908Y-98628830D01*
X105366684Y-98345547D01*
X105313872Y-97858707D01*
X105315397Y-97682120D01*
X105808609Y-97682120D01*
X105870155Y-97820577D01*
X105920750Y-97794261D01*
X105940882Y-97594633D01*
X105920750Y-97569978D01*
X105820748Y-97593069D01*
X105808609Y-97682120D01*
X105315397Y-97682120D01*
X105318731Y-97296284D01*
X105357856Y-96978459D01*
X108888828Y-96978459D01*
X109024449Y-97075547D01*
X109048008Y-97087745D01*
X109394520Y-97187765D01*
X109838373Y-97137354D01*
X110182119Y-97039728D01*
X110807034Y-96851541D01*
X111532894Y-96646990D01*
X111864238Y-96558471D01*
X112141594Y-96484669D01*
X113966887Y-96484669D01*
X114363999Y-96831077D01*
X114713654Y-97111671D01*
X114872164Y-97167855D01*
X114892052Y-97112724D01*
X114784095Y-97009272D01*
X116910596Y-97009272D01*
X116972142Y-97147729D01*
X117022737Y-97121413D01*
X117042869Y-96921785D01*
X117022737Y-96897131D01*
X116922735Y-96920221D01*
X116910596Y-97009272D01*
X114784095Y-97009272D01*
X114764638Y-96990627D01*
X114455342Y-96782170D01*
X114429470Y-96766317D01*
X113966887Y-96484669D01*
X112141594Y-96484669D01*
X112418135Y-96411084D01*
X112621403Y-96354435D01*
X115420277Y-96354435D01*
X115575119Y-96519059D01*
X115661286Y-96585130D01*
X116010772Y-96801590D01*
X116185099Y-96747371D01*
X116237194Y-96399094D01*
X116237748Y-96330506D01*
X116215169Y-95986701D01*
X116182987Y-95967186D01*
X117024616Y-95967186D01*
X117040327Y-96207442D01*
X117122247Y-96460274D01*
X117200036Y-96397489D01*
X117263457Y-96243310D01*
X117376830Y-95860810D01*
X117403408Y-95685033D01*
X117358985Y-95543000D01*
X117180279Y-95649165D01*
X117024616Y-95967186D01*
X116182987Y-95967186D01*
X116095359Y-95914051D01*
X115859271Y-96016867D01*
X115504712Y-96216549D01*
X115420277Y-96354435D01*
X112621403Y-96354435D01*
X112859245Y-96288151D01*
X113031306Y-96236003D01*
X113047917Y-96123671D01*
X112778240Y-95917216D01*
X112470038Y-95747873D01*
X111666866Y-95341255D01*
X110168859Y-96118357D01*
X109496217Y-96472692D01*
X109085084Y-96711305D01*
X108895830Y-96868470D01*
X108888828Y-96978459D01*
X105357856Y-96978459D01*
X105381517Y-96786254D01*
X105472639Y-96503789D01*
X105628054Y-96298389D01*
X105843332Y-96305604D01*
X106086273Y-96419486D01*
X106382539Y-96542914D01*
X106613992Y-96505129D01*
X106901216Y-96268141D01*
X107053038Y-96114905D01*
X107427189Y-95626723D01*
X107522795Y-95191960D01*
X107518277Y-95148150D01*
X107428808Y-94846251D01*
X107198038Y-94766300D01*
X106973742Y-94788449D01*
X106451274Y-94805396D01*
X106063080Y-94753982D01*
X105785856Y-94634860D01*
X105665009Y-94392275D01*
X105640397Y-93975048D01*
X105623665Y-93549196D01*
X105533922Y-93379461D01*
X105311842Y-93385814D01*
X105219867Y-93407746D01*
X104899719Y-93435242D01*
X104800012Y-93270191D01*
X104799337Y-93242739D01*
X104909564Y-93044778D01*
X105277286Y-92973581D01*
X105368980Y-92972186D01*
X105729673Y-92996948D01*
X105914578Y-93133251D01*
X106011728Y-93474120D01*
X106045511Y-93687086D01*
X106152401Y-94401987D01*
X108079470Y-94401987D01*
X108132180Y-94948676D01*
X108223266Y-95341710D01*
X108356249Y-95487136D01*
X108468031Y-95362296D01*
X108500000Y-95080753D01*
X108502057Y-95074835D01*
X108836423Y-95074835D01*
X108920529Y-95158941D01*
X109004635Y-95074835D01*
X108920529Y-94990729D01*
X108836423Y-95074835D01*
X108502057Y-95074835D01*
X108560531Y-94906623D01*
X109172847Y-94906623D01*
X109256953Y-94990729D01*
X109341059Y-94906623D01*
X109256953Y-94822517D01*
X109172847Y-94906623D01*
X108560531Y-94906623D01*
X108647161Y-94657417D01*
X108915769Y-94491954D01*
X113546357Y-94491954D01*
X113661746Y-94662306D01*
X113943322Y-94953467D01*
X114294195Y-95276548D01*
X114617479Y-95542661D01*
X114816285Y-95662916D01*
X114823418Y-95663577D01*
X115025576Y-95625913D01*
X115435090Y-95530701D01*
X115658624Y-95475395D01*
X116405960Y-95287214D01*
X116405960Y-94446514D01*
X116394246Y-93952137D01*
X116333553Y-93718710D01*
X116185548Y-93670930D01*
X116027483Y-93702954D01*
X114980948Y-93978524D01*
X114238295Y-94191054D01*
X113774557Y-94348482D01*
X113564767Y-94458750D01*
X113546357Y-94491954D01*
X108915769Y-94491954D01*
X109069605Y-94397191D01*
X109666424Y-94317881D01*
X110035747Y-94271630D01*
X110172522Y-94085714D01*
X110183970Y-93939404D01*
X110212873Y-93516071D01*
X110279638Y-92997011D01*
X111024679Y-92997011D01*
X111053162Y-93366598D01*
X111122694Y-93520266D01*
X111291003Y-93575371D01*
X111622854Y-93519292D01*
X111664241Y-93505879D01*
X117142245Y-93505879D01*
X117171835Y-94206251D01*
X117195293Y-94662641D01*
X117218154Y-94956540D01*
X117224223Y-94996228D01*
X117385003Y-95024005D01*
X117779881Y-95031839D01*
X118307341Y-95023150D01*
X118865869Y-95001354D01*
X119353951Y-94969870D01*
X119670072Y-94932114D01*
X119732105Y-94911793D01*
X119720715Y-94744257D01*
X119673361Y-94597679D01*
X119401104Y-94258808D01*
X118908527Y-93932615D01*
X118308155Y-93680714D01*
X117798655Y-93571181D01*
X117142245Y-93505879D01*
X111664241Y-93505879D01*
X112178051Y-93339363D01*
X112452980Y-93238518D01*
X112984944Y-93075227D01*
X113459945Y-92985894D01*
X113546357Y-92980681D01*
X114032345Y-92948366D01*
X114639982Y-92873547D01*
X115282977Y-92771677D01*
X115875041Y-92658210D01*
X116329880Y-92548599D01*
X116561206Y-92458298D01*
X116574172Y-92438446D01*
X116416813Y-92384745D01*
X115988069Y-92340675D01*
X115352939Y-92310715D01*
X114576422Y-92299345D01*
X114555629Y-92299338D01*
X113697456Y-92304006D01*
X113120380Y-92323330D01*
X112769140Y-92365293D01*
X112588477Y-92437876D01*
X112523130Y-92549061D01*
X112517573Y-92593709D01*
X112494077Y-92801021D01*
X112444424Y-92681569D01*
X112421133Y-92593709D01*
X112255977Y-92357498D01*
X112026410Y-92312637D01*
X111873878Y-92469808D01*
X111864238Y-92551656D01*
X111729590Y-92774666D01*
X111611920Y-92803974D01*
X111391277Y-92668549D01*
X111359602Y-92541729D01*
X111285466Y-92383444D01*
X111527814Y-92383444D01*
X111611920Y-92467550D01*
X111696026Y-92383444D01*
X111611920Y-92299338D01*
X111527814Y-92383444D01*
X111285466Y-92383444D01*
X111278054Y-92367620D01*
X111191390Y-92383444D01*
X111074256Y-92611357D01*
X111024679Y-92997011D01*
X110279638Y-92997011D01*
X110280952Y-92986796D01*
X110290085Y-92930133D01*
X110340906Y-92519653D01*
X110266098Y-92342193D01*
X110002213Y-92300141D01*
X109880038Y-92299338D01*
X109444023Y-92387744D01*
X109288800Y-92593709D01*
X109224870Y-92801021D01*
X109198515Y-92681569D01*
X109192360Y-92593709D01*
X109071072Y-92361249D01*
X108851172Y-92308528D01*
X108685316Y-92447795D01*
X108668211Y-92551656D01*
X108585011Y-92778266D01*
X108414051Y-92751446D01*
X108279528Y-92509603D01*
X108215598Y-92302291D01*
X108189243Y-92421743D01*
X108183088Y-92509603D01*
X108045324Y-92744062D01*
X107774356Y-92794750D01*
X107518779Y-92661666D01*
X107438469Y-92509603D01*
X107374539Y-92302291D01*
X107348184Y-92421743D01*
X107342029Y-92509603D01*
X107296593Y-92645358D01*
X107141646Y-92732051D01*
X106816655Y-92780277D01*
X106261087Y-92800629D01*
X105660016Y-92803974D01*
X104849031Y-92794942D01*
X104315881Y-92744124D01*
X104002034Y-92615935D01*
X103848957Y-92374792D01*
X103798120Y-91985110D01*
X103792363Y-91668543D01*
X103727178Y-91373077D01*
X103621854Y-91290067D01*
X103473424Y-91150699D01*
X103441819Y-90995696D01*
X103419521Y-90797875D01*
X103348185Y-90910907D01*
X103309093Y-91008143D01*
X103140318Y-91262434D01*
X103033112Y-91314962D01*
X102851125Y-91179297D01*
X102757132Y-91008143D01*
X102661033Y-90799219D01*
X102628954Y-90902552D01*
X102624405Y-90995696D01*
X102552725Y-91177485D01*
X102304463Y-91266341D01*
X101801165Y-91290064D01*
X101793671Y-91290067D01*
X100974760Y-91290067D01*
X100831786Y-92004967D01*
X100776118Y-92452887D01*
X100730454Y-93142824D01*
X100699535Y-93980411D01*
X100688104Y-94864570D01*
X100687396Y-97009272D01*
X99962591Y-97009272D01*
X99403736Y-96950222D01*
X99146548Y-96770231D01*
X99140962Y-96756954D01*
X98975850Y-96534362D01*
X98893923Y-96504636D01*
X98760573Y-96641145D01*
X98743708Y-96756954D01*
X98609060Y-96979964D01*
X98491390Y-97009272D01*
X98268380Y-96874624D01*
X98239072Y-96756954D01*
X98120230Y-96552610D01*
X97860830Y-96516574D01*
X97606559Y-96640398D01*
X97513966Y-96799007D01*
X97450036Y-97006319D01*
X97423681Y-96886867D01*
X97417526Y-96799007D01*
X97322882Y-96600800D01*
X97021523Y-96515557D01*
X96725165Y-96504636D01*
X96272481Y-96539203D01*
X96072264Y-96665534D01*
X96040495Y-96799007D01*
X96013132Y-96979045D01*
X95928608Y-96857560D01*
X95884105Y-96756954D01*
X95770637Y-96516558D01*
X95728991Y-96585256D01*
X95714436Y-96756954D01*
X95664779Y-96946278D01*
X95601128Y-96873026D01*
X95389345Y-96526925D01*
X95077657Y-96194199D01*
X94762522Y-95961351D01*
X94540398Y-95914885D01*
X94535712Y-95917562D01*
X94354142Y-95874510D01*
X94242216Y-95638448D01*
X94136878Y-95243047D01*
X94017988Y-95663577D01*
X93930492Y-95945452D01*
X93895024Y-95913115D01*
X93882330Y-95705630D01*
X93810073Y-95409835D01*
X93709050Y-95327153D01*
X93559445Y-95469684D01*
X93479639Y-95705630D01*
X93406742Y-96084106D01*
X93383834Y-95705630D01*
X93310987Y-95446332D01*
X93069726Y-95341476D01*
X92772185Y-95327153D01*
X92336742Y-95272438D01*
X92184507Y-95097815D01*
X92183443Y-95074835D01*
X92111054Y-94844707D01*
X91957238Y-94869948D01*
X91817024Y-95119495D01*
X91797520Y-95200994D01*
X91724622Y-95579471D01*
X91701715Y-95200994D01*
X91662658Y-94996871D01*
X91525286Y-94883197D01*
X91212441Y-94833812D01*
X90646964Y-94822554D01*
X90585430Y-94822517D01*
X89993711Y-94812032D01*
X89663814Y-94765327D01*
X89521400Y-94659529D01*
X89492053Y-94486093D01*
X89537348Y-94282597D01*
X89728767Y-94182162D01*
X90149615Y-94150739D01*
X90315115Y-94149669D01*
X90894402Y-94192634D01*
X91190291Y-94329368D01*
X91235002Y-94401987D01*
X91430060Y-94612090D01*
X91681687Y-94634096D01*
X91839705Y-94468005D01*
X91847019Y-94401987D01*
X91981667Y-94178977D01*
X92099337Y-94149669D01*
X92322347Y-94284317D01*
X92351655Y-94401987D01*
X92486303Y-94624997D01*
X92603973Y-94654305D01*
X92826983Y-94788953D01*
X92856291Y-94906623D01*
X92992233Y-95096223D01*
X93313454Y-95172628D01*
X93690049Y-95140280D01*
X93992109Y-95003621D01*
X94086034Y-94864570D01*
X94149964Y-94657258D01*
X94176318Y-94776710D01*
X94182473Y-94864570D01*
X94312430Y-95089617D01*
X94698191Y-95158925D01*
X94706622Y-95158941D01*
X95107255Y-95234167D01*
X95211258Y-95411259D01*
X95228454Y-95525081D01*
X95314092Y-95603906D01*
X95519242Y-95653448D01*
X95894977Y-95679422D01*
X96492370Y-95687544D01*
X97362492Y-95683530D01*
X97624659Y-95681334D01*
X98345977Y-95682866D01*
X98798452Y-95711180D01*
X99049373Y-95778991D01*
X99166027Y-95899015D01*
X99193817Y-95977867D01*
X99368816Y-96207747D01*
X99773010Y-96267360D01*
X99808230Y-96266213D01*
X100341721Y-96245112D01*
X100444144Y-93389112D01*
X100479145Y-92447770D01*
X100511836Y-91632107D01*
X100539795Y-90997808D01*
X100560596Y-90600555D01*
X100570303Y-90491060D01*
X100736008Y-90465895D01*
X101127478Y-90450871D01*
X101350993Y-90449007D01*
X101849911Y-90415986D01*
X102077168Y-90303707D01*
X102107947Y-90196689D01*
X102207009Y-90030383D01*
X102543846Y-89954631D01*
X102864900Y-89944371D01*
X103378671Y-89982539D01*
X103603729Y-90105268D01*
X103621854Y-90178692D01*
X103757966Y-90436025D01*
X103884666Y-90513864D01*
X104042429Y-90649742D01*
X104080731Y-90946226D01*
X104033779Y-91372920D01*
X103920079Y-92131126D01*
X104780238Y-92131126D01*
X105291668Y-92114206D01*
X105362698Y-92094330D01*
X117286376Y-92094330D01*
X117343860Y-92259400D01*
X117441514Y-92262542D01*
X117633342Y-92361878D01*
X117691721Y-92551656D01*
X117728926Y-92946625D01*
X117788302Y-93108550D01*
X117909144Y-93140375D01*
X117916448Y-93140398D01*
X118084937Y-93003540D01*
X118320273Y-92657617D01*
X118429651Y-92457460D01*
X118778060Y-91774522D01*
X118067666Y-91826665D01*
X117613066Y-91905370D01*
X117325228Y-92040139D01*
X117286376Y-92094330D01*
X105362698Y-92094330D01*
X105549462Y-92042069D01*
X105635609Y-91882645D01*
X105640397Y-91794702D01*
X105711819Y-91506554D01*
X105864787Y-91496626D01*
X106007356Y-91754898D01*
X106026320Y-91836755D01*
X106082978Y-92080392D01*
X106112154Y-92002458D01*
X106121963Y-91878808D01*
X106141800Y-91766939D01*
X106212530Y-91683898D01*
X106376832Y-91626218D01*
X106677384Y-91590430D01*
X107156864Y-91573065D01*
X107857950Y-91570655D01*
X108823320Y-91579730D01*
X109664780Y-91590861D01*
X113184851Y-91639337D01*
X113258591Y-91254437D01*
X113332330Y-90869537D01*
X113355238Y-91248014D01*
X113466156Y-91545764D01*
X113786976Y-91626490D01*
X114139100Y-91519239D01*
X114268704Y-91248014D01*
X114341602Y-90869537D01*
X114364509Y-91248014D01*
X114451526Y-91523278D01*
X114731594Y-91621062D01*
X114892052Y-91626490D01*
X115260457Y-91574978D01*
X115400159Y-91372895D01*
X115413456Y-91248014D01*
X115433592Y-90997937D01*
X115484674Y-91050766D01*
X115564900Y-91290067D01*
X115667309Y-91529343D01*
X115714970Y-91436679D01*
X115716345Y-91416226D01*
X115804517Y-91166118D01*
X115888990Y-91121855D01*
X116057292Y-91260416D01*
X116121795Y-91416226D01*
X116185725Y-91623538D01*
X116212080Y-91504086D01*
X116218235Y-91416226D01*
X116376273Y-91168713D01*
X116574172Y-91121855D01*
X116850780Y-91013470D01*
X116910596Y-90862503D01*
X117018517Y-90555694D01*
X117242501Y-90246894D01*
X117574406Y-89890635D01*
X117727764Y-90295980D01*
X117788146Y-90733024D01*
X117711686Y-90911590D01*
X117652548Y-91084510D01*
X117820444Y-91121855D01*
X118116095Y-90989152D01*
X118195461Y-90869537D01*
X118397214Y-90646159D01*
X118508609Y-90617219D01*
X118752057Y-90752561D01*
X118821757Y-90869537D01*
X119005884Y-91103486D01*
X119192854Y-91044252D01*
X119282330Y-90743378D01*
X119303500Y-90483283D01*
X119355692Y-90548092D01*
X119408489Y-90707108D01*
X119548455Y-90926637D01*
X119847551Y-91038247D01*
X120316887Y-91077383D01*
X120829577Y-91066967D01*
X121072948Y-90977751D01*
X121115894Y-90861335D01*
X121187022Y-90634773D01*
X121242052Y-90604719D01*
X121911850Y-90474995D01*
X122296161Y-90253196D01*
X122339758Y-90191942D01*
X122545389Y-89965703D01*
X122736897Y-90064322D01*
X122924719Y-90491060D01*
X123100092Y-91037749D01*
X123117264Y-90491060D01*
X123178736Y-90098180D01*
X123363008Y-89952258D01*
X123458526Y-89944371D01*
X123762970Y-89812386D01*
X123859543Y-89650000D01*
X123923473Y-89442688D01*
X123949828Y-89562140D01*
X123955983Y-89650000D01*
X124006512Y-89795092D01*
X124177892Y-89883521D01*
X124535185Y-89928615D01*
X125143451Y-89943703D01*
X125392964Y-89944371D01*
X126099347Y-89934777D01*
X126537125Y-89897129D01*
X126773789Y-89818133D01*
X126876834Y-89684495D01*
X126887358Y-89650000D01*
X126951288Y-89442688D01*
X126977643Y-89562140D01*
G36*
X126977643Y-105562140D02*
X126983798Y-105650000D01*
X127080153Y-105900108D01*
X127171523Y-105944371D01*
X127322559Y-105804827D01*
X127356907Y-105650000D01*
X127408991Y-105589739D01*
X127516884Y-105807236D01*
X127550278Y-105905195D01*
X127640935Y-106303414D01*
X127629127Y-106548779D01*
X127619704Y-106561532D01*
X127418051Y-106605629D01*
X126952257Y-106643970D01*
X126294604Y-106672099D01*
X125620346Y-106684814D01*
X124794477Y-106696860D01*
X124245995Y-106722576D01*
X123915882Y-106772089D01*
X123745117Y-106855528D01*
X123674684Y-106983019D01*
X123666380Y-107020111D01*
X123590301Y-107226838D01*
X123466701Y-107120263D01*
X123456400Y-107104217D01*
X123348438Y-107021303D01*
X123306803Y-107246351D01*
X123305224Y-107332120D01*
X123238436Y-107682724D01*
X123005126Y-107793737D01*
X122966225Y-107794702D01*
X122692243Y-107689524D01*
X122629801Y-107542385D01*
X122489563Y-107336898D01*
X122293377Y-107290067D01*
X122019395Y-107395245D01*
X121956953Y-107542385D01*
X121891208Y-107675029D01*
X121653497Y-107753106D01*
X121183109Y-107788661D01*
X120685436Y-107794702D01*
X120062225Y-107813435D01*
X119649490Y-107864405D01*
X119506242Y-107939775D01*
X119510396Y-107950804D01*
X119458239Y-108118692D01*
X119293532Y-108206355D01*
X119049791Y-108381159D01*
X118821545Y-108684347D01*
X118671270Y-109003717D01*
X118661435Y-109227064D01*
X118705370Y-109262723D01*
X119309715Y-109576716D01*
X119785038Y-110025347D01*
X120024444Y-110494872D01*
X120055917Y-110925675D01*
X119886022Y-111182115D01*
X119467874Y-111301864D01*
X118991788Y-111324577D01*
X118453214Y-111399255D01*
X118085943Y-111589047D01*
X117955284Y-111849298D01*
X118003973Y-112000000D01*
X118006904Y-112267070D01*
X117919867Y-112420530D01*
X117803770Y-112704395D01*
X117831025Y-112833396D01*
X117824945Y-113086209D01*
X117677294Y-113382829D01*
X117474279Y-113845281D01*
X117415231Y-114224184D01*
X117361848Y-114566339D01*
X117137173Y-114683991D01*
X116978602Y-114691391D01*
X116495786Y-114611543D01*
X116095490Y-114459565D01*
X115603455Y-114219550D01*
X115228476Y-114052605D01*
X114845921Y-113887593D01*
X114296267Y-113643979D01*
X113860438Y-113447768D01*
X113428027Y-113261590D01*
X115060264Y-113261590D01*
X115144370Y-113345696D01*
X115228476Y-113261590D01*
X115144370Y-113177484D01*
X115060264Y-113261590D01*
X113428027Y-113261590D01*
X113319551Y-113214885D01*
X112938112Y-113113158D01*
X112572191Y-113128344D01*
X112077855Y-113246198D01*
X112010107Y-113264641D01*
X111311009Y-113448645D01*
X110585019Y-113629397D01*
X110308278Y-113694713D01*
X109845782Y-113826769D01*
X109557311Y-113958868D01*
X109509271Y-114017284D01*
X109356297Y-114108836D01*
X108952400Y-114222417D01*
X108380114Y-114335493D01*
X108289735Y-114350243D01*
X107334997Y-114520065D01*
X106664047Y-114710811D01*
X106225785Y-114975557D01*
X105969114Y-115367379D01*
X105842937Y-115939351D01*
X105796156Y-116744551D01*
X105791700Y-116944977D01*
X105757668Y-117657862D01*
X105696103Y-118154601D01*
X105620585Y-118411295D01*
X105544692Y-118404048D01*
X105482006Y-118108961D01*
X105447343Y-117550994D01*
X105417349Y-116457616D01*
X105318608Y-117381324D01*
X105231182Y-117948106D01*
X105103255Y-118251611D01*
X104911538Y-118363564D01*
X104702864Y-118363833D01*
X104731905Y-118186762D01*
X104785379Y-118081710D01*
X104901902Y-117699347D01*
X104966767Y-117168456D01*
X104971243Y-117015364D01*
X105048517Y-116395231D01*
X105237025Y-115729828D01*
X105312391Y-115545585D01*
X105515037Y-114992904D01*
X105510199Y-114674946D01*
X105476908Y-114628830D01*
X105366684Y-114345547D01*
X105313872Y-113858707D01*
X105315397Y-113682120D01*
X105808609Y-113682120D01*
X105870155Y-113820577D01*
X105920750Y-113794261D01*
X105940882Y-113594633D01*
X105920750Y-113569978D01*
X105820748Y-113593069D01*
X105808609Y-113682120D01*
X105315397Y-113682120D01*
X105318731Y-113296284D01*
X105357856Y-112978459D01*
X108888828Y-112978459D01*
X109024449Y-113075547D01*
X109048008Y-113087745D01*
X109394520Y-113187765D01*
X109838373Y-113137354D01*
X110182119Y-113039728D01*
X110807034Y-112851541D01*
X111532894Y-112646990D01*
X111864238Y-112558471D01*
X112141594Y-112484669D01*
X113966887Y-112484669D01*
X114363999Y-112831077D01*
X114713654Y-113111671D01*
X114872164Y-113167855D01*
X114892052Y-113112724D01*
X114784095Y-113009272D01*
X116910596Y-113009272D01*
X116972142Y-113147729D01*
X117022737Y-113121413D01*
X117042869Y-112921785D01*
X117022737Y-112897131D01*
X116922735Y-112920221D01*
X116910596Y-113009272D01*
X114784095Y-113009272D01*
X114764638Y-112990627D01*
X114455342Y-112782170D01*
X114429470Y-112766317D01*
X113966887Y-112484669D01*
X112141594Y-112484669D01*
X112418135Y-112411084D01*
X112621403Y-112354435D01*
X115420277Y-112354435D01*
X115575119Y-112519059D01*
X115661286Y-112585130D01*
X116010772Y-112801590D01*
X116185099Y-112747371D01*
X116237194Y-112399094D01*
X116237748Y-112330506D01*
X116215169Y-111986701D01*
X116182987Y-111967186D01*
X117024616Y-111967186D01*
X117040327Y-112207442D01*
X117122247Y-112460274D01*
X117200036Y-112397489D01*
X117263457Y-112243310D01*
X117376830Y-111860810D01*
X117403408Y-111685033D01*
X117358985Y-111543000D01*
X117180279Y-111649165D01*
X117024616Y-111967186D01*
X116182987Y-111967186D01*
X116095359Y-111914051D01*
X115859271Y-112016867D01*
X115504712Y-112216549D01*
X115420277Y-112354435D01*
X112621403Y-112354435D01*
X112859245Y-112288151D01*
X113031306Y-112236003D01*
X113047917Y-112123671D01*
X112778240Y-111917216D01*
X112470038Y-111747873D01*
X111666866Y-111341255D01*
X110168859Y-112118357D01*
X109496217Y-112472692D01*
X109085084Y-112711305D01*
X108895830Y-112868470D01*
X108888828Y-112978459D01*
X105357856Y-112978459D01*
X105381517Y-112786254D01*
X105472639Y-112503789D01*
X105628054Y-112298389D01*
X105843332Y-112305604D01*
X106086273Y-112419486D01*
X106382539Y-112542914D01*
X106613992Y-112505129D01*
X106901216Y-112268141D01*
X107053038Y-112114905D01*
X107427189Y-111626723D01*
X107522795Y-111191960D01*
X107518277Y-111148150D01*
X107428808Y-110846251D01*
X107198038Y-110766300D01*
X106973742Y-110788449D01*
X106451274Y-110805396D01*
X106063080Y-110753982D01*
X105785856Y-110634860D01*
X105665009Y-110392275D01*
X105640397Y-109975048D01*
X105623665Y-109549196D01*
X105533922Y-109379461D01*
X105311842Y-109385814D01*
X105219867Y-109407746D01*
X104899719Y-109435242D01*
X104800012Y-109270191D01*
X104799337Y-109242739D01*
X104909564Y-109044778D01*
X105277286Y-108973581D01*
X105368980Y-108972186D01*
X105729673Y-108996948D01*
X105914578Y-109133251D01*
X106011728Y-109474120D01*
X106045511Y-109687086D01*
X106152401Y-110401987D01*
X108079470Y-110401987D01*
X108132180Y-110948676D01*
X108223266Y-111341710D01*
X108356249Y-111487136D01*
X108468031Y-111362296D01*
X108500000Y-111080753D01*
X108502057Y-111074835D01*
X108836423Y-111074835D01*
X108920529Y-111158941D01*
X109004635Y-111074835D01*
X108920529Y-110990729D01*
X108836423Y-111074835D01*
X108502057Y-111074835D01*
X108560531Y-110906623D01*
X109172847Y-110906623D01*
X109256953Y-110990729D01*
X109341059Y-110906623D01*
X109256953Y-110822517D01*
X109172847Y-110906623D01*
X108560531Y-110906623D01*
X108647161Y-110657417D01*
X108915769Y-110491954D01*
X113546357Y-110491954D01*
X113661746Y-110662306D01*
X113943322Y-110953467D01*
X114294195Y-111276548D01*
X114617479Y-111542661D01*
X114816285Y-111662916D01*
X114823418Y-111663577D01*
X115025576Y-111625913D01*
X115435090Y-111530701D01*
X115658624Y-111475395D01*
X116405960Y-111287214D01*
X116405960Y-110446514D01*
X116394246Y-109952137D01*
X116333553Y-109718710D01*
X116185548Y-109670930D01*
X116027483Y-109702954D01*
X114980948Y-109978524D01*
X114238295Y-110191054D01*
X113774557Y-110348482D01*
X113564767Y-110458750D01*
X113546357Y-110491954D01*
X108915769Y-110491954D01*
X109069605Y-110397191D01*
X109666424Y-110317881D01*
X110035747Y-110271630D01*
X110172522Y-110085714D01*
X110183970Y-109939404D01*
X110212873Y-109516071D01*
X110279638Y-108997011D01*
X111024679Y-108997011D01*
X111053162Y-109366598D01*
X111122694Y-109520266D01*
X111291003Y-109575371D01*
X111622854Y-109519292D01*
X111664241Y-109505879D01*
X117142245Y-109505879D01*
X117171835Y-110206251D01*
X117195293Y-110662641D01*
X117218154Y-110956540D01*
X117224223Y-110996228D01*
X117385003Y-111024005D01*
X117779881Y-111031839D01*
X118307341Y-111023150D01*
X118865869Y-111001354D01*
X119353951Y-110969870D01*
X119670072Y-110932114D01*
X119732105Y-110911793D01*
X119720715Y-110744257D01*
X119673361Y-110597679D01*
X119401104Y-110258808D01*
X118908527Y-109932615D01*
X118308155Y-109680714D01*
X117798655Y-109571181D01*
X117142245Y-109505879D01*
X111664241Y-109505879D01*
X112178051Y-109339363D01*
X112452980Y-109238518D01*
X112984944Y-109075227D01*
X113459945Y-108985894D01*
X113546357Y-108980681D01*
X114032345Y-108948366D01*
X114639982Y-108873547D01*
X115282977Y-108771677D01*
X115875041Y-108658210D01*
X116329880Y-108548599D01*
X116561206Y-108458298D01*
X116574172Y-108438446D01*
X116416813Y-108384745D01*
X115988069Y-108340675D01*
X115352939Y-108310715D01*
X114576422Y-108299345D01*
X114555629Y-108299338D01*
X113697456Y-108304006D01*
X113120380Y-108323330D01*
X112769140Y-108365293D01*
X112588477Y-108437876D01*
X112523130Y-108549061D01*
X112517573Y-108593709D01*
X112494077Y-108801021D01*
X112444424Y-108681569D01*
X112421133Y-108593709D01*
X112255977Y-108357498D01*
X112026410Y-108312637D01*
X111873878Y-108469808D01*
X111864238Y-108551656D01*
X111729590Y-108774666D01*
X111611920Y-108803974D01*
X111391277Y-108668549D01*
X111359602Y-108541729D01*
X111285466Y-108383444D01*
X111527814Y-108383444D01*
X111611920Y-108467550D01*
X111696026Y-108383444D01*
X111611920Y-108299338D01*
X111527814Y-108383444D01*
X111285466Y-108383444D01*
X111278054Y-108367620D01*
X111191390Y-108383444D01*
X111074256Y-108611357D01*
X111024679Y-108997011D01*
X110279638Y-108997011D01*
X110280952Y-108986796D01*
X110290085Y-108930133D01*
X110340906Y-108519653D01*
X110266098Y-108342193D01*
X110002213Y-108300141D01*
X109880038Y-108299338D01*
X109444023Y-108387744D01*
X109288800Y-108593709D01*
X109224870Y-108801021D01*
X109198515Y-108681569D01*
X109192360Y-108593709D01*
X109071072Y-108361249D01*
X108851172Y-108308528D01*
X108685316Y-108447795D01*
X108668211Y-108551656D01*
X108585011Y-108778266D01*
X108414051Y-108751446D01*
X108279528Y-108509603D01*
X108215598Y-108302291D01*
X108189243Y-108421743D01*
X108183088Y-108509603D01*
X108045324Y-108744062D01*
X107774356Y-108794750D01*
X107518779Y-108661666D01*
X107438469Y-108509603D01*
X107374539Y-108302291D01*
X107348184Y-108421743D01*
X107342029Y-108509603D01*
X107296593Y-108645358D01*
X107141646Y-108732051D01*
X106816655Y-108780277D01*
X106261087Y-108800629D01*
X105660016Y-108803974D01*
X104849031Y-108794942D01*
X104315881Y-108744124D01*
X104002034Y-108615935D01*
X103848957Y-108374792D01*
X103798120Y-107985110D01*
X103792363Y-107668543D01*
X103727178Y-107373077D01*
X103621854Y-107290067D01*
X103473424Y-107150699D01*
X103441819Y-106995696D01*
X103419521Y-106797875D01*
X103348185Y-106910907D01*
X103309093Y-107008143D01*
X103140318Y-107262434D01*
X103033112Y-107314962D01*
X102851125Y-107179297D01*
X102757132Y-107008143D01*
X102661033Y-106799219D01*
X102628954Y-106902552D01*
X102624405Y-106995696D01*
X102552725Y-107177485D01*
X102304463Y-107266341D01*
X101801165Y-107290064D01*
X101793671Y-107290067D01*
X100974760Y-107290067D01*
X100831786Y-108004967D01*
X100776118Y-108452887D01*
X100730454Y-109142824D01*
X100699535Y-109980411D01*
X100688104Y-110864570D01*
X100687396Y-113009272D01*
X99962591Y-113009272D01*
X99403736Y-112950222D01*
X99146548Y-112770231D01*
X99140962Y-112756954D01*
X98975850Y-112534362D01*
X98893923Y-112504636D01*
X98760573Y-112641145D01*
X98743708Y-112756954D01*
X98609060Y-112979964D01*
X98491390Y-113009272D01*
X98268380Y-112874624D01*
X98239072Y-112756954D01*
X98120230Y-112552610D01*
X97860830Y-112516574D01*
X97606559Y-112640398D01*
X97513966Y-112799007D01*
X97450036Y-113006319D01*
X97423681Y-112886867D01*
X97417526Y-112799007D01*
X97322882Y-112600800D01*
X97021523Y-112515557D01*
X96725165Y-112504636D01*
X96272481Y-112539203D01*
X96072264Y-112665534D01*
X96040495Y-112799007D01*
X96013132Y-112979045D01*
X95928608Y-112857560D01*
X95884105Y-112756954D01*
X95770637Y-112516558D01*
X95728991Y-112585256D01*
X95714436Y-112756954D01*
X95664779Y-112946278D01*
X95601128Y-112873026D01*
X95389345Y-112526925D01*
X95077657Y-112194199D01*
X94762522Y-111961351D01*
X94540398Y-111914885D01*
X94535712Y-111917562D01*
X94354142Y-111874510D01*
X94242216Y-111638448D01*
X94136878Y-111243047D01*
X94017988Y-111663577D01*
X93930492Y-111945452D01*
X93895024Y-111913115D01*
X93882330Y-111705630D01*
X93810073Y-111409835D01*
X93709050Y-111327153D01*
X93559445Y-111469684D01*
X93479639Y-111705630D01*
X93406742Y-112084106D01*
X93383834Y-111705630D01*
X93310987Y-111446332D01*
X93069726Y-111341476D01*
X92772185Y-111327153D01*
X92336742Y-111272438D01*
X92184507Y-111097815D01*
X92183443Y-111074835D01*
X92111054Y-110844707D01*
X91957238Y-110869948D01*
X91817024Y-111119495D01*
X91797520Y-111200994D01*
X91724622Y-111579471D01*
X91701715Y-111200994D01*
X91662658Y-110996871D01*
X91525286Y-110883197D01*
X91212441Y-110833812D01*
X90646964Y-110822554D01*
X90585430Y-110822517D01*
X89993711Y-110812032D01*
X89663814Y-110765327D01*
X89521400Y-110659529D01*
X89492053Y-110486093D01*
X89537348Y-110282597D01*
X89728767Y-110182162D01*
X90149615Y-110150739D01*
X90315115Y-110149669D01*
X90894402Y-110192634D01*
X91190291Y-110329368D01*
X91235002Y-110401987D01*
X91430060Y-110612090D01*
X91681687Y-110634096D01*
X91839705Y-110468005D01*
X91847019Y-110401987D01*
X91981667Y-110178977D01*
X92099337Y-110149669D01*
X92322347Y-110284317D01*
X92351655Y-110401987D01*
X92486303Y-110624997D01*
X92603973Y-110654305D01*
X92826983Y-110788953D01*
X92856291Y-110906623D01*
X92992233Y-111096223D01*
X93313454Y-111172628D01*
X93690049Y-111140280D01*
X93992109Y-111003621D01*
X94086034Y-110864570D01*
X94149964Y-110657258D01*
X94176318Y-110776710D01*
X94182473Y-110864570D01*
X94312430Y-111089617D01*
X94698191Y-111158925D01*
X94706622Y-111158941D01*
X95107255Y-111234167D01*
X95211258Y-111411259D01*
X95228454Y-111525081D01*
X95314092Y-111603906D01*
X95519242Y-111653448D01*
X95894977Y-111679422D01*
X96492370Y-111687544D01*
X97362492Y-111683530D01*
X97624659Y-111681334D01*
X98345977Y-111682866D01*
X98798452Y-111711180D01*
X99049373Y-111778991D01*
X99166027Y-111899015D01*
X99193817Y-111977867D01*
X99368816Y-112207747D01*
X99773010Y-112267360D01*
X99808230Y-112266213D01*
X100341721Y-112245112D01*
X100444144Y-109389112D01*
X100479145Y-108447770D01*
X100511836Y-107632107D01*
X100539795Y-106997808D01*
X100560596Y-106600555D01*
X100570303Y-106491060D01*
X100736008Y-106465895D01*
X101127478Y-106450871D01*
X101350993Y-106449007D01*
X101849911Y-106415986D01*
X102077168Y-106303707D01*
X102107947Y-106196689D01*
X102207009Y-106030383D01*
X102543846Y-105954631D01*
X102864900Y-105944371D01*
X103378671Y-105982539D01*
X103603729Y-106105268D01*
X103621854Y-106178692D01*
X103757966Y-106436025D01*
X103884666Y-106513864D01*
X104042429Y-106649742D01*
X104080731Y-106946226D01*
X104033779Y-107372920D01*
X103920079Y-108131126D01*
X104780238Y-108131126D01*
X105291668Y-108114206D01*
X105362698Y-108094330D01*
X117286376Y-108094330D01*
X117343860Y-108259400D01*
X117441514Y-108262542D01*
X117633342Y-108361878D01*
X117691721Y-108551656D01*
X117728926Y-108946625D01*
X117788302Y-109108550D01*
X117909144Y-109140375D01*
X117916448Y-109140398D01*
X118084937Y-109003540D01*
X118320273Y-108657617D01*
X118429651Y-108457460D01*
X118778060Y-107774522D01*
X118067666Y-107826665D01*
X117613066Y-107905370D01*
X117325228Y-108040139D01*
X117286376Y-108094330D01*
X105362698Y-108094330D01*
X105549462Y-108042069D01*
X105635609Y-107882645D01*
X105640397Y-107794702D01*
X105711819Y-107506554D01*
X105864787Y-107496626D01*
X106007356Y-107754898D01*
X106026320Y-107836755D01*
X106082978Y-108080392D01*
X106112154Y-108002458D01*
X106121963Y-107878808D01*
X106141800Y-107766939D01*
X106212530Y-107683898D01*
X106376832Y-107626218D01*
X106677384Y-107590430D01*
X107156864Y-107573065D01*
X107857950Y-107570655D01*
X108823320Y-107579730D01*
X109664780Y-107590861D01*
X113184851Y-107639337D01*
X113258591Y-107254437D01*
X113332330Y-106869537D01*
X113355238Y-107248014D01*
X113466156Y-107545764D01*
X113786976Y-107626490D01*
X114139100Y-107519239D01*
X114268704Y-107248014D01*
X114341602Y-106869537D01*
X114364509Y-107248014D01*
X114451526Y-107523278D01*
X114731594Y-107621062D01*
X114892052Y-107626490D01*
X115260457Y-107574978D01*
X115400159Y-107372895D01*
X115413456Y-107248014D01*
X115433592Y-106997937D01*
X115484674Y-107050766D01*
X115564900Y-107290067D01*
X115667309Y-107529343D01*
X115714970Y-107436679D01*
X115716345Y-107416226D01*
X115804517Y-107166118D01*
X115888990Y-107121855D01*
X116057292Y-107260416D01*
X116121795Y-107416226D01*
X116185725Y-107623538D01*
X116212080Y-107504086D01*
X116218235Y-107416226D01*
X116376273Y-107168713D01*
X116574172Y-107121855D01*
X116850780Y-107013470D01*
X116910596Y-106862503D01*
X117018517Y-106555694D01*
X117242501Y-106246894D01*
X117574406Y-105890635D01*
X117727764Y-106295980D01*
X117788146Y-106733024D01*
X117711686Y-106911590D01*
X117652548Y-107084510D01*
X117820444Y-107121855D01*
X118116095Y-106989152D01*
X118195461Y-106869537D01*
X118397214Y-106646159D01*
X118508609Y-106617219D01*
X118752057Y-106752561D01*
X118821757Y-106869537D01*
X119005884Y-107103486D01*
X119192854Y-107044252D01*
X119282330Y-106743378D01*
X119303500Y-106483283D01*
X119355692Y-106548092D01*
X119408489Y-106707108D01*
X119548455Y-106926637D01*
X119847551Y-107038247D01*
X120316887Y-107077383D01*
X120829577Y-107066967D01*
X121072948Y-106977751D01*
X121115894Y-106861335D01*
X121187022Y-106634773D01*
X121242052Y-106604719D01*
X121911850Y-106474995D01*
X122296161Y-106253196D01*
X122339758Y-106191942D01*
X122545389Y-105965703D01*
X122736897Y-106064322D01*
X122924719Y-106491060D01*
X123100092Y-107037749D01*
X123117264Y-106491060D01*
X123178736Y-106098180D01*
X123363008Y-105952258D01*
X123458526Y-105944371D01*
X123762970Y-105812386D01*
X123859543Y-105650000D01*
X123923473Y-105442688D01*
X123949828Y-105562140D01*
X123955983Y-105650000D01*
X124006512Y-105795092D01*
X124177892Y-105883521D01*
X124535185Y-105928615D01*
X125143451Y-105943703D01*
X125392964Y-105944371D01*
X126099347Y-105934777D01*
X126537125Y-105897129D01*
X126773789Y-105818133D01*
X126876834Y-105684495D01*
X126887358Y-105650000D01*
X126951288Y-105442688D01*
X126977643Y-105562140D01*
X126977643Y-105562140D01*
G37*
X126977643Y-105562140D02*
X126983798Y-105650000D01*
X127080153Y-105900108D01*
X127171523Y-105944371D01*
X127322559Y-105804827D01*
X127356907Y-105650000D01*
X127408991Y-105589739D01*
X127516884Y-105807236D01*
X127550278Y-105905195D01*
X127640935Y-106303414D01*
X127629127Y-106548779D01*
X127619704Y-106561532D01*
X127418051Y-106605629D01*
X126952257Y-106643970D01*
X126294604Y-106672099D01*
X125620346Y-106684814D01*
X124794477Y-106696860D01*
X124245995Y-106722576D01*
X123915882Y-106772089D01*
X123745117Y-106855528D01*
X123674684Y-106983019D01*
X123666380Y-107020111D01*
X123590301Y-107226838D01*
X123466701Y-107120263D01*
X123456400Y-107104217D01*
X123348438Y-107021303D01*
X123306803Y-107246351D01*
X123305224Y-107332120D01*
X123238436Y-107682724D01*
X123005126Y-107793737D01*
X122966225Y-107794702D01*
X122692243Y-107689524D01*
X122629801Y-107542385D01*
X122489563Y-107336898D01*
X122293377Y-107290067D01*
X122019395Y-107395245D01*
X121956953Y-107542385D01*
X121891208Y-107675029D01*
X121653497Y-107753106D01*
X121183109Y-107788661D01*
X120685436Y-107794702D01*
X120062225Y-107813435D01*
X119649490Y-107864405D01*
X119506242Y-107939775D01*
X119510396Y-107950804D01*
X119458239Y-108118692D01*
X119293532Y-108206355D01*
X119049791Y-108381159D01*
X118821545Y-108684347D01*
X118671270Y-109003717D01*
X118661435Y-109227064D01*
X118705370Y-109262723D01*
X119309715Y-109576716D01*
X119785038Y-110025347D01*
X120024444Y-110494872D01*
X120055917Y-110925675D01*
X119886022Y-111182115D01*
X119467874Y-111301864D01*
X118991788Y-111324577D01*
X118453214Y-111399255D01*
X118085943Y-111589047D01*
X117955284Y-111849298D01*
X118003973Y-112000000D01*
X118006904Y-112267070D01*
X117919867Y-112420530D01*
X117803770Y-112704395D01*
X117831025Y-112833396D01*
X117824945Y-113086209D01*
X117677294Y-113382829D01*
X117474279Y-113845281D01*
X117415231Y-114224184D01*
X117361848Y-114566339D01*
X117137173Y-114683991D01*
X116978602Y-114691391D01*
X116495786Y-114611543D01*
X116095490Y-114459565D01*
X115603455Y-114219550D01*
X115228476Y-114052605D01*
X114845921Y-113887593D01*
X114296267Y-113643979D01*
X113860438Y-113447768D01*
X113428027Y-113261590D01*
X115060264Y-113261590D01*
X115144370Y-113345696D01*
X115228476Y-113261590D01*
X115144370Y-113177484D01*
X115060264Y-113261590D01*
X113428027Y-113261590D01*
X113319551Y-113214885D01*
X112938112Y-113113158D01*
X112572191Y-113128344D01*
X112077855Y-113246198D01*
X112010107Y-113264641D01*
X111311009Y-113448645D01*
X110585019Y-113629397D01*
X110308278Y-113694713D01*
X109845782Y-113826769D01*
X109557311Y-113958868D01*
X109509271Y-114017284D01*
X109356297Y-114108836D01*
X108952400Y-114222417D01*
X108380114Y-114335493D01*
X108289735Y-114350243D01*
X107334997Y-114520065D01*
X106664047Y-114710811D01*
X106225785Y-114975557D01*
X105969114Y-115367379D01*
X105842937Y-115939351D01*
X105796156Y-116744551D01*
X105791700Y-116944977D01*
X105757668Y-117657862D01*
X105696103Y-118154601D01*
X105620585Y-118411295D01*
X105544692Y-118404048D01*
X105482006Y-118108961D01*
X105447343Y-117550994D01*
X105417349Y-116457616D01*
X105318608Y-117381324D01*
X105231182Y-117948106D01*
X105103255Y-118251611D01*
X104911538Y-118363564D01*
X104702864Y-118363833D01*
X104731905Y-118186762D01*
X104785379Y-118081710D01*
X104901902Y-117699347D01*
X104966767Y-117168456D01*
X104971243Y-117015364D01*
X105048517Y-116395231D01*
X105237025Y-115729828D01*
X105312391Y-115545585D01*
X105515037Y-114992904D01*
X105510199Y-114674946D01*
X105476908Y-114628830D01*
X105366684Y-114345547D01*
X105313872Y-113858707D01*
X105315397Y-113682120D01*
X105808609Y-113682120D01*
X105870155Y-113820577D01*
X105920750Y-113794261D01*
X105940882Y-113594633D01*
X105920750Y-113569978D01*
X105820748Y-113593069D01*
X105808609Y-113682120D01*
X105315397Y-113682120D01*
X105318731Y-113296284D01*
X105357856Y-112978459D01*
X108888828Y-112978459D01*
X109024449Y-113075547D01*
X109048008Y-113087745D01*
X109394520Y-113187765D01*
X109838373Y-113137354D01*
X110182119Y-113039728D01*
X110807034Y-112851541D01*
X111532894Y-112646990D01*
X111864238Y-112558471D01*
X112141594Y-112484669D01*
X113966887Y-112484669D01*
X114363999Y-112831077D01*
X114713654Y-113111671D01*
X114872164Y-113167855D01*
X114892052Y-113112724D01*
X114784095Y-113009272D01*
X116910596Y-113009272D01*
X116972142Y-113147729D01*
X117022737Y-113121413D01*
X117042869Y-112921785D01*
X117022737Y-112897131D01*
X116922735Y-112920221D01*
X116910596Y-113009272D01*
X114784095Y-113009272D01*
X114764638Y-112990627D01*
X114455342Y-112782170D01*
X114429470Y-112766317D01*
X113966887Y-112484669D01*
X112141594Y-112484669D01*
X112418135Y-112411084D01*
X112621403Y-112354435D01*
X115420277Y-112354435D01*
X115575119Y-112519059D01*
X115661286Y-112585130D01*
X116010772Y-112801590D01*
X116185099Y-112747371D01*
X116237194Y-112399094D01*
X116237748Y-112330506D01*
X116215169Y-111986701D01*
X116182987Y-111967186D01*
X117024616Y-111967186D01*
X117040327Y-112207442D01*
X117122247Y-112460274D01*
X117200036Y-112397489D01*
X117263457Y-112243310D01*
X117376830Y-111860810D01*
X117403408Y-111685033D01*
X117358985Y-111543000D01*
X117180279Y-111649165D01*
X117024616Y-111967186D01*
X116182987Y-111967186D01*
X116095359Y-111914051D01*
X115859271Y-112016867D01*
X115504712Y-112216549D01*
X115420277Y-112354435D01*
X112621403Y-112354435D01*
X112859245Y-112288151D01*
X113031306Y-112236003D01*
X113047917Y-112123671D01*
X112778240Y-111917216D01*
X112470038Y-111747873D01*
X111666866Y-111341255D01*
X110168859Y-112118357D01*
X109496217Y-112472692D01*
X109085084Y-112711305D01*
X108895830Y-112868470D01*
X108888828Y-112978459D01*
X105357856Y-112978459D01*
X105381517Y-112786254D01*
X105472639Y-112503789D01*
X105628054Y-112298389D01*
X105843332Y-112305604D01*
X106086273Y-112419486D01*
X106382539Y-112542914D01*
X106613992Y-112505129D01*
X106901216Y-112268141D01*
X107053038Y-112114905D01*
X107427189Y-111626723D01*
X107522795Y-111191960D01*
X107518277Y-111148150D01*
X107428808Y-110846251D01*
X107198038Y-110766300D01*
X106973742Y-110788449D01*
X106451274Y-110805396D01*
X106063080Y-110753982D01*
X105785856Y-110634860D01*
X105665009Y-110392275D01*
X105640397Y-109975048D01*
X105623665Y-109549196D01*
X105533922Y-109379461D01*
X105311842Y-109385814D01*
X105219867Y-109407746D01*
X104899719Y-109435242D01*
X104800012Y-109270191D01*
X104799337Y-109242739D01*
X104909564Y-109044778D01*
X105277286Y-108973581D01*
X105368980Y-108972186D01*
X105729673Y-108996948D01*
X105914578Y-109133251D01*
X106011728Y-109474120D01*
X106045511Y-109687086D01*
X106152401Y-110401987D01*
X108079470Y-110401987D01*
X108132180Y-110948676D01*
X108223266Y-111341710D01*
X108356249Y-111487136D01*
X108468031Y-111362296D01*
X108500000Y-111080753D01*
X108502057Y-111074835D01*
X108836423Y-111074835D01*
X108920529Y-111158941D01*
X109004635Y-111074835D01*
X108920529Y-110990729D01*
X108836423Y-111074835D01*
X108502057Y-111074835D01*
X108560531Y-110906623D01*
X109172847Y-110906623D01*
X109256953Y-110990729D01*
X109341059Y-110906623D01*
X109256953Y-110822517D01*
X109172847Y-110906623D01*
X108560531Y-110906623D01*
X108647161Y-110657417D01*
X108915769Y-110491954D01*
X113546357Y-110491954D01*
X113661746Y-110662306D01*
X113943322Y-110953467D01*
X114294195Y-111276548D01*
X114617479Y-111542661D01*
X114816285Y-111662916D01*
X114823418Y-111663577D01*
X115025576Y-111625913D01*
X115435090Y-111530701D01*
X115658624Y-111475395D01*
X116405960Y-111287214D01*
X116405960Y-110446514D01*
X116394246Y-109952137D01*
X116333553Y-109718710D01*
X116185548Y-109670930D01*
X116027483Y-109702954D01*
X114980948Y-109978524D01*
X114238295Y-110191054D01*
X113774557Y-110348482D01*
X113564767Y-110458750D01*
X113546357Y-110491954D01*
X108915769Y-110491954D01*
X109069605Y-110397191D01*
X109666424Y-110317881D01*
X110035747Y-110271630D01*
X110172522Y-110085714D01*
X110183970Y-109939404D01*
X110212873Y-109516071D01*
X110279638Y-108997011D01*
X111024679Y-108997011D01*
X111053162Y-109366598D01*
X111122694Y-109520266D01*
X111291003Y-109575371D01*
X111622854Y-109519292D01*
X111664241Y-109505879D01*
X117142245Y-109505879D01*
X117171835Y-110206251D01*
X117195293Y-110662641D01*
X117218154Y-110956540D01*
X117224223Y-110996228D01*
X117385003Y-111024005D01*
X117779881Y-111031839D01*
X118307341Y-111023150D01*
X118865869Y-111001354D01*
X119353951Y-110969870D01*
X119670072Y-110932114D01*
X119732105Y-110911793D01*
X119720715Y-110744257D01*
X119673361Y-110597679D01*
X119401104Y-110258808D01*
X118908527Y-109932615D01*
X118308155Y-109680714D01*
X117798655Y-109571181D01*
X117142245Y-109505879D01*
X111664241Y-109505879D01*
X112178051Y-109339363D01*
X112452980Y-109238518D01*
X112984944Y-109075227D01*
X113459945Y-108985894D01*
X113546357Y-108980681D01*
X114032345Y-108948366D01*
X114639982Y-108873547D01*
X115282977Y-108771677D01*
X115875041Y-108658210D01*
X116329880Y-108548599D01*
X116561206Y-108458298D01*
X116574172Y-108438446D01*
X116416813Y-108384745D01*
X115988069Y-108340675D01*
X115352939Y-108310715D01*
X114576422Y-108299345D01*
X114555629Y-108299338D01*
X113697456Y-108304006D01*
X113120380Y-108323330D01*
X112769140Y-108365293D01*
X112588477Y-108437876D01*
X112523130Y-108549061D01*
X112517573Y-108593709D01*
X112494077Y-108801021D01*
X112444424Y-108681569D01*
X112421133Y-108593709D01*
X112255977Y-108357498D01*
X112026410Y-108312637D01*
X111873878Y-108469808D01*
X111864238Y-108551656D01*
X111729590Y-108774666D01*
X111611920Y-108803974D01*
X111391277Y-108668549D01*
X111359602Y-108541729D01*
X111285466Y-108383444D01*
X111527814Y-108383444D01*
X111611920Y-108467550D01*
X111696026Y-108383444D01*
X111611920Y-108299338D01*
X111527814Y-108383444D01*
X111285466Y-108383444D01*
X111278054Y-108367620D01*
X111191390Y-108383444D01*
X111074256Y-108611357D01*
X111024679Y-108997011D01*
X110279638Y-108997011D01*
X110280952Y-108986796D01*
X110290085Y-108930133D01*
X110340906Y-108519653D01*
X110266098Y-108342193D01*
X110002213Y-108300141D01*
X109880038Y-108299338D01*
X109444023Y-108387744D01*
X109288800Y-108593709D01*
X109224870Y-108801021D01*
X109198515Y-108681569D01*
X109192360Y-108593709D01*
X109071072Y-108361249D01*
X108851172Y-108308528D01*
X108685316Y-108447795D01*
X108668211Y-108551656D01*
X108585011Y-108778266D01*
X108414051Y-108751446D01*
X108279528Y-108509603D01*
X108215598Y-108302291D01*
X108189243Y-108421743D01*
X108183088Y-108509603D01*
X108045324Y-108744062D01*
X107774356Y-108794750D01*
X107518779Y-108661666D01*
X107438469Y-108509603D01*
X107374539Y-108302291D01*
X107348184Y-108421743D01*
X107342029Y-108509603D01*
X107296593Y-108645358D01*
X107141646Y-108732051D01*
X106816655Y-108780277D01*
X106261087Y-108800629D01*
X105660016Y-108803974D01*
X104849031Y-108794942D01*
X104315881Y-108744124D01*
X104002034Y-108615935D01*
X103848957Y-108374792D01*
X103798120Y-107985110D01*
X103792363Y-107668543D01*
X103727178Y-107373077D01*
X103621854Y-107290067D01*
X103473424Y-107150699D01*
X103441819Y-106995696D01*
X103419521Y-106797875D01*
X103348185Y-106910907D01*
X103309093Y-107008143D01*
X103140318Y-107262434D01*
X103033112Y-107314962D01*
X102851125Y-107179297D01*
X102757132Y-107008143D01*
X102661033Y-106799219D01*
X102628954Y-106902552D01*
X102624405Y-106995696D01*
X102552725Y-107177485D01*
X102304463Y-107266341D01*
X101801165Y-107290064D01*
X101793671Y-107290067D01*
X100974760Y-107290067D01*
X100831786Y-108004967D01*
X100776118Y-108452887D01*
X100730454Y-109142824D01*
X100699535Y-109980411D01*
X100688104Y-110864570D01*
X100687396Y-113009272D01*
X99962591Y-113009272D01*
X99403736Y-112950222D01*
X99146548Y-112770231D01*
X99140962Y-112756954D01*
X98975850Y-112534362D01*
X98893923Y-112504636D01*
X98760573Y-112641145D01*
X98743708Y-112756954D01*
X98609060Y-112979964D01*
X98491390Y-113009272D01*
X98268380Y-112874624D01*
X98239072Y-112756954D01*
X98120230Y-112552610D01*
X97860830Y-112516574D01*
X97606559Y-112640398D01*
X97513966Y-112799007D01*
X97450036Y-113006319D01*
X97423681Y-112886867D01*
X97417526Y-112799007D01*
X97322882Y-112600800D01*
X97021523Y-112515557D01*
X96725165Y-112504636D01*
X96272481Y-112539203D01*
X96072264Y-112665534D01*
X96040495Y-112799007D01*
X96013132Y-112979045D01*
X95928608Y-112857560D01*
X95884105Y-112756954D01*
X95770637Y-112516558D01*
X95728991Y-112585256D01*
X95714436Y-112756954D01*
X95664779Y-112946278D01*
X95601128Y-112873026D01*
X95389345Y-112526925D01*
X95077657Y-112194199D01*
X94762522Y-111961351D01*
X94540398Y-111914885D01*
X94535712Y-111917562D01*
X94354142Y-111874510D01*
X94242216Y-111638448D01*
X94136878Y-111243047D01*
X94017988Y-111663577D01*
X93930492Y-111945452D01*
X93895024Y-111913115D01*
X93882330Y-111705630D01*
X93810073Y-111409835D01*
X93709050Y-111327153D01*
X93559445Y-111469684D01*
X93479639Y-111705630D01*
X93406742Y-112084106D01*
X93383834Y-111705630D01*
X93310987Y-111446332D01*
X93069726Y-111341476D01*
X92772185Y-111327153D01*
X92336742Y-111272438D01*
X92184507Y-111097815D01*
X92183443Y-111074835D01*
X92111054Y-110844707D01*
X91957238Y-110869948D01*
X91817024Y-111119495D01*
X91797520Y-111200994D01*
X91724622Y-111579471D01*
X91701715Y-111200994D01*
X91662658Y-110996871D01*
X91525286Y-110883197D01*
X91212441Y-110833812D01*
X90646964Y-110822554D01*
X90585430Y-110822517D01*
X89993711Y-110812032D01*
X89663814Y-110765327D01*
X89521400Y-110659529D01*
X89492053Y-110486093D01*
X89537348Y-110282597D01*
X89728767Y-110182162D01*
X90149615Y-110150739D01*
X90315115Y-110149669D01*
X90894402Y-110192634D01*
X91190291Y-110329368D01*
X91235002Y-110401987D01*
X91430060Y-110612090D01*
X91681687Y-110634096D01*
X91839705Y-110468005D01*
X91847019Y-110401987D01*
X91981667Y-110178977D01*
X92099337Y-110149669D01*
X92322347Y-110284317D01*
X92351655Y-110401987D01*
X92486303Y-110624997D01*
X92603973Y-110654305D01*
X92826983Y-110788953D01*
X92856291Y-110906623D01*
X92992233Y-111096223D01*
X93313454Y-111172628D01*
X93690049Y-111140280D01*
X93992109Y-111003621D01*
X94086034Y-110864570D01*
X94149964Y-110657258D01*
X94176318Y-110776710D01*
X94182473Y-110864570D01*
X94312430Y-111089617D01*
X94698191Y-111158925D01*
X94706622Y-111158941D01*
X95107255Y-111234167D01*
X95211258Y-111411259D01*
X95228454Y-111525081D01*
X95314092Y-111603906D01*
X95519242Y-111653448D01*
X95894977Y-111679422D01*
X96492370Y-111687544D01*
X97362492Y-111683530D01*
X97624659Y-111681334D01*
X98345977Y-111682866D01*
X98798452Y-111711180D01*
X99049373Y-111778991D01*
X99166027Y-111899015D01*
X99193817Y-111977867D01*
X99368816Y-112207747D01*
X99773010Y-112267360D01*
X99808230Y-112266213D01*
X100341721Y-112245112D01*
X100444144Y-109389112D01*
X100479145Y-108447770D01*
X100511836Y-107632107D01*
X100539795Y-106997808D01*
X100560596Y-106600555D01*
X100570303Y-106491060D01*
X100736008Y-106465895D01*
X101127478Y-106450871D01*
X101350993Y-106449007D01*
X101849911Y-106415986D01*
X102077168Y-106303707D01*
X102107947Y-106196689D01*
X102207009Y-106030383D01*
X102543846Y-105954631D01*
X102864900Y-105944371D01*
X103378671Y-105982539D01*
X103603729Y-106105268D01*
X103621854Y-106178692D01*
X103757966Y-106436025D01*
X103884666Y-106513864D01*
X104042429Y-106649742D01*
X104080731Y-106946226D01*
X104033779Y-107372920D01*
X103920079Y-108131126D01*
X104780238Y-108131126D01*
X105291668Y-108114206D01*
X105362698Y-108094330D01*
X117286376Y-108094330D01*
X117343860Y-108259400D01*
X117441514Y-108262542D01*
X117633342Y-108361878D01*
X117691721Y-108551656D01*
X117728926Y-108946625D01*
X117788302Y-109108550D01*
X117909144Y-109140375D01*
X117916448Y-109140398D01*
X118084937Y-109003540D01*
X118320273Y-108657617D01*
X118429651Y-108457460D01*
X118778060Y-107774522D01*
X118067666Y-107826665D01*
X117613066Y-107905370D01*
X117325228Y-108040139D01*
X117286376Y-108094330D01*
X105362698Y-108094330D01*
X105549462Y-108042069D01*
X105635609Y-107882645D01*
X105640397Y-107794702D01*
X105711819Y-107506554D01*
X105864787Y-107496626D01*
X106007356Y-107754898D01*
X106026320Y-107836755D01*
X106082978Y-108080392D01*
X106112154Y-108002458D01*
X106121963Y-107878808D01*
X106141800Y-107766939D01*
X106212530Y-107683898D01*
X106376832Y-107626218D01*
X106677384Y-107590430D01*
X107156864Y-107573065D01*
X107857950Y-107570655D01*
X108823320Y-107579730D01*
X109664780Y-107590861D01*
X113184851Y-107639337D01*
X113258591Y-107254437D01*
X113332330Y-106869537D01*
X113355238Y-107248014D01*
X113466156Y-107545764D01*
X113786976Y-107626490D01*
X114139100Y-107519239D01*
X114268704Y-107248014D01*
X114341602Y-106869537D01*
X114364509Y-107248014D01*
X114451526Y-107523278D01*
X114731594Y-107621062D01*
X114892052Y-107626490D01*
X115260457Y-107574978D01*
X115400159Y-107372895D01*
X115413456Y-107248014D01*
X115433592Y-106997937D01*
X115484674Y-107050766D01*
X115564900Y-107290067D01*
X115667309Y-107529343D01*
X115714970Y-107436679D01*
X115716345Y-107416226D01*
X115804517Y-107166118D01*
X115888990Y-107121855D01*
X116057292Y-107260416D01*
X116121795Y-107416226D01*
X116185725Y-107623538D01*
X116212080Y-107504086D01*
X116218235Y-107416226D01*
X116376273Y-107168713D01*
X116574172Y-107121855D01*
X116850780Y-107013470D01*
X116910596Y-106862503D01*
X117018517Y-106555694D01*
X117242501Y-106246894D01*
X117574406Y-105890635D01*
X117727764Y-106295980D01*
X117788146Y-106733024D01*
X117711686Y-106911590D01*
X117652548Y-107084510D01*
X117820444Y-107121855D01*
X118116095Y-106989152D01*
X118195461Y-106869537D01*
X118397214Y-106646159D01*
X118508609Y-106617219D01*
X118752057Y-106752561D01*
X118821757Y-106869537D01*
X119005884Y-107103486D01*
X119192854Y-107044252D01*
X119282330Y-106743378D01*
X119303500Y-106483283D01*
X119355692Y-106548092D01*
X119408489Y-106707108D01*
X119548455Y-106926637D01*
X119847551Y-107038247D01*
X120316887Y-107077383D01*
X120829577Y-107066967D01*
X121072948Y-106977751D01*
X121115894Y-106861335D01*
X121187022Y-106634773D01*
X121242052Y-106604719D01*
X121911850Y-106474995D01*
X122296161Y-106253196D01*
X122339758Y-106191942D01*
X122545389Y-105965703D01*
X122736897Y-106064322D01*
X122924719Y-106491060D01*
X123100092Y-107037749D01*
X123117264Y-106491060D01*
X123178736Y-106098180D01*
X123363008Y-105952258D01*
X123458526Y-105944371D01*
X123762970Y-105812386D01*
X123859543Y-105650000D01*
X123923473Y-105442688D01*
X123949828Y-105562140D01*
X123955983Y-105650000D01*
X124006512Y-105795092D01*
X124177892Y-105883521D01*
X124535185Y-105928615D01*
X125143451Y-105943703D01*
X125392964Y-105944371D01*
X126099347Y-105934777D01*
X126537125Y-105897129D01*
X126773789Y-105818133D01*
X126876834Y-105684495D01*
X126887358Y-105650000D01*
X126951288Y-105442688D01*
X126977643Y-105562140D01*
%LPC*%
D13*
X85871100Y-51811100D03*
D14*
X85871100Y-54351100D03*
X83331100Y-51811100D03*
X83331100Y-54351100D03*
X80791100Y-51811100D03*
X80791100Y-54351100D03*
D15*
X49041100Y-45501100D03*
X49041100Y-50501100D03*
D16*
X56781100Y-48001100D03*
X68291100Y-48001100D03*
X79541100Y-48001100D03*
D13*
X85871100Y-67811100D03*
D14*
X85871100Y-70351100D03*
X83331100Y-67811100D03*
X83331100Y-70351100D03*
X80791100Y-67811100D03*
X80791100Y-70351100D03*
D15*
X49041100Y-61501100D03*
X49041100Y-66501100D03*
D16*
X56781100Y-64001100D03*
X68291100Y-64001100D03*
X79541100Y-64001100D03*
D13*
X85871100Y-83811100D03*
D14*
X85871100Y-86351100D03*
X83331100Y-83811100D03*
X83331100Y-86351100D03*
X80791100Y-83811100D03*
X80791100Y-86351100D03*
D15*
X49041100Y-77501100D03*
X49041100Y-82501100D03*
D16*
X56781100Y-80001100D03*
X68291100Y-80001100D03*
X79541100Y-80001100D03*
D13*
X85871100Y-99811100D03*
D14*
X85871100Y-102351100D03*
X83331100Y-99811100D03*
X83331100Y-102351100D03*
X80791100Y-99811100D03*
X80791100Y-102351100D03*
D15*
X49041100Y-93501100D03*
X49041100Y-98501100D03*
D16*
X56781100Y-96001100D03*
X68291100Y-96001100D03*
X79541100Y-96001100D03*
D13*
X85871100Y-115811100D03*
D14*
X85871100Y-118351100D03*
X83331100Y-115811100D03*
X83331100Y-118351100D03*
X80791100Y-115811100D03*
X80791100Y-118351100D03*
D15*
X49041100Y-109501100D03*
X49041100Y-114501100D03*
D16*
X56781100Y-112001100D03*
X68291100Y-112001100D03*
X79541100Y-112001100D03*
M02*
