G04 #@! TF.FileFunction,Soldermask,Top*
%FSLAX46Y46*%
G04 Gerber Fmt 4.6, Leading zero omitted, Abs format (unit mm)*
G04 Created by KiCad (PCBNEW (2015-09-30 BZR 6232)-product) date Fri 09 Oct 2015 11:18:26 AM EEST*
%MOMM*%
G01*
G04 APERTURE LIST*
%ADD10C,0.100000*%
%ADD11R,1.500000X1.400000*%
%ADD12C,4.000000*%
%ADD13R,1.600000X1.600000*%
%ADD14R,2.200000X2.100000*%
%ADD15R,1.009600X2.609800*%
%ADD16R,1.000000X1.200000*%
%ADD17R,2.279600X2.279600*%
%ADD18C,2.279600*%
%ADD19C,2.940000*%
%ADD20R,1.797000X2.508200*%
%ADD21R,1.416000X1.543000*%
G04 APERTURE END LIST*
D10*
D11*
X48572100Y-42794100D03*
X50272100Y-42794100D03*
X53271100Y-43556100D03*
X54971100Y-43556100D03*
X48191100Y-48001100D03*
X49891100Y-48001100D03*
D12*
X177000000Y-37500000D03*
D13*
X69776100Y-53081100D03*
X67676100Y-53081100D03*
D14*
X56770100Y-53081100D03*
X60870100Y-53081100D03*
D15*
X70631100Y-50604600D03*
X70631100Y-45397600D03*
X71901100Y-50604600D03*
X73171100Y-50604600D03*
X71901100Y-45397600D03*
X73171100Y-45397600D03*
X74441100Y-50604600D03*
X74441100Y-45397600D03*
X75711100Y-50604600D03*
X76981100Y-50604600D03*
X75711100Y-45397600D03*
X76981100Y-45397600D03*
X78251100Y-50604600D03*
X78251100Y-45397600D03*
D16*
X81261100Y-44191100D03*
X82861100Y-44191100D03*
D17*
X85871100Y-51811100D03*
D18*
X85871100Y-54351100D03*
X83331100Y-51811100D03*
X83331100Y-54351100D03*
X80791100Y-51811100D03*
X80791100Y-54351100D03*
D19*
X49041100Y-45501100D03*
X49041100Y-50501100D03*
D20*
X41700500Y-52547700D03*
X41700500Y-43454500D03*
X46221700Y-43432700D03*
X46221700Y-52547700D03*
D21*
X54121100Y-52827100D03*
X53171100Y-50795100D03*
X55071100Y-50795100D03*
D11*
X53271100Y-48636100D03*
X54971100Y-48636100D03*
X69576100Y-50541100D03*
X67876100Y-50541100D03*
X67671100Y-46731100D03*
X65971100Y-46731100D03*
X82911100Y-47366100D03*
X81211100Y-47366100D03*
X81211100Y-42286100D03*
X82911100Y-42286100D03*
X72751100Y-42286100D03*
X71051100Y-42286100D03*
X65385100Y-53081100D03*
X63685100Y-53081100D03*
D13*
X69776100Y-69081100D03*
X67676100Y-69081100D03*
D14*
X56770100Y-69081100D03*
X60870100Y-69081100D03*
D15*
X70631100Y-66604600D03*
X70631100Y-61397600D03*
X71901100Y-66604600D03*
X73171100Y-66604600D03*
X71901100Y-61397600D03*
X73171100Y-61397600D03*
X74441100Y-66604600D03*
X74441100Y-61397600D03*
X75711100Y-66604600D03*
X76981100Y-66604600D03*
X75711100Y-61397600D03*
X76981100Y-61397600D03*
X78251100Y-66604600D03*
X78251100Y-61397600D03*
D16*
X81261100Y-60191100D03*
X82861100Y-60191100D03*
D17*
X85871100Y-67811100D03*
D18*
X85871100Y-70351100D03*
X83331100Y-67811100D03*
X83331100Y-70351100D03*
X80791100Y-67811100D03*
X80791100Y-70351100D03*
D19*
X49041100Y-61501100D03*
X49041100Y-66501100D03*
D20*
X41700500Y-68547700D03*
X41700500Y-59454500D03*
X46221700Y-59432700D03*
X46221700Y-68547700D03*
D21*
X54121100Y-68827100D03*
X53171100Y-66795100D03*
X55071100Y-66795100D03*
D11*
X53271100Y-64636100D03*
X54971100Y-64636100D03*
X48191100Y-64001100D03*
X49891100Y-64001100D03*
X69576100Y-66541100D03*
X67876100Y-66541100D03*
X48572100Y-58794100D03*
X50272100Y-58794100D03*
X67671100Y-62731100D03*
X65971100Y-62731100D03*
X82911100Y-63366100D03*
X81211100Y-63366100D03*
X81211100Y-58286100D03*
X82911100Y-58286100D03*
X72751100Y-58286100D03*
X71051100Y-58286100D03*
X65385100Y-69081100D03*
X63685100Y-69081100D03*
X53271100Y-59556100D03*
X54971100Y-59556100D03*
D13*
X69776100Y-85081100D03*
X67676100Y-85081100D03*
D14*
X56770100Y-85081100D03*
X60870100Y-85081100D03*
D15*
X70631100Y-82604600D03*
X70631100Y-77397600D03*
X71901100Y-82604600D03*
X73171100Y-82604600D03*
X71901100Y-77397600D03*
X73171100Y-77397600D03*
X74441100Y-82604600D03*
X74441100Y-77397600D03*
X75711100Y-82604600D03*
X76981100Y-82604600D03*
X75711100Y-77397600D03*
X76981100Y-77397600D03*
X78251100Y-82604600D03*
X78251100Y-77397600D03*
D16*
X81261100Y-76191100D03*
X82861100Y-76191100D03*
D17*
X85871100Y-83811100D03*
D18*
X85871100Y-86351100D03*
X83331100Y-83811100D03*
X83331100Y-86351100D03*
X80791100Y-83811100D03*
X80791100Y-86351100D03*
D19*
X49041100Y-77501100D03*
X49041100Y-82501100D03*
D20*
X41700500Y-84547700D03*
X41700500Y-75454500D03*
X46221700Y-75432700D03*
X46221700Y-84547700D03*
D21*
X54121100Y-84827100D03*
X53171100Y-82795100D03*
X55071100Y-82795100D03*
D11*
X53271100Y-80636100D03*
X54971100Y-80636100D03*
X48191100Y-80001100D03*
X49891100Y-80001100D03*
X69576100Y-82541100D03*
X67876100Y-82541100D03*
X48572100Y-74794100D03*
X50272100Y-74794100D03*
X67671100Y-78731100D03*
X65971100Y-78731100D03*
X82911100Y-79366100D03*
X81211100Y-79366100D03*
X81211100Y-74286100D03*
X82911100Y-74286100D03*
X72751100Y-74286100D03*
X71051100Y-74286100D03*
X65385100Y-85081100D03*
X63685100Y-85081100D03*
X53271100Y-75556100D03*
X54971100Y-75556100D03*
D13*
X69776100Y-101081100D03*
X67676100Y-101081100D03*
D14*
X56770100Y-101081100D03*
X60870100Y-101081100D03*
D15*
X70631100Y-98604600D03*
X70631100Y-93397600D03*
X71901100Y-98604600D03*
X73171100Y-98604600D03*
X71901100Y-93397600D03*
X73171100Y-93397600D03*
X74441100Y-98604600D03*
X74441100Y-93397600D03*
X75711100Y-98604600D03*
X76981100Y-98604600D03*
X75711100Y-93397600D03*
X76981100Y-93397600D03*
X78251100Y-98604600D03*
X78251100Y-93397600D03*
D16*
X81261100Y-92191100D03*
X82861100Y-92191100D03*
D17*
X85871100Y-99811100D03*
D18*
X85871100Y-102351100D03*
X83331100Y-99811100D03*
X83331100Y-102351100D03*
X80791100Y-99811100D03*
X80791100Y-102351100D03*
D19*
X49041100Y-93501100D03*
X49041100Y-98501100D03*
D20*
X41700500Y-100547700D03*
X41700500Y-91454500D03*
X46221700Y-91432700D03*
X46221700Y-100547700D03*
D21*
X54121100Y-100827100D03*
X53171100Y-98795100D03*
X55071100Y-98795100D03*
D11*
X53271100Y-96636100D03*
X54971100Y-96636100D03*
X48191100Y-96001100D03*
X49891100Y-96001100D03*
X69576100Y-98541100D03*
X67876100Y-98541100D03*
X48572100Y-90794100D03*
X50272100Y-90794100D03*
X67671100Y-94731100D03*
X65971100Y-94731100D03*
X82911100Y-95366100D03*
X81211100Y-95366100D03*
X81211100Y-90286100D03*
X82911100Y-90286100D03*
X72751100Y-90286100D03*
X71051100Y-90286100D03*
X65385100Y-101081100D03*
X63685100Y-101081100D03*
X53271100Y-91556100D03*
X54971100Y-91556100D03*
D13*
X69776100Y-117081100D03*
X67676100Y-117081100D03*
D14*
X56770100Y-117081100D03*
X60870100Y-117081100D03*
D15*
X70631100Y-114604600D03*
X70631100Y-109397600D03*
X71901100Y-114604600D03*
X73171100Y-114604600D03*
X71901100Y-109397600D03*
X73171100Y-109397600D03*
X74441100Y-114604600D03*
X74441100Y-109397600D03*
X75711100Y-114604600D03*
X76981100Y-114604600D03*
X75711100Y-109397600D03*
X76981100Y-109397600D03*
X78251100Y-114604600D03*
X78251100Y-109397600D03*
D16*
X81261100Y-108191100D03*
X82861100Y-108191100D03*
D17*
X85871100Y-115811100D03*
D18*
X85871100Y-118351100D03*
X83331100Y-115811100D03*
X83331100Y-118351100D03*
X80791100Y-115811100D03*
X80791100Y-118351100D03*
D19*
X49041100Y-109501100D03*
X49041100Y-114501100D03*
D20*
X41700500Y-116547700D03*
X41700500Y-107454500D03*
X46221700Y-107432700D03*
X46221700Y-116547700D03*
D21*
X54121100Y-116827100D03*
X53171100Y-114795100D03*
X55071100Y-114795100D03*
D11*
X53271100Y-112636100D03*
X54971100Y-112636100D03*
X48191100Y-112001100D03*
X49891100Y-112001100D03*
X69576100Y-114541100D03*
X67876100Y-114541100D03*
X48572100Y-106794100D03*
X50272100Y-106794100D03*
X67671100Y-110731100D03*
X65971100Y-110731100D03*
X82911100Y-111366100D03*
X81211100Y-111366100D03*
X81211100Y-106286100D03*
X82911100Y-106286100D03*
X72751100Y-106286100D03*
X71051100Y-106286100D03*
X65385100Y-117081100D03*
X63685100Y-117081100D03*
X53271100Y-107556100D03*
X54971100Y-107556100D03*
D12*
X44000000Y-122500000D03*
M02*
