G04 #@! TF.FileFunction,Soldermask,Bot*
%FSLAX46Y46*%
G04 Gerber Fmt 4.6, Leading zero omitted, Abs format (unit mm)*
G04 Created by KiCad (PCBNEW (2015-09-30 BZR 6232)-product) date Fri 09 Oct 2015 11:18:26 AM EEST*
%MOMM*%
G01*
G04 APERTURE LIST*
%ADD10C,0.100000*%
%ADD11R,2.279600X2.279600*%
%ADD12C,2.279600*%
%ADD13C,2.940000*%
%ADD14R,3.190000X5.480000*%
G04 APERTURE END LIST*
D10*
D11*
X85871100Y-51811100D03*
D12*
X85871100Y-54351100D03*
X83331100Y-51811100D03*
X83331100Y-54351100D03*
X80791100Y-51811100D03*
X80791100Y-54351100D03*
D13*
X49041100Y-45501100D03*
X49041100Y-50501100D03*
D14*
X56781100Y-48001100D03*
X68291100Y-48001100D03*
X79541100Y-48001100D03*
D11*
X85871100Y-67811100D03*
D12*
X85871100Y-70351100D03*
X83331100Y-67811100D03*
X83331100Y-70351100D03*
X80791100Y-67811100D03*
X80791100Y-70351100D03*
D13*
X49041100Y-61501100D03*
X49041100Y-66501100D03*
D14*
X56781100Y-64001100D03*
X68291100Y-64001100D03*
X79541100Y-64001100D03*
D11*
X85871100Y-83811100D03*
D12*
X85871100Y-86351100D03*
X83331100Y-83811100D03*
X83331100Y-86351100D03*
X80791100Y-83811100D03*
X80791100Y-86351100D03*
D13*
X49041100Y-77501100D03*
X49041100Y-82501100D03*
D14*
X56781100Y-80001100D03*
X68291100Y-80001100D03*
X79541100Y-80001100D03*
D11*
X85871100Y-99811100D03*
D12*
X85871100Y-102351100D03*
X83331100Y-99811100D03*
X83331100Y-102351100D03*
X80791100Y-99811100D03*
X80791100Y-102351100D03*
D13*
X49041100Y-93501100D03*
X49041100Y-98501100D03*
D14*
X56781100Y-96001100D03*
X68291100Y-96001100D03*
X79541100Y-96001100D03*
D11*
X85871100Y-115811100D03*
D12*
X85871100Y-118351100D03*
X83331100Y-115811100D03*
X83331100Y-118351100D03*
X80791100Y-115811100D03*
X80791100Y-118351100D03*
D13*
X49041100Y-109501100D03*
X49041100Y-114501100D03*
D14*
X56781100Y-112001100D03*
X68291100Y-112001100D03*
X79541100Y-112001100D03*
M02*
