G04 #@! TF.FileFunction,Legend,Top*
%FSLAX46Y46*%
G04 Gerber Fmt 4.6, Leading zero omitted, Abs format (unit mm)*
G04 Created by KiCad (PCBNEW (2015-09-30 BZR 6232)-product) date Fri 09 Oct 2015 11:18:26 AM EEST*
%MOMM*%
G01*
G04 APERTURE LIST*
%ADD10C,0.100000*%
%ADD11C,0.609600*%
%ADD12C,0.304800*%
%ADD13C,0.213360*%
%ADD14C,0.170688*%
%ADD15C,0.558800*%
%ADD16C,0.152400*%
%ADD17C,0.127000*%
%ADD18R,1.500000X1.400000*%
%ADD19C,4.000000*%
%ADD20R,1.600000X1.600000*%
%ADD21R,2.200000X2.100000*%
%ADD22R,1.009600X2.609800*%
%ADD23R,1.000000X1.200000*%
%ADD24R,2.279600X2.279600*%
%ADD25C,2.279600*%
%ADD26C,2.940000*%
%ADD27R,1.797000X2.508200*%
%ADD28R,1.416000X1.543000*%
G04 APERTURE END LIST*
D10*
D11*
X110001100Y-41016100D02*
X110001100Y-54986100D01*
D12*
X120796100Y-48001100D02*
X113176100Y-48001100D01*
X113176100Y-48001100D02*
X114446100Y-46731100D01*
X113176100Y-48001100D02*
X114446100Y-49271100D01*
X157626100Y-48001100D02*
X164611100Y-48001100D01*
X164611100Y-48001100D02*
X163341100Y-46731100D01*
X164611100Y-48001100D02*
X163341100Y-49271100D01*
D13*
X124373267Y-47429600D02*
X124373267Y-49118700D01*
X124373267Y-47510033D02*
X124534133Y-47429600D01*
X124855867Y-47429600D01*
X125016733Y-47510033D01*
X125097167Y-47590467D01*
X125177600Y-47751333D01*
X125177600Y-48233933D01*
X125097167Y-48394800D01*
X125016733Y-48475233D01*
X124855867Y-48555667D01*
X124534133Y-48555667D01*
X124373267Y-48475233D01*
X126625400Y-47429600D02*
X126625400Y-48555667D01*
X125901500Y-47429600D02*
X125901500Y-48314367D01*
X125981933Y-48475233D01*
X126142800Y-48555667D01*
X126384100Y-48555667D01*
X126544966Y-48475233D01*
X126625400Y-48394800D01*
X127188433Y-47429600D02*
X127831899Y-47429600D01*
X127429733Y-46866567D02*
X127429733Y-48314367D01*
X127510166Y-48475233D01*
X127671033Y-48555667D01*
X127831899Y-48555667D01*
X129440566Y-47429600D02*
X130084032Y-47429600D01*
X129681866Y-46866567D02*
X129681866Y-48314367D01*
X129762299Y-48475233D01*
X129923166Y-48555667D01*
X130084032Y-48555667D01*
X130647066Y-48555667D02*
X130647066Y-46866567D01*
X131370966Y-48555667D02*
X131370966Y-47670900D01*
X131290532Y-47510033D01*
X131129666Y-47429600D01*
X130888366Y-47429600D01*
X130727499Y-47510033D01*
X130647066Y-47590467D01*
X132175299Y-48555667D02*
X132175299Y-47429600D01*
X132175299Y-46866567D02*
X132094865Y-46947000D01*
X132175299Y-47027433D01*
X132255732Y-46947000D01*
X132175299Y-46866567D01*
X132175299Y-47027433D01*
X132899198Y-48475233D02*
X133060065Y-48555667D01*
X133381798Y-48555667D01*
X133542665Y-48475233D01*
X133623098Y-48314367D01*
X133623098Y-48233933D01*
X133542665Y-48073067D01*
X133381798Y-47992633D01*
X133140498Y-47992633D01*
X132979632Y-47912200D01*
X132899198Y-47751333D01*
X132899198Y-47670900D01*
X132979632Y-47510033D01*
X133140498Y-47429600D01*
X133381798Y-47429600D01*
X133542665Y-47510033D01*
X135633932Y-47429600D02*
X135633932Y-49118700D01*
X135633932Y-47510033D02*
X135794798Y-47429600D01*
X136116532Y-47429600D01*
X136277398Y-47510033D01*
X136357832Y-47590467D01*
X136438265Y-47751333D01*
X136438265Y-48233933D01*
X136357832Y-48394800D01*
X136277398Y-48475233D01*
X136116532Y-48555667D01*
X135794798Y-48555667D01*
X135633932Y-48475233D01*
X137886065Y-48555667D02*
X137886065Y-47670900D01*
X137805631Y-47510033D01*
X137644765Y-47429600D01*
X137323031Y-47429600D01*
X137162165Y-47510033D01*
X137886065Y-48475233D02*
X137725198Y-48555667D01*
X137323031Y-48555667D01*
X137162165Y-48475233D01*
X137081731Y-48314367D01*
X137081731Y-48153500D01*
X137162165Y-47992633D01*
X137323031Y-47912200D01*
X137725198Y-47912200D01*
X137886065Y-47831767D01*
X138690398Y-48555667D02*
X138690398Y-47429600D01*
X138690398Y-47751333D02*
X138770831Y-47590467D01*
X138851264Y-47510033D01*
X139012131Y-47429600D01*
X139172998Y-47429600D01*
X139494731Y-47429600D02*
X140138197Y-47429600D01*
X139736031Y-46866567D02*
X139736031Y-48314367D01*
X139816464Y-48475233D01*
X139977331Y-48555667D01*
X140138197Y-48555667D01*
X141746864Y-47429600D02*
X142390330Y-47429600D01*
X141988164Y-46866567D02*
X141988164Y-48314367D01*
X142068597Y-48475233D01*
X142229464Y-48555667D01*
X142390330Y-48555667D01*
X143194664Y-48555667D02*
X143033797Y-48475233D01*
X142953364Y-48394800D01*
X142872930Y-48233933D01*
X142872930Y-47751333D01*
X142953364Y-47590467D01*
X143033797Y-47510033D01*
X143194664Y-47429600D01*
X143435964Y-47429600D01*
X143596830Y-47510033D01*
X143677264Y-47590467D01*
X143757697Y-47751333D01*
X143757697Y-48233933D01*
X143677264Y-48394800D01*
X143596830Y-48475233D01*
X143435964Y-48555667D01*
X143194664Y-48555667D01*
X145688096Y-48475233D02*
X145848963Y-48555667D01*
X146170696Y-48555667D01*
X146331563Y-48475233D01*
X146411996Y-48314367D01*
X146411996Y-48233933D01*
X146331563Y-48073067D01*
X146170696Y-47992633D01*
X145929396Y-47992633D01*
X145768530Y-47912200D01*
X145688096Y-47751333D01*
X145688096Y-47670900D01*
X145768530Y-47510033D01*
X145929396Y-47429600D01*
X146170696Y-47429600D01*
X146331563Y-47510033D01*
X147377197Y-48555667D02*
X147216330Y-48475233D01*
X147135897Y-48394800D01*
X147055463Y-48233933D01*
X147055463Y-47751333D01*
X147135897Y-47590467D01*
X147216330Y-47510033D01*
X147377197Y-47429600D01*
X147618497Y-47429600D01*
X147779363Y-47510033D01*
X147859797Y-47590467D01*
X147940230Y-47751333D01*
X147940230Y-48233933D01*
X147859797Y-48394800D01*
X147779363Y-48475233D01*
X147618497Y-48555667D01*
X147377197Y-48555667D01*
X148664130Y-48555667D02*
X148664130Y-47429600D01*
X148664130Y-46866567D02*
X148583696Y-46947000D01*
X148664130Y-47027433D01*
X148744563Y-46947000D01*
X148664130Y-46866567D01*
X148664130Y-47027433D01*
X149709763Y-48555667D02*
X149548896Y-48475233D01*
X149468463Y-48314367D01*
X149468463Y-46866567D01*
X120563267Y-43475667D02*
X120563267Y-41786567D01*
X121206733Y-41786567D01*
X121367600Y-41867000D01*
X121448033Y-41947433D01*
X121528467Y-42108300D01*
X121528467Y-42349600D01*
X121448033Y-42510467D01*
X121367600Y-42590900D01*
X121206733Y-42671333D01*
X120563267Y-42671333D01*
X122493667Y-43475667D02*
X122332800Y-43395233D01*
X122252367Y-43234367D01*
X122252367Y-41786567D01*
X123861034Y-43475667D02*
X123861034Y-42590900D01*
X123780600Y-42430033D01*
X123619734Y-42349600D01*
X123298000Y-42349600D01*
X123137134Y-42430033D01*
X123861034Y-43395233D02*
X123700167Y-43475667D01*
X123298000Y-43475667D01*
X123137134Y-43395233D01*
X123056700Y-43234367D01*
X123056700Y-43073500D01*
X123137134Y-42912633D01*
X123298000Y-42832200D01*
X123700167Y-42832200D01*
X123861034Y-42751767D01*
X124665367Y-42349600D02*
X124665367Y-43475667D01*
X124665367Y-42510467D02*
X124745800Y-42430033D01*
X124906667Y-42349600D01*
X125147967Y-42349600D01*
X125308833Y-42430033D01*
X125389267Y-42590900D01*
X125389267Y-43475667D01*
X125952300Y-42349600D02*
X126595766Y-42349600D01*
X126193600Y-41786567D02*
X126193600Y-43234367D01*
X126274033Y-43395233D01*
X126434900Y-43475667D01*
X126595766Y-43475667D01*
X128284866Y-42349600D02*
X128606599Y-43475667D01*
X128928333Y-42671333D01*
X129250066Y-43475667D01*
X129571799Y-42349600D01*
X130939166Y-43475667D02*
X130939166Y-42590900D01*
X130858732Y-42430033D01*
X130697866Y-42349600D01*
X130376132Y-42349600D01*
X130215266Y-42430033D01*
X130939166Y-43395233D02*
X130778299Y-43475667D01*
X130376132Y-43475667D01*
X130215266Y-43395233D01*
X130134832Y-43234367D01*
X130134832Y-43073500D01*
X130215266Y-42912633D01*
X130376132Y-42832200D01*
X130778299Y-42832200D01*
X130939166Y-42751767D01*
X131502199Y-42349600D02*
X132145665Y-42349600D01*
X131743499Y-41786567D02*
X131743499Y-43234367D01*
X131823932Y-43395233D01*
X131984799Y-43475667D01*
X132145665Y-43475667D01*
X133352165Y-43395233D02*
X133191299Y-43475667D01*
X132869565Y-43475667D01*
X132708699Y-43395233D01*
X132628265Y-43234367D01*
X132628265Y-42590900D01*
X132708699Y-42430033D01*
X132869565Y-42349600D01*
X133191299Y-42349600D01*
X133352165Y-42430033D01*
X133432599Y-42590900D01*
X133432599Y-42751767D01*
X132628265Y-42912633D01*
X134156499Y-43475667D02*
X134156499Y-42349600D01*
X134156499Y-42671333D02*
X134236932Y-42510467D01*
X134317365Y-42430033D01*
X134478232Y-42349600D01*
X134639099Y-42349600D01*
X135202132Y-43475667D02*
X135202132Y-42349600D01*
X135202132Y-41786567D02*
X135121698Y-41867000D01*
X135202132Y-41947433D01*
X135282565Y-41867000D01*
X135202132Y-41786567D01*
X135202132Y-41947433D01*
X136006465Y-42349600D02*
X136006465Y-43475667D01*
X136006465Y-42510467D02*
X136086898Y-42430033D01*
X136247765Y-42349600D01*
X136489065Y-42349600D01*
X136649931Y-42430033D01*
X136730365Y-42590900D01*
X136730365Y-43475667D01*
X138258598Y-42349600D02*
X138258598Y-43716967D01*
X138178164Y-43877833D01*
X138097731Y-43958267D01*
X137936864Y-44038700D01*
X137695564Y-44038700D01*
X137534698Y-43958267D01*
X138258598Y-43395233D02*
X138097731Y-43475667D01*
X137775998Y-43475667D01*
X137615131Y-43395233D01*
X137534698Y-43314800D01*
X137454264Y-43153933D01*
X137454264Y-42671333D01*
X137534698Y-42510467D01*
X137615131Y-42430033D01*
X137775998Y-42349600D01*
X138097731Y-42349600D01*
X138258598Y-42430033D01*
X141073764Y-43475667D02*
X141073764Y-42590900D01*
X140993330Y-42430033D01*
X140832464Y-42349600D01*
X140510730Y-42349600D01*
X140349864Y-42430033D01*
X141073764Y-43395233D02*
X140912897Y-43475667D01*
X140510730Y-43475667D01*
X140349864Y-43395233D01*
X140269430Y-43234367D01*
X140269430Y-43073500D01*
X140349864Y-42912633D01*
X140510730Y-42832200D01*
X140912897Y-42832200D01*
X141073764Y-42751767D01*
X142119397Y-43475667D02*
X141958530Y-43395233D01*
X141878097Y-43234367D01*
X141878097Y-41786567D01*
X143486764Y-43475667D02*
X143486764Y-42590900D01*
X143406330Y-42430033D01*
X143245464Y-42349600D01*
X142923730Y-42349600D01*
X142762864Y-42430033D01*
X143486764Y-43395233D02*
X143325897Y-43475667D01*
X142923730Y-43475667D01*
X142762864Y-43395233D01*
X142682430Y-43234367D01*
X142682430Y-43073500D01*
X142762864Y-42912633D01*
X142923730Y-42832200D01*
X143325897Y-42832200D01*
X143486764Y-42751767D01*
X144291097Y-43475667D02*
X144291097Y-42349600D01*
X144291097Y-42671333D02*
X144371530Y-42510467D01*
X144451963Y-42430033D01*
X144612830Y-42349600D01*
X144773697Y-42349600D01*
X145336730Y-43475667D02*
X145336730Y-42349600D01*
X145336730Y-42510467D02*
X145417163Y-42430033D01*
X145578030Y-42349600D01*
X145819330Y-42349600D01*
X145980196Y-42430033D01*
X146060630Y-42590900D01*
X146060630Y-43475667D01*
X146060630Y-42590900D02*
X146141063Y-42430033D01*
X146301930Y-42349600D01*
X146543230Y-42349600D01*
X146704096Y-42430033D01*
X146784530Y-42590900D01*
X146784530Y-43475667D01*
X148714929Y-42349600D02*
X149117096Y-43475667D01*
X149519262Y-42349600D01*
X150162729Y-43314800D02*
X150243162Y-43395233D01*
X150162729Y-43475667D01*
X150082295Y-43395233D01*
X150162729Y-43314800D01*
X150162729Y-43475667D01*
X150886628Y-41947433D02*
X150967062Y-41867000D01*
X151127928Y-41786567D01*
X151530095Y-41786567D01*
X151690962Y-41867000D01*
X151771395Y-41947433D01*
X151851828Y-42108300D01*
X151851828Y-42269167D01*
X151771395Y-42510467D01*
X150806195Y-43475667D01*
X151851828Y-43475667D01*
X152575729Y-43314800D02*
X152656162Y-43395233D01*
X152575729Y-43475667D01*
X152495295Y-43395233D01*
X152575729Y-43314800D01*
X152575729Y-43475667D01*
X154103962Y-42349600D02*
X154103962Y-43475667D01*
X153701795Y-41706133D02*
X153299628Y-42912633D01*
X154345262Y-42912633D01*
D14*
X120482833Y-54286753D02*
X120482833Y-52935473D01*
X121061953Y-54286753D02*
X121061953Y-53578940D01*
X120997607Y-53450247D01*
X120868913Y-53385900D01*
X120675873Y-53385900D01*
X120547180Y-53450247D01*
X120482833Y-53514593D01*
X121512380Y-53385900D02*
X122027154Y-53385900D01*
X121705420Y-52935473D02*
X121705420Y-54093713D01*
X121769767Y-54222407D01*
X121898460Y-54286753D01*
X122027154Y-54286753D01*
X122284540Y-53385900D02*
X122799314Y-53385900D01*
X122477580Y-52935473D02*
X122477580Y-54093713D01*
X122541927Y-54222407D01*
X122670620Y-54286753D01*
X122799314Y-54286753D01*
X123249740Y-53385900D02*
X123249740Y-54737180D01*
X123249740Y-53450247D02*
X123378434Y-53385900D01*
X123635820Y-53385900D01*
X123764514Y-53450247D01*
X123828860Y-53514593D01*
X123893207Y-53643287D01*
X123893207Y-54029367D01*
X123828860Y-54158060D01*
X123764514Y-54222407D01*
X123635820Y-54286753D01*
X123378434Y-54286753D01*
X123249740Y-54222407D01*
X124472327Y-54158060D02*
X124536674Y-54222407D01*
X124472327Y-54286753D01*
X124407981Y-54222407D01*
X124472327Y-54158060D01*
X124472327Y-54286753D01*
X124472327Y-53450247D02*
X124536674Y-53514593D01*
X124472327Y-53578940D01*
X124407981Y-53514593D01*
X124472327Y-53450247D01*
X124472327Y-53578940D01*
X126080994Y-52871127D02*
X124922754Y-54608487D01*
X127496621Y-52871127D02*
X126338381Y-54608487D01*
X127818355Y-53385900D02*
X128075742Y-54286753D01*
X128333128Y-53643287D01*
X128590515Y-54286753D01*
X128847902Y-53385900D01*
X129877449Y-54222407D02*
X129748755Y-54286753D01*
X129491369Y-54286753D01*
X129362675Y-54222407D01*
X129298329Y-54093713D01*
X129298329Y-53578940D01*
X129362675Y-53450247D01*
X129491369Y-53385900D01*
X129748755Y-53385900D01*
X129877449Y-53450247D01*
X129941795Y-53578940D01*
X129941795Y-53707633D01*
X129298329Y-53836327D01*
X130520915Y-54286753D02*
X130520915Y-53385900D01*
X130520915Y-53514593D02*
X130585262Y-53450247D01*
X130713955Y-53385900D01*
X130906995Y-53385900D01*
X131035689Y-53450247D01*
X131100035Y-53578940D01*
X131100035Y-54286753D01*
X131100035Y-53578940D02*
X131164382Y-53450247D01*
X131293075Y-53385900D01*
X131486115Y-53385900D01*
X131614809Y-53450247D01*
X131679155Y-53578940D01*
X131679155Y-54286753D01*
X132901742Y-54286753D02*
X132901742Y-53578940D01*
X132837396Y-53450247D01*
X132708702Y-53385900D01*
X132451316Y-53385900D01*
X132322622Y-53450247D01*
X132901742Y-54222407D02*
X132773049Y-54286753D01*
X132451316Y-54286753D01*
X132322622Y-54222407D01*
X132258276Y-54093713D01*
X132258276Y-53965020D01*
X132322622Y-53836327D01*
X132451316Y-53771980D01*
X132773049Y-53771980D01*
X132901742Y-53707633D01*
X133545209Y-54286753D02*
X133545209Y-52935473D01*
X133673903Y-53771980D02*
X134059983Y-54286753D01*
X134059983Y-53385900D02*
X133545209Y-53900673D01*
X135153876Y-54222407D02*
X135025182Y-54286753D01*
X134767796Y-54286753D01*
X134639102Y-54222407D01*
X134574756Y-54093713D01*
X134574756Y-53578940D01*
X134639102Y-53450247D01*
X134767796Y-53385900D01*
X135025182Y-53385900D01*
X135153876Y-53450247D01*
X135218222Y-53578940D01*
X135218222Y-53707633D01*
X134574756Y-53836327D01*
X135604302Y-53385900D02*
X136119076Y-53385900D01*
X135797342Y-52935473D02*
X135797342Y-54093713D01*
X135861689Y-54222407D01*
X135990382Y-54286753D01*
X136119076Y-54286753D01*
X136569502Y-54286753D02*
X136569502Y-52935473D01*
X137148622Y-54286753D02*
X137148622Y-53578940D01*
X137084276Y-53450247D01*
X136955582Y-53385900D01*
X136762542Y-53385900D01*
X136633849Y-53450247D01*
X136569502Y-53514593D01*
X137792089Y-54286753D02*
X137792089Y-53385900D01*
X137792089Y-52935473D02*
X137727743Y-52999820D01*
X137792089Y-53064167D01*
X137856436Y-52999820D01*
X137792089Y-52935473D01*
X137792089Y-53064167D01*
X138435556Y-53385900D02*
X138435556Y-54286753D01*
X138435556Y-53514593D02*
X138499903Y-53450247D01*
X138628596Y-53385900D01*
X138821636Y-53385900D01*
X138950330Y-53450247D01*
X139014676Y-53578940D01*
X139014676Y-54286753D01*
X140237263Y-53385900D02*
X140237263Y-54479793D01*
X140172917Y-54608487D01*
X140108570Y-54672833D01*
X139979877Y-54737180D01*
X139786837Y-54737180D01*
X139658143Y-54672833D01*
X140237263Y-54222407D02*
X140108570Y-54286753D01*
X139851183Y-54286753D01*
X139722490Y-54222407D01*
X139658143Y-54158060D01*
X139593797Y-54029367D01*
X139593797Y-53643287D01*
X139658143Y-53514593D01*
X139722490Y-53450247D01*
X139851183Y-53385900D01*
X140108570Y-53385900D01*
X140237263Y-53450247D01*
X140816384Y-54222407D02*
X140945077Y-54286753D01*
X141202464Y-54286753D01*
X141331157Y-54222407D01*
X141395504Y-54093713D01*
X141395504Y-54029367D01*
X141331157Y-53900673D01*
X141202464Y-53836327D01*
X141009424Y-53836327D01*
X140880730Y-53771980D01*
X140816384Y-53643287D01*
X140816384Y-53578940D01*
X140880730Y-53450247D01*
X141009424Y-53385900D01*
X141202464Y-53385900D01*
X141331157Y-53450247D01*
X141974623Y-54158060D02*
X142038970Y-54222407D01*
X141974623Y-54286753D01*
X141910277Y-54222407D01*
X141974623Y-54158060D01*
X141974623Y-54286753D01*
X142618090Y-53385900D02*
X142618090Y-54286753D01*
X142618090Y-53514593D02*
X142682437Y-53450247D01*
X142811130Y-53385900D01*
X143004170Y-53385900D01*
X143132864Y-53450247D01*
X143197210Y-53578940D01*
X143197210Y-54286753D01*
X144355451Y-54222407D02*
X144226757Y-54286753D01*
X143969371Y-54286753D01*
X143840677Y-54222407D01*
X143776331Y-54093713D01*
X143776331Y-53578940D01*
X143840677Y-53450247D01*
X143969371Y-53385900D01*
X144226757Y-53385900D01*
X144355451Y-53450247D01*
X144419797Y-53578940D01*
X144419797Y-53707633D01*
X143776331Y-53836327D01*
X144805877Y-53385900D02*
X145320651Y-53385900D01*
X144998917Y-52935473D02*
X144998917Y-54093713D01*
X145063264Y-54222407D01*
X145191957Y-54286753D01*
X145320651Y-54286753D01*
X146736277Y-52871127D02*
X145578037Y-54608487D01*
X147765824Y-54222407D02*
X147637131Y-54286753D01*
X147379744Y-54286753D01*
X147251051Y-54222407D01*
X147186704Y-54158060D01*
X147122358Y-54029367D01*
X147122358Y-53643287D01*
X147186704Y-53514593D01*
X147251051Y-53450247D01*
X147379744Y-53385900D01*
X147637131Y-53385900D01*
X147765824Y-53450247D01*
X148344944Y-54286753D02*
X148344944Y-52935473D01*
X148924064Y-54286753D02*
X148924064Y-53578940D01*
X148859718Y-53450247D01*
X148731024Y-53385900D01*
X148537984Y-53385900D01*
X148409291Y-53450247D01*
X148344944Y-53514593D01*
X149567531Y-54286753D02*
X149567531Y-53385900D01*
X149567531Y-52935473D02*
X149503185Y-52999820D01*
X149567531Y-53064167D01*
X149631878Y-52999820D01*
X149567531Y-52935473D01*
X149567531Y-53064167D01*
X150210998Y-54286753D02*
X150210998Y-53385900D01*
X150210998Y-53643287D02*
X150275345Y-53514593D01*
X150339692Y-53450247D01*
X150468385Y-53385900D01*
X150597078Y-53385900D01*
X151047505Y-53385900D02*
X151047505Y-54737180D01*
X151047505Y-53450247D02*
X151176199Y-53385900D01*
X151433585Y-53385900D01*
X151562279Y-53450247D01*
X151626625Y-53514593D01*
X151690972Y-53643287D01*
X151690972Y-54029367D01*
X151626625Y-54158060D01*
X151562279Y-54222407D01*
X151433585Y-54286753D01*
X151176199Y-54286753D01*
X151047505Y-54222407D01*
D11*
X110001100Y-57016100D02*
X110001100Y-70986100D01*
D12*
X120796100Y-64001100D02*
X113176100Y-64001100D01*
X113176100Y-64001100D02*
X114446100Y-62731100D01*
X113176100Y-64001100D02*
X114446100Y-65271100D01*
X157626100Y-64001100D02*
X164611100Y-64001100D01*
X164611100Y-64001100D02*
X163341100Y-62731100D01*
X164611100Y-64001100D02*
X163341100Y-65271100D01*
D13*
X124373267Y-63429600D02*
X124373267Y-65118700D01*
X124373267Y-63510033D02*
X124534133Y-63429600D01*
X124855867Y-63429600D01*
X125016733Y-63510033D01*
X125097167Y-63590467D01*
X125177600Y-63751333D01*
X125177600Y-64233933D01*
X125097167Y-64394800D01*
X125016733Y-64475233D01*
X124855867Y-64555667D01*
X124534133Y-64555667D01*
X124373267Y-64475233D01*
X126625400Y-63429600D02*
X126625400Y-64555667D01*
X125901500Y-63429600D02*
X125901500Y-64314367D01*
X125981933Y-64475233D01*
X126142800Y-64555667D01*
X126384100Y-64555667D01*
X126544966Y-64475233D01*
X126625400Y-64394800D01*
X127188433Y-63429600D02*
X127831899Y-63429600D01*
X127429733Y-62866567D02*
X127429733Y-64314367D01*
X127510166Y-64475233D01*
X127671033Y-64555667D01*
X127831899Y-64555667D01*
X129440566Y-63429600D02*
X130084032Y-63429600D01*
X129681866Y-62866567D02*
X129681866Y-64314367D01*
X129762299Y-64475233D01*
X129923166Y-64555667D01*
X130084032Y-64555667D01*
X130647066Y-64555667D02*
X130647066Y-62866567D01*
X131370966Y-64555667D02*
X131370966Y-63670900D01*
X131290532Y-63510033D01*
X131129666Y-63429600D01*
X130888366Y-63429600D01*
X130727499Y-63510033D01*
X130647066Y-63590467D01*
X132175299Y-64555667D02*
X132175299Y-63429600D01*
X132175299Y-62866567D02*
X132094865Y-62947000D01*
X132175299Y-63027433D01*
X132255732Y-62947000D01*
X132175299Y-62866567D01*
X132175299Y-63027433D01*
X132899198Y-64475233D02*
X133060065Y-64555667D01*
X133381798Y-64555667D01*
X133542665Y-64475233D01*
X133623098Y-64314367D01*
X133623098Y-64233933D01*
X133542665Y-64073067D01*
X133381798Y-63992633D01*
X133140498Y-63992633D01*
X132979632Y-63912200D01*
X132899198Y-63751333D01*
X132899198Y-63670900D01*
X132979632Y-63510033D01*
X133140498Y-63429600D01*
X133381798Y-63429600D01*
X133542665Y-63510033D01*
X135633932Y-63429600D02*
X135633932Y-65118700D01*
X135633932Y-63510033D02*
X135794798Y-63429600D01*
X136116532Y-63429600D01*
X136277398Y-63510033D01*
X136357832Y-63590467D01*
X136438265Y-63751333D01*
X136438265Y-64233933D01*
X136357832Y-64394800D01*
X136277398Y-64475233D01*
X136116532Y-64555667D01*
X135794798Y-64555667D01*
X135633932Y-64475233D01*
X137886065Y-64555667D02*
X137886065Y-63670900D01*
X137805631Y-63510033D01*
X137644765Y-63429600D01*
X137323031Y-63429600D01*
X137162165Y-63510033D01*
X137886065Y-64475233D02*
X137725198Y-64555667D01*
X137323031Y-64555667D01*
X137162165Y-64475233D01*
X137081731Y-64314367D01*
X137081731Y-64153500D01*
X137162165Y-63992633D01*
X137323031Y-63912200D01*
X137725198Y-63912200D01*
X137886065Y-63831767D01*
X138690398Y-64555667D02*
X138690398Y-63429600D01*
X138690398Y-63751333D02*
X138770831Y-63590467D01*
X138851264Y-63510033D01*
X139012131Y-63429600D01*
X139172998Y-63429600D01*
X139494731Y-63429600D02*
X140138197Y-63429600D01*
X139736031Y-62866567D02*
X139736031Y-64314367D01*
X139816464Y-64475233D01*
X139977331Y-64555667D01*
X140138197Y-64555667D01*
X141746864Y-63429600D02*
X142390330Y-63429600D01*
X141988164Y-62866567D02*
X141988164Y-64314367D01*
X142068597Y-64475233D01*
X142229464Y-64555667D01*
X142390330Y-64555667D01*
X143194664Y-64555667D02*
X143033797Y-64475233D01*
X142953364Y-64394800D01*
X142872930Y-64233933D01*
X142872930Y-63751333D01*
X142953364Y-63590467D01*
X143033797Y-63510033D01*
X143194664Y-63429600D01*
X143435964Y-63429600D01*
X143596830Y-63510033D01*
X143677264Y-63590467D01*
X143757697Y-63751333D01*
X143757697Y-64233933D01*
X143677264Y-64394800D01*
X143596830Y-64475233D01*
X143435964Y-64555667D01*
X143194664Y-64555667D01*
X145688096Y-64475233D02*
X145848963Y-64555667D01*
X146170696Y-64555667D01*
X146331563Y-64475233D01*
X146411996Y-64314367D01*
X146411996Y-64233933D01*
X146331563Y-64073067D01*
X146170696Y-63992633D01*
X145929396Y-63992633D01*
X145768530Y-63912200D01*
X145688096Y-63751333D01*
X145688096Y-63670900D01*
X145768530Y-63510033D01*
X145929396Y-63429600D01*
X146170696Y-63429600D01*
X146331563Y-63510033D01*
X147377197Y-64555667D02*
X147216330Y-64475233D01*
X147135897Y-64394800D01*
X147055463Y-64233933D01*
X147055463Y-63751333D01*
X147135897Y-63590467D01*
X147216330Y-63510033D01*
X147377197Y-63429600D01*
X147618497Y-63429600D01*
X147779363Y-63510033D01*
X147859797Y-63590467D01*
X147940230Y-63751333D01*
X147940230Y-64233933D01*
X147859797Y-64394800D01*
X147779363Y-64475233D01*
X147618497Y-64555667D01*
X147377197Y-64555667D01*
X148664130Y-64555667D02*
X148664130Y-63429600D01*
X148664130Y-62866567D02*
X148583696Y-62947000D01*
X148664130Y-63027433D01*
X148744563Y-62947000D01*
X148664130Y-62866567D01*
X148664130Y-63027433D01*
X149709763Y-64555667D02*
X149548896Y-64475233D01*
X149468463Y-64314367D01*
X149468463Y-62866567D01*
X120563267Y-59475667D02*
X120563267Y-57786567D01*
X121206733Y-57786567D01*
X121367600Y-57867000D01*
X121448033Y-57947433D01*
X121528467Y-58108300D01*
X121528467Y-58349600D01*
X121448033Y-58510467D01*
X121367600Y-58590900D01*
X121206733Y-58671333D01*
X120563267Y-58671333D01*
X122493667Y-59475667D02*
X122332800Y-59395233D01*
X122252367Y-59234367D01*
X122252367Y-57786567D01*
X123861034Y-59475667D02*
X123861034Y-58590900D01*
X123780600Y-58430033D01*
X123619734Y-58349600D01*
X123298000Y-58349600D01*
X123137134Y-58430033D01*
X123861034Y-59395233D02*
X123700167Y-59475667D01*
X123298000Y-59475667D01*
X123137134Y-59395233D01*
X123056700Y-59234367D01*
X123056700Y-59073500D01*
X123137134Y-58912633D01*
X123298000Y-58832200D01*
X123700167Y-58832200D01*
X123861034Y-58751767D01*
X124665367Y-58349600D02*
X124665367Y-59475667D01*
X124665367Y-58510467D02*
X124745800Y-58430033D01*
X124906667Y-58349600D01*
X125147967Y-58349600D01*
X125308833Y-58430033D01*
X125389267Y-58590900D01*
X125389267Y-59475667D01*
X125952300Y-58349600D02*
X126595766Y-58349600D01*
X126193600Y-57786567D02*
X126193600Y-59234367D01*
X126274033Y-59395233D01*
X126434900Y-59475667D01*
X126595766Y-59475667D01*
X128284866Y-58349600D02*
X128606599Y-59475667D01*
X128928333Y-58671333D01*
X129250066Y-59475667D01*
X129571799Y-58349600D01*
X130939166Y-59475667D02*
X130939166Y-58590900D01*
X130858732Y-58430033D01*
X130697866Y-58349600D01*
X130376132Y-58349600D01*
X130215266Y-58430033D01*
X130939166Y-59395233D02*
X130778299Y-59475667D01*
X130376132Y-59475667D01*
X130215266Y-59395233D01*
X130134832Y-59234367D01*
X130134832Y-59073500D01*
X130215266Y-58912633D01*
X130376132Y-58832200D01*
X130778299Y-58832200D01*
X130939166Y-58751767D01*
X131502199Y-58349600D02*
X132145665Y-58349600D01*
X131743499Y-57786567D02*
X131743499Y-59234367D01*
X131823932Y-59395233D01*
X131984799Y-59475667D01*
X132145665Y-59475667D01*
X133352165Y-59395233D02*
X133191299Y-59475667D01*
X132869565Y-59475667D01*
X132708699Y-59395233D01*
X132628265Y-59234367D01*
X132628265Y-58590900D01*
X132708699Y-58430033D01*
X132869565Y-58349600D01*
X133191299Y-58349600D01*
X133352165Y-58430033D01*
X133432599Y-58590900D01*
X133432599Y-58751767D01*
X132628265Y-58912633D01*
X134156499Y-59475667D02*
X134156499Y-58349600D01*
X134156499Y-58671333D02*
X134236932Y-58510467D01*
X134317365Y-58430033D01*
X134478232Y-58349600D01*
X134639099Y-58349600D01*
X135202132Y-59475667D02*
X135202132Y-58349600D01*
X135202132Y-57786567D02*
X135121698Y-57867000D01*
X135202132Y-57947433D01*
X135282565Y-57867000D01*
X135202132Y-57786567D01*
X135202132Y-57947433D01*
X136006465Y-58349600D02*
X136006465Y-59475667D01*
X136006465Y-58510467D02*
X136086898Y-58430033D01*
X136247765Y-58349600D01*
X136489065Y-58349600D01*
X136649931Y-58430033D01*
X136730365Y-58590900D01*
X136730365Y-59475667D01*
X138258598Y-58349600D02*
X138258598Y-59716967D01*
X138178164Y-59877833D01*
X138097731Y-59958267D01*
X137936864Y-60038700D01*
X137695564Y-60038700D01*
X137534698Y-59958267D01*
X138258598Y-59395233D02*
X138097731Y-59475667D01*
X137775998Y-59475667D01*
X137615131Y-59395233D01*
X137534698Y-59314800D01*
X137454264Y-59153933D01*
X137454264Y-58671333D01*
X137534698Y-58510467D01*
X137615131Y-58430033D01*
X137775998Y-58349600D01*
X138097731Y-58349600D01*
X138258598Y-58430033D01*
X141073764Y-59475667D02*
X141073764Y-58590900D01*
X140993330Y-58430033D01*
X140832464Y-58349600D01*
X140510730Y-58349600D01*
X140349864Y-58430033D01*
X141073764Y-59395233D02*
X140912897Y-59475667D01*
X140510730Y-59475667D01*
X140349864Y-59395233D01*
X140269430Y-59234367D01*
X140269430Y-59073500D01*
X140349864Y-58912633D01*
X140510730Y-58832200D01*
X140912897Y-58832200D01*
X141073764Y-58751767D01*
X142119397Y-59475667D02*
X141958530Y-59395233D01*
X141878097Y-59234367D01*
X141878097Y-57786567D01*
X143486764Y-59475667D02*
X143486764Y-58590900D01*
X143406330Y-58430033D01*
X143245464Y-58349600D01*
X142923730Y-58349600D01*
X142762864Y-58430033D01*
X143486764Y-59395233D02*
X143325897Y-59475667D01*
X142923730Y-59475667D01*
X142762864Y-59395233D01*
X142682430Y-59234367D01*
X142682430Y-59073500D01*
X142762864Y-58912633D01*
X142923730Y-58832200D01*
X143325897Y-58832200D01*
X143486764Y-58751767D01*
X144291097Y-59475667D02*
X144291097Y-58349600D01*
X144291097Y-58671333D02*
X144371530Y-58510467D01*
X144451963Y-58430033D01*
X144612830Y-58349600D01*
X144773697Y-58349600D01*
X145336730Y-59475667D02*
X145336730Y-58349600D01*
X145336730Y-58510467D02*
X145417163Y-58430033D01*
X145578030Y-58349600D01*
X145819330Y-58349600D01*
X145980196Y-58430033D01*
X146060630Y-58590900D01*
X146060630Y-59475667D01*
X146060630Y-58590900D02*
X146141063Y-58430033D01*
X146301930Y-58349600D01*
X146543230Y-58349600D01*
X146704096Y-58430033D01*
X146784530Y-58590900D01*
X146784530Y-59475667D01*
X148714929Y-58349600D02*
X149117096Y-59475667D01*
X149519262Y-58349600D01*
X150162729Y-59314800D02*
X150243162Y-59395233D01*
X150162729Y-59475667D01*
X150082295Y-59395233D01*
X150162729Y-59314800D01*
X150162729Y-59475667D01*
X150886628Y-57947433D02*
X150967062Y-57867000D01*
X151127928Y-57786567D01*
X151530095Y-57786567D01*
X151690962Y-57867000D01*
X151771395Y-57947433D01*
X151851828Y-58108300D01*
X151851828Y-58269167D01*
X151771395Y-58510467D01*
X150806195Y-59475667D01*
X151851828Y-59475667D01*
X152575729Y-59314800D02*
X152656162Y-59395233D01*
X152575729Y-59475667D01*
X152495295Y-59395233D01*
X152575729Y-59314800D01*
X152575729Y-59475667D01*
X154103962Y-58349600D02*
X154103962Y-59475667D01*
X153701795Y-57706133D02*
X153299628Y-58912633D01*
X154345262Y-58912633D01*
D14*
X120482833Y-70286753D02*
X120482833Y-68935473D01*
X121061953Y-70286753D02*
X121061953Y-69578940D01*
X120997607Y-69450247D01*
X120868913Y-69385900D01*
X120675873Y-69385900D01*
X120547180Y-69450247D01*
X120482833Y-69514593D01*
X121512380Y-69385900D02*
X122027154Y-69385900D01*
X121705420Y-68935473D02*
X121705420Y-70093713D01*
X121769767Y-70222407D01*
X121898460Y-70286753D01*
X122027154Y-70286753D01*
X122284540Y-69385900D02*
X122799314Y-69385900D01*
X122477580Y-68935473D02*
X122477580Y-70093713D01*
X122541927Y-70222407D01*
X122670620Y-70286753D01*
X122799314Y-70286753D01*
X123249740Y-69385900D02*
X123249740Y-70737180D01*
X123249740Y-69450247D02*
X123378434Y-69385900D01*
X123635820Y-69385900D01*
X123764514Y-69450247D01*
X123828860Y-69514593D01*
X123893207Y-69643287D01*
X123893207Y-70029367D01*
X123828860Y-70158060D01*
X123764514Y-70222407D01*
X123635820Y-70286753D01*
X123378434Y-70286753D01*
X123249740Y-70222407D01*
X124472327Y-70158060D02*
X124536674Y-70222407D01*
X124472327Y-70286753D01*
X124407981Y-70222407D01*
X124472327Y-70158060D01*
X124472327Y-70286753D01*
X124472327Y-69450247D02*
X124536674Y-69514593D01*
X124472327Y-69578940D01*
X124407981Y-69514593D01*
X124472327Y-69450247D01*
X124472327Y-69578940D01*
X126080994Y-68871127D02*
X124922754Y-70608487D01*
X127496621Y-68871127D02*
X126338381Y-70608487D01*
X127818355Y-69385900D02*
X128075742Y-70286753D01*
X128333128Y-69643287D01*
X128590515Y-70286753D01*
X128847902Y-69385900D01*
X129877449Y-70222407D02*
X129748755Y-70286753D01*
X129491369Y-70286753D01*
X129362675Y-70222407D01*
X129298329Y-70093713D01*
X129298329Y-69578940D01*
X129362675Y-69450247D01*
X129491369Y-69385900D01*
X129748755Y-69385900D01*
X129877449Y-69450247D01*
X129941795Y-69578940D01*
X129941795Y-69707633D01*
X129298329Y-69836327D01*
X130520915Y-70286753D02*
X130520915Y-69385900D01*
X130520915Y-69514593D02*
X130585262Y-69450247D01*
X130713955Y-69385900D01*
X130906995Y-69385900D01*
X131035689Y-69450247D01*
X131100035Y-69578940D01*
X131100035Y-70286753D01*
X131100035Y-69578940D02*
X131164382Y-69450247D01*
X131293075Y-69385900D01*
X131486115Y-69385900D01*
X131614809Y-69450247D01*
X131679155Y-69578940D01*
X131679155Y-70286753D01*
X132901742Y-70286753D02*
X132901742Y-69578940D01*
X132837396Y-69450247D01*
X132708702Y-69385900D01*
X132451316Y-69385900D01*
X132322622Y-69450247D01*
X132901742Y-70222407D02*
X132773049Y-70286753D01*
X132451316Y-70286753D01*
X132322622Y-70222407D01*
X132258276Y-70093713D01*
X132258276Y-69965020D01*
X132322622Y-69836327D01*
X132451316Y-69771980D01*
X132773049Y-69771980D01*
X132901742Y-69707633D01*
X133545209Y-70286753D02*
X133545209Y-68935473D01*
X133673903Y-69771980D02*
X134059983Y-70286753D01*
X134059983Y-69385900D02*
X133545209Y-69900673D01*
X135153876Y-70222407D02*
X135025182Y-70286753D01*
X134767796Y-70286753D01*
X134639102Y-70222407D01*
X134574756Y-70093713D01*
X134574756Y-69578940D01*
X134639102Y-69450247D01*
X134767796Y-69385900D01*
X135025182Y-69385900D01*
X135153876Y-69450247D01*
X135218222Y-69578940D01*
X135218222Y-69707633D01*
X134574756Y-69836327D01*
X135604302Y-69385900D02*
X136119076Y-69385900D01*
X135797342Y-68935473D02*
X135797342Y-70093713D01*
X135861689Y-70222407D01*
X135990382Y-70286753D01*
X136119076Y-70286753D01*
X136569502Y-70286753D02*
X136569502Y-68935473D01*
X137148622Y-70286753D02*
X137148622Y-69578940D01*
X137084276Y-69450247D01*
X136955582Y-69385900D01*
X136762542Y-69385900D01*
X136633849Y-69450247D01*
X136569502Y-69514593D01*
X137792089Y-70286753D02*
X137792089Y-69385900D01*
X137792089Y-68935473D02*
X137727743Y-68999820D01*
X137792089Y-69064167D01*
X137856436Y-68999820D01*
X137792089Y-68935473D01*
X137792089Y-69064167D01*
X138435556Y-69385900D02*
X138435556Y-70286753D01*
X138435556Y-69514593D02*
X138499903Y-69450247D01*
X138628596Y-69385900D01*
X138821636Y-69385900D01*
X138950330Y-69450247D01*
X139014676Y-69578940D01*
X139014676Y-70286753D01*
X140237263Y-69385900D02*
X140237263Y-70479793D01*
X140172917Y-70608487D01*
X140108570Y-70672833D01*
X139979877Y-70737180D01*
X139786837Y-70737180D01*
X139658143Y-70672833D01*
X140237263Y-70222407D02*
X140108570Y-70286753D01*
X139851183Y-70286753D01*
X139722490Y-70222407D01*
X139658143Y-70158060D01*
X139593797Y-70029367D01*
X139593797Y-69643287D01*
X139658143Y-69514593D01*
X139722490Y-69450247D01*
X139851183Y-69385900D01*
X140108570Y-69385900D01*
X140237263Y-69450247D01*
X140816384Y-70222407D02*
X140945077Y-70286753D01*
X141202464Y-70286753D01*
X141331157Y-70222407D01*
X141395504Y-70093713D01*
X141395504Y-70029367D01*
X141331157Y-69900673D01*
X141202464Y-69836327D01*
X141009424Y-69836327D01*
X140880730Y-69771980D01*
X140816384Y-69643287D01*
X140816384Y-69578940D01*
X140880730Y-69450247D01*
X141009424Y-69385900D01*
X141202464Y-69385900D01*
X141331157Y-69450247D01*
X141974623Y-70158060D02*
X142038970Y-70222407D01*
X141974623Y-70286753D01*
X141910277Y-70222407D01*
X141974623Y-70158060D01*
X141974623Y-70286753D01*
X142618090Y-69385900D02*
X142618090Y-70286753D01*
X142618090Y-69514593D02*
X142682437Y-69450247D01*
X142811130Y-69385900D01*
X143004170Y-69385900D01*
X143132864Y-69450247D01*
X143197210Y-69578940D01*
X143197210Y-70286753D01*
X144355451Y-70222407D02*
X144226757Y-70286753D01*
X143969371Y-70286753D01*
X143840677Y-70222407D01*
X143776331Y-70093713D01*
X143776331Y-69578940D01*
X143840677Y-69450247D01*
X143969371Y-69385900D01*
X144226757Y-69385900D01*
X144355451Y-69450247D01*
X144419797Y-69578940D01*
X144419797Y-69707633D01*
X143776331Y-69836327D01*
X144805877Y-69385900D02*
X145320651Y-69385900D01*
X144998917Y-68935473D02*
X144998917Y-70093713D01*
X145063264Y-70222407D01*
X145191957Y-70286753D01*
X145320651Y-70286753D01*
X146736277Y-68871127D02*
X145578037Y-70608487D01*
X147765824Y-70222407D02*
X147637131Y-70286753D01*
X147379744Y-70286753D01*
X147251051Y-70222407D01*
X147186704Y-70158060D01*
X147122358Y-70029367D01*
X147122358Y-69643287D01*
X147186704Y-69514593D01*
X147251051Y-69450247D01*
X147379744Y-69385900D01*
X147637131Y-69385900D01*
X147765824Y-69450247D01*
X148344944Y-70286753D02*
X148344944Y-68935473D01*
X148924064Y-70286753D02*
X148924064Y-69578940D01*
X148859718Y-69450247D01*
X148731024Y-69385900D01*
X148537984Y-69385900D01*
X148409291Y-69450247D01*
X148344944Y-69514593D01*
X149567531Y-70286753D02*
X149567531Y-69385900D01*
X149567531Y-68935473D02*
X149503185Y-68999820D01*
X149567531Y-69064167D01*
X149631878Y-68999820D01*
X149567531Y-68935473D01*
X149567531Y-69064167D01*
X150210998Y-70286753D02*
X150210998Y-69385900D01*
X150210998Y-69643287D02*
X150275345Y-69514593D01*
X150339692Y-69450247D01*
X150468385Y-69385900D01*
X150597078Y-69385900D01*
X151047505Y-69385900D02*
X151047505Y-70737180D01*
X151047505Y-69450247D02*
X151176199Y-69385900D01*
X151433585Y-69385900D01*
X151562279Y-69450247D01*
X151626625Y-69514593D01*
X151690972Y-69643287D01*
X151690972Y-70029367D01*
X151626625Y-70158060D01*
X151562279Y-70222407D01*
X151433585Y-70286753D01*
X151176199Y-70286753D01*
X151047505Y-70222407D01*
D11*
X110001100Y-73016100D02*
X110001100Y-86986100D01*
D12*
X120796100Y-80001100D02*
X113176100Y-80001100D01*
X113176100Y-80001100D02*
X114446100Y-78731100D01*
X113176100Y-80001100D02*
X114446100Y-81271100D01*
X157626100Y-80001100D02*
X164611100Y-80001100D01*
X164611100Y-80001100D02*
X163341100Y-78731100D01*
X164611100Y-80001100D02*
X163341100Y-81271100D01*
D13*
X124373267Y-79429600D02*
X124373267Y-81118700D01*
X124373267Y-79510033D02*
X124534133Y-79429600D01*
X124855867Y-79429600D01*
X125016733Y-79510033D01*
X125097167Y-79590467D01*
X125177600Y-79751333D01*
X125177600Y-80233933D01*
X125097167Y-80394800D01*
X125016733Y-80475233D01*
X124855867Y-80555667D01*
X124534133Y-80555667D01*
X124373267Y-80475233D01*
X126625400Y-79429600D02*
X126625400Y-80555667D01*
X125901500Y-79429600D02*
X125901500Y-80314367D01*
X125981933Y-80475233D01*
X126142800Y-80555667D01*
X126384100Y-80555667D01*
X126544966Y-80475233D01*
X126625400Y-80394800D01*
X127188433Y-79429600D02*
X127831899Y-79429600D01*
X127429733Y-78866567D02*
X127429733Y-80314367D01*
X127510166Y-80475233D01*
X127671033Y-80555667D01*
X127831899Y-80555667D01*
X129440566Y-79429600D02*
X130084032Y-79429600D01*
X129681866Y-78866567D02*
X129681866Y-80314367D01*
X129762299Y-80475233D01*
X129923166Y-80555667D01*
X130084032Y-80555667D01*
X130647066Y-80555667D02*
X130647066Y-78866567D01*
X131370966Y-80555667D02*
X131370966Y-79670900D01*
X131290532Y-79510033D01*
X131129666Y-79429600D01*
X130888366Y-79429600D01*
X130727499Y-79510033D01*
X130647066Y-79590467D01*
X132175299Y-80555667D02*
X132175299Y-79429600D01*
X132175299Y-78866567D02*
X132094865Y-78947000D01*
X132175299Y-79027433D01*
X132255732Y-78947000D01*
X132175299Y-78866567D01*
X132175299Y-79027433D01*
X132899198Y-80475233D02*
X133060065Y-80555667D01*
X133381798Y-80555667D01*
X133542665Y-80475233D01*
X133623098Y-80314367D01*
X133623098Y-80233933D01*
X133542665Y-80073067D01*
X133381798Y-79992633D01*
X133140498Y-79992633D01*
X132979632Y-79912200D01*
X132899198Y-79751333D01*
X132899198Y-79670900D01*
X132979632Y-79510033D01*
X133140498Y-79429600D01*
X133381798Y-79429600D01*
X133542665Y-79510033D01*
X135633932Y-79429600D02*
X135633932Y-81118700D01*
X135633932Y-79510033D02*
X135794798Y-79429600D01*
X136116532Y-79429600D01*
X136277398Y-79510033D01*
X136357832Y-79590467D01*
X136438265Y-79751333D01*
X136438265Y-80233933D01*
X136357832Y-80394800D01*
X136277398Y-80475233D01*
X136116532Y-80555667D01*
X135794798Y-80555667D01*
X135633932Y-80475233D01*
X137886065Y-80555667D02*
X137886065Y-79670900D01*
X137805631Y-79510033D01*
X137644765Y-79429600D01*
X137323031Y-79429600D01*
X137162165Y-79510033D01*
X137886065Y-80475233D02*
X137725198Y-80555667D01*
X137323031Y-80555667D01*
X137162165Y-80475233D01*
X137081731Y-80314367D01*
X137081731Y-80153500D01*
X137162165Y-79992633D01*
X137323031Y-79912200D01*
X137725198Y-79912200D01*
X137886065Y-79831767D01*
X138690398Y-80555667D02*
X138690398Y-79429600D01*
X138690398Y-79751333D02*
X138770831Y-79590467D01*
X138851264Y-79510033D01*
X139012131Y-79429600D01*
X139172998Y-79429600D01*
X139494731Y-79429600D02*
X140138197Y-79429600D01*
X139736031Y-78866567D02*
X139736031Y-80314367D01*
X139816464Y-80475233D01*
X139977331Y-80555667D01*
X140138197Y-80555667D01*
X141746864Y-79429600D02*
X142390330Y-79429600D01*
X141988164Y-78866567D02*
X141988164Y-80314367D01*
X142068597Y-80475233D01*
X142229464Y-80555667D01*
X142390330Y-80555667D01*
X143194664Y-80555667D02*
X143033797Y-80475233D01*
X142953364Y-80394800D01*
X142872930Y-80233933D01*
X142872930Y-79751333D01*
X142953364Y-79590467D01*
X143033797Y-79510033D01*
X143194664Y-79429600D01*
X143435964Y-79429600D01*
X143596830Y-79510033D01*
X143677264Y-79590467D01*
X143757697Y-79751333D01*
X143757697Y-80233933D01*
X143677264Y-80394800D01*
X143596830Y-80475233D01*
X143435964Y-80555667D01*
X143194664Y-80555667D01*
X145688096Y-80475233D02*
X145848963Y-80555667D01*
X146170696Y-80555667D01*
X146331563Y-80475233D01*
X146411996Y-80314367D01*
X146411996Y-80233933D01*
X146331563Y-80073067D01*
X146170696Y-79992633D01*
X145929396Y-79992633D01*
X145768530Y-79912200D01*
X145688096Y-79751333D01*
X145688096Y-79670900D01*
X145768530Y-79510033D01*
X145929396Y-79429600D01*
X146170696Y-79429600D01*
X146331563Y-79510033D01*
X147377197Y-80555667D02*
X147216330Y-80475233D01*
X147135897Y-80394800D01*
X147055463Y-80233933D01*
X147055463Y-79751333D01*
X147135897Y-79590467D01*
X147216330Y-79510033D01*
X147377197Y-79429600D01*
X147618497Y-79429600D01*
X147779363Y-79510033D01*
X147859797Y-79590467D01*
X147940230Y-79751333D01*
X147940230Y-80233933D01*
X147859797Y-80394800D01*
X147779363Y-80475233D01*
X147618497Y-80555667D01*
X147377197Y-80555667D01*
X148664130Y-80555667D02*
X148664130Y-79429600D01*
X148664130Y-78866567D02*
X148583696Y-78947000D01*
X148664130Y-79027433D01*
X148744563Y-78947000D01*
X148664130Y-78866567D01*
X148664130Y-79027433D01*
X149709763Y-80555667D02*
X149548896Y-80475233D01*
X149468463Y-80314367D01*
X149468463Y-78866567D01*
X120563267Y-75475667D02*
X120563267Y-73786567D01*
X121206733Y-73786567D01*
X121367600Y-73867000D01*
X121448033Y-73947433D01*
X121528467Y-74108300D01*
X121528467Y-74349600D01*
X121448033Y-74510467D01*
X121367600Y-74590900D01*
X121206733Y-74671333D01*
X120563267Y-74671333D01*
X122493667Y-75475667D02*
X122332800Y-75395233D01*
X122252367Y-75234367D01*
X122252367Y-73786567D01*
X123861034Y-75475667D02*
X123861034Y-74590900D01*
X123780600Y-74430033D01*
X123619734Y-74349600D01*
X123298000Y-74349600D01*
X123137134Y-74430033D01*
X123861034Y-75395233D02*
X123700167Y-75475667D01*
X123298000Y-75475667D01*
X123137134Y-75395233D01*
X123056700Y-75234367D01*
X123056700Y-75073500D01*
X123137134Y-74912633D01*
X123298000Y-74832200D01*
X123700167Y-74832200D01*
X123861034Y-74751767D01*
X124665367Y-74349600D02*
X124665367Y-75475667D01*
X124665367Y-74510467D02*
X124745800Y-74430033D01*
X124906667Y-74349600D01*
X125147967Y-74349600D01*
X125308833Y-74430033D01*
X125389267Y-74590900D01*
X125389267Y-75475667D01*
X125952300Y-74349600D02*
X126595766Y-74349600D01*
X126193600Y-73786567D02*
X126193600Y-75234367D01*
X126274033Y-75395233D01*
X126434900Y-75475667D01*
X126595766Y-75475667D01*
X128284866Y-74349600D02*
X128606599Y-75475667D01*
X128928333Y-74671333D01*
X129250066Y-75475667D01*
X129571799Y-74349600D01*
X130939166Y-75475667D02*
X130939166Y-74590900D01*
X130858732Y-74430033D01*
X130697866Y-74349600D01*
X130376132Y-74349600D01*
X130215266Y-74430033D01*
X130939166Y-75395233D02*
X130778299Y-75475667D01*
X130376132Y-75475667D01*
X130215266Y-75395233D01*
X130134832Y-75234367D01*
X130134832Y-75073500D01*
X130215266Y-74912633D01*
X130376132Y-74832200D01*
X130778299Y-74832200D01*
X130939166Y-74751767D01*
X131502199Y-74349600D02*
X132145665Y-74349600D01*
X131743499Y-73786567D02*
X131743499Y-75234367D01*
X131823932Y-75395233D01*
X131984799Y-75475667D01*
X132145665Y-75475667D01*
X133352165Y-75395233D02*
X133191299Y-75475667D01*
X132869565Y-75475667D01*
X132708699Y-75395233D01*
X132628265Y-75234367D01*
X132628265Y-74590900D01*
X132708699Y-74430033D01*
X132869565Y-74349600D01*
X133191299Y-74349600D01*
X133352165Y-74430033D01*
X133432599Y-74590900D01*
X133432599Y-74751767D01*
X132628265Y-74912633D01*
X134156499Y-75475667D02*
X134156499Y-74349600D01*
X134156499Y-74671333D02*
X134236932Y-74510467D01*
X134317365Y-74430033D01*
X134478232Y-74349600D01*
X134639099Y-74349600D01*
X135202132Y-75475667D02*
X135202132Y-74349600D01*
X135202132Y-73786567D02*
X135121698Y-73867000D01*
X135202132Y-73947433D01*
X135282565Y-73867000D01*
X135202132Y-73786567D01*
X135202132Y-73947433D01*
X136006465Y-74349600D02*
X136006465Y-75475667D01*
X136006465Y-74510467D02*
X136086898Y-74430033D01*
X136247765Y-74349600D01*
X136489065Y-74349600D01*
X136649931Y-74430033D01*
X136730365Y-74590900D01*
X136730365Y-75475667D01*
X138258598Y-74349600D02*
X138258598Y-75716967D01*
X138178164Y-75877833D01*
X138097731Y-75958267D01*
X137936864Y-76038700D01*
X137695564Y-76038700D01*
X137534698Y-75958267D01*
X138258598Y-75395233D02*
X138097731Y-75475667D01*
X137775998Y-75475667D01*
X137615131Y-75395233D01*
X137534698Y-75314800D01*
X137454264Y-75153933D01*
X137454264Y-74671333D01*
X137534698Y-74510467D01*
X137615131Y-74430033D01*
X137775998Y-74349600D01*
X138097731Y-74349600D01*
X138258598Y-74430033D01*
X141073764Y-75475667D02*
X141073764Y-74590900D01*
X140993330Y-74430033D01*
X140832464Y-74349600D01*
X140510730Y-74349600D01*
X140349864Y-74430033D01*
X141073764Y-75395233D02*
X140912897Y-75475667D01*
X140510730Y-75475667D01*
X140349864Y-75395233D01*
X140269430Y-75234367D01*
X140269430Y-75073500D01*
X140349864Y-74912633D01*
X140510730Y-74832200D01*
X140912897Y-74832200D01*
X141073764Y-74751767D01*
X142119397Y-75475667D02*
X141958530Y-75395233D01*
X141878097Y-75234367D01*
X141878097Y-73786567D01*
X143486764Y-75475667D02*
X143486764Y-74590900D01*
X143406330Y-74430033D01*
X143245464Y-74349600D01*
X142923730Y-74349600D01*
X142762864Y-74430033D01*
X143486764Y-75395233D02*
X143325897Y-75475667D01*
X142923730Y-75475667D01*
X142762864Y-75395233D01*
X142682430Y-75234367D01*
X142682430Y-75073500D01*
X142762864Y-74912633D01*
X142923730Y-74832200D01*
X143325897Y-74832200D01*
X143486764Y-74751767D01*
X144291097Y-75475667D02*
X144291097Y-74349600D01*
X144291097Y-74671333D02*
X144371530Y-74510467D01*
X144451963Y-74430033D01*
X144612830Y-74349600D01*
X144773697Y-74349600D01*
X145336730Y-75475667D02*
X145336730Y-74349600D01*
X145336730Y-74510467D02*
X145417163Y-74430033D01*
X145578030Y-74349600D01*
X145819330Y-74349600D01*
X145980196Y-74430033D01*
X146060630Y-74590900D01*
X146060630Y-75475667D01*
X146060630Y-74590900D02*
X146141063Y-74430033D01*
X146301930Y-74349600D01*
X146543230Y-74349600D01*
X146704096Y-74430033D01*
X146784530Y-74590900D01*
X146784530Y-75475667D01*
X148714929Y-74349600D02*
X149117096Y-75475667D01*
X149519262Y-74349600D01*
X150162729Y-75314800D02*
X150243162Y-75395233D01*
X150162729Y-75475667D01*
X150082295Y-75395233D01*
X150162729Y-75314800D01*
X150162729Y-75475667D01*
X150886628Y-73947433D02*
X150967062Y-73867000D01*
X151127928Y-73786567D01*
X151530095Y-73786567D01*
X151690962Y-73867000D01*
X151771395Y-73947433D01*
X151851828Y-74108300D01*
X151851828Y-74269167D01*
X151771395Y-74510467D01*
X150806195Y-75475667D01*
X151851828Y-75475667D01*
X152575729Y-75314800D02*
X152656162Y-75395233D01*
X152575729Y-75475667D01*
X152495295Y-75395233D01*
X152575729Y-75314800D01*
X152575729Y-75475667D01*
X154103962Y-74349600D02*
X154103962Y-75475667D01*
X153701795Y-73706133D02*
X153299628Y-74912633D01*
X154345262Y-74912633D01*
D14*
X120482833Y-86286753D02*
X120482833Y-84935473D01*
X121061953Y-86286753D02*
X121061953Y-85578940D01*
X120997607Y-85450247D01*
X120868913Y-85385900D01*
X120675873Y-85385900D01*
X120547180Y-85450247D01*
X120482833Y-85514593D01*
X121512380Y-85385900D02*
X122027154Y-85385900D01*
X121705420Y-84935473D02*
X121705420Y-86093713D01*
X121769767Y-86222407D01*
X121898460Y-86286753D01*
X122027154Y-86286753D01*
X122284540Y-85385900D02*
X122799314Y-85385900D01*
X122477580Y-84935473D02*
X122477580Y-86093713D01*
X122541927Y-86222407D01*
X122670620Y-86286753D01*
X122799314Y-86286753D01*
X123249740Y-85385900D02*
X123249740Y-86737180D01*
X123249740Y-85450247D02*
X123378434Y-85385900D01*
X123635820Y-85385900D01*
X123764514Y-85450247D01*
X123828860Y-85514593D01*
X123893207Y-85643287D01*
X123893207Y-86029367D01*
X123828860Y-86158060D01*
X123764514Y-86222407D01*
X123635820Y-86286753D01*
X123378434Y-86286753D01*
X123249740Y-86222407D01*
X124472327Y-86158060D02*
X124536674Y-86222407D01*
X124472327Y-86286753D01*
X124407981Y-86222407D01*
X124472327Y-86158060D01*
X124472327Y-86286753D01*
X124472327Y-85450247D02*
X124536674Y-85514593D01*
X124472327Y-85578940D01*
X124407981Y-85514593D01*
X124472327Y-85450247D01*
X124472327Y-85578940D01*
X126080994Y-84871127D02*
X124922754Y-86608487D01*
X127496621Y-84871127D02*
X126338381Y-86608487D01*
X127818355Y-85385900D02*
X128075742Y-86286753D01*
X128333128Y-85643287D01*
X128590515Y-86286753D01*
X128847902Y-85385900D01*
X129877449Y-86222407D02*
X129748755Y-86286753D01*
X129491369Y-86286753D01*
X129362675Y-86222407D01*
X129298329Y-86093713D01*
X129298329Y-85578940D01*
X129362675Y-85450247D01*
X129491369Y-85385900D01*
X129748755Y-85385900D01*
X129877449Y-85450247D01*
X129941795Y-85578940D01*
X129941795Y-85707633D01*
X129298329Y-85836327D01*
X130520915Y-86286753D02*
X130520915Y-85385900D01*
X130520915Y-85514593D02*
X130585262Y-85450247D01*
X130713955Y-85385900D01*
X130906995Y-85385900D01*
X131035689Y-85450247D01*
X131100035Y-85578940D01*
X131100035Y-86286753D01*
X131100035Y-85578940D02*
X131164382Y-85450247D01*
X131293075Y-85385900D01*
X131486115Y-85385900D01*
X131614809Y-85450247D01*
X131679155Y-85578940D01*
X131679155Y-86286753D01*
X132901742Y-86286753D02*
X132901742Y-85578940D01*
X132837396Y-85450247D01*
X132708702Y-85385900D01*
X132451316Y-85385900D01*
X132322622Y-85450247D01*
X132901742Y-86222407D02*
X132773049Y-86286753D01*
X132451316Y-86286753D01*
X132322622Y-86222407D01*
X132258276Y-86093713D01*
X132258276Y-85965020D01*
X132322622Y-85836327D01*
X132451316Y-85771980D01*
X132773049Y-85771980D01*
X132901742Y-85707633D01*
X133545209Y-86286753D02*
X133545209Y-84935473D01*
X133673903Y-85771980D02*
X134059983Y-86286753D01*
X134059983Y-85385900D02*
X133545209Y-85900673D01*
X135153876Y-86222407D02*
X135025182Y-86286753D01*
X134767796Y-86286753D01*
X134639102Y-86222407D01*
X134574756Y-86093713D01*
X134574756Y-85578940D01*
X134639102Y-85450247D01*
X134767796Y-85385900D01*
X135025182Y-85385900D01*
X135153876Y-85450247D01*
X135218222Y-85578940D01*
X135218222Y-85707633D01*
X134574756Y-85836327D01*
X135604302Y-85385900D02*
X136119076Y-85385900D01*
X135797342Y-84935473D02*
X135797342Y-86093713D01*
X135861689Y-86222407D01*
X135990382Y-86286753D01*
X136119076Y-86286753D01*
X136569502Y-86286753D02*
X136569502Y-84935473D01*
X137148622Y-86286753D02*
X137148622Y-85578940D01*
X137084276Y-85450247D01*
X136955582Y-85385900D01*
X136762542Y-85385900D01*
X136633849Y-85450247D01*
X136569502Y-85514593D01*
X137792089Y-86286753D02*
X137792089Y-85385900D01*
X137792089Y-84935473D02*
X137727743Y-84999820D01*
X137792089Y-85064167D01*
X137856436Y-84999820D01*
X137792089Y-84935473D01*
X137792089Y-85064167D01*
X138435556Y-85385900D02*
X138435556Y-86286753D01*
X138435556Y-85514593D02*
X138499903Y-85450247D01*
X138628596Y-85385900D01*
X138821636Y-85385900D01*
X138950330Y-85450247D01*
X139014676Y-85578940D01*
X139014676Y-86286753D01*
X140237263Y-85385900D02*
X140237263Y-86479793D01*
X140172917Y-86608487D01*
X140108570Y-86672833D01*
X139979877Y-86737180D01*
X139786837Y-86737180D01*
X139658143Y-86672833D01*
X140237263Y-86222407D02*
X140108570Y-86286753D01*
X139851183Y-86286753D01*
X139722490Y-86222407D01*
X139658143Y-86158060D01*
X139593797Y-86029367D01*
X139593797Y-85643287D01*
X139658143Y-85514593D01*
X139722490Y-85450247D01*
X139851183Y-85385900D01*
X140108570Y-85385900D01*
X140237263Y-85450247D01*
X140816384Y-86222407D02*
X140945077Y-86286753D01*
X141202464Y-86286753D01*
X141331157Y-86222407D01*
X141395504Y-86093713D01*
X141395504Y-86029367D01*
X141331157Y-85900673D01*
X141202464Y-85836327D01*
X141009424Y-85836327D01*
X140880730Y-85771980D01*
X140816384Y-85643287D01*
X140816384Y-85578940D01*
X140880730Y-85450247D01*
X141009424Y-85385900D01*
X141202464Y-85385900D01*
X141331157Y-85450247D01*
X141974623Y-86158060D02*
X142038970Y-86222407D01*
X141974623Y-86286753D01*
X141910277Y-86222407D01*
X141974623Y-86158060D01*
X141974623Y-86286753D01*
X142618090Y-85385900D02*
X142618090Y-86286753D01*
X142618090Y-85514593D02*
X142682437Y-85450247D01*
X142811130Y-85385900D01*
X143004170Y-85385900D01*
X143132864Y-85450247D01*
X143197210Y-85578940D01*
X143197210Y-86286753D01*
X144355451Y-86222407D02*
X144226757Y-86286753D01*
X143969371Y-86286753D01*
X143840677Y-86222407D01*
X143776331Y-86093713D01*
X143776331Y-85578940D01*
X143840677Y-85450247D01*
X143969371Y-85385900D01*
X144226757Y-85385900D01*
X144355451Y-85450247D01*
X144419797Y-85578940D01*
X144419797Y-85707633D01*
X143776331Y-85836327D01*
X144805877Y-85385900D02*
X145320651Y-85385900D01*
X144998917Y-84935473D02*
X144998917Y-86093713D01*
X145063264Y-86222407D01*
X145191957Y-86286753D01*
X145320651Y-86286753D01*
X146736277Y-84871127D02*
X145578037Y-86608487D01*
X147765824Y-86222407D02*
X147637131Y-86286753D01*
X147379744Y-86286753D01*
X147251051Y-86222407D01*
X147186704Y-86158060D01*
X147122358Y-86029367D01*
X147122358Y-85643287D01*
X147186704Y-85514593D01*
X147251051Y-85450247D01*
X147379744Y-85385900D01*
X147637131Y-85385900D01*
X147765824Y-85450247D01*
X148344944Y-86286753D02*
X148344944Y-84935473D01*
X148924064Y-86286753D02*
X148924064Y-85578940D01*
X148859718Y-85450247D01*
X148731024Y-85385900D01*
X148537984Y-85385900D01*
X148409291Y-85450247D01*
X148344944Y-85514593D01*
X149567531Y-86286753D02*
X149567531Y-85385900D01*
X149567531Y-84935473D02*
X149503185Y-84999820D01*
X149567531Y-85064167D01*
X149631878Y-84999820D01*
X149567531Y-84935473D01*
X149567531Y-85064167D01*
X150210998Y-86286753D02*
X150210998Y-85385900D01*
X150210998Y-85643287D02*
X150275345Y-85514593D01*
X150339692Y-85450247D01*
X150468385Y-85385900D01*
X150597078Y-85385900D01*
X151047505Y-85385900D02*
X151047505Y-86737180D01*
X151047505Y-85450247D02*
X151176199Y-85385900D01*
X151433585Y-85385900D01*
X151562279Y-85450247D01*
X151626625Y-85514593D01*
X151690972Y-85643287D01*
X151690972Y-86029367D01*
X151626625Y-86158060D01*
X151562279Y-86222407D01*
X151433585Y-86286753D01*
X151176199Y-86286753D01*
X151047505Y-86222407D01*
D11*
X110001100Y-89016100D02*
X110001100Y-102986100D01*
D12*
X120796100Y-96001100D02*
X113176100Y-96001100D01*
X113176100Y-96001100D02*
X114446100Y-94731100D01*
X113176100Y-96001100D02*
X114446100Y-97271100D01*
X157626100Y-96001100D02*
X164611100Y-96001100D01*
X164611100Y-96001100D02*
X163341100Y-94731100D01*
X164611100Y-96001100D02*
X163341100Y-97271100D01*
D13*
X124373267Y-95429600D02*
X124373267Y-97118700D01*
X124373267Y-95510033D02*
X124534133Y-95429600D01*
X124855867Y-95429600D01*
X125016733Y-95510033D01*
X125097167Y-95590467D01*
X125177600Y-95751333D01*
X125177600Y-96233933D01*
X125097167Y-96394800D01*
X125016733Y-96475233D01*
X124855867Y-96555667D01*
X124534133Y-96555667D01*
X124373267Y-96475233D01*
X126625400Y-95429600D02*
X126625400Y-96555667D01*
X125901500Y-95429600D02*
X125901500Y-96314367D01*
X125981933Y-96475233D01*
X126142800Y-96555667D01*
X126384100Y-96555667D01*
X126544966Y-96475233D01*
X126625400Y-96394800D01*
X127188433Y-95429600D02*
X127831899Y-95429600D01*
X127429733Y-94866567D02*
X127429733Y-96314367D01*
X127510166Y-96475233D01*
X127671033Y-96555667D01*
X127831899Y-96555667D01*
X129440566Y-95429600D02*
X130084032Y-95429600D01*
X129681866Y-94866567D02*
X129681866Y-96314367D01*
X129762299Y-96475233D01*
X129923166Y-96555667D01*
X130084032Y-96555667D01*
X130647066Y-96555667D02*
X130647066Y-94866567D01*
X131370966Y-96555667D02*
X131370966Y-95670900D01*
X131290532Y-95510033D01*
X131129666Y-95429600D01*
X130888366Y-95429600D01*
X130727499Y-95510033D01*
X130647066Y-95590467D01*
X132175299Y-96555667D02*
X132175299Y-95429600D01*
X132175299Y-94866567D02*
X132094865Y-94947000D01*
X132175299Y-95027433D01*
X132255732Y-94947000D01*
X132175299Y-94866567D01*
X132175299Y-95027433D01*
X132899198Y-96475233D02*
X133060065Y-96555667D01*
X133381798Y-96555667D01*
X133542665Y-96475233D01*
X133623098Y-96314367D01*
X133623098Y-96233933D01*
X133542665Y-96073067D01*
X133381798Y-95992633D01*
X133140498Y-95992633D01*
X132979632Y-95912200D01*
X132899198Y-95751333D01*
X132899198Y-95670900D01*
X132979632Y-95510033D01*
X133140498Y-95429600D01*
X133381798Y-95429600D01*
X133542665Y-95510033D01*
X135633932Y-95429600D02*
X135633932Y-97118700D01*
X135633932Y-95510033D02*
X135794798Y-95429600D01*
X136116532Y-95429600D01*
X136277398Y-95510033D01*
X136357832Y-95590467D01*
X136438265Y-95751333D01*
X136438265Y-96233933D01*
X136357832Y-96394800D01*
X136277398Y-96475233D01*
X136116532Y-96555667D01*
X135794798Y-96555667D01*
X135633932Y-96475233D01*
X137886065Y-96555667D02*
X137886065Y-95670900D01*
X137805631Y-95510033D01*
X137644765Y-95429600D01*
X137323031Y-95429600D01*
X137162165Y-95510033D01*
X137886065Y-96475233D02*
X137725198Y-96555667D01*
X137323031Y-96555667D01*
X137162165Y-96475233D01*
X137081731Y-96314367D01*
X137081731Y-96153500D01*
X137162165Y-95992633D01*
X137323031Y-95912200D01*
X137725198Y-95912200D01*
X137886065Y-95831767D01*
X138690398Y-96555667D02*
X138690398Y-95429600D01*
X138690398Y-95751333D02*
X138770831Y-95590467D01*
X138851264Y-95510033D01*
X139012131Y-95429600D01*
X139172998Y-95429600D01*
X139494731Y-95429600D02*
X140138197Y-95429600D01*
X139736031Y-94866567D02*
X139736031Y-96314367D01*
X139816464Y-96475233D01*
X139977331Y-96555667D01*
X140138197Y-96555667D01*
X141746864Y-95429600D02*
X142390330Y-95429600D01*
X141988164Y-94866567D02*
X141988164Y-96314367D01*
X142068597Y-96475233D01*
X142229464Y-96555667D01*
X142390330Y-96555667D01*
X143194664Y-96555667D02*
X143033797Y-96475233D01*
X142953364Y-96394800D01*
X142872930Y-96233933D01*
X142872930Y-95751333D01*
X142953364Y-95590467D01*
X143033797Y-95510033D01*
X143194664Y-95429600D01*
X143435964Y-95429600D01*
X143596830Y-95510033D01*
X143677264Y-95590467D01*
X143757697Y-95751333D01*
X143757697Y-96233933D01*
X143677264Y-96394800D01*
X143596830Y-96475233D01*
X143435964Y-96555667D01*
X143194664Y-96555667D01*
X145688096Y-96475233D02*
X145848963Y-96555667D01*
X146170696Y-96555667D01*
X146331563Y-96475233D01*
X146411996Y-96314367D01*
X146411996Y-96233933D01*
X146331563Y-96073067D01*
X146170696Y-95992633D01*
X145929396Y-95992633D01*
X145768530Y-95912200D01*
X145688096Y-95751333D01*
X145688096Y-95670900D01*
X145768530Y-95510033D01*
X145929396Y-95429600D01*
X146170696Y-95429600D01*
X146331563Y-95510033D01*
X147377197Y-96555667D02*
X147216330Y-96475233D01*
X147135897Y-96394800D01*
X147055463Y-96233933D01*
X147055463Y-95751333D01*
X147135897Y-95590467D01*
X147216330Y-95510033D01*
X147377197Y-95429600D01*
X147618497Y-95429600D01*
X147779363Y-95510033D01*
X147859797Y-95590467D01*
X147940230Y-95751333D01*
X147940230Y-96233933D01*
X147859797Y-96394800D01*
X147779363Y-96475233D01*
X147618497Y-96555667D01*
X147377197Y-96555667D01*
X148664130Y-96555667D02*
X148664130Y-95429600D01*
X148664130Y-94866567D02*
X148583696Y-94947000D01*
X148664130Y-95027433D01*
X148744563Y-94947000D01*
X148664130Y-94866567D01*
X148664130Y-95027433D01*
X149709763Y-96555667D02*
X149548896Y-96475233D01*
X149468463Y-96314367D01*
X149468463Y-94866567D01*
X120563267Y-91475667D02*
X120563267Y-89786567D01*
X121206733Y-89786567D01*
X121367600Y-89867000D01*
X121448033Y-89947433D01*
X121528467Y-90108300D01*
X121528467Y-90349600D01*
X121448033Y-90510467D01*
X121367600Y-90590900D01*
X121206733Y-90671333D01*
X120563267Y-90671333D01*
X122493667Y-91475667D02*
X122332800Y-91395233D01*
X122252367Y-91234367D01*
X122252367Y-89786567D01*
X123861034Y-91475667D02*
X123861034Y-90590900D01*
X123780600Y-90430033D01*
X123619734Y-90349600D01*
X123298000Y-90349600D01*
X123137134Y-90430033D01*
X123861034Y-91395233D02*
X123700167Y-91475667D01*
X123298000Y-91475667D01*
X123137134Y-91395233D01*
X123056700Y-91234367D01*
X123056700Y-91073500D01*
X123137134Y-90912633D01*
X123298000Y-90832200D01*
X123700167Y-90832200D01*
X123861034Y-90751767D01*
X124665367Y-90349600D02*
X124665367Y-91475667D01*
X124665367Y-90510467D02*
X124745800Y-90430033D01*
X124906667Y-90349600D01*
X125147967Y-90349600D01*
X125308833Y-90430033D01*
X125389267Y-90590900D01*
X125389267Y-91475667D01*
X125952300Y-90349600D02*
X126595766Y-90349600D01*
X126193600Y-89786567D02*
X126193600Y-91234367D01*
X126274033Y-91395233D01*
X126434900Y-91475667D01*
X126595766Y-91475667D01*
X128284866Y-90349600D02*
X128606599Y-91475667D01*
X128928333Y-90671333D01*
X129250066Y-91475667D01*
X129571799Y-90349600D01*
X130939166Y-91475667D02*
X130939166Y-90590900D01*
X130858732Y-90430033D01*
X130697866Y-90349600D01*
X130376132Y-90349600D01*
X130215266Y-90430033D01*
X130939166Y-91395233D02*
X130778299Y-91475667D01*
X130376132Y-91475667D01*
X130215266Y-91395233D01*
X130134832Y-91234367D01*
X130134832Y-91073500D01*
X130215266Y-90912633D01*
X130376132Y-90832200D01*
X130778299Y-90832200D01*
X130939166Y-90751767D01*
X131502199Y-90349600D02*
X132145665Y-90349600D01*
X131743499Y-89786567D02*
X131743499Y-91234367D01*
X131823932Y-91395233D01*
X131984799Y-91475667D01*
X132145665Y-91475667D01*
X133352165Y-91395233D02*
X133191299Y-91475667D01*
X132869565Y-91475667D01*
X132708699Y-91395233D01*
X132628265Y-91234367D01*
X132628265Y-90590900D01*
X132708699Y-90430033D01*
X132869565Y-90349600D01*
X133191299Y-90349600D01*
X133352165Y-90430033D01*
X133432599Y-90590900D01*
X133432599Y-90751767D01*
X132628265Y-90912633D01*
X134156499Y-91475667D02*
X134156499Y-90349600D01*
X134156499Y-90671333D02*
X134236932Y-90510467D01*
X134317365Y-90430033D01*
X134478232Y-90349600D01*
X134639099Y-90349600D01*
X135202132Y-91475667D02*
X135202132Y-90349600D01*
X135202132Y-89786567D02*
X135121698Y-89867000D01*
X135202132Y-89947433D01*
X135282565Y-89867000D01*
X135202132Y-89786567D01*
X135202132Y-89947433D01*
X136006465Y-90349600D02*
X136006465Y-91475667D01*
X136006465Y-90510467D02*
X136086898Y-90430033D01*
X136247765Y-90349600D01*
X136489065Y-90349600D01*
X136649931Y-90430033D01*
X136730365Y-90590900D01*
X136730365Y-91475667D01*
X138258598Y-90349600D02*
X138258598Y-91716967D01*
X138178164Y-91877833D01*
X138097731Y-91958267D01*
X137936864Y-92038700D01*
X137695564Y-92038700D01*
X137534698Y-91958267D01*
X138258598Y-91395233D02*
X138097731Y-91475667D01*
X137775998Y-91475667D01*
X137615131Y-91395233D01*
X137534698Y-91314800D01*
X137454264Y-91153933D01*
X137454264Y-90671333D01*
X137534698Y-90510467D01*
X137615131Y-90430033D01*
X137775998Y-90349600D01*
X138097731Y-90349600D01*
X138258598Y-90430033D01*
X141073764Y-91475667D02*
X141073764Y-90590900D01*
X140993330Y-90430033D01*
X140832464Y-90349600D01*
X140510730Y-90349600D01*
X140349864Y-90430033D01*
X141073764Y-91395233D02*
X140912897Y-91475667D01*
X140510730Y-91475667D01*
X140349864Y-91395233D01*
X140269430Y-91234367D01*
X140269430Y-91073500D01*
X140349864Y-90912633D01*
X140510730Y-90832200D01*
X140912897Y-90832200D01*
X141073764Y-90751767D01*
X142119397Y-91475667D02*
X141958530Y-91395233D01*
X141878097Y-91234367D01*
X141878097Y-89786567D01*
X143486764Y-91475667D02*
X143486764Y-90590900D01*
X143406330Y-90430033D01*
X143245464Y-90349600D01*
X142923730Y-90349600D01*
X142762864Y-90430033D01*
X143486764Y-91395233D02*
X143325897Y-91475667D01*
X142923730Y-91475667D01*
X142762864Y-91395233D01*
X142682430Y-91234367D01*
X142682430Y-91073500D01*
X142762864Y-90912633D01*
X142923730Y-90832200D01*
X143325897Y-90832200D01*
X143486764Y-90751767D01*
X144291097Y-91475667D02*
X144291097Y-90349600D01*
X144291097Y-90671333D02*
X144371530Y-90510467D01*
X144451963Y-90430033D01*
X144612830Y-90349600D01*
X144773697Y-90349600D01*
X145336730Y-91475667D02*
X145336730Y-90349600D01*
X145336730Y-90510467D02*
X145417163Y-90430033D01*
X145578030Y-90349600D01*
X145819330Y-90349600D01*
X145980196Y-90430033D01*
X146060630Y-90590900D01*
X146060630Y-91475667D01*
X146060630Y-90590900D02*
X146141063Y-90430033D01*
X146301930Y-90349600D01*
X146543230Y-90349600D01*
X146704096Y-90430033D01*
X146784530Y-90590900D01*
X146784530Y-91475667D01*
X148714929Y-90349600D02*
X149117096Y-91475667D01*
X149519262Y-90349600D01*
X150162729Y-91314800D02*
X150243162Y-91395233D01*
X150162729Y-91475667D01*
X150082295Y-91395233D01*
X150162729Y-91314800D01*
X150162729Y-91475667D01*
X150886628Y-89947433D02*
X150967062Y-89867000D01*
X151127928Y-89786567D01*
X151530095Y-89786567D01*
X151690962Y-89867000D01*
X151771395Y-89947433D01*
X151851828Y-90108300D01*
X151851828Y-90269167D01*
X151771395Y-90510467D01*
X150806195Y-91475667D01*
X151851828Y-91475667D01*
X152575729Y-91314800D02*
X152656162Y-91395233D01*
X152575729Y-91475667D01*
X152495295Y-91395233D01*
X152575729Y-91314800D01*
X152575729Y-91475667D01*
X154103962Y-90349600D02*
X154103962Y-91475667D01*
X153701795Y-89706133D02*
X153299628Y-90912633D01*
X154345262Y-90912633D01*
D14*
X120482833Y-102286753D02*
X120482833Y-100935473D01*
X121061953Y-102286753D02*
X121061953Y-101578940D01*
X120997607Y-101450247D01*
X120868913Y-101385900D01*
X120675873Y-101385900D01*
X120547180Y-101450247D01*
X120482833Y-101514593D01*
X121512380Y-101385900D02*
X122027154Y-101385900D01*
X121705420Y-100935473D02*
X121705420Y-102093713D01*
X121769767Y-102222407D01*
X121898460Y-102286753D01*
X122027154Y-102286753D01*
X122284540Y-101385900D02*
X122799314Y-101385900D01*
X122477580Y-100935473D02*
X122477580Y-102093713D01*
X122541927Y-102222407D01*
X122670620Y-102286753D01*
X122799314Y-102286753D01*
X123249740Y-101385900D02*
X123249740Y-102737180D01*
X123249740Y-101450247D02*
X123378434Y-101385900D01*
X123635820Y-101385900D01*
X123764514Y-101450247D01*
X123828860Y-101514593D01*
X123893207Y-101643287D01*
X123893207Y-102029367D01*
X123828860Y-102158060D01*
X123764514Y-102222407D01*
X123635820Y-102286753D01*
X123378434Y-102286753D01*
X123249740Y-102222407D01*
X124472327Y-102158060D02*
X124536674Y-102222407D01*
X124472327Y-102286753D01*
X124407981Y-102222407D01*
X124472327Y-102158060D01*
X124472327Y-102286753D01*
X124472327Y-101450247D02*
X124536674Y-101514593D01*
X124472327Y-101578940D01*
X124407981Y-101514593D01*
X124472327Y-101450247D01*
X124472327Y-101578940D01*
X126080994Y-100871127D02*
X124922754Y-102608487D01*
X127496621Y-100871127D02*
X126338381Y-102608487D01*
X127818355Y-101385900D02*
X128075742Y-102286753D01*
X128333128Y-101643287D01*
X128590515Y-102286753D01*
X128847902Y-101385900D01*
X129877449Y-102222407D02*
X129748755Y-102286753D01*
X129491369Y-102286753D01*
X129362675Y-102222407D01*
X129298329Y-102093713D01*
X129298329Y-101578940D01*
X129362675Y-101450247D01*
X129491369Y-101385900D01*
X129748755Y-101385900D01*
X129877449Y-101450247D01*
X129941795Y-101578940D01*
X129941795Y-101707633D01*
X129298329Y-101836327D01*
X130520915Y-102286753D02*
X130520915Y-101385900D01*
X130520915Y-101514593D02*
X130585262Y-101450247D01*
X130713955Y-101385900D01*
X130906995Y-101385900D01*
X131035689Y-101450247D01*
X131100035Y-101578940D01*
X131100035Y-102286753D01*
X131100035Y-101578940D02*
X131164382Y-101450247D01*
X131293075Y-101385900D01*
X131486115Y-101385900D01*
X131614809Y-101450247D01*
X131679155Y-101578940D01*
X131679155Y-102286753D01*
X132901742Y-102286753D02*
X132901742Y-101578940D01*
X132837396Y-101450247D01*
X132708702Y-101385900D01*
X132451316Y-101385900D01*
X132322622Y-101450247D01*
X132901742Y-102222407D02*
X132773049Y-102286753D01*
X132451316Y-102286753D01*
X132322622Y-102222407D01*
X132258276Y-102093713D01*
X132258276Y-101965020D01*
X132322622Y-101836327D01*
X132451316Y-101771980D01*
X132773049Y-101771980D01*
X132901742Y-101707633D01*
X133545209Y-102286753D02*
X133545209Y-100935473D01*
X133673903Y-101771980D02*
X134059983Y-102286753D01*
X134059983Y-101385900D02*
X133545209Y-101900673D01*
X135153876Y-102222407D02*
X135025182Y-102286753D01*
X134767796Y-102286753D01*
X134639102Y-102222407D01*
X134574756Y-102093713D01*
X134574756Y-101578940D01*
X134639102Y-101450247D01*
X134767796Y-101385900D01*
X135025182Y-101385900D01*
X135153876Y-101450247D01*
X135218222Y-101578940D01*
X135218222Y-101707633D01*
X134574756Y-101836327D01*
X135604302Y-101385900D02*
X136119076Y-101385900D01*
X135797342Y-100935473D02*
X135797342Y-102093713D01*
X135861689Y-102222407D01*
X135990382Y-102286753D01*
X136119076Y-102286753D01*
X136569502Y-102286753D02*
X136569502Y-100935473D01*
X137148622Y-102286753D02*
X137148622Y-101578940D01*
X137084276Y-101450247D01*
X136955582Y-101385900D01*
X136762542Y-101385900D01*
X136633849Y-101450247D01*
X136569502Y-101514593D01*
X137792089Y-102286753D02*
X137792089Y-101385900D01*
X137792089Y-100935473D02*
X137727743Y-100999820D01*
X137792089Y-101064167D01*
X137856436Y-100999820D01*
X137792089Y-100935473D01*
X137792089Y-101064167D01*
X138435556Y-101385900D02*
X138435556Y-102286753D01*
X138435556Y-101514593D02*
X138499903Y-101450247D01*
X138628596Y-101385900D01*
X138821636Y-101385900D01*
X138950330Y-101450247D01*
X139014676Y-101578940D01*
X139014676Y-102286753D01*
X140237263Y-101385900D02*
X140237263Y-102479793D01*
X140172917Y-102608487D01*
X140108570Y-102672833D01*
X139979877Y-102737180D01*
X139786837Y-102737180D01*
X139658143Y-102672833D01*
X140237263Y-102222407D02*
X140108570Y-102286753D01*
X139851183Y-102286753D01*
X139722490Y-102222407D01*
X139658143Y-102158060D01*
X139593797Y-102029367D01*
X139593797Y-101643287D01*
X139658143Y-101514593D01*
X139722490Y-101450247D01*
X139851183Y-101385900D01*
X140108570Y-101385900D01*
X140237263Y-101450247D01*
X140816384Y-102222407D02*
X140945077Y-102286753D01*
X141202464Y-102286753D01*
X141331157Y-102222407D01*
X141395504Y-102093713D01*
X141395504Y-102029367D01*
X141331157Y-101900673D01*
X141202464Y-101836327D01*
X141009424Y-101836327D01*
X140880730Y-101771980D01*
X140816384Y-101643287D01*
X140816384Y-101578940D01*
X140880730Y-101450247D01*
X141009424Y-101385900D01*
X141202464Y-101385900D01*
X141331157Y-101450247D01*
X141974623Y-102158060D02*
X142038970Y-102222407D01*
X141974623Y-102286753D01*
X141910277Y-102222407D01*
X141974623Y-102158060D01*
X141974623Y-102286753D01*
X142618090Y-101385900D02*
X142618090Y-102286753D01*
X142618090Y-101514593D02*
X142682437Y-101450247D01*
X142811130Y-101385900D01*
X143004170Y-101385900D01*
X143132864Y-101450247D01*
X143197210Y-101578940D01*
X143197210Y-102286753D01*
X144355451Y-102222407D02*
X144226757Y-102286753D01*
X143969371Y-102286753D01*
X143840677Y-102222407D01*
X143776331Y-102093713D01*
X143776331Y-101578940D01*
X143840677Y-101450247D01*
X143969371Y-101385900D01*
X144226757Y-101385900D01*
X144355451Y-101450247D01*
X144419797Y-101578940D01*
X144419797Y-101707633D01*
X143776331Y-101836327D01*
X144805877Y-101385900D02*
X145320651Y-101385900D01*
X144998917Y-100935473D02*
X144998917Y-102093713D01*
X145063264Y-102222407D01*
X145191957Y-102286753D01*
X145320651Y-102286753D01*
X146736277Y-100871127D02*
X145578037Y-102608487D01*
X147765824Y-102222407D02*
X147637131Y-102286753D01*
X147379744Y-102286753D01*
X147251051Y-102222407D01*
X147186704Y-102158060D01*
X147122358Y-102029367D01*
X147122358Y-101643287D01*
X147186704Y-101514593D01*
X147251051Y-101450247D01*
X147379744Y-101385900D01*
X147637131Y-101385900D01*
X147765824Y-101450247D01*
X148344944Y-102286753D02*
X148344944Y-100935473D01*
X148924064Y-102286753D02*
X148924064Y-101578940D01*
X148859718Y-101450247D01*
X148731024Y-101385900D01*
X148537984Y-101385900D01*
X148409291Y-101450247D01*
X148344944Y-101514593D01*
X149567531Y-102286753D02*
X149567531Y-101385900D01*
X149567531Y-100935473D02*
X149503185Y-100999820D01*
X149567531Y-101064167D01*
X149631878Y-100999820D01*
X149567531Y-100935473D01*
X149567531Y-101064167D01*
X150210998Y-102286753D02*
X150210998Y-101385900D01*
X150210998Y-101643287D02*
X150275345Y-101514593D01*
X150339692Y-101450247D01*
X150468385Y-101385900D01*
X150597078Y-101385900D01*
X151047505Y-101385900D02*
X151047505Y-102737180D01*
X151047505Y-101450247D02*
X151176199Y-101385900D01*
X151433585Y-101385900D01*
X151562279Y-101450247D01*
X151626625Y-101514593D01*
X151690972Y-101643287D01*
X151690972Y-102029367D01*
X151626625Y-102158060D01*
X151562279Y-102222407D01*
X151433585Y-102286753D01*
X151176199Y-102286753D01*
X151047505Y-102222407D01*
D11*
X110001100Y-105016100D02*
X110001100Y-118986100D01*
D12*
X120796100Y-112001100D02*
X113176100Y-112001100D01*
X113176100Y-112001100D02*
X114446100Y-110731100D01*
X113176100Y-112001100D02*
X114446100Y-113271100D01*
X157626100Y-112001100D02*
X164611100Y-112001100D01*
X164611100Y-112001100D02*
X163341100Y-110731100D01*
X164611100Y-112001100D02*
X163341100Y-113271100D01*
D13*
X124373267Y-111429600D02*
X124373267Y-113118700D01*
X124373267Y-111510033D02*
X124534133Y-111429600D01*
X124855867Y-111429600D01*
X125016733Y-111510033D01*
X125097167Y-111590467D01*
X125177600Y-111751333D01*
X125177600Y-112233933D01*
X125097167Y-112394800D01*
X125016733Y-112475233D01*
X124855867Y-112555667D01*
X124534133Y-112555667D01*
X124373267Y-112475233D01*
X126625400Y-111429600D02*
X126625400Y-112555667D01*
X125901500Y-111429600D02*
X125901500Y-112314367D01*
X125981933Y-112475233D01*
X126142800Y-112555667D01*
X126384100Y-112555667D01*
X126544966Y-112475233D01*
X126625400Y-112394800D01*
X127188433Y-111429600D02*
X127831899Y-111429600D01*
X127429733Y-110866567D02*
X127429733Y-112314367D01*
X127510166Y-112475233D01*
X127671033Y-112555667D01*
X127831899Y-112555667D01*
X129440566Y-111429600D02*
X130084032Y-111429600D01*
X129681866Y-110866567D02*
X129681866Y-112314367D01*
X129762299Y-112475233D01*
X129923166Y-112555667D01*
X130084032Y-112555667D01*
X130647066Y-112555667D02*
X130647066Y-110866567D01*
X131370966Y-112555667D02*
X131370966Y-111670900D01*
X131290532Y-111510033D01*
X131129666Y-111429600D01*
X130888366Y-111429600D01*
X130727499Y-111510033D01*
X130647066Y-111590467D01*
X132175299Y-112555667D02*
X132175299Y-111429600D01*
X132175299Y-110866567D02*
X132094865Y-110947000D01*
X132175299Y-111027433D01*
X132255732Y-110947000D01*
X132175299Y-110866567D01*
X132175299Y-111027433D01*
X132899198Y-112475233D02*
X133060065Y-112555667D01*
X133381798Y-112555667D01*
X133542665Y-112475233D01*
X133623098Y-112314367D01*
X133623098Y-112233933D01*
X133542665Y-112073067D01*
X133381798Y-111992633D01*
X133140498Y-111992633D01*
X132979632Y-111912200D01*
X132899198Y-111751333D01*
X132899198Y-111670900D01*
X132979632Y-111510033D01*
X133140498Y-111429600D01*
X133381798Y-111429600D01*
X133542665Y-111510033D01*
X135633932Y-111429600D02*
X135633932Y-113118700D01*
X135633932Y-111510033D02*
X135794798Y-111429600D01*
X136116532Y-111429600D01*
X136277398Y-111510033D01*
X136357832Y-111590467D01*
X136438265Y-111751333D01*
X136438265Y-112233933D01*
X136357832Y-112394800D01*
X136277398Y-112475233D01*
X136116532Y-112555667D01*
X135794798Y-112555667D01*
X135633932Y-112475233D01*
X137886065Y-112555667D02*
X137886065Y-111670900D01*
X137805631Y-111510033D01*
X137644765Y-111429600D01*
X137323031Y-111429600D01*
X137162165Y-111510033D01*
X137886065Y-112475233D02*
X137725198Y-112555667D01*
X137323031Y-112555667D01*
X137162165Y-112475233D01*
X137081731Y-112314367D01*
X137081731Y-112153500D01*
X137162165Y-111992633D01*
X137323031Y-111912200D01*
X137725198Y-111912200D01*
X137886065Y-111831767D01*
X138690398Y-112555667D02*
X138690398Y-111429600D01*
X138690398Y-111751333D02*
X138770831Y-111590467D01*
X138851264Y-111510033D01*
X139012131Y-111429600D01*
X139172998Y-111429600D01*
X139494731Y-111429600D02*
X140138197Y-111429600D01*
X139736031Y-110866567D02*
X139736031Y-112314367D01*
X139816464Y-112475233D01*
X139977331Y-112555667D01*
X140138197Y-112555667D01*
X141746864Y-111429600D02*
X142390330Y-111429600D01*
X141988164Y-110866567D02*
X141988164Y-112314367D01*
X142068597Y-112475233D01*
X142229464Y-112555667D01*
X142390330Y-112555667D01*
X143194664Y-112555667D02*
X143033797Y-112475233D01*
X142953364Y-112394800D01*
X142872930Y-112233933D01*
X142872930Y-111751333D01*
X142953364Y-111590467D01*
X143033797Y-111510033D01*
X143194664Y-111429600D01*
X143435964Y-111429600D01*
X143596830Y-111510033D01*
X143677264Y-111590467D01*
X143757697Y-111751333D01*
X143757697Y-112233933D01*
X143677264Y-112394800D01*
X143596830Y-112475233D01*
X143435964Y-112555667D01*
X143194664Y-112555667D01*
X145688096Y-112475233D02*
X145848963Y-112555667D01*
X146170696Y-112555667D01*
X146331563Y-112475233D01*
X146411996Y-112314367D01*
X146411996Y-112233933D01*
X146331563Y-112073067D01*
X146170696Y-111992633D01*
X145929396Y-111992633D01*
X145768530Y-111912200D01*
X145688096Y-111751333D01*
X145688096Y-111670900D01*
X145768530Y-111510033D01*
X145929396Y-111429600D01*
X146170696Y-111429600D01*
X146331563Y-111510033D01*
X147377197Y-112555667D02*
X147216330Y-112475233D01*
X147135897Y-112394800D01*
X147055463Y-112233933D01*
X147055463Y-111751333D01*
X147135897Y-111590467D01*
X147216330Y-111510033D01*
X147377197Y-111429600D01*
X147618497Y-111429600D01*
X147779363Y-111510033D01*
X147859797Y-111590467D01*
X147940230Y-111751333D01*
X147940230Y-112233933D01*
X147859797Y-112394800D01*
X147779363Y-112475233D01*
X147618497Y-112555667D01*
X147377197Y-112555667D01*
X148664130Y-112555667D02*
X148664130Y-111429600D01*
X148664130Y-110866567D02*
X148583696Y-110947000D01*
X148664130Y-111027433D01*
X148744563Y-110947000D01*
X148664130Y-110866567D01*
X148664130Y-111027433D01*
X149709763Y-112555667D02*
X149548896Y-112475233D01*
X149468463Y-112314367D01*
X149468463Y-110866567D01*
X120563267Y-107475667D02*
X120563267Y-105786567D01*
X121206733Y-105786567D01*
X121367600Y-105867000D01*
X121448033Y-105947433D01*
X121528467Y-106108300D01*
X121528467Y-106349600D01*
X121448033Y-106510467D01*
X121367600Y-106590900D01*
X121206733Y-106671333D01*
X120563267Y-106671333D01*
X122493667Y-107475667D02*
X122332800Y-107395233D01*
X122252367Y-107234367D01*
X122252367Y-105786567D01*
X123861034Y-107475667D02*
X123861034Y-106590900D01*
X123780600Y-106430033D01*
X123619734Y-106349600D01*
X123298000Y-106349600D01*
X123137134Y-106430033D01*
X123861034Y-107395233D02*
X123700167Y-107475667D01*
X123298000Y-107475667D01*
X123137134Y-107395233D01*
X123056700Y-107234367D01*
X123056700Y-107073500D01*
X123137134Y-106912633D01*
X123298000Y-106832200D01*
X123700167Y-106832200D01*
X123861034Y-106751767D01*
X124665367Y-106349600D02*
X124665367Y-107475667D01*
X124665367Y-106510467D02*
X124745800Y-106430033D01*
X124906667Y-106349600D01*
X125147967Y-106349600D01*
X125308833Y-106430033D01*
X125389267Y-106590900D01*
X125389267Y-107475667D01*
X125952300Y-106349600D02*
X126595766Y-106349600D01*
X126193600Y-105786567D02*
X126193600Y-107234367D01*
X126274033Y-107395233D01*
X126434900Y-107475667D01*
X126595766Y-107475667D01*
X128284866Y-106349600D02*
X128606599Y-107475667D01*
X128928333Y-106671333D01*
X129250066Y-107475667D01*
X129571799Y-106349600D01*
X130939166Y-107475667D02*
X130939166Y-106590900D01*
X130858732Y-106430033D01*
X130697866Y-106349600D01*
X130376132Y-106349600D01*
X130215266Y-106430033D01*
X130939166Y-107395233D02*
X130778299Y-107475667D01*
X130376132Y-107475667D01*
X130215266Y-107395233D01*
X130134832Y-107234367D01*
X130134832Y-107073500D01*
X130215266Y-106912633D01*
X130376132Y-106832200D01*
X130778299Y-106832200D01*
X130939166Y-106751767D01*
X131502199Y-106349600D02*
X132145665Y-106349600D01*
X131743499Y-105786567D02*
X131743499Y-107234367D01*
X131823932Y-107395233D01*
X131984799Y-107475667D01*
X132145665Y-107475667D01*
X133352165Y-107395233D02*
X133191299Y-107475667D01*
X132869565Y-107475667D01*
X132708699Y-107395233D01*
X132628265Y-107234367D01*
X132628265Y-106590900D01*
X132708699Y-106430033D01*
X132869565Y-106349600D01*
X133191299Y-106349600D01*
X133352165Y-106430033D01*
X133432599Y-106590900D01*
X133432599Y-106751767D01*
X132628265Y-106912633D01*
X134156499Y-107475667D02*
X134156499Y-106349600D01*
X134156499Y-106671333D02*
X134236932Y-106510467D01*
X134317365Y-106430033D01*
X134478232Y-106349600D01*
X134639099Y-106349600D01*
X135202132Y-107475667D02*
X135202132Y-106349600D01*
X135202132Y-105786567D02*
X135121698Y-105867000D01*
X135202132Y-105947433D01*
X135282565Y-105867000D01*
X135202132Y-105786567D01*
X135202132Y-105947433D01*
X136006465Y-106349600D02*
X136006465Y-107475667D01*
X136006465Y-106510467D02*
X136086898Y-106430033D01*
X136247765Y-106349600D01*
X136489065Y-106349600D01*
X136649931Y-106430033D01*
X136730365Y-106590900D01*
X136730365Y-107475667D01*
X138258598Y-106349600D02*
X138258598Y-107716967D01*
X138178164Y-107877833D01*
X138097731Y-107958267D01*
X137936864Y-108038700D01*
X137695564Y-108038700D01*
X137534698Y-107958267D01*
X138258598Y-107395233D02*
X138097731Y-107475667D01*
X137775998Y-107475667D01*
X137615131Y-107395233D01*
X137534698Y-107314800D01*
X137454264Y-107153933D01*
X137454264Y-106671333D01*
X137534698Y-106510467D01*
X137615131Y-106430033D01*
X137775998Y-106349600D01*
X138097731Y-106349600D01*
X138258598Y-106430033D01*
X141073764Y-107475667D02*
X141073764Y-106590900D01*
X140993330Y-106430033D01*
X140832464Y-106349600D01*
X140510730Y-106349600D01*
X140349864Y-106430033D01*
X141073764Y-107395233D02*
X140912897Y-107475667D01*
X140510730Y-107475667D01*
X140349864Y-107395233D01*
X140269430Y-107234367D01*
X140269430Y-107073500D01*
X140349864Y-106912633D01*
X140510730Y-106832200D01*
X140912897Y-106832200D01*
X141073764Y-106751767D01*
X142119397Y-107475667D02*
X141958530Y-107395233D01*
X141878097Y-107234367D01*
X141878097Y-105786567D01*
X143486764Y-107475667D02*
X143486764Y-106590900D01*
X143406330Y-106430033D01*
X143245464Y-106349600D01*
X142923730Y-106349600D01*
X142762864Y-106430033D01*
X143486764Y-107395233D02*
X143325897Y-107475667D01*
X142923730Y-107475667D01*
X142762864Y-107395233D01*
X142682430Y-107234367D01*
X142682430Y-107073500D01*
X142762864Y-106912633D01*
X142923730Y-106832200D01*
X143325897Y-106832200D01*
X143486764Y-106751767D01*
X144291097Y-107475667D02*
X144291097Y-106349600D01*
X144291097Y-106671333D02*
X144371530Y-106510467D01*
X144451963Y-106430033D01*
X144612830Y-106349600D01*
X144773697Y-106349600D01*
X145336730Y-107475667D02*
X145336730Y-106349600D01*
X145336730Y-106510467D02*
X145417163Y-106430033D01*
X145578030Y-106349600D01*
X145819330Y-106349600D01*
X145980196Y-106430033D01*
X146060630Y-106590900D01*
X146060630Y-107475667D01*
X146060630Y-106590900D02*
X146141063Y-106430033D01*
X146301930Y-106349600D01*
X146543230Y-106349600D01*
X146704096Y-106430033D01*
X146784530Y-106590900D01*
X146784530Y-107475667D01*
X148714929Y-106349600D02*
X149117096Y-107475667D01*
X149519262Y-106349600D01*
X150162729Y-107314800D02*
X150243162Y-107395233D01*
X150162729Y-107475667D01*
X150082295Y-107395233D01*
X150162729Y-107314800D01*
X150162729Y-107475667D01*
X150886628Y-105947433D02*
X150967062Y-105867000D01*
X151127928Y-105786567D01*
X151530095Y-105786567D01*
X151690962Y-105867000D01*
X151771395Y-105947433D01*
X151851828Y-106108300D01*
X151851828Y-106269167D01*
X151771395Y-106510467D01*
X150806195Y-107475667D01*
X151851828Y-107475667D01*
X152575729Y-107314800D02*
X152656162Y-107395233D01*
X152575729Y-107475667D01*
X152495295Y-107395233D01*
X152575729Y-107314800D01*
X152575729Y-107475667D01*
X154103962Y-106349600D02*
X154103962Y-107475667D01*
X153701795Y-105706133D02*
X153299628Y-106912633D01*
X154345262Y-106912633D01*
D14*
X120482833Y-118286753D02*
X120482833Y-116935473D01*
X121061953Y-118286753D02*
X121061953Y-117578940D01*
X120997607Y-117450247D01*
X120868913Y-117385900D01*
X120675873Y-117385900D01*
X120547180Y-117450247D01*
X120482833Y-117514593D01*
X121512380Y-117385900D02*
X122027154Y-117385900D01*
X121705420Y-116935473D02*
X121705420Y-118093713D01*
X121769767Y-118222407D01*
X121898460Y-118286753D01*
X122027154Y-118286753D01*
X122284540Y-117385900D02*
X122799314Y-117385900D01*
X122477580Y-116935473D02*
X122477580Y-118093713D01*
X122541927Y-118222407D01*
X122670620Y-118286753D01*
X122799314Y-118286753D01*
X123249740Y-117385900D02*
X123249740Y-118737180D01*
X123249740Y-117450247D02*
X123378434Y-117385900D01*
X123635820Y-117385900D01*
X123764514Y-117450247D01*
X123828860Y-117514593D01*
X123893207Y-117643287D01*
X123893207Y-118029367D01*
X123828860Y-118158060D01*
X123764514Y-118222407D01*
X123635820Y-118286753D01*
X123378434Y-118286753D01*
X123249740Y-118222407D01*
X124472327Y-118158060D02*
X124536674Y-118222407D01*
X124472327Y-118286753D01*
X124407981Y-118222407D01*
X124472327Y-118158060D01*
X124472327Y-118286753D01*
X124472327Y-117450247D02*
X124536674Y-117514593D01*
X124472327Y-117578940D01*
X124407981Y-117514593D01*
X124472327Y-117450247D01*
X124472327Y-117578940D01*
X126080994Y-116871127D02*
X124922754Y-118608487D01*
X127496621Y-116871127D02*
X126338381Y-118608487D01*
X127818355Y-117385900D02*
X128075742Y-118286753D01*
X128333128Y-117643287D01*
X128590515Y-118286753D01*
X128847902Y-117385900D01*
X129877449Y-118222407D02*
X129748755Y-118286753D01*
X129491369Y-118286753D01*
X129362675Y-118222407D01*
X129298329Y-118093713D01*
X129298329Y-117578940D01*
X129362675Y-117450247D01*
X129491369Y-117385900D01*
X129748755Y-117385900D01*
X129877449Y-117450247D01*
X129941795Y-117578940D01*
X129941795Y-117707633D01*
X129298329Y-117836327D01*
X130520915Y-118286753D02*
X130520915Y-117385900D01*
X130520915Y-117514593D02*
X130585262Y-117450247D01*
X130713955Y-117385900D01*
X130906995Y-117385900D01*
X131035689Y-117450247D01*
X131100035Y-117578940D01*
X131100035Y-118286753D01*
X131100035Y-117578940D02*
X131164382Y-117450247D01*
X131293075Y-117385900D01*
X131486115Y-117385900D01*
X131614809Y-117450247D01*
X131679155Y-117578940D01*
X131679155Y-118286753D01*
X132901742Y-118286753D02*
X132901742Y-117578940D01*
X132837396Y-117450247D01*
X132708702Y-117385900D01*
X132451316Y-117385900D01*
X132322622Y-117450247D01*
X132901742Y-118222407D02*
X132773049Y-118286753D01*
X132451316Y-118286753D01*
X132322622Y-118222407D01*
X132258276Y-118093713D01*
X132258276Y-117965020D01*
X132322622Y-117836327D01*
X132451316Y-117771980D01*
X132773049Y-117771980D01*
X132901742Y-117707633D01*
X133545209Y-118286753D02*
X133545209Y-116935473D01*
X133673903Y-117771980D02*
X134059983Y-118286753D01*
X134059983Y-117385900D02*
X133545209Y-117900673D01*
X135153876Y-118222407D02*
X135025182Y-118286753D01*
X134767796Y-118286753D01*
X134639102Y-118222407D01*
X134574756Y-118093713D01*
X134574756Y-117578940D01*
X134639102Y-117450247D01*
X134767796Y-117385900D01*
X135025182Y-117385900D01*
X135153876Y-117450247D01*
X135218222Y-117578940D01*
X135218222Y-117707633D01*
X134574756Y-117836327D01*
X135604302Y-117385900D02*
X136119076Y-117385900D01*
X135797342Y-116935473D02*
X135797342Y-118093713D01*
X135861689Y-118222407D01*
X135990382Y-118286753D01*
X136119076Y-118286753D01*
X136569502Y-118286753D02*
X136569502Y-116935473D01*
X137148622Y-118286753D02*
X137148622Y-117578940D01*
X137084276Y-117450247D01*
X136955582Y-117385900D01*
X136762542Y-117385900D01*
X136633849Y-117450247D01*
X136569502Y-117514593D01*
X137792089Y-118286753D02*
X137792089Y-117385900D01*
X137792089Y-116935473D02*
X137727743Y-116999820D01*
X137792089Y-117064167D01*
X137856436Y-116999820D01*
X137792089Y-116935473D01*
X137792089Y-117064167D01*
X138435556Y-117385900D02*
X138435556Y-118286753D01*
X138435556Y-117514593D02*
X138499903Y-117450247D01*
X138628596Y-117385900D01*
X138821636Y-117385900D01*
X138950330Y-117450247D01*
X139014676Y-117578940D01*
X139014676Y-118286753D01*
X140237263Y-117385900D02*
X140237263Y-118479793D01*
X140172917Y-118608487D01*
X140108570Y-118672833D01*
X139979877Y-118737180D01*
X139786837Y-118737180D01*
X139658143Y-118672833D01*
X140237263Y-118222407D02*
X140108570Y-118286753D01*
X139851183Y-118286753D01*
X139722490Y-118222407D01*
X139658143Y-118158060D01*
X139593797Y-118029367D01*
X139593797Y-117643287D01*
X139658143Y-117514593D01*
X139722490Y-117450247D01*
X139851183Y-117385900D01*
X140108570Y-117385900D01*
X140237263Y-117450247D01*
X140816384Y-118222407D02*
X140945077Y-118286753D01*
X141202464Y-118286753D01*
X141331157Y-118222407D01*
X141395504Y-118093713D01*
X141395504Y-118029367D01*
X141331157Y-117900673D01*
X141202464Y-117836327D01*
X141009424Y-117836327D01*
X140880730Y-117771980D01*
X140816384Y-117643287D01*
X140816384Y-117578940D01*
X140880730Y-117450247D01*
X141009424Y-117385900D01*
X141202464Y-117385900D01*
X141331157Y-117450247D01*
X141974623Y-118158060D02*
X142038970Y-118222407D01*
X141974623Y-118286753D01*
X141910277Y-118222407D01*
X141974623Y-118158060D01*
X141974623Y-118286753D01*
X142618090Y-117385900D02*
X142618090Y-118286753D01*
X142618090Y-117514593D02*
X142682437Y-117450247D01*
X142811130Y-117385900D01*
X143004170Y-117385900D01*
X143132864Y-117450247D01*
X143197210Y-117578940D01*
X143197210Y-118286753D01*
X144355451Y-118222407D02*
X144226757Y-118286753D01*
X143969371Y-118286753D01*
X143840677Y-118222407D01*
X143776331Y-118093713D01*
X143776331Y-117578940D01*
X143840677Y-117450247D01*
X143969371Y-117385900D01*
X144226757Y-117385900D01*
X144355451Y-117450247D01*
X144419797Y-117578940D01*
X144419797Y-117707633D01*
X143776331Y-117836327D01*
X144805877Y-117385900D02*
X145320651Y-117385900D01*
X144998917Y-116935473D02*
X144998917Y-118093713D01*
X145063264Y-118222407D01*
X145191957Y-118286753D01*
X145320651Y-118286753D01*
X146736277Y-116871127D02*
X145578037Y-118608487D01*
X147765824Y-118222407D02*
X147637131Y-118286753D01*
X147379744Y-118286753D01*
X147251051Y-118222407D01*
X147186704Y-118158060D01*
X147122358Y-118029367D01*
X147122358Y-117643287D01*
X147186704Y-117514593D01*
X147251051Y-117450247D01*
X147379744Y-117385900D01*
X147637131Y-117385900D01*
X147765824Y-117450247D01*
X148344944Y-118286753D02*
X148344944Y-116935473D01*
X148924064Y-118286753D02*
X148924064Y-117578940D01*
X148859718Y-117450247D01*
X148731024Y-117385900D01*
X148537984Y-117385900D01*
X148409291Y-117450247D01*
X148344944Y-117514593D01*
X149567531Y-118286753D02*
X149567531Y-117385900D01*
X149567531Y-116935473D02*
X149503185Y-116999820D01*
X149567531Y-117064167D01*
X149631878Y-116999820D01*
X149567531Y-116935473D01*
X149567531Y-117064167D01*
X150210998Y-118286753D02*
X150210998Y-117385900D01*
X150210998Y-117643287D02*
X150275345Y-117514593D01*
X150339692Y-117450247D01*
X150468385Y-117385900D01*
X150597078Y-117385900D01*
X151047505Y-117385900D02*
X151047505Y-118737180D01*
X151047505Y-117450247D02*
X151176199Y-117385900D01*
X151433585Y-117385900D01*
X151562279Y-117450247D01*
X151626625Y-117514593D01*
X151690972Y-117643287D01*
X151690972Y-118029367D01*
X151626625Y-118158060D01*
X151562279Y-118222407D01*
X151433585Y-118286753D01*
X151176199Y-118286753D01*
X151047505Y-118222407D01*
D10*
G36*
X49193500Y-43175100D02*
X49650700Y-43175100D01*
X49650700Y-42413100D01*
X49193500Y-42413100D01*
X49193500Y-43175100D01*
G37*
D15*
X54121100Y-43525600D02*
X54121100Y-43586600D01*
D10*
G36*
X48812500Y-48382100D02*
X49269700Y-48382100D01*
X49269700Y-47620100D01*
X48812500Y-47620100D01*
X48812500Y-48382100D01*
G37*
G36*
X68726100Y-52981100D02*
X68726100Y-53181100D01*
X68926100Y-53181100D01*
X68926100Y-52981100D01*
X68726100Y-52981100D01*
G37*
D16*
X71469300Y-48775800D02*
G75*
G03X71469300Y-48775800I-533400J0D01*
G01*
D17*
X54311600Y-51176100D02*
X53930600Y-51176100D01*
X52660600Y-51557100D02*
X52660600Y-52446100D01*
X52660600Y-52446100D02*
X53422600Y-52446100D01*
X54819600Y-52446100D02*
X55581600Y-52446100D01*
X55581600Y-52446100D02*
X55581600Y-51557100D01*
D10*
G36*
X53892500Y-49017100D02*
X54349700Y-49017100D01*
X54349700Y-48255100D01*
X53892500Y-48255100D01*
X53892500Y-49017100D01*
G37*
D15*
X68726100Y-50571600D02*
X68726100Y-50510600D01*
X66821100Y-46761600D02*
X66821100Y-46700600D01*
D10*
G36*
X82289700Y-46985100D02*
X81832500Y-46985100D01*
X81832500Y-47747100D01*
X82289700Y-47747100D01*
X82289700Y-46985100D01*
G37*
D15*
X82061100Y-42255600D02*
X82061100Y-42316600D01*
D10*
G36*
X72129700Y-41905100D02*
X71672500Y-41905100D01*
X71672500Y-42667100D01*
X72129700Y-42667100D01*
X72129700Y-41905100D01*
G37*
G36*
X64763700Y-52700100D02*
X64306500Y-52700100D01*
X64306500Y-53462100D01*
X64763700Y-53462100D01*
X64763700Y-52700100D01*
G37*
G36*
X68726100Y-68981100D02*
X68726100Y-69181100D01*
X68926100Y-69181100D01*
X68926100Y-68981100D01*
X68726100Y-68981100D01*
G37*
D16*
X71469300Y-64775800D02*
G75*
G03X71469300Y-64775800I-533400J0D01*
G01*
D17*
X54311600Y-67176100D02*
X53930600Y-67176100D01*
X52660600Y-67557100D02*
X52660600Y-68446100D01*
X52660600Y-68446100D02*
X53422600Y-68446100D01*
X54819600Y-68446100D02*
X55581600Y-68446100D01*
X55581600Y-68446100D02*
X55581600Y-67557100D01*
D10*
G36*
X53892500Y-65017100D02*
X54349700Y-65017100D01*
X54349700Y-64255100D01*
X53892500Y-64255100D01*
X53892500Y-65017100D01*
G37*
G36*
X48812500Y-64382100D02*
X49269700Y-64382100D01*
X49269700Y-63620100D01*
X48812500Y-63620100D01*
X48812500Y-64382100D01*
G37*
D15*
X68726100Y-66571600D02*
X68726100Y-66510600D01*
D10*
G36*
X49193500Y-59175100D02*
X49650700Y-59175100D01*
X49650700Y-58413100D01*
X49193500Y-58413100D01*
X49193500Y-59175100D01*
G37*
D15*
X66821100Y-62761600D02*
X66821100Y-62700600D01*
D10*
G36*
X82289700Y-62985100D02*
X81832500Y-62985100D01*
X81832500Y-63747100D01*
X82289700Y-63747100D01*
X82289700Y-62985100D01*
G37*
D15*
X82061100Y-58255600D02*
X82061100Y-58316600D01*
D10*
G36*
X72129700Y-57905100D02*
X71672500Y-57905100D01*
X71672500Y-58667100D01*
X72129700Y-58667100D01*
X72129700Y-57905100D01*
G37*
G36*
X64763700Y-68700100D02*
X64306500Y-68700100D01*
X64306500Y-69462100D01*
X64763700Y-69462100D01*
X64763700Y-68700100D01*
G37*
D15*
X54121100Y-59525600D02*
X54121100Y-59586600D01*
D10*
G36*
X68726100Y-84981100D02*
X68726100Y-85181100D01*
X68926100Y-85181100D01*
X68926100Y-84981100D01*
X68726100Y-84981100D01*
G37*
D16*
X71469300Y-80775800D02*
G75*
G03X71469300Y-80775800I-533400J0D01*
G01*
D17*
X54311600Y-83176100D02*
X53930600Y-83176100D01*
X52660600Y-83557100D02*
X52660600Y-84446100D01*
X52660600Y-84446100D02*
X53422600Y-84446100D01*
X54819600Y-84446100D02*
X55581600Y-84446100D01*
X55581600Y-84446100D02*
X55581600Y-83557100D01*
D10*
G36*
X53892500Y-81017100D02*
X54349700Y-81017100D01*
X54349700Y-80255100D01*
X53892500Y-80255100D01*
X53892500Y-81017100D01*
G37*
G36*
X48812500Y-80382100D02*
X49269700Y-80382100D01*
X49269700Y-79620100D01*
X48812500Y-79620100D01*
X48812500Y-80382100D01*
G37*
D15*
X68726100Y-82571600D02*
X68726100Y-82510600D01*
D10*
G36*
X49193500Y-75175100D02*
X49650700Y-75175100D01*
X49650700Y-74413100D01*
X49193500Y-74413100D01*
X49193500Y-75175100D01*
G37*
D15*
X66821100Y-78761600D02*
X66821100Y-78700600D01*
D10*
G36*
X82289700Y-78985100D02*
X81832500Y-78985100D01*
X81832500Y-79747100D01*
X82289700Y-79747100D01*
X82289700Y-78985100D01*
G37*
D15*
X82061100Y-74255600D02*
X82061100Y-74316600D01*
D10*
G36*
X72129700Y-73905100D02*
X71672500Y-73905100D01*
X71672500Y-74667100D01*
X72129700Y-74667100D01*
X72129700Y-73905100D01*
G37*
G36*
X64763700Y-84700100D02*
X64306500Y-84700100D01*
X64306500Y-85462100D01*
X64763700Y-85462100D01*
X64763700Y-84700100D01*
G37*
D15*
X54121100Y-75525600D02*
X54121100Y-75586600D01*
D10*
G36*
X68726100Y-100981100D02*
X68726100Y-101181100D01*
X68926100Y-101181100D01*
X68926100Y-100981100D01*
X68726100Y-100981100D01*
G37*
D16*
X71469300Y-96775800D02*
G75*
G03X71469300Y-96775800I-533400J0D01*
G01*
D17*
X54311600Y-99176100D02*
X53930600Y-99176100D01*
X52660600Y-99557100D02*
X52660600Y-100446100D01*
X52660600Y-100446100D02*
X53422600Y-100446100D01*
X54819600Y-100446100D02*
X55581600Y-100446100D01*
X55581600Y-100446100D02*
X55581600Y-99557100D01*
D10*
G36*
X53892500Y-97017100D02*
X54349700Y-97017100D01*
X54349700Y-96255100D01*
X53892500Y-96255100D01*
X53892500Y-97017100D01*
G37*
G36*
X48812500Y-96382100D02*
X49269700Y-96382100D01*
X49269700Y-95620100D01*
X48812500Y-95620100D01*
X48812500Y-96382100D01*
G37*
D15*
X68726100Y-98571600D02*
X68726100Y-98510600D01*
D10*
G36*
X49193500Y-91175100D02*
X49650700Y-91175100D01*
X49650700Y-90413100D01*
X49193500Y-90413100D01*
X49193500Y-91175100D01*
G37*
D15*
X66821100Y-94761600D02*
X66821100Y-94700600D01*
D10*
G36*
X82289700Y-94985100D02*
X81832500Y-94985100D01*
X81832500Y-95747100D01*
X82289700Y-95747100D01*
X82289700Y-94985100D01*
G37*
D15*
X82061100Y-90255600D02*
X82061100Y-90316600D01*
D10*
G36*
X72129700Y-89905100D02*
X71672500Y-89905100D01*
X71672500Y-90667100D01*
X72129700Y-90667100D01*
X72129700Y-89905100D01*
G37*
G36*
X64763700Y-100700100D02*
X64306500Y-100700100D01*
X64306500Y-101462100D01*
X64763700Y-101462100D01*
X64763700Y-100700100D01*
G37*
D15*
X54121100Y-91525600D02*
X54121100Y-91586600D01*
D10*
G36*
X68726100Y-116981100D02*
X68726100Y-117181100D01*
X68926100Y-117181100D01*
X68926100Y-116981100D01*
X68726100Y-116981100D01*
G37*
D16*
X71469300Y-112775800D02*
G75*
G03X71469300Y-112775800I-533400J0D01*
G01*
D17*
X54311600Y-115176100D02*
X53930600Y-115176100D01*
X52660600Y-115557100D02*
X52660600Y-116446100D01*
X52660600Y-116446100D02*
X53422600Y-116446100D01*
X54819600Y-116446100D02*
X55581600Y-116446100D01*
X55581600Y-116446100D02*
X55581600Y-115557100D01*
D10*
G36*
X53892500Y-113017100D02*
X54349700Y-113017100D01*
X54349700Y-112255100D01*
X53892500Y-112255100D01*
X53892500Y-113017100D01*
G37*
G36*
X48812500Y-112382100D02*
X49269700Y-112382100D01*
X49269700Y-111620100D01*
X48812500Y-111620100D01*
X48812500Y-112382100D01*
G37*
D15*
X68726100Y-114571600D02*
X68726100Y-114510600D01*
D10*
G36*
X49193500Y-107175100D02*
X49650700Y-107175100D01*
X49650700Y-106413100D01*
X49193500Y-106413100D01*
X49193500Y-107175100D01*
G37*
D15*
X66821100Y-110761600D02*
X66821100Y-110700600D01*
D10*
G36*
X82289700Y-110985100D02*
X81832500Y-110985100D01*
X81832500Y-111747100D01*
X82289700Y-111747100D01*
X82289700Y-110985100D01*
G37*
D15*
X82061100Y-106255600D02*
X82061100Y-106316600D01*
D10*
G36*
X72129700Y-105905100D02*
X71672500Y-105905100D01*
X71672500Y-106667100D01*
X72129700Y-106667100D01*
X72129700Y-105905100D01*
G37*
G36*
X64763700Y-116700100D02*
X64306500Y-116700100D01*
X64306500Y-117462100D01*
X64763700Y-117462100D01*
X64763700Y-116700100D01*
G37*
D15*
X54121100Y-107525600D02*
X54121100Y-107586600D01*
%LPC*%
D18*
X48572100Y-42794100D03*
X50272100Y-42794100D03*
X53271100Y-43556100D03*
X54971100Y-43556100D03*
X48191100Y-48001100D03*
X49891100Y-48001100D03*
D19*
X177000000Y-37500000D03*
D20*
X69776100Y-53081100D03*
X67676100Y-53081100D03*
D21*
X56770100Y-53081100D03*
X60870100Y-53081100D03*
D22*
X70631100Y-50604600D03*
X70631100Y-45397600D03*
X71901100Y-50604600D03*
X73171100Y-50604600D03*
X71901100Y-45397600D03*
X73171100Y-45397600D03*
X74441100Y-50604600D03*
X74441100Y-45397600D03*
X75711100Y-50604600D03*
X76981100Y-50604600D03*
X75711100Y-45397600D03*
X76981100Y-45397600D03*
X78251100Y-50604600D03*
X78251100Y-45397600D03*
D23*
X81261100Y-44191100D03*
X82861100Y-44191100D03*
D24*
X85871100Y-51811100D03*
D25*
X85871100Y-54351100D03*
X83331100Y-51811100D03*
X83331100Y-54351100D03*
X80791100Y-51811100D03*
X80791100Y-54351100D03*
D26*
X49041100Y-45501100D03*
X49041100Y-50501100D03*
D27*
X41700500Y-52547700D03*
X41700500Y-43454500D03*
X46221700Y-43432700D03*
X46221700Y-52547700D03*
D28*
X54121100Y-52827100D03*
X53171100Y-50795100D03*
X55071100Y-50795100D03*
D18*
X53271100Y-48636100D03*
X54971100Y-48636100D03*
X69576100Y-50541100D03*
X67876100Y-50541100D03*
X67671100Y-46731100D03*
X65971100Y-46731100D03*
X82911100Y-47366100D03*
X81211100Y-47366100D03*
X81211100Y-42286100D03*
X82911100Y-42286100D03*
X72751100Y-42286100D03*
X71051100Y-42286100D03*
X65385100Y-53081100D03*
X63685100Y-53081100D03*
D20*
X69776100Y-69081100D03*
X67676100Y-69081100D03*
D21*
X56770100Y-69081100D03*
X60870100Y-69081100D03*
D22*
X70631100Y-66604600D03*
X70631100Y-61397600D03*
X71901100Y-66604600D03*
X73171100Y-66604600D03*
X71901100Y-61397600D03*
X73171100Y-61397600D03*
X74441100Y-66604600D03*
X74441100Y-61397600D03*
X75711100Y-66604600D03*
X76981100Y-66604600D03*
X75711100Y-61397600D03*
X76981100Y-61397600D03*
X78251100Y-66604600D03*
X78251100Y-61397600D03*
D23*
X81261100Y-60191100D03*
X82861100Y-60191100D03*
D24*
X85871100Y-67811100D03*
D25*
X85871100Y-70351100D03*
X83331100Y-67811100D03*
X83331100Y-70351100D03*
X80791100Y-67811100D03*
X80791100Y-70351100D03*
D26*
X49041100Y-61501100D03*
X49041100Y-66501100D03*
D27*
X41700500Y-68547700D03*
X41700500Y-59454500D03*
X46221700Y-59432700D03*
X46221700Y-68547700D03*
D28*
X54121100Y-68827100D03*
X53171100Y-66795100D03*
X55071100Y-66795100D03*
D18*
X53271100Y-64636100D03*
X54971100Y-64636100D03*
X48191100Y-64001100D03*
X49891100Y-64001100D03*
X69576100Y-66541100D03*
X67876100Y-66541100D03*
X48572100Y-58794100D03*
X50272100Y-58794100D03*
X67671100Y-62731100D03*
X65971100Y-62731100D03*
X82911100Y-63366100D03*
X81211100Y-63366100D03*
X81211100Y-58286100D03*
X82911100Y-58286100D03*
X72751100Y-58286100D03*
X71051100Y-58286100D03*
X65385100Y-69081100D03*
X63685100Y-69081100D03*
X53271100Y-59556100D03*
X54971100Y-59556100D03*
D20*
X69776100Y-85081100D03*
X67676100Y-85081100D03*
D21*
X56770100Y-85081100D03*
X60870100Y-85081100D03*
D22*
X70631100Y-82604600D03*
X70631100Y-77397600D03*
X71901100Y-82604600D03*
X73171100Y-82604600D03*
X71901100Y-77397600D03*
X73171100Y-77397600D03*
X74441100Y-82604600D03*
X74441100Y-77397600D03*
X75711100Y-82604600D03*
X76981100Y-82604600D03*
X75711100Y-77397600D03*
X76981100Y-77397600D03*
X78251100Y-82604600D03*
X78251100Y-77397600D03*
D23*
X81261100Y-76191100D03*
X82861100Y-76191100D03*
D24*
X85871100Y-83811100D03*
D25*
X85871100Y-86351100D03*
X83331100Y-83811100D03*
X83331100Y-86351100D03*
X80791100Y-83811100D03*
X80791100Y-86351100D03*
D26*
X49041100Y-77501100D03*
X49041100Y-82501100D03*
D27*
X41700500Y-84547700D03*
X41700500Y-75454500D03*
X46221700Y-75432700D03*
X46221700Y-84547700D03*
D28*
X54121100Y-84827100D03*
X53171100Y-82795100D03*
X55071100Y-82795100D03*
D18*
X53271100Y-80636100D03*
X54971100Y-80636100D03*
X48191100Y-80001100D03*
X49891100Y-80001100D03*
X69576100Y-82541100D03*
X67876100Y-82541100D03*
X48572100Y-74794100D03*
X50272100Y-74794100D03*
X67671100Y-78731100D03*
X65971100Y-78731100D03*
X82911100Y-79366100D03*
X81211100Y-79366100D03*
X81211100Y-74286100D03*
X82911100Y-74286100D03*
X72751100Y-74286100D03*
X71051100Y-74286100D03*
X65385100Y-85081100D03*
X63685100Y-85081100D03*
X53271100Y-75556100D03*
X54971100Y-75556100D03*
D20*
X69776100Y-101081100D03*
X67676100Y-101081100D03*
D21*
X56770100Y-101081100D03*
X60870100Y-101081100D03*
D22*
X70631100Y-98604600D03*
X70631100Y-93397600D03*
X71901100Y-98604600D03*
X73171100Y-98604600D03*
X71901100Y-93397600D03*
X73171100Y-93397600D03*
X74441100Y-98604600D03*
X74441100Y-93397600D03*
X75711100Y-98604600D03*
X76981100Y-98604600D03*
X75711100Y-93397600D03*
X76981100Y-93397600D03*
X78251100Y-98604600D03*
X78251100Y-93397600D03*
D23*
X81261100Y-92191100D03*
X82861100Y-92191100D03*
D24*
X85871100Y-99811100D03*
D25*
X85871100Y-102351100D03*
X83331100Y-99811100D03*
X83331100Y-102351100D03*
X80791100Y-99811100D03*
X80791100Y-102351100D03*
D26*
X49041100Y-93501100D03*
X49041100Y-98501100D03*
D27*
X41700500Y-100547700D03*
X41700500Y-91454500D03*
X46221700Y-91432700D03*
X46221700Y-100547700D03*
D28*
X54121100Y-100827100D03*
X53171100Y-98795100D03*
X55071100Y-98795100D03*
D18*
X53271100Y-96636100D03*
X54971100Y-96636100D03*
X48191100Y-96001100D03*
X49891100Y-96001100D03*
X69576100Y-98541100D03*
X67876100Y-98541100D03*
X48572100Y-90794100D03*
X50272100Y-90794100D03*
X67671100Y-94731100D03*
X65971100Y-94731100D03*
X82911100Y-95366100D03*
X81211100Y-95366100D03*
X81211100Y-90286100D03*
X82911100Y-90286100D03*
X72751100Y-90286100D03*
X71051100Y-90286100D03*
X65385100Y-101081100D03*
X63685100Y-101081100D03*
X53271100Y-91556100D03*
X54971100Y-91556100D03*
D20*
X69776100Y-117081100D03*
X67676100Y-117081100D03*
D21*
X56770100Y-117081100D03*
X60870100Y-117081100D03*
D22*
X70631100Y-114604600D03*
X70631100Y-109397600D03*
X71901100Y-114604600D03*
X73171100Y-114604600D03*
X71901100Y-109397600D03*
X73171100Y-109397600D03*
X74441100Y-114604600D03*
X74441100Y-109397600D03*
X75711100Y-114604600D03*
X76981100Y-114604600D03*
X75711100Y-109397600D03*
X76981100Y-109397600D03*
X78251100Y-114604600D03*
X78251100Y-109397600D03*
D23*
X81261100Y-108191100D03*
X82861100Y-108191100D03*
D24*
X85871100Y-115811100D03*
D25*
X85871100Y-118351100D03*
X83331100Y-115811100D03*
X83331100Y-118351100D03*
X80791100Y-115811100D03*
X80791100Y-118351100D03*
D26*
X49041100Y-109501100D03*
X49041100Y-114501100D03*
D27*
X41700500Y-116547700D03*
X41700500Y-107454500D03*
X46221700Y-107432700D03*
X46221700Y-116547700D03*
D28*
X54121100Y-116827100D03*
X53171100Y-114795100D03*
X55071100Y-114795100D03*
D18*
X53271100Y-112636100D03*
X54971100Y-112636100D03*
X48191100Y-112001100D03*
X49891100Y-112001100D03*
X69576100Y-114541100D03*
X67876100Y-114541100D03*
X48572100Y-106794100D03*
X50272100Y-106794100D03*
X67671100Y-110731100D03*
X65971100Y-110731100D03*
X82911100Y-111366100D03*
X81211100Y-111366100D03*
X81211100Y-106286100D03*
X82911100Y-106286100D03*
X72751100Y-106286100D03*
X71051100Y-106286100D03*
X65385100Y-117081100D03*
X63685100Y-117081100D03*
X53271100Y-107556100D03*
X54971100Y-107556100D03*
D19*
X44000000Y-122500000D03*
M02*
