M48
;DRILL file {KiCad (2015-09-30 BZR 6232)-product} date Fri 09 Oct 2015 11:18:30 AM EEST
;FORMAT={-:-/ absolute / metric / decimal}
FMAT,2
METRIC,TZ
T1C0.400
T2C1.000
T3C1.016
T4C2.500
%
G90
G05
M71
T1
X46.501Y-48.001
X46.501Y-64.001
X46.501Y-80.001
X46.501Y-96.001
X46.501Y-112.001
X51.581Y-46.731
X51.581Y-62.731
X51.581Y-78.731
X51.581Y-94.731
X51.581Y-110.731
X56.026Y-44.826
X56.026Y-60.826
X56.026Y-76.826
X56.026Y-92.826
X56.026Y-108.826
X56.661Y-51.176
X56.661Y-67.176
X56.661Y-83.176
X56.661Y-99.176
X56.661Y-115.176
X58.566Y-51.176
X58.566Y-67.176
X58.566Y-83.176
X58.566Y-99.176
X58.566Y-115.176
X59.201Y-49.271
X59.201Y-65.271
X59.201Y-81.271
X59.201Y-97.271
X59.201Y-113.271
X67.5Y-51.5
X67.5Y-67.5
X67.5Y-83.5
X67.5Y-99.5
X67.5Y-115.5
X69.361Y-51.811
X69.361Y-67.811
X69.361Y-83.811
X69.361Y-99.811
X69.361Y-115.811
X69.75Y-43.5
X69.75Y-59.5
X69.75Y-75.5
X69.75Y-91.5
X69.75Y-107.5
X70.5Y-43.5
X70.5Y-59.5
X70.5Y-75.5
X70.5Y-91.5
X70.5Y-107.5
X74.25Y-43.25
X74.25Y-59.25
X74.25Y-75.25
X74.25Y-91.25
X74.25Y-107.25
X76.981Y-52.827
X76.981Y-68.827
X76.981Y-84.827
X76.981Y-100.827
X76.981Y-116.827
X79.521Y-43.556
X79.521Y-59.556
X79.521Y-75.556
X79.521Y-91.556
X79.521Y-107.556
X79.75Y-44.5
X79.75Y-60.5
X79.75Y-76.5
X79.75Y-92.5
X79.75Y-108.5
X82.061Y-49.271
X82.061Y-65.271
X82.061Y-81.271
X82.061Y-97.271
X82.061Y-113.271
X83.966Y-46.096
X83.966Y-49.271
X83.966Y-62.096
X83.966Y-65.271
X83.966Y-78.096
X83.966Y-81.271
X83.966Y-94.096
X83.966Y-97.271
X83.966Y-110.096
X83.966Y-113.271
X84.Y-42.25
X84.Y-58.25
X84.Y-74.25
X84.Y-90.25
X84.Y-106.25
X87.776Y-53.081
X87.776Y-69.081
X87.776Y-85.081
X87.776Y-101.081
X87.776Y-117.081
X90.5Y-44.
X90.5Y-50.
X90.5Y-60.
X90.5Y-66.
X90.5Y-76.
X90.5Y-82.
X90.5Y-92.
X90.5Y-98.
X90.5Y-108.
X90.5Y-114.
X94.5Y-44.
X94.5Y-50.
X94.5Y-60.
X94.5Y-66.
X94.5Y-76.
X94.5Y-82.
X94.5Y-92.
X94.5Y-98.
X94.5Y-108.
X94.5Y-114.
X98.5Y-44.
X98.5Y-50.
X98.5Y-60.
X98.5Y-66.
X98.5Y-76.
X98.5Y-82.
X98.5Y-92.
X98.5Y-98.
X98.5Y-108.
X98.5Y-114.
T2
X49.041Y-45.501
X49.041Y-50.501
X49.041Y-61.501
X49.041Y-66.501
X49.041Y-77.501
X49.041Y-82.501
X49.041Y-93.501
X49.041Y-98.501
X49.041Y-109.501
X49.041Y-114.501
T3
X80.791Y-51.811
X80.791Y-54.351
X80.791Y-67.811
X80.791Y-70.351
X80.791Y-83.811
X80.791Y-86.351
X80.791Y-99.811
X80.791Y-102.351
X80.791Y-115.811
X80.791Y-118.351
X83.331Y-51.811
X83.331Y-54.351
X83.331Y-67.811
X83.331Y-70.351
X83.331Y-83.811
X83.331Y-86.351
X83.331Y-99.811
X83.331Y-102.351
X83.331Y-115.811
X83.331Y-118.351
X85.871Y-51.811
X85.871Y-54.351
X85.871Y-67.811
X85.871Y-70.351
X85.871Y-83.811
X85.871Y-86.351
X85.871Y-99.811
X85.871Y-102.351
X85.871Y-115.811
X85.871Y-118.351
T4
X55.Y-122.5
X167.5Y-37.5
T0
M30
