G75*
G70*
%OFA0B0*%
%FSLAX24Y24*%
%IPPOS*%
%LPD*%
%AMOC8*
5,1,8,0,0,1.08239X$1,22.5*
%
%ADD10C,0.0000*%
%ADD11R,0.0780X0.0780*%
%ADD12OC8,0.0780*%
%ADD13C,0.0740*%
%ADD14C,0.0780*%
%ADD15R,0.1040X0.2040*%
D10*
X000151Y000302D02*
X000151Y006298D01*
X039021Y006298D01*
X039021Y000302D01*
X000151Y000302D01*
X000151Y006602D02*
X000151Y012598D01*
X039021Y012598D01*
X039021Y006602D01*
X000151Y006602D01*
X000151Y012901D02*
X000151Y018897D01*
X039021Y018897D01*
X039021Y012901D01*
X000151Y012901D01*
X000151Y019200D02*
X000151Y025196D01*
X039021Y025196D01*
X039021Y019200D01*
X000151Y019200D01*
X000151Y025499D02*
X000151Y031495D01*
X039021Y031495D01*
X039021Y025499D01*
X000151Y025499D01*
D11*
X018151Y026999D03*
X018151Y020700D03*
X018151Y014401D03*
X018151Y008102D03*
X018151Y001802D03*
D12*
X018151Y000802D03*
X017151Y000802D03*
X016151Y000802D03*
X016151Y001802D03*
X017151Y001802D03*
X017151Y007102D03*
X016151Y007102D03*
X016151Y008102D03*
X017151Y008102D03*
X018151Y007102D03*
X018151Y013401D03*
X017151Y013401D03*
X016151Y013401D03*
X016151Y014401D03*
X017151Y014401D03*
X017151Y019700D03*
X016151Y019700D03*
X016151Y020700D03*
X017151Y020700D03*
X018151Y019700D03*
X018151Y025999D03*
X017151Y025999D03*
X016151Y025999D03*
X016151Y026999D03*
X017151Y026999D03*
D13*
X003651Y027220D03*
X003651Y029779D03*
X003651Y023480D03*
X003651Y020920D03*
X003651Y017180D03*
X003651Y014621D03*
X003651Y010881D03*
X003651Y008322D03*
X003651Y004582D03*
X003651Y002023D03*
D14*
X002541Y002022D03*
X000761Y002022D03*
X000761Y004582D03*
X002541Y004582D03*
X006151Y007102D03*
X006151Y008102D03*
X002541Y008322D03*
X000761Y008322D03*
X000761Y010882D03*
X002541Y010882D03*
X006151Y013401D03*
X006151Y014401D03*
X002541Y014621D03*
X000761Y014621D03*
X000761Y017181D03*
X002541Y017181D03*
X006151Y019700D03*
X006151Y020700D03*
X002541Y020920D03*
X000761Y020920D03*
X000761Y023480D03*
X002541Y023480D03*
X006151Y025999D03*
X006151Y026999D03*
X002541Y027219D03*
X000761Y027219D03*
X000761Y029779D03*
X002541Y029779D03*
X006151Y001802D03*
X006151Y000802D03*
D15*
X006698Y003310D03*
X011230Y003302D03*
X015659Y003330D03*
X011230Y009602D03*
X015659Y009629D03*
X015659Y015928D03*
X011230Y015901D03*
X006698Y015909D03*
X006698Y009609D03*
X006698Y022208D03*
X011230Y022200D03*
X015659Y022228D03*
X015659Y028527D03*
X011230Y028499D03*
X006698Y028507D03*
M02*
