G75*
G70*
%OFA0B0*%
%FSLAX24Y24*%
%IPPOS*%
%LPD*%
%AMOC8*
5,1,8,0,0,1.08239X$1,22.5*
%
%ADD10C,0.0000*%
%ADD11R,0.0740X0.0740*%
%ADD12OC8,0.0740*%
%ADD13R,0.1000X0.2000*%
%ADD14C,0.1000*%
%ADD15C,0.0240*%
%ADD16C,0.0320*%
%ADD17C,0.0120*%
%ADD18C,0.0160*%
%ADD19C,0.0277*%
%ADD20C,0.0100*%
D10*
X000100Y000100D02*
X060100Y000100D01*
X060100Y034100D01*
X000100Y034100D01*
X000100Y000100D01*
D11*
X021100Y003600D03*
X021100Y011600D03*
X021100Y019600D03*
X021100Y027600D03*
D12*
X020100Y027600D03*
X019100Y027600D03*
X019100Y026600D03*
X020100Y026600D03*
X021100Y026600D03*
X020100Y019600D03*
X019100Y019600D03*
X019100Y018600D03*
X020100Y018600D03*
X021100Y018600D03*
X020100Y011600D03*
X019100Y011600D03*
X019100Y010600D03*
X020100Y010600D03*
X021100Y010600D03*
X020100Y003600D03*
X019100Y003600D03*
X019100Y002600D03*
X020100Y002600D03*
X021100Y002600D03*
D13*
X018608Y005128D03*
X014179Y005100D03*
X009647Y005108D03*
X009647Y013108D03*
X014179Y013100D03*
X018608Y013128D03*
X018608Y021128D03*
X014179Y021100D03*
X009647Y021108D03*
X009647Y029108D03*
X014179Y029100D03*
X018608Y029128D03*
D14*
X006600Y030084D03*
X006600Y028116D03*
X006600Y022084D03*
X006600Y020116D03*
X006600Y014084D03*
X006600Y012116D03*
X006600Y006084D03*
X006600Y004116D03*
D15*
X007100Y005100D02*
X005600Y005100D01*
X007100Y005100D02*
X007600Y005600D01*
X009600Y005061D02*
X009647Y005108D01*
X009647Y006053D01*
X009600Y005061D02*
X009600Y003850D01*
X009600Y011850D02*
X009600Y013061D01*
X009647Y013108D01*
X009647Y014053D01*
X007600Y013600D02*
X007100Y013100D01*
X005600Y013100D01*
X009600Y019850D02*
X009600Y021061D01*
X009647Y021108D01*
X009647Y022053D01*
X007600Y021600D02*
X007100Y021100D01*
X005600Y021100D01*
X009600Y027850D02*
X009600Y029061D01*
X009647Y029108D01*
X009647Y030053D01*
X007600Y029600D02*
X007100Y029100D01*
X005600Y029100D01*
D16*
X009350Y030350D02*
X009647Y030053D01*
X010155Y028600D02*
X010600Y028600D01*
X009350Y022350D02*
X009647Y022053D01*
X010155Y020600D02*
X010600Y020600D01*
X009350Y014350D02*
X009647Y014053D01*
X010155Y012600D02*
X010600Y012600D01*
X009350Y006350D02*
X009647Y006053D01*
X010155Y004600D02*
X010600Y004600D01*
D17*
X018600Y003100D02*
X021850Y003100D01*
X021850Y011100D02*
X018600Y011100D01*
X018600Y019100D02*
X021850Y019100D01*
X021850Y027100D02*
X018600Y027100D01*
D18*
X018100Y027600D01*
X014600Y027600D01*
X017600Y027200D02*
X011000Y027200D01*
X010350Y027850D01*
X010155Y028600D02*
X009647Y029108D01*
X018600Y030850D02*
X019100Y030850D01*
X019600Y030350D01*
X019600Y028600D01*
X020350Y028600D02*
X020350Y029850D01*
X019100Y022850D02*
X018600Y022850D01*
X019100Y022850D02*
X019600Y022350D01*
X019600Y020600D01*
X020350Y020600D02*
X020350Y021850D01*
X018100Y019600D02*
X014600Y019600D01*
X017600Y019200D02*
X011000Y019200D01*
X010350Y019850D01*
X010155Y020600D02*
X009647Y021108D01*
X018100Y019600D02*
X018600Y019100D01*
X018600Y014850D02*
X019100Y014850D01*
X019600Y014350D01*
X019600Y012600D01*
X020350Y012600D02*
X020350Y013850D01*
X018100Y011600D02*
X014600Y011600D01*
X017600Y011200D02*
X011000Y011200D01*
X010350Y011850D01*
X010155Y012600D02*
X009647Y013108D01*
X018100Y011600D02*
X018600Y011100D01*
X018600Y006850D02*
X019100Y006850D01*
X019600Y006350D01*
X019600Y004600D01*
X020350Y004600D02*
X020350Y005850D01*
X018100Y003600D02*
X014600Y003600D01*
X017600Y003200D02*
X011000Y003200D01*
X010350Y003850D01*
X010155Y004600D02*
X009647Y005108D01*
X018100Y003600D02*
X018600Y003100D01*
D19*
X017600Y003200D03*
X019600Y004600D03*
X020350Y004600D03*
X020350Y005850D03*
X018600Y006850D03*
X017100Y007100D03*
X014600Y006600D03*
X013600Y006600D03*
X010600Y004600D03*
X010350Y003850D03*
X009600Y003850D03*
X007600Y005600D03*
X009350Y006350D03*
X005600Y005100D03*
X013350Y004100D03*
X014600Y003600D03*
X021850Y003100D03*
X022600Y004350D03*
X022600Y006350D03*
X026350Y006350D03*
X026350Y004350D03*
X021850Y011100D03*
X022600Y012350D03*
X020350Y012600D03*
X019600Y012600D03*
X020350Y013850D03*
X018600Y014850D03*
X017100Y015100D03*
X014600Y014600D03*
X013600Y014600D03*
X010600Y012600D03*
X010350Y011850D03*
X009600Y011850D03*
X007600Y013600D03*
X009350Y014350D03*
X005600Y013100D03*
X013350Y012100D03*
X014600Y011600D03*
X017600Y011200D03*
X022600Y014350D03*
X026350Y014350D03*
X026350Y012350D03*
X021850Y019100D03*
X022600Y020350D03*
X020350Y020600D03*
X019600Y020600D03*
X020350Y021850D03*
X018600Y022850D03*
X017100Y023100D03*
X014600Y022600D03*
X013600Y022600D03*
X010600Y020600D03*
X010350Y019850D03*
X009600Y019850D03*
X007600Y021600D03*
X009350Y022350D03*
X005600Y021100D03*
X013350Y020100D03*
X014600Y019600D03*
X017600Y019200D03*
X022600Y022350D03*
X026350Y022350D03*
X026350Y020350D03*
X021850Y027100D03*
X022600Y028350D03*
X020350Y028600D03*
X019600Y028600D03*
X020350Y029850D03*
X018600Y030850D03*
X017100Y031100D03*
X014600Y030600D03*
X013600Y030600D03*
X010600Y028600D03*
X010350Y027850D03*
X009600Y027850D03*
X007600Y029600D03*
X009350Y030350D03*
X005600Y029100D03*
X013350Y028100D03*
X014600Y027600D03*
X017600Y027200D03*
X022600Y030350D03*
X026350Y030350D03*
X026350Y028350D03*
D20*
X022159Y027161D02*
X022112Y027275D01*
X022025Y027362D01*
X021911Y027409D01*
X021789Y027409D01*
X021675Y027362D01*
X021643Y027330D01*
X021640Y027330D01*
X021640Y028040D01*
X021540Y028140D01*
X020660Y028140D01*
X020560Y028040D01*
X020560Y027904D01*
X020324Y028140D01*
X019876Y028140D01*
X019600Y027864D01*
X019324Y028140D01*
X019278Y028140D01*
X019278Y030198D01*
X019178Y030298D01*
X018037Y030298D01*
X017938Y030198D01*
X017938Y028057D01*
X018037Y027958D01*
X018694Y027958D01*
X018560Y027824D01*
X018560Y027494D01*
X018312Y027742D01*
X018242Y027812D01*
X018150Y027850D01*
X014787Y027850D01*
X014775Y027862D01*
X014661Y027909D01*
X014539Y027909D01*
X014425Y027862D01*
X014338Y027775D01*
X014291Y027661D01*
X014291Y027539D01*
X014328Y027450D01*
X011104Y027450D01*
X010659Y027895D01*
X010659Y027911D01*
X010612Y028025D01*
X010525Y028112D01*
X010411Y028159D01*
X010317Y028159D01*
X010317Y028270D01*
X010666Y028270D01*
X010787Y028320D01*
X010880Y028413D01*
X010930Y028534D01*
X010930Y028666D01*
X010880Y028787D01*
X010787Y028880D01*
X010666Y028930D01*
X010317Y028930D01*
X010317Y030178D01*
X010218Y030278D01*
X009889Y030278D01*
X009537Y030630D01*
X009416Y030680D01*
X009284Y030680D01*
X009163Y030630D01*
X009070Y030537D01*
X009020Y030416D01*
X009020Y030284D01*
X009039Y030240D01*
X008977Y030178D01*
X008977Y028037D01*
X009077Y027938D01*
X009302Y027938D01*
X009291Y027911D01*
X009291Y027789D01*
X009338Y027675D01*
X009425Y027588D01*
X009539Y027541D01*
X009661Y027541D01*
X009775Y027588D01*
X009862Y027675D01*
X009909Y027789D01*
X009909Y027911D01*
X009898Y027938D01*
X010052Y027938D01*
X010041Y027911D01*
X010041Y027789D01*
X010088Y027675D01*
X010175Y027588D01*
X010289Y027541D01*
X010305Y027541D01*
X010858Y026988D01*
X010950Y026950D01*
X017413Y026950D01*
X017425Y026938D01*
X017539Y026891D01*
X017661Y026891D01*
X017775Y026938D01*
X017862Y027025D01*
X017909Y027139D01*
X017909Y027261D01*
X017872Y027350D01*
X017996Y027350D01*
X018458Y026888D01*
X018550Y026850D01*
X018615Y026850D01*
X018580Y026815D01*
X018580Y026650D01*
X019050Y026650D01*
X019050Y026550D01*
X018580Y026550D01*
X018580Y026385D01*
X018745Y026220D01*
X003220Y026220D01*
X003220Y031970D01*
X051970Y031970D01*
X057800Y029100D01*
X052100Y026220D01*
X021484Y026220D01*
X021640Y026376D01*
X021640Y026824D01*
X021594Y026870D01*
X021643Y026870D01*
X021675Y026838D01*
X021789Y026791D01*
X021911Y026791D01*
X022025Y026838D01*
X022112Y026925D01*
X022159Y027039D01*
X022159Y027161D01*
X022159Y027112D02*
X053865Y027112D01*
X054060Y027210D02*
X022139Y027210D01*
X022078Y027309D02*
X054254Y027309D01*
X054449Y027407D02*
X021915Y027407D01*
X021785Y027407D02*
X021640Y027407D01*
X021640Y027506D02*
X054644Y027506D01*
X054839Y027604D02*
X021640Y027604D01*
X021640Y027703D02*
X055034Y027703D01*
X055229Y027801D02*
X021640Y027801D01*
X021640Y027900D02*
X055424Y027900D01*
X055619Y027998D02*
X021640Y027998D01*
X021584Y028097D02*
X055814Y028097D01*
X056009Y028195D02*
X019278Y028195D01*
X019278Y028294D02*
X019533Y028294D01*
X019539Y028291D02*
X019661Y028291D01*
X019775Y028338D01*
X019862Y028425D01*
X019909Y028539D01*
X019909Y028661D01*
X019862Y028775D01*
X019850Y028787D01*
X019850Y030300D01*
X019850Y030400D01*
X019812Y030492D01*
X019312Y030992D01*
X019242Y031062D01*
X019150Y031100D01*
X018787Y031100D01*
X018775Y031112D01*
X018661Y031159D01*
X018539Y031159D01*
X018425Y031112D01*
X018338Y031025D01*
X018291Y030911D01*
X018291Y030789D01*
X018338Y030675D01*
X018425Y030588D01*
X018539Y030541D01*
X018661Y030541D01*
X018775Y030588D01*
X018787Y030600D01*
X018996Y030600D01*
X019350Y030246D01*
X019350Y028787D01*
X019338Y028775D01*
X019291Y028661D01*
X019291Y028539D01*
X019338Y028425D01*
X019425Y028338D01*
X019539Y028291D01*
X019667Y028294D02*
X020283Y028294D01*
X020289Y028291D02*
X020411Y028291D01*
X020525Y028338D01*
X020612Y028425D01*
X020659Y028539D01*
X020659Y028661D01*
X020612Y028775D01*
X020600Y028787D01*
X020600Y029663D01*
X020612Y029675D01*
X020659Y029789D01*
X020659Y029911D01*
X020612Y030025D01*
X020525Y030112D01*
X020411Y030159D01*
X020289Y030159D01*
X020175Y030112D01*
X020088Y030025D01*
X020041Y029911D01*
X020041Y029789D01*
X020088Y029675D01*
X020100Y029663D01*
X020100Y028787D01*
X020088Y028775D01*
X020041Y028661D01*
X020041Y028539D01*
X020088Y028425D01*
X020175Y028338D01*
X020289Y028291D01*
X020417Y028294D02*
X056204Y028294D01*
X056399Y028392D02*
X020579Y028392D01*
X020639Y028491D02*
X056594Y028491D01*
X056789Y028589D02*
X020659Y028589D01*
X020648Y028688D02*
X056984Y028688D01*
X057179Y028786D02*
X020601Y028786D01*
X020600Y028885D02*
X057374Y028885D01*
X057569Y028983D02*
X020600Y028983D01*
X020600Y029082D02*
X057764Y029082D01*
X057637Y029180D02*
X020600Y029180D01*
X020600Y029279D02*
X057437Y029279D01*
X057237Y029377D02*
X020600Y029377D01*
X020600Y029476D02*
X057037Y029476D01*
X056837Y029574D02*
X020600Y029574D01*
X020609Y029673D02*
X056637Y029673D01*
X056437Y029771D02*
X020651Y029771D01*
X020659Y029870D02*
X056237Y029870D01*
X056037Y029968D02*
X020635Y029968D01*
X020570Y030067D02*
X055837Y030067D01*
X055636Y030165D02*
X019850Y030165D01*
X019850Y030067D02*
X020130Y030067D01*
X020065Y029968D02*
X019850Y029968D01*
X019850Y029870D02*
X020041Y029870D01*
X020049Y029771D02*
X019850Y029771D01*
X019850Y029673D02*
X020091Y029673D01*
X020100Y029574D02*
X019850Y029574D01*
X019850Y029476D02*
X020100Y029476D01*
X020100Y029377D02*
X019850Y029377D01*
X019850Y029279D02*
X020100Y029279D01*
X020100Y029180D02*
X019850Y029180D01*
X019850Y029082D02*
X020100Y029082D01*
X020100Y028983D02*
X019850Y028983D01*
X019850Y028885D02*
X020100Y028885D01*
X020099Y028786D02*
X019851Y028786D01*
X019898Y028688D02*
X020052Y028688D01*
X020041Y028589D02*
X019909Y028589D01*
X019889Y028491D02*
X020061Y028491D01*
X020121Y028392D02*
X019829Y028392D01*
X019833Y028097D02*
X019367Y028097D01*
X019466Y027998D02*
X019734Y027998D01*
X019636Y027900D02*
X019564Y027900D01*
X020367Y028097D02*
X020616Y028097D01*
X020560Y027998D02*
X020466Y027998D01*
X019371Y028392D02*
X019278Y028392D01*
X019278Y028491D02*
X019311Y028491D01*
X019291Y028589D02*
X019278Y028589D01*
X019278Y028688D02*
X019302Y028688D01*
X019278Y028786D02*
X019349Y028786D01*
X019350Y028885D02*
X019278Y028885D01*
X019278Y028983D02*
X019350Y028983D01*
X019350Y029082D02*
X019278Y029082D01*
X019278Y029180D02*
X019350Y029180D01*
X019350Y029279D02*
X019278Y029279D01*
X019278Y029377D02*
X019350Y029377D01*
X019350Y029476D02*
X019278Y029476D01*
X019278Y029574D02*
X019350Y029574D01*
X019350Y029673D02*
X019278Y029673D01*
X019278Y029771D02*
X019350Y029771D01*
X019350Y029870D02*
X019278Y029870D01*
X019278Y029968D02*
X019350Y029968D01*
X019350Y030067D02*
X019278Y030067D01*
X019278Y030165D02*
X019350Y030165D01*
X019333Y030264D02*
X019212Y030264D01*
X019234Y030362D02*
X009805Y030362D01*
X009706Y030461D02*
X019136Y030461D01*
X019037Y030559D02*
X018704Y030559D01*
X018496Y030559D02*
X009608Y030559D01*
X009470Y030658D02*
X018356Y030658D01*
X018305Y030756D02*
X003220Y030756D01*
X003220Y030658D02*
X006233Y030658D01*
X006220Y030652D02*
X006032Y030464D01*
X005930Y030218D01*
X005930Y029951D01*
X006032Y029705D01*
X006220Y029516D01*
X006467Y029414D01*
X006733Y029414D01*
X006980Y029516D01*
X007168Y029705D01*
X007270Y029951D01*
X007270Y030218D01*
X007168Y030464D01*
X006980Y030652D01*
X006733Y030754D01*
X006467Y030754D01*
X006220Y030652D01*
X006127Y030559D02*
X003220Y030559D01*
X003220Y030461D02*
X006031Y030461D01*
X005990Y030362D02*
X003220Y030362D01*
X003220Y030264D02*
X005949Y030264D01*
X005930Y030165D02*
X003220Y030165D01*
X003220Y030067D02*
X005930Y030067D01*
X005930Y029968D02*
X003220Y029968D01*
X003220Y029870D02*
X005964Y029870D01*
X006005Y029771D02*
X003220Y029771D01*
X003220Y029673D02*
X006064Y029673D01*
X006163Y029574D02*
X003220Y029574D01*
X003220Y029476D02*
X006319Y029476D01*
X006881Y029476D02*
X007065Y029476D01*
X007037Y029574D02*
X007164Y029574D01*
X007136Y029673D02*
X007262Y029673D01*
X007320Y029730D02*
X006980Y029390D01*
X005707Y029390D01*
X005661Y029409D01*
X005539Y029409D01*
X005425Y029362D01*
X005338Y029275D01*
X005291Y029161D01*
X005291Y029039D01*
X005338Y028925D01*
X005425Y028838D01*
X005539Y028791D01*
X005661Y028791D01*
X005707Y028810D01*
X007158Y028810D01*
X007264Y028854D01*
X007346Y028936D01*
X007730Y029320D01*
X007775Y029338D01*
X007862Y029425D01*
X007909Y029539D01*
X007909Y029661D01*
X007862Y029775D01*
X007775Y029862D01*
X007661Y029909D01*
X007539Y029909D01*
X007425Y029862D01*
X007338Y029775D01*
X007320Y029730D01*
X007337Y029771D02*
X007195Y029771D01*
X007236Y029870D02*
X007444Y029870D01*
X007270Y029968D02*
X008977Y029968D01*
X008977Y029870D02*
X007756Y029870D01*
X007863Y029771D02*
X008977Y029771D01*
X008977Y029673D02*
X007904Y029673D01*
X007909Y029574D02*
X008977Y029574D01*
X008977Y029476D02*
X007883Y029476D01*
X007814Y029377D02*
X008977Y029377D01*
X008977Y029279D02*
X007689Y029279D01*
X007590Y029180D02*
X008977Y029180D01*
X008977Y029082D02*
X007492Y029082D01*
X007393Y028983D02*
X008977Y028983D01*
X008977Y028885D02*
X007295Y028885D01*
X007074Y028589D02*
X008977Y028589D01*
X008977Y028491D02*
X007170Y028491D01*
X007168Y028495D02*
X006980Y028684D01*
X006733Y028786D01*
X006467Y028786D01*
X006220Y028684D01*
X006032Y028495D01*
X005930Y028249D01*
X005930Y027982D01*
X006032Y027736D01*
X006220Y027548D01*
X006467Y027446D01*
X006733Y027446D01*
X006980Y027548D01*
X007168Y027736D01*
X007270Y027982D01*
X007270Y028249D01*
X007168Y028495D01*
X007211Y028392D02*
X008977Y028392D01*
X008977Y028294D02*
X007252Y028294D01*
X007270Y028195D02*
X008977Y028195D01*
X008977Y028097D02*
X007270Y028097D01*
X007270Y027998D02*
X009017Y027998D01*
X009291Y027900D02*
X007236Y027900D01*
X007195Y027801D02*
X009291Y027801D01*
X009327Y027703D02*
X007134Y027703D01*
X007036Y027604D02*
X009409Y027604D01*
X009791Y027604D02*
X010159Y027604D01*
X010077Y027703D02*
X009873Y027703D01*
X009909Y027801D02*
X010041Y027801D01*
X010041Y027900D02*
X009909Y027900D01*
X010317Y028195D02*
X013529Y028195D01*
X013529Y028097D02*
X010540Y028097D01*
X010623Y027998D02*
X013569Y027998D01*
X013559Y028008D02*
X013587Y027980D01*
X013621Y027960D01*
X013659Y027950D01*
X014129Y027950D01*
X014129Y029050D01*
X014229Y029050D01*
X014229Y029150D01*
X014829Y029150D01*
X014829Y030120D01*
X014819Y030158D01*
X014799Y030192D01*
X014771Y030220D01*
X014737Y030240D01*
X014698Y030250D01*
X014229Y030250D01*
X014229Y029150D01*
X014129Y029150D01*
X014129Y030250D01*
X013659Y030250D01*
X013621Y030240D01*
X013587Y030220D01*
X013559Y030192D01*
X013539Y030158D01*
X013529Y030120D01*
X013529Y029150D01*
X014129Y029150D01*
X014129Y029050D01*
X013529Y029050D01*
X013529Y028080D01*
X013539Y028042D01*
X013559Y028008D01*
X013529Y028294D02*
X010723Y028294D01*
X010859Y028392D02*
X013529Y028392D01*
X013529Y028491D02*
X010912Y028491D01*
X010930Y028589D02*
X013529Y028589D01*
X013529Y028688D02*
X010921Y028688D01*
X010880Y028786D02*
X013529Y028786D01*
X013529Y028885D02*
X010775Y028885D01*
X010317Y028983D02*
X013529Y028983D01*
X013529Y029180D02*
X010317Y029180D01*
X010317Y029082D02*
X014129Y029082D01*
X014129Y029180D02*
X014229Y029180D01*
X014229Y029082D02*
X017938Y029082D01*
X017938Y029180D02*
X014829Y029180D01*
X014829Y029279D02*
X017938Y029279D01*
X017938Y029377D02*
X014829Y029377D01*
X014829Y029476D02*
X017938Y029476D01*
X017938Y029574D02*
X014829Y029574D01*
X014829Y029673D02*
X017938Y029673D01*
X017938Y029771D02*
X014829Y029771D01*
X014829Y029870D02*
X017938Y029870D01*
X017938Y029968D02*
X014829Y029968D01*
X014829Y030067D02*
X017938Y030067D01*
X017938Y030165D02*
X014814Y030165D01*
X014229Y030165D02*
X014129Y030165D01*
X014129Y030067D02*
X014229Y030067D01*
X014229Y029968D02*
X014129Y029968D01*
X014129Y029870D02*
X014229Y029870D01*
X014229Y029771D02*
X014129Y029771D01*
X014129Y029673D02*
X014229Y029673D01*
X014229Y029574D02*
X014129Y029574D01*
X014129Y029476D02*
X014229Y029476D01*
X014229Y029377D02*
X014129Y029377D01*
X014129Y029279D02*
X014229Y029279D01*
X014229Y029050D02*
X014829Y029050D01*
X014829Y028080D01*
X014819Y028042D01*
X014799Y028008D01*
X014771Y027980D01*
X014737Y027960D01*
X014698Y027950D01*
X014229Y027950D01*
X014229Y029050D01*
X014229Y028983D02*
X014129Y028983D01*
X014129Y028885D02*
X014229Y028885D01*
X014229Y028786D02*
X014129Y028786D01*
X014129Y028688D02*
X014229Y028688D01*
X014229Y028589D02*
X014129Y028589D01*
X014129Y028491D02*
X014229Y028491D01*
X014229Y028392D02*
X014129Y028392D01*
X014129Y028294D02*
X014229Y028294D01*
X014229Y028195D02*
X014129Y028195D01*
X014129Y028097D02*
X014229Y028097D01*
X014229Y027998D02*
X014129Y027998D01*
X014364Y027801D02*
X010752Y027801D01*
X010659Y027900D02*
X014516Y027900D01*
X014684Y027900D02*
X018636Y027900D01*
X018560Y027801D02*
X018252Y027801D01*
X018351Y027703D02*
X018560Y027703D01*
X018560Y027604D02*
X018449Y027604D01*
X018548Y027506D02*
X018560Y027506D01*
X018235Y027112D02*
X017898Y027112D01*
X017909Y027210D02*
X018136Y027210D01*
X018038Y027309D02*
X017889Y027309D01*
X017850Y027013D02*
X018333Y027013D01*
X018432Y026915D02*
X017718Y026915D01*
X017482Y026915D02*
X003220Y026915D01*
X003220Y027013D02*
X010833Y027013D01*
X010735Y027112D02*
X003220Y027112D01*
X003220Y027210D02*
X010636Y027210D01*
X010538Y027309D02*
X003220Y027309D01*
X003220Y027407D02*
X010439Y027407D01*
X010341Y027506D02*
X006878Y027506D01*
X006322Y027506D02*
X003220Y027506D01*
X003220Y027604D02*
X006164Y027604D01*
X006066Y027703D02*
X003220Y027703D01*
X003220Y027801D02*
X006005Y027801D01*
X005964Y027900D02*
X003220Y027900D01*
X003220Y027998D02*
X005930Y027998D01*
X005930Y028097D02*
X003220Y028097D01*
X003220Y028195D02*
X005930Y028195D01*
X005948Y028294D02*
X003220Y028294D01*
X003220Y028392D02*
X005989Y028392D01*
X006030Y028491D02*
X003220Y028491D01*
X003220Y028589D02*
X006126Y028589D01*
X006230Y028688D02*
X003220Y028688D01*
X003220Y028786D02*
X008977Y028786D01*
X008977Y028688D02*
X006970Y028688D01*
X005462Y029377D02*
X003220Y029377D01*
X003220Y029279D02*
X005342Y029279D01*
X005299Y029180D02*
X003220Y029180D01*
X003220Y029082D02*
X005291Y029082D01*
X005314Y028983D02*
X003220Y028983D01*
X003220Y028885D02*
X005379Y028885D01*
X007270Y030067D02*
X008977Y030067D01*
X008977Y030165D02*
X007270Y030165D01*
X007251Y030264D02*
X009029Y030264D01*
X009020Y030362D02*
X007210Y030362D01*
X007169Y030461D02*
X009039Y030461D01*
X009092Y030559D02*
X007073Y030559D01*
X006967Y030658D02*
X009230Y030658D01*
X010232Y030264D02*
X018003Y030264D01*
X018291Y030855D02*
X003220Y030855D01*
X003220Y030953D02*
X018309Y030953D01*
X018365Y031052D02*
X003220Y031052D01*
X003220Y031150D02*
X018518Y031150D01*
X018682Y031150D02*
X053636Y031150D01*
X053836Y031052D02*
X019252Y031052D01*
X019350Y030953D02*
X054036Y030953D01*
X054236Y030855D02*
X019449Y030855D01*
X019547Y030756D02*
X054436Y030756D01*
X054636Y030658D02*
X019646Y030658D01*
X019744Y030559D02*
X054836Y030559D01*
X055036Y030461D02*
X019825Y030461D01*
X019850Y030362D02*
X055236Y030362D01*
X055436Y030264D02*
X019850Y030264D01*
X017938Y028983D02*
X014829Y028983D01*
X014829Y028885D02*
X017938Y028885D01*
X017938Y028786D02*
X014829Y028786D01*
X014829Y028688D02*
X017938Y028688D01*
X017938Y028589D02*
X014829Y028589D01*
X014829Y028491D02*
X017938Y028491D01*
X017938Y028392D02*
X014829Y028392D01*
X014829Y028294D02*
X017938Y028294D01*
X017938Y028195D02*
X014829Y028195D01*
X014829Y028097D02*
X017938Y028097D01*
X017997Y027998D02*
X014789Y027998D01*
X014308Y027703D02*
X010851Y027703D01*
X010949Y027604D02*
X014291Y027604D01*
X014305Y027506D02*
X011048Y027506D01*
X010317Y029279D02*
X013529Y029279D01*
X013529Y029377D02*
X010317Y029377D01*
X010317Y029476D02*
X013529Y029476D01*
X013529Y029574D02*
X010317Y029574D01*
X010317Y029673D02*
X013529Y029673D01*
X013529Y029771D02*
X010317Y029771D01*
X010317Y029870D02*
X013529Y029870D01*
X013529Y029968D02*
X010317Y029968D01*
X010317Y030067D02*
X013529Y030067D01*
X013543Y030165D02*
X010317Y030165D01*
X003220Y031249D02*
X053436Y031249D01*
X053235Y031347D02*
X003220Y031347D01*
X003220Y031446D02*
X053035Y031446D01*
X052835Y031544D02*
X003220Y031544D01*
X003220Y031643D02*
X052635Y031643D01*
X052435Y031741D02*
X003220Y031741D01*
X003220Y031840D02*
X052235Y031840D01*
X052035Y031938D02*
X003220Y031938D01*
X003220Y026816D02*
X018581Y026816D01*
X018580Y026718D02*
X003220Y026718D01*
X003220Y026619D02*
X019050Y026619D01*
X018580Y026521D02*
X003220Y026521D01*
X003220Y026422D02*
X018580Y026422D01*
X018641Y026324D02*
X003220Y026324D01*
X003220Y026225D02*
X018740Y026225D01*
X021489Y026225D02*
X052110Y026225D01*
X052305Y026324D02*
X021587Y026324D01*
X021640Y026422D02*
X052500Y026422D01*
X052695Y026521D02*
X021640Y026521D01*
X021640Y026619D02*
X052890Y026619D01*
X053085Y026718D02*
X021640Y026718D01*
X021640Y026816D02*
X021729Y026816D01*
X021971Y026816D02*
X053280Y026816D01*
X053475Y026915D02*
X022101Y026915D01*
X022148Y027013D02*
X053670Y027013D01*
X051991Y023960D02*
X003220Y023960D01*
X003220Y023970D02*
X051970Y023970D01*
X057800Y021100D01*
X052100Y018220D01*
X021484Y018220D01*
X021640Y018376D01*
X021640Y018824D01*
X021594Y018870D01*
X021643Y018870D01*
X021675Y018838D01*
X021789Y018791D01*
X021911Y018791D01*
X022025Y018838D01*
X022112Y018925D01*
X022159Y019039D01*
X022159Y019161D01*
X022112Y019275D01*
X022025Y019362D01*
X021911Y019409D01*
X021789Y019409D01*
X021675Y019362D01*
X021643Y019330D01*
X021640Y019330D01*
X021640Y020040D01*
X021540Y020140D01*
X020660Y020140D01*
X020560Y020040D01*
X020560Y019904D01*
X020324Y020140D01*
X019876Y020140D01*
X019600Y019864D01*
X019324Y020140D01*
X019278Y020140D01*
X019278Y022198D01*
X019178Y022298D01*
X018037Y022298D01*
X017938Y022198D01*
X017938Y020057D01*
X018037Y019958D01*
X018694Y019958D01*
X018560Y019824D01*
X018560Y019494D01*
X018312Y019742D01*
X018242Y019812D01*
X018150Y019850D01*
X014787Y019850D01*
X014775Y019862D01*
X014661Y019909D01*
X014539Y019909D01*
X014425Y019862D01*
X014338Y019775D01*
X014291Y019661D01*
X014291Y019539D01*
X014328Y019450D01*
X011104Y019450D01*
X010659Y019895D01*
X010659Y019911D01*
X010612Y020025D01*
X010525Y020112D01*
X010411Y020159D01*
X010317Y020159D01*
X010317Y020270D01*
X010666Y020270D01*
X010787Y020320D01*
X010880Y020413D01*
X010930Y020534D01*
X010930Y020666D01*
X010880Y020787D01*
X010787Y020880D01*
X010666Y020930D01*
X010317Y020930D01*
X010317Y022178D01*
X010218Y022278D01*
X009889Y022278D01*
X009537Y022630D01*
X009416Y022680D01*
X009284Y022680D01*
X009163Y022630D01*
X009070Y022537D01*
X009020Y022416D01*
X009020Y022284D01*
X009039Y022240D01*
X008977Y022178D01*
X008977Y020037D01*
X009077Y019938D01*
X009302Y019938D01*
X009291Y019911D01*
X009291Y019789D01*
X009338Y019675D01*
X009425Y019588D01*
X009539Y019541D01*
X009661Y019541D01*
X009775Y019588D01*
X009862Y019675D01*
X009909Y019789D01*
X009909Y019911D01*
X009898Y019938D01*
X010052Y019938D01*
X010041Y019911D01*
X010041Y019789D01*
X010088Y019675D01*
X010175Y019588D01*
X010289Y019541D01*
X010305Y019541D01*
X010858Y018988D01*
X010950Y018950D01*
X017413Y018950D01*
X017425Y018938D01*
X017539Y018891D01*
X017661Y018891D01*
X017775Y018938D01*
X017862Y019025D01*
X017909Y019139D01*
X017909Y019261D01*
X017872Y019350D01*
X017996Y019350D01*
X018458Y018888D01*
X018550Y018850D01*
X018615Y018850D01*
X018580Y018815D01*
X018580Y018650D01*
X019050Y018650D01*
X019050Y018550D01*
X018580Y018550D01*
X018580Y018385D01*
X018745Y018220D01*
X003220Y018220D01*
X003220Y023970D01*
X003220Y023861D02*
X052191Y023861D01*
X052391Y023763D02*
X003220Y023763D01*
X003220Y023664D02*
X052592Y023664D01*
X052792Y023566D02*
X003220Y023566D01*
X003220Y023467D02*
X052992Y023467D01*
X053192Y023369D02*
X003220Y023369D01*
X003220Y023270D02*
X053392Y023270D01*
X053592Y023172D02*
X003220Y023172D01*
X003220Y023073D02*
X018386Y023073D01*
X018425Y023112D02*
X018338Y023025D01*
X018291Y022911D01*
X018291Y022789D01*
X018338Y022675D01*
X018425Y022588D01*
X018539Y022541D01*
X018661Y022541D01*
X018775Y022588D01*
X018787Y022600D01*
X018996Y022600D01*
X019350Y022246D01*
X019350Y020787D01*
X019338Y020775D01*
X019291Y020661D01*
X019291Y020539D01*
X019338Y020425D01*
X019425Y020338D01*
X019539Y020291D01*
X019661Y020291D01*
X019775Y020338D01*
X019862Y020425D01*
X019909Y020539D01*
X019909Y020661D01*
X019862Y020775D01*
X019850Y020787D01*
X019850Y022300D01*
X019850Y022400D01*
X019812Y022492D01*
X019312Y022992D01*
X019242Y023062D01*
X019150Y023100D01*
X018787Y023100D01*
X018775Y023112D01*
X018661Y023159D01*
X018539Y023159D01*
X018425Y023112D01*
X018317Y022975D02*
X003220Y022975D01*
X003220Y022876D02*
X018291Y022876D01*
X018296Y022778D02*
X003220Y022778D01*
X003220Y022679D02*
X006285Y022679D01*
X006220Y022652D02*
X006032Y022464D01*
X005930Y022218D01*
X005930Y021951D01*
X006032Y021705D01*
X006220Y021516D01*
X006467Y021414D01*
X006733Y021414D01*
X006980Y021516D01*
X007168Y021705D01*
X007270Y021951D01*
X007270Y022218D01*
X007168Y022464D01*
X006980Y022652D01*
X006733Y022754D01*
X006467Y022754D01*
X006220Y022652D01*
X006149Y022581D02*
X003220Y022581D01*
X003220Y022482D02*
X006050Y022482D01*
X005999Y022384D02*
X003220Y022384D01*
X003220Y022285D02*
X005958Y022285D01*
X005930Y022187D02*
X003220Y022187D01*
X003220Y022088D02*
X005930Y022088D01*
X005930Y021990D02*
X003220Y021990D01*
X003220Y021891D02*
X005955Y021891D01*
X005996Y021793D02*
X003220Y021793D01*
X003220Y021694D02*
X006043Y021694D01*
X006141Y021596D02*
X003220Y021596D01*
X003220Y021497D02*
X006267Y021497D01*
X005707Y021390D02*
X005661Y021409D01*
X005539Y021409D01*
X005425Y021362D01*
X005338Y021275D01*
X005291Y021161D01*
X005291Y021039D01*
X005338Y020925D01*
X005425Y020838D01*
X005539Y020791D01*
X005661Y020791D01*
X005707Y020810D01*
X007158Y020810D01*
X007264Y020854D01*
X007346Y020936D01*
X007730Y021320D01*
X007775Y021338D01*
X007862Y021425D01*
X007909Y021539D01*
X007909Y021661D01*
X007862Y021775D01*
X007775Y021862D01*
X007661Y021909D01*
X007539Y021909D01*
X007425Y021862D01*
X007338Y021775D01*
X007320Y021730D01*
X006980Y021390D01*
X005707Y021390D01*
X005686Y021399D02*
X006988Y021399D01*
X006933Y021497D02*
X007087Y021497D01*
X007059Y021596D02*
X007185Y021596D01*
X007157Y021694D02*
X007284Y021694D01*
X007356Y021793D02*
X007204Y021793D01*
X007245Y021891D02*
X007496Y021891D01*
X007704Y021891D02*
X008977Y021891D01*
X008977Y021793D02*
X007844Y021793D01*
X007895Y021694D02*
X008977Y021694D01*
X008977Y021596D02*
X007909Y021596D01*
X007892Y021497D02*
X008977Y021497D01*
X008977Y021399D02*
X007835Y021399D01*
X007710Y021300D02*
X008977Y021300D01*
X008977Y021202D02*
X007612Y021202D01*
X007513Y021103D02*
X008977Y021103D01*
X008977Y021005D02*
X007415Y021005D01*
X007316Y020906D02*
X008977Y020906D01*
X008977Y020808D02*
X005701Y020808D01*
X005499Y020808D02*
X003220Y020808D01*
X003220Y020906D02*
X005357Y020906D01*
X005305Y021005D02*
X003220Y021005D01*
X003220Y021103D02*
X005291Y021103D01*
X005308Y021202D02*
X003220Y021202D01*
X003220Y021300D02*
X005363Y021300D01*
X005514Y021399D02*
X003220Y021399D01*
X003220Y020709D02*
X006282Y020709D01*
X006220Y020684D02*
X006032Y020495D01*
X005930Y020249D01*
X005930Y019982D01*
X006032Y019736D01*
X006220Y019548D01*
X006467Y019446D01*
X006733Y019446D01*
X006980Y019548D01*
X007168Y019736D01*
X007270Y019982D01*
X007270Y020249D01*
X007168Y020495D01*
X006980Y020684D01*
X006733Y020786D01*
X006467Y020786D01*
X006220Y020684D01*
X006147Y020611D02*
X003220Y020611D01*
X003220Y020512D02*
X006049Y020512D01*
X005998Y020414D02*
X003220Y020414D01*
X003220Y020315D02*
X005957Y020315D01*
X005930Y020217D02*
X003220Y020217D01*
X003220Y020118D02*
X005930Y020118D01*
X005930Y020020D02*
X003220Y020020D01*
X003220Y019921D02*
X005955Y019921D01*
X005996Y019823D02*
X003220Y019823D01*
X003220Y019724D02*
X006044Y019724D01*
X006143Y019626D02*
X003220Y019626D01*
X003220Y019527D02*
X006270Y019527D01*
X006930Y019527D02*
X010319Y019527D01*
X010418Y019429D02*
X003220Y019429D01*
X003220Y019330D02*
X010516Y019330D01*
X010615Y019232D02*
X003220Y019232D01*
X003220Y019133D02*
X010713Y019133D01*
X010812Y019035D02*
X003220Y019035D01*
X003220Y018936D02*
X017430Y018936D01*
X017770Y018936D02*
X018410Y018936D01*
X018312Y019035D02*
X017866Y019035D01*
X017906Y019133D02*
X018213Y019133D01*
X018115Y019232D02*
X017909Y019232D01*
X017880Y019330D02*
X018016Y019330D01*
X018330Y019724D02*
X018560Y019724D01*
X018560Y019626D02*
X018428Y019626D01*
X018527Y019527D02*
X018560Y019527D01*
X018560Y019823D02*
X018216Y019823D01*
X017975Y020020D02*
X014805Y020020D01*
X014799Y020008D02*
X014819Y020042D01*
X014829Y020080D01*
X014829Y021050D01*
X014229Y021050D01*
X014229Y021150D01*
X014829Y021150D01*
X014829Y022120D01*
X014819Y022158D01*
X014799Y022192D01*
X014771Y022220D01*
X014737Y022240D01*
X014698Y022250D01*
X014229Y022250D01*
X014229Y021150D01*
X014129Y021150D01*
X014129Y022250D01*
X013659Y022250D01*
X013621Y022240D01*
X013587Y022220D01*
X013559Y022192D01*
X013539Y022158D01*
X013529Y022120D01*
X013529Y021150D01*
X014129Y021150D01*
X014129Y021050D01*
X014229Y021050D01*
X014229Y019950D01*
X014698Y019950D01*
X014737Y019960D01*
X014771Y019980D01*
X014799Y020008D01*
X014829Y020118D02*
X017938Y020118D01*
X017938Y020217D02*
X014829Y020217D01*
X014829Y020315D02*
X017938Y020315D01*
X017938Y020414D02*
X014829Y020414D01*
X014829Y020512D02*
X017938Y020512D01*
X017938Y020611D02*
X014829Y020611D01*
X014829Y020709D02*
X017938Y020709D01*
X017938Y020808D02*
X014829Y020808D01*
X014829Y020906D02*
X017938Y020906D01*
X017938Y021005D02*
X014829Y021005D01*
X014829Y021202D02*
X017938Y021202D01*
X017938Y021300D02*
X014829Y021300D01*
X014829Y021399D02*
X017938Y021399D01*
X017938Y021497D02*
X014829Y021497D01*
X014829Y021596D02*
X017938Y021596D01*
X017938Y021694D02*
X014829Y021694D01*
X014829Y021793D02*
X017938Y021793D01*
X017938Y021891D02*
X014829Y021891D01*
X014829Y021990D02*
X017938Y021990D01*
X017938Y022088D02*
X014829Y022088D01*
X014802Y022187D02*
X017938Y022187D01*
X018025Y022285D02*
X009882Y022285D01*
X009783Y022384D02*
X019213Y022384D01*
X019191Y022285D02*
X019311Y022285D01*
X019278Y022187D02*
X019350Y022187D01*
X019350Y022088D02*
X019278Y022088D01*
X019278Y021990D02*
X019350Y021990D01*
X019350Y021891D02*
X019278Y021891D01*
X019278Y021793D02*
X019350Y021793D01*
X019350Y021694D02*
X019278Y021694D01*
X019278Y021596D02*
X019350Y021596D01*
X019350Y021497D02*
X019278Y021497D01*
X019278Y021399D02*
X019350Y021399D01*
X019350Y021300D02*
X019278Y021300D01*
X019278Y021202D02*
X019350Y021202D01*
X019350Y021103D02*
X019278Y021103D01*
X019278Y021005D02*
X019350Y021005D01*
X019350Y020906D02*
X019278Y020906D01*
X019278Y020808D02*
X019350Y020808D01*
X019311Y020709D02*
X019278Y020709D01*
X019278Y020611D02*
X019291Y020611D01*
X019278Y020512D02*
X019302Y020512D01*
X019278Y020414D02*
X019350Y020414D01*
X019278Y020315D02*
X019481Y020315D01*
X019278Y020217D02*
X056051Y020217D01*
X055857Y020118D02*
X021562Y020118D01*
X021640Y020020D02*
X055662Y020020D01*
X055467Y019921D02*
X021640Y019921D01*
X021640Y019823D02*
X055272Y019823D01*
X055077Y019724D02*
X021640Y019724D01*
X021640Y019626D02*
X054882Y019626D01*
X054687Y019527D02*
X021640Y019527D01*
X021640Y019429D02*
X054492Y019429D01*
X054297Y019330D02*
X022057Y019330D01*
X022130Y019232D02*
X054102Y019232D01*
X053907Y019133D02*
X022159Y019133D01*
X022157Y019035D02*
X053712Y019035D01*
X053517Y018936D02*
X022116Y018936D01*
X022023Y018838D02*
X053322Y018838D01*
X053127Y018739D02*
X021640Y018739D01*
X021640Y018641D02*
X052932Y018641D01*
X052737Y018542D02*
X021640Y018542D01*
X021640Y018444D02*
X052542Y018444D01*
X052347Y018345D02*
X021609Y018345D01*
X021510Y018247D02*
X052153Y018247D01*
X051970Y015970D02*
X057800Y013100D01*
X052100Y010220D01*
X021484Y010220D01*
X021640Y010376D01*
X021640Y010824D01*
X021594Y010870D01*
X021643Y010870D01*
X021675Y010838D01*
X021789Y010791D01*
X021911Y010791D01*
X022025Y010838D01*
X022112Y010925D01*
X022159Y011039D01*
X022159Y011161D01*
X022112Y011275D01*
X022025Y011362D01*
X021911Y011409D01*
X021789Y011409D01*
X021675Y011362D01*
X021643Y011330D01*
X021640Y011330D01*
X021640Y012040D01*
X021540Y012140D01*
X020660Y012140D01*
X020560Y012040D01*
X020560Y011904D01*
X020324Y012140D01*
X019876Y012140D01*
X019600Y011864D01*
X019324Y012140D01*
X019278Y012140D01*
X019278Y014198D01*
X019178Y014298D01*
X018037Y014298D01*
X017938Y014198D01*
X017938Y012057D01*
X018037Y011958D01*
X018694Y011958D01*
X018560Y011824D01*
X018560Y011494D01*
X018312Y011742D01*
X018242Y011812D01*
X018150Y011850D01*
X014787Y011850D01*
X014775Y011862D01*
X014661Y011909D01*
X014539Y011909D01*
X014425Y011862D01*
X014338Y011775D01*
X014291Y011661D01*
X014291Y011539D01*
X014328Y011450D01*
X011104Y011450D01*
X010659Y011895D01*
X010659Y011911D01*
X010612Y012025D01*
X010525Y012112D01*
X010411Y012159D01*
X010317Y012159D01*
X010317Y012270D01*
X010666Y012270D01*
X010787Y012320D01*
X010880Y012413D01*
X010930Y012534D01*
X010930Y012666D01*
X010880Y012787D01*
X010787Y012880D01*
X010666Y012930D01*
X010317Y012930D01*
X010317Y014178D01*
X010218Y014278D01*
X009889Y014278D01*
X009537Y014630D01*
X009416Y014680D01*
X009284Y014680D01*
X009163Y014630D01*
X009070Y014537D01*
X009020Y014416D01*
X009020Y014284D01*
X009039Y014240D01*
X008977Y014178D01*
X008977Y012037D01*
X009077Y011938D01*
X009302Y011938D01*
X009291Y011911D01*
X009291Y011789D01*
X009338Y011675D01*
X009425Y011588D01*
X009539Y011541D01*
X009661Y011541D01*
X009775Y011588D01*
X009862Y011675D01*
X009909Y011789D01*
X009909Y011911D01*
X009898Y011938D01*
X010052Y011938D01*
X010041Y011911D01*
X010041Y011789D01*
X010088Y011675D01*
X010175Y011588D01*
X010289Y011541D01*
X010305Y011541D01*
X010858Y010988D01*
X010950Y010950D01*
X017413Y010950D01*
X017425Y010938D01*
X017539Y010891D01*
X017661Y010891D01*
X017775Y010938D01*
X017862Y011025D01*
X017909Y011139D01*
X017909Y011261D01*
X017872Y011350D01*
X017996Y011350D01*
X018458Y010888D01*
X018550Y010850D01*
X018615Y010850D01*
X018580Y010815D01*
X018580Y010650D01*
X019050Y010650D01*
X019050Y010550D01*
X018580Y010550D01*
X018580Y010385D01*
X018745Y010220D01*
X003220Y010220D01*
X003220Y015970D01*
X051970Y015970D01*
X052148Y015883D02*
X003220Y015883D01*
X003220Y015784D02*
X052348Y015784D01*
X052548Y015686D02*
X003220Y015686D01*
X003220Y015587D02*
X052748Y015587D01*
X052948Y015489D02*
X003220Y015489D01*
X003220Y015390D02*
X053148Y015390D01*
X053348Y015292D02*
X003220Y015292D01*
X003220Y015193D02*
X053548Y015193D01*
X053748Y015095D02*
X019163Y015095D01*
X019150Y015100D02*
X018787Y015100D01*
X018775Y015112D01*
X018661Y015159D01*
X018539Y015159D01*
X018425Y015112D01*
X018338Y015025D01*
X018291Y014911D01*
X018291Y014789D01*
X018338Y014675D01*
X018425Y014588D01*
X018539Y014541D01*
X018661Y014541D01*
X018775Y014588D01*
X018787Y014600D01*
X018996Y014600D01*
X019350Y014246D01*
X019350Y012787D01*
X019338Y012775D01*
X019291Y012661D01*
X019291Y012539D01*
X019338Y012425D01*
X019425Y012338D01*
X019539Y012291D01*
X019661Y012291D01*
X019775Y012338D01*
X019862Y012425D01*
X019909Y012539D01*
X019909Y012661D01*
X019862Y012775D01*
X019850Y012787D01*
X019850Y014300D01*
X019850Y014400D01*
X019812Y014492D01*
X019312Y014992D01*
X019242Y015062D01*
X019150Y015100D01*
X019308Y014996D02*
X053949Y014996D01*
X054149Y014898D02*
X019406Y014898D01*
X019505Y014799D02*
X054349Y014799D01*
X054549Y014701D02*
X019603Y014701D01*
X019702Y014602D02*
X054749Y014602D01*
X054949Y014504D02*
X019800Y014504D01*
X019848Y014405D02*
X055149Y014405D01*
X055349Y014307D02*
X019850Y014307D01*
X019850Y014208D02*
X055549Y014208D01*
X055749Y014110D02*
X020527Y014110D01*
X020525Y014112D02*
X020411Y014159D01*
X020289Y014159D01*
X020175Y014112D01*
X020088Y014025D01*
X020041Y013911D01*
X020041Y013789D01*
X020088Y013675D01*
X020100Y013663D01*
X020100Y012787D01*
X020088Y012775D01*
X020041Y012661D01*
X020041Y012539D01*
X020088Y012425D01*
X020175Y012338D01*
X020289Y012291D01*
X020411Y012291D01*
X020525Y012338D01*
X020612Y012425D01*
X020659Y012539D01*
X020659Y012661D01*
X020612Y012775D01*
X020600Y012787D01*
X020600Y013663D01*
X020612Y013675D01*
X020659Y013789D01*
X020659Y013911D01*
X020612Y014025D01*
X020525Y014112D01*
X020617Y014011D02*
X055949Y014011D01*
X056149Y013913D02*
X020658Y013913D01*
X020659Y013814D02*
X056350Y013814D01*
X056550Y013716D02*
X020628Y013716D01*
X020600Y013617D02*
X056750Y013617D01*
X056950Y013519D02*
X020600Y013519D01*
X020600Y013420D02*
X057150Y013420D01*
X057350Y013322D02*
X020600Y013322D01*
X020600Y013223D02*
X057550Y013223D01*
X057654Y013026D02*
X020600Y013026D01*
X020600Y012928D02*
X057459Y012928D01*
X057264Y012829D02*
X020600Y012829D01*
X020630Y012731D02*
X057069Y012731D01*
X056874Y012632D02*
X020659Y012632D01*
X020657Y012534D02*
X056679Y012534D01*
X056484Y012435D02*
X020616Y012435D01*
X020521Y012337D02*
X056289Y012337D01*
X056094Y012238D02*
X019278Y012238D01*
X019278Y012337D02*
X019429Y012337D01*
X019334Y012435D02*
X019278Y012435D01*
X019278Y012534D02*
X019293Y012534D01*
X019291Y012632D02*
X019278Y012632D01*
X019278Y012731D02*
X019320Y012731D01*
X019350Y012829D02*
X019278Y012829D01*
X019278Y012928D02*
X019350Y012928D01*
X019350Y013026D02*
X019278Y013026D01*
X019278Y013125D02*
X019350Y013125D01*
X019350Y013223D02*
X019278Y013223D01*
X019278Y013322D02*
X019350Y013322D01*
X019350Y013420D02*
X019278Y013420D01*
X019278Y013519D02*
X019350Y013519D01*
X019350Y013617D02*
X019278Y013617D01*
X019278Y013716D02*
X019350Y013716D01*
X019350Y013814D02*
X019278Y013814D01*
X019278Y013913D02*
X019350Y013913D01*
X019350Y014011D02*
X019278Y014011D01*
X019278Y014110D02*
X019350Y014110D01*
X019350Y014208D02*
X019268Y014208D01*
X019290Y014307D02*
X009860Y014307D01*
X009762Y014405D02*
X019191Y014405D01*
X019093Y014504D02*
X009663Y014504D01*
X009565Y014602D02*
X018411Y014602D01*
X018328Y014701D02*
X006863Y014701D01*
X006980Y014652D02*
X006733Y014754D01*
X006467Y014754D01*
X006220Y014652D01*
X006032Y014464D01*
X005930Y014218D01*
X005930Y013951D01*
X006032Y013705D01*
X006220Y013516D01*
X006467Y013414D01*
X006733Y013414D01*
X006980Y013516D01*
X007168Y013705D01*
X007270Y013951D01*
X007270Y014218D01*
X007168Y014464D01*
X006980Y014652D01*
X007030Y014602D02*
X009135Y014602D01*
X009056Y014504D02*
X007128Y014504D01*
X007192Y014405D02*
X009020Y014405D01*
X009020Y014307D02*
X007233Y014307D01*
X007270Y014208D02*
X009007Y014208D01*
X008977Y014110D02*
X007270Y014110D01*
X007270Y014011D02*
X008977Y014011D01*
X008977Y013913D02*
X007254Y013913D01*
X007213Y013814D02*
X007377Y013814D01*
X007338Y013775D02*
X007320Y013730D01*
X006980Y013390D01*
X005707Y013390D01*
X005661Y013409D01*
X005539Y013409D01*
X005425Y013362D01*
X005338Y013275D01*
X005291Y013161D01*
X005291Y013039D01*
X005338Y012925D01*
X005425Y012838D01*
X005539Y012791D01*
X005661Y012791D01*
X005707Y012810D01*
X007158Y012810D01*
X007264Y012854D01*
X007346Y012936D01*
X007730Y013320D01*
X007775Y013338D01*
X007862Y013425D01*
X007909Y013539D01*
X007909Y013661D01*
X007862Y013775D01*
X007775Y013862D01*
X007661Y013909D01*
X007539Y013909D01*
X007425Y013862D01*
X007338Y013775D01*
X007305Y013716D02*
X007172Y013716D01*
X007207Y013617D02*
X007080Y013617D01*
X007108Y013519D02*
X006982Y013519D01*
X007010Y013420D02*
X006747Y013420D01*
X006453Y013420D02*
X003220Y013420D01*
X003220Y013322D02*
X005385Y013322D01*
X005317Y013223D02*
X003220Y013223D01*
X003220Y013125D02*
X005291Y013125D01*
X005296Y013026D02*
X003220Y013026D01*
X003220Y012928D02*
X005337Y012928D01*
X005447Y012829D02*
X003220Y012829D01*
X003220Y012731D02*
X006333Y012731D01*
X006220Y012684D02*
X006032Y012495D01*
X005930Y012249D01*
X005930Y011982D01*
X006032Y011736D01*
X006220Y011548D01*
X006467Y011446D01*
X006733Y011446D01*
X006980Y011548D01*
X007168Y011736D01*
X007270Y011982D01*
X007270Y012249D01*
X007168Y012495D01*
X006980Y012684D01*
X006733Y012786D01*
X006467Y012786D01*
X006220Y012684D01*
X006169Y012632D02*
X003220Y012632D01*
X003220Y012534D02*
X006070Y012534D01*
X006007Y012435D02*
X003220Y012435D01*
X003220Y012337D02*
X005966Y012337D01*
X005930Y012238D02*
X003220Y012238D01*
X003220Y012140D02*
X005930Y012140D01*
X005930Y012041D02*
X003220Y012041D01*
X003220Y011943D02*
X005947Y011943D01*
X005987Y011844D02*
X003220Y011844D01*
X003220Y011746D02*
X006028Y011746D01*
X006121Y011647D02*
X003220Y011647D01*
X003220Y011549D02*
X006220Y011549D01*
X006456Y011450D02*
X003220Y011450D01*
X003220Y011352D02*
X010495Y011352D01*
X010396Y011450D02*
X006744Y011450D01*
X006980Y011549D02*
X009521Y011549D01*
X009679Y011549D02*
X010271Y011549D01*
X010116Y011647D02*
X009834Y011647D01*
X009891Y011746D02*
X010059Y011746D01*
X010041Y011844D02*
X009909Y011844D01*
X010317Y012238D02*
X013529Y012238D01*
X013529Y012140D02*
X010458Y012140D01*
X010596Y012041D02*
X013540Y012041D01*
X013539Y012042D02*
X013559Y012008D01*
X013587Y011980D01*
X013621Y011960D01*
X013659Y011950D01*
X014129Y011950D01*
X014129Y013050D01*
X014229Y013050D01*
X014229Y013150D01*
X014829Y013150D01*
X014829Y014120D01*
X014819Y014158D01*
X014799Y014192D01*
X014771Y014220D01*
X014737Y014240D01*
X014698Y014250D01*
X014229Y014250D01*
X014229Y013150D01*
X014129Y013150D01*
X014129Y014250D01*
X013659Y014250D01*
X013621Y014240D01*
X013587Y014220D01*
X013559Y014192D01*
X013539Y014158D01*
X013529Y014120D01*
X013529Y013150D01*
X014129Y013150D01*
X014129Y013050D01*
X013529Y013050D01*
X013529Y012080D01*
X013539Y012042D01*
X013529Y012337D02*
X010803Y012337D01*
X010889Y012435D02*
X013529Y012435D01*
X013529Y012534D02*
X010930Y012534D01*
X010930Y012632D02*
X013529Y012632D01*
X013529Y012731D02*
X010903Y012731D01*
X010838Y012829D02*
X013529Y012829D01*
X013529Y012928D02*
X010672Y012928D01*
X010317Y013026D02*
X013529Y013026D01*
X013529Y013223D02*
X010317Y013223D01*
X010317Y013125D02*
X014129Y013125D01*
X014129Y013223D02*
X014229Y013223D01*
X014229Y013125D02*
X017938Y013125D01*
X017938Y013223D02*
X014829Y013223D01*
X014829Y013322D02*
X017938Y013322D01*
X017938Y013420D02*
X014829Y013420D01*
X014829Y013519D02*
X017938Y013519D01*
X017938Y013617D02*
X014829Y013617D01*
X014829Y013716D02*
X017938Y013716D01*
X017938Y013814D02*
X014829Y013814D01*
X014829Y013913D02*
X017938Y013913D01*
X017938Y014011D02*
X014829Y014011D01*
X014829Y014110D02*
X017938Y014110D01*
X017948Y014208D02*
X014783Y014208D01*
X014229Y014208D02*
X014129Y014208D01*
X014129Y014110D02*
X014229Y014110D01*
X014229Y014011D02*
X014129Y014011D01*
X014129Y013913D02*
X014229Y013913D01*
X014229Y013814D02*
X014129Y013814D01*
X014129Y013716D02*
X014229Y013716D01*
X014229Y013617D02*
X014129Y013617D01*
X014129Y013519D02*
X014229Y013519D01*
X014229Y013420D02*
X014129Y013420D01*
X014129Y013322D02*
X014229Y013322D01*
X014229Y013050D02*
X014829Y013050D01*
X014829Y012080D01*
X014819Y012042D01*
X014799Y012008D01*
X014771Y011980D01*
X014737Y011960D01*
X014698Y011950D01*
X014229Y011950D01*
X014229Y013050D01*
X014229Y013026D02*
X014129Y013026D01*
X014129Y012928D02*
X014229Y012928D01*
X014229Y012829D02*
X014129Y012829D01*
X014129Y012731D02*
X014229Y012731D01*
X014229Y012632D02*
X014129Y012632D01*
X014129Y012534D02*
X014229Y012534D01*
X014229Y012435D02*
X014129Y012435D01*
X014129Y012337D02*
X014229Y012337D01*
X014229Y012238D02*
X014129Y012238D01*
X014129Y012140D02*
X014229Y012140D01*
X014229Y012041D02*
X014129Y012041D01*
X014407Y011844D02*
X010710Y011844D01*
X010646Y011943D02*
X018679Y011943D01*
X018580Y011844D02*
X018164Y011844D01*
X018308Y011746D02*
X018560Y011746D01*
X018560Y011647D02*
X018407Y011647D01*
X018505Y011549D02*
X018560Y011549D01*
X018192Y011155D02*
X017909Y011155D01*
X017909Y011253D02*
X018093Y011253D01*
X018290Y011056D02*
X017875Y011056D01*
X017794Y010958D02*
X018389Y010958D01*
X018528Y010859D02*
X003220Y010859D01*
X003220Y010761D02*
X018580Y010761D01*
X018580Y010662D02*
X003220Y010662D01*
X003220Y010564D02*
X019050Y010564D01*
X018697Y010268D02*
X003220Y010268D01*
X003220Y010367D02*
X018598Y010367D01*
X018580Y010465D02*
X003220Y010465D01*
X003220Y010958D02*
X010932Y010958D01*
X010790Y011056D02*
X003220Y011056D01*
X003220Y011155D02*
X010692Y011155D01*
X010593Y011253D02*
X003220Y011253D01*
X007079Y011647D02*
X009366Y011647D01*
X009309Y011746D02*
X007172Y011746D01*
X007213Y011844D02*
X009291Y011844D01*
X009072Y011943D02*
X007253Y011943D01*
X007270Y012041D02*
X008977Y012041D01*
X008977Y012140D02*
X007270Y012140D01*
X007270Y012238D02*
X008977Y012238D01*
X008977Y012337D02*
X007234Y012337D01*
X007193Y012435D02*
X008977Y012435D01*
X008977Y012534D02*
X007130Y012534D01*
X007031Y012632D02*
X008977Y012632D01*
X008977Y012731D02*
X006867Y012731D01*
X007204Y012829D02*
X008977Y012829D01*
X008977Y012928D02*
X007338Y012928D01*
X007346Y012936D02*
X007346Y012936D01*
X007436Y013026D02*
X008977Y013026D01*
X008977Y013125D02*
X007535Y013125D01*
X007633Y013223D02*
X008977Y013223D01*
X008977Y013322D02*
X007734Y013322D01*
X007857Y013420D02*
X008977Y013420D01*
X008977Y013519D02*
X007900Y013519D01*
X007909Y013617D02*
X008977Y013617D01*
X008977Y013716D02*
X007886Y013716D01*
X007823Y013814D02*
X008977Y013814D01*
X010317Y013814D02*
X013529Y013814D01*
X013529Y013716D02*
X010317Y013716D01*
X010317Y013617D02*
X013529Y013617D01*
X013529Y013519D02*
X010317Y013519D01*
X010317Y013420D02*
X013529Y013420D01*
X013529Y013322D02*
X010317Y013322D01*
X010317Y013913D02*
X013529Y013913D01*
X013529Y014011D02*
X010317Y014011D01*
X010317Y014110D02*
X013529Y014110D01*
X013575Y014208D02*
X010288Y014208D01*
X010808Y011746D02*
X014326Y011746D01*
X014291Y011647D02*
X010907Y011647D01*
X011005Y011549D02*
X014291Y011549D01*
X014328Y011450D02*
X011104Y011450D01*
X014818Y012041D02*
X017954Y012041D01*
X017938Y012140D02*
X014829Y012140D01*
X014829Y012238D02*
X017938Y012238D01*
X017938Y012337D02*
X014829Y012337D01*
X014829Y012435D02*
X017938Y012435D01*
X017938Y012534D02*
X014829Y012534D01*
X014829Y012632D02*
X017938Y012632D01*
X017938Y012731D02*
X014829Y012731D01*
X014829Y012829D02*
X017938Y012829D01*
X017938Y012928D02*
X014829Y012928D01*
X014829Y013026D02*
X017938Y013026D01*
X019324Y012140D02*
X019876Y012140D01*
X019777Y012041D02*
X019423Y012041D01*
X019521Y011943D02*
X019679Y011943D01*
X020324Y012140D02*
X020659Y012140D01*
X020561Y012041D02*
X020423Y012041D01*
X020521Y011943D02*
X020560Y011943D01*
X021541Y012140D02*
X055899Y012140D01*
X055704Y012041D02*
X021639Y012041D01*
X021640Y011943D02*
X055509Y011943D01*
X055314Y011844D02*
X021640Y011844D01*
X021640Y011746D02*
X055119Y011746D01*
X054924Y011647D02*
X021640Y011647D01*
X021640Y011549D02*
X054729Y011549D01*
X054534Y011450D02*
X021640Y011450D01*
X021640Y011352D02*
X021665Y011352D01*
X022035Y011352D02*
X054339Y011352D01*
X054145Y011253D02*
X022121Y011253D01*
X022159Y011155D02*
X053950Y011155D01*
X053755Y011056D02*
X022159Y011056D01*
X022125Y010958D02*
X053560Y010958D01*
X053365Y010859D02*
X022046Y010859D01*
X021654Y010859D02*
X021605Y010859D01*
X021640Y010761D02*
X053170Y010761D01*
X052975Y010662D02*
X021640Y010662D01*
X021640Y010564D02*
X052780Y010564D01*
X052585Y010465D02*
X021640Y010465D01*
X021630Y010367D02*
X052390Y010367D01*
X052195Y010268D02*
X021532Y010268D01*
X020179Y012337D02*
X019771Y012337D01*
X019866Y012435D02*
X020084Y012435D01*
X020043Y012534D02*
X019907Y012534D01*
X019909Y012632D02*
X020041Y012632D01*
X020070Y012731D02*
X019880Y012731D01*
X019850Y012829D02*
X020100Y012829D01*
X020100Y012928D02*
X019850Y012928D01*
X019850Y013026D02*
X020100Y013026D01*
X020100Y013125D02*
X019850Y013125D01*
X019850Y013223D02*
X020100Y013223D01*
X020100Y013322D02*
X019850Y013322D01*
X019850Y013420D02*
X020100Y013420D01*
X020100Y013519D02*
X019850Y013519D01*
X019850Y013617D02*
X020100Y013617D01*
X020072Y013716D02*
X019850Y013716D01*
X019850Y013814D02*
X020041Y013814D01*
X020042Y013913D02*
X019850Y013913D01*
X019850Y014011D02*
X020083Y014011D01*
X020173Y014110D02*
X019850Y014110D01*
X018291Y014799D02*
X003220Y014799D01*
X003220Y014701D02*
X006337Y014701D01*
X006170Y014602D02*
X003220Y014602D01*
X003220Y014504D02*
X006072Y014504D01*
X006008Y014405D02*
X003220Y014405D01*
X003220Y014307D02*
X005967Y014307D01*
X005930Y014208D02*
X003220Y014208D01*
X003220Y014110D02*
X005930Y014110D01*
X005930Y014011D02*
X003220Y014011D01*
X003220Y013913D02*
X005946Y013913D01*
X005987Y013814D02*
X003220Y013814D01*
X003220Y013716D02*
X006028Y013716D01*
X006120Y013617D02*
X003220Y013617D01*
X003220Y013519D02*
X006218Y013519D01*
X003220Y014898D02*
X018291Y014898D01*
X018326Y014996D02*
X003220Y014996D01*
X003220Y015095D02*
X018408Y015095D01*
X020600Y013125D02*
X057750Y013125D01*
X052104Y007904D02*
X003220Y007904D01*
X003220Y007970D02*
X051970Y007970D01*
X057800Y005100D01*
X052100Y002220D01*
X021484Y002220D01*
X021640Y002376D01*
X021640Y002824D01*
X021594Y002870D01*
X021643Y002870D01*
X021675Y002838D01*
X021789Y002791D01*
X021911Y002791D01*
X022025Y002838D01*
X022112Y002925D01*
X022159Y003039D01*
X022159Y003161D01*
X022112Y003275D01*
X022025Y003362D01*
X021911Y003409D01*
X021789Y003409D01*
X021675Y003362D01*
X021643Y003330D01*
X021640Y003330D01*
X021640Y004040D01*
X021540Y004140D01*
X020660Y004140D01*
X020560Y004040D01*
X020560Y003904D01*
X020324Y004140D01*
X019876Y004140D01*
X019600Y003864D01*
X019324Y004140D01*
X019278Y004140D01*
X019278Y006198D01*
X019178Y006298D01*
X018037Y006298D01*
X017938Y006198D01*
X017938Y004057D01*
X018037Y003958D01*
X018694Y003958D01*
X018560Y003824D01*
X018560Y003494D01*
X018312Y003742D01*
X018242Y003812D01*
X018150Y003850D01*
X014787Y003850D01*
X014775Y003862D01*
X014661Y003909D01*
X014539Y003909D01*
X014425Y003862D01*
X014338Y003775D01*
X014291Y003661D01*
X014291Y003539D01*
X014328Y003450D01*
X011104Y003450D01*
X010659Y003895D01*
X010659Y003911D01*
X010612Y004025D01*
X010525Y004112D01*
X010411Y004159D01*
X010317Y004159D01*
X010317Y004270D01*
X010666Y004270D01*
X010787Y004320D01*
X010880Y004413D01*
X010930Y004534D01*
X010930Y004666D01*
X010880Y004787D01*
X010787Y004880D01*
X010666Y004930D01*
X010317Y004930D01*
X010317Y006178D01*
X010218Y006278D01*
X009889Y006278D01*
X009537Y006630D01*
X009416Y006680D01*
X009284Y006680D01*
X009163Y006630D01*
X009070Y006537D01*
X009020Y006416D01*
X009020Y006284D01*
X009039Y006240D01*
X008977Y006178D01*
X008977Y004037D01*
X009077Y003938D01*
X009302Y003938D01*
X009291Y003911D01*
X009291Y003789D01*
X009338Y003675D01*
X009425Y003588D01*
X009539Y003541D01*
X009661Y003541D01*
X009775Y003588D01*
X009862Y003675D01*
X009909Y003789D01*
X009909Y003911D01*
X009898Y003938D01*
X010052Y003938D01*
X010041Y003911D01*
X010041Y003789D01*
X010088Y003675D01*
X010175Y003588D01*
X010289Y003541D01*
X010305Y003541D01*
X010858Y002988D01*
X010950Y002950D01*
X017413Y002950D01*
X017425Y002938D01*
X017539Y002891D01*
X017661Y002891D01*
X017775Y002938D01*
X017862Y003025D01*
X017909Y003139D01*
X017909Y003261D01*
X017872Y003350D01*
X017996Y003350D01*
X018458Y002888D01*
X018550Y002850D01*
X018615Y002850D01*
X018580Y002815D01*
X018580Y002650D01*
X019050Y002650D01*
X019050Y002550D01*
X018580Y002550D01*
X018580Y002385D01*
X018745Y002220D01*
X003220Y002220D01*
X003220Y007970D01*
X003220Y007806D02*
X052304Y007806D01*
X052504Y007707D02*
X003220Y007707D01*
X003220Y007609D02*
X052704Y007609D01*
X052904Y007510D02*
X003220Y007510D01*
X003220Y007412D02*
X053105Y007412D01*
X053305Y007313D02*
X003220Y007313D01*
X003220Y007215D02*
X053505Y007215D01*
X053705Y007116D02*
X018765Y007116D01*
X018775Y007112D02*
X018661Y007159D01*
X018539Y007159D01*
X018425Y007112D01*
X018338Y007025D01*
X018291Y006911D01*
X018291Y006789D01*
X018338Y006675D01*
X018425Y006588D01*
X018539Y006541D01*
X018661Y006541D01*
X018775Y006588D01*
X018787Y006600D01*
X018996Y006600D01*
X019350Y006246D01*
X019350Y004787D01*
X019338Y004775D01*
X019291Y004661D01*
X019291Y004539D01*
X019338Y004425D01*
X019425Y004338D01*
X019539Y004291D01*
X019661Y004291D01*
X019775Y004338D01*
X019862Y004425D01*
X019909Y004539D01*
X019909Y004661D01*
X019862Y004775D01*
X019850Y004787D01*
X019850Y006300D01*
X019850Y006400D01*
X019812Y006492D01*
X019312Y006992D01*
X019242Y007062D01*
X019150Y007100D01*
X018787Y007100D01*
X018775Y007112D01*
X018435Y007116D02*
X003220Y007116D01*
X003220Y007018D02*
X018335Y007018D01*
X018294Y006919D02*
X003220Y006919D01*
X003220Y006821D02*
X018291Y006821D01*
X018319Y006722D02*
X006811Y006722D01*
X006733Y006754D02*
X006467Y006754D01*
X006220Y006652D01*
X006032Y006464D01*
X005930Y006218D01*
X005930Y005951D01*
X006032Y005705D01*
X006220Y005516D01*
X006467Y005414D01*
X006733Y005414D01*
X006980Y005516D01*
X007168Y005705D01*
X007270Y005951D01*
X007270Y006218D01*
X007168Y006464D01*
X006980Y006652D01*
X006733Y006754D01*
X007008Y006624D02*
X009157Y006624D01*
X009065Y006525D02*
X007107Y006525D01*
X007183Y006427D02*
X009025Y006427D01*
X009020Y006328D02*
X007224Y006328D01*
X007265Y006230D02*
X009028Y006230D01*
X008977Y006131D02*
X007270Y006131D01*
X007270Y006033D02*
X008977Y006033D01*
X008977Y005934D02*
X007263Y005934D01*
X007222Y005836D02*
X007399Y005836D01*
X007425Y005862D02*
X007338Y005775D01*
X007320Y005730D01*
X006980Y005390D01*
X005707Y005390D01*
X005661Y005409D01*
X005539Y005409D01*
X005425Y005362D01*
X005338Y005275D01*
X005291Y005161D01*
X005291Y005039D01*
X005338Y004925D01*
X005425Y004838D01*
X005539Y004791D01*
X005661Y004791D01*
X005707Y004810D01*
X007158Y004810D01*
X007264Y004854D01*
X007730Y005320D01*
X007775Y005338D01*
X007862Y005425D01*
X007909Y005539D01*
X007909Y005661D01*
X007862Y005775D01*
X007775Y005862D01*
X007661Y005909D01*
X007539Y005909D01*
X007425Y005862D01*
X007323Y005737D02*
X007181Y005737D01*
X007228Y005639D02*
X007102Y005639D01*
X007130Y005540D02*
X007003Y005540D01*
X007031Y005442D02*
X006799Y005442D01*
X006401Y005442D02*
X003220Y005442D01*
X003220Y005540D02*
X006197Y005540D01*
X006098Y005639D02*
X003220Y005639D01*
X003220Y005737D02*
X006019Y005737D01*
X005978Y005836D02*
X003220Y005836D01*
X003220Y005934D02*
X005937Y005934D01*
X005930Y006033D02*
X003220Y006033D01*
X003220Y006131D02*
X005930Y006131D01*
X005935Y006230D02*
X003220Y006230D01*
X003220Y006328D02*
X005976Y006328D01*
X006017Y006427D02*
X003220Y006427D01*
X003220Y006525D02*
X006093Y006525D01*
X006192Y006624D02*
X003220Y006624D01*
X003220Y006722D02*
X006389Y006722D01*
X007801Y005836D02*
X008977Y005836D01*
X008977Y005737D02*
X007877Y005737D01*
X007909Y005639D02*
X008977Y005639D01*
X008977Y005540D02*
X007909Y005540D01*
X007869Y005442D02*
X008977Y005442D01*
X008977Y005343D02*
X007780Y005343D01*
X007655Y005245D02*
X008977Y005245D01*
X008977Y005146D02*
X007556Y005146D01*
X007458Y005048D02*
X008977Y005048D01*
X008977Y004949D02*
X007359Y004949D01*
X007255Y004851D02*
X008977Y004851D01*
X008977Y004752D02*
X006815Y004752D01*
X006733Y004786D02*
X006467Y004786D01*
X006220Y004684D01*
X006032Y004495D01*
X005930Y004249D01*
X005930Y003982D01*
X006032Y003736D01*
X006220Y003548D01*
X006467Y003446D01*
X006733Y003446D01*
X006980Y003548D01*
X007168Y003736D01*
X007270Y003982D01*
X007270Y004249D01*
X007168Y004495D01*
X006980Y004684D01*
X006733Y004786D01*
X007010Y004654D02*
X008977Y004654D01*
X008977Y004555D02*
X007108Y004555D01*
X007184Y004457D02*
X008977Y004457D01*
X008977Y004358D02*
X007225Y004358D01*
X007266Y004260D02*
X008977Y004260D01*
X008977Y004161D02*
X007270Y004161D01*
X007270Y004063D02*
X008977Y004063D01*
X009051Y003964D02*
X007262Y003964D01*
X007222Y003866D02*
X009291Y003866D01*
X009300Y003767D02*
X007181Y003767D01*
X007100Y003669D02*
X009345Y003669D01*
X009469Y003570D02*
X007002Y003570D01*
X006795Y003472D02*
X010375Y003472D01*
X010473Y003373D02*
X003220Y003373D01*
X003220Y003275D02*
X010572Y003275D01*
X010670Y003176D02*
X003220Y003176D01*
X003220Y003078D02*
X010769Y003078D01*
X010880Y002979D02*
X003220Y002979D01*
X003220Y002881D02*
X018477Y002881D01*
X018580Y002782D02*
X003220Y002782D01*
X003220Y002684D02*
X018580Y002684D01*
X018580Y002487D02*
X003220Y002487D01*
X003220Y002585D02*
X019050Y002585D01*
X018675Y002290D02*
X003220Y002290D01*
X003220Y002388D02*
X018580Y002388D01*
X018367Y002979D02*
X017816Y002979D01*
X017883Y003078D02*
X018269Y003078D01*
X018170Y003176D02*
X017909Y003176D01*
X017903Y003275D02*
X018072Y003275D01*
X018385Y003669D02*
X018560Y003669D01*
X018560Y003767D02*
X018287Y003767D01*
X018484Y003570D02*
X018560Y003570D01*
X018602Y003866D02*
X014766Y003866D01*
X014737Y003960D02*
X014771Y003980D01*
X014799Y004008D01*
X014819Y004042D01*
X014829Y004080D01*
X014829Y005050D01*
X014229Y005050D01*
X014229Y005150D01*
X014829Y005150D01*
X014829Y006120D01*
X014819Y006158D01*
X014799Y006192D01*
X014771Y006220D01*
X014737Y006240D01*
X014698Y006250D01*
X014229Y006250D01*
X014229Y005150D01*
X014129Y005150D01*
X014129Y006250D01*
X013659Y006250D01*
X013621Y006240D01*
X013587Y006220D01*
X013559Y006192D01*
X013539Y006158D01*
X013529Y006120D01*
X013529Y005150D01*
X014129Y005150D01*
X014129Y005050D01*
X014229Y005050D01*
X014229Y003950D01*
X014698Y003950D01*
X014737Y003960D01*
X014743Y003964D02*
X018031Y003964D01*
X017938Y004063D02*
X014824Y004063D01*
X014829Y004161D02*
X017938Y004161D01*
X017938Y004260D02*
X014829Y004260D01*
X014829Y004358D02*
X017938Y004358D01*
X017938Y004457D02*
X014829Y004457D01*
X014829Y004555D02*
X017938Y004555D01*
X017938Y004654D02*
X014829Y004654D01*
X014829Y004752D02*
X017938Y004752D01*
X017938Y004851D02*
X014829Y004851D01*
X014829Y004949D02*
X017938Y004949D01*
X017938Y005048D02*
X014829Y005048D01*
X014829Y005245D02*
X017938Y005245D01*
X017938Y005343D02*
X014829Y005343D01*
X014829Y005442D02*
X017938Y005442D01*
X017938Y005540D02*
X014829Y005540D01*
X014829Y005639D02*
X017938Y005639D01*
X017938Y005737D02*
X014829Y005737D01*
X014829Y005836D02*
X017938Y005836D01*
X017938Y005934D02*
X014829Y005934D01*
X014829Y006033D02*
X017938Y006033D01*
X017938Y006131D02*
X014826Y006131D01*
X014754Y006230D02*
X017969Y006230D01*
X018390Y006624D02*
X009543Y006624D01*
X009642Y006525D02*
X019071Y006525D01*
X019170Y006427D02*
X009740Y006427D01*
X009839Y006328D02*
X019268Y006328D01*
X019246Y006230D02*
X019350Y006230D01*
X019350Y006131D02*
X019278Y006131D01*
X019278Y006033D02*
X019350Y006033D01*
X019350Y005934D02*
X019278Y005934D01*
X019278Y005836D02*
X019350Y005836D01*
X019350Y005737D02*
X019278Y005737D01*
X019278Y005639D02*
X019350Y005639D01*
X019350Y005540D02*
X019278Y005540D01*
X019278Y005442D02*
X019350Y005442D01*
X019350Y005343D02*
X019278Y005343D01*
X019278Y005245D02*
X019350Y005245D01*
X019350Y005146D02*
X019278Y005146D01*
X019278Y005048D02*
X019350Y005048D01*
X019350Y004949D02*
X019278Y004949D01*
X019278Y004851D02*
X019350Y004851D01*
X019329Y004752D02*
X019278Y004752D01*
X019278Y004654D02*
X019291Y004654D01*
X019278Y004555D02*
X019291Y004555D01*
X019278Y004457D02*
X019325Y004457D01*
X019278Y004358D02*
X019405Y004358D01*
X019278Y004260D02*
X056137Y004260D01*
X056331Y004358D02*
X020545Y004358D01*
X020525Y004338D02*
X020612Y004425D01*
X020659Y004539D01*
X020659Y004661D01*
X020612Y004775D01*
X020600Y004787D01*
X020600Y005663D01*
X020612Y005675D01*
X020659Y005789D01*
X020659Y005911D01*
X020612Y006025D01*
X020525Y006112D01*
X020411Y006159D01*
X020289Y006159D01*
X020175Y006112D01*
X020088Y006025D01*
X020041Y005911D01*
X020041Y005789D01*
X020088Y005675D01*
X020100Y005663D01*
X020100Y004787D01*
X020088Y004775D01*
X020041Y004661D01*
X020041Y004539D01*
X020088Y004425D01*
X020175Y004338D01*
X020289Y004291D01*
X020411Y004291D01*
X020525Y004338D01*
X020625Y004457D02*
X056526Y004457D01*
X056721Y004555D02*
X020659Y004555D01*
X020659Y004654D02*
X056916Y004654D01*
X057111Y004752D02*
X020621Y004752D01*
X020600Y004851D02*
X057306Y004851D01*
X057501Y004949D02*
X020600Y004949D01*
X020600Y005048D02*
X057696Y005048D01*
X057707Y005146D02*
X020600Y005146D01*
X020600Y005245D02*
X057506Y005245D01*
X057306Y005343D02*
X020600Y005343D01*
X020600Y005442D02*
X057106Y005442D01*
X056906Y005540D02*
X020600Y005540D01*
X020600Y005639D02*
X056706Y005639D01*
X056506Y005737D02*
X020637Y005737D01*
X020659Y005836D02*
X056306Y005836D01*
X056106Y005934D02*
X020649Y005934D01*
X020604Y006033D02*
X055906Y006033D01*
X055706Y006131D02*
X020478Y006131D01*
X020222Y006131D02*
X019850Y006131D01*
X019850Y006033D02*
X020096Y006033D01*
X020051Y005934D02*
X019850Y005934D01*
X019850Y005836D02*
X020041Y005836D01*
X020063Y005737D02*
X019850Y005737D01*
X019850Y005639D02*
X020100Y005639D01*
X020100Y005540D02*
X019850Y005540D01*
X019850Y005442D02*
X020100Y005442D01*
X020100Y005343D02*
X019850Y005343D01*
X019850Y005245D02*
X020100Y005245D01*
X020100Y005146D02*
X019850Y005146D01*
X019850Y005048D02*
X020100Y005048D01*
X020100Y004949D02*
X019850Y004949D01*
X019850Y004851D02*
X020100Y004851D01*
X020079Y004752D02*
X019871Y004752D01*
X019909Y004654D02*
X020041Y004654D01*
X020041Y004555D02*
X019909Y004555D01*
X019875Y004457D02*
X020075Y004457D01*
X020155Y004358D02*
X019795Y004358D01*
X019799Y004063D02*
X019401Y004063D01*
X019500Y003964D02*
X019700Y003964D01*
X019602Y003866D02*
X019598Y003866D01*
X019278Y004161D02*
X055942Y004161D01*
X055747Y004063D02*
X021618Y004063D01*
X021640Y003964D02*
X055552Y003964D01*
X055357Y003866D02*
X021640Y003866D01*
X021640Y003767D02*
X055162Y003767D01*
X054967Y003669D02*
X021640Y003669D01*
X021640Y003570D02*
X054772Y003570D01*
X054577Y003472D02*
X021640Y003472D01*
X021640Y003373D02*
X021702Y003373D01*
X021998Y003373D02*
X054382Y003373D01*
X054187Y003275D02*
X022112Y003275D01*
X022153Y003176D02*
X053992Y003176D01*
X053797Y003078D02*
X022159Y003078D01*
X022134Y002979D02*
X053602Y002979D01*
X053407Y002881D02*
X022067Y002881D01*
X021640Y002782D02*
X053212Y002782D01*
X053017Y002684D02*
X021640Y002684D01*
X021640Y002585D02*
X052822Y002585D01*
X052627Y002487D02*
X021640Y002487D01*
X021640Y002388D02*
X052433Y002388D01*
X052238Y002290D02*
X021553Y002290D01*
X020560Y003964D02*
X020500Y003964D01*
X020582Y004063D02*
X020401Y004063D01*
X017938Y005146D02*
X014229Y005146D01*
X014229Y005048D02*
X014129Y005048D01*
X014129Y005050D02*
X014129Y003950D01*
X013659Y003950D01*
X013621Y003960D01*
X013587Y003980D01*
X013559Y004008D01*
X013539Y004042D01*
X013529Y004080D01*
X013529Y005050D01*
X014129Y005050D01*
X014129Y005146D02*
X010317Y005146D01*
X010317Y005048D02*
X013529Y005048D01*
X013529Y004949D02*
X010317Y004949D01*
X010317Y005245D02*
X013529Y005245D01*
X013529Y005343D02*
X010317Y005343D01*
X010317Y005442D02*
X013529Y005442D01*
X013529Y005540D02*
X010317Y005540D01*
X010317Y005639D02*
X013529Y005639D01*
X013529Y005737D02*
X010317Y005737D01*
X010317Y005836D02*
X013529Y005836D01*
X013529Y005934D02*
X010317Y005934D01*
X010317Y006033D02*
X013529Y006033D01*
X013532Y006131D02*
X010317Y006131D01*
X010266Y006230D02*
X013603Y006230D01*
X014129Y006230D02*
X014229Y006230D01*
X014229Y006131D02*
X014129Y006131D01*
X014129Y006033D02*
X014229Y006033D01*
X014229Y005934D02*
X014129Y005934D01*
X014129Y005836D02*
X014229Y005836D01*
X014229Y005737D02*
X014129Y005737D01*
X014129Y005639D02*
X014229Y005639D01*
X014229Y005540D02*
X014129Y005540D01*
X014129Y005442D02*
X014229Y005442D01*
X014229Y005343D02*
X014129Y005343D01*
X014129Y005245D02*
X014229Y005245D01*
X014229Y004949D02*
X014129Y004949D01*
X014129Y004851D02*
X014229Y004851D01*
X014229Y004752D02*
X014129Y004752D01*
X014129Y004654D02*
X014229Y004654D01*
X014229Y004555D02*
X014129Y004555D01*
X014129Y004457D02*
X014229Y004457D01*
X014229Y004358D02*
X014129Y004358D01*
X014129Y004260D02*
X014229Y004260D01*
X014229Y004161D02*
X014129Y004161D01*
X014129Y004063D02*
X014229Y004063D01*
X014229Y003964D02*
X014129Y003964D01*
X014335Y003767D02*
X010787Y003767D01*
X010885Y003669D02*
X014294Y003669D01*
X014291Y003570D02*
X010984Y003570D01*
X011082Y003472D02*
X014319Y003472D01*
X014434Y003866D02*
X010688Y003866D01*
X010637Y003964D02*
X013614Y003964D01*
X013533Y004063D02*
X010574Y004063D01*
X010317Y004161D02*
X013529Y004161D01*
X013529Y004260D02*
X010317Y004260D01*
X010041Y003866D02*
X009909Y003866D01*
X009900Y003767D02*
X010050Y003767D01*
X010095Y003669D02*
X009855Y003669D01*
X009731Y003570D02*
X010219Y003570D01*
X010825Y004358D02*
X013529Y004358D01*
X013529Y004457D02*
X010898Y004457D01*
X010930Y004555D02*
X013529Y004555D01*
X013529Y004654D02*
X010930Y004654D01*
X010894Y004752D02*
X013529Y004752D01*
X013529Y004851D02*
X010816Y004851D01*
X006385Y004752D02*
X003220Y004752D01*
X003220Y004654D02*
X006190Y004654D01*
X006092Y004555D02*
X003220Y004555D01*
X003220Y004457D02*
X006016Y004457D01*
X005975Y004358D02*
X003220Y004358D01*
X003220Y004260D02*
X005934Y004260D01*
X005930Y004161D02*
X003220Y004161D01*
X003220Y004063D02*
X005930Y004063D01*
X005938Y003964D02*
X003220Y003964D01*
X003220Y003866D02*
X005978Y003866D01*
X006019Y003767D02*
X003220Y003767D01*
X003220Y003669D02*
X006100Y003669D01*
X006198Y003570D02*
X003220Y003570D01*
X003220Y003472D02*
X006405Y003472D01*
X005413Y004851D02*
X003220Y004851D01*
X003220Y004949D02*
X005328Y004949D01*
X005291Y005048D02*
X003220Y005048D01*
X003220Y005146D02*
X005291Y005146D01*
X005326Y005245D02*
X003220Y005245D01*
X003220Y005343D02*
X005406Y005343D01*
X019286Y007018D02*
X053905Y007018D01*
X054105Y006919D02*
X019385Y006919D01*
X019483Y006821D02*
X054305Y006821D01*
X054505Y006722D02*
X019582Y006722D01*
X019680Y006624D02*
X054705Y006624D01*
X054905Y006525D02*
X019779Y006525D01*
X019839Y006427D02*
X055105Y006427D01*
X055306Y006328D02*
X019850Y006328D01*
X019850Y006230D02*
X055506Y006230D01*
X056246Y020315D02*
X020469Y020315D01*
X020525Y020338D02*
X020612Y020425D01*
X020659Y020539D01*
X020659Y020661D01*
X020612Y020775D01*
X020600Y020787D01*
X020600Y021663D01*
X020612Y021675D01*
X020659Y021789D01*
X020659Y021911D01*
X020612Y022025D01*
X020525Y022112D01*
X020411Y022159D01*
X020289Y022159D01*
X020175Y022112D01*
X020088Y022025D01*
X020041Y021911D01*
X020041Y021789D01*
X020088Y021675D01*
X020100Y021663D01*
X020100Y020787D01*
X020088Y020775D01*
X020041Y020661D01*
X020041Y020539D01*
X020088Y020425D01*
X020175Y020338D01*
X020289Y020291D01*
X020411Y020291D01*
X020525Y020338D01*
X020600Y020414D02*
X056441Y020414D01*
X056636Y020512D02*
X020648Y020512D01*
X020659Y020611D02*
X056831Y020611D01*
X057026Y020709D02*
X020639Y020709D01*
X020600Y020808D02*
X057221Y020808D01*
X057416Y020906D02*
X020600Y020906D01*
X020600Y021005D02*
X057611Y021005D01*
X057594Y021202D02*
X020600Y021202D01*
X020600Y021300D02*
X057394Y021300D01*
X057194Y021399D02*
X020600Y021399D01*
X020600Y021497D02*
X056993Y021497D01*
X056793Y021596D02*
X020600Y021596D01*
X020620Y021694D02*
X056593Y021694D01*
X056393Y021793D02*
X020659Y021793D01*
X020659Y021891D02*
X056193Y021891D01*
X055993Y021990D02*
X020626Y021990D01*
X020549Y022088D02*
X055793Y022088D01*
X055593Y022187D02*
X019850Y022187D01*
X019850Y022285D02*
X055393Y022285D01*
X055193Y022384D02*
X019850Y022384D01*
X019816Y022482D02*
X054993Y022482D01*
X054793Y022581D02*
X019723Y022581D01*
X019624Y022679D02*
X054592Y022679D01*
X054392Y022778D02*
X019526Y022778D01*
X019427Y022876D02*
X054192Y022876D01*
X053992Y022975D02*
X019329Y022975D01*
X019215Y023073D02*
X053792Y023073D01*
X057794Y021103D02*
X020600Y021103D01*
X020100Y021103D02*
X019850Y021103D01*
X019850Y021005D02*
X020100Y021005D01*
X020100Y020906D02*
X019850Y020906D01*
X019850Y020808D02*
X020100Y020808D01*
X020061Y020709D02*
X019889Y020709D01*
X019909Y020611D02*
X020041Y020611D01*
X020052Y020512D02*
X019898Y020512D01*
X019850Y020414D02*
X020100Y020414D01*
X020231Y020315D02*
X019719Y020315D01*
X019854Y020118D02*
X019346Y020118D01*
X019444Y020020D02*
X019756Y020020D01*
X019657Y019921D02*
X019543Y019921D01*
X020346Y020118D02*
X020638Y020118D01*
X020560Y020020D02*
X020444Y020020D01*
X020543Y019921D02*
X020560Y019921D01*
X021640Y019330D02*
X021643Y019330D01*
X021626Y018838D02*
X021677Y018838D01*
X019050Y018641D02*
X003220Y018641D01*
X003220Y018739D02*
X018580Y018739D01*
X018602Y018838D02*
X003220Y018838D01*
X003220Y018542D02*
X018580Y018542D01*
X018580Y018444D02*
X003220Y018444D01*
X003220Y018345D02*
X018620Y018345D01*
X018718Y018247D02*
X003220Y018247D01*
X007057Y019626D02*
X009388Y019626D01*
X009318Y019724D02*
X007156Y019724D01*
X007204Y019823D02*
X009291Y019823D01*
X009295Y019921D02*
X007245Y019921D01*
X007270Y020020D02*
X008995Y020020D01*
X008977Y020118D02*
X007270Y020118D01*
X007270Y020217D02*
X008977Y020217D01*
X008977Y020315D02*
X007243Y020315D01*
X007202Y020414D02*
X008977Y020414D01*
X008977Y020512D02*
X007151Y020512D01*
X007053Y020611D02*
X008977Y020611D01*
X008977Y020709D02*
X006918Y020709D01*
X007270Y021990D02*
X008977Y021990D01*
X008977Y022088D02*
X007270Y022088D01*
X007270Y022187D02*
X008986Y022187D01*
X009020Y022285D02*
X007242Y022285D01*
X007201Y022384D02*
X009020Y022384D01*
X009048Y022482D02*
X007150Y022482D01*
X007051Y022581D02*
X009114Y022581D01*
X009282Y022679D02*
X006915Y022679D01*
X009418Y022679D02*
X018337Y022679D01*
X018444Y022581D02*
X009586Y022581D01*
X009685Y022482D02*
X019114Y022482D01*
X019016Y022581D02*
X018756Y022581D01*
X019850Y022088D02*
X020151Y022088D01*
X020074Y021990D02*
X019850Y021990D01*
X019850Y021891D02*
X020041Y021891D01*
X020041Y021793D02*
X019850Y021793D01*
X019850Y021694D02*
X020080Y021694D01*
X020100Y021596D02*
X019850Y021596D01*
X019850Y021497D02*
X020100Y021497D01*
X020100Y021399D02*
X019850Y021399D01*
X019850Y021300D02*
X020100Y021300D01*
X020100Y021202D02*
X019850Y021202D01*
X018657Y019921D02*
X010655Y019921D01*
X010614Y020020D02*
X013552Y020020D01*
X013559Y020008D02*
X013587Y019980D01*
X013621Y019960D01*
X013659Y019950D01*
X014129Y019950D01*
X014129Y021050D01*
X013529Y021050D01*
X013529Y020080D01*
X013539Y020042D01*
X013559Y020008D01*
X013529Y020118D02*
X010510Y020118D01*
X010317Y020217D02*
X013529Y020217D01*
X013529Y020315D02*
X010774Y020315D01*
X010880Y020414D02*
X013529Y020414D01*
X013529Y020512D02*
X010921Y020512D01*
X010930Y020611D02*
X013529Y020611D01*
X013529Y020709D02*
X010912Y020709D01*
X010859Y020808D02*
X013529Y020808D01*
X013529Y020906D02*
X010723Y020906D01*
X010317Y021005D02*
X013529Y021005D01*
X013529Y021202D02*
X010317Y021202D01*
X010317Y021300D02*
X013529Y021300D01*
X013529Y021399D02*
X010317Y021399D01*
X010317Y021497D02*
X013529Y021497D01*
X013529Y021596D02*
X010317Y021596D01*
X010317Y021694D02*
X013529Y021694D01*
X013529Y021793D02*
X010317Y021793D01*
X010317Y021891D02*
X013529Y021891D01*
X013529Y021990D02*
X010317Y021990D01*
X010317Y022088D02*
X013529Y022088D01*
X013556Y022187D02*
X010309Y022187D01*
X010317Y021103D02*
X014129Y021103D01*
X014129Y021005D02*
X014229Y021005D01*
X014229Y021103D02*
X017938Y021103D01*
X014229Y021202D02*
X014129Y021202D01*
X014129Y021300D02*
X014229Y021300D01*
X014229Y021399D02*
X014129Y021399D01*
X014129Y021497D02*
X014229Y021497D01*
X014229Y021596D02*
X014129Y021596D01*
X014129Y021694D02*
X014229Y021694D01*
X014229Y021793D02*
X014129Y021793D01*
X014129Y021891D02*
X014229Y021891D01*
X014229Y021990D02*
X014129Y021990D01*
X014129Y022088D02*
X014229Y022088D01*
X014229Y022187D02*
X014129Y022187D01*
X014129Y020906D02*
X014229Y020906D01*
X014229Y020808D02*
X014129Y020808D01*
X014129Y020709D02*
X014229Y020709D01*
X014229Y020611D02*
X014129Y020611D01*
X014129Y020512D02*
X014229Y020512D01*
X014229Y020414D02*
X014129Y020414D01*
X014129Y020315D02*
X014229Y020315D01*
X014229Y020217D02*
X014129Y020217D01*
X014129Y020118D02*
X014229Y020118D01*
X014229Y020020D02*
X014129Y020020D01*
X014386Y019823D02*
X010731Y019823D01*
X010830Y019724D02*
X014317Y019724D01*
X014291Y019626D02*
X010928Y019626D01*
X011027Y019527D02*
X014296Y019527D01*
X010138Y019626D02*
X009812Y019626D01*
X009882Y019724D02*
X010068Y019724D01*
X010041Y019823D02*
X009909Y019823D01*
X009905Y019921D02*
X010045Y019921D01*
M02*
