G75*
G70*
%OFA0B0*%
%FSLAX24Y24*%
%IPPOS*%
%LPD*%
%AMOC8*
5,1,8,0,0,1.08239X$1,22.5*
%
%ADD10C,0.0000*%
%ADD11R,0.0780X0.0780*%
%ADD12OC8,0.0780*%
%ADD13C,0.0780*%
%ADD14R,0.1040X0.2040*%
%ADD15C,0.1040*%
D10*
X000151Y001048D02*
X000151Y032169D01*
X039521Y032169D01*
X039521Y001048D01*
X000151Y001048D01*
D11*
X018151Y002548D03*
X018151Y008798D03*
X018151Y015048D03*
X018151Y021298D03*
X018151Y027548D03*
D12*
X017151Y027548D03*
X017151Y026548D03*
X018151Y026548D03*
X016151Y026548D03*
X016151Y027548D03*
X016151Y021298D03*
X016151Y020298D03*
X017151Y020298D03*
X018151Y020298D03*
X017151Y021298D03*
X017151Y015048D03*
X017151Y014048D03*
X018151Y014048D03*
X016151Y014048D03*
X016151Y015048D03*
X016151Y008798D03*
X016151Y007798D03*
X017151Y007798D03*
X018151Y007798D03*
X017151Y008798D03*
X017151Y002548D03*
X017151Y001548D03*
X018151Y001548D03*
X016151Y001548D03*
X016151Y002548D03*
D13*
X002541Y002768D03*
X000761Y002768D03*
X000761Y005328D03*
X002541Y005328D03*
X002541Y009018D03*
X000761Y009018D03*
X000761Y011578D03*
X002541Y011578D03*
X002541Y015268D03*
X000761Y015268D03*
X000761Y017828D03*
X002541Y017828D03*
X002541Y021518D03*
X000761Y021518D03*
X000761Y024078D03*
X002541Y024078D03*
X002541Y027768D03*
X000761Y027768D03*
X000761Y030328D03*
X002541Y030328D03*
D14*
X006698Y029056D03*
X011230Y029048D03*
X015659Y029076D03*
X015659Y022826D03*
X011230Y022798D03*
X006698Y022806D03*
X006698Y016556D03*
X011230Y016548D03*
X015659Y016576D03*
X015659Y010326D03*
X011230Y010298D03*
X006698Y010306D03*
X006698Y004056D03*
X011230Y004048D03*
X015659Y004076D03*
D15*
X003651Y005032D03*
X003651Y003064D03*
X003651Y009314D03*
X003651Y011282D03*
X003651Y015564D03*
X003651Y017532D03*
X003651Y021814D03*
X003651Y023782D03*
X003651Y028064D03*
X003651Y030032D03*
M02*
