%
M48
M72
T01C0.0157
T02C0.0394
T03C0.0400
%
T01
X2651Y4048
X4651Y4548
X6401Y5298
X7651Y3548
X7401Y2798
X6651Y2798
X10401Y3048
X11651Y2548
X14651Y2048
X16651Y3548
X17401Y3548
X17401Y4798
X18651Y5548
X20151Y6298
X20151Y7798
X18901Y8298
X18651Y9798
X17401Y9798
X16651Y9798
X17401Y11048
X18651Y11798
X20151Y12548
X20151Y14048
X18901Y14548
X18651Y16048
X17401Y16048
X16651Y16048
X17401Y17298
X18651Y18048
X20151Y18798
X20151Y20298
X18901Y20798
X18651Y22298
X17401Y22298
X16651Y22298
X17401Y23548
X18651Y24298
X20151Y25048
X20151Y26548
X18901Y27048
X18651Y28548
X17401Y28548
X16651Y28548
X17401Y29798
X18651Y30548
X20151Y31298
X15651Y30798
X14151Y31048
X11651Y30548
X10651Y30548
X10401Y28048
X11651Y27548
X14651Y27048
X14151Y24798
X15651Y24548
X11651Y24298
X10651Y24298
X7651Y22298
X7401Y21548
X6651Y21548
X4651Y23298
X6401Y24048
X2651Y22798
X6401Y17798
X4651Y17048
X2651Y16548
X6651Y15298
X7401Y15298
X7651Y16048
X10401Y15548
X11651Y15048
X14651Y14548
X14151Y12298
X15651Y12048
X11651Y11798
X10651Y11798
X7651Y9798
X7401Y9048
X6651Y9048
X4651Y10798
X6401Y11548
X2651Y10298
X10401Y9298
X11651Y8798
X14651Y8298
X14151Y6048
X15651Y5798
X18651Y3548
X18901Y2048
X20151Y1548
X24651Y6298
X29901Y6298
X30401Y7798
X33651Y6298
X38401Y6298
X38401Y8048
X38401Y12548
X38401Y14298
X33651Y12548
X30401Y14048
X29901Y12548
X24651Y12548
X24651Y18798
X29901Y18798
X30401Y20298
X33651Y18798
X38401Y18798
X38401Y20548
X38401Y25048
X38401Y26798
X33651Y25048
X30401Y26548
X29901Y25048
X24651Y25048
X24651Y31298
X29901Y31298
X33651Y31298
X38401Y31298
X15651Y18298
X14151Y18548
X11651Y18048
X10651Y18048
X11651Y21298
X10401Y21798
X14651Y20798
X7401Y27798
X6651Y27798
X7651Y28548
X6401Y30298
X4651Y29548
X2651Y29048
X10651Y5548
X11651Y5548
X30401Y1548
X38401Y1798
T02
X3651Y3064
X3651Y5032
X3651Y9314
X3651Y11282
X3651Y15564
X3651Y17532
X3651Y21814
X3651Y23782
X3651Y28064
X3651Y30032
T03
X761Y2768
X2541Y2768
X2541Y5328
X761Y5328
X761Y9018
X2541Y9018
X2541Y11578
X761Y11578
X761Y15268
X2541Y15268
X2541Y17828
X761Y17828
X761Y21518
X2541Y21518
X2541Y24078
X761Y24078
X761Y27768
X2541Y27768
X2541Y30328
X761Y30328
X16151Y27548
X16151Y26548
X17151Y26548
X18151Y26548
X18151Y27548
X17151Y27548
X17151Y21298
X18151Y21298
X18151Y20298
X17151Y20298
X16151Y20298
X16151Y21298
X16151Y15048
X16151Y14048
X17151Y14048
X18151Y14048
X18151Y15048
X17151Y15048
X17151Y8798
X18151Y8798
X18151Y7798
X17151Y7798
X16151Y7798
X16151Y8798
X16151Y2548
X16151Y1548
X17151Y1548
X18151Y1548
X18151Y2548
X17151Y2548
M30
