G75*
G70*
%OFA0B0*%
%FSLAX24Y24*%
%IPPOS*%
%LPD*%
%AMOC8*
5,1,8,0,0,1.08239X$1,22.5*
%
%ADD10C,0.0000*%
%ADD11R,0.0740X0.0740*%
%ADD12OC8,0.0740*%
%ADD13C,0.0740*%
%ADD14R,0.1000X0.2000*%
%ADD15C,0.1000*%
%ADD16C,0.0277*%
%ADD17C,0.0240*%
%ADD18C,0.0320*%
%ADD19C,0.0120*%
%ADD20C,0.0160*%
%ADD21C,0.0100*%
D10*
X000151Y001048D02*
X000151Y032169D01*
X039521Y032169D01*
X039521Y001048D01*
X000151Y001048D01*
D11*
X018151Y002548D03*
X018151Y008798D03*
X018151Y015048D03*
X018151Y021298D03*
X018151Y027548D03*
D12*
X017151Y027548D03*
X017151Y026548D03*
X018151Y026548D03*
X016151Y026548D03*
X016151Y027548D03*
X016151Y021298D03*
X016151Y020298D03*
X017151Y020298D03*
X018151Y020298D03*
X017151Y021298D03*
X017151Y015048D03*
X017151Y014048D03*
X018151Y014048D03*
X016151Y014048D03*
X016151Y015048D03*
X016151Y008798D03*
X016151Y007798D03*
X017151Y007798D03*
X018151Y007798D03*
X017151Y008798D03*
X017151Y002548D03*
X017151Y001548D03*
X018151Y001548D03*
X016151Y001548D03*
X016151Y002548D03*
D13*
X002541Y002768D03*
X000761Y002768D03*
X000761Y005328D03*
X002541Y005328D03*
X002541Y009018D03*
X000761Y009018D03*
X000761Y011578D03*
X002541Y011578D03*
X002541Y015268D03*
X000761Y015268D03*
X000761Y017828D03*
X002541Y017828D03*
X002541Y021518D03*
X000761Y021518D03*
X000761Y024078D03*
X002541Y024078D03*
X002541Y027768D03*
X000761Y027768D03*
X000761Y030328D03*
X002541Y030328D03*
D14*
X006698Y029056D03*
X011230Y029048D03*
X015659Y029076D03*
X015659Y022826D03*
X011230Y022798D03*
X006698Y022806D03*
X006698Y016556D03*
X011230Y016548D03*
X015659Y016576D03*
X015659Y010326D03*
X011230Y010298D03*
X006698Y010306D03*
X006698Y004056D03*
X011230Y004048D03*
X015659Y004076D03*
D15*
X003651Y005032D03*
X003651Y003064D03*
X003651Y009314D03*
X003651Y011282D03*
X003651Y015564D03*
X003651Y017532D03*
X003651Y021814D03*
X003651Y023782D03*
X003651Y028064D03*
X003651Y030032D03*
D16*
X004651Y029548D03*
X006401Y030298D03*
X007651Y028548D03*
X007401Y027798D03*
X006651Y027798D03*
X010401Y028048D03*
X011651Y027548D03*
X014651Y027048D03*
X016651Y028548D03*
X017401Y028548D03*
X017401Y029798D03*
X018651Y030548D03*
X020151Y031298D03*
X018651Y028548D03*
X018901Y027048D03*
X020151Y026548D03*
X020151Y025048D03*
X018651Y024298D03*
X017401Y023548D03*
X017401Y022298D03*
X016651Y022298D03*
X014651Y020798D03*
X014151Y018548D03*
X015651Y018298D03*
X017401Y017298D03*
X017401Y016048D03*
X016651Y016048D03*
X014651Y014548D03*
X014151Y012298D03*
X015651Y012048D03*
X017401Y011048D03*
X017401Y009798D03*
X016651Y009798D03*
X014651Y008298D03*
X014151Y006048D03*
X015651Y005798D03*
X017401Y004798D03*
X017401Y003548D03*
X016651Y003548D03*
X014651Y002048D03*
X011651Y002548D03*
X010401Y003048D03*
X010651Y005548D03*
X011651Y005548D03*
X011651Y008798D03*
X010401Y009298D03*
X007651Y009798D03*
X007401Y009048D03*
X006651Y009048D03*
X004651Y010798D03*
X006401Y011548D03*
X002651Y010298D03*
X006401Y005298D03*
X004651Y004548D03*
X002651Y004048D03*
X006651Y002798D03*
X007401Y002798D03*
X007651Y003548D03*
X010651Y011798D03*
X011651Y011798D03*
X011651Y015048D03*
X010401Y015548D03*
X007651Y016048D03*
X007401Y015298D03*
X006651Y015298D03*
X004651Y017048D03*
X006401Y017798D03*
X002651Y016548D03*
X006651Y021548D03*
X007401Y021548D03*
X007651Y022298D03*
X006401Y024048D03*
X004651Y023298D03*
X002651Y022798D03*
X002651Y029048D03*
X010651Y030548D03*
X011651Y030548D03*
X014151Y031048D03*
X015651Y030798D03*
X014151Y024798D03*
X015651Y024548D03*
X018651Y022298D03*
X018901Y020798D03*
X020151Y020298D03*
X020151Y018798D03*
X018651Y018048D03*
X018651Y016048D03*
X018901Y014548D03*
X020151Y014048D03*
X020151Y012548D03*
X018651Y011798D03*
X018651Y009798D03*
X018901Y008298D03*
X020151Y007798D03*
X020151Y006298D03*
X018651Y005548D03*
X018651Y003548D03*
X018901Y002048D03*
X020151Y001548D03*
X024651Y006298D03*
X029901Y006298D03*
X030401Y007798D03*
X033651Y006298D03*
X038401Y006298D03*
X038401Y008048D03*
X038401Y012548D03*
X038401Y014298D03*
X033651Y012548D03*
X030401Y014048D03*
X029901Y012548D03*
X024651Y012548D03*
X024651Y018798D03*
X029901Y018798D03*
X030401Y020298D03*
X033651Y018798D03*
X038401Y018798D03*
X038401Y020548D03*
X038401Y025048D03*
X038401Y026798D03*
X033651Y025048D03*
X030401Y026548D03*
X029901Y025048D03*
X024651Y025048D03*
X024651Y031298D03*
X029901Y031298D03*
X033651Y031298D03*
X038401Y031298D03*
X011651Y024298D03*
X010651Y024298D03*
X010401Y021798D03*
X011651Y021298D03*
X011651Y018048D03*
X010651Y018048D03*
X030401Y001548D03*
X038401Y001798D03*
D17*
X006651Y002798D02*
X006651Y004009D01*
X006698Y004056D01*
X006698Y005001D01*
X004651Y004548D02*
X004151Y004048D01*
X002651Y004048D01*
X006651Y009048D02*
X006651Y010259D01*
X006698Y010306D01*
X006698Y011251D01*
X004651Y010798D02*
X004151Y010298D01*
X002651Y010298D01*
X006651Y015298D02*
X006651Y016509D01*
X006698Y016556D01*
X006698Y017501D01*
X004651Y017048D02*
X004151Y016548D01*
X002651Y016548D01*
X006651Y021548D02*
X006651Y022759D01*
X006698Y022806D01*
X006698Y023751D01*
X004651Y023298D02*
X004151Y022798D01*
X002651Y022798D01*
X006651Y027798D02*
X006651Y029009D01*
X006698Y029056D01*
X006698Y030001D01*
X004651Y029548D02*
X004151Y029048D01*
X002651Y029048D01*
D18*
X006401Y030298D02*
X006698Y030001D01*
X007206Y028548D02*
X007651Y028548D01*
X006401Y024048D02*
X006698Y023751D01*
X007206Y022298D02*
X007651Y022298D01*
X006401Y017798D02*
X006698Y017501D01*
X007206Y016048D02*
X007651Y016048D01*
X006401Y011548D02*
X006698Y011251D01*
X007206Y009798D02*
X007651Y009798D01*
X006401Y005298D02*
X006698Y005001D01*
X007206Y003548D02*
X007651Y003548D01*
D19*
X015651Y002048D02*
X018901Y002048D01*
X018901Y008298D02*
X015651Y008298D01*
X015651Y014548D02*
X018901Y014548D01*
X018901Y020798D02*
X015651Y020798D01*
X015651Y027048D02*
X018901Y027048D01*
D20*
X017401Y028548D02*
X017401Y029798D01*
X016651Y030298D02*
X016151Y030798D01*
X015651Y030798D01*
X016651Y030298D02*
X016651Y028548D01*
X015151Y027548D02*
X011651Y027548D01*
X014651Y027048D02*
X008151Y027048D01*
X007401Y027798D01*
X007206Y028548D02*
X006698Y029056D01*
X006698Y022806D02*
X007206Y022298D01*
X007401Y021548D02*
X008151Y020798D01*
X014651Y020798D01*
X015151Y021298D02*
X011651Y021298D01*
X015151Y021298D02*
X015651Y020798D01*
X016651Y022298D02*
X016651Y024048D01*
X016151Y024548D01*
X015651Y024548D01*
X017401Y023548D02*
X017401Y022298D01*
X016151Y018298D02*
X015651Y018298D01*
X016151Y018298D02*
X016651Y017798D01*
X016651Y016048D01*
X017401Y016048D02*
X017401Y017298D01*
X015151Y015048D02*
X011651Y015048D01*
X014651Y014548D02*
X008151Y014548D01*
X007401Y015298D01*
X007206Y016048D02*
X006698Y016556D01*
X006698Y010306D02*
X007206Y009798D01*
X007401Y009048D02*
X008151Y008298D01*
X014651Y008298D01*
X015151Y008798D02*
X011651Y008798D01*
X015151Y008798D02*
X015651Y008298D01*
X016651Y009798D02*
X016651Y011548D01*
X016151Y012048D01*
X015651Y012048D01*
X017401Y011048D02*
X017401Y009798D01*
X016151Y005798D02*
X015651Y005798D01*
X016151Y005798D02*
X016651Y005298D01*
X016651Y003548D01*
X017401Y003548D02*
X017401Y004798D01*
X015151Y002548D02*
X011651Y002548D01*
X014651Y002048D02*
X008151Y002048D01*
X007401Y002798D01*
X007206Y003548D02*
X006698Y004056D01*
X015151Y002548D02*
X015651Y002048D01*
X015651Y014548D02*
X015151Y015048D01*
X015651Y027048D02*
X015151Y027548D01*
D21*
X015271Y027753D02*
X015631Y027753D01*
X015631Y027764D02*
X015631Y027393D01*
X015381Y027643D01*
X015246Y027778D01*
X011830Y027778D01*
X011815Y027793D01*
X011709Y027837D01*
X011594Y027837D01*
X011488Y027793D01*
X011406Y027712D01*
X011362Y027606D01*
X011362Y027491D01*
X011406Y027385D01*
X011488Y027303D01*
X011549Y027278D01*
X008246Y027278D01*
X007690Y027835D01*
X007690Y027856D01*
X007646Y027962D01*
X007565Y028043D01*
X007459Y028087D01*
X007348Y028087D01*
X007348Y028238D01*
X007713Y028238D01*
X007827Y028285D01*
X007914Y028373D01*
X007961Y028486D01*
X007961Y028610D01*
X007914Y028724D01*
X007827Y028811D01*
X007713Y028858D01*
X007348Y028858D01*
X007348Y030118D01*
X007261Y030206D01*
X006932Y030206D01*
X006577Y030561D01*
X006463Y030608D01*
X006339Y030608D01*
X006226Y030561D01*
X006138Y030474D01*
X006091Y030360D01*
X006091Y030236D01*
X006113Y030183D01*
X006048Y030118D01*
X006048Y027994D01*
X006136Y027906D01*
X006381Y027906D01*
X006381Y027901D01*
X006362Y027856D01*
X006362Y027741D01*
X006406Y027635D01*
X006488Y027553D01*
X006594Y027509D01*
X006709Y027509D01*
X006815Y027553D01*
X006896Y027635D01*
X006940Y027741D01*
X006940Y027856D01*
X006921Y027901D01*
X006921Y027906D01*
X007133Y027906D01*
X007112Y027856D01*
X007112Y027741D01*
X007156Y027635D01*
X007238Y027553D01*
X007344Y027509D01*
X007365Y027509D01*
X008056Y026818D01*
X008246Y026818D01*
X014473Y026818D01*
X014488Y026803D01*
X014594Y026759D01*
X014709Y026759D01*
X014815Y026803D01*
X014896Y026885D01*
X014940Y026991D01*
X014940Y027106D01*
X014896Y027212D01*
X014815Y027293D01*
X014754Y027318D01*
X015056Y027318D01*
X015556Y026818D01*
X015686Y026818D01*
X015631Y026764D01*
X015631Y026598D01*
X016101Y026598D01*
X016101Y026498D01*
X015631Y026498D01*
X015631Y026333D01*
X015916Y026048D01*
X000301Y026048D01*
X000301Y027526D01*
X000316Y027496D01*
X000365Y027429D01*
X000422Y027372D01*
X000489Y027323D01*
X000562Y027286D01*
X000639Y027261D01*
X000711Y027250D01*
X000711Y027718D01*
X000811Y027718D01*
X000811Y027250D01*
X000883Y027261D01*
X000961Y027286D01*
X001034Y027323D01*
X001100Y027372D01*
X001158Y027429D01*
X001206Y027496D01*
X001243Y027569D01*
X001268Y027646D01*
X001280Y027718D01*
X000811Y027718D01*
X000811Y027818D01*
X000711Y027818D01*
X000711Y028287D01*
X000639Y028275D01*
X000562Y028250D01*
X000489Y028213D01*
X000422Y028165D01*
X000365Y028107D01*
X000316Y028041D01*
X000301Y028011D01*
X000301Y030086D01*
X000316Y030056D01*
X000365Y029989D01*
X000422Y029932D01*
X000489Y029883D01*
X000562Y029846D01*
X000639Y029821D01*
X000711Y029810D01*
X000711Y030278D01*
X000811Y030278D01*
X000811Y029810D01*
X000883Y029821D01*
X000961Y029846D01*
X001034Y029883D01*
X001100Y029932D01*
X001158Y029989D01*
X001206Y030056D01*
X001243Y030129D01*
X001268Y030206D01*
X001280Y030278D01*
X000811Y030278D01*
X000811Y030378D01*
X000711Y030378D01*
X000711Y030847D01*
X000639Y030835D01*
X000562Y030810D01*
X000489Y030773D01*
X000422Y030725D01*
X000365Y030667D01*
X000316Y030601D01*
X000301Y030571D01*
X000301Y032019D01*
X039371Y032019D01*
X039371Y026048D01*
X018386Y026048D01*
X018671Y026333D01*
X018671Y026764D01*
X018596Y026838D01*
X018703Y026838D01*
X018738Y026803D01*
X018844Y026759D01*
X018959Y026759D01*
X019065Y026803D01*
X019146Y026885D01*
X019190Y026991D01*
X019190Y027106D01*
X019146Y027212D01*
X019065Y027293D01*
X018959Y027337D01*
X018844Y027337D01*
X018738Y027293D01*
X018703Y027258D01*
X018671Y027258D01*
X018671Y027980D01*
X018583Y028068D01*
X017719Y028068D01*
X017631Y027980D01*
X017631Y027803D01*
X017367Y028068D01*
X016936Y028068D01*
X016651Y027784D01*
X016367Y028068D01*
X016309Y028068D01*
X016309Y030138D01*
X016221Y030226D01*
X015097Y030226D01*
X015009Y030138D01*
X015009Y028014D01*
X015097Y027926D01*
X015793Y027926D01*
X015631Y027764D01*
X015631Y027655D02*
X015370Y027655D01*
X015468Y027556D02*
X015631Y027556D01*
X015631Y027458D02*
X015567Y027458D01*
X015720Y027852D02*
X007690Y027852D01*
X007651Y027951D02*
X010615Y027951D01*
X010610Y027956D02*
X010638Y027928D01*
X010672Y027908D01*
X010710Y027898D01*
X011180Y027898D01*
X011180Y028998D01*
X011280Y028998D01*
X011280Y027898D01*
X011750Y027898D01*
X011788Y027908D01*
X011822Y027928D01*
X011850Y027956D01*
X011870Y027990D01*
X011880Y028028D01*
X011880Y028998D01*
X011280Y028998D01*
X011280Y029098D01*
X011880Y029098D01*
X011880Y030068D01*
X011870Y030106D01*
X011850Y030140D01*
X011822Y030168D01*
X011788Y030188D01*
X011750Y030198D01*
X011280Y030198D01*
X011280Y029098D01*
X011180Y029098D01*
X011180Y028998D01*
X010580Y028998D01*
X010580Y028028D01*
X010590Y027990D01*
X010610Y027956D01*
X010580Y028049D02*
X007550Y028049D01*
X007348Y028148D02*
X010580Y028148D01*
X010580Y028246D02*
X007732Y028246D01*
X007886Y028345D02*
X010580Y028345D01*
X010580Y028443D02*
X007943Y028443D01*
X007961Y028542D02*
X010580Y028542D01*
X010580Y028640D02*
X007949Y028640D01*
X007899Y028739D02*
X010580Y028739D01*
X010580Y028837D02*
X007763Y028837D01*
X007348Y028936D02*
X010580Y028936D01*
X010580Y029098D02*
X011180Y029098D01*
X011180Y030198D01*
X010710Y030198D01*
X010672Y030188D01*
X010638Y030168D01*
X010610Y030140D01*
X010590Y030106D01*
X010580Y030068D01*
X010580Y029098D01*
X010580Y029133D02*
X007348Y029133D01*
X007348Y029034D02*
X011180Y029034D01*
X011180Y028936D02*
X011280Y028936D01*
X011280Y029034D02*
X015009Y029034D01*
X015009Y028936D02*
X011880Y028936D01*
X011880Y028837D02*
X015009Y028837D01*
X015009Y028739D02*
X011880Y028739D01*
X011880Y028640D02*
X015009Y028640D01*
X015009Y028542D02*
X011880Y028542D01*
X011880Y028443D02*
X015009Y028443D01*
X015009Y028345D02*
X011880Y028345D01*
X011880Y028246D02*
X015009Y028246D01*
X015009Y028148D02*
X011880Y028148D01*
X011880Y028049D02*
X015009Y028049D01*
X015072Y027951D02*
X011844Y027951D01*
X011448Y027753D02*
X007771Y027753D01*
X007870Y027655D02*
X011383Y027655D01*
X011362Y027556D02*
X007968Y027556D01*
X008067Y027458D02*
X011376Y027458D01*
X011432Y027359D02*
X008165Y027359D01*
X007810Y027064D02*
X000301Y027064D01*
X000301Y027162D02*
X007712Y027162D01*
X007613Y027261D02*
X002675Y027261D01*
X002645Y027248D02*
X002836Y027327D01*
X002982Y027474D01*
X003061Y027665D01*
X003061Y027790D01*
X003100Y027696D01*
X003283Y027513D01*
X003522Y027414D01*
X003780Y027414D01*
X004019Y027513D01*
X004202Y027696D01*
X004301Y027935D01*
X004301Y028193D01*
X004202Y028432D01*
X004019Y028615D01*
X003780Y028714D01*
X003522Y028714D01*
X003283Y028615D01*
X003100Y028432D01*
X003001Y028193D01*
X003001Y028016D01*
X002982Y028063D01*
X002836Y028209D01*
X002645Y028288D01*
X002438Y028288D01*
X002247Y028209D01*
X002100Y028063D01*
X002021Y027872D01*
X002021Y027665D01*
X002100Y027474D01*
X002247Y027327D01*
X002438Y027248D01*
X002645Y027248D01*
X002407Y027261D02*
X000881Y027261D01*
X000811Y027261D02*
X000711Y027261D01*
X000641Y027261D02*
X000301Y027261D01*
X000301Y027359D02*
X000439Y027359D01*
X000344Y027458D02*
X000301Y027458D01*
X000711Y027458D02*
X000811Y027458D01*
X000811Y027556D02*
X000711Y027556D01*
X000711Y027655D02*
X000811Y027655D01*
X000811Y027753D02*
X002021Y027753D01*
X002025Y027655D02*
X001270Y027655D01*
X001237Y027556D02*
X002066Y027556D01*
X002116Y027458D02*
X001178Y027458D01*
X001083Y027359D02*
X002215Y027359D01*
X002021Y027852D02*
X001274Y027852D01*
X001280Y027818D02*
X001268Y027890D01*
X001243Y027968D01*
X001206Y028041D01*
X001158Y028107D01*
X001100Y028165D01*
X001034Y028213D01*
X000961Y028250D01*
X000883Y028275D01*
X000811Y028287D01*
X000811Y027818D01*
X001280Y027818D01*
X001249Y027951D02*
X002054Y027951D01*
X002095Y028049D02*
X001200Y028049D01*
X001117Y028148D02*
X002185Y028148D01*
X002336Y028246D02*
X000968Y028246D01*
X000811Y028246D02*
X000711Y028246D01*
X000711Y028148D02*
X000811Y028148D01*
X000811Y028049D02*
X000711Y028049D01*
X000711Y027951D02*
X000811Y027951D01*
X000811Y027852D02*
X000711Y027852D01*
X000554Y028246D02*
X000301Y028246D01*
X000301Y028148D02*
X000405Y028148D01*
X000323Y028049D02*
X000301Y028049D01*
X000301Y028345D02*
X003064Y028345D01*
X003023Y028246D02*
X002746Y028246D01*
X002897Y028148D02*
X003001Y028148D01*
X002988Y028049D02*
X003001Y028049D01*
X003061Y027753D02*
X003076Y027753D01*
X003057Y027655D02*
X003141Y027655D01*
X003239Y027556D02*
X003016Y027556D01*
X002966Y027458D02*
X003416Y027458D01*
X003886Y027458D02*
X007416Y027458D01*
X007515Y027359D02*
X002868Y027359D01*
X003111Y028443D02*
X000301Y028443D01*
X000301Y028542D02*
X003210Y028542D01*
X003344Y028640D02*
X000301Y028640D01*
X000301Y028739D02*
X006048Y028739D01*
X006048Y028837D02*
X004322Y028837D01*
X004304Y028819D02*
X004769Y029285D01*
X004815Y029303D01*
X004896Y029385D01*
X004940Y029491D01*
X004940Y029606D01*
X004896Y029712D01*
X004815Y029793D01*
X004709Y029837D01*
X004594Y029837D01*
X004488Y029793D01*
X004406Y029712D01*
X004388Y029666D01*
X004039Y029318D01*
X002754Y029318D01*
X002709Y029337D01*
X002594Y029337D01*
X002488Y029293D01*
X002406Y029212D01*
X002362Y029106D01*
X002362Y028991D01*
X002406Y028885D01*
X002488Y028803D01*
X002594Y028759D01*
X002709Y028759D01*
X002754Y028778D01*
X004097Y028778D01*
X004205Y028778D01*
X004304Y028819D01*
X004421Y028936D02*
X006048Y028936D01*
X006048Y029034D02*
X004519Y029034D01*
X004618Y029133D02*
X006048Y029133D01*
X006048Y029232D02*
X004716Y029232D01*
X004841Y029330D02*
X006048Y029330D01*
X006048Y029429D02*
X004914Y029429D01*
X004940Y029527D02*
X006048Y029527D01*
X006048Y029626D02*
X004932Y029626D01*
X004883Y029724D02*
X006048Y029724D01*
X006048Y029823D02*
X004743Y029823D01*
X004560Y029823D02*
X004268Y029823D01*
X004301Y029903D02*
X004301Y030162D01*
X004202Y030401D01*
X004019Y030583D01*
X003780Y030682D01*
X003522Y030682D01*
X003283Y030583D01*
X003100Y030401D01*
X003061Y030306D01*
X003061Y030432D01*
X002982Y030623D01*
X002836Y030769D01*
X002645Y030848D01*
X002438Y030848D01*
X002247Y030769D01*
X002100Y030623D01*
X002021Y030432D01*
X002021Y030225D01*
X002100Y030034D01*
X002247Y029887D01*
X002438Y029808D01*
X002645Y029808D01*
X002836Y029887D01*
X002982Y030034D01*
X003001Y030080D01*
X003001Y029903D01*
X003100Y029664D01*
X003283Y029481D01*
X003522Y029382D01*
X003780Y029382D01*
X004019Y029481D01*
X004202Y029664D01*
X004301Y029903D01*
X004301Y029921D02*
X006048Y029921D01*
X006048Y030020D02*
X004301Y030020D01*
X004301Y030118D02*
X006049Y030118D01*
X006099Y030217D02*
X004278Y030217D01*
X004237Y030316D02*
X006091Y030316D01*
X006114Y030414D02*
X004189Y030414D01*
X004090Y030513D02*
X006177Y030513D01*
X006625Y030513D02*
X015586Y030513D01*
X015594Y030509D02*
X015709Y030509D01*
X015815Y030553D01*
X015830Y030568D01*
X016056Y030568D01*
X016421Y030203D01*
X016421Y028727D01*
X016406Y028712D01*
X016362Y028606D01*
X016362Y028491D01*
X016406Y028385D01*
X016488Y028303D01*
X016594Y028259D01*
X016709Y028259D01*
X016815Y028303D01*
X016896Y028385D01*
X016940Y028491D01*
X016940Y028606D01*
X016896Y028712D01*
X016881Y028727D01*
X016881Y030203D01*
X016881Y030393D01*
X016381Y030893D01*
X016246Y031028D01*
X015830Y031028D01*
X015815Y031043D01*
X015709Y031087D01*
X015594Y031087D01*
X015488Y031043D01*
X015406Y030962D01*
X015362Y030856D01*
X015362Y030741D01*
X015406Y030635D01*
X015488Y030553D01*
X015594Y030509D01*
X015716Y030513D02*
X016111Y030513D01*
X016210Y030414D02*
X006724Y030414D01*
X006822Y030316D02*
X016309Y030316D01*
X016230Y030217D02*
X016407Y030217D01*
X016421Y030118D02*
X016309Y030118D01*
X016309Y030020D02*
X016421Y030020D01*
X016421Y029921D02*
X016309Y029921D01*
X016309Y029823D02*
X016421Y029823D01*
X016421Y029724D02*
X016309Y029724D01*
X016309Y029626D02*
X016421Y029626D01*
X016421Y029527D02*
X016309Y029527D01*
X016309Y029429D02*
X016421Y029429D01*
X016421Y029330D02*
X016309Y029330D01*
X016309Y029232D02*
X016421Y029232D01*
X016421Y029133D02*
X016309Y029133D01*
X016309Y029034D02*
X016421Y029034D01*
X016421Y028936D02*
X016309Y028936D01*
X016309Y028837D02*
X016421Y028837D01*
X016421Y028739D02*
X016309Y028739D01*
X016309Y028640D02*
X016377Y028640D01*
X016362Y028542D02*
X016309Y028542D01*
X016309Y028443D02*
X016382Y028443D01*
X016446Y028345D02*
X016309Y028345D01*
X016309Y028246D02*
X039371Y028246D01*
X039371Y028148D02*
X016309Y028148D01*
X016386Y028049D02*
X016917Y028049D01*
X016818Y027951D02*
X016484Y027951D01*
X016583Y027852D02*
X016720Y027852D01*
X017238Y028303D02*
X017344Y028259D01*
X017459Y028259D01*
X017565Y028303D01*
X017646Y028385D01*
X017690Y028491D01*
X017690Y028606D01*
X017646Y028712D01*
X017631Y028726D01*
X017631Y029620D01*
X017646Y029635D01*
X017690Y029741D01*
X017690Y029856D01*
X017646Y029962D01*
X017565Y030043D01*
X017459Y030087D01*
X017344Y030087D01*
X017238Y030043D01*
X017156Y029962D01*
X017112Y029856D01*
X017112Y029741D01*
X017156Y029635D01*
X017171Y029620D01*
X017171Y028726D01*
X017156Y028712D01*
X017112Y028606D01*
X017112Y028491D01*
X017156Y028385D01*
X017238Y028303D01*
X017196Y028345D02*
X016856Y028345D01*
X016920Y028443D02*
X017132Y028443D01*
X017112Y028542D02*
X016940Y028542D01*
X016926Y028640D02*
X017127Y028640D01*
X017171Y028739D02*
X016881Y028739D01*
X016881Y028837D02*
X017171Y028837D01*
X017171Y028936D02*
X016881Y028936D01*
X016881Y029034D02*
X017171Y029034D01*
X017171Y029133D02*
X016881Y029133D01*
X016881Y029232D02*
X017171Y029232D01*
X017171Y029330D02*
X016881Y029330D01*
X016881Y029429D02*
X017171Y029429D01*
X017171Y029527D02*
X016881Y029527D01*
X016881Y029626D02*
X017165Y029626D01*
X017119Y029724D02*
X016881Y029724D01*
X016881Y029823D02*
X017112Y029823D01*
X017140Y029921D02*
X016881Y029921D01*
X016881Y030020D02*
X017215Y030020D01*
X016881Y030118D02*
X039371Y030118D01*
X039371Y030020D02*
X017588Y030020D01*
X017663Y029921D02*
X039371Y029921D01*
X039371Y029823D02*
X017690Y029823D01*
X017683Y029724D02*
X039371Y029724D01*
X039371Y029626D02*
X017637Y029626D01*
X017631Y029527D02*
X039371Y029527D01*
X039371Y029429D02*
X017631Y029429D01*
X017631Y029330D02*
X039371Y029330D01*
X039371Y029232D02*
X017631Y029232D01*
X017631Y029133D02*
X039371Y029133D01*
X039371Y029034D02*
X017631Y029034D01*
X017631Y028936D02*
X039371Y028936D01*
X039371Y028837D02*
X017631Y028837D01*
X017631Y028739D02*
X039371Y028739D01*
X039371Y028640D02*
X017676Y028640D01*
X017690Y028542D02*
X039371Y028542D01*
X039371Y028443D02*
X017670Y028443D01*
X017606Y028345D02*
X039371Y028345D01*
X039371Y028049D02*
X018602Y028049D01*
X018671Y027951D02*
X039371Y027951D01*
X039371Y027852D02*
X018671Y027852D01*
X018671Y027753D02*
X039371Y027753D01*
X039371Y027655D02*
X018671Y027655D01*
X018671Y027556D02*
X039371Y027556D01*
X039371Y027458D02*
X018671Y027458D01*
X018671Y027359D02*
X039371Y027359D01*
X039371Y027261D02*
X019097Y027261D01*
X019166Y027162D02*
X039371Y027162D01*
X039371Y027064D02*
X019190Y027064D01*
X019179Y026965D02*
X039371Y026965D01*
X039371Y026867D02*
X019128Y026867D01*
X018979Y026768D02*
X039371Y026768D01*
X039371Y026669D02*
X018671Y026669D01*
X018671Y026571D02*
X039371Y026571D01*
X039371Y026472D02*
X018671Y026472D01*
X018671Y026374D02*
X039371Y026374D01*
X039371Y026275D02*
X018614Y026275D01*
X018515Y026177D02*
X039371Y026177D01*
X039371Y026078D02*
X018416Y026078D01*
X018667Y026768D02*
X018823Y026768D01*
X018705Y027261D02*
X018671Y027261D01*
X017631Y027852D02*
X017583Y027852D01*
X017631Y027951D02*
X017484Y027951D01*
X017386Y028049D02*
X017700Y028049D01*
X016101Y026571D02*
X000301Y026571D01*
X000301Y026669D02*
X015631Y026669D01*
X015636Y026768D02*
X014729Y026768D01*
X014573Y026768D02*
X000301Y026768D01*
X000301Y026867D02*
X008008Y026867D01*
X007909Y026965D02*
X000301Y026965D01*
X000711Y027359D02*
X000811Y027359D01*
X000301Y026472D02*
X015631Y026472D01*
X015631Y026374D02*
X000301Y026374D01*
X000301Y026275D02*
X015689Y026275D01*
X015787Y026177D02*
X000301Y026177D01*
X000301Y026078D02*
X015886Y026078D01*
X015508Y026867D02*
X014878Y026867D01*
X014929Y026965D02*
X015409Y026965D01*
X015310Y027064D02*
X014940Y027064D01*
X014916Y027162D02*
X015212Y027162D01*
X015113Y027261D02*
X014847Y027261D01*
X015009Y029133D02*
X011880Y029133D01*
X011880Y029232D02*
X015009Y029232D01*
X015009Y029330D02*
X011880Y029330D01*
X011880Y029429D02*
X015009Y029429D01*
X015009Y029527D02*
X011880Y029527D01*
X011880Y029626D02*
X015009Y029626D01*
X015009Y029724D02*
X011880Y029724D01*
X011880Y029823D02*
X015009Y029823D01*
X015009Y029921D02*
X011880Y029921D01*
X011880Y030020D02*
X015009Y030020D01*
X015009Y030118D02*
X011863Y030118D01*
X011280Y030118D02*
X011180Y030118D01*
X011180Y030020D02*
X011280Y030020D01*
X011280Y029921D02*
X011180Y029921D01*
X011180Y029823D02*
X011280Y029823D01*
X011280Y029724D02*
X011180Y029724D01*
X011180Y029626D02*
X011280Y029626D01*
X011280Y029527D02*
X011180Y029527D01*
X011180Y029429D02*
X011280Y029429D01*
X011280Y029330D02*
X011180Y029330D01*
X011180Y029232D02*
X011280Y029232D01*
X011280Y029133D02*
X011180Y029133D01*
X011180Y028837D02*
X011280Y028837D01*
X011280Y028739D02*
X011180Y028739D01*
X011180Y028640D02*
X011280Y028640D01*
X011280Y028542D02*
X011180Y028542D01*
X011180Y028443D02*
X011280Y028443D01*
X011280Y028345D02*
X011180Y028345D01*
X011180Y028246D02*
X011280Y028246D01*
X011280Y028148D02*
X011180Y028148D01*
X011180Y028049D02*
X011280Y028049D01*
X011280Y027951D02*
X011180Y027951D01*
X010580Y029232D02*
X007348Y029232D01*
X007348Y029330D02*
X010580Y029330D01*
X010580Y029429D02*
X007348Y029429D01*
X007348Y029527D02*
X010580Y029527D01*
X010580Y029626D02*
X007348Y029626D01*
X007348Y029724D02*
X010580Y029724D01*
X010580Y029823D02*
X007348Y029823D01*
X007348Y029921D02*
X010580Y029921D01*
X010580Y030020D02*
X007348Y030020D01*
X007348Y030118D02*
X010597Y030118D01*
X007235Y027556D02*
X006818Y027556D01*
X006904Y027655D02*
X007148Y027655D01*
X007112Y027753D02*
X006940Y027753D01*
X006940Y027852D02*
X007112Y027852D01*
X006485Y027556D02*
X004063Y027556D01*
X004161Y027655D02*
X006398Y027655D01*
X006362Y027753D02*
X004226Y027753D01*
X004267Y027852D02*
X006362Y027852D01*
X006092Y027951D02*
X004301Y027951D01*
X004301Y028049D02*
X006048Y028049D01*
X006048Y028148D02*
X004301Y028148D01*
X004279Y028246D02*
X006048Y028246D01*
X006048Y028345D02*
X004238Y028345D01*
X004191Y028443D02*
X006048Y028443D01*
X006048Y028542D02*
X004093Y028542D01*
X003958Y028640D02*
X006048Y028640D01*
X006921Y030217D02*
X015088Y030217D01*
X015430Y030611D02*
X003952Y030611D01*
X003350Y030611D02*
X002987Y030611D01*
X003028Y030513D02*
X003212Y030513D01*
X003114Y030414D02*
X003061Y030414D01*
X003061Y030316D02*
X003065Y030316D01*
X003001Y030020D02*
X002968Y030020D01*
X003001Y029921D02*
X002870Y029921D01*
X003034Y029823D02*
X002680Y029823D01*
X002402Y029823D02*
X000889Y029823D01*
X000811Y029823D02*
X000711Y029823D01*
X000634Y029823D02*
X000301Y029823D01*
X000301Y029921D02*
X000436Y029921D01*
X000342Y030020D02*
X000301Y030020D01*
X000301Y029724D02*
X003075Y029724D01*
X003139Y029626D02*
X000301Y029626D01*
X000301Y029527D02*
X003237Y029527D01*
X003410Y029429D02*
X000301Y029429D01*
X000301Y029330D02*
X002577Y029330D01*
X002725Y029330D02*
X004051Y029330D01*
X004150Y029429D02*
X003892Y029429D01*
X004065Y029527D02*
X004248Y029527D01*
X004164Y029626D02*
X004347Y029626D01*
X004419Y029724D02*
X004227Y029724D01*
X002895Y030710D02*
X015375Y030710D01*
X015362Y030808D02*
X002741Y030808D01*
X002341Y030808D02*
X000964Y030808D01*
X000961Y030810D02*
X000883Y030835D01*
X000811Y030847D01*
X000811Y030378D01*
X001280Y030378D01*
X001268Y030450D01*
X001243Y030528D01*
X001206Y030601D01*
X001158Y030667D01*
X001100Y030725D01*
X001034Y030773D01*
X000961Y030810D01*
X000811Y030808D02*
X000711Y030808D01*
X000711Y030710D02*
X000811Y030710D01*
X000811Y030611D02*
X000711Y030611D01*
X000711Y030513D02*
X000811Y030513D01*
X000811Y030414D02*
X000711Y030414D01*
X000811Y030316D02*
X002021Y030316D01*
X002021Y030414D02*
X001274Y030414D01*
X001248Y030513D02*
X002055Y030513D01*
X002096Y030611D02*
X001198Y030611D01*
X001115Y030710D02*
X002187Y030710D01*
X002024Y030217D02*
X001270Y030217D01*
X001238Y030118D02*
X002065Y030118D01*
X002114Y030020D02*
X001180Y030020D01*
X001086Y029921D02*
X002213Y029921D01*
X002426Y029232D02*
X000301Y029232D01*
X000301Y029133D02*
X002374Y029133D01*
X002362Y029034D02*
X000301Y029034D01*
X000301Y028936D02*
X002385Y028936D01*
X002454Y028837D02*
X000301Y028837D01*
X000711Y029921D02*
X000811Y029921D01*
X000811Y030020D02*
X000711Y030020D01*
X000711Y030118D02*
X000811Y030118D01*
X000811Y030217D02*
X000711Y030217D01*
X000324Y030611D02*
X000301Y030611D01*
X000301Y030710D02*
X000407Y030710D01*
X000301Y030808D02*
X000558Y030808D01*
X000301Y030907D02*
X015384Y030907D01*
X015450Y031005D02*
X000301Y031005D01*
X000301Y031104D02*
X039371Y031104D01*
X039371Y031202D02*
X000301Y031202D01*
X000301Y031301D02*
X039371Y031301D01*
X039371Y031400D02*
X000301Y031400D01*
X000301Y031498D02*
X039371Y031498D01*
X039371Y031597D02*
X000301Y031597D01*
X000301Y031695D02*
X039371Y031695D01*
X039371Y031794D02*
X000301Y031794D01*
X000301Y031892D02*
X039371Y031892D01*
X039371Y031991D02*
X000301Y031991D01*
X000301Y025794D02*
X039371Y025794D01*
X039371Y019798D01*
X018386Y019798D01*
X018671Y020083D01*
X018671Y020514D01*
X018596Y020588D01*
X018703Y020588D01*
X018738Y020553D01*
X018844Y020509D01*
X018959Y020509D01*
X019065Y020553D01*
X019146Y020635D01*
X019190Y020741D01*
X019190Y020856D01*
X019146Y020962D01*
X019065Y021043D01*
X018959Y021087D01*
X018844Y021087D01*
X018738Y021043D01*
X018703Y021008D01*
X018671Y021008D01*
X018671Y021730D01*
X018583Y021818D01*
X017719Y021818D01*
X017631Y021730D01*
X017631Y021553D01*
X017367Y021818D01*
X016936Y021818D01*
X016651Y021534D01*
X016367Y021818D01*
X016309Y021818D01*
X016309Y023888D01*
X016221Y023976D01*
X015097Y023976D01*
X015009Y023888D01*
X015009Y021764D01*
X015097Y021676D01*
X015793Y021676D01*
X015631Y021514D01*
X015631Y021143D01*
X015381Y021393D01*
X015246Y021528D01*
X011830Y021528D01*
X011815Y021543D01*
X011709Y021587D01*
X011594Y021587D01*
X011488Y021543D01*
X011406Y021462D01*
X011362Y021356D01*
X011362Y021241D01*
X011406Y021135D01*
X011488Y021053D01*
X011549Y021028D01*
X008246Y021028D01*
X007690Y021585D01*
X007690Y021606D01*
X007646Y021712D01*
X007565Y021793D01*
X007459Y021837D01*
X007348Y021837D01*
X007348Y021988D01*
X007713Y021988D01*
X007827Y022035D01*
X007914Y022123D01*
X007961Y022236D01*
X007961Y022360D01*
X007914Y022474D01*
X007827Y022561D01*
X007713Y022608D01*
X007348Y022608D01*
X007348Y023868D01*
X007261Y023956D01*
X006932Y023956D01*
X006577Y024311D01*
X006463Y024358D01*
X006339Y024358D01*
X006226Y024311D01*
X006138Y024224D01*
X006091Y024110D01*
X006091Y023986D01*
X006113Y023933D01*
X006048Y023868D01*
X006048Y021744D01*
X006136Y021656D01*
X006381Y021656D01*
X006381Y021651D01*
X006362Y021606D01*
X006362Y021491D01*
X006406Y021385D01*
X006488Y021303D01*
X006594Y021259D01*
X006709Y021259D01*
X006815Y021303D01*
X006896Y021385D01*
X006940Y021491D01*
X006940Y021606D01*
X006921Y021651D01*
X006921Y021656D01*
X007133Y021656D01*
X007112Y021606D01*
X007112Y021491D01*
X007156Y021385D01*
X007238Y021303D01*
X007344Y021259D01*
X007365Y021259D01*
X008056Y020568D01*
X008246Y020568D01*
X014473Y020568D01*
X014488Y020553D01*
X014594Y020509D01*
X014709Y020509D01*
X014815Y020553D01*
X014896Y020635D01*
X014940Y020741D01*
X014940Y020856D01*
X014896Y020962D01*
X014815Y021043D01*
X014754Y021068D01*
X015056Y021068D01*
X015556Y020568D01*
X015686Y020568D01*
X015631Y020514D01*
X015631Y020348D01*
X016101Y020348D01*
X016101Y020248D01*
X015631Y020248D01*
X015631Y020083D01*
X015916Y019798D01*
X000301Y019798D01*
X000301Y021276D01*
X000316Y021246D01*
X000365Y021179D01*
X000422Y021122D01*
X000489Y021073D01*
X000562Y021036D01*
X000639Y021011D01*
X000711Y021000D01*
X000711Y021468D01*
X000811Y021468D01*
X000811Y021000D01*
X000883Y021011D01*
X000961Y021036D01*
X001034Y021073D01*
X001100Y021122D01*
X001158Y021179D01*
X001206Y021246D01*
X001243Y021319D01*
X001268Y021396D01*
X001280Y021468D01*
X000811Y021468D01*
X000811Y021568D01*
X000711Y021568D01*
X000711Y022037D01*
X000639Y022025D01*
X000562Y022000D01*
X000489Y021963D01*
X000422Y021915D01*
X000365Y021857D01*
X000316Y021791D01*
X000301Y021761D01*
X000301Y023836D01*
X000316Y023806D01*
X000365Y023739D01*
X000422Y023682D01*
X000489Y023633D01*
X000562Y023596D01*
X000639Y023571D01*
X000711Y023560D01*
X000711Y024028D01*
X000811Y024028D01*
X000811Y023560D01*
X000883Y023571D01*
X000961Y023596D01*
X001034Y023633D01*
X001100Y023682D01*
X001158Y023739D01*
X001206Y023806D01*
X001243Y023879D01*
X001268Y023956D01*
X001280Y024028D01*
X000811Y024028D01*
X000811Y024128D01*
X000711Y024128D01*
X000711Y024597D01*
X000639Y024585D01*
X000562Y024560D01*
X000489Y024523D01*
X000422Y024475D01*
X000365Y024417D01*
X000316Y024351D01*
X000301Y024321D01*
X000301Y025794D01*
X000301Y025783D02*
X039371Y025783D01*
X039371Y025684D02*
X000301Y025684D01*
X000301Y025585D02*
X039371Y025585D01*
X039371Y025487D02*
X000301Y025487D01*
X000301Y025388D02*
X039371Y025388D01*
X039371Y025290D02*
X000301Y025290D01*
X000301Y025191D02*
X039371Y025191D01*
X039371Y025093D02*
X000301Y025093D01*
X000301Y024994D02*
X039371Y024994D01*
X039371Y024896D02*
X000301Y024896D01*
X000301Y024797D02*
X015498Y024797D01*
X015488Y024793D02*
X015406Y024712D01*
X015362Y024606D01*
X015362Y024491D01*
X015406Y024385D01*
X015488Y024303D01*
X015594Y024259D01*
X015709Y024259D01*
X015815Y024303D01*
X015830Y024318D01*
X016056Y024318D01*
X016421Y023953D01*
X016421Y022477D01*
X016406Y022462D01*
X016362Y022356D01*
X016362Y022241D01*
X016406Y022135D01*
X016488Y022053D01*
X016594Y022009D01*
X016709Y022009D01*
X016815Y022053D01*
X016896Y022135D01*
X016940Y022241D01*
X016940Y022356D01*
X016896Y022462D01*
X016881Y022477D01*
X016881Y023953D01*
X016881Y024143D01*
X016381Y024643D01*
X016246Y024778D01*
X015830Y024778D01*
X015815Y024793D01*
X015709Y024837D01*
X015594Y024837D01*
X015488Y024793D01*
X015401Y024699D02*
X000301Y024699D01*
X000301Y024600D02*
X015362Y024600D01*
X015362Y024501D02*
X002853Y024501D01*
X002836Y024519D02*
X002645Y024598D01*
X002438Y024598D01*
X002247Y024519D01*
X002100Y024373D01*
X002021Y024182D01*
X002021Y023975D01*
X002100Y023784D01*
X002247Y023637D01*
X002438Y023558D01*
X002645Y023558D01*
X002836Y023637D01*
X002982Y023784D01*
X003001Y023830D01*
X003001Y023653D01*
X003100Y023414D01*
X003283Y023231D01*
X003522Y023132D01*
X003780Y023132D01*
X004019Y023231D01*
X004202Y023414D01*
X004301Y023653D01*
X004301Y023912D01*
X004202Y024151D01*
X004019Y024333D01*
X003780Y024432D01*
X003522Y024432D01*
X003283Y024333D01*
X003100Y024151D01*
X003061Y024056D01*
X003061Y024182D01*
X002982Y024373D01*
X002836Y024519D01*
X002952Y024403D02*
X003451Y024403D01*
X003254Y024304D02*
X003010Y024304D01*
X003051Y024206D02*
X003155Y024206D01*
X003082Y024107D02*
X003061Y024107D01*
X003001Y023812D02*
X002994Y023812D01*
X003001Y023713D02*
X002911Y023713D01*
X003017Y023615D02*
X002781Y023615D01*
X003058Y023516D02*
X000301Y023516D01*
X000301Y023418D02*
X003099Y023418D01*
X003195Y023319D02*
X000301Y023319D01*
X000301Y023220D02*
X003309Y023220D01*
X002754Y023068D02*
X002709Y023087D01*
X002594Y023087D01*
X002488Y023043D01*
X002406Y022962D01*
X002362Y022856D01*
X002362Y022741D01*
X002406Y022635D01*
X002488Y022553D01*
X002594Y022509D01*
X002709Y022509D01*
X002754Y022528D01*
X004097Y022528D01*
X004205Y022528D01*
X004304Y022569D01*
X004769Y023035D01*
X004815Y023053D01*
X004896Y023135D01*
X004940Y023241D01*
X004940Y023356D01*
X004896Y023462D01*
X004815Y023543D01*
X004709Y023587D01*
X004594Y023587D01*
X004488Y023543D01*
X004406Y023462D01*
X004388Y023416D01*
X004039Y023068D01*
X002754Y023068D01*
X002468Y023023D02*
X000301Y023023D01*
X000301Y022925D02*
X002391Y022925D01*
X002362Y022826D02*
X000301Y022826D01*
X000301Y022728D02*
X002368Y022728D01*
X002412Y022629D02*
X000301Y022629D01*
X000301Y022531D02*
X002543Y022531D01*
X002645Y022038D02*
X002438Y022038D01*
X002247Y021959D01*
X002100Y021813D01*
X002021Y021622D01*
X002021Y021415D01*
X002100Y021224D01*
X002247Y021077D01*
X002438Y020998D01*
X002645Y020998D01*
X002836Y021077D01*
X002982Y021224D01*
X003061Y021415D01*
X003061Y021540D01*
X003100Y021446D01*
X003283Y021263D01*
X003522Y021164D01*
X003780Y021164D01*
X004019Y021263D01*
X004202Y021446D01*
X004301Y021685D01*
X004301Y021943D01*
X004202Y022182D01*
X004019Y022365D01*
X003780Y022464D01*
X003522Y022464D01*
X003283Y022365D01*
X003100Y022182D01*
X003001Y021943D01*
X003001Y021766D01*
X002982Y021813D01*
X002836Y021959D01*
X002645Y022038D01*
X003040Y022038D01*
X003001Y021939D02*
X002855Y021939D01*
X002954Y021841D02*
X003001Y021841D01*
X003081Y022136D02*
X000301Y022136D01*
X000301Y022038D02*
X002437Y022038D01*
X002227Y021939D02*
X001066Y021939D01*
X001034Y021963D02*
X000961Y022000D01*
X000883Y022025D01*
X000811Y022037D01*
X000811Y021568D01*
X001280Y021568D01*
X001268Y021640D01*
X001243Y021718D01*
X001206Y021791D01*
X001158Y021857D01*
X001100Y021915D01*
X001034Y021963D01*
X001170Y021841D02*
X002128Y021841D01*
X002071Y021742D02*
X001231Y021742D01*
X001267Y021644D02*
X002030Y021644D01*
X002021Y021545D02*
X000811Y021545D01*
X000811Y021447D02*
X000711Y021447D01*
X000711Y021348D02*
X000811Y021348D01*
X000811Y021250D02*
X000711Y021250D01*
X000711Y021151D02*
X000811Y021151D01*
X000811Y021052D02*
X000711Y021052D01*
X000530Y021052D02*
X000301Y021052D01*
X000301Y020954D02*
X007670Y020954D01*
X007572Y021052D02*
X002776Y021052D01*
X002909Y021151D02*
X007473Y021151D01*
X007375Y021250D02*
X003987Y021250D01*
X004105Y021348D02*
X006443Y021348D01*
X006381Y021447D02*
X004203Y021447D01*
X004243Y021545D02*
X006362Y021545D01*
X006378Y021644D02*
X004284Y021644D01*
X004301Y021742D02*
X006050Y021742D01*
X006048Y021841D02*
X004301Y021841D01*
X004301Y021939D02*
X006048Y021939D01*
X006048Y022038D02*
X004262Y022038D01*
X004221Y022136D02*
X006048Y022136D01*
X006048Y022235D02*
X004149Y022235D01*
X004051Y022334D02*
X006048Y022334D01*
X006048Y022432D02*
X003857Y022432D01*
X004211Y022531D02*
X006048Y022531D01*
X006048Y022629D02*
X004364Y022629D01*
X004462Y022728D02*
X006048Y022728D01*
X006048Y022826D02*
X004561Y022826D01*
X004660Y022925D02*
X006048Y022925D01*
X006048Y023023D02*
X004758Y023023D01*
X004883Y023122D02*
X006048Y023122D01*
X006048Y023220D02*
X004931Y023220D01*
X004940Y023319D02*
X006048Y023319D01*
X006048Y023418D02*
X004914Y023418D01*
X004842Y023516D02*
X006048Y023516D01*
X006048Y023615D02*
X004285Y023615D01*
X004301Y023713D02*
X006048Y023713D01*
X006048Y023812D02*
X004301Y023812D01*
X004301Y023910D02*
X006091Y023910D01*
X006091Y024009D02*
X004261Y024009D01*
X004220Y024107D02*
X006091Y024107D01*
X006131Y024206D02*
X004147Y024206D01*
X004048Y024304D02*
X006219Y024304D01*
X006583Y024304D02*
X015487Y024304D01*
X015399Y024403D02*
X003852Y024403D01*
X004244Y023516D02*
X004461Y023516D01*
X004388Y023418D02*
X004204Y023418D01*
X004290Y023319D02*
X004107Y023319D01*
X004192Y023220D02*
X003993Y023220D01*
X004093Y023122D02*
X000301Y023122D01*
X000301Y023615D02*
X000526Y023615D01*
X000391Y023713D02*
X000301Y023713D01*
X000301Y023812D02*
X000313Y023812D01*
X000711Y023812D02*
X000811Y023812D01*
X000811Y023910D02*
X000711Y023910D01*
X000711Y024009D02*
X000811Y024009D01*
X000811Y024107D02*
X002021Y024107D01*
X002021Y024009D02*
X001277Y024009D01*
X001253Y023910D02*
X002048Y023910D01*
X002089Y023812D02*
X001209Y023812D01*
X001132Y023713D02*
X002171Y023713D01*
X002302Y023615D02*
X000997Y023615D01*
X000811Y023615D02*
X000711Y023615D01*
X000711Y023713D02*
X000811Y023713D01*
X000811Y024128D02*
X001280Y024128D01*
X001268Y024200D01*
X001243Y024278D01*
X001206Y024351D01*
X001158Y024417D01*
X001100Y024475D01*
X001034Y024523D01*
X000961Y024560D01*
X000883Y024585D01*
X000811Y024597D01*
X000811Y024128D01*
X000811Y024206D02*
X000711Y024206D01*
X000711Y024304D02*
X000811Y024304D01*
X000811Y024403D02*
X000711Y024403D01*
X000711Y024501D02*
X000811Y024501D01*
X001063Y024501D02*
X002229Y024501D01*
X002131Y024403D02*
X001168Y024403D01*
X001229Y024304D02*
X002072Y024304D01*
X002031Y024206D02*
X001266Y024206D01*
X000459Y024501D02*
X000301Y024501D01*
X000301Y024403D02*
X000354Y024403D01*
X000301Y022432D02*
X003445Y022432D01*
X003252Y022334D02*
X000301Y022334D01*
X000301Y022235D02*
X003153Y022235D01*
X003100Y021447D02*
X003061Y021447D01*
X003034Y021348D02*
X003198Y021348D01*
X003315Y021250D02*
X002993Y021250D01*
X002307Y021052D02*
X000993Y021052D01*
X001129Y021151D02*
X002173Y021151D01*
X002090Y021250D02*
X001208Y021250D01*
X001253Y021348D02*
X002049Y021348D01*
X002021Y021447D02*
X001276Y021447D01*
X000811Y021644D02*
X000711Y021644D01*
X000711Y021742D02*
X000811Y021742D01*
X000811Y021841D02*
X000711Y021841D01*
X000711Y021939D02*
X000811Y021939D01*
X000456Y021939D02*
X000301Y021939D01*
X000301Y021841D02*
X000353Y021841D01*
X000314Y021250D02*
X000301Y021250D01*
X000301Y021151D02*
X000393Y021151D01*
X000301Y020855D02*
X007769Y020855D01*
X007867Y020757D02*
X000301Y020757D01*
X000301Y020658D02*
X007966Y020658D01*
X008222Y021052D02*
X011490Y021052D01*
X011400Y021151D02*
X008124Y021151D01*
X008025Y021250D02*
X011362Y021250D01*
X011362Y021348D02*
X007926Y021348D01*
X007828Y021447D02*
X011400Y021447D01*
X011493Y021545D02*
X007729Y021545D01*
X007674Y021644D02*
X015761Y021644D01*
X015663Y021545D02*
X011809Y021545D01*
X011788Y021658D02*
X011822Y021678D01*
X011850Y021706D01*
X011870Y021740D01*
X011880Y021778D01*
X011880Y022748D01*
X011280Y022748D01*
X011280Y021648D01*
X011750Y021648D01*
X011788Y021658D01*
X011870Y021742D02*
X015030Y021742D01*
X015009Y021841D02*
X011880Y021841D01*
X011880Y021939D02*
X015009Y021939D01*
X015009Y022038D02*
X011880Y022038D01*
X011880Y022136D02*
X015009Y022136D01*
X015009Y022235D02*
X011880Y022235D01*
X011880Y022334D02*
X015009Y022334D01*
X015009Y022432D02*
X011880Y022432D01*
X011880Y022531D02*
X015009Y022531D01*
X015009Y022629D02*
X011880Y022629D01*
X011880Y022728D02*
X015009Y022728D01*
X015009Y022826D02*
X011280Y022826D01*
X011280Y022848D02*
X011880Y022848D01*
X011880Y023818D01*
X011870Y023856D01*
X011850Y023890D01*
X011822Y023918D01*
X011788Y023938D01*
X011750Y023948D01*
X011280Y023948D01*
X011280Y022848D01*
X011280Y022748D01*
X011180Y022748D01*
X011180Y021648D01*
X010710Y021648D01*
X010672Y021658D01*
X010638Y021678D01*
X010610Y021706D01*
X010590Y021740D01*
X010580Y021778D01*
X010580Y022748D01*
X011180Y022748D01*
X011180Y022848D01*
X010580Y022848D01*
X010580Y023818D01*
X010590Y023856D01*
X010610Y023890D01*
X010638Y023918D01*
X010672Y023938D01*
X010710Y023948D01*
X011180Y023948D01*
X011180Y022848D01*
X011280Y022848D01*
X011280Y022925D02*
X011180Y022925D01*
X011180Y023023D02*
X011280Y023023D01*
X011280Y023122D02*
X011180Y023122D01*
X011180Y023220D02*
X011280Y023220D01*
X011280Y023319D02*
X011180Y023319D01*
X011180Y023418D02*
X011280Y023418D01*
X011280Y023516D02*
X011180Y023516D01*
X011180Y023615D02*
X011280Y023615D01*
X011280Y023713D02*
X011180Y023713D01*
X011180Y023812D02*
X011280Y023812D01*
X011280Y023910D02*
X011180Y023910D01*
X011830Y023910D02*
X015031Y023910D01*
X015009Y023812D02*
X011880Y023812D01*
X011880Y023713D02*
X015009Y023713D01*
X015009Y023615D02*
X011880Y023615D01*
X011880Y023516D02*
X015009Y023516D01*
X015009Y023418D02*
X011880Y023418D01*
X011880Y023319D02*
X015009Y023319D01*
X015009Y023220D02*
X011880Y023220D01*
X011880Y023122D02*
X015009Y023122D01*
X015009Y023023D02*
X011880Y023023D01*
X011880Y022925D02*
X015009Y022925D01*
X016309Y022925D02*
X016421Y022925D01*
X016421Y023023D02*
X016309Y023023D01*
X016309Y023122D02*
X016421Y023122D01*
X016421Y023220D02*
X016309Y023220D01*
X016309Y023319D02*
X016421Y023319D01*
X016421Y023418D02*
X016309Y023418D01*
X016309Y023516D02*
X016421Y023516D01*
X016421Y023615D02*
X016309Y023615D01*
X016309Y023713D02*
X016421Y023713D01*
X016421Y023812D02*
X016309Y023812D01*
X016287Y023910D02*
X016421Y023910D01*
X016365Y024009D02*
X006879Y024009D01*
X006780Y024107D02*
X016267Y024107D01*
X016168Y024206D02*
X006682Y024206D01*
X007306Y023910D02*
X010630Y023910D01*
X010580Y023812D02*
X007348Y023812D01*
X007348Y023713D02*
X010580Y023713D01*
X010580Y023615D02*
X007348Y023615D01*
X007348Y023516D02*
X010580Y023516D01*
X010580Y023418D02*
X007348Y023418D01*
X007348Y023319D02*
X010580Y023319D01*
X010580Y023220D02*
X007348Y023220D01*
X007348Y023122D02*
X010580Y023122D01*
X010580Y023023D02*
X007348Y023023D01*
X007348Y022925D02*
X010580Y022925D01*
X010580Y022728D02*
X007348Y022728D01*
X007348Y022826D02*
X011180Y022826D01*
X011180Y022728D02*
X011280Y022728D01*
X011280Y022629D02*
X011180Y022629D01*
X011180Y022531D02*
X011280Y022531D01*
X011280Y022432D02*
X011180Y022432D01*
X011180Y022334D02*
X011280Y022334D01*
X011280Y022235D02*
X011180Y022235D01*
X011180Y022136D02*
X011280Y022136D01*
X011280Y022038D02*
X011180Y022038D01*
X011180Y021939D02*
X011280Y021939D01*
X011280Y021841D02*
X011180Y021841D01*
X011180Y021742D02*
X011280Y021742D01*
X010590Y021742D02*
X007615Y021742D01*
X007348Y021841D02*
X010580Y021841D01*
X010580Y021939D02*
X007348Y021939D01*
X007128Y021644D02*
X006924Y021644D01*
X006940Y021545D02*
X007112Y021545D01*
X007131Y021447D02*
X006922Y021447D01*
X006859Y021348D02*
X007193Y021348D01*
X007829Y022038D02*
X010580Y022038D01*
X010580Y022136D02*
X007920Y022136D01*
X007961Y022235D02*
X010580Y022235D01*
X010580Y022334D02*
X007961Y022334D01*
X007931Y022432D02*
X010580Y022432D01*
X010580Y022531D02*
X007857Y022531D01*
X007348Y022629D02*
X010580Y022629D01*
X014481Y020560D02*
X000301Y020560D01*
X000301Y020461D02*
X015631Y020461D01*
X015631Y020363D02*
X000301Y020363D01*
X000301Y020264D02*
X016101Y020264D01*
X015745Y019969D02*
X000301Y019969D01*
X000301Y020067D02*
X015647Y020067D01*
X015631Y020166D02*
X000301Y020166D01*
X000301Y019870D02*
X015844Y019870D01*
X015677Y020560D02*
X014821Y020560D01*
X014906Y020658D02*
X015466Y020658D01*
X015367Y020757D02*
X014940Y020757D01*
X014940Y020855D02*
X015269Y020855D01*
X015170Y020954D02*
X014899Y020954D01*
X014792Y021052D02*
X015072Y021052D01*
X015426Y021348D02*
X015631Y021348D01*
X015631Y021250D02*
X015525Y021250D01*
X015624Y021151D02*
X015631Y021151D01*
X015631Y021447D02*
X015328Y021447D01*
X016309Y021841D02*
X039371Y021841D01*
X039371Y021939D02*
X016309Y021939D01*
X016309Y022038D02*
X016525Y022038D01*
X016406Y022136D02*
X016309Y022136D01*
X016309Y022235D02*
X016365Y022235D01*
X016362Y022334D02*
X016309Y022334D01*
X016309Y022432D02*
X016394Y022432D01*
X016421Y022531D02*
X016309Y022531D01*
X016309Y022629D02*
X016421Y022629D01*
X016421Y022728D02*
X016309Y022728D01*
X016309Y022826D02*
X016421Y022826D01*
X016881Y022826D02*
X017171Y022826D01*
X017171Y022728D02*
X016881Y022728D01*
X016881Y022629D02*
X017171Y022629D01*
X017171Y022531D02*
X016881Y022531D01*
X016908Y022432D02*
X017144Y022432D01*
X017156Y022462D02*
X017112Y022356D01*
X017112Y022241D01*
X017156Y022135D01*
X017238Y022053D01*
X017344Y022009D01*
X017459Y022009D01*
X017565Y022053D01*
X017646Y022135D01*
X017690Y022241D01*
X017690Y022356D01*
X017646Y022462D01*
X017631Y022477D01*
X017631Y023370D01*
X017646Y023385D01*
X017690Y023491D01*
X017690Y023606D01*
X017646Y023712D01*
X017565Y023793D01*
X017459Y023837D01*
X017344Y023837D01*
X017238Y023793D01*
X017156Y023712D01*
X017112Y023606D01*
X017112Y023491D01*
X017156Y023385D01*
X017171Y023370D01*
X017171Y022477D01*
X017156Y022462D01*
X017112Y022334D02*
X016940Y022334D01*
X016937Y022235D02*
X017115Y022235D01*
X017156Y022136D02*
X016897Y022136D01*
X016777Y022038D02*
X017275Y022038D01*
X017527Y022038D02*
X039371Y022038D01*
X039371Y022136D02*
X017647Y022136D01*
X017687Y022235D02*
X039371Y022235D01*
X039371Y022334D02*
X017690Y022334D01*
X017658Y022432D02*
X039371Y022432D01*
X039371Y022531D02*
X017631Y022531D01*
X017631Y022629D02*
X039371Y022629D01*
X039371Y022728D02*
X017631Y022728D01*
X017631Y022826D02*
X039371Y022826D01*
X039371Y022925D02*
X017631Y022925D01*
X017631Y023023D02*
X039371Y023023D01*
X039371Y023122D02*
X017631Y023122D01*
X017631Y023220D02*
X039371Y023220D01*
X039371Y023319D02*
X017631Y023319D01*
X017660Y023418D02*
X039371Y023418D01*
X039371Y023516D02*
X017690Y023516D01*
X017686Y023615D02*
X039371Y023615D01*
X039371Y023713D02*
X017645Y023713D01*
X017519Y023812D02*
X039371Y023812D01*
X039371Y023910D02*
X016881Y023910D01*
X016881Y023812D02*
X017283Y023812D01*
X017158Y023713D02*
X016881Y023713D01*
X016881Y023615D02*
X017116Y023615D01*
X017112Y023516D02*
X016881Y023516D01*
X016881Y023418D02*
X017143Y023418D01*
X017171Y023319D02*
X016881Y023319D01*
X016881Y023220D02*
X017171Y023220D01*
X017171Y023122D02*
X016881Y023122D01*
X016881Y023023D02*
X017171Y023023D01*
X017171Y022925D02*
X016881Y022925D01*
X016860Y021742D02*
X016442Y021742D01*
X016541Y021644D02*
X016761Y021644D01*
X016663Y021545D02*
X016639Y021545D01*
X017442Y021742D02*
X017643Y021742D01*
X017631Y021644D02*
X017541Y021644D01*
X018659Y021742D02*
X039371Y021742D01*
X039371Y021644D02*
X018671Y021644D01*
X018671Y021545D02*
X039371Y021545D01*
X039371Y021447D02*
X018671Y021447D01*
X018671Y021348D02*
X039371Y021348D01*
X039371Y021250D02*
X018671Y021250D01*
X018671Y021151D02*
X039371Y021151D01*
X039371Y021052D02*
X019042Y021052D01*
X019149Y020954D02*
X039371Y020954D01*
X039371Y020855D02*
X019190Y020855D01*
X019190Y020757D02*
X039371Y020757D01*
X039371Y020658D02*
X019156Y020658D01*
X019071Y020560D02*
X039371Y020560D01*
X039371Y020461D02*
X018671Y020461D01*
X018671Y020363D02*
X039371Y020363D01*
X039371Y020264D02*
X018671Y020264D01*
X018671Y020166D02*
X039371Y020166D01*
X039371Y020067D02*
X018655Y020067D01*
X018557Y019969D02*
X039371Y019969D01*
X039371Y019870D02*
X018458Y019870D01*
X018625Y020560D02*
X018731Y020560D01*
X018761Y021052D02*
X018671Y021052D01*
X016246Y018528D02*
X015830Y018528D01*
X015815Y018543D01*
X015709Y018587D01*
X015594Y018587D01*
X015488Y018543D01*
X015406Y018462D01*
X015362Y018356D01*
X015362Y018241D01*
X015406Y018135D01*
X015488Y018053D01*
X015594Y018009D01*
X015709Y018009D01*
X015815Y018053D01*
X015830Y018068D01*
X016056Y018068D01*
X016421Y017703D01*
X016421Y016227D01*
X016406Y016212D01*
X016362Y016106D01*
X016362Y015991D01*
X016406Y015885D01*
X016488Y015803D01*
X016594Y015759D01*
X016709Y015759D01*
X016815Y015803D01*
X016896Y015885D01*
X016940Y015991D01*
X016940Y016106D01*
X016896Y016212D01*
X016881Y016227D01*
X016881Y017703D01*
X016881Y017893D01*
X016381Y018393D01*
X016246Y018528D01*
X016284Y018490D02*
X039371Y018490D01*
X039371Y018392D02*
X016383Y018392D01*
X016481Y018293D02*
X039371Y018293D01*
X039371Y018195D02*
X016580Y018195D01*
X016678Y018096D02*
X039371Y018096D01*
X039371Y017998D02*
X016777Y017998D01*
X016875Y017899D02*
X039371Y017899D01*
X039371Y017801D02*
X016881Y017801D01*
X016881Y017702D02*
X039371Y017702D01*
X039371Y017603D02*
X016881Y017603D01*
X016881Y017505D02*
X017200Y017505D01*
X017238Y017543D02*
X017156Y017462D01*
X017112Y017356D01*
X017112Y017241D01*
X017156Y017135D01*
X017171Y017120D01*
X017171Y016227D01*
X017156Y016212D01*
X017112Y016106D01*
X017112Y015991D01*
X017156Y015885D01*
X017238Y015803D01*
X017344Y015759D01*
X017459Y015759D01*
X017565Y015803D01*
X017646Y015885D01*
X017690Y015991D01*
X017690Y016106D01*
X017646Y016212D01*
X017631Y016227D01*
X017631Y017120D01*
X017646Y017135D01*
X017690Y017241D01*
X017690Y017356D01*
X017646Y017462D01*
X017565Y017543D01*
X017459Y017587D01*
X017344Y017587D01*
X017238Y017543D01*
X017133Y017406D02*
X016881Y017406D01*
X016881Y017308D02*
X017112Y017308D01*
X017125Y017209D02*
X016881Y017209D01*
X016881Y017111D02*
X017171Y017111D01*
X017171Y017012D02*
X016881Y017012D01*
X016881Y016914D02*
X017171Y016914D01*
X017171Y016815D02*
X016881Y016815D01*
X016881Y016717D02*
X017171Y016717D01*
X017171Y016618D02*
X016881Y016618D01*
X016881Y016519D02*
X017171Y016519D01*
X017171Y016421D02*
X016881Y016421D01*
X016881Y016322D02*
X017171Y016322D01*
X017169Y016224D02*
X016884Y016224D01*
X016932Y016125D02*
X017121Y016125D01*
X017112Y016027D02*
X016940Y016027D01*
X016914Y015928D02*
X017138Y015928D01*
X017211Y015830D02*
X016841Y015830D01*
X016936Y015568D02*
X016651Y015284D01*
X016367Y015568D01*
X016309Y015568D01*
X016309Y017638D01*
X016221Y017726D01*
X015097Y017726D01*
X015009Y017638D01*
X015009Y015514D01*
X015097Y015426D01*
X015793Y015426D01*
X015631Y015264D01*
X015631Y014893D01*
X015381Y015143D01*
X015246Y015278D01*
X011830Y015278D01*
X011815Y015293D01*
X011709Y015337D01*
X011594Y015337D01*
X011488Y015293D01*
X011406Y015212D01*
X011362Y015106D01*
X011362Y014991D01*
X011406Y014885D01*
X011488Y014803D01*
X011549Y014778D01*
X008246Y014778D01*
X007690Y015335D01*
X007690Y015356D01*
X007646Y015462D01*
X007565Y015543D01*
X007459Y015587D01*
X007348Y015587D01*
X007348Y015738D01*
X007713Y015738D01*
X007827Y015785D01*
X007914Y015873D01*
X007961Y015986D01*
X007961Y016110D01*
X007914Y016224D01*
X010580Y016224D01*
X010580Y016322D02*
X007799Y016322D01*
X007827Y016311D02*
X007713Y016358D01*
X007348Y016358D01*
X007348Y017618D01*
X007261Y017706D01*
X006932Y017706D01*
X006577Y018061D01*
X006463Y018108D01*
X006339Y018108D01*
X006226Y018061D01*
X006138Y017974D01*
X006091Y017860D01*
X006091Y017736D01*
X006113Y017683D01*
X006048Y017618D01*
X006048Y015494D01*
X006136Y015406D01*
X006381Y015406D01*
X006381Y015401D01*
X006362Y015356D01*
X006362Y015241D01*
X006406Y015135D01*
X006488Y015053D01*
X006594Y015009D01*
X006709Y015009D01*
X006815Y015053D01*
X006896Y015135D01*
X006940Y015241D01*
X006940Y015356D01*
X006921Y015401D01*
X006921Y015406D01*
X007133Y015406D01*
X007112Y015356D01*
X007112Y015241D01*
X007156Y015135D01*
X007238Y015053D01*
X007344Y015009D01*
X007365Y015009D01*
X008056Y014318D01*
X008246Y014318D01*
X014473Y014318D01*
X014488Y014303D01*
X014594Y014259D01*
X014709Y014259D01*
X014815Y014303D01*
X014896Y014385D01*
X014940Y014491D01*
X014940Y014606D01*
X014896Y014712D01*
X014815Y014793D01*
X014754Y014818D01*
X015056Y014818D01*
X015556Y014318D01*
X015686Y014318D01*
X015631Y014264D01*
X015631Y014098D01*
X016101Y014098D01*
X016101Y013998D01*
X015631Y013998D01*
X015631Y013833D01*
X015916Y013548D01*
X000301Y013548D01*
X000301Y015026D01*
X000316Y014996D01*
X000365Y014929D01*
X000422Y014872D01*
X000489Y014823D01*
X000562Y014786D01*
X000639Y014761D01*
X000711Y014750D01*
X000711Y015218D01*
X000811Y015218D01*
X000811Y014750D01*
X000883Y014761D01*
X000961Y014786D01*
X001034Y014823D01*
X001100Y014872D01*
X001158Y014929D01*
X001206Y014996D01*
X001243Y015069D01*
X001268Y015146D01*
X001280Y015218D01*
X000811Y015218D01*
X000811Y015318D01*
X000711Y015318D01*
X000711Y015787D01*
X000639Y015775D01*
X000562Y015750D01*
X000489Y015713D01*
X000422Y015665D01*
X000365Y015607D01*
X000316Y015541D01*
X000301Y015511D01*
X000301Y017586D01*
X000316Y017556D01*
X000365Y017489D01*
X000422Y017432D01*
X000489Y017383D01*
X000562Y017346D01*
X000639Y017321D01*
X000711Y017310D01*
X000711Y017778D01*
X000811Y017778D01*
X000811Y017310D01*
X000883Y017321D01*
X000961Y017346D01*
X001034Y017383D01*
X001100Y017432D01*
X001158Y017489D01*
X001206Y017556D01*
X001243Y017629D01*
X001268Y017706D01*
X001280Y017778D01*
X000811Y017778D01*
X000811Y017878D01*
X000711Y017878D01*
X000711Y018347D01*
X000639Y018335D01*
X000562Y018310D01*
X000489Y018273D01*
X000422Y018225D01*
X000365Y018167D01*
X000316Y018101D01*
X000301Y018071D01*
X000301Y019544D01*
X039371Y019544D01*
X039371Y013548D01*
X018386Y013548D01*
X018671Y013833D01*
X018671Y014264D01*
X018596Y014338D01*
X018703Y014338D01*
X018738Y014303D01*
X018844Y014259D01*
X018959Y014259D01*
X019065Y014303D01*
X019146Y014385D01*
X019190Y014491D01*
X019190Y014606D01*
X019146Y014712D01*
X019065Y014793D01*
X018959Y014837D01*
X018844Y014837D01*
X018738Y014793D01*
X018703Y014758D01*
X018671Y014758D01*
X018671Y015480D01*
X018583Y015568D01*
X017719Y015568D01*
X017631Y015480D01*
X017631Y015303D01*
X017367Y015568D01*
X016936Y015568D01*
X016902Y015534D02*
X016401Y015534D01*
X016309Y015633D02*
X039371Y015633D01*
X039371Y015731D02*
X016309Y015731D01*
X016309Y015830D02*
X016461Y015830D01*
X016388Y015928D02*
X016309Y015928D01*
X016309Y016027D02*
X016362Y016027D01*
X016371Y016125D02*
X016309Y016125D01*
X016309Y016224D02*
X016419Y016224D01*
X016421Y016322D02*
X016309Y016322D01*
X016309Y016421D02*
X016421Y016421D01*
X016421Y016519D02*
X016309Y016519D01*
X016309Y016618D02*
X016421Y016618D01*
X016421Y016717D02*
X016309Y016717D01*
X016309Y016815D02*
X016421Y016815D01*
X016421Y016914D02*
X016309Y016914D01*
X016309Y017012D02*
X016421Y017012D01*
X016421Y017111D02*
X016309Y017111D01*
X016309Y017209D02*
X016421Y017209D01*
X016421Y017308D02*
X016309Y017308D01*
X016309Y017406D02*
X016421Y017406D01*
X016421Y017505D02*
X016309Y017505D01*
X016309Y017603D02*
X016421Y017603D01*
X016421Y017702D02*
X016245Y017702D01*
X016324Y017801D02*
X006837Y017801D01*
X006739Y017899D02*
X016225Y017899D01*
X016126Y017998D02*
X006640Y017998D01*
X006492Y018096D02*
X015445Y018096D01*
X015381Y018195D02*
X002910Y018195D01*
X002982Y018123D02*
X002836Y018269D01*
X002645Y018348D01*
X002438Y018348D01*
X002247Y018269D01*
X002100Y018123D01*
X002021Y017932D01*
X002021Y017725D01*
X002100Y017534D01*
X002247Y017387D01*
X002438Y017308D01*
X002645Y017308D01*
X002836Y017387D01*
X002982Y017534D01*
X003001Y017580D01*
X003001Y017403D01*
X003100Y017164D01*
X003283Y016981D01*
X003522Y016882D01*
X003780Y016882D01*
X004019Y016981D01*
X004202Y017164D01*
X004301Y017403D01*
X004301Y017662D01*
X004202Y017901D01*
X004019Y018083D01*
X003780Y018182D01*
X003522Y018182D01*
X003283Y018083D01*
X003100Y017901D01*
X003061Y017806D01*
X003061Y017932D01*
X002982Y018123D01*
X002993Y018096D02*
X003314Y018096D01*
X003197Y017998D02*
X003034Y017998D01*
X003061Y017899D02*
X003099Y017899D01*
X003001Y017505D02*
X002953Y017505D01*
X003001Y017406D02*
X002855Y017406D01*
X003041Y017308D02*
X000301Y017308D01*
X000301Y017406D02*
X000457Y017406D01*
X000353Y017505D02*
X000301Y017505D01*
X000301Y017209D02*
X003081Y017209D01*
X003154Y017111D02*
X000301Y017111D01*
X000301Y017012D02*
X003252Y017012D01*
X003446Y016914D02*
X000301Y016914D01*
X000301Y016815D02*
X002541Y016815D01*
X002594Y016837D02*
X002488Y016793D01*
X002406Y016712D01*
X002362Y016606D01*
X002362Y016491D01*
X002406Y016385D01*
X002488Y016303D01*
X002594Y016259D01*
X002709Y016259D01*
X002754Y016278D01*
X004097Y016278D01*
X004205Y016278D01*
X004304Y016319D01*
X004769Y016785D01*
X004815Y016803D01*
X004896Y016885D01*
X004940Y016991D01*
X004940Y017106D01*
X004896Y017212D01*
X004815Y017293D01*
X004709Y017337D01*
X004594Y017337D01*
X004488Y017293D01*
X004406Y017212D01*
X004388Y017166D01*
X004039Y016818D01*
X002754Y016818D01*
X002709Y016837D01*
X002594Y016837D01*
X002411Y016717D02*
X000301Y016717D01*
X000301Y016618D02*
X002368Y016618D01*
X002362Y016519D02*
X000301Y016519D01*
X000301Y016421D02*
X002391Y016421D01*
X002469Y016322D02*
X000301Y016322D01*
X000301Y016224D02*
X006048Y016224D01*
X006048Y016322D02*
X004307Y016322D01*
X004406Y016421D02*
X006048Y016421D01*
X006048Y016519D02*
X004504Y016519D01*
X004603Y016618D02*
X006048Y016618D01*
X006048Y016717D02*
X004701Y016717D01*
X004826Y016815D02*
X006048Y016815D01*
X006048Y016914D02*
X004908Y016914D01*
X004940Y017012D02*
X006048Y017012D01*
X006048Y017111D02*
X004938Y017111D01*
X004897Y017209D02*
X006048Y017209D01*
X006048Y017308D02*
X004779Y017308D01*
X004524Y017308D02*
X004262Y017308D01*
X004301Y017406D02*
X006048Y017406D01*
X006048Y017505D02*
X004301Y017505D01*
X004301Y017603D02*
X006048Y017603D01*
X006105Y017702D02*
X004284Y017702D01*
X004244Y017801D02*
X006091Y017801D01*
X006107Y017899D02*
X004203Y017899D01*
X004105Y017998D02*
X006162Y017998D01*
X006311Y018096D02*
X003989Y018096D01*
X004221Y017209D02*
X004405Y017209D01*
X004332Y017111D02*
X004149Y017111D01*
X004233Y017012D02*
X004050Y017012D01*
X004135Y016914D02*
X003856Y016914D01*
X003780Y016214D02*
X003522Y016214D01*
X003283Y016115D01*
X003100Y015932D01*
X003001Y015693D01*
X003001Y015516D01*
X002982Y015563D01*
X002836Y015709D01*
X002645Y015788D01*
X002438Y015788D01*
X002247Y015709D01*
X002100Y015563D01*
X002021Y015372D01*
X002021Y015165D01*
X002100Y014974D01*
X002247Y014827D01*
X002438Y014748D01*
X002645Y014748D01*
X002836Y014827D01*
X002982Y014974D01*
X003061Y015165D01*
X003061Y015290D01*
X003100Y015196D01*
X003283Y015013D01*
X003522Y014914D01*
X003780Y014914D01*
X004019Y015013D01*
X004202Y015196D01*
X004301Y015435D01*
X004301Y015693D01*
X004202Y015932D01*
X004019Y016115D01*
X003780Y016214D01*
X003994Y016125D02*
X006048Y016125D01*
X006048Y016027D02*
X004108Y016027D01*
X004204Y015928D02*
X006048Y015928D01*
X006048Y015830D02*
X004245Y015830D01*
X004285Y015731D02*
X006048Y015731D01*
X006048Y015633D02*
X004301Y015633D01*
X004301Y015534D02*
X006048Y015534D01*
X006107Y015436D02*
X004301Y015436D01*
X004261Y015337D02*
X006362Y015337D01*
X006363Y015238D02*
X004220Y015238D01*
X004146Y015140D02*
X006404Y015140D01*
X006517Y015041D02*
X004048Y015041D01*
X003850Y014943D02*
X007431Y014943D01*
X007530Y014844D02*
X002853Y014844D01*
X002951Y014943D02*
X003452Y014943D01*
X003254Y015041D02*
X003010Y015041D01*
X003051Y015140D02*
X003156Y015140D01*
X003082Y015238D02*
X003061Y015238D01*
X003001Y015534D02*
X002994Y015534D01*
X003001Y015633D02*
X002912Y015633D01*
X003017Y015731D02*
X002782Y015731D01*
X003058Y015830D02*
X000301Y015830D01*
X000301Y015928D02*
X003099Y015928D01*
X003195Y016027D02*
X000301Y016027D01*
X000301Y016125D02*
X003308Y016125D01*
X002300Y015731D02*
X000998Y015731D01*
X001034Y015713D02*
X000961Y015750D01*
X000883Y015775D01*
X000811Y015787D01*
X000811Y015318D01*
X001280Y015318D01*
X001268Y015390D01*
X001243Y015468D01*
X001206Y015541D01*
X001158Y015607D01*
X001100Y015665D01*
X001034Y015713D01*
X001132Y015633D02*
X002170Y015633D01*
X002089Y015534D02*
X001209Y015534D01*
X001254Y015436D02*
X002048Y015436D01*
X002021Y015337D02*
X001277Y015337D01*
X001266Y015140D02*
X002031Y015140D01*
X002021Y015238D02*
X000811Y015238D01*
X000811Y015140D02*
X000711Y015140D01*
X000711Y015041D02*
X000811Y015041D01*
X000811Y014943D02*
X000711Y014943D01*
X000711Y014844D02*
X000811Y014844D01*
X001062Y014844D02*
X002230Y014844D01*
X002131Y014943D02*
X001168Y014943D01*
X001229Y015041D02*
X002072Y015041D01*
X000811Y015337D02*
X000711Y015337D01*
X000711Y015436D02*
X000811Y015436D01*
X000811Y015534D02*
X000711Y015534D01*
X000711Y015633D02*
X000811Y015633D01*
X000811Y015731D02*
X000711Y015731D01*
X000524Y015731D02*
X000301Y015731D01*
X000301Y015633D02*
X000390Y015633D01*
X000313Y015534D02*
X000301Y015534D01*
X000301Y014943D02*
X000355Y014943D01*
X000301Y014844D02*
X000460Y014844D01*
X000301Y014746D02*
X007628Y014746D01*
X007727Y014647D02*
X000301Y014647D01*
X000301Y014549D02*
X007825Y014549D01*
X007924Y014450D02*
X000301Y014450D01*
X000301Y014352D02*
X008023Y014352D01*
X008180Y014844D02*
X011447Y014844D01*
X011382Y014943D02*
X008082Y014943D01*
X007983Y015041D02*
X011362Y015041D01*
X011377Y015140D02*
X007885Y015140D01*
X007786Y015238D02*
X011433Y015238D01*
X011280Y015398D02*
X011750Y015398D01*
X011788Y015408D01*
X011822Y015428D01*
X011850Y015456D01*
X011870Y015490D01*
X011880Y015528D01*
X011880Y016498D01*
X011280Y016498D01*
X011280Y015398D01*
X011280Y015436D02*
X011180Y015436D01*
X011180Y015398D02*
X011180Y016498D01*
X011280Y016498D01*
X011280Y016598D01*
X011880Y016598D01*
X011880Y017568D01*
X011870Y017606D01*
X011850Y017640D01*
X011822Y017668D01*
X011788Y017688D01*
X011750Y017698D01*
X011280Y017698D01*
X011280Y016598D01*
X011180Y016598D01*
X011180Y016498D01*
X010580Y016498D01*
X010580Y015528D01*
X010590Y015490D01*
X010610Y015456D01*
X010638Y015428D01*
X010672Y015408D01*
X010710Y015398D01*
X011180Y015398D01*
X011180Y015534D02*
X011280Y015534D01*
X011280Y015633D02*
X011180Y015633D01*
X011180Y015731D02*
X011280Y015731D01*
X011280Y015830D02*
X011180Y015830D01*
X011180Y015928D02*
X011280Y015928D01*
X011280Y016027D02*
X011180Y016027D01*
X011180Y016125D02*
X011280Y016125D01*
X011280Y016224D02*
X011180Y016224D01*
X011180Y016322D02*
X011280Y016322D01*
X011280Y016421D02*
X011180Y016421D01*
X011180Y016519D02*
X007348Y016519D01*
X007348Y016421D02*
X010580Y016421D01*
X010580Y016598D02*
X011180Y016598D01*
X011180Y017698D01*
X010710Y017698D01*
X010672Y017688D01*
X010638Y017668D01*
X010610Y017640D01*
X010590Y017606D01*
X010580Y017568D01*
X010580Y016598D01*
X010580Y016618D02*
X007348Y016618D01*
X007348Y016717D02*
X010580Y016717D01*
X010580Y016815D02*
X007348Y016815D01*
X007348Y016914D02*
X010580Y016914D01*
X010580Y017012D02*
X007348Y017012D01*
X007348Y017111D02*
X010580Y017111D01*
X010580Y017209D02*
X007348Y017209D01*
X007348Y017308D02*
X010580Y017308D01*
X010580Y017406D02*
X007348Y017406D01*
X007348Y017505D02*
X010580Y017505D01*
X010589Y017603D02*
X007348Y017603D01*
X007265Y017702D02*
X015073Y017702D01*
X015009Y017603D02*
X011870Y017603D01*
X011880Y017505D02*
X015009Y017505D01*
X015009Y017406D02*
X011880Y017406D01*
X011880Y017308D02*
X015009Y017308D01*
X015009Y017209D02*
X011880Y017209D01*
X011880Y017111D02*
X015009Y017111D01*
X015009Y017012D02*
X011880Y017012D01*
X011880Y016914D02*
X015009Y016914D01*
X015009Y016815D02*
X011880Y016815D01*
X011880Y016717D02*
X015009Y016717D01*
X015009Y016618D02*
X011880Y016618D01*
X011880Y016421D02*
X015009Y016421D01*
X015009Y016519D02*
X011280Y016519D01*
X011280Y016618D02*
X011180Y016618D01*
X011180Y016717D02*
X011280Y016717D01*
X011280Y016815D02*
X011180Y016815D01*
X011180Y016914D02*
X011280Y016914D01*
X011280Y017012D02*
X011180Y017012D01*
X011180Y017111D02*
X011280Y017111D01*
X011280Y017209D02*
X011180Y017209D01*
X011180Y017308D02*
X011280Y017308D01*
X011280Y017406D02*
X011180Y017406D01*
X011180Y017505D02*
X011280Y017505D01*
X011280Y017603D02*
X011180Y017603D01*
X011880Y016322D02*
X015009Y016322D01*
X015009Y016224D02*
X011880Y016224D01*
X011880Y016125D02*
X015009Y016125D01*
X015009Y016027D02*
X011880Y016027D01*
X011880Y015928D02*
X015009Y015928D01*
X015009Y015830D02*
X011880Y015830D01*
X011880Y015731D02*
X015009Y015731D01*
X015009Y015633D02*
X011880Y015633D01*
X011880Y015534D02*
X015009Y015534D01*
X015087Y015436D02*
X011829Y015436D01*
X010630Y015436D02*
X007657Y015436D01*
X007690Y015337D02*
X015705Y015337D01*
X015631Y015238D02*
X015286Y015238D01*
X015385Y015140D02*
X015631Y015140D01*
X015631Y015041D02*
X015483Y015041D01*
X015582Y014943D02*
X015631Y014943D01*
X015325Y014549D02*
X014940Y014549D01*
X014923Y014647D02*
X015227Y014647D01*
X015128Y014746D02*
X014862Y014746D01*
X014923Y014450D02*
X015424Y014450D01*
X015523Y014352D02*
X014863Y014352D01*
X015631Y014253D02*
X000301Y014253D01*
X000301Y014154D02*
X015631Y014154D01*
X015631Y013957D02*
X000301Y013957D01*
X000301Y013859D02*
X015631Y013859D01*
X015704Y013760D02*
X000301Y013760D01*
X000301Y013662D02*
X015802Y013662D01*
X015901Y013563D02*
X000301Y013563D01*
X000301Y013294D02*
X039371Y013294D01*
X039371Y007298D01*
X018386Y007298D01*
X018671Y007583D01*
X018671Y008014D01*
X018596Y008088D01*
X018703Y008088D01*
X018738Y008053D01*
X018844Y008009D01*
X018959Y008009D01*
X019065Y008053D01*
X019146Y008135D01*
X019190Y008241D01*
X019190Y008356D01*
X019146Y008462D01*
X019065Y008543D01*
X018959Y008587D01*
X018844Y008587D01*
X018738Y008543D01*
X018703Y008508D01*
X018671Y008508D01*
X018671Y009230D01*
X018583Y009318D01*
X017719Y009318D01*
X017631Y009230D01*
X017631Y009053D01*
X017367Y009318D01*
X016936Y009318D01*
X016651Y009034D01*
X016367Y009318D01*
X016309Y009318D01*
X016309Y011388D01*
X016221Y011476D01*
X015097Y011476D01*
X015009Y011388D01*
X015009Y009264D01*
X015097Y009176D01*
X015793Y009176D01*
X015631Y009014D01*
X015631Y008643D01*
X015246Y009028D01*
X015056Y009028D01*
X011830Y009028D01*
X011815Y009043D01*
X011709Y009087D01*
X011594Y009087D01*
X011488Y009043D01*
X011406Y008962D01*
X011362Y008856D01*
X011362Y008741D01*
X011406Y008635D01*
X011488Y008553D01*
X011549Y008528D01*
X008246Y008528D01*
X007690Y009085D01*
X007690Y009106D01*
X007646Y009212D01*
X007565Y009293D01*
X007459Y009337D01*
X007348Y009337D01*
X007348Y009488D01*
X007713Y009488D01*
X007827Y009535D01*
X007914Y009623D01*
X007961Y009736D01*
X007961Y009860D01*
X007914Y009974D01*
X007827Y010061D01*
X007713Y010108D01*
X007348Y010108D01*
X007348Y011368D01*
X007261Y011456D01*
X006932Y011456D01*
X006577Y011811D01*
X006463Y011858D01*
X006339Y011858D01*
X006226Y011811D01*
X006138Y011724D01*
X006091Y011610D01*
X006091Y011486D01*
X006113Y011433D01*
X006048Y011368D01*
X006048Y009244D01*
X006136Y009156D01*
X006381Y009156D01*
X006381Y009151D01*
X006362Y009106D01*
X006362Y008991D01*
X006406Y008885D01*
X006488Y008803D01*
X006594Y008759D01*
X006709Y008759D01*
X006815Y008803D01*
X006896Y008885D01*
X006940Y008991D01*
X006940Y009106D01*
X006921Y009151D01*
X006921Y009156D01*
X007133Y009156D01*
X007112Y009106D01*
X007112Y008991D01*
X007156Y008885D01*
X007238Y008803D01*
X007344Y008759D01*
X007365Y008759D01*
X008056Y008068D01*
X008246Y008068D01*
X014473Y008068D01*
X014488Y008053D01*
X014594Y008009D01*
X014709Y008009D01*
X014815Y008053D01*
X014896Y008135D01*
X014940Y008241D01*
X014940Y008356D01*
X014896Y008462D01*
X014815Y008543D01*
X014754Y008568D01*
X015056Y008568D01*
X015556Y008068D01*
X015686Y008068D01*
X015631Y008014D01*
X015631Y007848D01*
X016101Y007848D01*
X016101Y007748D01*
X015631Y007748D01*
X015631Y007583D01*
X015916Y007298D01*
X000301Y007298D01*
X000301Y008776D01*
X000316Y008746D01*
X000365Y008679D01*
X000422Y008622D01*
X000489Y008573D01*
X000562Y008536D01*
X000639Y008511D01*
X000711Y008500D01*
X000711Y008968D01*
X000811Y008968D01*
X000811Y008500D01*
X000883Y008511D01*
X000961Y008536D01*
X001034Y008573D01*
X001100Y008622D01*
X001158Y008679D01*
X001206Y008746D01*
X001243Y008819D01*
X001268Y008896D01*
X001280Y008968D01*
X000811Y008968D01*
X000811Y009068D01*
X000711Y009068D01*
X000711Y009537D01*
X000639Y009525D01*
X000562Y009500D01*
X000489Y009463D01*
X000422Y009415D01*
X000365Y009357D01*
X000316Y009291D01*
X000301Y009261D01*
X000301Y011336D01*
X000316Y011306D01*
X000365Y011239D01*
X000422Y011182D01*
X000489Y011133D01*
X000562Y011096D01*
X000639Y011071D01*
X000711Y011060D01*
X000711Y011528D01*
X000811Y011528D01*
X000811Y011060D01*
X000883Y011071D01*
X000961Y011096D01*
X001034Y011133D01*
X001100Y011182D01*
X001158Y011239D01*
X001206Y011306D01*
X001243Y011379D01*
X001268Y011456D01*
X001280Y011528D01*
X000811Y011528D01*
X000811Y011628D01*
X000711Y011628D01*
X000711Y012097D01*
X000639Y012085D01*
X000562Y012060D01*
X000489Y012023D01*
X000422Y011975D01*
X000365Y011917D01*
X000316Y011851D01*
X000301Y011821D01*
X000301Y013294D01*
X000301Y013268D02*
X039371Y013268D01*
X039371Y013169D02*
X000301Y013169D01*
X000301Y013070D02*
X039371Y013070D01*
X039371Y012972D02*
X000301Y012972D01*
X000301Y012873D02*
X039371Y012873D01*
X039371Y012775D02*
X000301Y012775D01*
X000301Y012676D02*
X039371Y012676D01*
X039371Y012578D02*
X000301Y012578D01*
X000301Y012479D02*
X039371Y012479D01*
X039371Y012381D02*
X000301Y012381D01*
X000301Y012282D02*
X015477Y012282D01*
X015488Y012293D02*
X015406Y012212D01*
X015362Y012106D01*
X015362Y011991D01*
X015406Y011885D01*
X015488Y011803D01*
X015594Y011759D01*
X015709Y011759D01*
X015815Y011803D01*
X015830Y011818D01*
X016056Y011818D01*
X016421Y011453D01*
X016421Y009977D01*
X016406Y009962D01*
X016362Y009856D01*
X016362Y009741D01*
X016406Y009635D01*
X016488Y009553D01*
X016594Y009509D01*
X016709Y009509D01*
X016815Y009553D01*
X016896Y009635D01*
X016940Y009741D01*
X016940Y009856D01*
X016896Y009962D01*
X016881Y009977D01*
X016881Y011453D01*
X016881Y011643D01*
X016381Y012143D01*
X016246Y012278D01*
X015830Y012278D01*
X015815Y012293D01*
X015709Y012337D01*
X015594Y012337D01*
X015488Y012293D01*
X015395Y012184D02*
X000301Y012184D01*
X000301Y012085D02*
X000638Y012085D01*
X000711Y012085D02*
X000811Y012085D01*
X000811Y012097D02*
X000811Y011628D01*
X001280Y011628D01*
X001268Y011700D01*
X001243Y011778D01*
X001206Y011851D01*
X001158Y011917D01*
X001100Y011975D01*
X001034Y012023D01*
X000961Y012060D01*
X000883Y012085D01*
X000811Y012097D01*
X000884Y012085D02*
X002406Y012085D01*
X002438Y012098D02*
X002247Y012019D01*
X002100Y011873D01*
X002021Y011682D01*
X002021Y011475D01*
X002100Y011284D01*
X002247Y011137D01*
X002438Y011058D01*
X002645Y011058D01*
X002836Y011137D01*
X002982Y011284D01*
X003001Y011330D01*
X003001Y011153D01*
X003100Y010914D01*
X003283Y010731D01*
X003522Y010632D01*
X003780Y010632D01*
X004019Y010731D01*
X004202Y010914D01*
X004301Y011153D01*
X004301Y011412D01*
X004202Y011651D01*
X004019Y011833D01*
X003780Y011932D01*
X003522Y011932D01*
X003283Y011833D01*
X003100Y011651D01*
X003061Y011556D01*
X003061Y011682D01*
X002982Y011873D01*
X002836Y012019D01*
X002645Y012098D01*
X002438Y012098D01*
X002676Y012085D02*
X015362Y012085D01*
X015364Y011986D02*
X002868Y011986D01*
X002967Y011888D02*
X003415Y011888D01*
X003239Y011789D02*
X003016Y011789D01*
X003057Y011691D02*
X003140Y011691D01*
X003076Y011592D02*
X003061Y011592D01*
X003001Y011297D02*
X002987Y011297D01*
X003001Y011198D02*
X002896Y011198D01*
X003023Y011100D02*
X002745Y011100D01*
X003064Y011001D02*
X000301Y011001D01*
X000301Y010903D02*
X003112Y010903D01*
X003210Y010804D02*
X000301Y010804D01*
X000301Y010705D02*
X003346Y010705D01*
X003957Y010705D02*
X004177Y010705D01*
X004092Y010804D02*
X004275Y010804D01*
X004191Y010903D02*
X004374Y010903D01*
X004388Y010916D02*
X004039Y010568D01*
X002754Y010568D01*
X002709Y010587D01*
X002594Y010587D01*
X002488Y010543D01*
X002406Y010462D01*
X002362Y010356D01*
X002362Y010241D01*
X002406Y010135D01*
X002488Y010053D01*
X002594Y010009D01*
X002709Y010009D01*
X002754Y010028D01*
X004097Y010028D01*
X004205Y010028D01*
X004304Y010069D01*
X004769Y010535D01*
X004815Y010553D01*
X004896Y010635D01*
X004940Y010741D01*
X004940Y010856D01*
X004896Y010962D01*
X004815Y011043D01*
X004709Y011087D01*
X004594Y011087D01*
X004488Y011043D01*
X004406Y010962D01*
X004388Y010916D01*
X004446Y011001D02*
X004238Y011001D01*
X004279Y011100D02*
X006048Y011100D01*
X006048Y011198D02*
X004301Y011198D01*
X004301Y011297D02*
X006048Y011297D01*
X006076Y011395D02*
X004301Y011395D01*
X004267Y011494D02*
X006091Y011494D01*
X006091Y011592D02*
X004226Y011592D01*
X004162Y011691D02*
X006125Y011691D01*
X006204Y011789D02*
X004063Y011789D01*
X003888Y011888D02*
X015405Y011888D01*
X015521Y011789D02*
X006598Y011789D01*
X006697Y011691D02*
X016183Y011691D01*
X016085Y011789D02*
X015781Y011789D01*
X015826Y012282D02*
X039371Y012282D01*
X039371Y012184D02*
X016341Y012184D01*
X016440Y012085D02*
X039371Y012085D01*
X039371Y011986D02*
X016538Y011986D01*
X016637Y011888D02*
X039371Y011888D01*
X039371Y011789D02*
X016735Y011789D01*
X016834Y011691D02*
X039371Y011691D01*
X039371Y011592D02*
X016881Y011592D01*
X016881Y011494D02*
X039371Y011494D01*
X039371Y011395D02*
X016881Y011395D01*
X016881Y011297D02*
X017247Y011297D01*
X017238Y011293D02*
X017156Y011212D01*
X017112Y011106D01*
X017112Y010991D01*
X017156Y010885D01*
X017171Y010870D01*
X017171Y009977D01*
X017156Y009962D01*
X017112Y009856D01*
X017112Y009741D01*
X017156Y009635D01*
X017238Y009553D01*
X017344Y009509D01*
X017459Y009509D01*
X017565Y009553D01*
X017646Y009635D01*
X017690Y009741D01*
X017690Y009856D01*
X017646Y009962D01*
X017631Y009977D01*
X017631Y010870D01*
X017646Y010885D01*
X017690Y010991D01*
X017690Y011106D01*
X017646Y011212D01*
X017565Y011293D01*
X017459Y011337D01*
X017344Y011337D01*
X017238Y011293D01*
X017151Y011198D02*
X016881Y011198D01*
X016881Y011100D02*
X017112Y011100D01*
X017112Y011001D02*
X016881Y011001D01*
X016881Y010903D02*
X017149Y010903D01*
X017171Y010804D02*
X016881Y010804D01*
X016881Y010705D02*
X017171Y010705D01*
X017171Y010607D02*
X016881Y010607D01*
X016881Y010508D02*
X017171Y010508D01*
X017171Y010410D02*
X016881Y010410D01*
X016881Y010311D02*
X017171Y010311D01*
X017171Y010213D02*
X016881Y010213D01*
X016881Y010114D02*
X017171Y010114D01*
X017171Y010016D02*
X016881Y010016D01*
X016914Y009917D02*
X017138Y009917D01*
X017112Y009819D02*
X016940Y009819D01*
X016931Y009720D02*
X017121Y009720D01*
X017170Y009621D02*
X016883Y009621D01*
X016741Y009523D02*
X017311Y009523D01*
X017491Y009523D02*
X039371Y009523D01*
X039371Y009621D02*
X017633Y009621D01*
X017681Y009720D02*
X039371Y009720D01*
X039371Y009819D02*
X017690Y009819D01*
X017664Y009917D02*
X039371Y009917D01*
X039371Y010016D02*
X017631Y010016D01*
X017631Y010114D02*
X039371Y010114D01*
X039371Y010213D02*
X017631Y010213D01*
X017631Y010311D02*
X039371Y010311D01*
X039371Y010410D02*
X017631Y010410D01*
X017631Y010508D02*
X039371Y010508D01*
X039371Y010607D02*
X017631Y010607D01*
X017631Y010705D02*
X039371Y010705D01*
X039371Y010804D02*
X017631Y010804D01*
X017653Y010903D02*
X039371Y010903D01*
X039371Y011001D02*
X017690Y011001D01*
X017690Y011100D02*
X039371Y011100D01*
X039371Y011198D02*
X017652Y011198D01*
X017556Y011297D02*
X039371Y011297D01*
X039371Y009424D02*
X016309Y009424D01*
X016309Y009326D02*
X039371Y009326D01*
X039371Y009227D02*
X018671Y009227D01*
X018671Y009129D02*
X039371Y009129D01*
X039371Y009030D02*
X018671Y009030D01*
X018671Y008932D02*
X039371Y008932D01*
X039371Y008833D02*
X018671Y008833D01*
X018671Y008735D02*
X039371Y008735D01*
X039371Y008636D02*
X018671Y008636D01*
X018671Y008537D02*
X018732Y008537D01*
X019070Y008537D02*
X039371Y008537D01*
X039371Y008439D02*
X019155Y008439D01*
X019190Y008340D02*
X039371Y008340D01*
X039371Y008242D02*
X019190Y008242D01*
X019150Y008143D02*
X039371Y008143D01*
X039371Y008045D02*
X019044Y008045D01*
X018758Y008045D02*
X018640Y008045D01*
X018671Y007946D02*
X039371Y007946D01*
X039371Y007848D02*
X018671Y007848D01*
X018671Y007749D02*
X039371Y007749D01*
X039371Y007651D02*
X018671Y007651D01*
X018640Y007552D02*
X039371Y007552D01*
X039371Y007454D02*
X018542Y007454D01*
X018443Y007355D02*
X039371Y007355D01*
X039371Y007044D02*
X039371Y001198D01*
X018536Y001198D01*
X018671Y001333D01*
X018671Y001764D01*
X018596Y001838D01*
X018703Y001838D01*
X018738Y001803D01*
X018844Y001759D01*
X018959Y001759D01*
X019065Y001803D01*
X019146Y001885D01*
X019190Y001991D01*
X019190Y002106D01*
X019146Y002212D01*
X019065Y002293D01*
X018959Y002337D01*
X018844Y002337D01*
X018738Y002293D01*
X018703Y002258D01*
X018671Y002258D01*
X018671Y002980D01*
X018583Y003068D01*
X017719Y003068D01*
X017631Y002980D01*
X017631Y002803D01*
X017367Y003068D01*
X016936Y003068D01*
X016651Y002784D01*
X016367Y003068D01*
X016309Y003068D01*
X016309Y005138D01*
X016221Y005226D01*
X015097Y005226D01*
X015009Y005138D01*
X015009Y003014D01*
X015097Y002926D01*
X015793Y002926D01*
X015631Y002764D01*
X015631Y002393D01*
X015381Y002643D01*
X015246Y002778D01*
X011830Y002778D01*
X011815Y002793D01*
X011709Y002837D01*
X011594Y002837D01*
X011488Y002793D01*
X011406Y002712D01*
X011362Y002606D01*
X011362Y002491D01*
X011406Y002385D01*
X011488Y002303D01*
X011549Y002278D01*
X008246Y002278D01*
X007690Y002835D01*
X007690Y002856D01*
X007646Y002962D01*
X007565Y003043D01*
X007459Y003087D01*
X007348Y003087D01*
X007348Y003238D01*
X007713Y003238D01*
X007827Y003285D01*
X007914Y003373D01*
X007961Y003486D01*
X007961Y003610D01*
X007914Y003724D01*
X007827Y003811D01*
X007713Y003858D01*
X007348Y003858D01*
X007348Y005118D01*
X007261Y005206D01*
X006932Y005206D01*
X006577Y005561D01*
X006463Y005608D01*
X006339Y005608D01*
X006226Y005561D01*
X006138Y005474D01*
X006091Y005360D01*
X006091Y005236D01*
X006113Y005183D01*
X006048Y005118D01*
X006048Y002994D01*
X006136Y002906D01*
X006381Y002906D01*
X006381Y002901D01*
X006362Y002856D01*
X006362Y002741D01*
X006406Y002635D01*
X006488Y002553D01*
X006594Y002509D01*
X006709Y002509D01*
X006815Y002553D01*
X006896Y002635D01*
X006940Y002741D01*
X006940Y002856D01*
X006921Y002901D01*
X006921Y002906D01*
X007133Y002906D01*
X007112Y002856D01*
X007112Y002741D01*
X007156Y002635D01*
X007238Y002553D01*
X007344Y002509D01*
X007365Y002509D01*
X008056Y001818D01*
X008246Y001818D01*
X014473Y001818D01*
X014488Y001803D01*
X014594Y001759D01*
X014709Y001759D01*
X014815Y001803D01*
X014896Y001885D01*
X014940Y001991D01*
X014940Y002106D01*
X014896Y002212D01*
X014815Y002293D01*
X014754Y002318D01*
X015056Y002318D01*
X015556Y001818D01*
X015686Y001818D01*
X015631Y001764D01*
X015631Y001598D01*
X016101Y001598D01*
X016101Y001498D01*
X015631Y001498D01*
X015631Y001333D01*
X015766Y001198D01*
X000301Y001198D01*
X000301Y002526D01*
X000316Y002496D01*
X000365Y002429D01*
X000422Y002372D01*
X000489Y002323D01*
X000562Y002286D01*
X000639Y002261D01*
X000711Y002250D01*
X000711Y002718D01*
X000811Y002718D01*
X000811Y002250D01*
X000883Y002261D01*
X000961Y002286D01*
X001034Y002323D01*
X001100Y002372D01*
X001158Y002429D01*
X001206Y002496D01*
X001243Y002569D01*
X001268Y002646D01*
X001280Y002718D01*
X000811Y002718D01*
X000811Y002818D01*
X000711Y002818D01*
X000711Y003287D01*
X000639Y003275D01*
X000562Y003250D01*
X000489Y003213D01*
X000422Y003165D01*
X000365Y003107D01*
X000316Y003041D01*
X000301Y003011D01*
X000301Y005086D01*
X000316Y005056D01*
X000365Y004989D01*
X000422Y004932D01*
X000489Y004883D01*
X000562Y004846D01*
X000639Y004821D01*
X000711Y004810D01*
X000711Y005278D01*
X000811Y005278D01*
X000811Y004810D01*
X000883Y004821D01*
X000961Y004846D01*
X001034Y004883D01*
X001100Y004932D01*
X001158Y004989D01*
X001206Y005056D01*
X001243Y005129D01*
X001268Y005206D01*
X001280Y005278D01*
X000811Y005278D01*
X000811Y005378D01*
X000711Y005378D01*
X000711Y005847D01*
X000639Y005835D01*
X000562Y005810D01*
X000489Y005773D01*
X000422Y005725D01*
X000365Y005667D01*
X000316Y005601D01*
X000301Y005571D01*
X000301Y007044D01*
X039371Y007044D01*
X039371Y006961D02*
X000301Y006961D01*
X000301Y006862D02*
X039371Y006862D01*
X039371Y006764D02*
X000301Y006764D01*
X000301Y006665D02*
X039371Y006665D01*
X039371Y006567D02*
X000301Y006567D01*
X000301Y006468D02*
X039371Y006468D01*
X039371Y006370D02*
X000301Y006370D01*
X000301Y006271D02*
X039371Y006271D01*
X039371Y006172D02*
X000301Y006172D01*
X000301Y006074D02*
X015562Y006074D01*
X015594Y006087D02*
X015488Y006043D01*
X015406Y005962D01*
X015362Y005856D01*
X015362Y005741D01*
X015406Y005635D01*
X015488Y005553D01*
X015594Y005509D01*
X015709Y005509D01*
X015815Y005553D01*
X015830Y005568D01*
X016056Y005568D01*
X016421Y005203D01*
X016421Y003727D01*
X016406Y003712D01*
X016362Y003606D01*
X016362Y003491D01*
X016406Y003385D01*
X016488Y003303D01*
X016594Y003259D01*
X016709Y003259D01*
X016815Y003303D01*
X016896Y003385D01*
X016940Y003491D01*
X016940Y003606D01*
X016896Y003712D01*
X016881Y003727D01*
X016881Y005203D01*
X016881Y005393D01*
X016381Y005893D01*
X016246Y006028D01*
X015830Y006028D01*
X015815Y006043D01*
X015709Y006087D01*
X015594Y006087D01*
X015740Y006074D02*
X039371Y006074D01*
X039371Y005975D02*
X016299Y005975D01*
X016398Y005877D02*
X039371Y005877D01*
X039371Y005778D02*
X016496Y005778D01*
X016595Y005680D02*
X039371Y005680D01*
X039371Y005581D02*
X016693Y005581D01*
X016792Y005483D02*
X039371Y005483D01*
X039371Y005384D02*
X016881Y005384D01*
X016881Y005286D02*
X039371Y005286D01*
X039371Y005187D02*
X016881Y005187D01*
X016881Y005088D02*
X039371Y005088D01*
X039371Y004990D02*
X017618Y004990D01*
X017646Y004962D02*
X017565Y005043D01*
X017459Y005087D01*
X017344Y005087D01*
X017238Y005043D01*
X017156Y004962D01*
X017112Y004856D01*
X017112Y004741D01*
X017156Y004635D01*
X017171Y004620D01*
X017171Y003727D01*
X017156Y003712D01*
X017112Y003606D01*
X017112Y003491D01*
X017156Y003385D01*
X017238Y003303D01*
X017344Y003259D01*
X017459Y003259D01*
X017565Y003303D01*
X017646Y003385D01*
X017690Y003491D01*
X017690Y003606D01*
X017646Y003712D01*
X017631Y003727D01*
X017631Y004620D01*
X017646Y004635D01*
X017690Y004741D01*
X017690Y004856D01*
X017646Y004962D01*
X017675Y004891D02*
X039371Y004891D01*
X039371Y004793D02*
X017690Y004793D01*
X017671Y004694D02*
X039371Y004694D01*
X039371Y004596D02*
X017631Y004596D01*
X017631Y004497D02*
X039371Y004497D01*
X039371Y004399D02*
X017631Y004399D01*
X017631Y004300D02*
X039371Y004300D01*
X039371Y004202D02*
X017631Y004202D01*
X017631Y004103D02*
X039371Y004103D01*
X039371Y004004D02*
X017631Y004004D01*
X017631Y003906D02*
X039371Y003906D01*
X039371Y003807D02*
X017631Y003807D01*
X017647Y003709D02*
X039371Y003709D01*
X039371Y003610D02*
X017688Y003610D01*
X017690Y003512D02*
X039371Y003512D01*
X039371Y003413D02*
X017658Y003413D01*
X017576Y003315D02*
X039371Y003315D01*
X039371Y003216D02*
X016309Y003216D01*
X016309Y003118D02*
X039371Y003118D01*
X039371Y003019D02*
X018632Y003019D01*
X018671Y002921D02*
X039371Y002921D01*
X039371Y002822D02*
X018671Y002822D01*
X018671Y002723D02*
X039371Y002723D01*
X039371Y002625D02*
X018671Y002625D01*
X018671Y002526D02*
X039371Y002526D01*
X039371Y002428D02*
X018671Y002428D01*
X018671Y002329D02*
X018825Y002329D01*
X018977Y002329D02*
X039371Y002329D01*
X039371Y002231D02*
X019127Y002231D01*
X019179Y002132D02*
X039371Y002132D01*
X039371Y002034D02*
X019190Y002034D01*
X019167Y001935D02*
X039371Y001935D01*
X039371Y001837D02*
X019098Y001837D01*
X018704Y001837D02*
X018598Y001837D01*
X018671Y001738D02*
X039371Y001738D01*
X039371Y001639D02*
X018671Y001639D01*
X018671Y001541D02*
X039371Y001541D01*
X039371Y001442D02*
X018671Y001442D01*
X018671Y001344D02*
X039371Y001344D01*
X039371Y001245D02*
X018584Y001245D01*
X017631Y002822D02*
X017613Y002822D01*
X017631Y002921D02*
X017514Y002921D01*
X017416Y003019D02*
X017670Y003019D01*
X017226Y003315D02*
X016826Y003315D01*
X016908Y003413D02*
X017144Y003413D01*
X017112Y003512D02*
X016940Y003512D01*
X016938Y003610D02*
X017114Y003610D01*
X017155Y003709D02*
X016897Y003709D01*
X016881Y003807D02*
X017171Y003807D01*
X017171Y003906D02*
X016881Y003906D01*
X016881Y004004D02*
X017171Y004004D01*
X017171Y004103D02*
X016881Y004103D01*
X016881Y004202D02*
X017171Y004202D01*
X017171Y004300D02*
X016881Y004300D01*
X016881Y004399D02*
X017171Y004399D01*
X017171Y004497D02*
X016881Y004497D01*
X016881Y004596D02*
X017171Y004596D01*
X017132Y004694D02*
X016881Y004694D01*
X016881Y004793D02*
X017112Y004793D01*
X017127Y004891D02*
X016881Y004891D01*
X016881Y004990D02*
X017185Y004990D01*
X016421Y004990D02*
X016309Y004990D01*
X016309Y005088D02*
X016421Y005088D01*
X016421Y005187D02*
X016260Y005187D01*
X016339Y005286D02*
X006852Y005286D01*
X006754Y005384D02*
X016240Y005384D01*
X016141Y005483D02*
X006655Y005483D01*
X006528Y005581D02*
X015460Y005581D01*
X015388Y005680D02*
X003787Y005680D01*
X003780Y005682D02*
X003522Y005682D01*
X003283Y005583D01*
X003100Y005401D01*
X003061Y005306D01*
X003061Y005432D01*
X002982Y005623D01*
X002836Y005769D01*
X002645Y005848D01*
X002438Y005848D01*
X002247Y005769D01*
X002100Y005623D01*
X002021Y005432D01*
X002021Y005225D01*
X002100Y005034D01*
X002247Y004887D01*
X002438Y004808D01*
X002645Y004808D01*
X002836Y004887D01*
X002982Y005034D01*
X003001Y005080D01*
X003001Y004903D01*
X003100Y004664D01*
X003283Y004481D01*
X003522Y004382D01*
X003780Y004382D01*
X004019Y004481D01*
X004202Y004664D01*
X004301Y004903D01*
X004301Y005162D01*
X004202Y005401D01*
X004019Y005583D01*
X003780Y005682D01*
X004022Y005581D02*
X006274Y005581D01*
X006147Y005483D02*
X004120Y005483D01*
X004209Y005384D02*
X006101Y005384D01*
X006091Y005286D02*
X004250Y005286D01*
X004291Y005187D02*
X006112Y005187D01*
X006048Y005088D02*
X004301Y005088D01*
X004301Y004990D02*
X006048Y004990D01*
X006048Y004891D02*
X004296Y004891D01*
X004255Y004793D02*
X004487Y004793D01*
X004488Y004793D02*
X004406Y004712D01*
X004388Y004666D01*
X004039Y004318D01*
X002754Y004318D01*
X002709Y004337D01*
X002594Y004337D01*
X002488Y004293D01*
X002406Y004212D01*
X002362Y004106D01*
X002362Y003991D01*
X002406Y003885D01*
X002488Y003803D01*
X002594Y003759D01*
X002709Y003759D01*
X002754Y003778D01*
X004097Y003778D01*
X004205Y003778D01*
X004304Y003819D01*
X004769Y004285D01*
X004815Y004303D01*
X004896Y004385D01*
X004940Y004491D01*
X004940Y004606D01*
X004896Y004712D01*
X004815Y004793D01*
X006048Y004793D01*
X006048Y004694D02*
X004903Y004694D01*
X004940Y004596D02*
X006048Y004596D01*
X006048Y004497D02*
X004940Y004497D01*
X004902Y004399D02*
X006048Y004399D01*
X006048Y004300D02*
X004807Y004300D01*
X004686Y004202D02*
X006048Y004202D01*
X006048Y004103D02*
X004588Y004103D01*
X004489Y004004D02*
X006048Y004004D01*
X006048Y003906D02*
X004391Y003906D01*
X004275Y003807D02*
X006048Y003807D01*
X006048Y003709D02*
X003793Y003709D01*
X003780Y003714D02*
X003522Y003714D01*
X003283Y003615D01*
X003100Y003432D01*
X003001Y003193D01*
X003001Y003016D01*
X002982Y003063D01*
X002836Y003209D01*
X002645Y003288D01*
X002438Y003288D01*
X002247Y003209D01*
X002100Y003063D01*
X002021Y002872D01*
X002021Y002665D01*
X002100Y002474D01*
X002247Y002327D01*
X002438Y002248D01*
X002645Y002248D01*
X002836Y002327D01*
X002982Y002474D01*
X003061Y002665D01*
X003061Y002790D01*
X003100Y002696D01*
X003283Y002513D01*
X003522Y002414D01*
X003780Y002414D01*
X004019Y002513D01*
X004202Y002696D01*
X004301Y002935D01*
X004301Y003193D01*
X004202Y003432D01*
X004019Y003615D01*
X003780Y003714D01*
X004024Y003610D02*
X006048Y003610D01*
X006048Y003512D02*
X004123Y003512D01*
X004210Y003413D02*
X006048Y003413D01*
X006048Y003315D02*
X004251Y003315D01*
X004292Y003216D02*
X006048Y003216D01*
X006048Y003118D02*
X004301Y003118D01*
X004301Y003019D02*
X006048Y003019D01*
X006122Y002921D02*
X004295Y002921D01*
X004254Y002822D02*
X006362Y002822D01*
X006370Y002723D02*
X004214Y002723D01*
X004131Y002625D02*
X006416Y002625D01*
X006553Y002526D02*
X004033Y002526D01*
X003814Y002428D02*
X007446Y002428D01*
X007545Y002329D02*
X002838Y002329D01*
X002936Y002428D02*
X003488Y002428D01*
X003269Y002526D02*
X003004Y002526D01*
X003045Y002625D02*
X003171Y002625D01*
X003089Y002723D02*
X003061Y002723D01*
X003000Y003019D02*
X003001Y003019D01*
X003001Y003118D02*
X002927Y003118D01*
X003011Y003216D02*
X002818Y003216D01*
X003051Y003315D02*
X000301Y003315D01*
X000301Y003413D02*
X003092Y003413D01*
X003180Y003512D02*
X000301Y003512D01*
X000301Y003610D02*
X003278Y003610D01*
X003510Y003709D02*
X000301Y003709D01*
X000301Y003807D02*
X002484Y003807D01*
X002398Y003906D02*
X000301Y003906D01*
X000301Y004004D02*
X002362Y004004D01*
X002362Y004103D02*
X000301Y004103D01*
X000301Y004202D02*
X002402Y004202D01*
X002505Y004300D02*
X000301Y004300D01*
X000301Y004399D02*
X003483Y004399D01*
X003267Y004497D02*
X000301Y004497D01*
X000301Y004596D02*
X003169Y004596D01*
X003088Y004694D02*
X000301Y004694D01*
X000301Y004793D02*
X003047Y004793D01*
X003006Y004891D02*
X002840Y004891D01*
X002938Y004990D02*
X003001Y004990D01*
X003061Y005384D02*
X003093Y005384D01*
X003040Y005483D02*
X003182Y005483D01*
X003281Y005581D02*
X002999Y005581D01*
X002925Y005680D02*
X003515Y005680D01*
X002813Y005778D02*
X015362Y005778D01*
X015371Y005877D02*
X000301Y005877D01*
X000301Y005975D02*
X015420Y005975D01*
X015058Y005187D02*
X011789Y005187D01*
X011788Y005188D02*
X011750Y005198D01*
X011280Y005198D01*
X011280Y004098D01*
X011880Y004098D01*
X011880Y005068D01*
X011870Y005106D01*
X011850Y005140D01*
X011822Y005168D01*
X011788Y005188D01*
X011874Y005088D02*
X015009Y005088D01*
X015009Y004990D02*
X011880Y004990D01*
X011880Y004891D02*
X015009Y004891D01*
X015009Y004793D02*
X011880Y004793D01*
X011880Y004694D02*
X015009Y004694D01*
X015009Y004596D02*
X011880Y004596D01*
X011880Y004497D02*
X015009Y004497D01*
X015009Y004399D02*
X011880Y004399D01*
X011880Y004300D02*
X015009Y004300D01*
X015009Y004202D02*
X011880Y004202D01*
X011880Y004103D02*
X015009Y004103D01*
X015009Y004004D02*
X011280Y004004D01*
X011280Y003998D02*
X011280Y004098D01*
X011180Y004098D01*
X011180Y003998D01*
X011280Y003998D01*
X011280Y002898D01*
X011750Y002898D01*
X011788Y002908D01*
X011822Y002928D01*
X011850Y002956D01*
X011870Y002990D01*
X011880Y003028D01*
X011880Y003998D01*
X011280Y003998D01*
X011280Y003906D02*
X011180Y003906D01*
X011180Y003998D02*
X011180Y002898D01*
X010710Y002898D01*
X010672Y002908D01*
X010638Y002928D01*
X010610Y002956D01*
X010590Y002990D01*
X010580Y003028D01*
X010580Y003998D01*
X011180Y003998D01*
X011180Y004004D02*
X007348Y004004D01*
X007348Y003906D02*
X010580Y003906D01*
X010580Y003807D02*
X007830Y003807D01*
X007920Y003709D02*
X010580Y003709D01*
X010580Y003610D02*
X007961Y003610D01*
X007961Y003512D02*
X010580Y003512D01*
X010580Y003413D02*
X007931Y003413D01*
X007856Y003315D02*
X010580Y003315D01*
X010580Y003216D02*
X007348Y003216D01*
X007348Y003118D02*
X010580Y003118D01*
X010582Y003019D02*
X007589Y003019D01*
X007663Y002921D02*
X010651Y002921D01*
X011180Y002921D02*
X011280Y002921D01*
X011280Y003019D02*
X011180Y003019D01*
X011180Y003118D02*
X011280Y003118D01*
X011280Y003216D02*
X011180Y003216D01*
X011180Y003315D02*
X011280Y003315D01*
X011280Y003413D02*
X011180Y003413D01*
X011180Y003512D02*
X011280Y003512D01*
X011280Y003610D02*
X011180Y003610D01*
X011180Y003709D02*
X011280Y003709D01*
X011280Y003807D02*
X011180Y003807D01*
X011180Y004098D02*
X010580Y004098D01*
X010580Y005068D01*
X010590Y005106D01*
X010610Y005140D01*
X010638Y005168D01*
X010672Y005188D01*
X010710Y005198D01*
X011180Y005198D01*
X011180Y004098D01*
X011180Y004103D02*
X011280Y004103D01*
X011280Y004202D02*
X011180Y004202D01*
X011180Y004300D02*
X011280Y004300D01*
X011280Y004399D02*
X011180Y004399D01*
X011180Y004497D02*
X011280Y004497D01*
X011280Y004596D02*
X011180Y004596D01*
X011180Y004694D02*
X011280Y004694D01*
X011280Y004793D02*
X011180Y004793D01*
X011180Y004891D02*
X011280Y004891D01*
X011280Y004990D02*
X011180Y004990D01*
X011180Y005088D02*
X011280Y005088D01*
X011280Y005187D02*
X011180Y005187D01*
X010670Y005187D02*
X007280Y005187D01*
X007348Y005088D02*
X010585Y005088D01*
X010580Y004990D02*
X007348Y004990D01*
X007348Y004891D02*
X010580Y004891D01*
X010580Y004793D02*
X007348Y004793D01*
X007348Y004694D02*
X010580Y004694D01*
X010580Y004596D02*
X007348Y004596D01*
X007348Y004497D02*
X010580Y004497D01*
X010580Y004399D02*
X007348Y004399D01*
X007348Y004300D02*
X010580Y004300D01*
X010580Y004202D02*
X007348Y004202D01*
X007348Y004103D02*
X010580Y004103D01*
X011880Y003906D02*
X015009Y003906D01*
X015009Y003807D02*
X011880Y003807D01*
X011880Y003709D02*
X015009Y003709D01*
X015009Y003610D02*
X011880Y003610D01*
X011880Y003512D02*
X015009Y003512D01*
X015009Y003413D02*
X011880Y003413D01*
X011880Y003315D02*
X015009Y003315D01*
X015009Y003216D02*
X011880Y003216D01*
X011880Y003118D02*
X015009Y003118D01*
X015009Y003019D02*
X011877Y003019D01*
X011809Y002921D02*
X015788Y002921D01*
X015690Y002822D02*
X011745Y002822D01*
X011558Y002822D02*
X007703Y002822D01*
X007801Y002723D02*
X011418Y002723D01*
X011370Y002625D02*
X007900Y002625D01*
X007998Y002526D02*
X011362Y002526D01*
X011388Y002428D02*
X008097Y002428D01*
X008195Y002329D02*
X011462Y002329D01*
X008038Y001837D02*
X000301Y001837D01*
X000301Y001935D02*
X007939Y001935D01*
X007840Y002034D02*
X000301Y002034D01*
X000301Y002132D02*
X007742Y002132D01*
X007643Y002231D02*
X000301Y002231D01*
X000301Y002329D02*
X000481Y002329D01*
X000366Y002428D02*
X000301Y002428D01*
X000711Y002428D02*
X000811Y002428D01*
X000811Y002526D02*
X000711Y002526D01*
X000711Y002625D02*
X000811Y002625D01*
X000811Y002723D02*
X002021Y002723D01*
X002021Y002822D02*
X001279Y002822D01*
X001280Y002818D02*
X001268Y002890D01*
X001243Y002968D01*
X001206Y003041D01*
X001158Y003107D01*
X001100Y003165D01*
X001034Y003213D01*
X000961Y003250D01*
X000883Y003275D01*
X000811Y003287D01*
X000811Y002818D01*
X001280Y002818D01*
X001258Y002921D02*
X002041Y002921D01*
X002082Y003019D02*
X001217Y003019D01*
X001147Y003118D02*
X002155Y003118D01*
X002264Y003216D02*
X001027Y003216D01*
X000811Y003216D02*
X000711Y003216D01*
X000711Y003118D02*
X000811Y003118D01*
X000811Y003019D02*
X000711Y003019D01*
X000711Y002921D02*
X000811Y002921D01*
X000811Y002822D02*
X000711Y002822D01*
X000375Y003118D02*
X000301Y003118D01*
X000301Y003216D02*
X000495Y003216D01*
X000305Y003019D02*
X000301Y003019D01*
X001156Y002428D02*
X002146Y002428D01*
X002079Y002526D02*
X001222Y002526D01*
X001261Y002625D02*
X002038Y002625D01*
X002245Y002329D02*
X001042Y002329D01*
X000811Y002329D02*
X000711Y002329D01*
X000301Y001738D02*
X015631Y001738D01*
X015631Y001639D02*
X000301Y001639D01*
X000301Y001541D02*
X016101Y001541D01*
X015631Y001442D02*
X000301Y001442D01*
X000301Y001344D02*
X015631Y001344D01*
X015719Y001245D02*
X000301Y001245D01*
X003820Y004399D02*
X004120Y004399D01*
X004035Y004497D02*
X004218Y004497D01*
X004134Y004596D02*
X004317Y004596D01*
X004399Y004694D02*
X004215Y004694D01*
X004488Y004793D02*
X004594Y004837D01*
X004709Y004837D01*
X004815Y004793D01*
X006940Y002822D02*
X007112Y002822D01*
X007120Y002723D02*
X006933Y002723D01*
X006886Y002625D02*
X007166Y002625D01*
X007303Y002526D02*
X006749Y002526D01*
X002243Y004891D02*
X001045Y004891D01*
X001158Y004990D02*
X002144Y004990D01*
X002078Y005088D02*
X001223Y005088D01*
X001262Y005187D02*
X002037Y005187D01*
X002021Y005286D02*
X000811Y005286D01*
X000811Y005378D02*
X001280Y005378D01*
X001268Y005450D01*
X001243Y005528D01*
X001206Y005601D01*
X001158Y005667D01*
X001100Y005725D01*
X001034Y005773D01*
X000961Y005810D01*
X000883Y005835D01*
X000811Y005847D01*
X000811Y005378D01*
X000811Y005384D02*
X000711Y005384D01*
X000711Y005483D02*
X000811Y005483D01*
X000811Y005581D02*
X000711Y005581D01*
X000711Y005680D02*
X000811Y005680D01*
X000811Y005778D02*
X000711Y005778D01*
X000499Y005778D02*
X000301Y005778D01*
X000301Y005680D02*
X000377Y005680D01*
X000307Y005581D02*
X000301Y005581D01*
X000711Y005187D02*
X000811Y005187D01*
X000811Y005088D02*
X000711Y005088D01*
X000711Y004990D02*
X000811Y004990D01*
X000811Y004891D02*
X000711Y004891D01*
X000478Y004891D02*
X000301Y004891D01*
X000301Y004990D02*
X000364Y004990D01*
X001279Y005384D02*
X002021Y005384D01*
X002042Y005483D02*
X001258Y005483D01*
X001216Y005581D02*
X002083Y005581D01*
X002157Y005680D02*
X001145Y005680D01*
X001023Y005778D02*
X002269Y005778D01*
X000301Y007355D02*
X015859Y007355D01*
X015760Y007454D02*
X000301Y007454D01*
X000301Y007552D02*
X015662Y007552D01*
X015631Y007651D02*
X000301Y007651D01*
X000301Y007749D02*
X016101Y007749D01*
X016101Y007848D02*
X000301Y007848D01*
X000301Y007946D02*
X015631Y007946D01*
X015662Y008045D02*
X014794Y008045D01*
X014900Y008143D02*
X015481Y008143D01*
X015382Y008242D02*
X014940Y008242D01*
X014940Y008340D02*
X015284Y008340D01*
X015185Y008439D02*
X014905Y008439D01*
X014820Y008537D02*
X015087Y008537D01*
X015441Y008833D02*
X015631Y008833D01*
X015631Y008735D02*
X015540Y008735D01*
X015631Y008932D02*
X015343Y008932D01*
X015648Y009030D02*
X011827Y009030D01*
X011788Y009158D02*
X011822Y009178D01*
X011850Y009206D01*
X011870Y009240D01*
X011880Y009278D01*
X011880Y010248D01*
X011280Y010248D01*
X011280Y009148D01*
X011750Y009148D01*
X011788Y009158D01*
X011862Y009227D02*
X015045Y009227D01*
X015009Y009326D02*
X011880Y009326D01*
X011880Y009424D02*
X015009Y009424D01*
X015009Y009523D02*
X011880Y009523D01*
X011880Y009621D02*
X015009Y009621D01*
X015009Y009720D02*
X011880Y009720D01*
X011880Y009819D02*
X015009Y009819D01*
X015009Y009917D02*
X011880Y009917D01*
X011880Y010016D02*
X015009Y010016D01*
X015009Y010114D02*
X011880Y010114D01*
X011880Y010213D02*
X015009Y010213D01*
X015009Y010311D02*
X011280Y010311D01*
X011280Y010348D02*
X011280Y010248D01*
X011180Y010248D01*
X011180Y009148D01*
X010710Y009148D01*
X010672Y009158D01*
X010638Y009178D01*
X010610Y009206D01*
X010590Y009240D01*
X010580Y009278D01*
X010580Y010248D01*
X011180Y010248D01*
X011180Y010348D01*
X010580Y010348D01*
X010580Y011318D01*
X010590Y011356D01*
X010610Y011390D01*
X010638Y011418D01*
X010672Y011438D01*
X010710Y011448D01*
X011180Y011448D01*
X011180Y010348D01*
X011280Y010348D01*
X011880Y010348D01*
X011880Y011318D01*
X011870Y011356D01*
X011850Y011390D01*
X011822Y011418D01*
X011788Y011438D01*
X011750Y011448D01*
X011280Y011448D01*
X011280Y010348D01*
X011280Y010410D02*
X011180Y010410D01*
X011180Y010508D02*
X011280Y010508D01*
X011280Y010607D02*
X011180Y010607D01*
X011180Y010705D02*
X011280Y010705D01*
X011280Y010804D02*
X011180Y010804D01*
X011180Y010903D02*
X011280Y010903D01*
X011280Y011001D02*
X011180Y011001D01*
X011180Y011100D02*
X011280Y011100D01*
X011280Y011198D02*
X011180Y011198D01*
X011180Y011297D02*
X011280Y011297D01*
X011280Y011395D02*
X011180Y011395D01*
X011845Y011395D02*
X015016Y011395D01*
X015009Y011297D02*
X011880Y011297D01*
X011880Y011198D02*
X015009Y011198D01*
X015009Y011100D02*
X011880Y011100D01*
X011880Y011001D02*
X015009Y011001D01*
X015009Y010903D02*
X011880Y010903D01*
X011880Y010804D02*
X015009Y010804D01*
X015009Y010705D02*
X011880Y010705D01*
X011880Y010607D02*
X015009Y010607D01*
X015009Y010508D02*
X011880Y010508D01*
X011880Y010410D02*
X015009Y010410D01*
X016309Y010410D02*
X016421Y010410D01*
X016421Y010508D02*
X016309Y010508D01*
X016309Y010607D02*
X016421Y010607D01*
X016421Y010705D02*
X016309Y010705D01*
X016309Y010804D02*
X016421Y010804D01*
X016421Y010903D02*
X016309Y010903D01*
X016309Y011001D02*
X016421Y011001D01*
X016421Y011100D02*
X016309Y011100D01*
X016309Y011198D02*
X016421Y011198D01*
X016421Y011297D02*
X016309Y011297D01*
X016302Y011395D02*
X016421Y011395D01*
X016380Y011494D02*
X006894Y011494D01*
X006795Y011592D02*
X016282Y011592D01*
X016309Y010311D02*
X016421Y010311D01*
X016421Y010213D02*
X016309Y010213D01*
X016309Y010114D02*
X016421Y010114D01*
X016421Y010016D02*
X016309Y010016D01*
X016309Y009917D02*
X016388Y009917D01*
X016362Y009819D02*
X016309Y009819D01*
X016309Y009720D02*
X016371Y009720D01*
X016420Y009621D02*
X016309Y009621D01*
X016309Y009523D02*
X016561Y009523D01*
X016457Y009227D02*
X016845Y009227D01*
X016746Y009129D02*
X016556Y009129D01*
X015746Y009129D02*
X007680Y009129D01*
X007630Y009227D02*
X010598Y009227D01*
X010580Y009326D02*
X007485Y009326D01*
X007348Y009424D02*
X010580Y009424D01*
X010580Y009523D02*
X007797Y009523D01*
X007913Y009621D02*
X010580Y009621D01*
X010580Y009720D02*
X007954Y009720D01*
X007961Y009819D02*
X010580Y009819D01*
X010580Y009917D02*
X007937Y009917D01*
X007872Y010016D02*
X010580Y010016D01*
X010580Y010114D02*
X007348Y010114D01*
X007348Y010213D02*
X010580Y010213D01*
X010580Y010410D02*
X007348Y010410D01*
X007348Y010508D02*
X010580Y010508D01*
X010580Y010607D02*
X007348Y010607D01*
X007348Y010705D02*
X010580Y010705D01*
X010580Y010804D02*
X007348Y010804D01*
X007348Y010903D02*
X010580Y010903D01*
X010580Y011001D02*
X007348Y011001D01*
X007348Y011100D02*
X010580Y011100D01*
X010580Y011198D02*
X007348Y011198D01*
X007348Y011297D02*
X010580Y011297D01*
X010615Y011395D02*
X007321Y011395D01*
X006048Y011001D02*
X004857Y011001D01*
X004920Y010903D02*
X006048Y010903D01*
X006048Y010804D02*
X004940Y010804D01*
X004925Y010705D02*
X006048Y010705D01*
X006048Y010607D02*
X004868Y010607D01*
X004743Y010508D02*
X006048Y010508D01*
X006048Y010410D02*
X004645Y010410D01*
X004546Y010311D02*
X006048Y010311D01*
X006048Y010213D02*
X004447Y010213D01*
X004349Y010114D02*
X006048Y010114D01*
X006048Y010016D02*
X002724Y010016D01*
X002579Y010016D02*
X000301Y010016D01*
X000301Y010114D02*
X002427Y010114D01*
X002374Y010213D02*
X000301Y010213D01*
X000301Y010311D02*
X002362Y010311D01*
X002385Y010410D02*
X000301Y010410D01*
X000301Y010508D02*
X002453Y010508D01*
X002338Y011100D02*
X000967Y011100D01*
X000811Y011100D02*
X000711Y011100D01*
X000711Y011198D02*
X000811Y011198D01*
X000811Y011297D02*
X000711Y011297D01*
X000711Y011395D02*
X000811Y011395D01*
X000811Y011494D02*
X000711Y011494D01*
X000811Y011592D02*
X002021Y011592D01*
X002021Y011494D02*
X001274Y011494D01*
X001248Y011395D02*
X002054Y011395D01*
X002095Y011297D02*
X001199Y011297D01*
X001117Y011198D02*
X002186Y011198D01*
X002025Y011691D02*
X001270Y011691D01*
X001237Y011789D02*
X002066Y011789D01*
X002116Y011888D02*
X001179Y011888D01*
X001084Y011986D02*
X002214Y011986D01*
X000811Y011986D02*
X000711Y011986D01*
X000711Y011888D02*
X000811Y011888D01*
X000811Y011789D02*
X000711Y011789D01*
X000711Y011691D02*
X000811Y011691D01*
X000439Y011986D02*
X000301Y011986D01*
X000301Y011888D02*
X000344Y011888D01*
X000323Y011297D02*
X000301Y011297D01*
X000301Y011198D02*
X000406Y011198D01*
X000301Y011100D02*
X000555Y011100D01*
X000301Y010607D02*
X004078Y010607D01*
X003780Y009964D02*
X003522Y009964D01*
X003283Y009865D01*
X003100Y009682D01*
X003001Y009443D01*
X003001Y009266D01*
X002982Y009313D01*
X002836Y009459D01*
X002645Y009538D01*
X002438Y009538D01*
X002247Y009459D01*
X002100Y009313D01*
X002021Y009122D01*
X002021Y008915D01*
X002100Y008724D01*
X002247Y008577D01*
X002438Y008498D01*
X002645Y008498D01*
X002836Y008577D01*
X002982Y008724D01*
X003061Y008915D01*
X003061Y009040D01*
X003100Y008946D01*
X003283Y008763D01*
X003522Y008664D01*
X003780Y008664D01*
X004019Y008763D01*
X004202Y008946D01*
X004301Y009185D01*
X004301Y009443D01*
X004202Y009682D01*
X004019Y009865D01*
X003780Y009964D01*
X003894Y009917D02*
X006048Y009917D01*
X006048Y009819D02*
X004066Y009819D01*
X004164Y009720D02*
X006048Y009720D01*
X006048Y009621D02*
X004227Y009621D01*
X004268Y009523D02*
X006048Y009523D01*
X006048Y009424D02*
X004301Y009424D01*
X004301Y009326D02*
X006048Y009326D01*
X006065Y009227D02*
X004301Y009227D01*
X004278Y009129D02*
X006372Y009129D01*
X006362Y009030D02*
X004237Y009030D01*
X004188Y008932D02*
X006387Y008932D01*
X006458Y008833D02*
X004090Y008833D01*
X003951Y008735D02*
X007390Y008735D01*
X007488Y008636D02*
X002894Y008636D01*
X002986Y008735D02*
X003351Y008735D01*
X003213Y008833D02*
X003027Y008833D01*
X003061Y008932D02*
X003114Y008932D01*
X003065Y009030D02*
X003061Y009030D01*
X003001Y009326D02*
X002969Y009326D01*
X003001Y009424D02*
X002870Y009424D01*
X003034Y009523D02*
X002681Y009523D01*
X002401Y009523D02*
X000890Y009523D01*
X000883Y009525D02*
X000811Y009537D01*
X000811Y009068D01*
X001280Y009068D01*
X001268Y009140D01*
X001243Y009218D01*
X001206Y009291D01*
X001158Y009357D01*
X001100Y009415D01*
X001034Y009463D01*
X000961Y009500D01*
X000883Y009525D01*
X000811Y009523D02*
X000711Y009523D01*
X000632Y009523D02*
X000301Y009523D01*
X000301Y009621D02*
X003075Y009621D01*
X003138Y009720D02*
X000301Y009720D01*
X000301Y009819D02*
X003237Y009819D01*
X003409Y009917D02*
X000301Y009917D01*
X000301Y009424D02*
X000436Y009424D01*
X000342Y009326D02*
X000301Y009326D01*
X000711Y009326D02*
X000811Y009326D01*
X000811Y009424D02*
X000711Y009424D01*
X000711Y009227D02*
X000811Y009227D01*
X000811Y009129D02*
X000711Y009129D01*
X000811Y009030D02*
X002021Y009030D01*
X002021Y008932D02*
X001274Y008932D01*
X001248Y008833D02*
X002055Y008833D01*
X002096Y008735D02*
X001198Y008735D01*
X001114Y008636D02*
X002188Y008636D01*
X002343Y008537D02*
X000963Y008537D01*
X000811Y008537D02*
X000711Y008537D01*
X000711Y008636D02*
X000811Y008636D01*
X000811Y008735D02*
X000711Y008735D01*
X000711Y008833D02*
X000811Y008833D01*
X000811Y008932D02*
X000711Y008932D01*
X000559Y008537D02*
X000301Y008537D01*
X000301Y008439D02*
X007685Y008439D01*
X007587Y008537D02*
X002739Y008537D01*
X002024Y009129D02*
X001270Y009129D01*
X001238Y009227D02*
X002065Y009227D01*
X002113Y009326D02*
X001180Y009326D01*
X001087Y009424D02*
X002212Y009424D01*
X000408Y008636D02*
X000301Y008636D01*
X000301Y008735D02*
X000324Y008735D01*
X000301Y008340D02*
X007784Y008340D01*
X007882Y008242D02*
X000301Y008242D01*
X000301Y008143D02*
X007981Y008143D01*
X008237Y008537D02*
X011526Y008537D01*
X011406Y008636D02*
X008139Y008636D01*
X008040Y008735D02*
X011365Y008735D01*
X011362Y008833D02*
X007941Y008833D01*
X007843Y008932D02*
X011394Y008932D01*
X011475Y009030D02*
X007744Y009030D01*
X007208Y008833D02*
X006844Y008833D01*
X006915Y008932D02*
X007137Y008932D01*
X007112Y009030D02*
X006940Y009030D01*
X006930Y009129D02*
X007122Y009129D01*
X007348Y010311D02*
X011180Y010311D01*
X011180Y010213D02*
X011280Y010213D01*
X011280Y010114D02*
X011180Y010114D01*
X011180Y010016D02*
X011280Y010016D01*
X011280Y009917D02*
X011180Y009917D01*
X011180Y009819D02*
X011280Y009819D01*
X011280Y009720D02*
X011180Y009720D01*
X011180Y009621D02*
X011280Y009621D01*
X011280Y009523D02*
X011180Y009523D01*
X011180Y009424D02*
X011280Y009424D01*
X011280Y009326D02*
X011180Y009326D01*
X011180Y009227D02*
X011280Y009227D01*
X014508Y008045D02*
X000301Y008045D01*
X000301Y014056D02*
X016101Y014056D01*
X016598Y015337D02*
X016705Y015337D01*
X016803Y015436D02*
X016499Y015436D01*
X017401Y015534D02*
X017685Y015534D01*
X017631Y015436D02*
X017499Y015436D01*
X017598Y015337D02*
X017631Y015337D01*
X017591Y015830D02*
X039371Y015830D01*
X039371Y015928D02*
X017664Y015928D01*
X017690Y016027D02*
X039371Y016027D01*
X039371Y016125D02*
X017682Y016125D01*
X017634Y016224D02*
X039371Y016224D01*
X039371Y016322D02*
X017631Y016322D01*
X017631Y016421D02*
X039371Y016421D01*
X039371Y016519D02*
X017631Y016519D01*
X017631Y016618D02*
X039371Y016618D01*
X039371Y016717D02*
X017631Y016717D01*
X017631Y016815D02*
X039371Y016815D01*
X039371Y016914D02*
X017631Y016914D01*
X017631Y017012D02*
X039371Y017012D01*
X039371Y017111D02*
X017631Y017111D01*
X017677Y017209D02*
X039371Y017209D01*
X039371Y017308D02*
X017690Y017308D01*
X017669Y017406D02*
X039371Y017406D01*
X039371Y017505D02*
X017603Y017505D01*
X018617Y015534D02*
X039371Y015534D01*
X039371Y015436D02*
X018671Y015436D01*
X018671Y015337D02*
X039371Y015337D01*
X039371Y015238D02*
X018671Y015238D01*
X018671Y015140D02*
X039371Y015140D01*
X039371Y015041D02*
X018671Y015041D01*
X018671Y014943D02*
X039371Y014943D01*
X039371Y014844D02*
X018671Y014844D01*
X019112Y014746D02*
X039371Y014746D01*
X039371Y014647D02*
X019173Y014647D01*
X019190Y014549D02*
X039371Y014549D01*
X039371Y014450D02*
X019173Y014450D01*
X019113Y014352D02*
X039371Y014352D01*
X039371Y014253D02*
X018671Y014253D01*
X018671Y014154D02*
X039371Y014154D01*
X039371Y014056D02*
X018671Y014056D01*
X018671Y013957D02*
X039371Y013957D01*
X039371Y013859D02*
X018671Y013859D01*
X018599Y013760D02*
X039371Y013760D01*
X039371Y013662D02*
X018500Y013662D01*
X018401Y013563D02*
X039371Y013563D01*
X039371Y018589D02*
X000301Y018589D01*
X000301Y018687D02*
X039371Y018687D01*
X039371Y018786D02*
X000301Y018786D01*
X000301Y018885D02*
X039371Y018885D01*
X039371Y018983D02*
X000301Y018983D01*
X000301Y019082D02*
X039371Y019082D01*
X039371Y019180D02*
X000301Y019180D01*
X000301Y019279D02*
X039371Y019279D01*
X039371Y019377D02*
X000301Y019377D01*
X000301Y019476D02*
X039371Y019476D01*
X039371Y024009D02*
X016881Y024009D01*
X016881Y024107D02*
X039371Y024107D01*
X039371Y024206D02*
X016819Y024206D01*
X016720Y024304D02*
X039371Y024304D01*
X039371Y024403D02*
X016622Y024403D01*
X016523Y024501D02*
X039371Y024501D01*
X039371Y024600D02*
X016425Y024600D01*
X016326Y024699D02*
X039371Y024699D01*
X039371Y024797D02*
X015805Y024797D01*
X015816Y024304D02*
X016070Y024304D01*
X016881Y030217D02*
X039371Y030217D01*
X039371Y030316D02*
X016881Y030316D01*
X016860Y030414D02*
X039371Y030414D01*
X039371Y030513D02*
X016762Y030513D01*
X016663Y030611D02*
X039371Y030611D01*
X039371Y030710D02*
X016565Y030710D01*
X016466Y030808D02*
X039371Y030808D01*
X039371Y030907D02*
X016368Y030907D01*
X016269Y031005D02*
X039371Y031005D01*
X015435Y018490D02*
X000301Y018490D01*
X000301Y018392D02*
X015377Y018392D01*
X015362Y018293D02*
X002777Y018293D01*
X002305Y018293D02*
X000994Y018293D01*
X000961Y018310D02*
X001034Y018273D01*
X001100Y018225D01*
X001158Y018167D01*
X001206Y018101D01*
X001243Y018028D01*
X001268Y017950D01*
X001280Y017878D01*
X000811Y017878D01*
X000811Y018347D01*
X000883Y018335D01*
X000961Y018310D01*
X000811Y018293D02*
X000711Y018293D01*
X000711Y018195D02*
X000811Y018195D01*
X000811Y018096D02*
X000711Y018096D01*
X000711Y017998D02*
X000811Y017998D01*
X000811Y017899D02*
X000711Y017899D01*
X000811Y017801D02*
X002021Y017801D01*
X002021Y017899D02*
X001276Y017899D01*
X001253Y017998D02*
X002049Y017998D01*
X002089Y018096D02*
X001208Y018096D01*
X001130Y018195D02*
X002172Y018195D01*
X002031Y017702D02*
X001267Y017702D01*
X001230Y017603D02*
X002071Y017603D01*
X002129Y017505D02*
X001169Y017505D01*
X001065Y017406D02*
X002228Y017406D01*
X000811Y017406D02*
X000711Y017406D01*
X000711Y017505D02*
X000811Y017505D01*
X000811Y017603D02*
X000711Y017603D01*
X000711Y017702D02*
X000811Y017702D01*
X000529Y018293D02*
X000301Y018293D01*
X000301Y018195D02*
X000392Y018195D01*
X000314Y018096D02*
X000301Y018096D01*
X006786Y015041D02*
X007267Y015041D01*
X007154Y015140D02*
X006898Y015140D01*
X006939Y015238D02*
X007113Y015238D01*
X007112Y015337D02*
X006940Y015337D01*
X007348Y015633D02*
X010580Y015633D01*
X010580Y015731D02*
X007348Y015731D01*
X007574Y015534D02*
X010580Y015534D01*
X010580Y015830D02*
X007871Y015830D01*
X007937Y015928D02*
X010580Y015928D01*
X010580Y016027D02*
X007961Y016027D01*
X007955Y016125D02*
X010580Y016125D01*
X007914Y016224D02*
X007827Y016311D01*
X017457Y009227D02*
X017631Y009227D01*
X017631Y009129D02*
X017556Y009129D01*
X016421Y004891D02*
X016309Y004891D01*
X016309Y004793D02*
X016421Y004793D01*
X016421Y004694D02*
X016309Y004694D01*
X016309Y004596D02*
X016421Y004596D01*
X016421Y004497D02*
X016309Y004497D01*
X016309Y004399D02*
X016421Y004399D01*
X016421Y004300D02*
X016309Y004300D01*
X016309Y004202D02*
X016421Y004202D01*
X016421Y004103D02*
X016309Y004103D01*
X016309Y004004D02*
X016421Y004004D01*
X016421Y003906D02*
X016309Y003906D01*
X016309Y003807D02*
X016421Y003807D01*
X016405Y003709D02*
X016309Y003709D01*
X016309Y003610D02*
X016364Y003610D01*
X016362Y003512D02*
X016309Y003512D01*
X016309Y003413D02*
X016394Y003413D01*
X016476Y003315D02*
X016309Y003315D01*
X016416Y003019D02*
X016887Y003019D01*
X016788Y002921D02*
X016514Y002921D01*
X016613Y002822D02*
X016690Y002822D01*
X015631Y002723D02*
X015301Y002723D01*
X015400Y002625D02*
X015631Y002625D01*
X015631Y002526D02*
X015498Y002526D01*
X015597Y002428D02*
X015631Y002428D01*
X015242Y002132D02*
X014929Y002132D01*
X014940Y002034D02*
X015340Y002034D01*
X015439Y001935D02*
X014917Y001935D01*
X014848Y001837D02*
X015538Y001837D01*
X015143Y002231D02*
X014877Y002231D01*
M02*
