%
M48
M72
T01C0.0157
T02C0.0394
T03C0.0400
%
T01
X5600Y5100
X7600Y5600
X9350Y6350
X10600Y4600
X10350Y3850
X9600Y3850
X13350Y4100
X14600Y3600
X17600Y3200
X19600Y4600
X20350Y4600
X20350Y5850
X18600Y6850
X17100Y7100
X14600Y6600
X13600Y6600
X17600Y11200
X19600Y12600
X20350Y12600
X20350Y13850
X18600Y14850
X17100Y15100
X14600Y14600
X13600Y14600
X10600Y12600
X10350Y11850
X9600Y11850
X7600Y13600
X9350Y14350
X5600Y13100
X13350Y12100
X14600Y11600
X21850Y11100
X22600Y12350
X22600Y14350
X26350Y14350
X26350Y12350
X26350Y6350
X26350Y4350
X22600Y4350
X21850Y3100
X22600Y6350
X21850Y19100
X22600Y20350
X20350Y20600
X19600Y20600
X20350Y21850
X18600Y22850
X17100Y23100
X14600Y22600
X13600Y22600
X10600Y20600
X10350Y19850
X9600Y19850
X7600Y21600
X9350Y22350
X5600Y21100
X13350Y20100
X14600Y19600
X17600Y19200
X22600Y22350
X26350Y22350
X26350Y20350
X21850Y27100
X22600Y28350
X20350Y28600
X19600Y28600
X20350Y29850
X18600Y30850
X17100Y31100
X14600Y30600
X13600Y30600
X10600Y28600
X10350Y27850
X9600Y27850
X7600Y29600
X9350Y30350
X5600Y29100
X13350Y28100
X14600Y27600
X17600Y27200
X22600Y30350
X26350Y30350
X26350Y28350
T02
X6600Y4116
X6600Y6084
X6600Y12116
X6600Y14084
X6600Y20116
X6600Y22084
X6600Y28116
X6600Y30084
T03
X19100Y27600
X20100Y27600
X21100Y27600
X21100Y26600
X20100Y26600
X19100Y26600
X19100Y19600
X20100Y19600
X21100Y19600
X21100Y18600
X20100Y18600
X19100Y18600
X19100Y11600
X20100Y11600
X21100Y11600
X21100Y10600
X20100Y10600
X19100Y10600
X19100Y3600
X20100Y3600
X21100Y3600
X21100Y2600
X20100Y2600
X19100Y2600
M30
