G75*
G70*
%OFA0B0*%
%FSLAX24Y24*%
%IPPOS*%
%LPD*%
%AMOC8*
5,1,8,0,0,1.08239X$1,22.5*
%
%ADD10C,0.0000*%
%ADD11R,0.0740X0.0740*%
%ADD12OC8,0.0740*%
%ADD13C,0.0740*%
%ADD14R,0.1000X0.2000*%
%ADD15C,0.1000*%
%ADD16C,0.0277*%
%ADD17C,0.0240*%
%ADD18C,0.0320*%
%ADD19C,0.0120*%
%ADD20C,0.0160*%
%ADD21C,0.0100*%
D10*
X000151Y001048D02*
X000151Y007044D01*
X039533Y007044D01*
X039533Y001048D01*
X000151Y001048D01*
D11*
X018151Y002548D03*
D12*
X017151Y002548D03*
X016151Y002548D03*
X016151Y001548D03*
X017151Y001548D03*
X018151Y001548D03*
D13*
X002541Y002768D03*
X000761Y002768D03*
X000761Y005328D03*
X002541Y005328D03*
D14*
X006698Y004056D03*
X011230Y004048D03*
X015659Y004076D03*
D15*
X003651Y005032D03*
X003651Y003064D03*
D16*
X006651Y002798D03*
X007401Y002798D03*
X010401Y003048D03*
X011651Y002548D03*
X014651Y002048D03*
X018901Y002048D03*
X020651Y001548D03*
X018651Y003548D03*
X017401Y003548D03*
X016651Y003548D03*
X017401Y005048D03*
X018651Y005548D03*
X016651Y005798D03*
X014151Y006048D03*
X011651Y005548D03*
X010651Y005548D03*
X006401Y005298D03*
X004651Y004548D03*
X002651Y004048D03*
X007651Y003548D03*
X020651Y006298D03*
X024651Y006298D03*
X029901Y006298D03*
X033651Y006298D03*
X038401Y006298D03*
X038401Y001798D03*
X030401Y001548D03*
D17*
X006651Y002798D02*
X006651Y004009D01*
X006698Y004056D01*
X006698Y005001D01*
X004651Y004548D02*
X004151Y004048D01*
X002651Y004048D01*
D18*
X006401Y005298D02*
X006698Y005001D01*
X007206Y003548D02*
X007651Y003548D01*
D19*
X015651Y002048D02*
X018901Y002048D01*
D20*
X015651Y002048D02*
X015151Y002548D01*
X011651Y002548D01*
X014651Y002048D02*
X008151Y002048D01*
X007401Y002798D01*
X007206Y003548D02*
X006698Y004056D01*
X016651Y003548D02*
X016651Y005798D01*
X017401Y005048D02*
X017401Y003548D01*
D21*
X017144Y003413D02*
X016908Y003413D01*
X016896Y003385D02*
X016940Y003491D01*
X016940Y003606D01*
X016896Y003712D01*
X016881Y003727D01*
X016881Y005620D01*
X016896Y005635D01*
X016940Y005741D01*
X016940Y005856D01*
X016896Y005962D01*
X016815Y006043D01*
X016709Y006087D01*
X016594Y006087D01*
X016488Y006043D01*
X016406Y005962D01*
X016362Y005856D01*
X016362Y005741D01*
X016406Y005635D01*
X016421Y005620D01*
X016421Y003727D01*
X016406Y003712D01*
X016362Y003606D01*
X016362Y003491D01*
X016406Y003385D01*
X016488Y003303D01*
X016594Y003259D01*
X016709Y003259D01*
X016815Y003303D01*
X016896Y003385D01*
X016826Y003315D02*
X017226Y003315D01*
X017238Y003303D02*
X017156Y003385D01*
X017112Y003491D01*
X017112Y003606D01*
X017156Y003712D01*
X017171Y003727D01*
X017171Y004870D01*
X017156Y004885D01*
X017112Y004991D01*
X017112Y005106D01*
X017156Y005212D01*
X017238Y005293D01*
X017344Y005337D01*
X017459Y005337D01*
X017565Y005293D01*
X017646Y005212D01*
X017690Y005106D01*
X017690Y004991D01*
X017646Y004885D01*
X017631Y004870D01*
X017631Y003727D01*
X017646Y003712D01*
X017690Y003606D01*
X017690Y003491D01*
X017646Y003385D01*
X017565Y003303D01*
X017459Y003259D01*
X017344Y003259D01*
X017238Y003303D01*
X017576Y003315D02*
X039383Y003315D01*
X039383Y003413D02*
X017658Y003413D01*
X017690Y003512D02*
X039383Y003512D01*
X039383Y003610D02*
X017688Y003610D01*
X017647Y003709D02*
X039383Y003709D01*
X039383Y003807D02*
X017631Y003807D01*
X017171Y003807D02*
X016881Y003807D01*
X016897Y003709D02*
X017155Y003709D01*
X017114Y003610D02*
X016938Y003610D01*
X016940Y003512D02*
X017112Y003512D01*
X016476Y003315D02*
X016309Y003315D01*
X016309Y003413D02*
X016394Y003413D01*
X016362Y003512D02*
X016309Y003512D01*
X016309Y003610D02*
X016364Y003610D01*
X016405Y003709D02*
X016309Y003709D01*
X016309Y003807D02*
X016421Y003807D01*
X016421Y003906D02*
X016309Y003906D01*
X016309Y004004D02*
X016421Y004004D01*
X016421Y004103D02*
X016309Y004103D01*
X016309Y004202D02*
X016421Y004202D01*
X016421Y004300D02*
X016309Y004300D01*
X016881Y004300D02*
X017171Y004300D01*
X017171Y004202D02*
X016881Y004202D01*
X016881Y004103D02*
X017171Y004103D01*
X017171Y004004D02*
X016881Y004004D01*
X016881Y003906D02*
X017171Y003906D01*
X017631Y003906D02*
X039383Y003906D01*
X039383Y004004D02*
X017631Y004004D01*
X017631Y004103D02*
X039383Y004103D01*
X039383Y004202D02*
X017631Y004202D01*
X017631Y004300D02*
X039383Y004300D01*
X039383Y004399D02*
X017631Y004399D01*
X017631Y004497D02*
X039383Y004497D01*
X039383Y004596D02*
X017631Y004596D01*
X017631Y004694D02*
X039383Y004694D01*
X039383Y004793D02*
X017631Y004793D01*
X017171Y004793D02*
X016881Y004793D01*
X016881Y004694D02*
X017171Y004694D01*
X017171Y004596D02*
X016881Y004596D01*
X016881Y004497D02*
X017171Y004497D01*
X017171Y004399D02*
X016881Y004399D01*
X016421Y004399D02*
X016309Y004399D01*
X016309Y004497D02*
X016421Y004497D01*
X016421Y004596D02*
X016309Y004596D01*
X016309Y004694D02*
X016421Y004694D01*
X016421Y004793D02*
X016309Y004793D01*
X016309Y004891D02*
X016421Y004891D01*
X016421Y004990D02*
X016309Y004990D01*
X016309Y005088D02*
X016421Y005088D01*
X016421Y005187D02*
X016260Y005187D01*
X016221Y005226D02*
X016309Y005138D01*
X016309Y003068D01*
X016367Y003068D01*
X016651Y002784D01*
X016936Y003068D01*
X017367Y003068D01*
X017631Y002803D01*
X017631Y002980D01*
X017719Y003068D01*
X018583Y003068D01*
X018671Y002980D01*
X018671Y002258D01*
X018703Y002258D01*
X018738Y002293D01*
X018844Y002337D01*
X018959Y002337D01*
X019065Y002293D01*
X019146Y002212D01*
X019190Y002106D01*
X019190Y001991D01*
X019146Y001885D01*
X019065Y001803D01*
X018959Y001759D01*
X018844Y001759D01*
X018738Y001803D01*
X018703Y001838D01*
X018596Y001838D01*
X018671Y001764D01*
X018671Y001333D01*
X018536Y001198D01*
X039383Y001198D01*
X039383Y006894D01*
X000301Y006894D01*
X000301Y005571D01*
X000316Y005601D01*
X000365Y005667D01*
X000422Y005725D01*
X000489Y005773D01*
X000562Y005810D01*
X000639Y005835D01*
X000711Y005847D01*
X000711Y005378D01*
X000811Y005378D01*
X000811Y005847D01*
X000883Y005835D01*
X000961Y005810D01*
X001034Y005773D01*
X001100Y005725D01*
X001158Y005667D01*
X001206Y005601D01*
X001243Y005528D01*
X001268Y005450D01*
X001280Y005378D01*
X000811Y005378D01*
X000811Y005278D01*
X000811Y004810D01*
X000883Y004821D01*
X000961Y004846D01*
X001034Y004883D01*
X001100Y004932D01*
X001158Y004989D01*
X001206Y005056D01*
X001243Y005129D01*
X001268Y005206D01*
X001280Y005278D01*
X000811Y005278D01*
X000711Y005278D01*
X000711Y004810D01*
X000639Y004821D01*
X000562Y004846D01*
X000489Y004883D01*
X000422Y004932D01*
X000365Y004989D01*
X000316Y005056D01*
X000301Y005086D01*
X000301Y003011D01*
X000316Y003041D01*
X000365Y003107D01*
X000422Y003165D01*
X000489Y003213D01*
X000562Y003250D01*
X000639Y003275D01*
X000711Y003287D01*
X000711Y002818D01*
X000811Y002818D01*
X000811Y003287D01*
X000883Y003275D01*
X000961Y003250D01*
X001034Y003213D01*
X001100Y003165D01*
X001158Y003107D01*
X001206Y003041D01*
X001243Y002968D01*
X001268Y002890D01*
X001280Y002818D01*
X000811Y002818D01*
X000811Y002718D01*
X000811Y002250D01*
X000883Y002261D01*
X000961Y002286D01*
X001034Y002323D01*
X001100Y002372D01*
X001158Y002429D01*
X001206Y002496D01*
X001243Y002569D01*
X001268Y002646D01*
X001280Y002718D01*
X000811Y002718D01*
X000711Y002718D01*
X000711Y002250D01*
X000639Y002261D01*
X000562Y002286D01*
X000489Y002323D01*
X000422Y002372D01*
X000365Y002429D01*
X000316Y002496D01*
X000301Y002526D01*
X000301Y001198D01*
X015766Y001198D01*
X015631Y001333D01*
X015631Y001498D01*
X016101Y001498D01*
X016101Y001598D01*
X015631Y001598D01*
X015631Y001764D01*
X015686Y001818D01*
X015556Y001818D01*
X015056Y002318D01*
X014754Y002318D01*
X014815Y002293D01*
X014896Y002212D01*
X014940Y002106D01*
X014940Y001991D01*
X014896Y001885D01*
X014815Y001803D01*
X014709Y001759D01*
X014594Y001759D01*
X014488Y001803D01*
X014473Y001818D01*
X008246Y001818D01*
X008056Y001818D01*
X007365Y002509D01*
X007344Y002509D01*
X007238Y002553D01*
X007156Y002635D01*
X007112Y002741D01*
X007112Y002856D01*
X007133Y002906D01*
X006921Y002906D01*
X006921Y002901D01*
X006940Y002856D01*
X006940Y002741D01*
X006896Y002635D01*
X006815Y002553D01*
X006709Y002509D01*
X006594Y002509D01*
X006488Y002553D01*
X006406Y002635D01*
X006362Y002741D01*
X006362Y002856D01*
X006381Y002901D01*
X006381Y002906D01*
X006136Y002906D01*
X006048Y002994D01*
X006048Y005118D01*
X006113Y005183D01*
X006091Y005236D01*
X006091Y005360D01*
X006138Y005474D01*
X006226Y005561D01*
X006339Y005608D01*
X006463Y005608D01*
X006577Y005561D01*
X006932Y005206D01*
X007261Y005206D01*
X007348Y005118D01*
X007348Y003858D01*
X007713Y003858D01*
X007827Y003811D01*
X007914Y003724D01*
X007961Y003610D01*
X007961Y003486D01*
X007914Y003373D01*
X007827Y003285D01*
X007713Y003238D01*
X007348Y003238D01*
X007348Y003087D01*
X007459Y003087D01*
X007565Y003043D01*
X007646Y002962D01*
X007690Y002856D01*
X007690Y002835D01*
X008246Y002278D01*
X011549Y002278D01*
X011488Y002303D01*
X011406Y002385D01*
X011362Y002491D01*
X011362Y002606D01*
X011406Y002712D01*
X011488Y002793D01*
X011594Y002837D01*
X011709Y002837D01*
X011815Y002793D01*
X011830Y002778D01*
X015246Y002778D01*
X015381Y002643D01*
X015631Y002393D01*
X015631Y002764D01*
X015793Y002926D01*
X015097Y002926D01*
X015009Y003014D01*
X015009Y005138D01*
X015097Y005226D01*
X016221Y005226D01*
X016421Y005286D02*
X006852Y005286D01*
X006754Y005384D02*
X016421Y005384D01*
X016881Y005384D02*
X039383Y005384D01*
X039383Y005286D02*
X017572Y005286D01*
X017656Y005187D02*
X039383Y005187D01*
X039383Y005088D02*
X017690Y005088D01*
X017690Y004990D02*
X039383Y004990D01*
X039383Y004891D02*
X017649Y004891D01*
X017154Y004891D02*
X016881Y004891D01*
X016881Y004990D02*
X017113Y004990D01*
X017112Y005088D02*
X016881Y005088D01*
X016881Y005187D02*
X017146Y005187D01*
X017230Y005286D02*
X016881Y005286D01*
X016881Y005483D02*
X039383Y005483D01*
X039383Y005581D02*
X016881Y005581D01*
X016915Y005680D02*
X039383Y005680D01*
X039383Y005778D02*
X016940Y005778D01*
X016931Y005877D02*
X039383Y005877D01*
X039383Y005975D02*
X016882Y005975D01*
X016740Y006074D02*
X039383Y006074D01*
X039383Y006172D02*
X000301Y006172D01*
X000301Y006074D02*
X016562Y006074D01*
X016420Y005975D02*
X000301Y005975D01*
X000301Y005877D02*
X016371Y005877D01*
X016362Y005778D02*
X002813Y005778D01*
X002836Y005769D02*
X002645Y005848D01*
X002438Y005848D01*
X002247Y005769D01*
X002100Y005623D01*
X002021Y005432D01*
X002021Y005225D01*
X002100Y005034D01*
X002247Y004887D01*
X002438Y004808D01*
X002645Y004808D01*
X002836Y004887D01*
X002982Y005034D01*
X003001Y005080D01*
X003001Y004903D01*
X003100Y004664D01*
X003283Y004481D01*
X003522Y004382D01*
X003780Y004382D01*
X004019Y004481D01*
X004202Y004664D01*
X004301Y004903D01*
X004301Y005162D01*
X004202Y005401D01*
X004019Y005583D01*
X003780Y005682D01*
X003522Y005682D01*
X003283Y005583D01*
X003100Y005401D01*
X003061Y005306D01*
X003061Y005432D01*
X002982Y005623D01*
X002836Y005769D01*
X002925Y005680D02*
X003515Y005680D01*
X003281Y005581D02*
X002999Y005581D01*
X003040Y005483D02*
X003182Y005483D01*
X003093Y005384D02*
X003061Y005384D01*
X002042Y005483D02*
X001258Y005483D01*
X001216Y005581D02*
X002083Y005581D01*
X002157Y005680D02*
X001145Y005680D01*
X001023Y005778D02*
X002269Y005778D01*
X000811Y005778D02*
X000711Y005778D01*
X000711Y005680D02*
X000811Y005680D01*
X000811Y005581D02*
X000711Y005581D01*
X000711Y005483D02*
X000811Y005483D01*
X000811Y005384D02*
X000711Y005384D01*
X000811Y005286D02*
X002021Y005286D01*
X002021Y005384D02*
X001279Y005384D01*
X001262Y005187D02*
X002037Y005187D01*
X002078Y005088D02*
X001223Y005088D01*
X001158Y004990D02*
X002144Y004990D01*
X002243Y004891D02*
X001045Y004891D01*
X000811Y004891D02*
X000711Y004891D01*
X000711Y004990D02*
X000811Y004990D01*
X000811Y005088D02*
X000711Y005088D01*
X000711Y005187D02*
X000811Y005187D01*
X000364Y004990D02*
X000301Y004990D01*
X000301Y004891D02*
X000478Y004891D01*
X000301Y004793D02*
X003047Y004793D01*
X003088Y004694D02*
X000301Y004694D01*
X000301Y004596D02*
X003169Y004596D01*
X003267Y004497D02*
X000301Y004497D01*
X000301Y004399D02*
X003483Y004399D01*
X003820Y004399D02*
X004120Y004399D01*
X004039Y004318D02*
X002754Y004318D01*
X002709Y004337D01*
X002594Y004337D01*
X002488Y004293D01*
X002406Y004212D01*
X002362Y004106D01*
X002362Y003991D01*
X002406Y003885D01*
X002488Y003803D01*
X002594Y003759D01*
X002709Y003759D01*
X002754Y003778D01*
X004097Y003778D01*
X004205Y003778D01*
X004304Y003819D01*
X004769Y004285D01*
X004815Y004303D01*
X004896Y004385D01*
X004940Y004491D01*
X004940Y004606D01*
X004896Y004712D01*
X004815Y004793D01*
X006048Y004793D01*
X006048Y004694D02*
X004903Y004694D01*
X004940Y004596D02*
X006048Y004596D01*
X006048Y004497D02*
X004940Y004497D01*
X004902Y004399D02*
X006048Y004399D01*
X006048Y004300D02*
X004807Y004300D01*
X004686Y004202D02*
X006048Y004202D01*
X006048Y004103D02*
X004588Y004103D01*
X004489Y004004D02*
X006048Y004004D01*
X006048Y003906D02*
X004391Y003906D01*
X004275Y003807D02*
X006048Y003807D01*
X006048Y003709D02*
X003793Y003709D01*
X003780Y003714D02*
X003522Y003714D01*
X003283Y003615D01*
X003100Y003432D01*
X003001Y003193D01*
X003001Y003016D01*
X002982Y003063D01*
X002836Y003209D01*
X002645Y003288D01*
X002438Y003288D01*
X002247Y003209D01*
X002100Y003063D01*
X002021Y002872D01*
X002021Y002665D01*
X002100Y002474D01*
X002247Y002327D01*
X002438Y002248D01*
X002645Y002248D01*
X002836Y002327D01*
X002982Y002474D01*
X003061Y002665D01*
X003061Y002790D01*
X003100Y002696D01*
X003283Y002513D01*
X003522Y002414D01*
X003780Y002414D01*
X004019Y002513D01*
X004202Y002696D01*
X004301Y002935D01*
X004301Y003193D01*
X004202Y003432D01*
X004019Y003615D01*
X003780Y003714D01*
X004024Y003610D02*
X006048Y003610D01*
X006048Y003512D02*
X004123Y003512D01*
X004210Y003413D02*
X006048Y003413D01*
X006048Y003315D02*
X004251Y003315D01*
X004292Y003216D02*
X006048Y003216D01*
X006048Y003118D02*
X004301Y003118D01*
X004301Y003019D02*
X006048Y003019D01*
X006122Y002921D02*
X004295Y002921D01*
X004254Y002822D02*
X006362Y002822D01*
X006940Y002822D02*
X007112Y002822D01*
X007120Y002723D02*
X006933Y002723D01*
X006886Y002625D02*
X007166Y002625D01*
X007303Y002526D02*
X006749Y002526D01*
X006553Y002526D02*
X004033Y002526D01*
X004131Y002625D02*
X006416Y002625D01*
X006370Y002723D02*
X004214Y002723D01*
X003269Y002526D02*
X003004Y002526D01*
X003045Y002625D02*
X003171Y002625D01*
X003089Y002723D02*
X003061Y002723D01*
X002079Y002526D02*
X001222Y002526D01*
X001261Y002625D02*
X002038Y002625D01*
X002021Y002723D02*
X000811Y002723D01*
X000811Y002625D02*
X000711Y002625D01*
X000711Y002526D02*
X000811Y002526D01*
X000811Y002428D02*
X000711Y002428D01*
X000711Y002329D02*
X000811Y002329D01*
X001042Y002329D02*
X002245Y002329D01*
X002146Y002428D02*
X001156Y002428D01*
X000481Y002329D02*
X000301Y002329D01*
X000301Y002428D02*
X000366Y002428D01*
X000301Y002231D02*
X007643Y002231D01*
X007742Y002132D02*
X000301Y002132D01*
X000301Y002034D02*
X007840Y002034D01*
X007939Y001935D02*
X000301Y001935D01*
X000301Y001837D02*
X008038Y001837D01*
X008195Y002329D02*
X011462Y002329D01*
X011388Y002428D02*
X008097Y002428D01*
X007998Y002526D02*
X011362Y002526D01*
X011370Y002625D02*
X007900Y002625D01*
X007801Y002723D02*
X011418Y002723D01*
X011558Y002822D02*
X007703Y002822D01*
X007663Y002921D02*
X010651Y002921D01*
X010638Y002928D02*
X010672Y002908D01*
X010710Y002898D01*
X011180Y002898D01*
X011180Y003998D01*
X011280Y003998D01*
X011280Y002898D01*
X011750Y002898D01*
X011788Y002908D01*
X011822Y002928D01*
X011850Y002956D01*
X011870Y002990D01*
X011880Y003028D01*
X011880Y003998D01*
X011280Y003998D01*
X011280Y004098D01*
X011880Y004098D01*
X011880Y005068D01*
X011870Y005106D01*
X011850Y005140D01*
X011822Y005168D01*
X011788Y005188D01*
X011750Y005198D01*
X011280Y005198D01*
X011280Y004098D01*
X011180Y004098D01*
X011180Y003998D01*
X010580Y003998D01*
X010580Y003028D01*
X010590Y002990D01*
X010610Y002956D01*
X010638Y002928D01*
X010582Y003019D02*
X007589Y003019D01*
X007348Y003118D02*
X010580Y003118D01*
X010580Y003216D02*
X007348Y003216D01*
X007856Y003315D02*
X010580Y003315D01*
X010580Y003413D02*
X007931Y003413D01*
X007961Y003512D02*
X010580Y003512D01*
X010580Y003610D02*
X007961Y003610D01*
X007920Y003709D02*
X010580Y003709D01*
X010580Y003807D02*
X007830Y003807D01*
X007348Y003906D02*
X010580Y003906D01*
X010580Y004098D02*
X011180Y004098D01*
X011180Y005198D01*
X010710Y005198D01*
X010672Y005188D01*
X010638Y005168D01*
X010610Y005140D01*
X010590Y005106D01*
X010580Y005068D01*
X010580Y004098D01*
X010580Y004103D02*
X007348Y004103D01*
X007348Y004004D02*
X011180Y004004D01*
X011180Y003906D02*
X011280Y003906D01*
X011280Y004004D02*
X015009Y004004D01*
X015009Y003906D02*
X011880Y003906D01*
X011880Y003807D02*
X015009Y003807D01*
X015009Y003709D02*
X011880Y003709D01*
X011880Y003610D02*
X015009Y003610D01*
X015009Y003512D02*
X011880Y003512D01*
X011880Y003413D02*
X015009Y003413D01*
X015009Y003315D02*
X011880Y003315D01*
X011280Y003315D02*
X011180Y003315D01*
X011180Y003413D02*
X011280Y003413D01*
X011280Y003512D02*
X011180Y003512D01*
X011180Y003610D02*
X011280Y003610D01*
X011280Y003709D02*
X011180Y003709D01*
X011180Y003807D02*
X011280Y003807D01*
X011280Y004103D02*
X011180Y004103D01*
X011180Y004202D02*
X011280Y004202D01*
X011280Y004300D02*
X011180Y004300D01*
X011880Y004300D02*
X015009Y004300D01*
X015009Y004202D02*
X011880Y004202D01*
X011880Y004103D02*
X015009Y004103D01*
X015009Y004399D02*
X011880Y004399D01*
X011880Y004497D02*
X015009Y004497D01*
X015009Y004596D02*
X011880Y004596D01*
X011880Y004694D02*
X015009Y004694D01*
X015009Y004793D02*
X011880Y004793D01*
X011280Y004793D02*
X011180Y004793D01*
X011180Y004694D02*
X011280Y004694D01*
X011280Y004596D02*
X011180Y004596D01*
X011180Y004497D02*
X011280Y004497D01*
X011280Y004399D02*
X011180Y004399D01*
X010580Y004399D02*
X007348Y004399D01*
X007348Y004497D02*
X010580Y004497D01*
X010580Y004596D02*
X007348Y004596D01*
X007348Y004694D02*
X010580Y004694D01*
X010580Y004793D02*
X007348Y004793D01*
X007348Y004891D02*
X010580Y004891D01*
X010580Y004990D02*
X007348Y004990D01*
X007348Y005088D02*
X010585Y005088D01*
X010670Y005187D02*
X007280Y005187D01*
X006112Y005187D02*
X004291Y005187D01*
X004301Y005088D02*
X006048Y005088D01*
X006048Y004990D02*
X004301Y004990D01*
X004296Y004891D02*
X006048Y004891D01*
X004815Y004793D02*
X004709Y004837D01*
X004594Y004837D01*
X004488Y004793D01*
X004406Y004712D01*
X004388Y004666D01*
X004039Y004318D01*
X004035Y004497D02*
X004218Y004497D01*
X004134Y004596D02*
X004317Y004596D01*
X004399Y004694D02*
X004215Y004694D01*
X004255Y004793D02*
X004487Y004793D01*
X003006Y004891D02*
X002840Y004891D01*
X002938Y004990D02*
X003001Y004990D01*
X004250Y005286D02*
X006091Y005286D01*
X006101Y005384D02*
X004209Y005384D01*
X004120Y005483D02*
X006147Y005483D01*
X006274Y005581D02*
X004022Y005581D01*
X003787Y005680D02*
X016388Y005680D01*
X016421Y005581D02*
X006528Y005581D01*
X006655Y005483D02*
X016421Y005483D01*
X015058Y005187D02*
X011789Y005187D01*
X011874Y005088D02*
X015009Y005088D01*
X015009Y004990D02*
X011880Y004990D01*
X011880Y004891D02*
X015009Y004891D01*
X011280Y004891D02*
X011180Y004891D01*
X011180Y004990D02*
X011280Y004990D01*
X011280Y005088D02*
X011180Y005088D01*
X011180Y005187D02*
X011280Y005187D01*
X010580Y004300D02*
X007348Y004300D01*
X007348Y004202D02*
X010580Y004202D01*
X011180Y003216D02*
X011280Y003216D01*
X011280Y003118D02*
X011180Y003118D01*
X011180Y003019D02*
X011280Y003019D01*
X011280Y002921D02*
X011180Y002921D01*
X011745Y002822D02*
X015690Y002822D01*
X015788Y002921D02*
X011809Y002921D01*
X011877Y003019D02*
X015009Y003019D01*
X015009Y003118D02*
X011880Y003118D01*
X011880Y003216D02*
X015009Y003216D01*
X016309Y003216D02*
X039383Y003216D01*
X039383Y003118D02*
X016309Y003118D01*
X016416Y003019D02*
X016887Y003019D01*
X016788Y002921D02*
X016514Y002921D01*
X016613Y002822D02*
X016690Y002822D01*
X017416Y003019D02*
X017670Y003019D01*
X017631Y002921D02*
X017514Y002921D01*
X017613Y002822D02*
X017631Y002822D01*
X018632Y003019D02*
X039383Y003019D01*
X039383Y002921D02*
X018671Y002921D01*
X018671Y002822D02*
X039383Y002822D01*
X039383Y002723D02*
X018671Y002723D01*
X018671Y002625D02*
X039383Y002625D01*
X039383Y002526D02*
X018671Y002526D01*
X018671Y002428D02*
X039383Y002428D01*
X039383Y002329D02*
X018977Y002329D01*
X018825Y002329D02*
X018671Y002329D01*
X019127Y002231D02*
X039383Y002231D01*
X039383Y002132D02*
X019179Y002132D01*
X019190Y002034D02*
X039383Y002034D01*
X039383Y001935D02*
X019167Y001935D01*
X019098Y001837D02*
X039383Y001837D01*
X039383Y001738D02*
X018671Y001738D01*
X018671Y001639D02*
X039383Y001639D01*
X039383Y001541D02*
X018671Y001541D01*
X018671Y001442D02*
X039383Y001442D01*
X039383Y001344D02*
X018671Y001344D01*
X018584Y001245D02*
X039383Y001245D01*
X018704Y001837D02*
X018598Y001837D01*
X016101Y001541D02*
X000301Y001541D01*
X000301Y001639D02*
X015631Y001639D01*
X015631Y001738D02*
X000301Y001738D01*
X000301Y001442D02*
X015631Y001442D01*
X015631Y001344D02*
X000301Y001344D01*
X000301Y001245D02*
X015719Y001245D01*
X015538Y001837D02*
X014848Y001837D01*
X014917Y001935D02*
X015439Y001935D01*
X015340Y002034D02*
X014940Y002034D01*
X014929Y002132D02*
X015242Y002132D01*
X015143Y002231D02*
X014877Y002231D01*
X015597Y002428D02*
X015631Y002428D01*
X015631Y002526D02*
X015498Y002526D01*
X015400Y002625D02*
X015631Y002625D01*
X015631Y002723D02*
X015301Y002723D01*
X007545Y002329D02*
X002838Y002329D01*
X002936Y002428D02*
X003488Y002428D01*
X003814Y002428D02*
X007446Y002428D01*
X003051Y003315D02*
X000301Y003315D01*
X000301Y003413D02*
X003092Y003413D01*
X003180Y003512D02*
X000301Y003512D01*
X000301Y003610D02*
X003278Y003610D01*
X003510Y003709D02*
X000301Y003709D01*
X000301Y003807D02*
X002484Y003807D01*
X002398Y003906D02*
X000301Y003906D01*
X000301Y004004D02*
X002362Y004004D01*
X002362Y004103D02*
X000301Y004103D01*
X000301Y004202D02*
X002402Y004202D01*
X002505Y004300D02*
X000301Y004300D01*
X000301Y003216D02*
X000495Y003216D01*
X000375Y003118D02*
X000301Y003118D01*
X000301Y003019D02*
X000305Y003019D01*
X000711Y003019D02*
X000811Y003019D01*
X000811Y002921D02*
X000711Y002921D01*
X000711Y002822D02*
X000811Y002822D01*
X001258Y002921D02*
X002041Y002921D01*
X002021Y002822D02*
X001279Y002822D01*
X001217Y003019D02*
X002082Y003019D01*
X002155Y003118D02*
X001147Y003118D01*
X001027Y003216D02*
X002264Y003216D01*
X002818Y003216D02*
X003011Y003216D01*
X003001Y003118D02*
X002927Y003118D01*
X003000Y003019D02*
X003001Y003019D01*
X000811Y003118D02*
X000711Y003118D01*
X000711Y003216D02*
X000811Y003216D01*
X000307Y005581D02*
X000301Y005581D01*
X000301Y005680D02*
X000377Y005680D01*
X000301Y005778D02*
X000499Y005778D01*
X000301Y006271D02*
X039383Y006271D01*
X039383Y006370D02*
X000301Y006370D01*
X000301Y006468D02*
X039383Y006468D01*
X039383Y006567D02*
X000301Y006567D01*
X000301Y006665D02*
X039383Y006665D01*
X039383Y006764D02*
X000301Y006764D01*
X000301Y006862D02*
X039383Y006862D01*
M02*
