G75*
G70*
%OFA0B0*%
%FSLAX24Y24*%
%IPPOS*%
%LPD*%
%AMOC8*
5,1,8,0,0,1.08239X$1,22.5*
%
%ADD10C,0.0600*%
%ADD11C,0.0500*%
%ADD12C,0.0000*%
D10*
X003500Y001800D02*
X030100Y001800D01*
X031100Y001800D02*
X051100Y001800D01*
X052100Y008400D02*
X052573Y008341D01*
X053043Y008258D01*
X053509Y008153D01*
X053969Y008025D01*
X054421Y007875D01*
X054866Y007703D01*
X055303Y007509D01*
X055729Y007294D01*
X056144Y007059D01*
X056547Y006803D01*
X056937Y006529D01*
X057313Y006235D01*
X057675Y005924D01*
X058021Y005595D01*
X058350Y005250D01*
X058350Y013250D02*
X058021Y013595D01*
X057675Y013924D01*
X057313Y014235D01*
X056937Y014529D01*
X056547Y014803D01*
X056144Y015059D01*
X055729Y015294D01*
X055303Y015509D01*
X054866Y015703D01*
X054421Y015875D01*
X053969Y016025D01*
X053509Y016153D01*
X053043Y016258D01*
X052573Y016341D01*
X052100Y016400D01*
X051100Y016400D02*
X031100Y016400D01*
X030100Y016400D02*
X003500Y016400D01*
X002800Y015700D02*
X002800Y010500D01*
X003500Y009800D02*
X030100Y009800D01*
X031100Y009800D02*
X051100Y009800D01*
X051100Y008400D02*
X031100Y008400D01*
X030100Y008400D02*
X003500Y008400D01*
X002800Y007700D02*
X002800Y002500D01*
X003500Y017800D02*
X030100Y017800D01*
X031100Y017800D02*
X051100Y017800D01*
X052100Y009799D02*
X052582Y009863D01*
X053061Y009950D01*
X053535Y010060D01*
X054002Y010193D01*
X054463Y010349D01*
X054916Y010528D01*
X055359Y010728D01*
X055792Y010949D01*
X056213Y011192D01*
X056623Y011455D01*
X057019Y011737D01*
X057400Y012039D01*
X057767Y012358D01*
X058117Y012696D01*
X058451Y013050D01*
X058350Y021250D02*
X058021Y021595D01*
X057675Y021924D01*
X057313Y022235D01*
X056937Y022529D01*
X056547Y022803D01*
X056144Y023059D01*
X055729Y023294D01*
X055303Y023509D01*
X054866Y023703D01*
X054421Y023875D01*
X053969Y024025D01*
X053509Y024153D01*
X053043Y024258D01*
X052573Y024341D01*
X052100Y024400D01*
X051100Y024400D02*
X031100Y024400D01*
X030100Y024400D02*
X003500Y024400D01*
X002800Y023700D02*
X002800Y018500D01*
X003500Y025800D02*
X030100Y025800D01*
X031100Y025800D02*
X051100Y025800D01*
X052100Y017799D02*
X052582Y017863D01*
X053061Y017950D01*
X053535Y018060D01*
X054002Y018193D01*
X054463Y018349D01*
X054916Y018528D01*
X055359Y018728D01*
X055792Y018949D01*
X056213Y019192D01*
X056623Y019455D01*
X057019Y019737D01*
X057400Y020039D01*
X057767Y020358D01*
X058117Y020696D01*
X058451Y021050D01*
X058350Y029250D02*
X058021Y029595D01*
X057675Y029924D01*
X057313Y030235D01*
X056937Y030529D01*
X056547Y030803D01*
X056144Y031059D01*
X055729Y031294D01*
X055303Y031509D01*
X054866Y031703D01*
X054421Y031875D01*
X053969Y032025D01*
X053509Y032153D01*
X053043Y032258D01*
X052573Y032341D01*
X052100Y032400D01*
X051100Y032400D02*
X031100Y032400D01*
X030100Y032400D02*
X003500Y032400D01*
X002800Y031700D02*
X002800Y026500D01*
X052100Y025799D02*
X052582Y025863D01*
X053061Y025950D01*
X053535Y026060D01*
X054002Y026193D01*
X054463Y026349D01*
X054916Y026528D01*
X055359Y026728D01*
X055792Y026949D01*
X056213Y027192D01*
X056623Y027455D01*
X057019Y027737D01*
X057400Y028039D01*
X057767Y028358D01*
X058117Y028696D01*
X058451Y029050D01*
X058451Y005050D02*
X058117Y004696D01*
X057767Y004358D01*
X057400Y004039D01*
X057019Y003737D01*
X056623Y003455D01*
X056213Y003192D01*
X055792Y002949D01*
X055359Y002728D01*
X054916Y002528D01*
X054463Y002349D01*
X054002Y002193D01*
X053535Y002060D01*
X053061Y001950D01*
X052582Y001863D01*
X052100Y001799D01*
D11*
X052100Y008401D02*
X052572Y008337D01*
X053041Y008252D01*
X053505Y008144D01*
X053964Y008014D01*
X054416Y007862D01*
X054860Y007689D01*
X055295Y007495D01*
X055721Y007281D01*
X056136Y007046D01*
X056539Y006792D01*
X056930Y006519D01*
X057307Y006228D01*
X057670Y005919D01*
X058018Y005593D01*
X058350Y005250D01*
X058350Y013250D02*
X058018Y013593D01*
X057670Y013919D01*
X057307Y014228D01*
X056930Y014519D01*
X056539Y014792D01*
X056136Y015046D01*
X055721Y015281D01*
X055295Y015495D01*
X054860Y015689D01*
X054416Y015862D01*
X053964Y016014D01*
X053505Y016144D01*
X053041Y016252D01*
X052572Y016337D01*
X052100Y016401D01*
X058350Y021250D02*
X058018Y021593D01*
X057670Y021919D01*
X057307Y022228D01*
X056930Y022519D01*
X056539Y022792D01*
X056136Y023046D01*
X055721Y023281D01*
X055295Y023495D01*
X054860Y023689D01*
X054416Y023862D01*
X053964Y024014D01*
X053505Y024144D01*
X053041Y024252D01*
X052572Y024337D01*
X052100Y024401D01*
X058350Y029250D02*
X058018Y029593D01*
X057670Y029919D01*
X057307Y030228D01*
X056930Y030519D01*
X056539Y030792D01*
X056136Y031046D01*
X055721Y031281D01*
X055295Y031495D01*
X054860Y031689D01*
X054416Y031862D01*
X053964Y032014D01*
X053505Y032144D01*
X053041Y032252D01*
X052572Y032337D01*
X052100Y032401D01*
D12*
X060100Y000100D02*
X000100Y000100D01*
X000100Y034100D01*
X060100Y034100D01*
X060100Y000100D01*
X052200Y002100D02*
X051100Y002100D01*
X051000Y008100D02*
X052100Y008100D01*
X052200Y010100D02*
X051100Y010100D01*
X051000Y016100D02*
X052100Y016100D01*
X052200Y018100D02*
X051100Y018100D01*
X051000Y024100D02*
X052100Y024100D01*
X052200Y026100D02*
X051100Y026100D01*
X051000Y032100D02*
X052100Y032100D01*
X031100Y032100D02*
X030100Y032100D01*
X030100Y026100D02*
X031100Y026100D01*
X031100Y024100D02*
X030100Y024100D01*
X030100Y018100D02*
X031100Y018100D01*
X031100Y016100D02*
X030100Y016100D01*
X030100Y010100D02*
X031100Y010100D01*
X031100Y008100D02*
X030100Y008100D01*
X030100Y002100D02*
X031100Y002100D01*
X003500Y002100D02*
X002800Y002100D01*
X003100Y001800D02*
X003100Y002500D01*
X003100Y007700D02*
X003100Y008400D01*
X002800Y008100D02*
X003500Y008100D01*
X003100Y009800D02*
X003100Y010500D01*
X002800Y010100D02*
X003500Y010100D01*
X003100Y015700D02*
X003100Y016400D01*
X002800Y016100D02*
X003500Y016100D01*
X003100Y017800D02*
X003100Y018500D01*
X002800Y018100D02*
X003500Y018100D01*
X003100Y023700D02*
X003100Y024400D01*
X002800Y024100D02*
X003500Y024100D01*
X003100Y025800D02*
X003100Y026500D01*
X002800Y026100D02*
X003500Y026100D01*
X003100Y031700D02*
X003100Y032400D01*
X002800Y032100D02*
X003500Y032100D01*
M02*
