G75*
G70*
%OFA0B0*%
%FSLAX24Y24*%
%IPPOS*%
%LPD*%
%AMOC8*
5,1,8,0,0,1.08239X$1,22.5*
%
%ADD10C,0.0000*%
%ADD11C,0.0240*%
%ADD12R,0.0029X0.0029*%
%ADD13R,0.0145X0.0029*%
%ADD14R,0.0116X0.0029*%
%ADD15R,0.0058X0.0029*%
%ADD16R,0.0087X0.0029*%
%ADD17R,0.0812X0.0029*%
%ADD18R,0.0725X0.0029*%
%ADD19R,0.0348X0.0029*%
%ADD20R,0.1566X0.0029*%
%ADD21R,0.1653X0.0029*%
%ADD22R,0.1711X0.0029*%
%ADD23R,0.1218X0.0029*%
%ADD24R,0.0203X0.0029*%
%ADD25R,0.0377X0.0029*%
%ADD26R,0.1740X0.0029*%
%ADD27R,0.0580X0.0029*%
%ADD28R,0.0174X0.0029*%
%ADD29R,0.0290X0.0029*%
%ADD30R,0.0087X0.0029*%
%ADD31R,0.0058X0.0029*%
%ADD32R,0.0261X0.0029*%
%ADD33R,0.0667X0.0029*%
%ADD34R,0.2436X0.0029*%
%ADD35R,0.0232X0.0029*%
%ADD36R,0.2059X0.0029*%
%ADD37R,0.0174X0.0029*%
%ADD38R,0.3770X0.0029*%
%ADD39R,0.1131X0.0029*%
%ADD40R,0.2871X0.0029*%
%ADD41R,0.0319X0.0029*%
%ADD42R,0.0261X0.0029*%
%ADD43R,0.4930X0.0029*%
%ADD44R,0.1015X0.0029*%
%ADD45R,0.0377X0.0029*%
%ADD46R,0.0406X0.0029*%
%ADD47R,0.0754X0.0029*%
%ADD48R,0.0986X0.0029*%
%ADD49R,0.1160X0.0029*%
%ADD50R,0.1392X0.0029*%
%ADD51R,0.1624X0.0029*%
%ADD52R,0.1798X0.0029*%
%ADD53R,0.0435X0.0029*%
%ADD54R,0.1421X0.0029*%
%ADD55R,0.0464X0.0029*%
%ADD56R,0.1450X0.0029*%
%ADD57R,0.0493X0.0029*%
%ADD58R,0.1479X0.0029*%
%ADD59R,0.0551X0.0029*%
%ADD60R,0.0899X0.0029*%
%ADD61R,0.0551X0.0029*%
%ADD62R,0.0464X0.0029*%
%ADD63R,0.0696X0.0029*%
%ADD64R,0.0638X0.0029*%
%ADD65R,0.0870X0.0029*%
%ADD66R,0.0841X0.0029*%
%ADD67R,0.0841X0.0029*%
%ADD68R,0.0928X0.0029*%
%ADD69R,0.0667X0.0029*%
%ADD70R,0.0957X0.0029*%
%ADD71R,0.1073X0.0029*%
%ADD72R,0.1131X0.0029*%
%ADD73R,0.1711X0.0029*%
%ADD74R,0.1856X0.0029*%
%ADD75R,0.1885X0.0029*%
%ADD76R,0.1247X0.0029*%
%ADD77R,0.0522X0.0029*%
%ADD78R,0.1305X0.0029*%
%ADD79R,0.1189X0.0029*%
%ADD80R,0.0928X0.0029*%
%ADD81R,0.0783X0.0029*%
%ADD82R,0.0609X0.0029*%
%ADD83R,0.1102X0.0029*%
%ADD84R,0.2117X0.0029*%
%ADD85R,0.1044X0.0029*%
%ADD86R,0.0754X0.0029*%
%ADD87R,0.1334X0.0029*%
%ADD88R,0.1044X0.0029*%
%ADD89R,0.0348X0.0029*%
%ADD90C,0.0120*%
D10*
X000151Y001048D02*
X000151Y007044D01*
X039533Y007044D01*
X039533Y001048D01*
X000151Y001048D01*
D11*
X019151Y001298D02*
X019151Y006798D01*
D12*
X026831Y006210D03*
X027440Y006239D03*
X027440Y006268D03*
X027440Y006297D03*
X027440Y006326D03*
X027440Y006355D03*
X027440Y006384D03*
X027498Y006384D03*
X027498Y006355D03*
X027498Y006326D03*
X027498Y006297D03*
X027498Y006268D03*
X027498Y006239D03*
X027527Y006152D03*
X027527Y006123D03*
X027527Y006094D03*
X027527Y006065D03*
X027527Y006036D03*
X027527Y006007D03*
X027585Y006007D03*
X027585Y006036D03*
X027585Y006065D03*
X027585Y006094D03*
X027585Y006123D03*
X027585Y006152D03*
X027991Y006152D03*
X027991Y006123D03*
X027991Y006094D03*
X027991Y006065D03*
X027991Y006036D03*
X027991Y006007D03*
X027846Y005978D03*
X027701Y005978D03*
X028136Y005949D03*
X028136Y005920D03*
X028136Y005891D03*
X028136Y005862D03*
X028136Y005833D03*
X028136Y005804D03*
X028861Y005775D03*
X028861Y005746D03*
X028861Y005717D03*
X028861Y005688D03*
X028861Y005659D03*
X028861Y005630D03*
X028861Y005601D03*
X028948Y005601D03*
X028948Y005630D03*
X028948Y005659D03*
X028948Y005688D03*
X028948Y005717D03*
X028948Y005746D03*
X028948Y005775D03*
X029035Y005775D03*
X029035Y005746D03*
X029035Y005717D03*
X029035Y005688D03*
X029035Y005659D03*
X029035Y005630D03*
X029035Y005601D03*
X029760Y005543D03*
X029760Y005514D03*
X029760Y005485D03*
X029760Y005456D03*
X029760Y005427D03*
X029760Y005398D03*
X029760Y005369D03*
X029905Y005369D03*
X029905Y005398D03*
X029905Y005427D03*
X029905Y005456D03*
X029905Y005485D03*
X029905Y005514D03*
X029905Y005543D03*
X029963Y005514D03*
X029963Y005485D03*
X029963Y005456D03*
X029963Y005427D03*
X029963Y005398D03*
X029963Y005369D03*
X030021Y005369D03*
X030021Y005398D03*
X030021Y005427D03*
X030021Y005456D03*
X030021Y005485D03*
X030021Y005514D03*
X030282Y005456D03*
X030282Y005427D03*
X030282Y005398D03*
X030282Y005369D03*
X030746Y005456D03*
X030746Y005485D03*
X030746Y005514D03*
X030746Y005543D03*
X031181Y005398D03*
X031181Y005369D03*
X031268Y005369D03*
X031268Y005398D03*
X031268Y005427D03*
X031268Y005456D03*
X031268Y005485D03*
X031268Y005514D03*
X031529Y005514D03*
X031529Y005485D03*
X031529Y005456D03*
X031529Y005427D03*
X031529Y005398D03*
X031529Y005369D03*
X031529Y005543D03*
X031877Y005804D03*
X031877Y005833D03*
X031877Y005862D03*
X031877Y005891D03*
X031877Y005920D03*
X031877Y005949D03*
X031877Y005978D03*
X032283Y005978D03*
X033124Y005746D03*
X033124Y005717D03*
X033124Y005688D03*
X033124Y005659D03*
X033124Y005630D03*
X033124Y005601D03*
X033124Y005572D03*
X033182Y005572D03*
X033182Y005601D03*
X033182Y005630D03*
X033182Y005659D03*
X033182Y005688D03*
X033182Y005717D03*
X033182Y005746D03*
X033501Y006007D03*
X034226Y006007D03*
X034284Y006036D03*
X034284Y006065D03*
X034284Y006094D03*
X034284Y006123D03*
X034284Y006152D03*
X034284Y006181D03*
X034284Y006210D03*
X034400Y006007D03*
X034748Y006007D03*
X035125Y006210D03*
X035792Y006268D03*
X035792Y006297D03*
X035792Y006326D03*
X035792Y006355D03*
X035792Y006384D03*
X035792Y006413D03*
X035850Y006413D03*
X036024Y006442D03*
X036024Y006471D03*
X036024Y006500D03*
X036024Y006529D03*
X036024Y006558D03*
X036024Y006587D03*
X036024Y006616D03*
X037242Y006616D03*
X037242Y006587D03*
X037242Y006558D03*
X037242Y006529D03*
X037242Y006500D03*
X037242Y006471D03*
X037242Y006442D03*
X037474Y006442D03*
X037474Y006471D03*
X037474Y006500D03*
X037474Y006529D03*
X037474Y006558D03*
X037474Y006587D03*
X037474Y006616D03*
X037242Y006181D03*
X037068Y006181D03*
X036894Y006181D03*
X036343Y006181D03*
X036169Y006181D03*
X035995Y006181D03*
X035908Y006152D03*
X035908Y006123D03*
X035908Y006094D03*
X035908Y006065D03*
X035908Y006036D03*
X035908Y006007D03*
X035589Y005775D03*
X033443Y005079D03*
X030978Y004963D03*
X029847Y004180D03*
X028832Y003919D03*
X026570Y003919D03*
X026396Y003919D03*
X025932Y003948D03*
X025932Y003977D03*
X025932Y004006D03*
X025932Y004035D03*
X025932Y004064D03*
X025932Y004093D03*
X026222Y004122D03*
X025120Y004093D03*
X025120Y004064D03*
X025120Y004035D03*
X025120Y004006D03*
X025120Y003977D03*
X025120Y003948D03*
X025004Y003861D03*
X025004Y003832D03*
X025004Y003803D03*
X025004Y003774D03*
X025004Y003745D03*
X025004Y003716D03*
X024888Y003716D03*
X024888Y003687D03*
X024888Y003745D03*
X024888Y003774D03*
X024888Y003803D03*
X024888Y003832D03*
X024888Y003861D03*
X024598Y004093D03*
X024424Y004093D03*
X024221Y004122D03*
X024221Y004151D03*
X024221Y004180D03*
X024221Y004209D03*
X024221Y004238D03*
X024221Y004267D03*
X024250Y004354D03*
X024250Y004383D03*
X024250Y004412D03*
X024250Y004441D03*
X024250Y004470D03*
X024250Y004499D03*
X024250Y004528D03*
X024018Y004267D03*
X024018Y004238D03*
X024018Y004209D03*
X024018Y004180D03*
X024018Y004151D03*
X024018Y004122D03*
X023351Y004325D03*
X023351Y004354D03*
X023351Y004383D03*
X023351Y004412D03*
X023351Y004441D03*
X023351Y004470D03*
X023351Y004499D03*
X022974Y004557D03*
X022974Y004586D03*
X022974Y004615D03*
X022974Y004644D03*
X022974Y004673D03*
X022974Y004702D03*
X022974Y004731D03*
X023032Y004731D03*
X023032Y004702D03*
X023032Y004673D03*
X023032Y004644D03*
X023090Y004644D03*
X023090Y004673D03*
X023090Y004702D03*
X023090Y004731D03*
X025932Y003687D03*
X025990Y003687D03*
X028020Y006239D03*
X028020Y006268D03*
X028020Y006297D03*
X028020Y006326D03*
X028020Y006355D03*
X028020Y006384D03*
X028020Y006413D03*
X027614Y006413D03*
X027498Y006413D03*
D13*
X027730Y006413D03*
X027585Y006181D03*
X030862Y005485D03*
X030804Y005369D03*
X030804Y005340D03*
X030804Y005311D03*
X030804Y005282D03*
X030804Y005253D03*
X028890Y004905D03*
X028571Y005108D03*
X030079Y004499D03*
X030050Y004267D03*
X030050Y004238D03*
X029702Y004238D03*
X029702Y004209D03*
X031877Y003948D03*
X033472Y003745D03*
X033472Y003716D03*
X033559Y004064D03*
X033559Y004093D03*
X033559Y004122D03*
X033588Y004180D03*
X033588Y004209D03*
X034342Y004789D03*
X034371Y004760D03*
X033298Y005514D03*
X033298Y005543D03*
X033327Y005659D03*
X033385Y006036D03*
X033907Y006036D03*
X033907Y006065D03*
X033907Y006094D03*
X033907Y006123D03*
X033907Y006152D03*
X033907Y006181D03*
X022829Y004731D03*
X022829Y004702D03*
X022829Y004673D03*
X022829Y004644D03*
X022829Y004615D03*
X022829Y004586D03*
X022829Y004557D03*
X028774Y003397D03*
X028774Y003368D03*
X028774Y003339D03*
X028774Y003310D03*
X029064Y003368D03*
X028890Y002875D03*
X028890Y002846D03*
X028861Y002817D03*
X028861Y002788D03*
X028832Y002730D03*
X028832Y002701D03*
X028803Y002614D03*
X028774Y002556D03*
D14*
X028673Y002411D03*
X028818Y002382D03*
X028644Y002295D03*
X028644Y002266D03*
X028644Y002237D03*
X028615Y002121D03*
X028615Y002092D03*
X028615Y002063D03*
X028615Y002034D03*
X028615Y002005D03*
X028615Y001976D03*
X028615Y001947D03*
X028615Y001918D03*
X028615Y001889D03*
X028615Y001860D03*
X028818Y001860D03*
X028818Y001889D03*
X028818Y001918D03*
X028818Y001947D03*
X028818Y001976D03*
X028818Y002005D03*
X028818Y002034D03*
X028818Y002063D03*
X028818Y002092D03*
X028818Y002121D03*
X026034Y004122D03*
X028934Y004673D03*
X028934Y004702D03*
X028905Y004731D03*
X028905Y004760D03*
X028905Y004789D03*
X028905Y004818D03*
X028905Y004847D03*
X028905Y004876D03*
X028876Y004934D03*
X028876Y004963D03*
X028876Y004992D03*
X028876Y005021D03*
X028876Y005050D03*
X028876Y005079D03*
X028876Y005108D03*
X028876Y005137D03*
X029630Y005369D03*
X029630Y005398D03*
X029630Y005427D03*
X029630Y005456D03*
X029630Y005485D03*
X029630Y005514D03*
X029630Y005543D03*
X029398Y005601D03*
X029398Y005630D03*
X029398Y005659D03*
X029398Y005688D03*
X029398Y005717D03*
X029398Y005746D03*
X029398Y005775D03*
X030094Y005630D03*
X030094Y005601D03*
X030848Y005456D03*
X033371Y006007D03*
X033400Y006065D03*
X033458Y006239D03*
X033487Y006268D03*
X033487Y006297D03*
X033516Y006355D03*
X035517Y006355D03*
X035517Y006326D03*
X035517Y006297D03*
X035517Y006268D03*
X035517Y006239D03*
X035517Y006384D03*
X035604Y006007D03*
X035691Y005775D03*
X034009Y005514D03*
X033980Y005485D03*
X033951Y005427D03*
X033893Y005311D03*
X033864Y005253D03*
X033864Y005224D03*
X033835Y005195D03*
X033516Y005485D03*
X034386Y004731D03*
X034415Y004702D03*
X034415Y004673D03*
X034415Y004644D03*
X034444Y004615D03*
X034444Y004586D03*
X033574Y004151D03*
X026817Y005369D03*
X026846Y005572D03*
X026846Y005601D03*
X026846Y005630D03*
X026846Y005659D03*
X026846Y005688D03*
X026846Y005717D03*
X026846Y005746D03*
X026846Y005775D03*
X026846Y005804D03*
X026846Y005833D03*
X026846Y005862D03*
X026846Y005891D03*
X026846Y005920D03*
X026846Y005949D03*
X027890Y006413D03*
X022525Y004615D03*
X022525Y004586D03*
X022525Y004557D03*
D15*
X024033Y004296D03*
X024236Y004296D03*
X025019Y004122D03*
X025483Y004122D03*
X025570Y004122D03*
X026150Y004122D03*
X026788Y004122D03*
X026788Y004093D03*
X026788Y004064D03*
X026788Y004035D03*
X026788Y004006D03*
X026788Y003977D03*
X026788Y003948D03*
X026788Y004151D03*
X026788Y004180D03*
X026788Y004209D03*
X026788Y004238D03*
X026788Y004267D03*
X026788Y004296D03*
X026788Y004325D03*
X026788Y004354D03*
X026788Y004383D03*
X026788Y004412D03*
X026788Y004441D03*
X026788Y004470D03*
X026788Y004499D03*
X026788Y004528D03*
X026788Y004557D03*
X026788Y004586D03*
X026788Y004615D03*
X026788Y004644D03*
X026788Y004673D03*
X026788Y004702D03*
X026788Y004731D03*
X026788Y004760D03*
X026788Y004789D03*
X026788Y004818D03*
X026788Y004847D03*
X026788Y004876D03*
X026788Y004905D03*
X026788Y004934D03*
X026788Y004963D03*
X026788Y004992D03*
X026788Y005021D03*
X026788Y005050D03*
X026788Y005079D03*
X026788Y005108D03*
X026788Y005137D03*
X026788Y005166D03*
X026788Y005195D03*
X026788Y005224D03*
X026788Y005253D03*
X026788Y005282D03*
X026788Y005311D03*
X026788Y005340D03*
X028151Y005601D03*
X028151Y005630D03*
X028151Y005659D03*
X028151Y005688D03*
X028151Y005717D03*
X028151Y005746D03*
X028151Y005775D03*
X027455Y005978D03*
X026846Y006152D03*
X026846Y006181D03*
X029485Y005514D03*
X029485Y005485D03*
X029485Y005456D03*
X029485Y005427D03*
X029485Y005398D03*
X029485Y005369D03*
X031283Y005543D03*
X032298Y005804D03*
X032298Y005833D03*
X032298Y005862D03*
X032298Y005891D03*
X032298Y005920D03*
X032298Y005949D03*
X033603Y006210D03*
X034299Y006007D03*
X035778Y006036D03*
X035778Y006065D03*
X035923Y006181D03*
X036706Y006181D03*
X035865Y006384D03*
X033545Y006413D03*
X033545Y005514D03*
X030036Y004441D03*
X025628Y003861D03*
X025628Y003832D03*
X025628Y003803D03*
X025628Y003774D03*
X025628Y003745D03*
X025628Y003716D03*
X028818Y001802D03*
X028818Y001773D03*
X028818Y001744D03*
X028818Y001715D03*
X028818Y001657D03*
X028586Y001657D03*
X028528Y001512D03*
X028789Y001512D03*
X028789Y001483D03*
X028789Y001541D03*
D16*
X028803Y001570D03*
X028803Y001599D03*
X028803Y001628D03*
X028832Y001686D03*
X028600Y001686D03*
X028600Y001715D03*
X028600Y001744D03*
X028600Y001773D03*
X028600Y001802D03*
X028600Y001831D03*
X028803Y001831D03*
X028571Y001628D03*
X028571Y001599D03*
X028542Y001541D03*
X028513Y001483D03*
X028803Y002150D03*
X028803Y002179D03*
X028803Y002208D03*
X028803Y002237D03*
X028803Y002266D03*
X028803Y002295D03*
X028803Y002324D03*
X028803Y002353D03*
X028803Y002411D03*
X028803Y002440D03*
X028687Y002440D03*
X028658Y002382D03*
X028658Y002353D03*
X028658Y002324D03*
X025961Y003716D03*
X025961Y003745D03*
X025961Y003774D03*
X025961Y003803D03*
X025961Y003832D03*
X025961Y003861D03*
X026773Y003919D03*
X028832Y003890D03*
X030021Y004354D03*
X030021Y004383D03*
X030021Y004412D03*
X030050Y004470D03*
X031877Y004702D03*
X034458Y004557D03*
X034458Y004528D03*
X034458Y004499D03*
X034458Y004470D03*
X033878Y005282D03*
X033907Y005340D03*
X033907Y005369D03*
X033936Y005398D03*
X033965Y005456D03*
X034110Y005717D03*
X034110Y005746D03*
X035183Y005775D03*
X035183Y005804D03*
X035183Y005833D03*
X035183Y005862D03*
X035183Y005891D03*
X035183Y005920D03*
X035183Y005949D03*
X035038Y006036D03*
X035038Y006065D03*
X035038Y006094D03*
X035038Y006123D03*
X035038Y006152D03*
X035038Y006181D03*
X035763Y006007D03*
X035792Y006094D03*
X035792Y006123D03*
X035792Y006152D03*
X035792Y006181D03*
X035531Y006413D03*
X033530Y006384D03*
X033501Y006326D03*
X032863Y005978D03*
X032863Y005949D03*
X032863Y005920D03*
X032863Y005891D03*
X032863Y005862D03*
X032863Y005833D03*
X032863Y005804D03*
X030108Y005775D03*
X030108Y005746D03*
X030108Y005717D03*
X030108Y005688D03*
X030108Y005659D03*
X029992Y005543D03*
X028107Y005978D03*
X028107Y006007D03*
X028107Y006036D03*
X028107Y006065D03*
X028107Y006094D03*
X028107Y006123D03*
X028107Y006152D03*
X026831Y005543D03*
X026831Y005514D03*
X026831Y005485D03*
X026831Y005456D03*
X026831Y005427D03*
X026831Y005398D03*
X023438Y004731D03*
X023438Y004702D03*
X023438Y004673D03*
X023438Y004644D03*
X023438Y004615D03*
X023438Y004586D03*
X023438Y004557D03*
X023061Y004557D03*
X023061Y004586D03*
X023061Y004615D03*
X022655Y004615D03*
X022655Y004586D03*
X022655Y004557D03*
X022655Y004644D03*
X022655Y004673D03*
X022655Y004702D03*
X022655Y004731D03*
X022510Y004731D03*
X022510Y004702D03*
X022510Y004673D03*
X022510Y004644D03*
D17*
X028557Y005369D03*
X028557Y005398D03*
X028557Y005427D03*
X028557Y005456D03*
X028557Y005485D03*
X032037Y005166D03*
X036329Y006413D03*
X031689Y003803D03*
X030094Y003339D03*
X029630Y003716D03*
D18*
X030746Y003513D03*
X030862Y003542D03*
X032892Y003600D03*
X032921Y004151D03*
X030543Y004209D03*
X030340Y004325D03*
X029789Y004035D03*
X032283Y004934D03*
X037126Y006413D03*
D19*
X031718Y004876D03*
X031921Y004760D03*
X030384Y004006D03*
X029920Y003745D03*
X029369Y003513D03*
X029369Y003484D03*
X032733Y003281D03*
X032791Y003252D03*
X032820Y003223D03*
X033284Y003223D03*
X033284Y003020D03*
X027774Y006239D03*
X027774Y006268D03*
X027774Y006297D03*
X027774Y006326D03*
X027774Y006355D03*
X027774Y006384D03*
D20*
X036706Y006384D03*
D21*
X036662Y006355D03*
X036662Y006326D03*
X036662Y006297D03*
X036662Y006268D03*
D22*
X036633Y006239D03*
D23*
X027513Y006210D03*
X030239Y003426D03*
X029340Y003107D03*
D24*
X028919Y002904D03*
X029383Y003861D03*
X029702Y004296D03*
X029702Y004325D03*
X029702Y004354D03*
X029702Y004383D03*
X029702Y004412D03*
X029702Y004441D03*
X029702Y004470D03*
X029702Y004499D03*
X030862Y004470D03*
X033153Y004093D03*
X033153Y004064D03*
X033588Y004035D03*
X033530Y003890D03*
X033530Y003861D03*
X033501Y003832D03*
X033501Y003687D03*
X033443Y003542D03*
X033414Y003513D03*
X033414Y003484D03*
X033385Y003426D03*
X033211Y004528D03*
X033211Y004557D03*
X033211Y004586D03*
X034255Y004876D03*
X034284Y004847D03*
X034226Y004905D03*
X033240Y004905D03*
X033240Y005021D03*
X033240Y005050D03*
X030891Y005514D03*
X029615Y005601D03*
X029615Y005630D03*
X029615Y005659D03*
X029615Y005688D03*
X029615Y005717D03*
X029615Y005746D03*
X029615Y005775D03*
X027788Y006181D03*
X030775Y005166D03*
X030775Y005137D03*
X030775Y005108D03*
X030775Y005079D03*
X030775Y005050D03*
X033907Y006007D03*
X033443Y006123D03*
X033443Y006210D03*
X035096Y006007D03*
X035676Y005949D03*
X035676Y005920D03*
X035676Y005891D03*
X035676Y005862D03*
X035676Y005833D03*
X035676Y005804D03*
X025787Y004093D03*
X025787Y004064D03*
X025787Y004035D03*
X025787Y004006D03*
X025787Y003977D03*
X025787Y003948D03*
D25*
X024859Y003948D03*
X024859Y003977D03*
X024859Y004006D03*
X024859Y004035D03*
X024859Y004064D03*
X024859Y004093D03*
X029354Y003455D03*
X033269Y003252D03*
X035444Y006210D03*
D26*
X036619Y006210D03*
D27*
X032733Y005050D03*
X032211Y004876D03*
X031602Y004963D03*
X030964Y004934D03*
X030413Y004354D03*
X030471Y004122D03*
X031805Y003861D03*
X032298Y003948D03*
X030036Y003281D03*
X029282Y003397D03*
X029021Y003078D03*
X033168Y003136D03*
X027107Y005978D03*
X027194Y006152D03*
X027194Y006181D03*
D28*
X027774Y006152D03*
X027774Y006123D03*
X027774Y006094D03*
X027774Y006065D03*
X027774Y006036D03*
X027774Y006007D03*
X028064Y006181D03*
X029079Y005485D03*
X029079Y005456D03*
X029079Y005427D03*
X029079Y005398D03*
X029079Y005369D03*
X030790Y005224D03*
X030790Y005195D03*
X030819Y005398D03*
X030819Y005427D03*
X033284Y005485D03*
X033342Y005688D03*
X033342Y005717D03*
X033342Y005746D03*
X033429Y006094D03*
X029717Y004180D03*
X028847Y003861D03*
X028789Y003426D03*
X029050Y003426D03*
X029050Y003339D03*
X028789Y003281D03*
X028847Y002759D03*
X028789Y002585D03*
X028760Y002527D03*
X028760Y002498D03*
X033400Y003455D03*
X033487Y003774D03*
X033487Y003803D03*
D29*
X033197Y003948D03*
X033197Y003977D03*
X033197Y004006D03*
X030935Y004296D03*
X030935Y004325D03*
X030906Y004383D03*
X028905Y003832D03*
X026121Y003948D03*
X026121Y003977D03*
X026121Y004006D03*
X026121Y004035D03*
X026121Y004064D03*
X026121Y004093D03*
X028673Y005253D03*
X033255Y004789D03*
X034154Y005659D03*
X033487Y006181D03*
X035372Y006181D03*
X033313Y003194D03*
X033313Y003165D03*
X028963Y002933D03*
D30*
X028629Y002208D03*
X028629Y002179D03*
X028629Y002150D03*
X029499Y005543D03*
X035154Y006036D03*
X035154Y006065D03*
X035154Y006094D03*
X035154Y006123D03*
X035154Y006152D03*
X035154Y006181D03*
X035589Y006181D03*
X035589Y006152D03*
X035589Y006123D03*
X035589Y006094D03*
X035589Y006065D03*
X035589Y006036D03*
D31*
X036532Y006181D03*
X032762Y005978D03*
X032762Y005949D03*
X032762Y005920D03*
X032762Y005891D03*
X032762Y005862D03*
X032762Y005833D03*
X032762Y005804D03*
X031167Y005543D03*
X031167Y005514D03*
X031167Y005485D03*
X031167Y005456D03*
X031167Y005427D03*
X030297Y005485D03*
X030297Y005514D03*
X030297Y005543D03*
X031167Y004963D03*
X026092Y003861D03*
X026092Y003832D03*
X026092Y003803D03*
X026092Y003774D03*
X026092Y003745D03*
X026092Y003716D03*
X028557Y001570D03*
D32*
X033124Y003629D03*
X033124Y003658D03*
X033501Y003658D03*
X033501Y003629D03*
X033182Y003890D03*
X033182Y003919D03*
X031877Y003919D03*
X030369Y003977D03*
X030891Y004412D03*
X030369Y004702D03*
X031906Y004731D03*
X033269Y004818D03*
X033269Y004847D03*
X033269Y004876D03*
X034052Y004992D03*
X034371Y004441D03*
X028629Y005137D03*
X033472Y006152D03*
X035357Y006152D03*
X035357Y006123D03*
X035357Y006094D03*
X035357Y006065D03*
X035357Y006036D03*
X035357Y006007D03*
D33*
X031587Y005050D03*
X032950Y004180D03*
X029905Y003513D03*
X030050Y003310D03*
X029296Y003310D03*
X033153Y003397D03*
X024627Y004122D03*
X027150Y006007D03*
X027150Y006036D03*
X027150Y006065D03*
X027150Y006094D03*
X027150Y006123D03*
D34*
X034270Y005978D03*
D35*
X034154Y005688D03*
X034067Y005572D03*
X035691Y005978D03*
X034183Y004934D03*
X033226Y004702D03*
X033226Y004673D03*
X033226Y004644D03*
X033226Y004615D03*
X033168Y004122D03*
X033168Y004035D03*
X033545Y003919D03*
X033574Y003948D03*
X033603Y004006D03*
X033139Y003774D03*
X033139Y003716D03*
X033139Y003687D03*
X033487Y003600D03*
X033487Y003571D03*
X030355Y003948D03*
X030007Y004180D03*
X030877Y004441D03*
X030848Y004499D03*
X029311Y005369D03*
X029311Y005398D03*
X029311Y005427D03*
X029311Y005456D03*
X029311Y005485D03*
X029311Y005514D03*
X029311Y005543D03*
X029862Y005601D03*
X029862Y005630D03*
X029862Y005659D03*
X029862Y005688D03*
X029862Y005717D03*
X029862Y005746D03*
X029862Y005775D03*
X030906Y005543D03*
X025309Y004122D03*
X023598Y004354D03*
X023598Y004383D03*
X023598Y004412D03*
X023598Y004441D03*
X023598Y004470D03*
X023598Y004499D03*
X028760Y002469D03*
D36*
X034081Y005804D03*
X034081Y005833D03*
X034081Y005862D03*
X034081Y005891D03*
X034081Y005920D03*
X034081Y005949D03*
D37*
X033313Y005630D03*
X033313Y005601D03*
X033313Y005572D03*
X034038Y005543D03*
X033226Y004992D03*
X033226Y004963D03*
X033226Y004934D03*
X034328Y004818D03*
X033603Y004238D03*
X030761Y004963D03*
X030761Y004992D03*
X030761Y005021D03*
X029688Y004557D03*
X029688Y004528D03*
X029688Y004267D03*
X030036Y004209D03*
X025773Y004122D03*
X028818Y002672D03*
X028818Y002643D03*
X033313Y002962D03*
X029166Y005601D03*
X029166Y005630D03*
X029166Y005659D03*
X029166Y005688D03*
X029166Y005717D03*
X029166Y005746D03*
X029166Y005775D03*
D38*
X032066Y005775D03*
D39*
X034545Y005775D03*
X032283Y004064D03*
D40*
X031616Y005601D03*
X031616Y005630D03*
X031616Y005659D03*
X031616Y005688D03*
X031616Y005717D03*
X031616Y005746D03*
D41*
X034139Y005630D03*
X033994Y005021D03*
X033240Y004470D03*
X033240Y004441D03*
X033240Y004412D03*
X033240Y004383D03*
X030920Y004354D03*
X032979Y003165D03*
X029499Y003078D03*
D42*
X033153Y003745D03*
X033153Y003803D03*
X033153Y003832D03*
X033153Y003861D03*
X033588Y003977D03*
X033240Y004499D03*
X033240Y004731D03*
X033240Y004760D03*
X034110Y004963D03*
X034110Y005601D03*
X029528Y004702D03*
X033298Y002991D03*
D43*
X030587Y005572D03*
D44*
X028658Y005543D03*
X028658Y005514D03*
X029702Y003542D03*
D45*
X028948Y003774D03*
X028948Y003803D03*
X029441Y003832D03*
X029180Y004528D03*
X028687Y005224D03*
X024482Y004296D03*
X024482Y004267D03*
X024482Y004238D03*
X024482Y004209D03*
X024482Y004180D03*
X024482Y004151D03*
X033356Y005398D03*
X033385Y005427D03*
X033385Y005456D03*
D46*
X033342Y005369D03*
X033922Y005050D03*
X030500Y004499D03*
X030500Y004470D03*
X031834Y003890D03*
X032588Y003339D03*
X032646Y003310D03*
X029456Y003803D03*
X028934Y003600D03*
X029369Y003426D03*
X028992Y002991D03*
X024874Y003919D03*
X028702Y005195D03*
D47*
X031022Y004876D03*
X033139Y005340D03*
X033429Y004296D03*
X031080Y003600D03*
X029775Y004006D03*
X030355Y004296D03*
D48*
X031515Y004499D03*
X031602Y004412D03*
X031689Y004354D03*
X031138Y004760D03*
X032443Y005021D03*
X033023Y005311D03*
X029688Y003571D03*
D49*
X033661Y004325D03*
X032936Y005282D03*
D50*
X032791Y005253D03*
X032327Y004122D03*
D51*
X030964Y004673D03*
X032704Y005224D03*
D52*
X032675Y005195D03*
X030964Y004615D03*
D53*
X030485Y004441D03*
X030398Y004035D03*
X029934Y003774D03*
X029470Y003774D03*
X029470Y003745D03*
X028948Y003745D03*
X028948Y003716D03*
X028919Y003629D03*
X028919Y003571D03*
X028919Y003542D03*
X028919Y003513D03*
X028919Y003484D03*
X028919Y003455D03*
X029383Y003368D03*
X029383Y003339D03*
X032544Y003368D03*
X033240Y003281D03*
X033240Y003049D03*
X032718Y003629D03*
X032631Y003687D03*
X032602Y003716D03*
X034284Y004412D03*
X031674Y004905D03*
X032196Y005079D03*
X032196Y005108D03*
X031732Y005137D03*
X028716Y005166D03*
D54*
X033182Y005166D03*
D55*
X032211Y005137D03*
X025396Y004093D03*
X025396Y004064D03*
X025396Y004035D03*
X025396Y004006D03*
X025396Y003977D03*
X025396Y003948D03*
X029021Y003020D03*
D56*
X030326Y003484D03*
X033197Y005137D03*
D57*
X031703Y005108D03*
X031645Y004934D03*
X031935Y004789D03*
X030456Y004412D03*
X029209Y004557D03*
X030427Y004064D03*
X029963Y003803D03*
X032109Y003600D03*
X032138Y003571D03*
X032196Y003542D03*
X032254Y003513D03*
X032312Y003484D03*
X032370Y003455D03*
X032428Y003426D03*
X033008Y003426D03*
X033211Y003310D03*
X032486Y003803D03*
X032457Y003832D03*
D58*
X029441Y003165D03*
X033211Y005108D03*
D59*
X031645Y005079D03*
X033095Y004238D03*
X029963Y003832D03*
D60*
X031645Y003774D03*
X031877Y004209D03*
X032921Y005079D03*
D61*
X033762Y005079D03*
X029876Y004151D03*
X030456Y004093D03*
X032341Y003919D03*
X032979Y003484D03*
X026541Y003716D03*
X026541Y003745D03*
X026541Y003774D03*
X026541Y003803D03*
X026541Y003832D03*
X026541Y003861D03*
D62*
X028934Y003687D03*
X028934Y003658D03*
X028934Y003252D03*
X028934Y003223D03*
X028934Y003194D03*
X032472Y003397D03*
X032675Y003658D03*
X032559Y003745D03*
X032530Y003774D03*
X033197Y003078D03*
X032182Y005050D03*
D63*
X032269Y004905D03*
X031573Y005021D03*
X030993Y004905D03*
X030529Y004180D03*
X029804Y004064D03*
X032269Y003977D03*
X032907Y003571D03*
D64*
X032936Y003542D03*
X030500Y004151D03*
X029833Y004093D03*
X029978Y003861D03*
X029398Y004673D03*
X031573Y004992D03*
D65*
X032385Y004992D03*
X029340Y004586D03*
X029311Y004644D03*
X031921Y004180D03*
X033980Y004383D03*
D66*
X031964Y004151D03*
X030601Y004267D03*
X031239Y003658D03*
X029644Y003629D03*
X032341Y004963D03*
D67*
X031993Y004847D03*
X031065Y004847D03*
X029325Y004615D03*
X029760Y003948D03*
D68*
X031834Y004238D03*
X032298Y004035D03*
X031109Y004818D03*
D69*
X031964Y004818D03*
D70*
X031123Y004789D03*
X031471Y004528D03*
X031558Y004470D03*
X031587Y004441D03*
X031645Y004383D03*
X031703Y004325D03*
X031790Y004267D03*
X030485Y004528D03*
X029673Y003600D03*
X030137Y003368D03*
D71*
X030195Y003397D03*
X029760Y003223D03*
X031616Y003745D03*
X031152Y004731D03*
D72*
X031181Y004702D03*
D73*
X030949Y004644D03*
D74*
X030964Y004586D03*
D75*
X030978Y004557D03*
D76*
X032283Y004093D03*
X023090Y004528D03*
D77*
X025367Y003919D03*
X026556Y003687D03*
X029021Y003049D03*
X032066Y003629D03*
X032008Y003658D03*
X032385Y003890D03*
X032414Y003861D03*
X033023Y004209D03*
X030442Y004383D03*
X032994Y003455D03*
X033197Y003339D03*
X033168Y003107D03*
D78*
X031587Y003687D03*
X033733Y004354D03*
D79*
X031587Y003716D03*
X024076Y004325D03*
D80*
X031747Y004296D03*
D81*
X032283Y004006D03*
X033327Y004267D03*
X030572Y004238D03*
X029760Y003977D03*
X029615Y003687D03*
X029615Y003658D03*
X030949Y003571D03*
X031152Y003629D03*
D82*
X032950Y003513D03*
X033182Y003368D03*
X029847Y004122D03*
X025961Y003919D03*
D83*
X029746Y003252D03*
X029862Y003919D03*
D84*
X025758Y003890D03*
D85*
X029833Y003890D03*
D86*
X031718Y003832D03*
X029311Y003281D03*
D87*
X029398Y003136D03*
X030268Y003455D03*
D88*
X029717Y003194D03*
D89*
X028992Y002962D03*
X032907Y003194D03*
D90*
X025776Y002738D02*
X025776Y002625D01*
X025493Y002625D02*
X025380Y002738D01*
X025039Y002738D01*
X025039Y002965D02*
X025039Y002284D01*
X025380Y002284D01*
X025493Y002398D01*
X025493Y002625D01*
X025776Y002398D02*
X025776Y001944D01*
X024766Y002284D02*
X024652Y002284D01*
X024425Y002511D01*
X023651Y002398D02*
X023651Y002738D01*
X023934Y002738D02*
X024161Y002738D01*
X024048Y002738D02*
X024048Y002284D01*
X023934Y002284D01*
X023651Y002398D02*
X023538Y002284D01*
X023311Y002284D01*
X023198Y002398D01*
X022915Y002284D02*
X022575Y002284D01*
X022461Y002398D01*
X022461Y002625D01*
X022575Y002738D01*
X022915Y002738D01*
X023198Y002738D02*
X023198Y002058D01*
X024048Y002058D02*
X024048Y001944D01*
X024425Y002284D02*
X024425Y002738D01*
M02*
