%
M48
M72
T01C0.0197
T02C0.0236
T03C0.0320
T04C0.0354
T05C0.0400
%
T01
X6401Y4552
X6401Y10852
X6401Y17151
X6401Y23450
X6401Y29749
T02
X4651Y28999
X2651Y28749
X7651Y27999
X7651Y26999
X10651Y26999
X11651Y26999
X14651Y26499
X16651Y27999
X17401Y27999
X18651Y27999
X18901Y26499
X16651Y23950
X17401Y23200
X17401Y21700
X16651Y21700
X18651Y21700
X18901Y20200
X16651Y17651
X17401Y16901
X17401Y15401
X16651Y15401
X18651Y15401
X18901Y13901
X16651Y11352
X17401Y10602
X17401Y9102
X16651Y9102
X18651Y9102
X18901Y7602
X16651Y5052
X17401Y4302
X17401Y2802
X16651Y2802
X18651Y2802
X18901Y1302
X14651Y1302
X11651Y1802
X10651Y1802
X7651Y1802
X7651Y2802
X4651Y3802
X2651Y3552
X7651Y8102
X7651Y9102
X4651Y10102
X2651Y9852
X7651Y14401
X7651Y15401
X4651Y16401
X2651Y16151
X7651Y20700
X7651Y21700
X4651Y22700
X2651Y22450
X10651Y23700
X11651Y23700
X14151Y24200
X11651Y20700
X10651Y20700
X14151Y17901
X11651Y17401
X10651Y17401
X10651Y14401
X11651Y14401
X14651Y13901
X14151Y11602
X11651Y11102
X10651Y11102
X10651Y8102
X11651Y8102
X14651Y7602
X14151Y5302
X11651Y4802
X10651Y4802
X14651Y20200
X17401Y29499
X16651Y30249
X14151Y30499
X11651Y29999
X10651Y29999
T03
X6151Y26999
X6151Y25999
X6151Y20700
X6151Y19700
X6151Y14401
X6151Y13401
X6151Y8102
X6151Y7102
X6151Y1802
X6151Y802
T04
X3651Y2023
X3651Y4582
X3651Y8322
X3651Y10881
X3651Y14621
X3651Y17180
X3651Y20920
X3651Y23480
X3651Y27220
X3651Y29779
T05
X761Y2022
X2541Y2022
X2541Y4582
X761Y4582
X761Y8322
X2541Y8322
X2541Y10882
X761Y10882
X761Y14621
X2541Y14621
X2541Y17181
X761Y17181
X761Y20920
X2541Y20920
X2541Y23480
X761Y23480
X761Y27219
X2541Y27219
X2541Y29779
X761Y29779
X16151Y26999
X17151Y26999
X17151Y25999
X16151Y25999
X18151Y25999
X18151Y26999
X18151Y20700
X17151Y20700
X16151Y20700
X16151Y19700
X17151Y19700
X18151Y19700
X18151Y14401
X17151Y14401
X16151Y14401
X16151Y13401
X17151Y13401
X18151Y13401
X18151Y8102
X17151Y8102
X16151Y8102
X16151Y7102
X17151Y7102
X18151Y7102
X18151Y1802
X18151Y802
X17151Y802
X16151Y802
X16151Y1802
X17151Y1802
M30
