G75*
G70*
%OFA0B0*%
%FSLAX24Y24*%
%IPPOS*%
%LPD*%
%AMOC8*
5,1,8,0,0,1.08239X$1,22.5*
%
%ADD10C,0.0000*%
%ADD11R,0.0240X0.0870*%
%ADD12R,0.0740X0.0740*%
%ADD13OC8,0.0740*%
%ADD14C,0.0700*%
%ADD15R,0.0400X0.0450*%
%ADD16R,0.0433X0.0394*%
%ADD17R,0.0394X0.0433*%
%ADD18C,0.0740*%
%ADD19R,0.0248X0.0327*%
%ADD20C,0.0160*%
%ADD21C,0.0240*%
%ADD22C,0.0317*%
%ADD23C,0.0320*%
%ADD24C,0.0356*%
%ADD25C,0.0100*%
%ADD26C,0.0120*%
D10*
X000151Y000302D02*
X000151Y006298D01*
X039021Y006298D01*
X039021Y000302D01*
X000151Y000302D01*
X000151Y006602D02*
X000151Y012598D01*
X039021Y012598D01*
X039021Y006602D01*
X000151Y006602D01*
X000151Y012901D02*
X000151Y018897D01*
X039021Y018897D01*
X039021Y012901D01*
X000151Y012901D01*
X000151Y019200D02*
X000151Y025196D01*
X039021Y025196D01*
X039021Y019200D01*
X000151Y019200D01*
X000151Y025499D02*
X000151Y031495D01*
X039021Y031495D01*
X039021Y025499D01*
X000151Y025499D01*
D11*
X012151Y027474D03*
X012651Y027474D03*
X013151Y027474D03*
X013651Y027474D03*
X014151Y027474D03*
X014651Y027474D03*
X015151Y027474D03*
X015151Y029524D03*
X014651Y029524D03*
X014151Y029524D03*
X013651Y029524D03*
X013151Y029524D03*
X012651Y029524D03*
X012151Y029524D03*
X012151Y023225D03*
X012651Y023225D03*
X013151Y023225D03*
X013651Y023225D03*
X014151Y023225D03*
X014651Y023225D03*
X015151Y023225D03*
X015151Y021175D03*
X014651Y021175D03*
X014151Y021175D03*
X013651Y021175D03*
X013151Y021175D03*
X012651Y021175D03*
X012151Y021175D03*
X012151Y016926D03*
X012651Y016926D03*
X013151Y016926D03*
X013651Y016926D03*
X014151Y016926D03*
X014651Y016926D03*
X015151Y016926D03*
X015151Y014876D03*
X014651Y014876D03*
X014151Y014876D03*
X013651Y014876D03*
X013151Y014876D03*
X012651Y014876D03*
X012151Y014876D03*
X012151Y010627D03*
X012651Y010627D03*
X013151Y010627D03*
X013651Y010627D03*
X014151Y010627D03*
X014651Y010627D03*
X015151Y010627D03*
X015151Y008577D03*
X014651Y008577D03*
X014151Y008577D03*
X013651Y008577D03*
X013151Y008577D03*
X012651Y008577D03*
X012151Y008577D03*
X012151Y004327D03*
X012651Y004327D03*
X013151Y004327D03*
X013651Y004327D03*
X014151Y004327D03*
X014651Y004327D03*
X015151Y004327D03*
X015151Y002277D03*
X014651Y002277D03*
X014151Y002277D03*
X013651Y002277D03*
X013151Y002277D03*
X012651Y002277D03*
X012151Y002277D03*
D12*
X018151Y001802D03*
X018151Y008102D03*
X018151Y014401D03*
X018151Y020700D03*
X018151Y026999D03*
D13*
X018151Y025999D03*
X017151Y025999D03*
X016151Y025999D03*
X016151Y026999D03*
X017151Y026999D03*
X017151Y020700D03*
X016151Y020700D03*
X016151Y019700D03*
X017151Y019700D03*
X018151Y019700D03*
X017151Y014401D03*
X016151Y014401D03*
X016151Y013401D03*
X017151Y013401D03*
X018151Y013401D03*
X017151Y008102D03*
X016151Y008102D03*
X016151Y007102D03*
X017151Y007102D03*
X018151Y007102D03*
X017151Y001802D03*
X016151Y001802D03*
X016151Y000802D03*
X017151Y000802D03*
X018151Y000802D03*
D14*
X003651Y002023D03*
X003651Y004582D03*
X003651Y008322D03*
X003651Y010881D03*
X003651Y014621D03*
X003651Y017180D03*
X003651Y020920D03*
X003651Y023480D03*
X003651Y027220D03*
X003651Y029779D03*
D15*
X004527Y027399D03*
X005275Y027399D03*
X004901Y026599D03*
X004527Y021100D03*
X005275Y021100D03*
X004901Y020300D03*
X004527Y014801D03*
X005275Y014801D03*
X004901Y014001D03*
X004527Y008502D03*
X005275Y008502D03*
X004901Y007702D03*
X004527Y002202D03*
X005275Y002202D03*
X004901Y001402D03*
D16*
X004567Y003052D03*
X005236Y003052D03*
X005236Y005052D03*
X004567Y005052D03*
X003236Y005552D03*
X002567Y005552D03*
X007067Y007102D03*
X007736Y007102D03*
X005236Y009352D03*
X004567Y009352D03*
X004567Y011352D03*
X005236Y011352D03*
X003236Y011852D03*
X002567Y011852D03*
X004567Y015651D03*
X005236Y015651D03*
X005236Y017651D03*
X004567Y017651D03*
X003236Y018151D03*
X002567Y018151D03*
X007067Y019700D03*
X007736Y019700D03*
X005236Y021950D03*
X004567Y021950D03*
X004567Y023950D03*
X005236Y023950D03*
X003236Y024450D03*
X002567Y024450D03*
X007067Y025999D03*
X007736Y025999D03*
X005236Y028249D03*
X004567Y028249D03*
X004567Y030249D03*
X005236Y030249D03*
X003236Y030749D03*
X002567Y030749D03*
X010317Y028999D03*
X010986Y028999D03*
X011067Y027499D03*
X011736Y027499D03*
X012317Y024450D03*
X012986Y024450D03*
X010986Y022700D03*
X010317Y022700D03*
X011067Y021200D03*
X011736Y021200D03*
X012317Y018151D03*
X012986Y018151D03*
X010986Y016401D03*
X010317Y016401D03*
X011067Y014901D03*
X011736Y014901D03*
X012317Y011852D03*
X012986Y011852D03*
X010986Y010102D03*
X010317Y010102D03*
X011067Y008602D03*
X011736Y008602D03*
X012317Y005552D03*
X012986Y005552D03*
X010986Y003802D03*
X010317Y003802D03*
X011067Y002302D03*
X011736Y002302D03*
X007736Y000802D03*
X007067Y000802D03*
X017067Y003552D03*
X017736Y003552D03*
X017986Y005552D03*
X017317Y005552D03*
X017067Y009852D03*
X017736Y009852D03*
X017986Y011852D03*
X017317Y011852D03*
X017067Y016151D03*
X017736Y016151D03*
X017986Y018151D03*
X017317Y018151D03*
X017067Y022450D03*
X017736Y022450D03*
X017986Y024450D03*
X017317Y024450D03*
X017067Y028749D03*
X017736Y028749D03*
X017986Y030749D03*
X017317Y030749D03*
X012986Y030749D03*
X012317Y030749D03*
X007736Y013401D03*
X007067Y013401D03*
D17*
X003651Y015566D03*
X003651Y016235D03*
X003651Y021865D03*
X003651Y022535D03*
X003651Y028165D03*
X003651Y028834D03*
X003651Y009936D03*
X003651Y009267D03*
X003651Y003637D03*
X003651Y002968D03*
D18*
X002541Y002022D03*
X000761Y002022D03*
X000761Y004582D03*
X002541Y004582D03*
X006151Y007102D03*
X006151Y008102D03*
X002541Y008322D03*
X000761Y008322D03*
X000761Y010882D03*
X002541Y010882D03*
X006151Y013401D03*
X006151Y014401D03*
X002541Y014621D03*
X000761Y014621D03*
X000761Y017181D03*
X002541Y017181D03*
X006151Y019700D03*
X006151Y020700D03*
X002541Y020920D03*
X000761Y020920D03*
X000761Y023480D03*
X002541Y023480D03*
X006151Y025999D03*
X006151Y026999D03*
X002541Y027219D03*
X000761Y027219D03*
X000761Y029779D03*
X002541Y029779D03*
X006151Y001802D03*
X006151Y000802D03*
D19*
X017198Y004802D03*
X018104Y004802D03*
X018104Y011102D03*
X017198Y011102D03*
X017198Y017401D03*
X018104Y017401D03*
X018104Y023700D03*
X017198Y023700D03*
X017198Y029999D03*
X018104Y029999D03*
D20*
X017401Y029499D02*
X015176Y029499D01*
X015151Y029524D01*
X016651Y027999D02*
X017151Y027499D01*
X017151Y026999D01*
X016651Y026499D02*
X017151Y025999D01*
X018151Y025999D02*
X018401Y025999D01*
X018901Y026499D01*
X018151Y026999D02*
X018151Y027499D01*
X017651Y027999D01*
X017401Y027999D01*
X016151Y027749D02*
X015176Y027749D01*
X015151Y027474D01*
X014651Y027474D02*
X014651Y026499D01*
X014151Y025999D02*
X013651Y026499D01*
X013651Y027474D01*
X013151Y027474D02*
X013151Y026999D01*
X012401Y026249D01*
X008151Y026249D01*
X007736Y025999D01*
X007067Y025999D02*
X006151Y025999D01*
X006651Y026499D02*
X006151Y026999D01*
X006651Y026499D02*
X012151Y026499D01*
X012651Y026999D01*
X012651Y027474D01*
X012151Y027474D02*
X012126Y027499D01*
X011736Y027499D01*
X012151Y027474D02*
X011676Y026999D01*
X011651Y026999D01*
X014151Y025999D02*
X015151Y025999D01*
X016151Y026999D01*
X017317Y024450D02*
X017198Y024342D01*
X017401Y023200D02*
X015176Y023200D01*
X015151Y023225D01*
X016651Y021700D02*
X017151Y021200D01*
X017151Y020700D01*
X016651Y020200D02*
X017151Y019700D01*
X018151Y019700D02*
X018401Y019700D01*
X018901Y020200D01*
X018151Y020700D02*
X018151Y021200D01*
X017651Y021700D01*
X017401Y021700D01*
X016151Y021450D02*
X015176Y021450D01*
X015151Y021175D01*
X014651Y021175D02*
X014651Y020200D01*
X014151Y019700D02*
X013651Y020200D01*
X013651Y021175D01*
X013151Y021175D02*
X013151Y020700D01*
X012401Y019950D01*
X008151Y019950D01*
X007736Y019700D01*
X007067Y019700D02*
X006151Y019700D01*
X006651Y020200D02*
X006151Y020700D01*
X006651Y020200D02*
X012151Y020200D01*
X012651Y020700D01*
X012651Y021175D01*
X012151Y021175D02*
X012126Y021200D01*
X011736Y021200D01*
X012151Y021175D02*
X011676Y020700D01*
X011651Y020700D01*
X014151Y019700D02*
X015151Y019700D01*
X016151Y020700D01*
X017317Y018151D02*
X017198Y018043D01*
X017401Y016901D02*
X015176Y016901D01*
X015151Y016926D01*
X016651Y015401D02*
X017151Y014901D01*
X017151Y014401D01*
X016651Y013901D02*
X017151Y013401D01*
X018151Y013401D02*
X018401Y013401D01*
X018901Y013901D01*
X018151Y014401D02*
X018151Y014901D01*
X017651Y015401D01*
X017401Y015401D01*
X016151Y015151D02*
X015176Y015151D01*
X015151Y014876D01*
X014651Y014876D02*
X014651Y013901D01*
X014151Y013401D02*
X013651Y013901D01*
X013651Y014876D01*
X013151Y014876D02*
X013151Y014401D01*
X012401Y013651D01*
X008151Y013651D01*
X007736Y013401D01*
X007067Y013401D02*
X006151Y013401D01*
X006651Y013901D02*
X006151Y014401D01*
X006651Y013901D02*
X012151Y013901D01*
X012651Y014401D01*
X012651Y014876D01*
X012151Y014876D02*
X012126Y014901D01*
X011736Y014901D01*
X012151Y014876D02*
X011676Y014401D01*
X011651Y014401D01*
X014151Y013401D02*
X015151Y013401D01*
X016151Y014401D01*
X017317Y011852D02*
X017198Y011743D01*
X017401Y010602D02*
X015176Y010602D01*
X015151Y010627D01*
X016651Y009102D02*
X017151Y008602D01*
X017151Y008102D01*
X016651Y007602D02*
X017151Y007102D01*
X018151Y007102D02*
X018401Y007102D01*
X018901Y007602D01*
X018151Y008102D02*
X018151Y008602D01*
X017651Y009102D01*
X017401Y009102D01*
X016151Y008852D02*
X015176Y008852D01*
X015151Y008577D01*
X014651Y008577D02*
X014651Y007602D01*
X014151Y007102D02*
X013651Y007602D01*
X013651Y008577D01*
X013151Y008577D02*
X013151Y008102D01*
X012401Y007352D01*
X008151Y007352D01*
X007736Y007102D01*
X007067Y007102D02*
X006151Y007102D01*
X006651Y007602D02*
X006151Y008102D01*
X006651Y007602D02*
X012151Y007602D01*
X012651Y008102D01*
X012651Y008577D01*
X012151Y008577D02*
X012126Y008602D01*
X011736Y008602D01*
X012151Y008577D02*
X011676Y008102D01*
X011651Y008102D01*
X014151Y007102D02*
X015151Y007102D01*
X016151Y008102D01*
X017317Y005552D02*
X017198Y005444D01*
X017401Y004302D02*
X015176Y004302D01*
X015151Y004327D01*
X016651Y002802D02*
X017151Y002302D01*
X017151Y001802D01*
X016651Y001302D02*
X017151Y000802D01*
X018151Y000802D02*
X018401Y000802D01*
X018901Y001302D01*
X018151Y001802D02*
X018151Y002302D01*
X017651Y002802D01*
X017401Y002802D01*
X016151Y002552D02*
X015176Y002552D01*
X015151Y002277D01*
X014651Y002277D02*
X014651Y001302D01*
X014151Y000802D02*
X013651Y001302D01*
X013651Y002277D01*
X013151Y002277D02*
X013151Y001802D01*
X012401Y001052D01*
X008151Y001052D01*
X007736Y000802D01*
X007067Y000802D02*
X006151Y000802D01*
X006651Y001302D02*
X006151Y001802D01*
X006651Y001302D02*
X012151Y001302D01*
X012651Y001802D01*
X012651Y002277D01*
X012151Y002277D02*
X012126Y002302D01*
X011736Y002302D01*
X012151Y002277D02*
X011676Y001802D01*
X011651Y001802D01*
X014151Y000802D02*
X015151Y000802D01*
X016151Y001802D01*
X013151Y005387D02*
X012986Y005552D01*
X012986Y005637D01*
X007651Y008102D02*
X006901Y008852D01*
X005427Y008852D01*
X004901Y007702D02*
X004272Y007702D01*
X003651Y008322D01*
X002557Y008306D02*
X002541Y008322D01*
X003651Y009936D02*
X003769Y010054D01*
X003681Y010852D02*
X003651Y010881D01*
X004557Y011287D02*
X004567Y011352D01*
X002567Y010907D02*
X002541Y010882D01*
X004272Y014001D02*
X003651Y014621D01*
X004272Y014001D02*
X004901Y014001D01*
X005427Y015151D02*
X006901Y015151D01*
X007651Y014401D01*
X003769Y016354D02*
X003651Y016235D01*
X003681Y017151D02*
X003651Y017180D01*
X004557Y017586D02*
X004567Y017651D01*
X002567Y017206D02*
X002541Y017181D01*
X002541Y014621D02*
X002557Y014605D01*
X004272Y020300D02*
X003651Y020920D01*
X004272Y020300D02*
X004901Y020300D01*
X005427Y021450D02*
X006901Y021450D01*
X007651Y020700D01*
X003769Y022653D02*
X003651Y022535D01*
X003681Y023450D02*
X003651Y023480D01*
X004557Y023885D02*
X004567Y023950D01*
X002567Y023505D02*
X002541Y023480D01*
X002541Y020920D02*
X002557Y020904D01*
X004272Y026599D02*
X003651Y027220D01*
X004272Y026599D02*
X004901Y026599D01*
X005427Y027749D02*
X006901Y027749D01*
X007651Y026999D01*
X003769Y028952D02*
X003651Y028834D01*
X003681Y029749D02*
X003651Y029779D01*
X004557Y030184D02*
X004567Y030249D01*
X002567Y029805D02*
X002541Y029779D01*
X002541Y027219D02*
X002557Y027204D01*
X012986Y024535D02*
X012986Y024450D01*
X013151Y024285D01*
X012986Y018235D02*
X012986Y018151D01*
X013151Y017985D01*
X012986Y011936D02*
X012986Y011852D01*
X013151Y011686D01*
X004567Y005052D02*
X004557Y004987D01*
X003681Y004552D02*
X003651Y004582D01*
X003769Y003755D02*
X003651Y003637D01*
X002567Y004608D02*
X002541Y004582D01*
X005427Y002552D02*
X006901Y002552D01*
X007651Y001802D01*
X004901Y001402D02*
X004272Y001402D01*
X003651Y002023D01*
X002557Y002007D02*
X002541Y002022D01*
X013151Y030584D02*
X012986Y030749D01*
X012986Y030834D01*
X017198Y030641D02*
X017317Y030749D01*
D21*
X017057Y030999D01*
X013151Y030999D01*
X012986Y030834D01*
X013151Y030584D02*
X013151Y029524D01*
X013151Y028499D02*
X013651Y027999D01*
X013651Y027474D01*
X013151Y028499D02*
X011151Y028499D01*
X010996Y028655D01*
X010986Y028999D01*
X011151Y028499D02*
X006151Y028499D01*
X005651Y028999D01*
X004651Y028999D01*
X004122Y029749D02*
X004557Y030184D01*
X003651Y029779D02*
X003236Y030194D01*
X003236Y030749D01*
X002567Y030749D02*
X002567Y029805D01*
X002541Y029779D02*
X002541Y027219D01*
X002541Y028639D01*
X002651Y028749D01*
X003651Y028834D02*
X003651Y029779D01*
X005236Y028249D02*
X005427Y028058D01*
X005427Y027749D01*
X005275Y027399D01*
X003651Y027220D02*
X003651Y028165D01*
X003769Y028046D01*
X003236Y024450D02*
X003236Y023895D01*
X003651Y023480D01*
X003651Y022535D01*
X003651Y021865D02*
X003651Y020920D01*
X003769Y021747D02*
X003651Y021865D01*
X004651Y022700D02*
X005651Y022700D01*
X006151Y022200D01*
X011151Y022200D01*
X010996Y022356D01*
X010986Y022700D01*
X011151Y022200D02*
X013151Y022200D01*
X013651Y021700D01*
X013651Y021175D01*
X013151Y023225D02*
X013151Y024285D01*
X012986Y024535D02*
X013151Y024700D01*
X017057Y024700D01*
X017317Y024450D01*
X017198Y024342D02*
X017198Y023700D01*
X016651Y023950D02*
X014901Y023950D01*
X014651Y023700D01*
X014651Y023225D01*
X018104Y022997D02*
X018651Y022450D01*
X018104Y022997D02*
X018104Y023700D01*
X018651Y028749D02*
X018104Y029296D01*
X018104Y029999D01*
X017198Y029999D02*
X017198Y030641D01*
X016651Y030249D02*
X014901Y030249D01*
X014651Y029999D01*
X014651Y029524D01*
X005427Y021759D02*
X005236Y021950D01*
X005427Y021759D02*
X005427Y021450D01*
X005275Y021100D01*
X002541Y020920D02*
X002541Y022340D01*
X002651Y022450D01*
X002541Y023480D02*
X002541Y020920D01*
X002567Y023505D02*
X002567Y024450D01*
X004122Y023450D02*
X004557Y023885D01*
X003236Y018151D02*
X003236Y017596D01*
X003651Y017180D01*
X003651Y016235D01*
X003651Y015566D02*
X003651Y014621D01*
X003769Y015448D02*
X003651Y015566D01*
X002651Y016151D02*
X002541Y016041D01*
X002541Y014621D01*
X002541Y017181D01*
X002567Y017206D02*
X002567Y018151D01*
X004122Y017151D02*
X004557Y017586D01*
X004651Y016401D02*
X005651Y016401D01*
X006151Y015901D01*
X011151Y015901D01*
X010996Y016056D01*
X010986Y016401D01*
X011151Y015901D02*
X013151Y015901D01*
X013651Y015401D01*
X013651Y014876D01*
X013151Y016926D02*
X013151Y017985D01*
X012986Y018235D02*
X013151Y018401D01*
X017057Y018401D01*
X017317Y018151D01*
X017198Y018043D02*
X017198Y017401D01*
X016651Y017651D02*
X014901Y017651D01*
X014651Y017401D01*
X014651Y016926D01*
X018104Y016698D02*
X018651Y016151D01*
X018104Y016698D02*
X018104Y017401D01*
X017057Y012102D02*
X013151Y012102D01*
X012986Y011936D01*
X013151Y011686D02*
X013151Y010627D01*
X013151Y009602D02*
X013651Y009102D01*
X013651Y008577D01*
X013151Y009602D02*
X011151Y009602D01*
X010996Y009757D01*
X010986Y010102D01*
X011151Y009602D02*
X006151Y009602D01*
X005651Y010102D01*
X004651Y010102D01*
X004122Y010852D02*
X004557Y011287D01*
X003651Y010881D02*
X003236Y011296D01*
X003236Y011852D01*
X002567Y011852D02*
X002567Y010907D01*
X002541Y010882D02*
X002541Y008322D01*
X002541Y009742D01*
X002651Y009852D01*
X003651Y009936D02*
X003651Y010881D01*
X005236Y009352D02*
X005427Y009160D01*
X005427Y008852D01*
X005275Y008502D01*
X003651Y008322D02*
X003651Y009267D01*
X003769Y009149D01*
X003236Y005552D02*
X003236Y004997D01*
X003651Y004582D01*
X003651Y003637D01*
X003651Y002968D02*
X003651Y002023D01*
X003769Y002850D02*
X003651Y002968D01*
X004651Y003802D02*
X005651Y003802D01*
X006151Y003302D01*
X011151Y003302D01*
X010996Y003458D01*
X010986Y003802D01*
X011151Y003302D02*
X013151Y003302D01*
X013651Y002802D01*
X013651Y002277D01*
X013151Y004327D02*
X013151Y005387D01*
X012986Y005637D02*
X013151Y005802D01*
X017057Y005802D01*
X017317Y005552D01*
X017198Y005444D02*
X017198Y004802D01*
X016651Y005052D02*
X014901Y005052D01*
X014651Y004802D01*
X014651Y004327D01*
X018104Y004100D02*
X018651Y003552D01*
X018104Y004100D02*
X018104Y004802D01*
X018651Y009852D02*
X018104Y010399D01*
X018104Y011102D01*
X017198Y011102D02*
X017198Y011743D01*
X017317Y011852D02*
X017057Y012102D01*
X016651Y011352D02*
X014901Y011352D01*
X014651Y011102D01*
X014651Y010627D01*
X005275Y014801D02*
X005427Y015151D01*
X005427Y015459D01*
X005236Y015651D01*
X002567Y005552D02*
X002567Y004608D01*
X002541Y004582D02*
X002541Y002022D01*
X002541Y003442D01*
X002651Y003552D01*
X004122Y004552D02*
X004557Y004987D01*
X005236Y003052D02*
X005427Y002861D01*
X005427Y002552D01*
X005275Y002202D01*
D22*
X006401Y004552D03*
X006401Y010852D03*
X006401Y017151D03*
X006401Y023450D03*
X006401Y029749D03*
D23*
X004122Y029749D01*
X003651Y029779D01*
X007651Y027999D02*
X011651Y027999D01*
X011746Y027905D01*
X011736Y027499D01*
X014151Y027474D02*
X014151Y027999D01*
X014901Y028749D01*
X017067Y028749D01*
X017736Y028749D02*
X018651Y028749D01*
X018698Y028749D01*
X018948Y028499D01*
X020651Y028499D01*
X021143Y027758D01*
X018698Y022450D02*
X018948Y022200D01*
X020651Y022200D01*
X021143Y021459D01*
X018698Y022450D02*
X018651Y022450D01*
X017736Y022450D01*
X017067Y022450D02*
X014901Y022450D01*
X014151Y021700D01*
X014151Y021175D01*
X011736Y021200D02*
X011746Y021606D01*
X011651Y021700D01*
X007651Y021700D01*
X006401Y023450D02*
X004122Y023450D01*
X003651Y023480D01*
X003651Y017180D02*
X004122Y017151D01*
X006401Y017151D01*
X007651Y015401D02*
X011651Y015401D01*
X011746Y015306D01*
X011736Y014901D01*
X014151Y014876D02*
X014151Y015401D01*
X014901Y016151D01*
X017067Y016151D01*
X017736Y016151D02*
X018651Y016151D01*
X018698Y016151D01*
X018948Y015901D01*
X020651Y015901D01*
X021143Y015159D01*
X018698Y009852D02*
X018948Y009602D01*
X020651Y009602D01*
X021143Y008860D01*
X018698Y009852D02*
X018651Y009852D01*
X017736Y009852D01*
X017067Y009852D02*
X014901Y009852D01*
X014151Y009102D01*
X014151Y008577D01*
X011736Y008602D02*
X011746Y009007D01*
X011651Y009102D01*
X007651Y009102D01*
X006401Y010852D02*
X004122Y010852D01*
X003651Y010881D01*
X003651Y004582D02*
X004122Y004552D01*
X006401Y004552D01*
X007651Y002802D02*
X011651Y002802D01*
X011746Y002708D01*
X011736Y002302D01*
X014151Y002277D02*
X014151Y002802D01*
X014901Y003552D01*
X017067Y003552D01*
X017736Y003552D02*
X018651Y003552D01*
X018698Y003552D01*
X018948Y003302D01*
X020651Y003302D01*
X021143Y002561D01*
D24*
X018901Y001302D03*
X018651Y002802D03*
X017401Y002802D03*
X016651Y002802D03*
X017401Y004302D03*
X016651Y005052D03*
X014151Y005302D03*
X014651Y007602D03*
X016651Y009102D03*
X017401Y009102D03*
X018651Y009102D03*
X018901Y007602D03*
X017401Y010602D03*
X016651Y011352D03*
X014151Y011602D03*
X014651Y013901D03*
X016651Y015401D03*
X017401Y015401D03*
X018651Y015401D03*
X017401Y016901D03*
X016651Y017651D03*
X014151Y017901D03*
X011651Y017401D03*
X010651Y017401D03*
X007651Y015401D03*
X007651Y014401D03*
X010651Y014401D03*
X011651Y014401D03*
X011651Y011102D03*
X010651Y011102D03*
X007651Y009102D03*
X007651Y008102D03*
X010651Y008102D03*
X011651Y008102D03*
X011651Y004802D03*
X010651Y004802D03*
X007651Y002802D03*
X007651Y001802D03*
X010651Y001802D03*
X011651Y001802D03*
X014651Y001302D03*
X004651Y003802D03*
X002651Y003552D03*
X002651Y009852D03*
X004651Y010102D03*
X002651Y016151D03*
X004651Y016401D03*
X007651Y020700D03*
X007651Y021700D03*
X004651Y022700D03*
X002651Y022450D03*
X007651Y026999D03*
X007651Y027999D03*
X004651Y028999D03*
X002651Y028749D03*
X010651Y029999D03*
X011651Y029999D03*
X014151Y030499D03*
X016651Y030249D03*
X017401Y029499D03*
X017401Y027999D03*
X016651Y027999D03*
X018651Y027999D03*
X018901Y026499D03*
X016651Y023950D03*
X017401Y023200D03*
X017401Y021700D03*
X016651Y021700D03*
X018651Y021700D03*
X018901Y020200D03*
X014651Y020200D03*
X011651Y020700D03*
X010651Y020700D03*
X010651Y023700D03*
X011651Y023700D03*
X014151Y024200D03*
X014651Y026499D03*
X011651Y026999D03*
X010651Y026999D03*
X018901Y013901D03*
D25*
X018671Y014135D02*
X018671Y014833D01*
X018651Y014853D01*
X018651Y015401D01*
X019151Y015401D01*
X019164Y015223D01*
X019202Y015049D01*
X019264Y014882D01*
X019350Y014725D01*
X019456Y014582D01*
X019583Y014456D01*
X019725Y014349D01*
X019882Y014264D01*
X020049Y014201D01*
X020223Y014164D01*
X020401Y014151D01*
X036901Y014151D01*
X037114Y014148D01*
X037326Y014174D01*
X037533Y014227D01*
X037730Y014306D01*
X037916Y014410D01*
X038087Y014538D01*
X038239Y014687D01*
X038371Y014855D01*
X038480Y015038D01*
X038563Y015234D01*
X038621Y015440D01*
X038651Y015651D01*
X038651Y016151D01*
X038621Y016362D01*
X038563Y016567D01*
X038480Y016763D01*
X038371Y016947D01*
X038239Y017114D01*
X038087Y017263D01*
X037916Y017391D01*
X037730Y017496D01*
X037533Y017575D01*
X037326Y017628D01*
X037114Y017653D01*
X036901Y017651D01*
X020651Y017651D01*
X020471Y017655D01*
X020291Y017636D01*
X020115Y017594D01*
X019947Y017529D01*
X019788Y017443D01*
X019642Y017336D01*
X019511Y017212D01*
X019398Y017072D01*
X019304Y016917D01*
X019230Y016752D01*
X019179Y016579D01*
X019151Y016401D01*
X019151Y018747D01*
X038871Y018747D01*
X038871Y013051D01*
X018651Y013051D01*
X018651Y013165D01*
X018671Y013185D01*
X018671Y013346D01*
X018898Y013573D01*
X018966Y013573D01*
X019087Y013623D01*
X019179Y013715D01*
X019229Y013835D01*
X019229Y013966D01*
X019179Y014087D01*
X019087Y014179D01*
X018966Y014229D01*
X018836Y014229D01*
X018715Y014179D01*
X018671Y014135D01*
X018671Y014833D01*
X018583Y014921D01*
X018381Y014921D01*
X018381Y014996D01*
X017746Y015631D01*
X017635Y015631D01*
X017587Y015679D01*
X017466Y015729D01*
X017336Y015729D01*
X017215Y015679D01*
X017123Y015587D01*
X017073Y015466D01*
X017073Y015335D01*
X017095Y015282D01*
X016979Y015398D01*
X016979Y015466D01*
X016929Y015587D01*
X016837Y015679D01*
X016716Y015729D01*
X016586Y015729D01*
X016465Y015679D01*
X016373Y015587D01*
X016323Y015466D01*
X016323Y015335D01*
X016345Y015282D01*
X016246Y015381D01*
X015413Y015381D01*
X015333Y015461D01*
X014969Y015461D01*
X014901Y015393D01*
X014833Y015461D01*
X014649Y015461D01*
X015030Y015841D01*
X016751Y015841D01*
X016788Y015804D01*
X017345Y015804D01*
X017401Y015860D01*
X017457Y015804D01*
X018014Y015804D01*
X018051Y015841D01*
X018570Y015841D01*
X018773Y015638D01*
X018887Y015591D01*
X019010Y015591D01*
X019151Y015591D01*
X019151Y014115D01*
X019087Y014179D01*
X018966Y014229D01*
X018836Y014229D01*
X018715Y014179D01*
X018671Y014135D01*
X018671Y014197D02*
X018759Y014197D01*
X018671Y014197D01*
X018671Y014296D02*
X019824Y014296D01*
X019665Y014394D02*
X018671Y014394D01*
X019151Y014394D01*
X019151Y014296D02*
X018671Y014296D01*
X018671Y014493D02*
X019546Y014493D01*
X019450Y014591D02*
X018671Y014591D01*
X019151Y014591D01*
X019151Y014493D02*
X018671Y014493D01*
X018671Y014690D02*
X019376Y014690D01*
X019315Y014788D02*
X018671Y014788D01*
X019151Y014788D01*
X019151Y014690D02*
X018671Y014690D01*
X018651Y014887D02*
X019262Y014887D01*
X019225Y014985D02*
X018651Y014985D01*
X018651Y015084D02*
X019194Y015084D01*
X019151Y015084D02*
X018293Y015084D01*
X018381Y014985D02*
X019151Y014985D01*
X019151Y014887D02*
X018617Y014887D01*
X018651Y015182D02*
X019173Y015182D01*
X019151Y015182D02*
X018195Y015182D01*
X018096Y015281D02*
X019151Y015281D01*
X019160Y015281D02*
X018651Y015281D01*
X018651Y015379D02*
X019153Y015379D01*
X019151Y015379D02*
X017998Y015379D01*
X017899Y015478D02*
X019151Y015478D01*
X019151Y015577D02*
X017801Y015577D01*
X017591Y015675D02*
X018736Y015675D01*
X018637Y015774D02*
X014962Y015774D01*
X014864Y015675D02*
X016462Y015675D01*
X016369Y015577D02*
X014765Y015577D01*
X014667Y015478D02*
X016328Y015478D01*
X016323Y015379D02*
X016248Y015379D01*
X016841Y015675D02*
X017212Y015675D01*
X017119Y015577D02*
X016933Y015577D01*
X016974Y015478D02*
X017078Y015478D01*
X017073Y015379D02*
X016998Y015379D01*
X016751Y016461D02*
X015421Y016461D01*
X015421Y016671D01*
X017167Y016671D01*
X017215Y016623D01*
X017336Y016573D01*
X017466Y016573D01*
X017587Y016623D01*
X017679Y016715D01*
X017729Y016835D01*
X017729Y016966D01*
X017679Y017087D01*
X017587Y017179D01*
X017472Y017226D01*
X017472Y017626D01*
X017468Y017630D01*
X017468Y017804D01*
X017595Y017804D01*
X017651Y017860D01*
X017677Y017834D01*
X017711Y017814D01*
X017750Y017804D01*
X017937Y017804D01*
X017937Y018102D01*
X018034Y018102D01*
X018034Y017804D01*
X018222Y017804D01*
X018260Y017814D01*
X018294Y017834D01*
X018322Y017862D01*
X018342Y017896D01*
X018352Y017934D01*
X018352Y018102D01*
X018034Y018102D01*
X018034Y018199D01*
X017937Y018199D01*
X017937Y018498D01*
X017750Y018498D01*
X017711Y018487D01*
X017677Y018468D01*
X017651Y018442D01*
X017595Y018498D01*
X017345Y018498D01*
X017246Y018594D01*
X017210Y018630D01*
X017207Y018631D01*
X017205Y018633D01*
X017158Y018651D01*
X017110Y018671D01*
X017108Y018671D01*
X017105Y018672D01*
X017055Y018671D01*
X013205Y018671D01*
X013097Y018671D01*
X012998Y018630D01*
X012866Y018498D01*
X012707Y018498D01*
X012651Y018442D01*
X012625Y018468D01*
X012591Y018487D01*
X012553Y018498D01*
X012365Y018498D01*
X012365Y018199D01*
X012268Y018199D01*
X012268Y018102D01*
X012365Y018102D01*
X012365Y017804D01*
X012553Y017804D01*
X012591Y017814D01*
X012625Y017834D01*
X012651Y017860D01*
X012707Y017804D01*
X012881Y017804D01*
X012881Y017463D01*
X012833Y017511D01*
X012469Y017511D01*
X012398Y017440D01*
X012391Y017453D01*
X012363Y017481D01*
X012329Y017501D01*
X012291Y017511D01*
X012161Y017511D01*
X012161Y016936D01*
X012141Y016936D01*
X012141Y017511D01*
X012011Y017511D01*
X011973Y017501D01*
X011939Y017481D01*
X011911Y017453D01*
X011891Y017419D01*
X011881Y017381D01*
X011881Y016936D01*
X012141Y016936D01*
X012141Y016916D01*
X011881Y016916D01*
X011881Y016471D01*
X011891Y016433D01*
X011911Y016399D01*
X011939Y016371D01*
X011973Y016351D01*
X012011Y016341D01*
X012141Y016341D01*
X012141Y016916D01*
X012161Y016916D01*
X012161Y016341D01*
X012291Y016341D01*
X012329Y016351D01*
X012363Y016371D01*
X012391Y016399D01*
X012398Y016411D01*
X012469Y016341D01*
X012833Y016341D01*
X012901Y016409D01*
X012969Y016341D01*
X013333Y016341D01*
X013401Y016409D01*
X013469Y016341D01*
X013833Y016341D01*
X013901Y016409D01*
X013969Y016341D01*
X014333Y016341D01*
X014401Y016409D01*
X014469Y016341D01*
X014653Y016341D01*
X014638Y016326D01*
X013888Y015576D01*
X013879Y015554D01*
X013804Y015630D01*
X013304Y016130D01*
X013205Y016171D01*
X013097Y016171D01*
X011352Y016171D01*
X011352Y016660D01*
X011264Y016748D01*
X010707Y016748D01*
X010651Y016692D01*
X010625Y016718D01*
X010591Y016737D01*
X010553Y016748D01*
X010365Y016748D01*
X010365Y016449D01*
X010268Y016449D01*
X010268Y016352D01*
X009950Y016352D01*
X009950Y016184D01*
X009954Y016171D01*
X006263Y016171D01*
X005804Y016630D01*
X005705Y016671D01*
X005597Y016671D01*
X004845Y016671D01*
X004837Y016679D01*
X004716Y016729D01*
X004586Y016729D01*
X004465Y016679D01*
X004373Y016587D01*
X004323Y016466D01*
X004323Y016335D01*
X004373Y016215D01*
X004465Y016123D01*
X004586Y016073D01*
X004716Y016073D01*
X004837Y016123D01*
X004845Y016131D01*
X005539Y016131D01*
X005922Y015748D01*
X005998Y015672D01*
X006097Y015631D01*
X007417Y015631D01*
X007373Y015587D01*
X007323Y015466D01*
X007323Y015335D01*
X007373Y015215D01*
X007465Y015123D01*
X007586Y015073D01*
X007716Y015073D01*
X007760Y015091D01*
X010700Y015091D01*
X010700Y014949D01*
X011018Y014949D01*
X011018Y014852D01*
X011115Y014852D01*
X011115Y014554D01*
X011303Y014554D01*
X011341Y014564D01*
X011371Y014581D01*
X011323Y014466D01*
X011323Y014335D01*
X011373Y014215D01*
X011457Y014131D01*
X007845Y014131D01*
X007929Y014215D01*
X007979Y014335D01*
X007979Y014466D01*
X007929Y014587D01*
X007837Y014679D01*
X007716Y014729D01*
X007648Y014729D01*
X007131Y015246D01*
X006996Y015381D01*
X005697Y015381D01*
X005697Y015406D01*
X005697Y015513D01*
X005656Y015612D01*
X005602Y015666D01*
X005602Y015910D01*
X005514Y015998D01*
X004957Y015998D01*
X004901Y015942D01*
X004875Y015968D01*
X004841Y015987D01*
X004803Y015998D01*
X004615Y015998D01*
X004615Y015699D01*
X004518Y015699D01*
X004518Y015602D01*
X004615Y015602D01*
X004615Y015304D01*
X004803Y015304D01*
X004841Y015314D01*
X004875Y015334D01*
X004901Y015360D01*
X004957Y015304D01*
X005157Y015304D01*
X005157Y015207D01*
X005144Y015176D01*
X005013Y015176D01*
X004925Y015088D01*
X004925Y014514D01*
X005013Y014426D01*
X005537Y014426D01*
X005625Y014514D01*
X005625Y014921D01*
X006806Y014921D01*
X007323Y014404D01*
X007323Y014335D01*
X007373Y014215D01*
X007457Y014131D01*
X006746Y014131D01*
X006644Y014233D01*
X006671Y014297D01*
X006671Y014504D01*
X006592Y014695D01*
X006446Y014842D01*
X006255Y014921D01*
X006048Y014921D01*
X005857Y014842D01*
X005710Y014695D01*
X005631Y014504D01*
X005631Y014297D01*
X005710Y014106D01*
X005857Y013960D01*
X006000Y013901D01*
X005857Y013842D01*
X005710Y013695D01*
X005631Y013504D01*
X005631Y013297D01*
X005710Y013106D01*
X005766Y013051D01*
X000301Y013051D01*
X000301Y014378D01*
X000316Y014348D01*
X000365Y014282D01*
X000422Y014224D01*
X000489Y014176D01*
X000562Y014139D01*
X000639Y014114D01*
X000711Y014102D01*
X000711Y014571D01*
X000811Y014571D01*
X000811Y014671D01*
X000711Y014671D01*
X000711Y015139D01*
X000639Y015128D01*
X000562Y015103D01*
X000489Y015066D01*
X000422Y015017D01*
X000365Y014960D01*
X000316Y014893D01*
X000301Y014863D01*
X000301Y016938D01*
X000316Y016908D01*
X000365Y016842D01*
X000422Y016784D01*
X000489Y016736D01*
X000562Y016699D01*
X000639Y016674D01*
X000711Y016662D01*
X000711Y017131D01*
X000811Y017131D01*
X000811Y017231D01*
X000711Y017231D01*
X000711Y017699D01*
X000639Y017688D01*
X000562Y017663D01*
X000489Y017626D01*
X000422Y017577D01*
X000365Y017520D01*
X000316Y017453D01*
X000301Y017423D01*
X000301Y018747D01*
X019151Y018747D01*
X019151Y016211D01*
X019077Y016211D01*
X018874Y016414D01*
X018760Y016461D01*
X018723Y016461D01*
X018374Y016810D01*
X018374Y017171D01*
X018378Y017175D01*
X018378Y017626D01*
X018290Y017714D01*
X017918Y017714D01*
X017830Y017626D01*
X017830Y017175D01*
X017834Y017171D01*
X017834Y016752D01*
X017834Y016644D01*
X017875Y016545D01*
X017923Y016498D01*
X017457Y016498D01*
X017401Y016442D01*
X017345Y016498D01*
X016788Y016498D01*
X016751Y016461D01*
X016754Y016463D02*
X015421Y016463D01*
X015421Y016562D02*
X017868Y016562D01*
X017834Y016661D02*
X017625Y016661D01*
X017698Y016759D02*
X017834Y016759D01*
X017834Y016858D02*
X017729Y016858D01*
X017729Y016956D02*
X017834Y016956D01*
X017834Y017055D02*
X017693Y017055D01*
X017613Y017153D02*
X017834Y017153D01*
X017830Y017252D02*
X017472Y017252D01*
X017472Y017350D02*
X017830Y017350D01*
X017830Y017449D02*
X017472Y017449D01*
X017472Y017547D02*
X017830Y017547D01*
X017850Y017646D02*
X017468Y017646D01*
X017468Y017745D02*
X019151Y017745D01*
X038871Y017745D01*
X038871Y017843D02*
X019151Y017843D01*
X018304Y017843D01*
X018352Y017942D02*
X019151Y017942D01*
X038871Y017942D01*
X038871Y018040D02*
X019151Y018040D01*
X018352Y018040D01*
X018352Y018199D02*
X018352Y018367D01*
X018342Y018406D01*
X018322Y018440D01*
X018294Y018468D01*
X018260Y018487D01*
X018222Y018498D01*
X018034Y018498D01*
X018034Y018199D01*
X018352Y018199D01*
X018352Y018237D02*
X019151Y018237D01*
X038871Y018237D01*
X038871Y018139D02*
X019151Y018139D01*
X018034Y018139D01*
X018034Y018237D02*
X017937Y018237D01*
X017937Y018336D02*
X018034Y018336D01*
X018034Y018434D02*
X017937Y018434D01*
X018325Y018434D02*
X019151Y018434D01*
X038871Y018434D01*
X038871Y018336D02*
X019151Y018336D01*
X018352Y018336D01*
X018034Y018040D02*
X017937Y018040D01*
X017937Y017942D02*
X018034Y017942D01*
X018034Y017843D02*
X017937Y017843D01*
X017668Y017843D02*
X017634Y017843D01*
X016928Y017837D02*
X016928Y018096D01*
X016943Y018131D01*
X013383Y018131D01*
X013421Y018039D01*
X013421Y017463D01*
X013469Y017511D01*
X013833Y017511D01*
X013901Y017443D01*
X013969Y017511D01*
X014333Y017511D01*
X014384Y017460D01*
X014422Y017554D01*
X014498Y017630D01*
X014748Y017880D01*
X014847Y017921D01*
X014955Y017921D01*
X016457Y017921D01*
X016465Y017929D01*
X016586Y017979D01*
X016716Y017979D01*
X016837Y017929D01*
X016928Y017837D01*
X016928Y017843D02*
X016923Y017843D01*
X016928Y017942D02*
X016806Y017942D01*
X016928Y018040D02*
X013421Y018040D01*
X013421Y017942D02*
X016496Y017942D01*
X017206Y018631D02*
X019151Y018631D01*
X038871Y018631D01*
X038871Y018533D02*
X019151Y018533D01*
X017309Y018533D01*
X018358Y017646D02*
X019151Y017646D01*
X020382Y017646D01*
X019995Y017547D02*
X019151Y017547D01*
X018378Y017547D01*
X018378Y017449D02*
X019151Y017449D01*
X019800Y017449D01*
X019661Y017350D02*
X019151Y017350D01*
X018378Y017350D01*
X018378Y017252D02*
X019151Y017252D01*
X019553Y017252D01*
X019464Y017153D02*
X019151Y017153D01*
X018374Y017153D01*
X018374Y017055D02*
X019151Y017055D01*
X019388Y017055D01*
X019327Y016956D02*
X019151Y016956D01*
X018374Y016956D01*
X018374Y016858D02*
X019151Y016858D01*
X019277Y016858D01*
X019233Y016759D02*
X019151Y016759D01*
X018425Y016759D01*
X018523Y016661D02*
X019151Y016661D01*
X019203Y016661D01*
X019177Y016562D02*
X019151Y016562D01*
X018622Y016562D01*
X018720Y016463D02*
X019151Y016463D01*
X019161Y016463D01*
X019151Y016365D02*
X018923Y016365D01*
X019021Y016266D02*
X019151Y016266D01*
X019917Y016069D02*
X037885Y016069D01*
X037891Y016043D02*
X037901Y015901D01*
X037891Y015758D01*
X037861Y015619D01*
X037811Y015485D01*
X037742Y015360D01*
X037657Y015246D01*
X037556Y015145D01*
X037442Y015060D01*
X037317Y014991D01*
X037183Y014941D01*
X037044Y014911D01*
X036901Y014901D01*
X020901Y014901D01*
X020759Y014911D01*
X020619Y014941D01*
X020486Y014991D01*
X020361Y015060D01*
X020246Y015145D01*
X020145Y015246D01*
X020060Y015360D01*
X019992Y015485D01*
X019942Y015619D01*
X019911Y015758D01*
X019901Y015901D01*
X019911Y016043D01*
X019942Y016183D01*
X019992Y016316D01*
X020060Y016441D01*
X020145Y016556D01*
X020246Y016657D01*
X020361Y016742D01*
X020486Y016810D01*
X020619Y016860D01*
X020759Y016891D01*
X020901Y016901D01*
X036901Y016901D01*
X037044Y016891D01*
X037183Y016860D01*
X037317Y016810D01*
X037442Y016742D01*
X037556Y016657D01*
X037657Y016556D01*
X037742Y016441D01*
X037811Y016316D01*
X037861Y016183D01*
X037891Y016043D01*
X037896Y015971D02*
X019906Y015971D01*
X019903Y015872D02*
X037899Y015872D01*
X037892Y015774D02*
X019910Y015774D01*
X019930Y015675D02*
X037873Y015675D01*
X037845Y015577D02*
X019958Y015577D01*
X019996Y015478D02*
X037807Y015478D01*
X037753Y015379D02*
X020049Y015379D01*
X020119Y015281D02*
X037683Y015281D01*
X037593Y015182D02*
X020209Y015182D01*
X020328Y015084D02*
X037474Y015084D01*
X037301Y014985D02*
X020501Y014985D01*
X020069Y014197D02*
X019043Y014197D01*
X019151Y014197D01*
X019167Y014098D02*
X038871Y014098D01*
X038871Y014000D02*
X019215Y014000D01*
X019229Y013901D02*
X038871Y013901D01*
X038871Y013803D02*
X019216Y013803D01*
X019169Y013704D02*
X038871Y013704D01*
X038871Y013606D02*
X019046Y013606D01*
X018833Y013507D02*
X038871Y013507D01*
X038871Y013409D02*
X018734Y013409D01*
X018671Y013310D02*
X038871Y013310D01*
X038871Y013212D02*
X018671Y013212D01*
X018651Y013113D02*
X038871Y013113D01*
X038871Y012448D02*
X038871Y006752D01*
X018651Y006752D01*
X018651Y006866D01*
X018671Y006886D01*
X018671Y007046D01*
X018898Y007273D01*
X018966Y007273D01*
X019087Y007323D01*
X019179Y007416D01*
X019229Y007536D01*
X019229Y007667D01*
X019179Y007787D01*
X019087Y007880D01*
X018966Y007930D01*
X018836Y007930D01*
X018715Y007880D01*
X018671Y007835D01*
X018671Y008534D01*
X018651Y008554D01*
X018651Y009102D01*
X019151Y009102D01*
X019164Y008924D01*
X019202Y008749D01*
X019264Y008582D01*
X019350Y008426D01*
X019456Y008283D01*
X019583Y008157D01*
X019725Y008050D01*
X019882Y007965D01*
X020049Y007902D01*
X020223Y007864D01*
X020401Y007852D01*
X036901Y007852D01*
X037114Y007849D01*
X037326Y007875D01*
X037533Y007927D01*
X037730Y008007D01*
X037916Y008111D01*
X038087Y008239D01*
X038239Y008388D01*
X038371Y008556D01*
X038480Y008739D01*
X038563Y008935D01*
X038621Y009141D01*
X038651Y009352D01*
X038651Y009852D01*
X038621Y010063D01*
X038563Y010268D01*
X038480Y010464D01*
X038371Y010647D01*
X038239Y010815D01*
X038087Y010964D01*
X037916Y011092D01*
X037730Y011196D01*
X037533Y011276D01*
X037326Y011329D01*
X037114Y011354D01*
X036901Y011352D01*
X020651Y011352D01*
X020471Y011356D01*
X020291Y011337D01*
X020115Y011295D01*
X019947Y011230D01*
X019788Y011144D01*
X019642Y011037D01*
X019511Y010913D01*
X019398Y010772D01*
X019304Y010618D01*
X019230Y010453D01*
X019179Y010280D01*
X019151Y010102D01*
X019151Y012448D01*
X038871Y012448D01*
X038871Y012423D02*
X019151Y012423D01*
X000301Y012423D01*
X000301Y012448D02*
X019151Y012448D01*
X019151Y009912D01*
X019077Y009912D01*
X018874Y010114D01*
X018760Y010162D01*
X018723Y010162D01*
X018374Y010511D01*
X018374Y010872D01*
X018378Y010876D01*
X018378Y011327D01*
X018290Y011415D01*
X017918Y011415D01*
X017830Y011327D01*
X017830Y010876D01*
X017834Y010872D01*
X017834Y010453D01*
X017834Y010345D01*
X017875Y010246D01*
X017923Y010198D01*
X017457Y010198D01*
X017401Y010142D01*
X017345Y010198D01*
X016788Y010198D01*
X016751Y010162D01*
X015421Y010162D01*
X015421Y010372D01*
X017167Y010372D01*
X017215Y010323D01*
X017336Y010273D01*
X017466Y010273D01*
X017587Y010323D01*
X017679Y010416D01*
X017729Y010536D01*
X017729Y010667D01*
X017679Y010787D01*
X017587Y010880D01*
X017472Y010927D01*
X017472Y011327D01*
X017468Y011331D01*
X017468Y011505D01*
X017595Y011505D01*
X017651Y011561D01*
X017677Y011535D01*
X017711Y011515D01*
X017750Y011505D01*
X017937Y011505D01*
X017937Y011803D01*
X018034Y011803D01*
X018034Y011505D01*
X018222Y011505D01*
X018260Y011515D01*
X018294Y011535D01*
X018322Y011563D01*
X018342Y011597D01*
X018352Y011635D01*
X019151Y011635D01*
X038871Y011635D01*
X038871Y011733D02*
X019151Y011733D01*
X018352Y011733D01*
X018352Y011803D02*
X018034Y011803D01*
X018034Y011900D01*
X017937Y011900D01*
X017937Y012198D01*
X017750Y012198D01*
X017711Y012188D01*
X017677Y012168D01*
X017651Y012142D01*
X017595Y012198D01*
X017345Y012198D01*
X017246Y012294D01*
X017210Y012330D01*
X017207Y012331D01*
X017205Y012333D01*
X017158Y012352D01*
X017110Y012372D01*
X017108Y012372D01*
X017105Y012373D01*
X017055Y012372D01*
X013205Y012372D01*
X013097Y012372D01*
X012998Y012330D01*
X012866Y012198D01*
X012707Y012198D01*
X012651Y012142D01*
X012625Y012168D01*
X012591Y012188D01*
X012553Y012198D01*
X012365Y012198D01*
X012365Y011900D01*
X012268Y011900D01*
X012268Y011803D01*
X012365Y011803D01*
X012365Y011505D01*
X012553Y011505D01*
X012591Y011515D01*
X012625Y011535D01*
X012651Y011561D01*
X012707Y011505D01*
X012881Y011505D01*
X012881Y011164D01*
X012833Y011212D01*
X012469Y011212D01*
X012398Y011141D01*
X012391Y011154D01*
X012363Y011182D01*
X012329Y011201D01*
X012291Y011212D01*
X012161Y011212D01*
X012161Y010637D01*
X012141Y010637D01*
X012141Y011212D01*
X012011Y011212D01*
X011973Y011201D01*
X011939Y011182D01*
X011911Y011154D01*
X011891Y011119D01*
X011881Y011081D01*
X011881Y010637D01*
X012141Y010637D01*
X012141Y010616D01*
X012161Y010616D01*
X012161Y010042D01*
X012291Y010042D01*
X012329Y010052D01*
X012363Y010072D01*
X012391Y010099D01*
X012398Y010112D01*
X012469Y010042D01*
X012833Y010042D01*
X012901Y010109D01*
X012969Y010042D01*
X013333Y010042D01*
X013401Y010109D01*
X013469Y010042D01*
X013833Y010042D01*
X013901Y010109D01*
X013969Y010042D01*
X014333Y010042D01*
X014401Y010109D01*
X014469Y010042D01*
X014653Y010042D01*
X014638Y010027D01*
X013888Y009277D01*
X013879Y009255D01*
X013804Y009330D01*
X013380Y009754D01*
X013380Y009754D01*
X013304Y009830D01*
X013205Y009872D01*
X011352Y009872D01*
X011352Y010361D01*
X011264Y010448D01*
X010707Y010448D01*
X010651Y010392D01*
X010625Y010418D01*
X010591Y010438D01*
X010553Y010448D01*
X010365Y010448D01*
X010365Y010150D01*
X010268Y010150D01*
X010268Y010053D01*
X009950Y010053D01*
X009950Y009885D01*
X009954Y009872D01*
X006263Y009872D01*
X005804Y010330D01*
X005705Y010372D01*
X005597Y010372D01*
X004845Y010372D01*
X004837Y010380D01*
X004716Y010430D01*
X004586Y010430D01*
X004465Y010380D01*
X004373Y010287D01*
X004323Y010167D01*
X004323Y010036D01*
X004373Y009916D01*
X004465Y009823D01*
X004586Y009773D01*
X004716Y009773D01*
X004837Y009823D01*
X004845Y009832D01*
X005539Y009832D01*
X005922Y009449D01*
X005998Y009373D01*
X006097Y009332D01*
X007417Y009332D01*
X007373Y009287D01*
X007323Y009167D01*
X007323Y009036D01*
X007373Y008916D01*
X007465Y008823D01*
X007586Y008773D01*
X007716Y008773D01*
X007760Y008792D01*
X010700Y008792D01*
X010700Y008650D01*
X011018Y008650D01*
X011018Y008553D01*
X011115Y008553D01*
X011115Y008255D01*
X011303Y008255D01*
X011341Y008265D01*
X011371Y008282D01*
X011323Y008167D01*
X011323Y008036D01*
X011373Y007916D01*
X011457Y007832D01*
X007845Y007832D01*
X007929Y007916D01*
X007979Y008036D01*
X007979Y008167D01*
X007929Y008287D01*
X007837Y008380D01*
X007716Y008430D01*
X007648Y008430D01*
X007131Y008947D01*
X006996Y009082D01*
X005697Y009082D01*
X005697Y009106D01*
X005697Y009214D01*
X005656Y009313D01*
X005602Y009367D01*
X005602Y009611D01*
X005514Y009698D01*
X004957Y009698D01*
X004901Y009642D01*
X004875Y009668D01*
X004841Y009688D01*
X004803Y009698D01*
X004615Y009698D01*
X004615Y009400D01*
X004518Y009400D01*
X004518Y009303D01*
X004615Y009303D01*
X004615Y009005D01*
X004803Y009005D01*
X004841Y009015D01*
X004875Y009035D01*
X004901Y009061D01*
X004957Y009005D01*
X005157Y009005D01*
X005157Y008908D01*
X005144Y008877D01*
X005013Y008877D01*
X004925Y008789D01*
X004925Y008214D01*
X005013Y008127D01*
X005537Y008127D01*
X005625Y008214D01*
X005625Y008622D01*
X006806Y008622D01*
X007323Y008104D01*
X007323Y008036D01*
X007373Y007916D01*
X007457Y007832D01*
X006746Y007832D01*
X006644Y007934D01*
X006671Y007998D01*
X006671Y008205D01*
X006592Y008396D01*
X006446Y008542D01*
X006255Y008622D01*
X006048Y008622D01*
X005857Y008542D01*
X005710Y008396D01*
X005631Y008205D01*
X005631Y007998D01*
X005710Y007807D01*
X005857Y007661D01*
X006000Y007602D01*
X005857Y007542D01*
X005710Y007396D01*
X005631Y007205D01*
X005631Y006998D01*
X005710Y006807D01*
X005766Y006752D01*
X000301Y006752D01*
X000301Y008079D01*
X000316Y008049D01*
X000365Y007983D01*
X000422Y007925D01*
X000489Y007877D01*
X000562Y007840D01*
X000639Y007814D01*
X000711Y007803D01*
X000711Y008271D01*
X000811Y008271D01*
X000811Y007803D01*
X000883Y007814D01*
X000961Y007840D01*
X001034Y007877D01*
X001100Y007925D01*
X001158Y007983D01*
X001206Y008049D01*
X001243Y008122D01*
X001268Y008200D01*
X001280Y008272D01*
X000811Y008272D01*
X000811Y008371D01*
X001280Y008371D01*
X001268Y008443D01*
X001243Y008521D01*
X001206Y008594D01*
X001158Y008660D01*
X001100Y008718D01*
X001034Y008766D01*
X000961Y008803D01*
X000883Y008829D01*
X000811Y008840D01*
X000811Y008372D01*
X000711Y008372D01*
X000711Y008840D01*
X000639Y008829D01*
X000562Y008803D01*
X000489Y008766D01*
X000422Y008718D01*
X000365Y008660D01*
X000316Y008594D01*
X000301Y008564D01*
X000301Y010639D01*
X000316Y010609D01*
X000365Y010543D01*
X000422Y010485D01*
X000489Y010437D01*
X000562Y010400D01*
X000639Y010374D01*
X000711Y010363D01*
X000711Y010831D01*
X000811Y010831D01*
X000811Y010363D01*
X000883Y010374D01*
X000961Y010400D01*
X001034Y010437D01*
X001100Y010485D01*
X001158Y010543D01*
X001206Y010609D01*
X001243Y010682D01*
X001268Y010760D01*
X001280Y010832D01*
X000811Y010832D01*
X000811Y010931D01*
X001280Y010931D01*
X001268Y011003D01*
X001243Y011081D01*
X001206Y011154D01*
X001158Y011220D01*
X001100Y011278D01*
X001034Y011326D01*
X000961Y011363D01*
X000883Y011389D01*
X000811Y011400D01*
X000811Y010932D01*
X000711Y010932D01*
X000711Y011400D01*
X000639Y011389D01*
X000562Y011363D01*
X000489Y011326D01*
X000422Y011278D01*
X000365Y011220D01*
X000316Y011154D01*
X000301Y011124D01*
X000301Y012448D01*
X000301Y012325D02*
X012992Y012325D01*
X012894Y012226D02*
X000301Y012226D01*
X000301Y012128D02*
X002217Y012128D01*
X002200Y012111D02*
X002200Y011593D01*
X002288Y011505D01*
X002297Y011505D01*
X002297Y011343D01*
X002247Y011322D01*
X002100Y011176D01*
X002021Y010985D01*
X002021Y010778D01*
X002100Y010587D01*
X002247Y010441D01*
X002271Y010431D01*
X002271Y009795D01*
X002271Y009688D01*
X002271Y008773D01*
X002247Y008762D01*
X002100Y008616D01*
X002021Y008425D01*
X002021Y008218D01*
X002100Y008027D01*
X002247Y007881D01*
X002438Y007802D01*
X002645Y007802D01*
X002836Y007881D01*
X002982Y008027D01*
X003061Y008218D01*
X003061Y008425D01*
X002982Y008616D01*
X002836Y008762D01*
X002811Y008773D01*
X002811Y009563D01*
X002837Y009573D01*
X002929Y009666D01*
X002979Y009786D01*
X002979Y009917D01*
X002929Y010037D01*
X002837Y010130D01*
X002811Y010140D01*
X002811Y010431D01*
X002836Y010441D01*
X002982Y010587D01*
X003061Y010778D01*
X003061Y010985D01*
X002982Y011176D01*
X002836Y011322D01*
X002836Y011505D01*
X002845Y011505D01*
X002901Y011561D01*
X002957Y011505D01*
X002966Y011505D01*
X002966Y011350D01*
X002966Y011243D01*
X003007Y011144D01*
X003157Y010994D01*
X003151Y010981D01*
X003151Y010782D01*
X003227Y010598D01*
X003368Y010457D01*
X003381Y010452D01*
X003381Y010292D01*
X003304Y010215D01*
X003304Y009658D01*
X003360Y009602D01*
X003304Y009546D01*
X003304Y008988D01*
X003381Y008911D01*
X003381Y008751D01*
X003368Y008746D01*
X003227Y008605D01*
X003151Y008421D01*
X003151Y008223D01*
X003227Y008039D01*
X003368Y007898D01*
X003552Y007822D01*
X003751Y007822D01*
X003804Y007844D01*
X004042Y007606D01*
X004176Y007472D01*
X004551Y007472D01*
X004551Y007414D01*
X004639Y007327D01*
X005163Y007327D01*
X005251Y007414D01*
X005251Y007989D01*
X005635Y007989D01*
X005631Y008087D02*
X004211Y008087D01*
X004235Y008157D02*
X004269Y008137D01*
X004307Y008127D01*
X004477Y008127D01*
X004477Y008451D01*
X004577Y008451D01*
X004577Y008127D01*
X004747Y008127D01*
X004785Y008137D01*
X004819Y008157D01*
X004847Y008184D01*
X004867Y008219D01*
X004877Y008257D01*
X004877Y008452D01*
X004577Y008452D01*
X004577Y008551D01*
X004877Y008551D01*
X004877Y008746D01*
X004867Y008784D01*
X004847Y008819D01*
X004819Y008847D01*
X004785Y008866D01*
X004747Y008877D01*
X004577Y008877D01*
X004577Y008552D01*
X004477Y008552D01*
X004477Y008877D01*
X004307Y008877D01*
X004269Y008866D01*
X004235Y008847D01*
X004207Y008819D01*
X004187Y008784D01*
X004177Y008746D01*
X004177Y008551D01*
X004477Y008551D01*
X004477Y008452D01*
X004177Y008452D01*
X004177Y008257D01*
X004187Y008219D01*
X004207Y008184D01*
X004235Y008157D01*
X004206Y008186D02*
X004136Y008186D01*
X004129Y008169D02*
X004151Y008223D01*
X004151Y008421D01*
X004075Y008605D01*
X003934Y008746D01*
X003921Y008751D01*
X003921Y008911D01*
X003998Y008988D01*
X003998Y008996D01*
X004039Y009095D01*
X004039Y009203D01*
X003998Y009302D01*
X003998Y009546D01*
X003942Y009602D01*
X003998Y009658D01*
X003998Y009958D01*
X003999Y009959D01*
X003999Y010150D01*
X003998Y010151D01*
X003998Y010215D01*
X003921Y010292D01*
X003921Y010452D01*
X003934Y010457D01*
X004024Y010547D01*
X004051Y010545D01*
X004060Y010542D01*
X004112Y010542D01*
X004164Y010538D01*
X004173Y010542D01*
X006463Y010542D01*
X006577Y010589D01*
X006664Y010676D01*
X006711Y010790D01*
X006711Y010913D01*
X006664Y011027D01*
X006577Y011114D01*
X006463Y011162D01*
X005602Y011162D01*
X005602Y011303D01*
X005284Y011303D01*
X005284Y011400D01*
X005187Y011400D01*
X005187Y011698D01*
X005000Y011698D01*
X004961Y011688D01*
X004927Y011668D01*
X004901Y011642D01*
X004845Y011698D01*
X004288Y011698D01*
X004200Y011611D01*
X004200Y011312D01*
X004064Y011176D01*
X003934Y011305D01*
X003751Y011381D01*
X003552Y011381D01*
X003538Y011376D01*
X003506Y011408D01*
X003506Y011505D01*
X003514Y011505D01*
X003602Y011593D01*
X003602Y012111D01*
X003514Y012198D01*
X002957Y012198D01*
X002901Y012142D01*
X002845Y012198D01*
X002288Y012198D01*
X002200Y012111D01*
X002200Y012029D02*
X000301Y012029D01*
X000301Y011930D02*
X002200Y011930D01*
X002200Y011832D02*
X000301Y011832D01*
X000301Y011733D02*
X002200Y011733D01*
X002200Y011635D02*
X000301Y011635D01*
X000301Y011536D02*
X002256Y011536D01*
X002297Y011438D02*
X000301Y011438D01*
X000301Y011339D02*
X000514Y011339D01*
X000385Y011241D02*
X000301Y011241D01*
X000301Y011142D02*
X000310Y011142D01*
X000711Y011142D02*
X000811Y011142D01*
X000811Y011044D02*
X000711Y011044D01*
X000711Y010945D02*
X000811Y010945D01*
X000811Y010846D02*
X002021Y010846D01*
X002034Y010748D02*
X001264Y010748D01*
X001226Y010649D02*
X002074Y010649D01*
X002136Y010551D02*
X001164Y010551D01*
X001055Y010452D02*
X002235Y010452D01*
X002271Y010354D02*
X000301Y010354D01*
X000301Y010452D02*
X000467Y010452D01*
X000359Y010551D02*
X000301Y010551D01*
X000301Y010255D02*
X002271Y010255D01*
X002271Y010157D02*
X000301Y010157D01*
X000301Y010058D02*
X002271Y010058D01*
X002271Y009960D02*
X000301Y009960D01*
X000301Y009861D02*
X002271Y009861D01*
X002271Y009763D02*
X000301Y009763D01*
X000301Y009664D02*
X002271Y009664D01*
X002271Y009565D02*
X000301Y009565D01*
X000301Y009467D02*
X002271Y009467D01*
X002271Y009368D02*
X000301Y009368D01*
X000301Y009270D02*
X002271Y009270D01*
X002271Y009171D02*
X000301Y009171D01*
X000301Y009073D02*
X002271Y009073D01*
X002271Y008974D02*
X000301Y008974D01*
X000301Y008876D02*
X002271Y008876D01*
X002271Y008777D02*
X001013Y008777D01*
X001140Y008679D02*
X002163Y008679D01*
X002085Y008580D02*
X001213Y008580D01*
X001256Y008481D02*
X002045Y008481D01*
X002021Y008383D02*
X001278Y008383D01*
X001264Y008186D02*
X002035Y008186D01*
X002021Y008284D02*
X000811Y008284D01*
X000811Y008186D02*
X000711Y008186D01*
X000711Y008087D02*
X000811Y008087D01*
X000811Y007989D02*
X000711Y007989D01*
X000711Y007890D02*
X000811Y007890D01*
X001052Y007890D02*
X002237Y007890D01*
X002139Y007989D02*
X001162Y007989D01*
X001225Y008087D02*
X002075Y008087D01*
X002845Y007890D02*
X003387Y007890D01*
X003277Y007989D02*
X002944Y007989D01*
X003007Y008087D02*
X003207Y008087D01*
X003166Y008186D02*
X003048Y008186D01*
X003061Y008284D02*
X003151Y008284D01*
X003151Y008383D02*
X003061Y008383D01*
X003038Y008481D02*
X003176Y008481D01*
X003217Y008580D02*
X002997Y008580D01*
X002920Y008679D02*
X003301Y008679D01*
X003381Y008777D02*
X002811Y008777D01*
X002811Y008876D02*
X003381Y008876D01*
X003318Y008974D02*
X002811Y008974D01*
X002811Y009073D02*
X003304Y009073D01*
X003304Y009171D02*
X002811Y009171D01*
X002811Y009270D02*
X003304Y009270D01*
X003304Y009368D02*
X002811Y009368D01*
X002811Y009467D02*
X003304Y009467D01*
X003324Y009565D02*
X002818Y009565D01*
X002928Y009664D02*
X003304Y009664D01*
X003304Y009763D02*
X002969Y009763D01*
X002979Y009861D02*
X003304Y009861D01*
X003304Y009960D02*
X002962Y009960D01*
X002909Y010058D02*
X003304Y010058D01*
X003304Y010157D02*
X002811Y010157D01*
X002811Y010255D02*
X003345Y010255D01*
X003381Y010354D02*
X002811Y010354D01*
X002847Y010452D02*
X003380Y010452D01*
X003274Y010551D02*
X002946Y010551D01*
X003008Y010649D02*
X003206Y010649D01*
X003165Y010748D02*
X003049Y010748D01*
X003061Y010846D02*
X003151Y010846D01*
X003151Y010945D02*
X003061Y010945D01*
X003037Y011044D02*
X003107Y011044D01*
X003008Y011142D02*
X002996Y011142D01*
X002967Y011241D02*
X002917Y011241D01*
X002966Y011339D02*
X002836Y011339D01*
X002836Y011438D02*
X002966Y011438D01*
X002926Y011536D02*
X002877Y011536D01*
X003506Y011438D02*
X004200Y011438D01*
X004200Y011536D02*
X003546Y011536D01*
X003602Y011635D02*
X004224Y011635D01*
X004200Y011339D02*
X003852Y011339D01*
X003999Y011241D02*
X004129Y011241D01*
X003602Y011733D02*
X011950Y011733D01*
X011950Y011803D02*
X011950Y011635D01*
X011960Y011597D01*
X011980Y011563D01*
X012008Y011535D01*
X012042Y011515D01*
X012080Y011505D01*
X012268Y011505D01*
X012268Y011803D01*
X011950Y011803D01*
X011950Y011900D02*
X012268Y011900D01*
X012268Y012198D01*
X012080Y012198D01*
X012042Y012188D01*
X012008Y012168D01*
X011980Y012141D01*
X011960Y012106D01*
X011950Y012068D01*
X011950Y011900D01*
X011950Y011930D02*
X003602Y011930D01*
X003602Y011832D02*
X012268Y011832D01*
X012268Y011930D02*
X012365Y011930D01*
X012365Y012029D02*
X012268Y012029D01*
X012268Y012128D02*
X012365Y012128D01*
X011973Y012128D02*
X003585Y012128D01*
X003602Y012029D02*
X011950Y012029D01*
X011950Y011635D02*
X005576Y011635D01*
X005572Y011641D02*
X005544Y011668D01*
X005510Y011688D01*
X005472Y011698D01*
X005284Y011698D01*
X005284Y011400D01*
X005602Y011400D01*
X005602Y011568D01*
X005592Y011606D01*
X005572Y011641D01*
X005602Y011536D02*
X012006Y011536D01*
X012268Y011536D02*
X012365Y011536D01*
X012365Y011635D02*
X012268Y011635D01*
X012268Y011733D02*
X012365Y011733D01*
X012627Y011536D02*
X012676Y011536D01*
X012881Y011438D02*
X005602Y011438D01*
X005602Y011241D02*
X012881Y011241D01*
X012881Y011339D02*
X005284Y011339D01*
X005284Y011438D02*
X005187Y011438D01*
X005187Y011536D02*
X005284Y011536D01*
X005284Y011635D02*
X005187Y011635D01*
X006510Y011142D02*
X011905Y011142D01*
X011881Y011044D02*
X006648Y011044D01*
X006698Y010945D02*
X011881Y010945D01*
X011881Y010846D02*
X006711Y010846D01*
X006694Y010748D02*
X011881Y010748D01*
X011881Y010649D02*
X006637Y010649D01*
X006485Y010551D02*
X011881Y010551D01*
X011881Y010616D02*
X011881Y010172D01*
X011891Y010134D01*
X011911Y010099D01*
X011939Y010072D01*
X011973Y010052D01*
X012011Y010042D01*
X012141Y010042D01*
X012141Y010616D01*
X011881Y010616D01*
X011881Y010452D02*
X003923Y010452D01*
X003921Y010354D02*
X004439Y010354D01*
X004360Y010255D02*
X003958Y010255D01*
X003998Y010157D02*
X004323Y010157D01*
X004323Y010058D02*
X003999Y010058D01*
X003999Y009960D02*
X004355Y009960D01*
X004428Y009861D02*
X003998Y009861D01*
X003998Y009763D02*
X005608Y009763D01*
X005549Y009664D02*
X005707Y009664D01*
X005805Y009565D02*
X005602Y009565D01*
X005602Y009467D02*
X005904Y009467D01*
X006009Y009368D02*
X005602Y009368D01*
X005674Y009270D02*
X007366Y009270D01*
X007325Y009171D02*
X005697Y009171D01*
X005157Y008974D02*
X003984Y008974D01*
X003998Y008996D02*
X003998Y008996D01*
X004030Y009073D02*
X004224Y009073D01*
X004230Y009063D02*
X004258Y009035D01*
X004292Y009015D01*
X004330Y009005D01*
X004518Y009005D01*
X004518Y009303D01*
X004200Y009303D01*
X004200Y009135D01*
X004210Y009097D01*
X004230Y009063D01*
X004200Y009171D02*
X004039Y009171D01*
X004011Y009270D02*
X004200Y009270D01*
X004200Y009400D02*
X004518Y009400D01*
X004518Y009698D01*
X004330Y009698D01*
X004292Y009688D01*
X004258Y009668D01*
X004230Y009641D01*
X004210Y009606D01*
X004200Y009568D01*
X004200Y009400D01*
X004200Y009467D02*
X003998Y009467D01*
X003998Y009368D02*
X004518Y009368D01*
X004518Y009270D02*
X004615Y009270D01*
X004615Y009171D02*
X004518Y009171D01*
X004518Y009073D02*
X004615Y009073D01*
X004577Y008876D02*
X004477Y008876D01*
X004477Y008777D02*
X004577Y008777D01*
X004577Y008679D02*
X004477Y008679D01*
X004477Y008580D02*
X004577Y008580D01*
X004577Y008481D02*
X004925Y008481D01*
X004925Y008383D02*
X004877Y008383D01*
X004877Y008284D02*
X004925Y008284D01*
X004954Y008186D02*
X004848Y008186D01*
X004639Y008077D02*
X004551Y007989D01*
X004310Y007989D01*
X004367Y007932D02*
X004129Y008169D01*
X004151Y008284D02*
X004177Y008284D01*
X004177Y008383D02*
X004151Y008383D01*
X004126Y008481D02*
X004477Y008481D01*
X004477Y008383D02*
X004577Y008383D01*
X004577Y008284D02*
X004477Y008284D01*
X004477Y008186D02*
X004577Y008186D01*
X004639Y008077D02*
X005163Y008077D01*
X005251Y007989D01*
X005251Y007890D02*
X005676Y007890D01*
X005726Y007792D02*
X005251Y007792D01*
X005251Y007693D02*
X005824Y007693D01*
X005983Y007595D02*
X005251Y007595D01*
X005251Y007496D02*
X005810Y007496D01*
X005712Y007397D02*
X005234Y007397D01*
X005631Y007200D02*
X000301Y007200D01*
X000301Y007102D02*
X005631Y007102D01*
X005631Y007003D02*
X000301Y007003D01*
X000301Y006905D02*
X005670Y006905D01*
X005711Y006806D02*
X000301Y006806D01*
X000301Y007299D02*
X005670Y007299D01*
X006536Y006752D02*
X006592Y006807D01*
X006619Y006872D01*
X006700Y006872D01*
X006700Y006843D01*
X006788Y006755D01*
X007345Y006755D01*
X007401Y006811D01*
X007457Y006755D01*
X008014Y006755D01*
X008102Y006843D01*
X008102Y007054D01*
X008215Y007122D01*
X012496Y007122D01*
X012631Y007256D01*
X013381Y008006D01*
X013381Y008039D01*
X013401Y008059D01*
X013421Y008039D01*
X013421Y007506D01*
X013556Y007372D01*
X014056Y006872D01*
X014246Y006872D01*
X015246Y006872D01*
X015381Y007006D01*
X015631Y007256D01*
X015631Y007151D01*
X016101Y007151D01*
X016101Y007052D01*
X015631Y007052D01*
X015631Y006886D01*
X015766Y006752D01*
X006536Y006752D01*
X006591Y006806D02*
X006736Y006806D01*
X007397Y006806D02*
X007406Y006806D01*
X008066Y006806D02*
X015711Y006806D01*
X015631Y006905D02*
X015280Y006905D01*
X015378Y007003D02*
X015631Y007003D01*
X015477Y007102D02*
X016101Y007102D01*
X015631Y007200D02*
X015575Y007200D01*
X014023Y006905D02*
X008102Y006905D01*
X008102Y007003D02*
X013924Y007003D01*
X013826Y007102D02*
X008182Y007102D01*
X007904Y007890D02*
X011399Y007890D01*
X011343Y007989D02*
X007960Y007989D01*
X007979Y008087D02*
X011323Y008087D01*
X011331Y008186D02*
X007971Y008186D01*
X007931Y008284D02*
X010758Y008284D01*
X010758Y008285D02*
X010792Y008265D01*
X010830Y008255D01*
X011018Y008255D01*
X011018Y008553D01*
X010700Y008553D01*
X010700Y008385D01*
X010710Y008347D01*
X010730Y008313D01*
X010758Y008285D01*
X010701Y008383D02*
X007829Y008383D01*
X007596Y008481D02*
X010700Y008481D01*
X010700Y008679D02*
X007399Y008679D01*
X007301Y008777D02*
X007577Y008777D01*
X007725Y008777D02*
X010700Y008777D01*
X011018Y008580D02*
X007498Y008580D01*
X007413Y008876D02*
X007202Y008876D01*
X007104Y008974D02*
X007349Y008974D01*
X007323Y009073D02*
X007005Y009073D01*
X006847Y008580D02*
X006355Y008580D01*
X006507Y008481D02*
X006946Y008481D01*
X007045Y008383D02*
X006597Y008383D01*
X006638Y008284D02*
X007143Y008284D01*
X007242Y008186D02*
X006671Y008186D01*
X006671Y008087D02*
X007323Y008087D01*
X007343Y007989D02*
X006667Y007989D01*
X006688Y007890D02*
X007399Y007890D01*
X005947Y008580D02*
X005625Y008580D01*
X005625Y008481D02*
X005796Y008481D01*
X005705Y008383D02*
X005625Y008383D01*
X005625Y008284D02*
X005664Y008284D01*
X005631Y008186D02*
X005597Y008186D01*
X004925Y008580D02*
X004877Y008580D01*
X004877Y008679D02*
X004925Y008679D01*
X004925Y008777D02*
X004869Y008777D01*
X004750Y008876D02*
X005012Y008876D01*
X004304Y008876D02*
X003921Y008876D01*
X003921Y008777D02*
X004185Y008777D01*
X004177Y008679D02*
X004002Y008679D01*
X004086Y008580D02*
X004177Y008580D01*
X004367Y007932D02*
X004551Y007932D01*
X004551Y007989D01*
X004568Y007397D02*
X000301Y007397D01*
X000301Y007496D02*
X004152Y007496D01*
X004053Y007595D02*
X000301Y007595D01*
X000301Y007693D02*
X003955Y007693D01*
X004042Y007606D02*
X004042Y007606D01*
X003856Y007792D02*
X000301Y007792D01*
X000301Y007890D02*
X000470Y007890D01*
X000360Y007989D02*
X000301Y007989D01*
X000711Y008383D02*
X000811Y008383D01*
X000811Y008481D02*
X000711Y008481D01*
X000711Y008580D02*
X000811Y008580D01*
X000811Y008679D02*
X000711Y008679D01*
X000711Y008777D02*
X000811Y008777D01*
X000510Y008777D02*
X000301Y008777D01*
X000301Y008679D02*
X000383Y008679D01*
X000309Y008580D02*
X000301Y008580D01*
X000711Y010452D02*
X000811Y010452D01*
X000811Y010551D02*
X000711Y010551D01*
X000711Y010649D02*
X000811Y010649D01*
X000811Y010748D02*
X000711Y010748D01*
X000711Y011241D02*
X000811Y011241D01*
X000811Y011339D02*
X000711Y011339D01*
X001008Y011339D02*
X002287Y011339D01*
X002165Y011241D02*
X001137Y011241D01*
X001212Y011142D02*
X002086Y011142D01*
X002045Y011044D02*
X001255Y011044D01*
X001278Y010945D02*
X002021Y010945D01*
X003998Y009664D02*
X004253Y009664D01*
X004200Y009565D02*
X003978Y009565D01*
X003998Y009302D02*
X003998Y009302D01*
X004518Y009467D02*
X004615Y009467D01*
X004615Y009565D02*
X004518Y009565D01*
X004518Y009664D02*
X004615Y009664D01*
X004880Y009664D02*
X004923Y009664D01*
X005748Y010354D02*
X009960Y010354D01*
X009960Y010356D02*
X009950Y010318D01*
X009950Y010150D01*
X010268Y010150D01*
X010268Y010448D01*
X010080Y010448D01*
X010042Y010438D01*
X010008Y010418D01*
X009980Y010391D01*
X009960Y010356D01*
X009950Y010255D02*
X005879Y010255D01*
X005978Y010157D02*
X009950Y010157D01*
X009950Y009960D02*
X006175Y009960D01*
X006076Y010058D02*
X010268Y010058D01*
X010268Y010157D02*
X010365Y010157D01*
X010365Y010255D02*
X010268Y010255D01*
X010268Y010354D02*
X010365Y010354D01*
X011352Y010354D02*
X011881Y010354D01*
X011881Y010255D02*
X011352Y010255D01*
X011352Y010157D02*
X011885Y010157D01*
X011962Y010058D02*
X011352Y010058D01*
X011352Y009960D02*
X014571Y009960D01*
X014472Y009861D02*
X013230Y009861D01*
X013372Y009763D02*
X014374Y009763D01*
X014275Y009664D02*
X013471Y009664D01*
X013569Y009565D02*
X014177Y009565D01*
X014078Y009467D02*
X013668Y009467D01*
X013766Y009368D02*
X013980Y009368D01*
X013885Y009270D02*
X013865Y009270D01*
X013804Y009330D02*
X013804Y009330D01*
X013850Y010058D02*
X013952Y010058D01*
X014350Y010058D02*
X014452Y010058D01*
X015030Y009542D02*
X016751Y009542D01*
X016788Y009505D01*
X017345Y009505D01*
X017401Y009561D01*
X017457Y009505D01*
X018014Y009505D01*
X018051Y009542D01*
X018570Y009542D01*
X018773Y009339D01*
X018887Y009292D01*
X019010Y009292D01*
X019151Y009292D01*
X019151Y007816D01*
X019087Y007880D01*
X018966Y007930D01*
X018836Y007930D01*
X018715Y007880D01*
X018671Y007835D01*
X018671Y008534D01*
X018583Y008622D01*
X018381Y008622D01*
X018381Y008697D01*
X017746Y009332D01*
X017635Y009332D01*
X017587Y009380D01*
X017466Y009430D01*
X017336Y009430D01*
X017215Y009380D01*
X017123Y009287D01*
X017073Y009167D01*
X017073Y009036D01*
X017095Y008983D01*
X016979Y009099D01*
X016979Y009167D01*
X016929Y009287D01*
X016837Y009380D01*
X016716Y009430D01*
X016586Y009430D01*
X016465Y009380D01*
X016373Y009287D01*
X016323Y009167D01*
X016323Y009036D01*
X016345Y008983D01*
X016246Y009082D01*
X015413Y009082D01*
X015333Y009162D01*
X014969Y009162D01*
X014901Y009094D01*
X014833Y009162D01*
X014649Y009162D01*
X015030Y009542D01*
X014955Y009467D02*
X018645Y009467D01*
X018743Y009368D02*
X017598Y009368D01*
X017808Y009270D02*
X019151Y009270D01*
X019151Y009171D02*
X017907Y009171D01*
X018005Y009073D02*
X019151Y009073D01*
X019153Y009073D02*
X018651Y009073D01*
X018651Y008974D02*
X019160Y008974D01*
X019151Y008974D02*
X018104Y008974D01*
X018202Y008876D02*
X019151Y008876D01*
X019174Y008876D02*
X018651Y008876D01*
X018651Y008777D02*
X019196Y008777D01*
X019151Y008777D02*
X018301Y008777D01*
X018381Y008679D02*
X019151Y008679D01*
X019228Y008679D02*
X018651Y008679D01*
X018651Y008580D02*
X019265Y008580D01*
X019319Y008481D02*
X018671Y008481D01*
X019151Y008481D01*
X019151Y008383D02*
X018671Y008383D01*
X019382Y008383D01*
X019455Y008284D02*
X018671Y008284D01*
X019151Y008284D01*
X019151Y008186D02*
X018671Y008186D01*
X019554Y008186D01*
X019676Y008087D02*
X018671Y008087D01*
X019151Y008087D01*
X019151Y007989D02*
X018671Y007989D01*
X019838Y007989D01*
X020104Y007890D02*
X019062Y007890D01*
X019151Y007890D01*
X019175Y007792D02*
X038871Y007792D01*
X038871Y007890D02*
X037387Y007890D01*
X037685Y007989D02*
X038871Y007989D01*
X038871Y008087D02*
X037874Y008087D01*
X038016Y008186D02*
X038871Y008186D01*
X038871Y008284D02*
X038133Y008284D01*
X038234Y008383D02*
X038871Y008383D01*
X038871Y008481D02*
X038313Y008481D01*
X038385Y008580D02*
X038871Y008580D01*
X038871Y008679D02*
X038444Y008679D01*
X038496Y008777D02*
X038871Y008777D01*
X038871Y008876D02*
X038538Y008876D01*
X038574Y008974D02*
X038871Y008974D01*
X038871Y009073D02*
X038602Y009073D01*
X038625Y009171D02*
X038871Y009171D01*
X038871Y009270D02*
X038639Y009270D01*
X038651Y009368D02*
X038871Y009368D01*
X038871Y009467D02*
X038651Y009467D01*
X038651Y009565D02*
X038871Y009565D01*
X038871Y009664D02*
X038651Y009664D01*
X038651Y009763D02*
X038871Y009763D01*
X038871Y009861D02*
X038650Y009861D01*
X038636Y009960D02*
X038871Y009960D01*
X038871Y010058D02*
X038622Y010058D01*
X038595Y010157D02*
X038871Y010157D01*
X038871Y010255D02*
X038567Y010255D01*
X038527Y010354D02*
X038871Y010354D01*
X038871Y010452D02*
X038485Y010452D01*
X038428Y010551D02*
X038871Y010551D01*
X038871Y010649D02*
X038369Y010649D01*
X038292Y010748D02*
X038871Y010748D01*
X038871Y010846D02*
X038207Y010846D01*
X038106Y010945D02*
X038871Y010945D01*
X038871Y011044D02*
X037981Y011044D01*
X037827Y011142D02*
X038871Y011142D01*
X038871Y011241D02*
X037620Y011241D01*
X037237Y011339D02*
X038871Y011339D01*
X038871Y011438D02*
X019151Y011438D01*
X017468Y011438D01*
X017468Y011339D02*
X017842Y011339D01*
X017830Y011241D02*
X017472Y011241D01*
X017472Y011142D02*
X017830Y011142D01*
X017830Y011044D02*
X017472Y011044D01*
X017472Y010945D02*
X017830Y010945D01*
X017834Y010846D02*
X017620Y010846D01*
X017696Y010748D02*
X017834Y010748D01*
X017834Y010649D02*
X017729Y010649D01*
X017729Y010551D02*
X017834Y010551D01*
X017834Y010452D02*
X017694Y010452D01*
X017617Y010354D02*
X017834Y010354D01*
X017871Y010255D02*
X015421Y010255D01*
X015421Y010354D02*
X017185Y010354D01*
X017387Y010157D02*
X017415Y010157D01*
X017204Y009368D02*
X016848Y009368D01*
X016937Y009270D02*
X017116Y009270D01*
X017075Y009171D02*
X016977Y009171D01*
X017005Y009073D02*
X017073Y009073D01*
X016454Y009368D02*
X014856Y009368D01*
X014758Y009270D02*
X016366Y009270D01*
X016325Y009171D02*
X014659Y009171D01*
X013452Y010058D02*
X013350Y010058D01*
X012952Y010058D02*
X012850Y010058D01*
X012452Y010058D02*
X012340Y010058D01*
X012161Y010058D02*
X012141Y010058D01*
X012141Y010157D02*
X012161Y010157D01*
X012161Y010255D02*
X012141Y010255D01*
X012141Y010354D02*
X012161Y010354D01*
X012161Y010452D02*
X012141Y010452D01*
X012141Y010551D02*
X012161Y010551D01*
X012161Y010649D02*
X012141Y010649D01*
X012141Y010748D02*
X012161Y010748D01*
X012161Y010846D02*
X012141Y010846D01*
X012141Y010945D02*
X012161Y010945D01*
X012161Y011044D02*
X012141Y011044D01*
X012141Y011142D02*
X012161Y011142D01*
X012398Y011142D02*
X012400Y011142D01*
X013421Y011164D02*
X013421Y011740D01*
X013383Y011832D01*
X016943Y011832D01*
X016928Y011797D01*
X016928Y011538D01*
X016837Y011630D01*
X016716Y011680D01*
X016586Y011680D01*
X016465Y011630D01*
X016457Y011622D01*
X014955Y011622D01*
X014847Y011622D01*
X014748Y011580D01*
X014498Y011330D01*
X014422Y011254D01*
X014384Y011161D01*
X014333Y011212D01*
X013969Y011212D01*
X013901Y011144D01*
X013833Y011212D01*
X013469Y011212D01*
X013421Y011164D01*
X013421Y011241D02*
X014417Y011241D01*
X014507Y011339D02*
X013421Y011339D01*
X013421Y011438D02*
X014606Y011438D01*
X014704Y011536D02*
X013421Y011536D01*
X013421Y011635D02*
X016478Y011635D01*
X016825Y011635D02*
X016928Y011635D01*
X016928Y011733D02*
X013421Y011733D01*
X014056Y013171D02*
X014246Y013171D01*
X015246Y013171D01*
X015381Y013306D01*
X015631Y013556D01*
X015631Y013451D01*
X016101Y013451D01*
X016101Y013351D01*
X015631Y013351D01*
X015631Y013185D01*
X015766Y013051D01*
X006536Y013051D01*
X006592Y013106D01*
X006619Y013171D01*
X006700Y013171D01*
X006700Y013142D01*
X006788Y013054D01*
X007345Y013054D01*
X007401Y013110D01*
X007457Y013054D01*
X008014Y013054D01*
X008102Y013142D01*
X008102Y013353D01*
X008215Y013421D01*
X012496Y013421D01*
X012631Y013556D01*
X013381Y014306D01*
X013381Y014339D01*
X013401Y014359D01*
X013421Y014339D01*
X013421Y013806D01*
X013556Y013671D01*
X014056Y013171D01*
X014015Y013212D02*
X008102Y013212D01*
X008102Y013310D02*
X013917Y013310D01*
X013818Y013409D02*
X008195Y013409D01*
X008074Y013113D02*
X015704Y013113D01*
X015631Y013212D02*
X015287Y013212D01*
X015386Y013310D02*
X015631Y013310D01*
X015484Y013409D02*
X016101Y013409D01*
X015631Y013507D02*
X015583Y013507D01*
X017215Y012325D02*
X019151Y012325D01*
X038871Y012325D01*
X038871Y012226D02*
X019151Y012226D01*
X017317Y012226D01*
X017937Y012128D02*
X018034Y012128D01*
X018034Y012198D02*
X018034Y011900D01*
X018352Y011900D01*
X018352Y012068D01*
X018342Y012106D01*
X018322Y012141D01*
X018294Y012168D01*
X018260Y012188D01*
X018222Y012198D01*
X018034Y012198D01*
X018034Y012029D02*
X017937Y012029D01*
X017937Y011930D02*
X018034Y011930D01*
X018034Y011832D02*
X019151Y011832D01*
X038871Y011832D01*
X038871Y011930D02*
X019151Y011930D01*
X018352Y011930D01*
X018352Y012029D02*
X019151Y012029D01*
X038871Y012029D01*
X038871Y012128D02*
X019151Y012128D01*
X018330Y012128D01*
X018352Y011803D02*
X018352Y011635D01*
X018296Y011536D02*
X019151Y011536D01*
X038871Y011536D01*
X037657Y010256D02*
X037742Y010142D01*
X037811Y010017D01*
X037861Y009883D01*
X037891Y009744D01*
X037901Y009602D01*
X037891Y009459D01*
X037861Y009320D01*
X037811Y009186D01*
X037742Y009061D01*
X037657Y008947D01*
X037556Y008846D01*
X037442Y008760D01*
X037317Y008692D01*
X037183Y008642D01*
X037044Y008612D01*
X036901Y008602D01*
X020901Y008602D01*
X020759Y008612D01*
X020619Y008642D01*
X020486Y008692D01*
X020361Y008760D01*
X020246Y008846D01*
X020145Y008947D01*
X020060Y009061D01*
X019992Y009186D01*
X019942Y009320D01*
X019911Y009459D01*
X019901Y009602D01*
X019911Y009744D01*
X019942Y009883D01*
X019992Y010017D01*
X020060Y010142D01*
X020145Y010256D01*
X020246Y010357D01*
X020361Y010443D01*
X020486Y010511D01*
X020619Y010561D01*
X020759Y010591D01*
X020901Y010602D01*
X036901Y010602D01*
X037044Y010591D01*
X037183Y010561D01*
X037317Y010511D01*
X037442Y010443D01*
X037556Y010357D01*
X037657Y010256D01*
X037658Y010255D02*
X020145Y010255D01*
X020071Y010157D02*
X037732Y010157D01*
X037788Y010058D02*
X020014Y010058D01*
X019970Y009960D02*
X037832Y009960D01*
X037865Y009861D02*
X019937Y009861D01*
X019915Y009763D02*
X037887Y009763D01*
X037897Y009664D02*
X019906Y009664D01*
X019904Y009565D02*
X037899Y009565D01*
X037892Y009467D02*
X019911Y009467D01*
X019931Y009368D02*
X037871Y009368D01*
X037842Y009270D02*
X019960Y009270D01*
X020000Y009171D02*
X037803Y009171D01*
X037749Y009073D02*
X020054Y009073D01*
X020125Y008974D02*
X037677Y008974D01*
X037586Y008876D02*
X020217Y008876D01*
X020338Y008777D02*
X037464Y008777D01*
X037281Y008679D02*
X020522Y008679D01*
X019151Y008580D02*
X018625Y008580D01*
X018671Y007890D02*
X018741Y007890D01*
X018671Y007890D01*
X019218Y007693D02*
X038871Y007693D01*
X038871Y007595D02*
X019229Y007595D01*
X019213Y007496D02*
X038871Y007496D01*
X038871Y007397D02*
X019161Y007397D01*
X019028Y007299D02*
X038871Y007299D01*
X038871Y007200D02*
X018825Y007200D01*
X018727Y007102D02*
X038871Y007102D01*
X038871Y007003D02*
X018671Y007003D01*
X018671Y006905D02*
X038871Y006905D01*
X038871Y006806D02*
X018651Y006806D01*
X019151Y006148D02*
X038871Y006148D01*
X038871Y000452D01*
X018651Y000452D01*
X018651Y000567D01*
X018671Y000587D01*
X018671Y000747D01*
X018898Y000974D01*
X018966Y000974D01*
X019087Y001024D01*
X019179Y001116D01*
X019229Y001237D01*
X019229Y001368D01*
X019179Y001488D01*
X019087Y001580D01*
X018966Y001630D01*
X018836Y001630D01*
X018715Y001580D01*
X018671Y001536D01*
X018671Y002234D01*
X018651Y002254D01*
X018651Y002802D01*
X019151Y002802D01*
X019164Y002624D01*
X019202Y002450D01*
X019264Y002283D01*
X019350Y002127D01*
X019456Y001984D01*
X019583Y001858D01*
X019725Y001751D01*
X019882Y001665D01*
X020049Y001603D01*
X020223Y001565D01*
X020401Y001552D01*
X036901Y001552D01*
X037114Y001550D01*
X037326Y001575D01*
X037533Y001628D01*
X037730Y001708D01*
X037916Y001812D01*
X038087Y001940D01*
X038239Y002089D01*
X038371Y002257D01*
X038480Y002440D01*
X038563Y002636D01*
X038621Y002841D01*
X038651Y003052D01*
X038651Y003552D01*
X038621Y003763D01*
X038563Y003969D01*
X038480Y004165D01*
X038371Y004348D01*
X038239Y004516D01*
X038087Y004665D01*
X037916Y004793D01*
X037730Y004897D01*
X037533Y004976D01*
X037326Y005029D01*
X037114Y005055D01*
X036901Y005052D01*
X020651Y005052D01*
X020471Y005057D01*
X020291Y005038D01*
X020115Y004996D01*
X019947Y004931D01*
X019788Y004844D01*
X019642Y004738D01*
X019511Y004614D01*
X019398Y004473D01*
X019304Y004319D01*
X019230Y004154D01*
X019179Y003981D01*
X019151Y003802D01*
X019151Y006148D01*
X019151Y003612D01*
X019077Y003612D01*
X018874Y003815D01*
X018760Y003862D01*
X018723Y003862D01*
X018374Y004211D01*
X018374Y004573D01*
X018378Y004577D01*
X018378Y005028D01*
X018290Y005116D01*
X017918Y005116D01*
X017830Y005028D01*
X017830Y004577D01*
X017834Y004573D01*
X017834Y004153D01*
X017834Y004046D01*
X017875Y003947D01*
X017923Y003899D01*
X017457Y003899D01*
X017401Y003843D01*
X017345Y003899D01*
X016788Y003899D01*
X016751Y003862D01*
X015421Y003862D01*
X015421Y004072D01*
X017167Y004072D01*
X017215Y004024D01*
X017336Y003974D01*
X017466Y003974D01*
X017587Y004024D01*
X017679Y004116D01*
X017729Y004237D01*
X017729Y004368D01*
X017679Y004488D01*
X017587Y004580D01*
X017472Y004628D01*
X017472Y005028D01*
X017468Y005032D01*
X017468Y005206D01*
X017595Y005206D01*
X017651Y005261D01*
X017677Y005235D01*
X017711Y005216D01*
X017750Y005206D01*
X017937Y005206D01*
X017937Y005504D01*
X018034Y005504D01*
X018034Y005206D01*
X018222Y005206D01*
X018260Y005216D01*
X018294Y005235D01*
X018322Y005263D01*
X018342Y005298D01*
X018352Y005336D01*
X018352Y005504D01*
X018034Y005504D01*
X018034Y005601D01*
X017937Y005601D01*
X017937Y005899D01*
X017750Y005899D01*
X017711Y005889D01*
X017677Y005869D01*
X017651Y005843D01*
X017595Y005899D01*
X017345Y005899D01*
X017246Y005995D01*
X017210Y006031D01*
X017207Y006032D01*
X017205Y006034D01*
X017158Y006053D01*
X017110Y006072D01*
X017108Y006072D01*
X017105Y006073D01*
X017055Y006072D01*
X013205Y006072D01*
X013097Y006072D01*
X012998Y006031D01*
X012866Y005899D01*
X012707Y005899D01*
X012651Y005843D01*
X012625Y005869D01*
X012591Y005889D01*
X012553Y005899D01*
X012365Y005899D01*
X012365Y005601D01*
X012268Y005601D01*
X012268Y005899D01*
X012080Y005899D01*
X012042Y005889D01*
X012008Y005869D01*
X011980Y005841D01*
X011960Y005807D01*
X011950Y005769D01*
X011950Y005601D01*
X012268Y005601D01*
X012268Y005504D01*
X011950Y005504D01*
X011950Y005336D01*
X011960Y005298D01*
X011980Y005263D01*
X012008Y005235D01*
X012042Y005216D01*
X012080Y005206D01*
X012268Y005206D01*
X012268Y005504D01*
X012365Y005504D01*
X012365Y005206D01*
X012553Y005206D01*
X012591Y005216D01*
X012625Y005235D01*
X012651Y005261D01*
X012707Y005206D01*
X012881Y005206D01*
X012881Y004864D01*
X012833Y004912D01*
X012469Y004912D01*
X012398Y004842D01*
X012391Y004854D01*
X012363Y004882D01*
X012329Y004902D01*
X012291Y004912D01*
X012161Y004912D01*
X012161Y004338D01*
X012141Y004338D01*
X012141Y004912D01*
X012011Y004912D01*
X011973Y004902D01*
X011939Y004882D01*
X011911Y004854D01*
X011891Y004820D01*
X011881Y004782D01*
X011881Y004337D01*
X012141Y004337D01*
X012141Y004317D01*
X012161Y004317D01*
X012161Y003742D01*
X012291Y003742D01*
X012329Y003753D01*
X012363Y003772D01*
X012391Y003800D01*
X012398Y003813D01*
X012469Y003742D01*
X012833Y003742D01*
X012901Y003810D01*
X012969Y003742D01*
X013333Y003742D01*
X013401Y003810D01*
X013469Y003742D01*
X013833Y003742D01*
X013901Y003810D01*
X013969Y003742D01*
X014333Y003742D01*
X014401Y003810D01*
X014469Y003742D01*
X014653Y003742D01*
X014638Y003728D01*
X013888Y002978D01*
X013879Y002956D01*
X013804Y003031D01*
X013304Y003531D01*
X013205Y003572D01*
X013097Y003572D01*
X011352Y003572D01*
X011352Y004061D01*
X011264Y004149D01*
X010707Y004149D01*
X010651Y004093D01*
X010625Y004119D01*
X010591Y004139D01*
X010553Y004149D01*
X010365Y004149D01*
X010365Y003851D01*
X010268Y003851D01*
X010268Y004149D01*
X010080Y004149D01*
X010042Y004139D01*
X010008Y004119D01*
X009980Y004091D01*
X009960Y004057D01*
X009950Y004019D01*
X009950Y003851D01*
X010268Y003851D01*
X010268Y003754D01*
X009950Y003754D01*
X009950Y003586D01*
X009954Y003572D01*
X006263Y003572D01*
X005880Y003955D01*
X005880Y003955D01*
X005804Y004031D01*
X005705Y004072D01*
X004845Y004072D01*
X004837Y004080D01*
X004716Y004130D01*
X004586Y004130D01*
X004465Y004080D01*
X004373Y003988D01*
X004323Y003868D01*
X004323Y003737D01*
X004373Y003616D01*
X004465Y003524D01*
X004586Y003474D01*
X004716Y003474D01*
X004837Y003524D01*
X004845Y003532D01*
X005539Y003532D01*
X005922Y003149D01*
X005998Y003073D01*
X006097Y003032D01*
X007417Y003032D01*
X007373Y002988D01*
X007323Y002868D01*
X007323Y002737D01*
X007373Y002616D01*
X007465Y002524D01*
X007586Y002474D01*
X007716Y002474D01*
X007760Y002492D01*
X010700Y002492D01*
X010700Y002351D01*
X011018Y002351D01*
X011018Y002254D01*
X010700Y002254D01*
X010700Y002086D01*
X010710Y002048D01*
X010730Y002013D01*
X010758Y001985D01*
X010792Y001966D01*
X010830Y001956D01*
X011018Y001956D01*
X011018Y002254D01*
X011115Y002254D01*
X011115Y001956D01*
X011303Y001956D01*
X011341Y001966D01*
X011371Y001983D01*
X011323Y001868D01*
X011323Y001737D01*
X011373Y001616D01*
X011457Y001532D01*
X007845Y001532D01*
X007929Y001616D01*
X007979Y001737D01*
X007979Y001868D01*
X007929Y001988D01*
X007837Y002080D01*
X007716Y002130D01*
X007648Y002130D01*
X007131Y002648D01*
X006996Y002782D01*
X005697Y002782D01*
X005697Y002807D01*
X005697Y002915D01*
X005656Y003014D01*
X005602Y003068D01*
X005602Y003311D01*
X005514Y003399D01*
X004957Y003399D01*
X004901Y003343D01*
X004875Y003369D01*
X004841Y003389D01*
X004803Y003399D01*
X004615Y003399D01*
X004615Y003101D01*
X004518Y003101D01*
X004518Y003399D01*
X004330Y003399D01*
X004292Y003389D01*
X004258Y003369D01*
X004230Y003341D01*
X004210Y003307D01*
X004200Y003269D01*
X004200Y003101D01*
X004518Y003101D01*
X004518Y003004D01*
X004200Y003004D01*
X004200Y002836D01*
X004210Y002798D01*
X004230Y002763D01*
X004258Y002735D01*
X004292Y002716D01*
X004330Y002706D01*
X004518Y002706D01*
X004518Y003004D01*
X004615Y003004D01*
X004615Y002706D01*
X004803Y002706D01*
X004841Y002716D01*
X004875Y002735D01*
X004901Y002761D01*
X004957Y002706D01*
X005157Y002706D01*
X005157Y002608D01*
X005144Y002577D01*
X005013Y002577D01*
X004925Y002489D01*
X004925Y001915D01*
X005013Y001827D01*
X005537Y001827D01*
X005625Y001915D01*
X005625Y002322D01*
X006806Y002322D01*
X007323Y001805D01*
X007323Y001737D01*
X007373Y001616D01*
X007457Y001532D01*
X006746Y001532D01*
X006644Y001634D01*
X006671Y001699D01*
X006671Y001906D01*
X006592Y002097D01*
X006446Y002243D01*
X006255Y002322D01*
X006048Y002322D01*
X005857Y002243D01*
X005710Y002097D01*
X005631Y001906D01*
X005631Y001699D01*
X005710Y001508D01*
X005857Y001362D01*
X006000Y001302D01*
X005857Y001243D01*
X005710Y001097D01*
X005631Y000906D01*
X005631Y000699D01*
X005710Y000508D01*
X005766Y000452D01*
X000301Y000452D01*
X000301Y001780D01*
X000316Y001750D01*
X000365Y001684D01*
X000422Y001626D01*
X000489Y001578D01*
X000562Y001540D01*
X000639Y001515D01*
X000711Y001504D01*
X000711Y001972D01*
X000811Y001972D01*
X000811Y001504D01*
X000883Y001515D01*
X000961Y001540D01*
X001034Y001578D01*
X001100Y001626D01*
X001158Y001684D01*
X001206Y001750D01*
X001243Y001823D01*
X001268Y001901D01*
X001280Y001972D01*
X000811Y001972D01*
X000811Y002072D01*
X001280Y002072D01*
X001268Y002144D01*
X001243Y002222D01*
X001206Y002295D01*
X001158Y002361D01*
X001100Y002419D01*
X001034Y002467D01*
X000961Y002504D01*
X000883Y002530D01*
X000811Y002541D01*
X000811Y002073D01*
X000711Y002073D01*
X000711Y002541D01*
X000639Y002530D01*
X000562Y002504D01*
X000489Y002467D01*
X000422Y002419D01*
X000365Y002361D01*
X000316Y002295D01*
X000301Y002265D01*
X000301Y004340D01*
X000316Y004310D01*
X000365Y004244D01*
X000422Y004186D01*
X000489Y004138D01*
X000562Y004100D01*
X000639Y004075D01*
X000711Y004064D01*
X000711Y004532D01*
X000811Y004532D01*
X000811Y004064D01*
X000883Y004075D01*
X000961Y004100D01*
X001034Y004138D01*
X001100Y004186D01*
X001158Y004244D01*
X002144Y004244D01*
X002100Y004288D02*
X002247Y004142D01*
X002271Y004131D01*
X002271Y003496D01*
X002271Y003389D01*
X002271Y002473D01*
X002247Y002463D01*
X002100Y002317D01*
X002021Y002126D01*
X002021Y001919D01*
X002100Y001728D01*
X002247Y001582D01*
X002438Y001502D01*
X002645Y001502D01*
X002836Y001582D01*
X002982Y001728D01*
X003061Y001919D01*
X003061Y002126D01*
X002982Y002317D01*
X002836Y002463D01*
X002811Y002473D01*
X002811Y003264D01*
X002837Y003274D01*
X002929Y003366D01*
X002979Y003487D01*
X002979Y003618D01*
X002929Y003738D01*
X002837Y003830D01*
X002811Y003841D01*
X002811Y004131D01*
X002836Y004142D01*
X002982Y004288D01*
X003061Y004479D01*
X003061Y004686D01*
X002982Y004877D01*
X002836Y005022D01*
X002836Y005206D01*
X002845Y005206D01*
X002901Y005261D01*
X002957Y005206D01*
X002966Y005206D01*
X002966Y005051D01*
X002966Y004944D01*
X003007Y004844D01*
X003157Y004695D01*
X003151Y004681D01*
X003151Y004482D01*
X003227Y004299D01*
X003368Y004158D01*
X003381Y004153D01*
X003381Y003993D01*
X003304Y003916D01*
X003304Y003358D01*
X003360Y003302D01*
X003304Y003246D01*
X003304Y002689D01*
X003381Y002612D01*
X003381Y002452D01*
X003368Y002447D01*
X003227Y002306D01*
X003151Y002122D01*
X003151Y001923D01*
X003227Y001740D01*
X003368Y001599D01*
X003552Y001523D01*
X003751Y001523D01*
X003804Y001545D01*
X004176Y001172D01*
X004367Y001172D01*
X004551Y001172D01*
X004551Y001115D01*
X004639Y001027D01*
X005163Y001027D01*
X005251Y001115D01*
X005251Y001689D01*
X005163Y001777D01*
X004639Y001777D01*
X004551Y001689D01*
X004551Y001632D01*
X004367Y001632D01*
X004129Y001870D01*
X004151Y001923D01*
X004151Y002122D01*
X004075Y002306D01*
X003934Y002447D01*
X003921Y002452D01*
X003921Y002612D01*
X003998Y002689D01*
X003998Y002697D01*
X004039Y002796D01*
X004039Y002903D01*
X003998Y003003D01*
X003998Y003246D01*
X003942Y003302D01*
X003998Y003358D01*
X003998Y003659D01*
X003999Y003660D01*
X003999Y003850D01*
X004323Y003850D01*
X004323Y003751D02*
X003999Y003751D01*
X003998Y003653D02*
X004358Y003653D01*
X004435Y003554D02*
X003998Y003554D01*
X003998Y003456D02*
X005616Y003456D01*
X005556Y003357D02*
X005715Y003357D01*
X005813Y003259D02*
X005602Y003259D01*
X005602Y003160D02*
X005912Y003160D01*
X005922Y003149D02*
X005922Y003149D01*
X006027Y003062D02*
X005608Y003062D01*
X005677Y002963D02*
X007363Y002963D01*
X007323Y002864D02*
X005697Y002864D01*
X005157Y002667D02*
X003976Y002667D01*
X003998Y002697D02*
X003998Y002697D01*
X004027Y002766D02*
X004228Y002766D01*
X004200Y002864D02*
X004039Y002864D01*
X004015Y002963D02*
X004200Y002963D01*
X004200Y003160D02*
X003998Y003160D01*
X003998Y003062D02*
X004518Y003062D01*
X004518Y003160D02*
X004615Y003160D01*
X004615Y003259D02*
X004518Y003259D01*
X004518Y003357D02*
X004615Y003357D01*
X004887Y003357D02*
X004915Y003357D01*
X004615Y002963D02*
X004518Y002963D01*
X004518Y002864D02*
X004615Y002864D01*
X004615Y002766D02*
X004518Y002766D01*
X004477Y002577D02*
X004307Y002577D01*
X004269Y002567D01*
X004235Y002547D01*
X004207Y002519D01*
X004187Y002485D01*
X004177Y002447D01*
X004177Y002252D01*
X004477Y002252D01*
X004477Y002152D01*
X004577Y002152D01*
X004577Y001827D01*
X004747Y001827D01*
X004785Y001838D01*
X004819Y001857D01*
X004847Y001885D01*
X004867Y001919D01*
X004877Y001958D01*
X004877Y002152D01*
X004577Y002152D01*
X004577Y002252D01*
X004877Y002252D01*
X004877Y002447D01*
X004867Y002485D01*
X004847Y002519D01*
X004819Y002547D01*
X004785Y002567D01*
X004747Y002577D01*
X004577Y002577D01*
X004577Y002252D01*
X004477Y002252D01*
X004477Y002577D01*
X004477Y002569D02*
X004577Y002569D01*
X004577Y002470D02*
X004477Y002470D01*
X004477Y002372D02*
X004577Y002372D01*
X004577Y002273D02*
X004477Y002273D01*
X004477Y002175D02*
X004129Y002175D01*
X004177Y002152D02*
X004177Y001958D01*
X004187Y001919D01*
X004207Y001885D01*
X004235Y001857D01*
X004269Y001838D01*
X004307Y001827D01*
X004477Y001827D01*
X004477Y002152D01*
X004177Y002152D01*
X004177Y002076D02*
X004151Y002076D01*
X004151Y001978D02*
X004177Y001978D01*
X004213Y001879D02*
X004133Y001879D01*
X004219Y001781D02*
X005631Y001781D01*
X005631Y001879D02*
X005589Y001879D01*
X005625Y001978D02*
X005661Y001978D01*
X005625Y002076D02*
X005702Y002076D01*
X005625Y002175D02*
X005788Y002175D01*
X005929Y002273D02*
X005625Y002273D01*
X005638Y001682D02*
X005251Y001682D01*
X005251Y001583D02*
X005679Y001583D01*
X005733Y001485D02*
X005251Y001485D01*
X005251Y001386D02*
X005832Y001386D01*
X005964Y001288D02*
X005251Y001288D01*
X005251Y001189D02*
X005803Y001189D01*
X005708Y001091D02*
X005227Y001091D01*
X005631Y000894D02*
X000301Y000894D01*
X000301Y000992D02*
X005667Y000992D01*
X005631Y000795D02*
X000301Y000795D01*
X000301Y000697D02*
X005632Y000697D01*
X005673Y000598D02*
X000301Y000598D01*
X000301Y000499D02*
X005719Y000499D01*
X006536Y000452D02*
X006592Y000508D01*
X006619Y000572D01*
X006700Y000572D01*
X006700Y000543D01*
X006788Y000456D01*
X007345Y000456D01*
X007401Y000511D01*
X007457Y000456D01*
X008014Y000456D01*
X008102Y000543D01*
X008102Y000755D01*
X008215Y000822D01*
X012496Y000822D01*
X012631Y000957D01*
X013381Y001707D01*
X013381Y001740D01*
X013401Y001760D01*
X013421Y001740D01*
X013421Y001207D01*
X013556Y001072D01*
X014056Y000572D01*
X014246Y000572D01*
X015246Y000572D01*
X015381Y000707D01*
X015631Y000957D01*
X015631Y000852D01*
X016101Y000852D01*
X016101Y000752D01*
X015631Y000752D01*
X015631Y000587D01*
X015766Y000452D01*
X006536Y000452D01*
X006584Y000499D02*
X006744Y000499D01*
X007389Y000499D02*
X007413Y000499D01*
X008058Y000499D02*
X015719Y000499D01*
X015631Y000598D02*
X015272Y000598D01*
X015371Y000697D02*
X015631Y000697D01*
X015469Y000795D02*
X016101Y000795D01*
X015631Y000894D02*
X015568Y000894D01*
X014030Y000598D02*
X008102Y000598D01*
X008102Y000697D02*
X013932Y000697D01*
X013833Y000795D02*
X008170Y000795D01*
X007896Y001583D02*
X011406Y001583D01*
X011346Y001682D02*
X007956Y001682D01*
X007979Y001781D02*
X011323Y001781D01*
X011328Y001879D02*
X007975Y001879D01*
X007934Y001978D02*
X010771Y001978D01*
X010703Y002076D02*
X007841Y002076D01*
X007604Y002175D02*
X010700Y002175D01*
X010700Y002372D02*
X007407Y002372D01*
X007308Y002470D02*
X010700Y002470D01*
X011018Y002273D02*
X007506Y002273D01*
X007421Y002569D02*
X007210Y002569D01*
X007111Y002667D02*
X007352Y002667D01*
X007323Y002766D02*
X007013Y002766D01*
X006855Y002273D02*
X006373Y002273D01*
X006514Y002175D02*
X006954Y002175D01*
X007052Y002076D02*
X006601Y002076D01*
X006641Y001978D02*
X007151Y001978D01*
X007249Y001879D02*
X006671Y001879D01*
X006671Y001781D02*
X007323Y001781D01*
X007346Y001682D02*
X006664Y001682D01*
X006695Y001583D02*
X007406Y001583D01*
X004961Y001879D02*
X004841Y001879D01*
X004877Y001978D02*
X004925Y001978D01*
X004925Y002076D02*
X004877Y002076D01*
X004925Y002175D02*
X004577Y002175D01*
X004577Y002076D02*
X004477Y002076D01*
X004477Y001978D02*
X004577Y001978D01*
X004577Y001879D02*
X004477Y001879D01*
X004551Y001682D02*
X004317Y001682D01*
X003962Y001386D02*
X000301Y001386D01*
X000301Y001288D02*
X004061Y001288D01*
X004159Y001189D02*
X000301Y001189D01*
X000301Y001091D02*
X004576Y001091D01*
X003864Y001485D02*
X000301Y001485D01*
X000301Y001583D02*
X000481Y001583D01*
X000366Y001682D02*
X000301Y001682D01*
X000711Y001682D02*
X000811Y001682D01*
X000811Y001781D02*
X000711Y001781D01*
X000711Y001879D02*
X000811Y001879D01*
X000811Y001978D02*
X002021Y001978D01*
X002021Y002076D02*
X001279Y002076D01*
X001258Y002175D02*
X002041Y002175D01*
X002082Y002273D02*
X001217Y002273D01*
X001147Y002372D02*
X002155Y002372D01*
X002264Y002470D02*
X001027Y002470D01*
X000811Y002470D02*
X000711Y002470D01*
X000711Y002372D02*
X000811Y002372D01*
X000811Y002273D02*
X000711Y002273D01*
X000711Y002175D02*
X000811Y002175D01*
X000811Y002076D02*
X000711Y002076D01*
X000375Y002372D02*
X000301Y002372D01*
X000301Y002470D02*
X000495Y002470D01*
X000301Y002569D02*
X002271Y002569D01*
X002271Y002667D02*
X000301Y002667D01*
X000301Y002766D02*
X002271Y002766D01*
X002271Y002864D02*
X000301Y002864D01*
X000301Y002963D02*
X002271Y002963D01*
X002271Y003062D02*
X000301Y003062D01*
X000301Y003160D02*
X002271Y003160D01*
X002271Y003259D02*
X000301Y003259D01*
X000301Y003357D02*
X002271Y003357D01*
X002271Y003456D02*
X000301Y003456D01*
X000301Y003554D02*
X002271Y003554D01*
X002271Y003653D02*
X000301Y003653D01*
X000301Y003751D02*
X002271Y003751D01*
X002271Y003850D02*
X000301Y003850D01*
X000301Y003948D02*
X002271Y003948D01*
X002271Y004047D02*
X000301Y004047D01*
X000301Y004146D02*
X000478Y004146D01*
X000364Y004244D02*
X000301Y004244D01*
X000711Y004244D02*
X000811Y004244D01*
X000811Y004146D02*
X000711Y004146D01*
X000711Y004343D02*
X000811Y004343D01*
X000811Y004441D02*
X000711Y004441D01*
X000811Y004532D02*
X000811Y004632D01*
X001280Y004632D01*
X001268Y004704D01*
X001243Y004782D01*
X001206Y004855D01*
X001158Y004921D01*
X001100Y004979D01*
X001034Y005027D01*
X000961Y005064D01*
X000883Y005090D01*
X000811Y005101D01*
X000811Y004633D01*
X000711Y004633D01*
X000711Y005101D01*
X000639Y005090D01*
X000562Y005064D01*
X000489Y005027D01*
X000422Y004979D01*
X000365Y004921D01*
X000316Y004855D01*
X000301Y004825D01*
X000301Y006148D01*
X019151Y006148D01*
X019151Y006116D02*
X038871Y006116D01*
X038871Y006018D02*
X019151Y006018D01*
X017223Y006018D01*
X017324Y005919D02*
X019151Y005919D01*
X038871Y005919D01*
X038871Y005821D02*
X019151Y005821D01*
X018334Y005821D01*
X018342Y005807D02*
X018322Y005841D01*
X018294Y005869D01*
X018260Y005889D01*
X018222Y005899D01*
X018034Y005899D01*
X018034Y005601D01*
X018352Y005601D01*
X018352Y005769D01*
X018342Y005807D01*
X018352Y005722D02*
X019151Y005722D01*
X038871Y005722D01*
X038871Y005624D02*
X019151Y005624D01*
X018352Y005624D01*
X018352Y005427D02*
X019151Y005427D01*
X038871Y005427D01*
X038871Y005525D02*
X019151Y005525D01*
X018034Y005525D01*
X018034Y005427D02*
X017937Y005427D01*
X017937Y005328D02*
X018034Y005328D01*
X018034Y005230D02*
X017937Y005230D01*
X017834Y005032D02*
X017468Y005032D01*
X017472Y004934D02*
X017830Y004934D01*
X017830Y004835D02*
X017472Y004835D01*
X017472Y004737D02*
X017830Y004737D01*
X017830Y004638D02*
X017472Y004638D01*
X017628Y004540D02*
X017834Y004540D01*
X017834Y004441D02*
X017699Y004441D01*
X017729Y004343D02*
X017834Y004343D01*
X017834Y004244D02*
X017729Y004244D01*
X017691Y004146D02*
X017834Y004146D01*
X017834Y004047D02*
X017610Y004047D01*
X017874Y003948D02*
X015421Y003948D01*
X015421Y004047D02*
X017193Y004047D01*
X017394Y003850D02*
X017408Y003850D01*
X017401Y003261D02*
X017457Y003206D01*
X018014Y003206D01*
X018051Y003242D01*
X018570Y003242D01*
X018773Y003040D01*
X018887Y002992D01*
X019010Y002992D01*
X019151Y002992D01*
X019151Y001516D01*
X019087Y001580D01*
X018966Y001630D01*
X018836Y001630D01*
X018715Y001580D01*
X018671Y001536D01*
X018671Y002234D01*
X018583Y002322D01*
X018381Y002322D01*
X018381Y002398D01*
X017746Y003032D01*
X017635Y003032D01*
X017587Y003080D01*
X017466Y003130D01*
X017336Y003130D01*
X017215Y003080D01*
X017123Y002988D01*
X017073Y002868D01*
X017073Y002737D01*
X017095Y002683D01*
X016979Y002799D01*
X016979Y002868D01*
X016929Y002988D01*
X016837Y003080D01*
X016716Y003130D01*
X016586Y003130D01*
X016465Y003080D01*
X016373Y002988D01*
X016323Y002868D01*
X016323Y002737D01*
X016345Y002683D01*
X016246Y002782D01*
X015413Y002782D01*
X015333Y002862D01*
X014969Y002862D01*
X014901Y002794D01*
X014833Y002862D01*
X014649Y002862D01*
X015030Y003242D01*
X016751Y003242D01*
X016788Y003206D01*
X017345Y003206D01*
X017401Y003261D01*
X017398Y003259D02*
X017404Y003259D01*
X017606Y003062D02*
X018751Y003062D01*
X018652Y003160D02*
X014947Y003160D01*
X014849Y003062D02*
X016446Y003062D01*
X016363Y002963D02*
X014750Y002963D01*
X014652Y002864D02*
X016323Y002864D01*
X016323Y002766D02*
X016263Y002766D01*
X016856Y003062D02*
X017196Y003062D01*
X017113Y002963D02*
X016940Y002963D01*
X016979Y002864D02*
X017073Y002864D01*
X017073Y002766D02*
X017013Y002766D01*
X017816Y002963D02*
X019151Y002963D01*
X019151Y002864D02*
X017914Y002864D01*
X018013Y002766D02*
X019151Y002766D01*
X019154Y002766D02*
X018651Y002766D01*
X018651Y002667D02*
X019161Y002667D01*
X019151Y002667D02*
X018111Y002667D01*
X018210Y002569D02*
X019151Y002569D01*
X019176Y002569D02*
X018651Y002569D01*
X018651Y002470D02*
X019197Y002470D01*
X019151Y002470D02*
X018308Y002470D01*
X018381Y002372D02*
X019151Y002372D01*
X019231Y002372D02*
X018651Y002372D01*
X018651Y002273D02*
X019270Y002273D01*
X019323Y002175D02*
X018671Y002175D01*
X019151Y002175D01*
X019151Y002273D02*
X018632Y002273D01*
X018671Y002076D02*
X019387Y002076D01*
X019463Y001978D02*
X018671Y001978D01*
X019151Y001978D01*
X019151Y002076D02*
X018671Y002076D01*
X018671Y001879D02*
X019561Y001879D01*
X019686Y001781D02*
X018671Y001781D01*
X019151Y001781D01*
X019151Y001879D02*
X018671Y001879D01*
X018671Y001682D02*
X019851Y001682D01*
X020139Y001583D02*
X019080Y001583D01*
X019151Y001583D01*
X019151Y001682D02*
X018671Y001682D01*
X018671Y001583D02*
X018722Y001583D01*
X018671Y001583D01*
X019181Y001485D02*
X038871Y001485D01*
X038871Y001583D02*
X037357Y001583D01*
X037667Y001682D02*
X038871Y001682D01*
X038871Y001781D02*
X037860Y001781D01*
X038006Y001879D02*
X038871Y001879D01*
X038871Y001978D02*
X038125Y001978D01*
X038226Y002076D02*
X038871Y002076D01*
X038871Y002175D02*
X038307Y002175D01*
X038381Y002273D02*
X038871Y002273D01*
X038871Y002372D02*
X038439Y002372D01*
X038493Y002470D02*
X038871Y002470D01*
X038871Y002569D02*
X038535Y002569D01*
X038572Y002667D02*
X038871Y002667D01*
X038871Y002766D02*
X038600Y002766D01*
X038624Y002864D02*
X038871Y002864D01*
X038871Y002963D02*
X038638Y002963D01*
X038651Y003062D02*
X038871Y003062D01*
X038871Y003160D02*
X038651Y003160D01*
X038651Y003259D02*
X038871Y003259D01*
X038871Y003357D02*
X038651Y003357D01*
X038651Y003456D02*
X038871Y003456D01*
X038871Y003554D02*
X038651Y003554D01*
X038637Y003653D02*
X038871Y003653D01*
X038871Y003751D02*
X038623Y003751D01*
X038597Y003850D02*
X038871Y003850D01*
X038871Y003948D02*
X038569Y003948D01*
X038530Y004047D02*
X038871Y004047D01*
X038871Y004146D02*
X038488Y004146D01*
X038433Y004244D02*
X038871Y004244D01*
X038871Y004343D02*
X038374Y004343D01*
X038298Y004441D02*
X038871Y004441D01*
X038871Y004540D02*
X038215Y004540D01*
X038114Y004638D02*
X038871Y004638D01*
X038871Y004737D02*
X037991Y004737D01*
X037840Y004835D02*
X038871Y004835D01*
X038871Y004934D02*
X037639Y004934D01*
X037300Y005032D02*
X038871Y005032D01*
X038871Y005131D02*
X019151Y005131D01*
X017468Y005131D01*
X017619Y005230D02*
X017687Y005230D01*
X017937Y005624D02*
X018034Y005624D01*
X018034Y005722D02*
X017937Y005722D01*
X017937Y005821D02*
X018034Y005821D01*
X018350Y005328D02*
X019151Y005328D01*
X038871Y005328D01*
X038871Y005230D02*
X019151Y005230D01*
X018284Y005230D01*
X018373Y005032D02*
X019151Y005032D01*
X020269Y005032D01*
X019955Y004934D02*
X019151Y004934D01*
X018378Y004934D01*
X018378Y004835D02*
X019151Y004835D01*
X019776Y004835D01*
X019641Y004737D02*
X019151Y004737D01*
X018378Y004737D01*
X018378Y004638D02*
X019151Y004638D01*
X019537Y004638D01*
X019452Y004540D02*
X019151Y004540D01*
X018374Y004540D01*
X018374Y004441D02*
X019151Y004441D01*
X019378Y004441D01*
X019318Y004343D02*
X019151Y004343D01*
X018374Y004343D01*
X018374Y004244D02*
X019151Y004244D01*
X019270Y004244D01*
X019228Y004146D02*
X019151Y004146D01*
X018440Y004146D01*
X018538Y004047D02*
X019151Y004047D01*
X019199Y004047D01*
X019174Y003948D02*
X019151Y003948D01*
X018637Y003948D01*
X018790Y003850D02*
X019151Y003850D01*
X019159Y003850D01*
X019151Y003751D02*
X018938Y003751D01*
X019036Y003653D02*
X019151Y003653D01*
X019914Y003456D02*
X037889Y003456D01*
X037891Y003445D02*
X037901Y003302D01*
X037891Y003160D01*
X037861Y003021D01*
X037811Y002887D01*
X037742Y002762D01*
X037657Y002648D01*
X037556Y002547D01*
X037442Y002461D01*
X037317Y002393D01*
X037183Y002343D01*
X037044Y002313D01*
X036901Y002302D01*
X020901Y002302D01*
X020759Y002313D01*
X020619Y002343D01*
X020486Y002393D01*
X020361Y002461D01*
X020246Y002547D01*
X020145Y002648D01*
X020060Y002762D01*
X019992Y002887D01*
X019942Y003021D01*
X019911Y003160D01*
X037891Y003160D01*
X037898Y003259D02*
X019904Y003259D01*
X019901Y003302D02*
X019911Y003445D01*
X019942Y003584D01*
X019992Y003718D01*
X020060Y003843D01*
X020145Y003957D01*
X020246Y004058D01*
X020361Y004144D01*
X020486Y004212D01*
X020619Y004262D01*
X020759Y004292D01*
X020901Y004302D01*
X036901Y004302D01*
X037044Y004292D01*
X037183Y004262D01*
X037317Y004212D01*
X037442Y004144D01*
X037556Y004058D01*
X037657Y003957D01*
X037742Y003843D01*
X037811Y003718D01*
X037861Y003584D01*
X037891Y003445D01*
X037897Y003357D02*
X019905Y003357D01*
X019901Y003302D02*
X019911Y003160D01*
X019933Y003062D02*
X037870Y003062D01*
X037839Y002963D02*
X019963Y002963D01*
X020004Y002864D02*
X037799Y002864D01*
X037745Y002766D02*
X020058Y002766D01*
X020131Y002667D02*
X037672Y002667D01*
X037578Y002569D02*
X020224Y002569D01*
X020348Y002470D02*
X037454Y002470D01*
X037260Y002372D02*
X020542Y002372D01*
X019935Y003554D02*
X037867Y003554D01*
X037835Y003653D02*
X019967Y003653D01*
X020010Y003751D02*
X037792Y003751D01*
X037737Y003850D02*
X020065Y003850D01*
X020139Y003948D02*
X037663Y003948D01*
X037567Y004047D02*
X020235Y004047D01*
X020364Y004146D02*
X037438Y004146D01*
X037231Y004244D02*
X020572Y004244D01*
X019151Y006116D02*
X000301Y006116D01*
X000301Y006018D02*
X012985Y006018D01*
X012886Y005919D02*
X000301Y005919D01*
X000301Y005821D02*
X002209Y005821D01*
X002200Y005811D02*
X002200Y005293D01*
X002288Y005206D01*
X002297Y005206D01*
X002297Y005044D01*
X002247Y005023D01*
X002100Y004877D01*
X002021Y004686D01*
X002021Y004479D01*
X002100Y004288D01*
X002078Y004343D02*
X001223Y004343D01*
X001206Y004310D02*
X001243Y004383D01*
X001268Y004461D01*
X001280Y004532D01*
X000811Y004532D01*
X000811Y004540D02*
X002021Y004540D01*
X002021Y004638D02*
X001279Y004638D01*
X001258Y004737D02*
X002042Y004737D01*
X002083Y004835D02*
X001216Y004835D01*
X001145Y004934D02*
X002157Y004934D01*
X002269Y005032D02*
X001023Y005032D01*
X000811Y005032D02*
X000711Y005032D01*
X000711Y004934D02*
X000811Y004934D01*
X000811Y004835D02*
X000711Y004835D01*
X000711Y004737D02*
X000811Y004737D01*
X000811Y004638D02*
X000711Y004638D01*
X000377Y004934D02*
X000301Y004934D01*
X000301Y005032D02*
X000499Y005032D01*
X000301Y005131D02*
X002297Y005131D01*
X002264Y005230D02*
X000301Y005230D01*
X000301Y005328D02*
X002200Y005328D01*
X002200Y005427D02*
X000301Y005427D01*
X000301Y005525D02*
X002200Y005525D01*
X002200Y005624D02*
X000301Y005624D01*
X000301Y005722D02*
X002200Y005722D01*
X002200Y005811D02*
X002288Y005899D01*
X002845Y005899D01*
X002901Y005843D01*
X002957Y005899D01*
X003514Y005899D01*
X003602Y005811D01*
X003602Y005293D01*
X003514Y005206D01*
X003506Y005206D01*
X003506Y005109D01*
X003538Y005076D01*
X003552Y005082D01*
X003751Y005082D01*
X003934Y005006D01*
X004064Y004876D01*
X004200Y005013D01*
X004200Y005311D01*
X004288Y005399D01*
X004845Y005399D01*
X004901Y005343D01*
X004927Y005369D01*
X004961Y005389D01*
X005000Y005399D01*
X005187Y005399D01*
X005187Y005101D01*
X005284Y005101D01*
X005284Y005399D01*
X005472Y005399D01*
X005510Y005389D01*
X005544Y005369D01*
X005572Y005341D01*
X005592Y005307D01*
X005602Y005269D01*
X005602Y005101D01*
X005284Y005101D01*
X005284Y005004D01*
X005602Y005004D01*
X005602Y004862D01*
X006463Y004862D01*
X006577Y004815D01*
X006664Y004728D01*
X006711Y004614D01*
X006711Y004491D01*
X006664Y004377D01*
X006577Y004290D01*
X006463Y004242D01*
X004173Y004242D01*
X004164Y004239D01*
X004112Y004242D01*
X004060Y004242D01*
X004051Y004246D01*
X004024Y004248D01*
X003934Y004158D01*
X003921Y004153D01*
X003921Y003993D01*
X003998Y003916D01*
X003998Y003852D01*
X003999Y003850D01*
X003965Y003948D02*
X004357Y003948D01*
X004432Y004047D02*
X003921Y004047D01*
X003921Y004146D02*
X010067Y004146D01*
X009958Y004047D02*
X005766Y004047D01*
X005887Y003948D02*
X009950Y003948D01*
X009950Y003751D02*
X006084Y003751D01*
X006182Y003653D02*
X009950Y003653D01*
X010268Y003850D02*
X005985Y003850D01*
X006467Y004244D02*
X011881Y004244D01*
X011881Y004317D02*
X011881Y003873D01*
X011891Y003834D01*
X011911Y003800D01*
X011939Y003772D01*
X011973Y003753D01*
X012011Y003742D01*
X012141Y003742D01*
X012141Y004317D01*
X011881Y004317D01*
X011881Y004343D02*
X006630Y004343D01*
X006691Y004441D02*
X011881Y004441D01*
X011881Y004540D02*
X006711Y004540D01*
X006701Y004638D02*
X011881Y004638D01*
X011881Y004737D02*
X006655Y004737D01*
X006528Y004835D02*
X011900Y004835D01*
X012141Y004835D02*
X012161Y004835D01*
X012161Y004737D02*
X012141Y004737D01*
X012141Y004638D02*
X012161Y004638D01*
X012161Y004540D02*
X012141Y004540D01*
X012141Y004441D02*
X012161Y004441D01*
X012161Y004343D02*
X012141Y004343D01*
X012141Y004244D02*
X012161Y004244D01*
X012161Y004146D02*
X012141Y004146D01*
X012141Y004047D02*
X012161Y004047D01*
X012161Y003948D02*
X012141Y003948D01*
X012141Y003850D02*
X012161Y003850D01*
X012161Y003751D02*
X012141Y003751D01*
X011978Y003751D02*
X011352Y003751D01*
X011352Y003653D02*
X014563Y003653D01*
X014465Y003554D02*
X013248Y003554D01*
X013380Y003456D02*
X014366Y003456D01*
X014268Y003357D02*
X013478Y003357D01*
X013577Y003259D02*
X014169Y003259D01*
X014071Y003160D02*
X013675Y003160D01*
X013774Y003062D02*
X013972Y003062D01*
X013882Y002963D02*
X013872Y002963D01*
X013842Y003751D02*
X013960Y003751D01*
X014342Y003751D02*
X014460Y003751D01*
X013460Y003751D02*
X013342Y003751D01*
X012960Y003751D02*
X012842Y003751D01*
X012460Y003751D02*
X012324Y003751D01*
X011887Y003850D02*
X011352Y003850D01*
X011352Y003948D02*
X011881Y003948D01*
X011881Y004047D02*
X011352Y004047D01*
X011268Y004146D02*
X011881Y004146D01*
X010704Y004146D02*
X010566Y004146D01*
X010365Y004146D02*
X010268Y004146D01*
X010268Y004047D02*
X010365Y004047D01*
X010365Y003948D02*
X010268Y003948D01*
X012018Y005230D02*
X005602Y005230D01*
X005602Y005131D02*
X012881Y005131D01*
X012881Y005032D02*
X005284Y005032D01*
X005284Y005131D02*
X005187Y005131D01*
X005187Y005230D02*
X005284Y005230D01*
X005284Y005328D02*
X005187Y005328D01*
X005580Y005328D02*
X011952Y005328D01*
X011950Y005427D02*
X003602Y005427D01*
X003602Y005525D02*
X012268Y005525D01*
X012268Y005427D02*
X012365Y005427D01*
X012365Y005328D02*
X012268Y005328D01*
X012268Y005230D02*
X012365Y005230D01*
X012615Y005230D02*
X012683Y005230D01*
X012881Y004934D02*
X005602Y004934D01*
X004200Y005032D02*
X003870Y005032D01*
X004006Y004934D02*
X004121Y004934D01*
X004200Y005131D02*
X003506Y005131D01*
X003539Y005230D02*
X004200Y005230D01*
X004217Y005328D02*
X003602Y005328D01*
X003602Y005624D02*
X011950Y005624D01*
X011950Y005722D02*
X003602Y005722D01*
X003593Y005821D02*
X011968Y005821D01*
X012268Y005821D02*
X012365Y005821D01*
X012365Y005722D02*
X012268Y005722D01*
X012268Y005624D02*
X012365Y005624D01*
X013383Y005532D02*
X013421Y005441D01*
X013421Y004864D01*
X013469Y004912D01*
X013833Y004912D01*
X013901Y004844D01*
X013969Y004912D01*
X014333Y004912D01*
X014384Y004862D01*
X014422Y004955D01*
X014498Y005031D01*
X014748Y005281D01*
X014847Y005322D01*
X014955Y005322D01*
X016457Y005322D01*
X016465Y005330D01*
X016586Y005380D01*
X016716Y005380D01*
X016837Y005330D01*
X016928Y005239D01*
X016928Y005498D01*
X016943Y005532D01*
X013383Y005532D01*
X013386Y005525D02*
X016940Y005525D01*
X016928Y005427D02*
X013421Y005427D01*
X013421Y005328D02*
X016463Y005328D01*
X016839Y005328D02*
X016928Y005328D01*
X014697Y005230D02*
X013421Y005230D01*
X013421Y005131D02*
X014598Y005131D01*
X014499Y005032D02*
X013421Y005032D01*
X013421Y004934D02*
X014413Y004934D01*
X013727Y007200D02*
X012575Y007200D01*
X012674Y007299D02*
X013629Y007299D01*
X013530Y007397D02*
X012772Y007397D01*
X012871Y007496D02*
X013431Y007496D01*
X013421Y007595D02*
X012969Y007595D01*
X013068Y007693D02*
X013421Y007693D01*
X013421Y007792D02*
X013166Y007792D01*
X013265Y007890D02*
X013421Y007890D01*
X013421Y007989D02*
X013364Y007989D01*
X011115Y008284D02*
X011018Y008284D01*
X011018Y008383D02*
X011115Y008383D01*
X011115Y008481D02*
X011018Y008481D01*
X016255Y009073D02*
X016323Y009073D01*
X018432Y010452D02*
X019151Y010452D01*
X019230Y010452D01*
X019201Y010354D02*
X019151Y010354D01*
X018531Y010354D01*
X018629Y010255D02*
X019151Y010255D01*
X019175Y010255D01*
X019160Y010157D02*
X019151Y010157D01*
X018772Y010157D01*
X018930Y010058D02*
X019151Y010058D01*
X019151Y009960D02*
X019029Y009960D01*
X019151Y010551D02*
X019274Y010551D01*
X019323Y010649D02*
X019151Y010649D01*
X018374Y010649D01*
X018374Y010551D02*
X019151Y010551D01*
X019151Y010748D02*
X019383Y010748D01*
X019458Y010846D02*
X019151Y010846D01*
X018374Y010846D01*
X018374Y010748D02*
X019151Y010748D01*
X019151Y010945D02*
X019545Y010945D01*
X019651Y011044D02*
X019151Y011044D01*
X018378Y011044D01*
X018378Y011142D02*
X019151Y011142D01*
X019786Y011142D01*
X019975Y011241D02*
X019151Y011241D01*
X018378Y011241D01*
X018366Y011339D02*
X019151Y011339D01*
X020311Y011339D01*
X020592Y010551D02*
X037210Y010551D01*
X037424Y010452D02*
X020378Y010452D01*
X020243Y010354D02*
X037560Y010354D01*
X037416Y014197D02*
X038871Y014197D01*
X038871Y014296D02*
X037704Y014296D01*
X037887Y014394D02*
X038871Y014394D01*
X038871Y014493D02*
X038026Y014493D01*
X038141Y014591D02*
X038871Y014591D01*
X038871Y014690D02*
X038241Y014690D01*
X038319Y014788D02*
X038871Y014788D01*
X038871Y014887D02*
X038390Y014887D01*
X038448Y014985D02*
X038871Y014985D01*
X038871Y015084D02*
X038499Y015084D01*
X038541Y015182D02*
X038871Y015182D01*
X038871Y015281D02*
X038576Y015281D01*
X038604Y015379D02*
X038871Y015379D01*
X038871Y015478D02*
X038626Y015478D01*
X038641Y015577D02*
X038871Y015577D01*
X038871Y015675D02*
X038651Y015675D01*
X038651Y015774D02*
X038871Y015774D01*
X038871Y015872D02*
X038651Y015872D01*
X038651Y015971D02*
X038871Y015971D01*
X038871Y016069D02*
X038651Y016069D01*
X038649Y016168D02*
X038871Y016168D01*
X038871Y016266D02*
X038635Y016266D01*
X038620Y016365D02*
X038871Y016365D01*
X038871Y016463D02*
X038593Y016463D01*
X038565Y016562D02*
X038871Y016562D01*
X038871Y016661D02*
X038524Y016661D01*
X038481Y016759D02*
X038871Y016759D01*
X038871Y016858D02*
X038424Y016858D01*
X038363Y016956D02*
X038871Y016956D01*
X038871Y017055D02*
X038286Y017055D01*
X038199Y017153D02*
X038871Y017153D01*
X038871Y017252D02*
X038099Y017252D01*
X037971Y017350D02*
X038871Y017350D01*
X038871Y017449D02*
X037814Y017449D01*
X037601Y017547D02*
X038871Y017547D01*
X038871Y017646D02*
X037174Y017646D01*
X037190Y016858D02*
X020612Y016858D01*
X020392Y016759D02*
X037411Y016759D01*
X037551Y016661D02*
X020252Y016661D01*
X020152Y016562D02*
X037651Y016562D01*
X037726Y016463D02*
X020076Y016463D01*
X020018Y016365D02*
X037784Y016365D01*
X037829Y016266D02*
X019973Y016266D01*
X019938Y016168D02*
X037864Y016168D01*
X038871Y018730D02*
X019151Y018730D01*
X000301Y018730D01*
X000301Y018631D02*
X013003Y018631D01*
X012901Y018533D02*
X000301Y018533D01*
X000301Y018434D02*
X002225Y018434D01*
X002200Y018410D02*
X002200Y017892D01*
X002288Y017804D01*
X002297Y017804D01*
X002297Y017642D01*
X002247Y017622D01*
X002100Y017475D01*
X002021Y017284D01*
X002021Y017077D01*
X002100Y016886D01*
X002247Y016740D01*
X002271Y016730D01*
X002271Y016094D01*
X002271Y015987D01*
X002271Y015072D01*
X002247Y015062D01*
X002100Y014915D01*
X002021Y014724D01*
X002021Y014517D01*
X002100Y014326D01*
X002247Y014180D01*
X002438Y014101D01*
X002645Y014101D01*
X002836Y014180D01*
X002982Y014326D01*
X003061Y014517D01*
X003061Y014724D01*
X002982Y014915D01*
X002836Y015062D01*
X002811Y015072D01*
X002811Y015862D01*
X002837Y015873D01*
X002929Y015965D01*
X002979Y016085D01*
X002979Y016216D01*
X002929Y016337D01*
X002837Y016429D01*
X002811Y016440D01*
X002811Y016730D01*
X002836Y016740D01*
X002982Y016886D01*
X003061Y017077D01*
X003061Y017284D01*
X002982Y017475D01*
X002836Y017621D01*
X002836Y017804D01*
X002845Y017804D01*
X002901Y017860D01*
X002957Y017804D01*
X002966Y017804D01*
X002966Y017649D01*
X002966Y017542D01*
X003007Y017443D01*
X003157Y017293D01*
X003151Y017280D01*
X003151Y017081D01*
X003227Y016897D01*
X003368Y016756D01*
X003381Y016751D01*
X003381Y016591D01*
X003304Y016514D01*
X003304Y015957D01*
X003360Y015901D01*
X003304Y015845D01*
X003304Y015287D01*
X003381Y015211D01*
X003381Y015051D01*
X003368Y015045D01*
X003227Y014904D01*
X003151Y014721D01*
X003151Y014522D01*
X003227Y014338D01*
X003368Y014197D01*
X003552Y014121D01*
X003751Y014121D01*
X003804Y014143D01*
X004176Y013771D01*
X004367Y013771D01*
X004551Y013771D01*
X004551Y013714D01*
X004639Y013626D01*
X005163Y013626D01*
X005251Y013714D01*
X005251Y014288D01*
X005163Y014376D01*
X004639Y014376D01*
X004551Y014288D01*
X004551Y014231D01*
X004367Y014231D01*
X004129Y014469D01*
X004151Y014522D01*
X004151Y014721D01*
X004075Y014904D01*
X003934Y015045D01*
X003921Y015051D01*
X003921Y015211D01*
X003998Y015287D01*
X003998Y015295D01*
X003998Y015295D01*
X004039Y015394D01*
X004039Y015502D01*
X003998Y015601D01*
X003998Y015845D01*
X003942Y015901D01*
X003998Y015957D01*
X003998Y016257D01*
X003999Y016258D01*
X003999Y016449D01*
X003998Y016450D01*
X003998Y016514D01*
X003921Y016591D01*
X003921Y016751D01*
X003934Y016756D01*
X004024Y016846D01*
X004051Y016845D01*
X004060Y016841D01*
X004112Y016841D01*
X004164Y016838D01*
X004173Y016841D01*
X006463Y016841D01*
X006577Y016888D01*
X006664Y016975D01*
X006711Y017089D01*
X006711Y017212D01*
X006664Y017326D01*
X006577Y017414D01*
X006463Y017461D01*
X005602Y017461D01*
X005602Y017602D01*
X005284Y017602D01*
X005284Y017699D01*
X005187Y017699D01*
X005187Y017998D01*
X005000Y017998D01*
X004961Y017987D01*
X004927Y017968D01*
X004901Y017942D01*
X004845Y017998D01*
X004288Y017998D01*
X004200Y017910D01*
X004200Y017611D01*
X004064Y017475D01*
X003934Y017604D01*
X003751Y017680D01*
X003552Y017680D01*
X003538Y017675D01*
X003506Y017707D01*
X003506Y017804D01*
X003514Y017804D01*
X003602Y017892D01*
X003602Y018410D01*
X003514Y018498D01*
X002957Y018498D01*
X002901Y018442D01*
X002845Y018498D01*
X002288Y018498D01*
X002200Y018410D01*
X002200Y018336D02*
X000301Y018336D01*
X000301Y018237D02*
X002200Y018237D01*
X002200Y018139D02*
X000301Y018139D01*
X000301Y018040D02*
X002200Y018040D01*
X002200Y017942D02*
X000301Y017942D01*
X000301Y017843D02*
X002249Y017843D01*
X002297Y017745D02*
X000301Y017745D01*
X000301Y017646D02*
X000529Y017646D01*
X000392Y017547D02*
X000301Y017547D01*
X000301Y017449D02*
X000314Y017449D01*
X000711Y017449D02*
X000811Y017449D01*
X000811Y017547D02*
X000711Y017547D01*
X000711Y017646D02*
X000811Y017646D01*
X000811Y017699D02*
X000811Y017231D01*
X001280Y017231D01*
X001268Y017303D01*
X001243Y017380D01*
X001206Y017453D01*
X001158Y017520D01*
X001100Y017577D01*
X001034Y017626D01*
X000961Y017663D01*
X000883Y017688D01*
X000811Y017699D01*
X000994Y017646D02*
X002297Y017646D01*
X002172Y017547D02*
X001130Y017547D01*
X001208Y017449D02*
X002089Y017449D01*
X002049Y017350D02*
X001253Y017350D01*
X001276Y017252D02*
X002021Y017252D01*
X002021Y017153D02*
X000811Y017153D01*
X000811Y017131D02*
X001280Y017131D01*
X001268Y017059D01*
X001243Y016981D01*
X001206Y016908D01*
X001158Y016842D01*
X001100Y016784D01*
X001034Y016736D01*
X000961Y016699D01*
X000883Y016674D01*
X000811Y016662D01*
X000811Y017131D01*
X000811Y017055D02*
X000711Y017055D01*
X000711Y016956D02*
X000811Y016956D01*
X000811Y016858D02*
X000711Y016858D01*
X000711Y016759D02*
X000811Y016759D01*
X001065Y016759D02*
X002227Y016759D01*
X002271Y016661D02*
X000301Y016661D01*
X000301Y016759D02*
X000457Y016759D01*
X000353Y016858D02*
X000301Y016858D01*
X000301Y016562D02*
X002271Y016562D01*
X002271Y016463D02*
X000301Y016463D01*
X000301Y016365D02*
X002271Y016365D01*
X002271Y016266D02*
X000301Y016266D01*
X000301Y016168D02*
X002271Y016168D01*
X002271Y016069D02*
X000301Y016069D01*
X000301Y015971D02*
X002271Y015971D01*
X002271Y015872D02*
X000301Y015872D01*
X000301Y015774D02*
X002271Y015774D01*
X002271Y015675D02*
X000301Y015675D01*
X000301Y015577D02*
X002271Y015577D01*
X002271Y015478D02*
X000301Y015478D01*
X000301Y015379D02*
X002271Y015379D01*
X002271Y015281D02*
X000301Y015281D01*
X000301Y015182D02*
X002271Y015182D01*
X002271Y015084D02*
X000998Y015084D01*
X001034Y015066D02*
X000961Y015103D01*
X000883Y015128D01*
X000811Y015139D01*
X000811Y014671D01*
X001280Y014671D01*
X001268Y014743D01*
X001243Y014820D01*
X001206Y014893D01*
X001158Y014960D01*
X001100Y015017D01*
X001034Y015066D01*
X001132Y014985D02*
X002170Y014985D01*
X002089Y014887D02*
X001209Y014887D01*
X001254Y014788D02*
X002048Y014788D01*
X002021Y014690D02*
X001277Y014690D01*
X001280Y014571D02*
X000811Y014571D01*
X000811Y014102D01*
X000883Y014114D01*
X000961Y014139D01*
X001034Y014176D01*
X001100Y014224D01*
X001158Y014282D01*
X001206Y014348D01*
X001243Y014421D01*
X001268Y014499D01*
X001280Y014571D01*
X001266Y014493D02*
X002031Y014493D01*
X002021Y014591D02*
X000811Y014591D01*
X000811Y014493D02*
X000711Y014493D01*
X000711Y014394D02*
X000811Y014394D01*
X000811Y014296D02*
X000711Y014296D01*
X000711Y014197D02*
X000811Y014197D01*
X001063Y014197D02*
X002230Y014197D01*
X002131Y014296D02*
X001168Y014296D01*
X001229Y014394D02*
X002072Y014394D01*
X002853Y014197D02*
X003369Y014197D01*
X003270Y014296D02*
X002951Y014296D01*
X003010Y014394D02*
X003204Y014394D01*
X003163Y014493D02*
X003051Y014493D01*
X003061Y014591D02*
X003151Y014591D01*
X003151Y014690D02*
X003061Y014690D01*
X003035Y014788D02*
X003179Y014788D01*
X003220Y014887D02*
X002994Y014887D01*
X002912Y014985D02*
X003308Y014985D01*
X003381Y015084D02*
X002811Y015084D01*
X002811Y015182D02*
X003381Y015182D01*
X003311Y015281D02*
X002811Y015281D01*
X002811Y015379D02*
X003304Y015379D01*
X003304Y015478D02*
X002811Y015478D01*
X002811Y015577D02*
X003304Y015577D01*
X003304Y015675D02*
X002811Y015675D01*
X002811Y015774D02*
X003304Y015774D01*
X003332Y015872D02*
X002836Y015872D01*
X002932Y015971D02*
X003304Y015971D01*
X003304Y016069D02*
X002973Y016069D01*
X002979Y016168D02*
X003304Y016168D01*
X003304Y016266D02*
X002958Y016266D01*
X002901Y016365D02*
X003304Y016365D01*
X003304Y016463D02*
X002811Y016463D01*
X002811Y016562D02*
X003352Y016562D01*
X003381Y016661D02*
X002811Y016661D01*
X002855Y016759D02*
X003365Y016759D01*
X003267Y016858D02*
X002953Y016858D01*
X003011Y016956D02*
X003203Y016956D01*
X003162Y017055D02*
X003052Y017055D01*
X003061Y017153D02*
X003151Y017153D01*
X003151Y017252D02*
X003061Y017252D01*
X003034Y017350D02*
X003099Y017350D01*
X003004Y017449D02*
X002993Y017449D01*
X002966Y017547D02*
X002910Y017547D01*
X002966Y017646D02*
X002836Y017646D01*
X002836Y017745D02*
X002966Y017745D01*
X002918Y017843D02*
X002884Y017843D01*
X003506Y017745D02*
X004200Y017745D01*
X004200Y017843D02*
X003554Y017843D01*
X003602Y017942D02*
X004232Y017942D01*
X004200Y017646D02*
X003833Y017646D01*
X003991Y017547D02*
X004136Y017547D01*
X003602Y018040D02*
X011950Y018040D01*
X011950Y018102D02*
X011950Y017934D01*
X011960Y017896D01*
X011980Y017862D01*
X012008Y017834D01*
X012042Y017814D01*
X012080Y017804D01*
X012268Y017804D01*
X012268Y018102D01*
X011950Y018102D01*
X011950Y018199D02*
X012268Y018199D01*
X012268Y018498D01*
X012080Y018498D01*
X012042Y018487D01*
X012008Y018468D01*
X011980Y018440D01*
X011960Y018406D01*
X011950Y018367D01*
X011950Y018199D01*
X011950Y018237D02*
X003602Y018237D01*
X003602Y018139D02*
X012268Y018139D01*
X012268Y018237D02*
X012365Y018237D01*
X012365Y018336D02*
X012268Y018336D01*
X012268Y018434D02*
X012365Y018434D01*
X011977Y018434D02*
X003578Y018434D01*
X003602Y018336D02*
X011950Y018336D01*
X011950Y017942D02*
X005570Y017942D01*
X005572Y017940D02*
X005544Y017968D01*
X005510Y017987D01*
X005472Y017998D01*
X005284Y017998D01*
X005284Y017699D01*
X005602Y017699D01*
X005602Y017867D01*
X005592Y017906D01*
X005572Y017940D01*
X005602Y017843D02*
X011999Y017843D01*
X012268Y017843D02*
X012365Y017843D01*
X012365Y017942D02*
X012268Y017942D01*
X012268Y018040D02*
X012365Y018040D01*
X012634Y017843D02*
X012668Y017843D01*
X012881Y017745D02*
X005602Y017745D01*
X005602Y017547D02*
X012881Y017547D01*
X012881Y017646D02*
X005284Y017646D01*
X005284Y017745D02*
X005187Y017745D01*
X005187Y017843D02*
X005284Y017843D01*
X005284Y017942D02*
X005187Y017942D01*
X006491Y017449D02*
X011909Y017449D01*
X011881Y017350D02*
X006640Y017350D01*
X006695Y017252D02*
X011881Y017252D01*
X011881Y017153D02*
X006711Y017153D01*
X006697Y017055D02*
X011881Y017055D01*
X011881Y016956D02*
X006645Y016956D01*
X006504Y016858D02*
X011881Y016858D01*
X011881Y016759D02*
X003937Y016759D01*
X003921Y016661D02*
X004447Y016661D01*
X004363Y016562D02*
X003950Y016562D01*
X003998Y016463D02*
X004323Y016463D01*
X004323Y016365D02*
X003999Y016365D01*
X003999Y016266D02*
X004352Y016266D01*
X004420Y016168D02*
X003998Y016168D01*
X003998Y016069D02*
X005601Y016069D01*
X005541Y015971D02*
X005699Y015971D01*
X005602Y015872D02*
X005798Y015872D01*
X005896Y015774D02*
X005602Y015774D01*
X005602Y015675D02*
X005995Y015675D01*
X005671Y015577D02*
X007369Y015577D01*
X007328Y015478D02*
X005697Y015478D01*
X005157Y015281D02*
X003991Y015281D01*
X004033Y015379D02*
X004220Y015379D01*
X004210Y015396D02*
X004230Y015362D01*
X004258Y015334D01*
X004292Y015314D01*
X004330Y015304D01*
X004518Y015304D01*
X004518Y015602D01*
X004200Y015602D01*
X004200Y015434D01*
X004210Y015396D01*
X004200Y015478D02*
X004039Y015478D01*
X004008Y015577D02*
X004200Y015577D01*
X004200Y015699D02*
X004518Y015699D01*
X004518Y015998D01*
X004330Y015998D01*
X004292Y015987D01*
X004258Y015968D01*
X004230Y015940D01*
X004210Y015906D01*
X004200Y015867D01*
X004200Y015699D01*
X004200Y015774D02*
X003998Y015774D01*
X003998Y015675D02*
X004518Y015675D01*
X004518Y015577D02*
X004615Y015577D01*
X004615Y015478D02*
X004518Y015478D01*
X004518Y015379D02*
X004615Y015379D01*
X004577Y015176D02*
X004577Y014851D01*
X004477Y014851D01*
X004477Y015176D01*
X004307Y015176D01*
X004269Y015166D01*
X004235Y015146D01*
X004207Y015118D01*
X004187Y015084D01*
X004188Y015084D02*
X003921Y015084D01*
X003921Y015182D02*
X005147Y015182D01*
X004925Y015084D02*
X004867Y015084D01*
X004847Y015118D01*
X004819Y015146D01*
X004785Y015166D01*
X004747Y015176D01*
X004577Y015176D01*
X004577Y015084D02*
X004477Y015084D01*
X004477Y014985D02*
X004577Y014985D01*
X004577Y014887D02*
X004477Y014887D01*
X004477Y014851D02*
X004477Y014751D01*
X004177Y014751D01*
X004177Y014556D01*
X004187Y014518D01*
X004207Y014484D01*
X004235Y014456D01*
X004269Y014436D01*
X004307Y014426D01*
X004477Y014426D01*
X004477Y014751D01*
X004577Y014751D01*
X004577Y014851D01*
X004877Y014851D01*
X004877Y015046D01*
X004867Y015084D01*
X004877Y014985D02*
X004925Y014985D01*
X004925Y014887D02*
X004877Y014887D01*
X004925Y014788D02*
X004577Y014788D01*
X004577Y014751D02*
X004877Y014751D01*
X004877Y014556D01*
X004867Y014518D01*
X004847Y014484D01*
X004819Y014456D01*
X004785Y014436D01*
X004747Y014426D01*
X004577Y014426D01*
X004577Y014751D01*
X004577Y014690D02*
X004477Y014690D01*
X004477Y014788D02*
X004123Y014788D01*
X004177Y014851D02*
X004477Y014851D01*
X004477Y014591D02*
X004577Y014591D01*
X004577Y014493D02*
X004477Y014493D01*
X004559Y014296D02*
X004302Y014296D01*
X004204Y014394D02*
X005631Y014394D01*
X005632Y014296D02*
X005244Y014296D01*
X005251Y014197D02*
X005673Y014197D01*
X005718Y014098D02*
X005251Y014098D01*
X005251Y014000D02*
X005817Y014000D01*
X005818Y013803D02*
X005251Y013803D01*
X005251Y013901D02*
X005998Y013901D01*
X005719Y013704D02*
X005242Y013704D01*
X005632Y013507D02*
X000301Y013507D01*
X000301Y013409D02*
X005631Y013409D01*
X005631Y013310D02*
X000301Y013310D01*
X000301Y013212D02*
X005667Y013212D01*
X005708Y013113D02*
X000301Y013113D01*
X000301Y013606D02*
X005673Y013606D01*
X006595Y013113D02*
X006729Y013113D01*
X006680Y014197D02*
X007391Y014197D01*
X007340Y014296D02*
X006670Y014296D01*
X006671Y014394D02*
X007323Y014394D01*
X007234Y014493D02*
X006671Y014493D01*
X006635Y014591D02*
X007136Y014591D01*
X007037Y014690D02*
X006594Y014690D01*
X006499Y014788D02*
X006938Y014788D01*
X006840Y014887D02*
X006337Y014887D01*
X005966Y014887D02*
X005625Y014887D01*
X005625Y014788D02*
X005803Y014788D01*
X005708Y014690D02*
X005625Y014690D01*
X005625Y014591D02*
X005667Y014591D01*
X005631Y014493D02*
X005604Y014493D01*
X004946Y014493D02*
X004852Y014493D01*
X004877Y014591D02*
X004925Y014591D01*
X004925Y014690D02*
X004877Y014690D01*
X004177Y014690D02*
X004151Y014690D01*
X004151Y014591D02*
X004177Y014591D01*
X004202Y014493D02*
X004139Y014493D01*
X004177Y014851D02*
X004177Y015046D01*
X004187Y015084D01*
X004177Y014985D02*
X003994Y014985D01*
X004082Y014887D02*
X004177Y014887D01*
X003998Y015601D02*
X003998Y015601D01*
X003971Y015872D02*
X004201Y015872D01*
X004263Y015971D02*
X003998Y015971D01*
X004518Y015971D02*
X004615Y015971D01*
X004615Y015872D02*
X004518Y015872D01*
X004518Y015774D02*
X004615Y015774D01*
X004870Y015971D02*
X004930Y015971D01*
X005872Y016562D02*
X009950Y016562D01*
X009950Y016617D02*
X009950Y016449D01*
X010268Y016449D01*
X010268Y016748D01*
X010080Y016748D01*
X010042Y016737D01*
X010008Y016718D01*
X009980Y016690D01*
X009960Y016656D01*
X009950Y016617D01*
X009963Y016661D02*
X005730Y016661D01*
X005970Y016463D02*
X009950Y016463D01*
X009950Y016266D02*
X006167Y016266D01*
X006069Y016365D02*
X010268Y016365D01*
X010268Y016463D02*
X010365Y016463D01*
X010365Y016562D02*
X010268Y016562D01*
X010268Y016661D02*
X010365Y016661D01*
X011352Y016661D02*
X011881Y016661D01*
X011881Y016562D02*
X011352Y016562D01*
X011352Y016463D02*
X011883Y016463D01*
X011949Y016365D02*
X011352Y016365D01*
X011352Y016266D02*
X014578Y016266D01*
X014480Y016168D02*
X013212Y016168D01*
X013364Y016069D02*
X014381Y016069D01*
X014283Y015971D02*
X013463Y015971D01*
X013562Y015872D02*
X014184Y015872D01*
X014086Y015774D02*
X013660Y015774D01*
X013759Y015675D02*
X013987Y015675D01*
X013889Y015577D02*
X013857Y015577D01*
X013857Y016365D02*
X013945Y016365D01*
X014357Y016365D02*
X014445Y016365D01*
X013445Y016365D02*
X013357Y016365D01*
X012945Y016365D02*
X012857Y016365D01*
X012445Y016365D02*
X012353Y016365D01*
X012161Y016365D02*
X012141Y016365D01*
X012141Y016463D02*
X012161Y016463D01*
X012161Y016562D02*
X012141Y016562D01*
X012141Y016661D02*
X012161Y016661D01*
X012161Y016759D02*
X012141Y016759D01*
X012141Y016858D02*
X012161Y016858D01*
X012161Y016956D02*
X012141Y016956D01*
X012141Y017055D02*
X012161Y017055D01*
X012161Y017153D02*
X012141Y017153D01*
X012141Y017252D02*
X012161Y017252D01*
X012161Y017350D02*
X012141Y017350D01*
X012141Y017449D02*
X012161Y017449D01*
X012394Y017449D02*
X012407Y017449D01*
X013421Y017547D02*
X014420Y017547D01*
X014515Y017646D02*
X013421Y017646D01*
X013421Y017745D02*
X014613Y017745D01*
X014712Y017843D02*
X013421Y017843D01*
X013895Y017449D02*
X013907Y017449D01*
X015421Y016661D02*
X017177Y016661D01*
X017379Y016463D02*
X017423Y016463D01*
X018651Y019350D02*
X038871Y019350D01*
X038871Y025046D01*
X019151Y025046D01*
X019151Y022700D01*
X019179Y022878D01*
X019230Y023052D01*
X019304Y023217D01*
X019398Y023371D01*
X019511Y023511D01*
X019642Y023636D01*
X019788Y023742D01*
X019947Y023828D01*
X020115Y023893D01*
X020291Y023936D01*
X020471Y023955D01*
X020651Y023950D01*
X036901Y023950D01*
X037114Y023952D01*
X037326Y023927D01*
X037533Y023874D01*
X037730Y023795D01*
X037916Y023690D01*
X038087Y023562D01*
X038239Y023413D01*
X038371Y023246D01*
X038480Y023062D01*
X038563Y022866D01*
X038621Y022661D01*
X038651Y022450D01*
X038651Y021950D01*
X038621Y021739D01*
X038563Y021534D01*
X038480Y021338D01*
X038371Y021154D01*
X038239Y020987D01*
X038087Y020838D01*
X037916Y020710D01*
X037730Y020605D01*
X037533Y020526D01*
X037326Y020473D01*
X037114Y020448D01*
X036901Y020450D01*
X020401Y020450D01*
X020223Y020463D01*
X020049Y020501D01*
X019882Y020563D01*
X019725Y020648D01*
X019583Y020755D01*
X019456Y020881D01*
X019350Y021024D01*
X019264Y021181D01*
X019202Y021348D01*
X019164Y021522D01*
X019151Y021700D01*
X018651Y021700D01*
X018651Y021152D01*
X018671Y021132D01*
X018671Y020434D01*
X018715Y020478D01*
X018836Y020528D01*
X018966Y020528D01*
X019087Y020478D01*
X019179Y020386D01*
X019229Y020265D01*
X019229Y020135D01*
X019179Y020014D01*
X019087Y019922D01*
X018966Y019872D01*
X018898Y019872D01*
X018671Y019645D01*
X018671Y019485D01*
X018651Y019465D01*
X018651Y019350D01*
X018651Y019420D02*
X038871Y019420D01*
X038871Y019518D02*
X018671Y019518D01*
X018671Y019617D02*
X038871Y019617D01*
X038871Y019715D02*
X018742Y019715D01*
X018840Y019814D02*
X038871Y019814D01*
X038871Y019912D02*
X019064Y019912D01*
X019176Y020011D02*
X038871Y020011D01*
X038871Y020110D02*
X019219Y020110D01*
X019229Y020208D02*
X038871Y020208D01*
X038871Y020307D02*
X019212Y020307D01*
X019160Y020405D02*
X038871Y020405D01*
X038871Y020504D02*
X037446Y020504D01*
X037723Y020602D02*
X038871Y020602D01*
X038871Y020701D02*
X037900Y020701D01*
X038036Y020799D02*
X038871Y020799D01*
X038871Y020898D02*
X038149Y020898D01*
X038247Y020996D02*
X038871Y020996D01*
X038871Y021095D02*
X038324Y021095D01*
X038394Y021194D02*
X038871Y021194D01*
X038871Y021292D02*
X038453Y021292D01*
X038502Y021391D02*
X038871Y021391D01*
X038871Y021489D02*
X038544Y021489D01*
X038579Y021588D02*
X038871Y021588D01*
X038871Y021686D02*
X038606Y021686D01*
X038628Y021785D02*
X038871Y021785D01*
X038871Y021883D02*
X038642Y021883D01*
X038651Y021982D02*
X038871Y021982D01*
X038871Y022080D02*
X038651Y022080D01*
X038651Y022179D02*
X038871Y022179D01*
X038871Y022278D02*
X038651Y022278D01*
X038651Y022376D02*
X038871Y022376D01*
X038871Y022475D02*
X038648Y022475D01*
X038634Y022573D02*
X038871Y022573D01*
X038871Y022672D02*
X038618Y022672D01*
X038590Y022770D02*
X038871Y022770D01*
X038871Y022869D02*
X038562Y022869D01*
X038520Y022967D02*
X038871Y022967D01*
X038871Y023066D02*
X038478Y023066D01*
X038419Y023164D02*
X038871Y023164D01*
X038871Y023263D02*
X038357Y023263D01*
X038280Y023361D02*
X038871Y023361D01*
X038871Y023460D02*
X038192Y023460D01*
X038091Y023559D02*
X038871Y023559D01*
X038871Y023657D02*
X037961Y023657D01*
X037800Y023756D02*
X038871Y023756D01*
X038871Y023854D02*
X037582Y023854D01*
X037317Y023110D02*
X037442Y023041D01*
X037556Y022956D01*
X037657Y022855D01*
X037742Y022741D01*
X037811Y022615D01*
X037861Y022482D01*
X037891Y022342D01*
X037901Y022200D01*
X037891Y022058D01*
X037861Y021918D01*
X037811Y021785D01*
X019991Y021785D01*
X019992Y021785D02*
X019942Y021918D01*
X019911Y022058D01*
X019901Y022200D01*
X019911Y022342D01*
X019942Y022482D01*
X019992Y022615D01*
X020060Y022741D01*
X020145Y022855D01*
X020246Y022956D01*
X020361Y023041D01*
X020486Y023110D01*
X020619Y023159D01*
X020759Y023190D01*
X020901Y023200D01*
X036901Y023200D01*
X037044Y023190D01*
X037183Y023159D01*
X037317Y023110D01*
X037397Y023066D02*
X020406Y023066D01*
X020262Y022967D02*
X037541Y022967D01*
X037643Y022869D02*
X020159Y022869D01*
X020082Y022770D02*
X037720Y022770D01*
X037780Y022672D02*
X020022Y022672D01*
X019976Y022573D02*
X037827Y022573D01*
X037862Y022475D02*
X019940Y022475D01*
X019919Y022376D02*
X037884Y022376D01*
X037896Y022278D02*
X019907Y022278D01*
X019903Y022179D02*
X037900Y022179D01*
X037893Y022080D02*
X019910Y022080D01*
X019928Y021982D02*
X037875Y021982D01*
X037848Y021883D02*
X019955Y021883D01*
X019992Y021785D02*
X020060Y021659D01*
X020145Y021545D01*
X020246Y021444D01*
X020361Y021359D01*
X020486Y021290D01*
X020619Y021241D01*
X020759Y021210D01*
X020901Y021200D01*
X036901Y021200D01*
X037044Y021210D01*
X037183Y021241D01*
X037317Y021290D01*
X037442Y021359D01*
X037556Y021444D01*
X037657Y021545D01*
X037742Y021659D01*
X037811Y021785D01*
X037757Y021686D02*
X020045Y021686D01*
X020114Y021588D02*
X037689Y021588D01*
X037601Y021489D02*
X020201Y021489D01*
X020318Y021391D02*
X037484Y021391D01*
X037320Y021292D02*
X020483Y021292D01*
X020041Y020504D02*
X019025Y020504D01*
X019151Y020504D01*
X019087Y020478D02*
X018966Y020528D01*
X018836Y020528D01*
X018715Y020478D01*
X018671Y020434D01*
X018671Y021132D01*
X018583Y021220D01*
X018381Y021220D01*
X018381Y021295D01*
X017746Y021930D01*
X017635Y021930D01*
X017587Y021978D01*
X017466Y022028D01*
X017336Y022028D01*
X017215Y021978D01*
X017123Y021886D01*
X017073Y021765D01*
X017073Y021635D01*
X017095Y021581D01*
X016979Y021697D01*
X016979Y021765D01*
X016929Y021886D01*
X016837Y021978D01*
X016716Y022028D01*
X016586Y022028D01*
X016465Y021978D01*
X016373Y021886D01*
X016323Y021765D01*
X016323Y021635D01*
X016345Y021581D01*
X016246Y021680D01*
X015413Y021680D01*
X015333Y021760D01*
X014969Y021760D01*
X014901Y021692D01*
X014833Y021760D01*
X014649Y021760D01*
X015030Y022140D01*
X016751Y022140D01*
X016788Y022103D01*
X017345Y022103D01*
X017401Y022159D01*
X017457Y022103D01*
X018014Y022103D01*
X018051Y022140D01*
X018570Y022140D01*
X018773Y021937D01*
X018887Y021890D01*
X019010Y021890D01*
X019151Y021890D01*
X019151Y020414D01*
X019087Y020478D01*
X019151Y020602D02*
X018671Y020602D01*
X019810Y020602D01*
X019655Y020701D02*
X018671Y020701D01*
X019151Y020701D01*
X019151Y020799D02*
X018671Y020799D01*
X019539Y020799D01*
X019444Y020898D02*
X018671Y020898D01*
X019151Y020898D01*
X019151Y020996D02*
X018671Y020996D01*
X019370Y020996D01*
X019311Y021095D02*
X018671Y021095D01*
X019151Y021095D01*
X019151Y021194D02*
X018610Y021194D01*
X018651Y021194D02*
X019259Y021194D01*
X019223Y021292D02*
X018651Y021292D01*
X018651Y021391D02*
X019192Y021391D01*
X019151Y021391D02*
X018286Y021391D01*
X018381Y021292D02*
X019151Y021292D01*
X019151Y021489D02*
X018187Y021489D01*
X018089Y021588D02*
X019151Y021588D01*
X019159Y021588D02*
X018651Y021588D01*
X018651Y021686D02*
X019152Y021686D01*
X019151Y021686D02*
X017990Y021686D01*
X017892Y021785D02*
X019151Y021785D01*
X019151Y021883D02*
X017793Y021883D01*
X017578Y021982D02*
X018728Y021982D01*
X018630Y022080D02*
X014970Y022080D01*
X014871Y021982D02*
X016474Y021982D01*
X016372Y021883D02*
X014773Y021883D01*
X014674Y021785D02*
X016331Y021785D01*
X016323Y021686D02*
X015407Y021686D01*
X016339Y021588D02*
X016343Y021588D01*
X016828Y021982D02*
X017224Y021982D01*
X017122Y021883D02*
X016930Y021883D01*
X016971Y021785D02*
X017081Y021785D01*
X017073Y021686D02*
X016990Y021686D01*
X017089Y021588D02*
X017093Y021588D01*
X017401Y022741D02*
X017345Y022797D01*
X016788Y022797D01*
X016751Y022760D01*
X015421Y022760D01*
X015421Y022970D01*
X017167Y022970D01*
X017215Y022922D01*
X017336Y022872D01*
X017466Y022872D01*
X017587Y022922D01*
X017679Y023014D01*
X017729Y023135D01*
X017729Y023265D01*
X017679Y023386D01*
X017587Y023478D01*
X017472Y023526D01*
X017472Y023926D01*
X017468Y023930D01*
X017468Y024103D01*
X017595Y024103D01*
X017651Y024159D01*
X017677Y024133D01*
X017711Y024113D01*
X017750Y024103D01*
X017937Y024103D01*
X017937Y024401D01*
X018034Y024401D01*
X018034Y024103D01*
X018222Y024103D01*
X018260Y024113D01*
X018294Y024133D01*
X018322Y024161D01*
X018342Y024195D01*
X018352Y024233D01*
X018352Y024401D01*
X018034Y024401D01*
X018034Y024498D01*
X018352Y024498D01*
X018352Y024667D01*
X018342Y024705D01*
X018322Y024739D01*
X018294Y024767D01*
X018260Y024787D01*
X018222Y024797D01*
X018034Y024797D01*
X018034Y024499D01*
X017937Y024499D01*
X017937Y024797D01*
X017750Y024797D01*
X017711Y024787D01*
X017677Y024767D01*
X017651Y024741D01*
X017651Y024741D01*
X017595Y024797D01*
X017345Y024797D01*
X017246Y024893D01*
X017210Y024929D01*
X017207Y024930D01*
X017205Y024932D01*
X017158Y024950D01*
X017110Y024970D01*
X017108Y024970D01*
X017105Y024971D01*
X017055Y024970D01*
X013205Y024970D01*
X013097Y024970D01*
X012998Y024929D01*
X012866Y024797D01*
X012707Y024797D01*
X012651Y024741D01*
X012651Y024741D01*
X012625Y024767D01*
X012591Y024787D01*
X012553Y024797D01*
X012365Y024797D01*
X012365Y024499D01*
X012268Y024499D01*
X012268Y024797D01*
X012080Y024797D01*
X012042Y024787D01*
X012008Y024767D01*
X011980Y024739D01*
X011960Y024705D01*
X011950Y024667D01*
X011950Y024498D01*
X012268Y024498D01*
X012268Y024401D01*
X012365Y024401D01*
X012365Y024103D01*
X012553Y024103D01*
X012591Y024113D01*
X012625Y024133D01*
X012651Y024159D01*
X012707Y024103D01*
X012881Y024103D01*
X012881Y023762D01*
X012833Y023810D01*
X012469Y023810D01*
X012398Y023739D01*
X012391Y023752D01*
X012363Y023780D01*
X012329Y023800D01*
X012291Y023810D01*
X012161Y023810D01*
X012161Y023235D01*
X012141Y023235D01*
X012141Y023215D01*
X011881Y023215D01*
X011881Y022770D01*
X011352Y022770D01*
X011352Y022672D02*
X011937Y022672D01*
X011939Y022670D02*
X011973Y022650D01*
X012011Y022640D01*
X012141Y022640D01*
X012141Y023215D01*
X012161Y023215D01*
X012161Y022640D01*
X012291Y022640D01*
X012329Y022650D01*
X012363Y022670D01*
X012391Y022698D01*
X012398Y022711D01*
X012469Y022640D01*
X012833Y022640D01*
X012901Y022708D01*
X012969Y022640D01*
X013333Y022640D01*
X013401Y022708D01*
X013469Y022640D01*
X013833Y022640D01*
X013901Y022708D01*
X013969Y022640D01*
X014333Y022640D01*
X014401Y022708D01*
X014469Y022640D01*
X014653Y022640D01*
X014638Y022626D01*
X013888Y021876D01*
X013879Y021854D01*
X013804Y021929D01*
X013304Y022429D01*
X013205Y022470D01*
X013097Y022470D01*
X011352Y022470D01*
X011352Y022959D01*
X011264Y023047D01*
X010707Y023047D01*
X010651Y022991D01*
X010625Y023017D01*
X010591Y023037D01*
X010553Y023047D01*
X010365Y023047D01*
X010365Y022749D01*
X010268Y022749D01*
X010268Y023047D01*
X010080Y023047D01*
X010042Y023037D01*
X010008Y023017D01*
X009980Y022989D01*
X009960Y022955D01*
X009950Y022917D01*
X009950Y022748D01*
X010268Y022748D01*
X010268Y022651D01*
X009950Y022651D01*
X009950Y022483D01*
X009954Y022470D01*
X006263Y022470D01*
X005804Y022929D01*
X005705Y022970D01*
X005597Y022970D01*
X004845Y022970D01*
X004837Y022978D01*
X004716Y023028D01*
X004586Y023028D01*
X004465Y022978D01*
X004373Y022886D01*
X004323Y022765D01*
X004323Y022635D01*
X004373Y022514D01*
X004465Y022422D01*
X004586Y022372D01*
X004716Y022372D01*
X004837Y022422D01*
X004845Y022430D01*
X005539Y022430D01*
X005922Y022047D01*
X005998Y021971D01*
X006097Y021930D01*
X007417Y021930D01*
X007373Y021886D01*
X007323Y021765D01*
X007323Y021635D01*
X007373Y021514D01*
X007465Y021422D01*
X007586Y021372D01*
X007716Y021372D01*
X007760Y021390D01*
X010700Y021390D01*
X010700Y021248D01*
X011018Y021248D01*
X011018Y021151D01*
X011115Y021151D01*
X011115Y020853D01*
X011303Y020853D01*
X011341Y020863D01*
X011371Y020881D01*
X011323Y020765D01*
X011323Y020635D01*
X011373Y020514D01*
X011457Y020430D01*
X007845Y020430D01*
X007929Y020514D01*
X007979Y020635D01*
X007979Y020765D01*
X007929Y020886D01*
X007837Y020978D01*
X007716Y021028D01*
X007648Y021028D01*
X006996Y021680D01*
X006806Y021680D01*
X005697Y021680D01*
X005697Y021705D01*
X005697Y021812D01*
X005656Y021912D01*
X005602Y021965D01*
X005602Y022209D01*
X005514Y022297D01*
X004957Y022297D01*
X004901Y022241D01*
X004875Y022267D01*
X004841Y022287D01*
X004803Y022297D01*
X004615Y022297D01*
X004615Y021999D01*
X004518Y021999D01*
X004518Y022297D01*
X004330Y022297D01*
X004292Y022287D01*
X004258Y022267D01*
X004230Y022239D01*
X004210Y022205D01*
X004200Y022167D01*
X004200Y021998D01*
X004518Y021998D01*
X004518Y021901D01*
X004615Y021901D01*
X004615Y021603D01*
X004803Y021603D01*
X004841Y021613D01*
X004875Y021633D01*
X004901Y021659D01*
X004957Y021603D01*
X005157Y021603D01*
X005157Y021506D01*
X005144Y021475D01*
X005013Y021475D01*
X004925Y021387D01*
X004925Y020813D01*
X005013Y020725D01*
X005537Y020725D01*
X005625Y020813D01*
X005625Y021220D01*
X006806Y021220D01*
X007323Y020703D01*
X007323Y020635D01*
X007373Y020514D01*
X007457Y020430D01*
X006746Y020430D01*
X006644Y020532D01*
X006671Y020597D01*
X006671Y020803D01*
X006592Y020995D01*
X006446Y021141D01*
X006255Y021220D01*
X006048Y021220D01*
X005857Y021141D01*
X005710Y020995D01*
X005631Y020803D01*
X005631Y020597D01*
X005710Y020405D01*
X005857Y020259D01*
X006000Y020200D01*
X005857Y020141D01*
X005710Y019995D01*
X005631Y019803D01*
X005631Y019597D01*
X005710Y019405D01*
X005766Y019350D01*
X000301Y019350D01*
X000301Y020678D01*
X000316Y020647D01*
X000365Y020581D01*
X000422Y020523D01*
X000489Y020475D01*
X000562Y020438D01*
X000639Y020413D01*
X000711Y020401D01*
X000711Y020870D01*
X000811Y020870D01*
X000811Y020401D01*
X000883Y020413D01*
X000961Y020438D01*
X001034Y020475D01*
X001100Y020523D01*
X001158Y020581D01*
X001206Y020647D01*
X001243Y020720D01*
X001268Y020798D01*
X001280Y020870D01*
X000811Y020870D01*
X000811Y020970D01*
X000711Y020970D01*
X000711Y021439D01*
X000639Y021427D01*
X000562Y021402D01*
X000489Y021365D01*
X000422Y021317D01*
X000365Y021259D01*
X000316Y021193D01*
X000301Y021162D01*
X000301Y023238D01*
X000316Y023207D01*
X000365Y023141D01*
X000422Y023083D01*
X000489Y023035D01*
X000562Y022998D01*
X000639Y022973D01*
X000711Y022961D01*
X000711Y023430D01*
X000811Y023430D01*
X000811Y022961D01*
X000883Y022973D01*
X000961Y022998D01*
X001034Y023035D01*
X001100Y023083D01*
X001158Y023141D01*
X001206Y023207D01*
X001243Y023280D01*
X001268Y023358D01*
X001280Y023430D01*
X000811Y023430D01*
X000811Y023530D01*
X000711Y023530D01*
X000711Y023999D01*
X000639Y023987D01*
X000562Y023962D01*
X000489Y023925D01*
X000422Y023877D01*
X000365Y023819D01*
X000316Y023753D01*
X000301Y023722D01*
X000301Y025046D01*
X019151Y025046D01*
X019151Y022510D01*
X019077Y022510D01*
X018874Y022713D01*
X018760Y022760D01*
X018723Y022760D01*
X018374Y023109D01*
X018374Y023470D01*
X018378Y023474D01*
X018378Y023926D01*
X018290Y024013D01*
X017918Y024013D01*
X017830Y023926D01*
X017830Y023474D01*
X017834Y023470D01*
X017834Y023051D01*
X017834Y022944D01*
X017875Y022844D01*
X017923Y022797D01*
X017457Y022797D01*
X017401Y022741D01*
X017372Y022770D02*
X017431Y022770D01*
X017632Y022967D02*
X017834Y022967D01*
X017834Y023066D02*
X017701Y023066D01*
X017729Y023164D02*
X017834Y023164D01*
X017834Y023263D02*
X017729Y023263D01*
X017689Y023361D02*
X017834Y023361D01*
X017834Y023460D02*
X017605Y023460D01*
X017472Y023559D02*
X017830Y023559D01*
X017830Y023657D02*
X017472Y023657D01*
X017472Y023756D02*
X017830Y023756D01*
X017830Y023854D02*
X017472Y023854D01*
X017468Y023953D02*
X017857Y023953D01*
X017937Y024150D02*
X018034Y024150D01*
X018034Y024248D02*
X017937Y024248D01*
X017937Y024347D02*
X018034Y024347D01*
X018034Y024445D02*
X019151Y024445D01*
X038871Y024445D01*
X038871Y024347D02*
X019151Y024347D01*
X018352Y024347D01*
X018352Y024248D02*
X019151Y024248D01*
X038871Y024248D01*
X038871Y024150D02*
X019151Y024150D01*
X018311Y024150D01*
X018351Y023953D02*
X019151Y023953D01*
X020454Y023953D01*
X020542Y023953D02*
X038871Y023953D01*
X038871Y024051D02*
X019151Y024051D01*
X017468Y024051D01*
X017642Y024150D02*
X017660Y024150D01*
X017937Y024544D02*
X018034Y024544D01*
X018034Y024643D02*
X017937Y024643D01*
X017937Y024741D02*
X018034Y024741D01*
X018320Y024741D02*
X019151Y024741D01*
X038871Y024741D01*
X038871Y024643D02*
X019151Y024643D01*
X018352Y024643D01*
X018352Y024544D02*
X019151Y024544D01*
X038871Y024544D01*
X038871Y024840D02*
X019151Y024840D01*
X017301Y024840D01*
X017189Y024938D02*
X019151Y024938D01*
X038871Y024938D01*
X038871Y025037D02*
X019151Y025037D01*
X000301Y025037D01*
X000301Y024938D02*
X013021Y024938D01*
X012909Y024840D02*
X000301Y024840D01*
X000301Y024741D02*
X002232Y024741D01*
X002200Y024709D02*
X002200Y024191D01*
X002288Y024103D01*
X002297Y024103D01*
X002297Y023941D01*
X002247Y023921D01*
X002100Y023775D01*
X002021Y023583D01*
X002021Y023377D01*
X002100Y023185D01*
X002247Y023039D01*
X002271Y023029D01*
X002271Y022394D01*
X002271Y022286D01*
X002271Y021371D01*
X002247Y021361D01*
X002100Y021215D01*
X002021Y021023D01*
X002021Y020817D01*
X002100Y020625D01*
X002247Y020479D01*
X002438Y020400D01*
X002645Y020400D01*
X002836Y020479D01*
X002982Y020625D01*
X003061Y020817D01*
X003061Y021023D01*
X002982Y021215D01*
X002836Y021361D01*
X002811Y021371D01*
X002811Y022161D01*
X002837Y022172D01*
X002929Y022264D01*
X002979Y022385D01*
X002979Y022515D01*
X002929Y022636D01*
X002837Y022728D01*
X002811Y022739D01*
X002811Y023029D01*
X002836Y023039D01*
X002982Y023185D01*
X003061Y023377D01*
X003061Y023583D01*
X002982Y023775D01*
X002836Y023920D01*
X002836Y024103D01*
X002845Y024103D01*
X002901Y024159D01*
X002957Y024103D01*
X002966Y024103D01*
X002966Y023949D01*
X002966Y023841D01*
X003007Y023742D01*
X003157Y023592D01*
X003151Y023579D01*
X003151Y023380D01*
X003227Y023196D01*
X003368Y023056D01*
X003381Y023050D01*
X003381Y022890D01*
X003304Y022813D01*
X003304Y022256D01*
X003360Y022200D01*
X003304Y022144D01*
X003304Y021587D01*
X003381Y021510D01*
X003381Y021350D01*
X003368Y021344D01*
X003227Y021204D01*
X003151Y021020D01*
X003151Y020821D01*
X003227Y020637D01*
X003368Y020497D01*
X003552Y020420D01*
X003751Y020420D01*
X003804Y020443D01*
X004176Y020070D01*
X004367Y020070D01*
X004551Y020070D01*
X004551Y020013D01*
X004639Y019925D01*
X005163Y019925D01*
X005251Y020013D01*
X005251Y020587D01*
X005163Y020675D01*
X004639Y020675D01*
X004551Y020587D01*
X004551Y020530D01*
X004367Y020530D01*
X004129Y020768D01*
X004151Y020821D01*
X004151Y021020D01*
X004075Y021204D01*
X003934Y021344D01*
X003921Y021350D01*
X003921Y021510D01*
X003998Y021587D01*
X003998Y021594D01*
X003998Y021594D01*
X004039Y021694D01*
X004039Y021801D01*
X003998Y021900D01*
X003998Y021900D01*
X003998Y022144D01*
X003942Y022200D01*
X003998Y022256D01*
X003998Y022556D01*
X003999Y022557D01*
X003999Y022748D01*
X003998Y022749D01*
X003998Y022813D01*
X003921Y022890D01*
X003921Y023050D01*
X003934Y023056D01*
X004024Y023146D01*
X004051Y023144D01*
X004060Y023140D01*
X004112Y023140D01*
X004164Y023137D01*
X004173Y023140D01*
X006463Y023140D01*
X006577Y023187D01*
X006664Y023274D01*
X006711Y023388D01*
X006711Y023512D01*
X006664Y023626D01*
X006577Y023713D01*
X006463Y023760D01*
X005602Y023760D01*
X005602Y023901D01*
X005284Y023901D01*
X005284Y023998D01*
X005602Y023998D01*
X005602Y024167D01*
X005592Y024205D01*
X005572Y024239D01*
X005544Y024267D01*
X005510Y024287D01*
X005472Y024297D01*
X005284Y024297D01*
X005284Y023999D01*
X005187Y023999D01*
X005187Y024297D01*
X005000Y024297D01*
X004961Y024287D01*
X004927Y024267D01*
X004901Y024241D01*
X004845Y024297D01*
X004288Y024297D01*
X004200Y024209D01*
X004200Y023910D01*
X004064Y023774D01*
X003934Y023903D01*
X003751Y023979D01*
X003552Y023979D01*
X003538Y023974D01*
X003506Y024007D01*
X003506Y024103D01*
X003514Y024103D01*
X003602Y024191D01*
X003602Y024709D01*
X003514Y024797D01*
X002957Y024797D01*
X002901Y024741D01*
X002901Y024741D01*
X002845Y024797D01*
X002288Y024797D01*
X002200Y024709D01*
X002200Y024643D02*
X000301Y024643D01*
X000301Y024544D02*
X002200Y024544D01*
X002200Y024445D02*
X000301Y024445D01*
X000301Y024347D02*
X002200Y024347D01*
X002200Y024248D02*
X000301Y024248D01*
X000301Y024150D02*
X002241Y024150D01*
X002297Y024051D02*
X000301Y024051D01*
X000301Y023953D02*
X000544Y023953D01*
X000711Y023953D02*
X000811Y023953D01*
X000811Y023999D02*
X000811Y023530D01*
X001280Y023530D01*
X001268Y023602D01*
X001243Y023680D01*
X001206Y023753D01*
X001158Y023819D01*
X001100Y023877D01*
X001034Y023925D01*
X000961Y023962D01*
X000883Y023987D01*
X000811Y023999D01*
X000811Y023854D02*
X000711Y023854D01*
X000711Y023756D02*
X000811Y023756D01*
X000811Y023657D02*
X000711Y023657D01*
X000711Y023559D02*
X000811Y023559D01*
X000811Y023460D02*
X002021Y023460D01*
X002021Y023559D02*
X001275Y023559D01*
X001250Y023657D02*
X002052Y023657D01*
X002093Y023756D02*
X001204Y023756D01*
X001122Y023854D02*
X002180Y023854D01*
X002297Y023953D02*
X000979Y023953D01*
X000400Y023854D02*
X000301Y023854D01*
X000301Y023756D02*
X000319Y023756D01*
X000711Y023361D02*
X000811Y023361D01*
X000811Y023263D02*
X000711Y023263D01*
X000711Y023164D02*
X000811Y023164D01*
X000811Y023066D02*
X000711Y023066D01*
X000711Y022967D02*
X000811Y022967D01*
X000848Y022967D02*
X002271Y022967D01*
X002271Y022869D02*
X000301Y022869D01*
X000301Y022967D02*
X000674Y022967D01*
X000446Y023066D02*
X000301Y023066D01*
X000301Y023164D02*
X000348Y023164D01*
X000301Y022770D02*
X002271Y022770D01*
X002271Y022672D02*
X000301Y022672D01*
X000301Y022573D02*
X002271Y022573D01*
X002271Y022475D02*
X000301Y022475D01*
X000301Y022376D02*
X002271Y022376D01*
X002271Y022278D02*
X000301Y022278D01*
X000301Y022179D02*
X002271Y022179D01*
X002271Y022080D02*
X000301Y022080D01*
X000301Y021982D02*
X002271Y021982D01*
X002271Y021883D02*
X000301Y021883D01*
X000301Y021785D02*
X002271Y021785D01*
X002271Y021686D02*
X000301Y021686D01*
X000301Y021588D02*
X002271Y021588D01*
X002271Y021489D02*
X000301Y021489D01*
X000301Y021391D02*
X000540Y021391D01*
X000711Y021391D02*
X000811Y021391D01*
X000811Y021439D02*
X000811Y020970D01*
X001280Y020970D01*
X001268Y021042D01*
X001243Y021120D01*
X001206Y021193D01*
X001158Y021259D01*
X001100Y021317D01*
X001034Y021365D01*
X000961Y021402D01*
X000883Y021427D01*
X000811Y021439D01*
X000811Y021292D02*
X000711Y021292D01*
X000711Y021194D02*
X000811Y021194D01*
X000811Y021095D02*
X000711Y021095D01*
X000711Y020996D02*
X000811Y020996D01*
X000811Y020898D02*
X002021Y020898D01*
X002021Y020996D02*
X001276Y020996D01*
X001251Y021095D02*
X002051Y021095D01*
X002092Y021194D02*
X001205Y021194D01*
X001124Y021292D02*
X002178Y021292D01*
X002271Y021391D02*
X000983Y021391D01*
X000398Y021292D02*
X000301Y021292D01*
X000301Y021194D02*
X000317Y021194D01*
X000711Y020799D02*
X000811Y020799D01*
X000811Y020701D02*
X000711Y020701D01*
X000711Y020602D02*
X000811Y020602D01*
X000811Y020504D02*
X000711Y020504D01*
X000711Y020405D02*
X000811Y020405D01*
X000835Y020405D02*
X002425Y020405D01*
X002222Y020504D02*
X001073Y020504D01*
X001173Y020602D02*
X002124Y020602D01*
X002069Y020701D02*
X001233Y020701D01*
X001269Y020799D02*
X002028Y020799D01*
X002657Y020405D02*
X003841Y020405D01*
X003940Y020307D02*
X000301Y020307D01*
X000301Y020405D02*
X000687Y020405D01*
X000449Y020504D02*
X000301Y020504D01*
X000301Y020602D02*
X000349Y020602D01*
X000301Y020208D02*
X004038Y020208D01*
X004137Y020110D02*
X000301Y020110D01*
X000301Y020011D02*
X004553Y020011D01*
X004566Y020602D02*
X004295Y020602D01*
X004307Y020725D02*
X004477Y020725D01*
X004477Y021050D01*
X004177Y021050D01*
X004177Y020855D01*
X004187Y020817D01*
X004207Y020783D01*
X004235Y020755D01*
X004269Y020735D01*
X004307Y020725D01*
X004196Y020701D02*
X005631Y020701D01*
X005631Y020799D02*
X005612Y020799D01*
X005625Y020898D02*
X005670Y020898D01*
X005712Y020996D02*
X005625Y020996D01*
X005625Y021095D02*
X005811Y021095D01*
X005984Y021194D02*
X005625Y021194D01*
X005697Y021686D02*
X007323Y021686D01*
X007331Y021785D02*
X005697Y021785D01*
X005668Y021883D02*
X007372Y021883D01*
X007343Y021588D02*
X007089Y021588D01*
X007187Y021489D02*
X007398Y021489D01*
X007286Y021391D02*
X007541Y021391D01*
X007384Y021292D02*
X010700Y021292D01*
X010700Y021151D02*
X010700Y020983D01*
X010710Y020945D01*
X010730Y020911D01*
X010758Y020883D01*
X010792Y020863D01*
X010830Y020853D01*
X011018Y020853D01*
X011018Y021151D01*
X010700Y021151D01*
X010700Y021095D02*
X007581Y021095D01*
X007483Y021194D02*
X011018Y021194D01*
X011018Y021095D02*
X011115Y021095D01*
X011115Y020996D02*
X011018Y020996D01*
X011018Y020898D02*
X011115Y020898D01*
X011337Y020799D02*
X007965Y020799D01*
X007979Y020701D02*
X011323Y020701D01*
X011336Y020602D02*
X007966Y020602D01*
X007919Y020504D02*
X011383Y020504D01*
X010743Y020898D02*
X007917Y020898D01*
X007793Y020996D02*
X010700Y020996D01*
X012496Y019720D02*
X012631Y019855D01*
X013381Y020605D01*
X013381Y020638D01*
X013401Y020658D01*
X013421Y020638D01*
X013421Y020105D01*
X013556Y019970D01*
X014056Y019470D01*
X014246Y019470D01*
X015246Y019470D01*
X015381Y019605D01*
X015631Y019855D01*
X015631Y019750D01*
X016101Y019750D01*
X016101Y019650D01*
X015631Y019650D01*
X015631Y019485D01*
X015766Y019350D01*
X006536Y019350D01*
X006592Y019405D01*
X006619Y019470D01*
X006700Y019470D01*
X006700Y019441D01*
X006788Y019353D01*
X007345Y019353D01*
X007401Y019409D01*
X007457Y019353D01*
X008014Y019353D01*
X008102Y019441D01*
X008102Y019652D01*
X008215Y019720D01*
X012496Y019720D01*
X012590Y019814D02*
X013712Y019814D01*
X013613Y019912D02*
X012689Y019912D01*
X012787Y020011D02*
X013515Y020011D01*
X013421Y020110D02*
X012886Y020110D01*
X012985Y020208D02*
X013421Y020208D01*
X013421Y020307D02*
X013083Y020307D01*
X013182Y020405D02*
X013421Y020405D01*
X013421Y020504D02*
X013280Y020504D01*
X013379Y020602D02*
X013421Y020602D01*
X013811Y019715D02*
X008207Y019715D01*
X008102Y019617D02*
X013909Y019617D01*
X014008Y019518D02*
X008102Y019518D01*
X008081Y019420D02*
X015696Y019420D01*
X015631Y019518D02*
X015295Y019518D01*
X015393Y019617D02*
X015631Y019617D01*
X015492Y019715D02*
X016101Y019715D01*
X015631Y019814D02*
X015590Y019814D01*
X013896Y021883D02*
X013850Y021883D01*
X013751Y021982D02*
X013995Y021982D01*
X014093Y022080D02*
X013653Y022080D01*
X013554Y022179D02*
X014192Y022179D01*
X014290Y022278D02*
X013455Y022278D01*
X013357Y022376D02*
X014389Y022376D01*
X014487Y022475D02*
X011352Y022475D01*
X011352Y022573D02*
X014586Y022573D01*
X014437Y022672D02*
X014365Y022672D01*
X013937Y022672D02*
X013865Y022672D01*
X013437Y022672D02*
X013365Y022672D01*
X012937Y022672D02*
X012865Y022672D01*
X012437Y022672D02*
X012365Y022672D01*
X012161Y022672D02*
X012141Y022672D01*
X012141Y022770D02*
X012161Y022770D01*
X012161Y022869D02*
X012141Y022869D01*
X012141Y022967D02*
X012161Y022967D01*
X012161Y023066D02*
X012141Y023066D01*
X012141Y023164D02*
X012161Y023164D01*
X012141Y023235D02*
X011881Y023235D01*
X011881Y023680D01*
X011891Y023718D01*
X011911Y023752D01*
X011939Y023780D01*
X011973Y023800D01*
X012011Y023810D01*
X012141Y023810D01*
X012141Y023235D01*
X012141Y023263D02*
X012161Y023263D01*
X012161Y023361D02*
X012141Y023361D01*
X012141Y023460D02*
X012161Y023460D01*
X012161Y023559D02*
X012141Y023559D01*
X012141Y023657D02*
X012161Y023657D01*
X012161Y023756D02*
X012141Y023756D01*
X011915Y023756D02*
X006473Y023756D01*
X006632Y023657D02*
X011881Y023657D01*
X011881Y023559D02*
X006692Y023559D01*
X006711Y023460D02*
X011881Y023460D01*
X011881Y023361D02*
X006700Y023361D01*
X006653Y023263D02*
X011881Y023263D01*
X011881Y023164D02*
X006522Y023164D01*
X005963Y022770D02*
X009950Y022770D01*
X009950Y022869D02*
X005864Y022869D01*
X005711Y022967D02*
X009968Y022967D01*
X010268Y022967D02*
X010365Y022967D01*
X010365Y022869D02*
X010268Y022869D01*
X010268Y022770D02*
X010365Y022770D01*
X010268Y022672D02*
X006061Y022672D01*
X006160Y022573D02*
X009950Y022573D01*
X009952Y022475D02*
X006258Y022475D01*
X005790Y022179D02*
X005602Y022179D01*
X005602Y022080D02*
X005889Y022080D01*
X005987Y021982D02*
X005602Y021982D01*
X005534Y022278D02*
X005692Y022278D01*
X005593Y022376D02*
X004726Y022376D01*
X004615Y022278D02*
X004518Y022278D01*
X004518Y022179D02*
X004615Y022179D01*
X004615Y022080D02*
X004518Y022080D01*
X004518Y021982D02*
X003998Y021982D01*
X003998Y022080D02*
X004200Y022080D01*
X004203Y022179D02*
X003963Y022179D01*
X003998Y022278D02*
X004276Y022278D01*
X004413Y022475D02*
X003998Y022475D01*
X003999Y022573D02*
X004349Y022573D01*
X004323Y022672D02*
X003999Y022672D01*
X003998Y022770D02*
X004325Y022770D01*
X004366Y022869D02*
X003943Y022869D01*
X003921Y022967D02*
X004455Y022967D01*
X003945Y023066D02*
X011881Y023066D01*
X011881Y022967D02*
X011344Y022967D01*
X011352Y022869D02*
X011881Y022869D01*
X011881Y022770D02*
X011891Y022732D01*
X011911Y022698D01*
X011939Y022670D01*
X012388Y023756D02*
X012415Y023756D01*
X012268Y024103D02*
X012080Y024103D01*
X012042Y024113D01*
X012008Y024133D01*
X011980Y024161D01*
X011960Y024195D01*
X011950Y024233D01*
X011950Y024401D01*
X012268Y024401D01*
X012268Y024103D01*
X012268Y024150D02*
X012365Y024150D01*
X012365Y024248D02*
X012268Y024248D01*
X012268Y024347D02*
X012365Y024347D01*
X012268Y024445D02*
X003602Y024445D01*
X003602Y024347D02*
X011950Y024347D01*
X011950Y024248D02*
X005563Y024248D01*
X005602Y024150D02*
X011991Y024150D01*
X011950Y024544D02*
X003602Y024544D01*
X003602Y024643D02*
X011950Y024643D01*
X011982Y024741D02*
X003570Y024741D01*
X003602Y024248D02*
X004239Y024248D01*
X004200Y024150D02*
X003561Y024150D01*
X003506Y024051D02*
X004200Y024051D01*
X004200Y023953D02*
X003815Y023953D01*
X003984Y023854D02*
X004144Y023854D01*
X004894Y024248D02*
X004909Y024248D01*
X005187Y024248D02*
X005284Y024248D01*
X005284Y024150D02*
X005187Y024150D01*
X005187Y024051D02*
X005284Y024051D01*
X005284Y023953D02*
X012881Y023953D01*
X012881Y024051D02*
X005602Y024051D01*
X005602Y023854D02*
X012881Y023854D01*
X012660Y024150D02*
X012642Y024150D01*
X012365Y024544D02*
X012268Y024544D01*
X012268Y024643D02*
X012365Y024643D01*
X012365Y024741D02*
X012268Y024741D01*
X013383Y024430D02*
X016943Y024430D01*
X016928Y024395D01*
X016928Y024137D01*
X016837Y024228D01*
X016716Y024278D01*
X016586Y024278D01*
X016465Y024228D01*
X016457Y024220D01*
X014955Y024220D01*
X014847Y024220D01*
X014748Y024179D01*
X014498Y023929D01*
X014422Y023853D01*
X014384Y023760D01*
X014333Y023810D01*
X013969Y023810D01*
X013901Y023742D01*
X013833Y023810D01*
X013469Y023810D01*
X013421Y023762D01*
X013421Y024338D01*
X013383Y024430D01*
X013418Y024347D02*
X016928Y024347D01*
X016928Y024248D02*
X016788Y024248D01*
X016915Y024150D02*
X016928Y024150D01*
X016514Y024248D02*
X013421Y024248D01*
X013421Y024150D02*
X014719Y024150D01*
X014621Y024051D02*
X013421Y024051D01*
X013421Y023953D02*
X014522Y023953D01*
X014424Y023854D02*
X013421Y023854D01*
X013888Y023756D02*
X013915Y023756D01*
X015421Y022967D02*
X017170Y022967D01*
X016761Y022770D02*
X015421Y022770D01*
X015421Y022869D02*
X017865Y022869D01*
X018417Y023066D02*
X019151Y023066D01*
X019237Y023066D01*
X019206Y022967D02*
X019151Y022967D01*
X018516Y022967D01*
X018614Y022869D02*
X019151Y022869D01*
X019178Y022869D01*
X019162Y022770D02*
X019151Y022770D01*
X018713Y022770D01*
X018915Y022672D02*
X019151Y022672D01*
X019151Y022573D02*
X019014Y022573D01*
X019151Y023164D02*
X018374Y023164D01*
X018374Y023263D02*
X019151Y023263D01*
X019332Y023263D01*
X019281Y023164D02*
X019151Y023164D01*
X019151Y023361D02*
X019392Y023361D01*
X019470Y023460D02*
X019151Y023460D01*
X018374Y023460D01*
X018374Y023361D02*
X019151Y023361D01*
X019151Y023559D02*
X019561Y023559D01*
X019672Y023657D02*
X019151Y023657D01*
X018378Y023657D01*
X018378Y023559D02*
X019151Y023559D01*
X019151Y023756D02*
X019814Y023756D01*
X020014Y023854D02*
X019151Y023854D01*
X018378Y023854D01*
X018378Y023756D02*
X019151Y023756D01*
X020642Y023164D02*
X037160Y023164D01*
X038871Y025649D02*
X018651Y025649D01*
X018651Y025764D01*
X018671Y025784D01*
X018671Y025944D01*
X018898Y026171D01*
X018966Y026171D01*
X019087Y026221D01*
X019179Y026313D01*
X019229Y026434D01*
X019229Y026564D01*
X019179Y026685D01*
X019087Y026777D01*
X018966Y026827D01*
X018836Y026827D01*
X018715Y026777D01*
X018671Y026733D01*
X018671Y027431D01*
X018651Y027451D01*
X018651Y027999D01*
X019151Y027999D01*
X019164Y027821D01*
X019202Y027647D01*
X019264Y027480D01*
X019350Y027323D01*
X019456Y027181D01*
X019583Y027055D01*
X019725Y026948D01*
X019882Y026862D01*
X020049Y026800D01*
X020223Y026762D01*
X020401Y026749D01*
X036901Y026749D01*
X037114Y026747D01*
X037326Y026772D01*
X037533Y026825D01*
X037730Y026904D01*
X037916Y027009D01*
X038087Y027137D01*
X038239Y027286D01*
X038371Y027453D01*
X038480Y027637D01*
X038563Y027833D01*
X038621Y028038D01*
X038651Y028249D01*
X038651Y028749D01*
X038621Y028960D01*
X038563Y029166D01*
X038480Y029362D01*
X038371Y029545D01*
X038239Y029713D01*
X038087Y029862D01*
X037916Y029990D01*
X037730Y030094D01*
X037533Y030173D01*
X037326Y030226D01*
X037114Y030252D01*
X036901Y030249D01*
X020651Y030249D01*
X020471Y030254D01*
X020291Y030235D01*
X020115Y030192D01*
X019947Y030127D01*
X019788Y030041D01*
X019642Y029935D01*
X019511Y029810D01*
X019398Y029670D01*
X019304Y029516D01*
X019230Y029351D01*
X019179Y029178D01*
X019151Y028999D01*
X019151Y031345D01*
X038871Y031345D01*
X038871Y025649D01*
X038871Y025727D02*
X018651Y025727D01*
X018671Y025825D02*
X038871Y025825D01*
X038871Y025924D02*
X018671Y025924D01*
X018749Y026022D02*
X038871Y026022D01*
X038871Y026121D02*
X018848Y026121D01*
X019083Y026219D02*
X038871Y026219D01*
X038871Y026318D02*
X019181Y026318D01*
X019222Y026416D02*
X038871Y026416D01*
X038871Y026515D02*
X019229Y026515D01*
X019209Y026613D02*
X038871Y026613D01*
X038871Y026712D02*
X019152Y026712D01*
X019151Y026713D02*
X019087Y026777D01*
X018966Y026827D01*
X018836Y026827D01*
X018715Y026777D01*
X018671Y026733D01*
X018671Y027431D01*
X018583Y027519D01*
X018381Y027519D01*
X018381Y027594D01*
X017746Y028229D01*
X017635Y028229D01*
X017587Y028277D01*
X017466Y028327D01*
X017336Y028327D01*
X017215Y028277D01*
X017123Y028185D01*
X017073Y028064D01*
X017073Y027934D01*
X017095Y027880D01*
X016979Y027996D01*
X016979Y028064D01*
X016929Y028185D01*
X016837Y028277D01*
X016716Y028327D01*
X016586Y028327D01*
X016465Y028277D01*
X016373Y028185D01*
X016323Y028064D01*
X016323Y027934D01*
X016345Y027880D01*
X016246Y027979D01*
X015413Y027979D01*
X015333Y028059D01*
X014969Y028059D01*
X014901Y027991D01*
X014833Y028059D01*
X014649Y028059D01*
X015030Y028439D01*
X016751Y028439D01*
X016788Y028402D01*
X017345Y028402D01*
X017401Y028458D01*
X017457Y028402D01*
X018014Y028402D01*
X018051Y028439D01*
X018570Y028439D01*
X018773Y028236D01*
X018887Y028189D01*
X019010Y028189D01*
X019151Y028189D01*
X019151Y026713D01*
X019151Y026811D02*
X019007Y026811D01*
X020020Y026811D01*
X019796Y026909D02*
X018671Y026909D01*
X019151Y026909D01*
X019151Y027008D02*
X018671Y027008D01*
X019645Y027008D01*
X019531Y027106D02*
X018671Y027106D01*
X019151Y027106D01*
X019151Y027205D02*
X018671Y027205D01*
X019438Y027205D01*
X019365Y027303D02*
X018671Y027303D01*
X019151Y027303D01*
X019151Y027402D02*
X018671Y027402D01*
X019307Y027402D01*
X019257Y027500D02*
X018651Y027500D01*
X018602Y027500D02*
X019151Y027500D01*
X019151Y027599D02*
X018377Y027599D01*
X018278Y027697D02*
X019151Y027697D01*
X019191Y027697D02*
X018651Y027697D01*
X018651Y027599D02*
X019220Y027599D01*
X019169Y027796D02*
X018651Y027796D01*
X018651Y027894D02*
X019159Y027894D01*
X019151Y027894D02*
X018081Y027894D01*
X018180Y027796D02*
X019151Y027796D01*
X019152Y027993D02*
X018651Y027993D01*
X018721Y028289D02*
X017560Y028289D01*
X017785Y028190D02*
X018885Y028190D01*
X019151Y028092D02*
X017884Y028092D01*
X017983Y027993D02*
X019151Y027993D01*
X018622Y028387D02*
X014978Y028387D01*
X014879Y028289D02*
X016493Y028289D01*
X016378Y028190D02*
X014780Y028190D01*
X014682Y028092D02*
X016334Y028092D01*
X016323Y027993D02*
X015399Y027993D01*
X014903Y027993D02*
X014899Y027993D01*
X014199Y028486D02*
X013546Y028486D01*
X013448Y028584D02*
X014298Y028584D01*
X014396Y028683D02*
X013349Y028683D01*
X013304Y028728D02*
X013205Y028769D01*
X013097Y028769D01*
X011352Y028769D01*
X011352Y029258D01*
X011264Y029346D01*
X010707Y029346D01*
X010651Y029290D01*
X010625Y029316D01*
X010591Y029336D01*
X010553Y029346D01*
X010365Y029346D01*
X010365Y029048D01*
X010268Y029048D01*
X010268Y029346D01*
X010080Y029346D01*
X010042Y029336D01*
X010008Y029316D01*
X009980Y029288D01*
X009960Y029254D01*
X009950Y029216D01*
X009950Y029048D01*
X010268Y029048D01*
X010268Y028951D01*
X009950Y028951D01*
X009950Y028783D01*
X009954Y028769D01*
X006263Y028769D01*
X005804Y029228D01*
X005705Y029269D01*
X005597Y029269D01*
X004845Y029269D01*
X004837Y029277D01*
X004716Y029327D01*
X004586Y029327D01*
X004465Y029277D01*
X004373Y029185D01*
X004323Y029064D01*
X004323Y028934D01*
X004373Y028813D01*
X004465Y028721D01*
X004586Y028671D01*
X004716Y028671D01*
X004837Y028721D01*
X004845Y028729D01*
X005539Y028729D01*
X005922Y028346D01*
X005998Y028270D01*
X006097Y028229D01*
X007417Y028229D01*
X007373Y028185D01*
X007323Y028064D01*
X007323Y027934D01*
X007373Y027813D01*
X007465Y027721D01*
X007586Y027671D01*
X007716Y027671D01*
X007760Y027689D01*
X010700Y027689D01*
X010700Y027548D01*
X011018Y027548D01*
X011018Y027451D01*
X010700Y027451D01*
X010700Y027283D01*
X010710Y027244D01*
X010730Y027210D01*
X010758Y027182D01*
X010792Y027163D01*
X010830Y027152D01*
X011018Y027152D01*
X011018Y027451D01*
X011115Y027451D01*
X011115Y027152D01*
X011303Y027152D01*
X011341Y027163D01*
X011371Y027180D01*
X011323Y027064D01*
X011323Y026934D01*
X011373Y026813D01*
X011457Y026729D01*
X007845Y026729D01*
X007929Y026813D01*
X007979Y026934D01*
X007979Y027064D01*
X007929Y027185D01*
X007837Y027277D01*
X007716Y027327D01*
X007648Y027327D01*
X007131Y027844D01*
X006996Y027979D01*
X005697Y027979D01*
X005697Y028004D01*
X005697Y028112D01*
X005656Y028211D01*
X005602Y028264D01*
X005602Y028508D01*
X005514Y028596D01*
X004957Y028596D01*
X004901Y028540D01*
X004875Y028566D01*
X004841Y028586D01*
X004803Y028596D01*
X004615Y028596D01*
X004615Y028298D01*
X004518Y028298D01*
X004518Y028596D01*
X004330Y028596D01*
X004292Y028586D01*
X004258Y028566D01*
X004230Y028538D01*
X004210Y028504D01*
X004200Y028466D01*
X004200Y028298D01*
X004518Y028298D01*
X004518Y028201D01*
X004200Y028201D01*
X004200Y028033D01*
X004210Y027994D01*
X004230Y027960D01*
X004258Y027932D01*
X004292Y027913D01*
X004330Y027902D01*
X004518Y027902D01*
X004518Y028201D01*
X004615Y028201D01*
X004615Y027902D01*
X004803Y027902D01*
X004841Y027913D01*
X004875Y027932D01*
X004901Y027958D01*
X004957Y027902D01*
X005157Y027902D01*
X005157Y027805D01*
X005144Y027774D01*
X005013Y027774D01*
X004925Y027686D01*
X004925Y027112D01*
X005013Y027024D01*
X005537Y027024D01*
X005625Y027112D01*
X005625Y027519D01*
X006806Y027519D01*
X007323Y027002D01*
X007323Y026934D01*
X007373Y026813D01*
X007457Y026729D01*
X006746Y026729D01*
X006644Y026831D01*
X006671Y026896D01*
X006671Y027103D01*
X006592Y027294D01*
X006446Y027440D01*
X006255Y027519D01*
X006048Y027519D01*
X005857Y027440D01*
X005710Y027294D01*
X005631Y027103D01*
X005631Y026896D01*
X005710Y026705D01*
X005857Y026558D01*
X006000Y026499D01*
X005857Y026440D01*
X005710Y026294D01*
X005631Y026103D01*
X005631Y025896D01*
X005710Y025705D01*
X005766Y025649D01*
X000301Y025649D01*
X000301Y026977D01*
X000316Y026947D01*
X000365Y026880D01*
X000422Y026823D01*
X000489Y026774D01*
X000562Y026737D01*
X000639Y026712D01*
X000711Y026701D01*
X000711Y027169D01*
X000811Y027169D01*
X000811Y026701D01*
X000883Y026712D01*
X000961Y026737D01*
X001034Y026774D01*
X001100Y026823D01*
X001158Y026880D01*
X001206Y026947D01*
X001243Y027020D01*
X001268Y027097D01*
X001280Y027169D01*
X000811Y027169D01*
X000811Y027269D01*
X000711Y027269D01*
X000711Y027738D01*
X000639Y027726D01*
X000562Y027701D01*
X000489Y027664D01*
X000422Y027616D01*
X000365Y027558D01*
X000316Y027492D01*
X000301Y027462D01*
X000301Y029537D01*
X000316Y029507D01*
X000365Y029440D01*
X000422Y029383D01*
X000489Y029334D01*
X000562Y029297D01*
X000639Y029272D01*
X000711Y029261D01*
X000711Y029729D01*
X000811Y029729D01*
X000811Y029261D01*
X000883Y029272D01*
X000961Y029297D01*
X001034Y029334D01*
X001100Y029383D01*
X001158Y029440D01*
X001206Y029507D01*
X001243Y029580D01*
X001268Y029657D01*
X001280Y029729D01*
X000811Y029729D01*
X000811Y029829D01*
X000711Y029829D01*
X000711Y030298D01*
X000639Y030286D01*
X000562Y030261D01*
X000489Y030224D01*
X000422Y030176D01*
X000365Y030118D01*
X000316Y030052D01*
X000301Y030022D01*
X000301Y031345D01*
X019151Y031345D01*
X019151Y028809D01*
X019077Y028809D01*
X018874Y029012D01*
X018760Y029059D01*
X018723Y029059D01*
X018374Y029408D01*
X018374Y029770D01*
X018378Y029774D01*
X018378Y030225D01*
X018290Y030313D01*
X017918Y030313D01*
X017830Y030225D01*
X017830Y029774D01*
X017834Y029770D01*
X017834Y029350D01*
X017834Y029243D01*
X017875Y029144D01*
X017923Y029096D01*
X017457Y029096D01*
X017401Y029040D01*
X017345Y029096D01*
X016788Y029096D01*
X016751Y029059D01*
X015421Y029059D01*
X015421Y029269D01*
X017167Y029269D01*
X017215Y029221D01*
X017336Y029171D01*
X017466Y029171D01*
X017587Y029221D01*
X017679Y029313D01*
X017729Y029434D01*
X017729Y029564D01*
X017679Y029685D01*
X017587Y029777D01*
X017472Y029825D01*
X017472Y030225D01*
X017468Y030229D01*
X017468Y030402D01*
X017595Y030402D01*
X017651Y030458D01*
X017677Y030432D01*
X017711Y030413D01*
X017750Y030402D01*
X017937Y030402D01*
X017937Y030701D01*
X018034Y030701D01*
X018034Y030798D01*
X017937Y030798D01*
X017937Y031096D01*
X017750Y031096D01*
X017711Y031086D01*
X017677Y031066D01*
X017651Y031040D01*
X017595Y031096D01*
X017345Y031096D01*
X017246Y031192D01*
X017210Y031228D01*
X017207Y031229D01*
X017205Y031231D01*
X017158Y031250D01*
X017110Y031269D01*
X017108Y031269D01*
X017105Y031270D01*
X017055Y031269D01*
X013205Y031269D01*
X013097Y031269D01*
X012998Y031228D01*
X012866Y031096D01*
X012707Y031096D01*
X012651Y031040D01*
X012625Y031066D01*
X012591Y031086D01*
X012553Y031096D01*
X012365Y031096D01*
X012365Y030798D01*
X012268Y030798D01*
X012268Y031096D01*
X012080Y031096D01*
X012042Y031086D01*
X012008Y031066D01*
X011980Y031038D01*
X011960Y031004D01*
X011950Y030966D01*
X011950Y030798D01*
X012268Y030798D01*
X012268Y030701D01*
X011950Y030701D01*
X011950Y030533D01*
X011960Y030494D01*
X011980Y030460D01*
X012008Y030432D01*
X012042Y030413D01*
X012080Y030402D01*
X012268Y030402D01*
X012268Y030701D01*
X012365Y030701D01*
X012365Y030402D01*
X012553Y030402D01*
X012591Y030413D01*
X012625Y030432D01*
X012651Y030458D01*
X012707Y030402D01*
X012881Y030402D01*
X012881Y030061D01*
X012833Y030109D01*
X012469Y030109D01*
X012398Y030039D01*
X012391Y030051D01*
X012363Y030079D01*
X012329Y030099D01*
X012291Y030109D01*
X012161Y030109D01*
X012161Y029534D01*
X012141Y029534D01*
X012141Y029514D01*
X012161Y029514D01*
X012161Y028939D01*
X012291Y028939D01*
X012329Y028949D01*
X012363Y028969D01*
X012391Y028997D01*
X012398Y029010D01*
X012469Y028939D01*
X012833Y028939D01*
X012901Y029007D01*
X012969Y028939D01*
X013333Y028939D01*
X013401Y029007D01*
X013469Y028939D01*
X013833Y028939D01*
X013901Y029007D01*
X013969Y028939D01*
X014333Y028939D01*
X014401Y029007D01*
X014469Y028939D01*
X014653Y028939D01*
X014638Y028925D01*
X013888Y028175D01*
X013879Y028153D01*
X013804Y028228D01*
X013304Y028728D01*
X013373Y028978D02*
X013430Y028978D01*
X013873Y028978D02*
X013930Y028978D01*
X014373Y028978D02*
X014430Y028978D01*
X014594Y028880D02*
X011352Y028880D01*
X011352Y028978D02*
X011930Y028978D01*
X011939Y028969D02*
X011973Y028949D01*
X012011Y028939D01*
X012141Y028939D01*
X012141Y029514D01*
X011881Y029514D01*
X011881Y029069D01*
X011891Y029031D01*
X011911Y028997D01*
X011939Y028969D01*
X011881Y029077D02*
X011352Y029077D01*
X011352Y029176D02*
X011881Y029176D01*
X011881Y029274D02*
X011336Y029274D01*
X011352Y028781D02*
X014495Y028781D01*
X014101Y028387D02*
X013645Y028387D01*
X013744Y028289D02*
X014002Y028289D01*
X013904Y028190D02*
X013842Y028190D01*
X012930Y028978D02*
X012873Y028978D01*
X012430Y028978D02*
X012373Y028978D01*
X012161Y028978D02*
X012141Y028978D01*
X012141Y029077D02*
X012161Y029077D01*
X012161Y029176D02*
X012141Y029176D01*
X012141Y029274D02*
X012161Y029274D01*
X012161Y029373D02*
X012141Y029373D01*
X012141Y029471D02*
X012161Y029471D01*
X012141Y029534D02*
X011881Y029534D01*
X011881Y029979D01*
X011891Y030017D01*
X011911Y030051D01*
X011939Y030079D01*
X011973Y030099D01*
X012011Y030109D01*
X012141Y030109D01*
X012141Y029534D01*
X012141Y029570D02*
X012161Y029570D01*
X012161Y029668D02*
X012141Y029668D01*
X012141Y029767D02*
X012161Y029767D01*
X012161Y029865D02*
X012141Y029865D01*
X012141Y029964D02*
X012161Y029964D01*
X012161Y030062D02*
X012141Y030062D01*
X011922Y030062D02*
X005602Y030062D01*
X005602Y030059D02*
X005602Y030201D01*
X005284Y030201D01*
X005284Y030298D01*
X005187Y030298D01*
X005187Y030596D01*
X005000Y030596D01*
X004961Y030586D01*
X004927Y030566D01*
X004901Y030540D01*
X004845Y030596D01*
X004288Y030596D01*
X004200Y030508D01*
X004200Y030209D01*
X004064Y030073D01*
X003934Y030203D01*
X003751Y030279D01*
X003552Y030279D01*
X003538Y030273D01*
X003506Y030306D01*
X003506Y030402D01*
X003514Y030402D01*
X003602Y030490D01*
X003602Y031008D01*
X003514Y031096D01*
X002957Y031096D01*
X002901Y031040D01*
X002845Y031096D01*
X002288Y031096D01*
X002200Y031008D01*
X002200Y030490D01*
X002288Y030402D01*
X002297Y030402D01*
X002297Y030241D01*
X002247Y030220D01*
X002100Y030074D01*
X002021Y029883D01*
X002021Y029676D01*
X002100Y029485D01*
X002247Y029338D01*
X002271Y029328D01*
X002271Y028693D01*
X002271Y028585D01*
X002271Y027670D01*
X002247Y027660D01*
X002100Y027514D01*
X002021Y027323D01*
X002021Y027116D01*
X002100Y026925D01*
X002247Y026778D01*
X002438Y026699D01*
X002645Y026699D01*
X002836Y026778D01*
X002982Y026925D01*
X003061Y027116D01*
X003061Y027323D01*
X002982Y027514D01*
X002836Y027660D01*
X002811Y027670D01*
X002811Y028460D01*
X002837Y028471D01*
X002929Y028563D01*
X002979Y028684D01*
X002979Y028814D01*
X002929Y028935D01*
X002837Y029027D01*
X002811Y029038D01*
X002811Y029328D01*
X002836Y029338D01*
X002982Y029485D01*
X003061Y029676D01*
X003061Y029883D01*
X002982Y030074D01*
X002836Y030219D01*
X002836Y030402D01*
X002845Y030402D01*
X002901Y030458D01*
X002957Y030402D01*
X002966Y030402D01*
X002966Y030248D01*
X002966Y030140D01*
X003007Y030041D01*
X003157Y029891D01*
X003151Y029878D01*
X003151Y029679D01*
X003227Y029496D01*
X003368Y029355D01*
X003381Y029349D01*
X003381Y029189D01*
X003304Y029113D01*
X003304Y028555D01*
X003360Y028499D01*
X003304Y028443D01*
X003304Y027886D01*
X003381Y027809D01*
X003381Y027649D01*
X003368Y027644D01*
X003227Y027503D01*
X003151Y027319D01*
X003151Y027120D01*
X003227Y026936D01*
X003368Y026796D01*
X003552Y026720D01*
X003751Y026720D01*
X003804Y026742D01*
X004176Y026369D01*
X004367Y026369D01*
X004551Y026369D01*
X004551Y026312D01*
X004639Y026224D01*
X005163Y026224D01*
X005251Y026312D01*
X005251Y026886D01*
X005163Y026974D01*
X004639Y026974D01*
X004551Y026886D01*
X004551Y026829D01*
X004367Y026829D01*
X004129Y027067D01*
X004151Y027120D01*
X004151Y027319D01*
X004075Y027503D01*
X003934Y027644D01*
X003921Y027649D01*
X003921Y027809D01*
X003998Y027886D01*
X003998Y027893D01*
X003998Y027894D01*
X004039Y027993D01*
X004211Y027993D01*
X004200Y028092D02*
X004039Y028092D01*
X004039Y028100D02*
X003998Y028199D01*
X003998Y028200D01*
X003998Y028443D01*
X003942Y028499D01*
X003998Y028555D01*
X003998Y028855D01*
X003999Y028857D01*
X003999Y029047D01*
X003998Y029048D01*
X003998Y029113D01*
X003921Y029189D01*
X003921Y029349D01*
X003934Y029355D01*
X004024Y029445D01*
X004051Y029443D01*
X004060Y029439D01*
X004112Y029439D01*
X004164Y029436D01*
X004173Y029439D01*
X006463Y029439D01*
X006577Y029486D01*
X006664Y029574D01*
X006711Y029688D01*
X006711Y029811D01*
X006664Y029925D01*
X006577Y030012D01*
X006463Y030059D01*
X005602Y030059D01*
X005602Y030161D02*
X012881Y030161D01*
X012881Y030260D02*
X005284Y030260D01*
X005284Y030298D02*
X005602Y030298D01*
X005602Y030466D01*
X005592Y030504D01*
X005572Y030538D01*
X005544Y030566D01*
X005510Y030586D01*
X005472Y030596D01*
X005284Y030596D01*
X005284Y030298D01*
X005284Y030358D02*
X005187Y030358D01*
X005187Y030457D02*
X005284Y030457D01*
X005284Y030555D02*
X005187Y030555D01*
X004916Y030555D02*
X004886Y030555D01*
X004247Y030555D02*
X003602Y030555D01*
X003602Y030654D02*
X011950Y030654D01*
X011950Y030555D02*
X005555Y030555D01*
X005602Y030457D02*
X011984Y030457D01*
X012268Y030457D02*
X012365Y030457D01*
X012365Y030555D02*
X012268Y030555D01*
X012268Y030654D02*
X012365Y030654D01*
X012268Y030752D02*
X003602Y030752D01*
X003602Y030851D02*
X011950Y030851D01*
X011950Y030949D02*
X003602Y030949D01*
X003563Y031048D02*
X011990Y031048D01*
X012268Y031048D02*
X012365Y031048D01*
X012365Y030949D02*
X012268Y030949D01*
X012268Y030851D02*
X012365Y030851D01*
X012643Y031048D02*
X012659Y031048D01*
X012917Y031146D02*
X000301Y031146D01*
X000301Y031048D02*
X002240Y031048D01*
X002200Y030949D02*
X000301Y030949D01*
X000301Y030851D02*
X002200Y030851D01*
X002200Y030752D02*
X000301Y030752D01*
X000301Y030654D02*
X002200Y030654D01*
X002200Y030555D02*
X000301Y030555D01*
X000301Y030457D02*
X002234Y030457D01*
X002297Y030358D02*
X000301Y030358D01*
X000301Y030260D02*
X000559Y030260D01*
X000711Y030260D02*
X000811Y030260D01*
X000811Y030298D02*
X000811Y029829D01*
X001280Y029829D01*
X001268Y029901D01*
X001243Y029979D01*
X001206Y030052D01*
X001158Y030118D01*
X001100Y030176D01*
X001034Y030224D01*
X000961Y030261D01*
X000883Y030286D01*
X000811Y030298D01*
X000811Y030161D02*
X000711Y030161D01*
X000711Y030062D02*
X000811Y030062D01*
X000811Y029964D02*
X000711Y029964D01*
X000711Y029865D02*
X000811Y029865D01*
X000811Y029767D02*
X002021Y029767D01*
X002021Y029865D02*
X001274Y029865D01*
X001248Y029964D02*
X002055Y029964D01*
X002096Y030062D02*
X001198Y030062D01*
X001115Y030161D02*
X002188Y030161D01*
X002297Y030260D02*
X000964Y030260D01*
X000408Y030161D02*
X000301Y030161D01*
X000301Y030062D02*
X000324Y030062D01*
X000711Y029668D02*
X000811Y029668D01*
X000811Y029570D02*
X000711Y029570D01*
X000711Y029471D02*
X000811Y029471D01*
X000811Y029373D02*
X000711Y029373D01*
X000711Y029274D02*
X000811Y029274D01*
X000889Y029274D02*
X002271Y029274D01*
X002271Y029176D02*
X000301Y029176D01*
X000301Y029274D02*
X000633Y029274D01*
X000436Y029373D02*
X000301Y029373D01*
X000301Y029471D02*
X000342Y029471D01*
X000301Y029077D02*
X002271Y029077D01*
X002271Y028978D02*
X000301Y028978D01*
X000301Y028880D02*
X002271Y028880D01*
X002271Y028781D02*
X000301Y028781D01*
X000301Y028683D02*
X002271Y028683D01*
X002271Y028584D02*
X000301Y028584D01*
X000301Y028486D02*
X002271Y028486D01*
X002271Y028387D02*
X000301Y028387D01*
X000301Y028289D02*
X002271Y028289D01*
X002271Y028190D02*
X000301Y028190D01*
X000301Y028092D02*
X002271Y028092D01*
X002271Y027993D02*
X000301Y027993D01*
X000301Y027894D02*
X002271Y027894D01*
X002271Y027796D02*
X000301Y027796D01*
X000301Y027697D02*
X000554Y027697D01*
X000711Y027697D02*
X000811Y027697D01*
X000811Y027738D02*
X000811Y027269D01*
X001280Y027269D01*
X001268Y027341D01*
X001243Y027419D01*
X001206Y027492D01*
X001158Y027558D01*
X001100Y027616D01*
X001034Y027664D01*
X000961Y027701D01*
X000883Y027726D01*
X000811Y027738D01*
X000811Y027599D02*
X000711Y027599D01*
X000711Y027500D02*
X000811Y027500D01*
X000811Y027402D02*
X000711Y027402D01*
X000711Y027303D02*
X000811Y027303D01*
X000811Y027205D02*
X002021Y027205D01*
X002021Y027303D02*
X001274Y027303D01*
X001249Y027402D02*
X002054Y027402D01*
X002095Y027500D02*
X001200Y027500D01*
X001117Y027599D02*
X002185Y027599D01*
X002271Y027697D02*
X000968Y027697D01*
X000405Y027599D02*
X000301Y027599D01*
X000301Y027500D02*
X000323Y027500D01*
X000711Y027106D02*
X000811Y027106D01*
X000811Y027008D02*
X000711Y027008D01*
X000711Y026909D02*
X000811Y026909D01*
X000811Y026811D02*
X000711Y026811D01*
X000711Y026712D02*
X000811Y026712D01*
X000883Y026712D02*
X002407Y026712D01*
X002214Y026811D02*
X001083Y026811D01*
X001179Y026909D02*
X002116Y026909D01*
X002066Y027008D02*
X001237Y027008D01*
X001270Y027106D02*
X002025Y027106D01*
X002675Y026712D02*
X003834Y026712D01*
X003932Y026613D02*
X000301Y026613D01*
X000301Y026515D02*
X004031Y026515D01*
X004129Y026416D02*
X000301Y026416D01*
X000301Y026318D02*
X004551Y026318D01*
X004574Y026909D02*
X004287Y026909D01*
X004307Y027024D02*
X004477Y027024D01*
X004477Y027349D01*
X004577Y027349D01*
X004577Y027024D01*
X004747Y027024D01*
X004785Y027034D01*
X004819Y027054D01*
X004847Y027082D01*
X004867Y027116D01*
X004877Y027154D01*
X004877Y027349D01*
X004577Y027349D01*
X004577Y027449D01*
X004877Y027449D01*
X004877Y027644D01*
X004867Y027682D01*
X004847Y027716D01*
X004819Y027744D01*
X004785Y027764D01*
X004747Y027774D01*
X004577Y027774D01*
X004577Y027449D01*
X004477Y027449D01*
X004477Y027349D01*
X004177Y027349D01*
X004177Y027154D01*
X004187Y027116D01*
X004207Y027082D01*
X004235Y027054D01*
X004269Y027034D01*
X004307Y027024D01*
X004188Y027008D02*
X005631Y027008D01*
X005619Y027106D02*
X005633Y027106D01*
X005625Y027205D02*
X005673Y027205D01*
X005720Y027303D02*
X005625Y027303D01*
X005625Y027402D02*
X005818Y027402D01*
X006002Y027500D02*
X005625Y027500D01*
X005153Y027796D02*
X003921Y027796D01*
X003921Y027697D02*
X004196Y027697D01*
X004187Y027682D02*
X004177Y027644D01*
X004177Y027449D01*
X004477Y027449D01*
X004477Y027774D01*
X004307Y027774D01*
X004269Y027764D01*
X004235Y027744D01*
X004207Y027716D01*
X004187Y027682D01*
X004177Y027599D02*
X003979Y027599D01*
X004076Y027500D02*
X004177Y027500D01*
X004117Y027402D02*
X004477Y027402D01*
X004477Y027500D02*
X004577Y027500D01*
X004577Y027402D02*
X004925Y027402D01*
X004925Y027500D02*
X004877Y027500D01*
X004877Y027599D02*
X004925Y027599D01*
X004936Y027697D02*
X004858Y027697D01*
X004577Y027697D02*
X004477Y027697D01*
X004477Y027599D02*
X004577Y027599D01*
X004577Y027303D02*
X004477Y027303D01*
X004477Y027205D02*
X004577Y027205D01*
X004577Y027106D02*
X004477Y027106D01*
X004193Y027106D02*
X004145Y027106D01*
X004151Y027205D02*
X004177Y027205D01*
X004177Y027303D02*
X004151Y027303D01*
X003999Y027894D02*
X005157Y027894D01*
X005697Y027993D02*
X007323Y027993D01*
X007334Y028092D02*
X005697Y028092D01*
X005665Y028190D02*
X007378Y028190D01*
X007339Y027894D02*
X007081Y027894D01*
X007180Y027796D02*
X007390Y027796D01*
X007278Y027697D02*
X007522Y027697D01*
X007377Y027599D02*
X010700Y027599D01*
X010700Y027402D02*
X007574Y027402D01*
X007475Y027500D02*
X011018Y027500D01*
X011018Y027402D02*
X011115Y027402D01*
X011115Y027303D02*
X011018Y027303D01*
X011018Y027205D02*
X011115Y027205D01*
X011340Y027106D02*
X007962Y027106D01*
X007979Y027008D02*
X011323Y027008D01*
X011333Y026909D02*
X007969Y026909D01*
X007926Y026811D02*
X011376Y026811D01*
X010736Y027205D02*
X007910Y027205D01*
X007775Y027303D02*
X010700Y027303D01*
X009950Y028781D02*
X006251Y028781D01*
X006152Y028880D02*
X009950Y028880D01*
X009950Y029077D02*
X005955Y029077D01*
X005857Y029176D02*
X009950Y029176D01*
X009972Y029274D02*
X004840Y029274D01*
X004462Y029274D02*
X003921Y029274D01*
X003935Y029176D02*
X004369Y029176D01*
X004328Y029077D02*
X003998Y029077D01*
X003999Y028978D02*
X004323Y028978D01*
X004345Y028880D02*
X003999Y028880D01*
X003998Y028781D02*
X004405Y028781D01*
X004558Y028683D02*
X003998Y028683D01*
X003998Y028584D02*
X004290Y028584D01*
X004205Y028486D02*
X003955Y028486D01*
X003998Y028387D02*
X004200Y028387D01*
X004200Y028190D02*
X004002Y028190D01*
X004039Y028100D02*
X004039Y027993D01*
X003998Y028289D02*
X004518Y028289D01*
X004518Y028387D02*
X004615Y028387D01*
X004615Y028486D02*
X004518Y028486D01*
X004518Y028584D02*
X004615Y028584D01*
X004745Y028683D02*
X005586Y028683D01*
X005526Y028584D02*
X005684Y028584D01*
X005602Y028486D02*
X005783Y028486D01*
X005881Y028387D02*
X005602Y028387D01*
X005602Y028289D02*
X005980Y028289D01*
X006054Y028978D02*
X010268Y028978D01*
X010268Y029077D02*
X010365Y029077D01*
X010365Y029176D02*
X010268Y029176D01*
X010268Y029274D02*
X010365Y029274D01*
X011881Y029373D02*
X003952Y029373D01*
X003381Y029274D02*
X002811Y029274D01*
X002811Y029176D02*
X003367Y029176D01*
X003304Y029077D02*
X002811Y029077D01*
X002886Y028978D02*
X003304Y028978D01*
X003304Y028880D02*
X002952Y028880D01*
X002979Y028781D02*
X003304Y028781D01*
X003304Y028683D02*
X002979Y028683D01*
X002938Y028584D02*
X003304Y028584D01*
X003347Y028486D02*
X002852Y028486D01*
X002811Y028387D02*
X003304Y028387D01*
X003304Y028289D02*
X002811Y028289D01*
X002811Y028190D02*
X003304Y028190D01*
X003304Y028092D02*
X002811Y028092D01*
X002811Y027993D02*
X003304Y027993D01*
X003304Y027894D02*
X002811Y027894D01*
X002811Y027796D02*
X003381Y027796D01*
X003381Y027697D02*
X002811Y027697D01*
X002897Y027599D02*
X003323Y027599D01*
X003226Y027500D02*
X002988Y027500D01*
X003028Y027402D02*
X003185Y027402D01*
X003151Y027303D02*
X003061Y027303D01*
X003061Y027205D02*
X003151Y027205D01*
X003157Y027106D02*
X003057Y027106D01*
X003016Y027008D02*
X003198Y027008D01*
X003255Y026909D02*
X002966Y026909D01*
X002868Y026811D02*
X003353Y026811D01*
X004861Y027106D02*
X004931Y027106D01*
X004925Y027205D02*
X004877Y027205D01*
X004877Y027303D02*
X004925Y027303D01*
X005228Y026909D02*
X005631Y026909D01*
X005666Y026811D02*
X005251Y026811D01*
X005251Y026712D02*
X005707Y026712D01*
X005802Y026613D02*
X005251Y026613D01*
X005251Y026515D02*
X005962Y026515D01*
X005833Y026416D02*
X005251Y026416D01*
X005251Y026318D02*
X005734Y026318D01*
X005680Y026219D02*
X000301Y026219D01*
X000301Y026121D02*
X005639Y026121D01*
X005631Y026022D02*
X000301Y026022D01*
X000301Y025924D02*
X005631Y025924D01*
X005660Y025825D02*
X000301Y025825D01*
X000301Y025727D02*
X005701Y025727D01*
X006536Y025649D02*
X006592Y025705D01*
X006619Y025769D01*
X006700Y025769D01*
X006700Y025740D01*
X006788Y025652D01*
X007345Y025652D01*
X007401Y025708D01*
X007457Y025652D01*
X008014Y025652D01*
X008102Y025740D01*
X008102Y025951D01*
X008215Y026019D01*
X012496Y026019D01*
X012631Y026154D01*
X013381Y026904D01*
X013381Y026937D01*
X013401Y026957D01*
X013421Y026937D01*
X013421Y026404D01*
X013556Y026269D01*
X014056Y025769D01*
X014246Y025769D01*
X015246Y025769D01*
X015381Y025904D01*
X015631Y026154D01*
X015631Y026049D01*
X016101Y026049D01*
X016101Y025949D01*
X015631Y025949D01*
X015631Y025784D01*
X015766Y025649D01*
X006536Y025649D01*
X006601Y025727D02*
X006714Y025727D01*
X006665Y026811D02*
X007376Y026811D01*
X007333Y026909D02*
X006671Y026909D01*
X006671Y027008D02*
X007318Y027008D01*
X007219Y027106D02*
X006670Y027106D01*
X006629Y027205D02*
X007120Y027205D01*
X007022Y027303D02*
X006582Y027303D01*
X006484Y027402D02*
X006923Y027402D01*
X006825Y027500D02*
X006300Y027500D01*
X004945Y028584D02*
X004844Y028584D01*
X004615Y028190D02*
X004518Y028190D01*
X004518Y028092D02*
X004615Y028092D01*
X004615Y027993D02*
X004518Y027993D01*
X003350Y029373D02*
X002870Y029373D01*
X002969Y029471D02*
X003252Y029471D01*
X003197Y029570D02*
X003017Y029570D01*
X003058Y029668D02*
X003156Y029668D01*
X003151Y029767D02*
X003061Y029767D01*
X003061Y029865D02*
X003151Y029865D01*
X003084Y029964D02*
X003027Y029964D01*
X002998Y030062D02*
X002987Y030062D01*
X002966Y030161D02*
X002895Y030161D01*
X002836Y030260D02*
X002966Y030260D01*
X002966Y030358D02*
X002836Y030358D01*
X002899Y030457D02*
X002903Y030457D01*
X002893Y031048D02*
X002909Y031048D01*
X003569Y030457D02*
X004200Y030457D01*
X004200Y030358D02*
X003506Y030358D01*
X003797Y030260D02*
X004200Y030260D01*
X004152Y030161D02*
X003976Y030161D01*
X005602Y030358D02*
X012881Y030358D01*
X012653Y030457D02*
X012649Y030457D01*
X012422Y030062D02*
X012380Y030062D01*
X012880Y030062D02*
X012881Y030062D01*
X013421Y030061D02*
X013421Y030638D01*
X013383Y030729D01*
X016943Y030729D01*
X016928Y030695D01*
X016928Y030436D01*
X016837Y030527D01*
X016716Y030577D01*
X016586Y030577D01*
X016465Y030527D01*
X016457Y030519D01*
X014955Y030519D01*
X014847Y030519D01*
X014748Y030478D01*
X014498Y030228D01*
X014422Y030152D01*
X014384Y030059D01*
X014333Y030109D01*
X013969Y030109D01*
X013901Y030041D01*
X013833Y030109D01*
X013469Y030109D01*
X013421Y030061D01*
X013421Y030062D02*
X013422Y030062D01*
X013421Y030161D02*
X014431Y030161D01*
X014385Y030062D02*
X014380Y030062D01*
X014530Y030260D02*
X013421Y030260D01*
X013421Y030358D02*
X014628Y030358D01*
X014727Y030457D02*
X013421Y030457D01*
X013421Y030555D02*
X016532Y030555D01*
X016770Y030555D02*
X016928Y030555D01*
X016928Y030457D02*
X016908Y030457D01*
X016928Y030654D02*
X013414Y030654D01*
X013039Y031245D02*
X000301Y031245D01*
X000301Y031344D02*
X019151Y031344D01*
X038871Y031344D01*
X038871Y031245D02*
X019151Y031245D01*
X017169Y031245D01*
X017293Y031146D02*
X019151Y031146D01*
X038871Y031146D01*
X038871Y031048D02*
X019151Y031048D01*
X018313Y031048D01*
X018322Y031038D02*
X018294Y031066D01*
X018260Y031086D01*
X018222Y031096D01*
X018034Y031096D01*
X018034Y030798D01*
X018352Y030798D01*
X018352Y030966D01*
X018342Y031004D01*
X018322Y031038D01*
X018352Y030949D02*
X019151Y030949D01*
X038871Y030949D01*
X038871Y030851D02*
X019151Y030851D01*
X018352Y030851D01*
X018352Y030701D02*
X018034Y030701D01*
X018034Y030402D01*
X018222Y030402D01*
X018260Y030413D01*
X018294Y030432D01*
X018322Y030460D01*
X018342Y030494D01*
X018352Y030533D01*
X018352Y030701D01*
X018352Y030654D02*
X019151Y030654D01*
X038871Y030654D01*
X038871Y030752D02*
X019151Y030752D01*
X018034Y030752D01*
X018034Y030654D02*
X017937Y030654D01*
X017937Y030555D02*
X018034Y030555D01*
X018034Y030457D02*
X017937Y030457D01*
X017865Y030260D02*
X017468Y030260D01*
X017468Y030358D02*
X019151Y030358D01*
X038871Y030358D01*
X038871Y030260D02*
X019151Y030260D01*
X018343Y030260D01*
X018378Y030161D02*
X019151Y030161D01*
X020034Y030161D01*
X019827Y030062D02*
X019151Y030062D01*
X018378Y030062D01*
X018378Y029964D02*
X019151Y029964D01*
X019682Y029964D01*
X019569Y029865D02*
X019151Y029865D01*
X018378Y029865D01*
X018374Y029767D02*
X019151Y029767D01*
X019476Y029767D01*
X019397Y029668D02*
X019151Y029668D01*
X018374Y029668D01*
X018374Y029570D02*
X019151Y029570D01*
X019337Y029570D01*
X019284Y029471D02*
X019151Y029471D01*
X018374Y029471D01*
X018410Y029373D02*
X019151Y029373D01*
X019240Y029373D01*
X019208Y029274D02*
X019151Y029274D01*
X018508Y029274D01*
X018607Y029176D02*
X019151Y029176D01*
X019179Y029176D01*
X019163Y029077D02*
X019151Y029077D01*
X018705Y029077D01*
X018908Y028978D02*
X019151Y028978D01*
X019151Y028880D02*
X019006Y028880D01*
X019920Y028683D02*
X037882Y028683D01*
X037891Y028642D02*
X037901Y028499D01*
X037891Y028357D01*
X037861Y028217D01*
X037811Y028084D01*
X037742Y027959D01*
X037657Y027844D01*
X037556Y027743D01*
X037442Y027658D01*
X037317Y027590D01*
X037183Y027540D01*
X037044Y027509D01*
X036901Y027499D01*
X020901Y027499D01*
X020759Y027509D01*
X020619Y027540D01*
X020486Y027590D01*
X020361Y027658D01*
X020246Y027743D01*
X020145Y027844D01*
X020060Y027959D01*
X019992Y028084D01*
X019942Y028217D01*
X019911Y028357D01*
X019901Y028499D01*
X019911Y028642D01*
X019942Y028781D01*
X019992Y028915D01*
X020060Y029040D01*
X020145Y029154D01*
X020246Y029255D01*
X020361Y029340D01*
X020486Y029409D01*
X020619Y029459D01*
X020759Y029489D01*
X020901Y029499D01*
X036901Y029499D01*
X037044Y029489D01*
X037183Y029459D01*
X037317Y029409D01*
X037442Y029340D01*
X037556Y029255D01*
X037657Y029154D01*
X037742Y029040D01*
X037811Y028915D01*
X037861Y028781D01*
X037891Y028642D01*
X037895Y028584D02*
X019907Y028584D01*
X019902Y028486D02*
X037900Y028486D01*
X037893Y028387D02*
X019909Y028387D01*
X019926Y028289D02*
X037876Y028289D01*
X037850Y028190D02*
X019952Y028190D01*
X019989Y028092D02*
X037814Y028092D01*
X037761Y027993D02*
X020041Y027993D01*
X020108Y027894D02*
X037694Y027894D01*
X037609Y027796D02*
X020194Y027796D01*
X020308Y027697D02*
X037495Y027697D01*
X037334Y027599D02*
X020469Y027599D01*
X020886Y027500D02*
X036917Y027500D01*
X037476Y026811D02*
X038871Y026811D01*
X038871Y026909D02*
X037739Y026909D01*
X037914Y027008D02*
X038871Y027008D01*
X038871Y027106D02*
X038046Y027106D01*
X038156Y027205D02*
X038871Y027205D01*
X038871Y027303D02*
X038253Y027303D01*
X038330Y027402D02*
X038871Y027402D01*
X038871Y027500D02*
X038399Y027500D01*
X038457Y027599D02*
X038871Y027599D01*
X038871Y027697D02*
X038506Y027697D01*
X038548Y027796D02*
X038871Y027796D01*
X038871Y027894D02*
X038581Y027894D01*
X038608Y027993D02*
X038871Y027993D01*
X038871Y028092D02*
X038629Y028092D01*
X038643Y028190D02*
X038871Y028190D01*
X038871Y028289D02*
X038651Y028289D01*
X038651Y028387D02*
X038871Y028387D01*
X038871Y028486D02*
X038651Y028486D01*
X038651Y028584D02*
X038871Y028584D01*
X038871Y028683D02*
X038651Y028683D01*
X038647Y028781D02*
X038871Y028781D01*
X038871Y028880D02*
X038632Y028880D01*
X038616Y028978D02*
X038871Y028978D01*
X038871Y029077D02*
X038588Y029077D01*
X038559Y029176D02*
X038871Y029176D01*
X038871Y029274D02*
X038517Y029274D01*
X038473Y029373D02*
X038871Y029373D01*
X038871Y029471D02*
X038415Y029471D01*
X038352Y029570D02*
X038871Y029570D01*
X038871Y029668D02*
X038274Y029668D01*
X038184Y029767D02*
X038871Y029767D01*
X038871Y029865D02*
X038082Y029865D01*
X037950Y029964D02*
X038871Y029964D01*
X038871Y030062D02*
X037787Y030062D01*
X037563Y030161D02*
X038871Y030161D01*
X038871Y030457D02*
X019151Y030457D01*
X018319Y030457D01*
X018352Y030555D02*
X019151Y030555D01*
X038871Y030555D01*
X037635Y029176D02*
X020167Y029176D01*
X020088Y029077D02*
X037715Y029077D01*
X037776Y028978D02*
X020026Y028978D01*
X019979Y028880D02*
X037824Y028880D01*
X037860Y028781D02*
X019942Y028781D01*
X020272Y029274D02*
X037530Y029274D01*
X037383Y029373D02*
X020419Y029373D01*
X020677Y029471D02*
X037126Y029471D01*
X019171Y021489D02*
X018651Y021489D01*
X018671Y020504D02*
X018777Y020504D01*
X018671Y020504D01*
X015688Y025727D02*
X008089Y025727D01*
X008102Y025825D02*
X014000Y025825D01*
X013901Y025924D02*
X008102Y025924D01*
X012499Y026022D02*
X013803Y026022D01*
X013704Y026121D02*
X012598Y026121D01*
X012696Y026219D02*
X013606Y026219D01*
X013507Y026318D02*
X012795Y026318D01*
X012894Y026416D02*
X013421Y026416D01*
X013421Y026515D02*
X012992Y026515D01*
X013091Y026613D02*
X013421Y026613D01*
X013421Y026712D02*
X013189Y026712D01*
X013288Y026811D02*
X013421Y026811D01*
X013421Y026909D02*
X013381Y026909D01*
X015302Y025825D02*
X015631Y025825D01*
X015631Y025924D02*
X015401Y025924D01*
X015499Y026022D02*
X016101Y026022D01*
X015631Y026121D02*
X015598Y026121D01*
X016331Y027894D02*
X016339Y027894D01*
X016810Y028289D02*
X017243Y028289D01*
X017128Y028190D02*
X016924Y028190D01*
X016968Y028092D02*
X017084Y028092D01*
X017073Y027993D02*
X016983Y027993D01*
X017081Y027894D02*
X017089Y027894D01*
X017364Y029077D02*
X017438Y029077D01*
X017477Y029176D02*
X017862Y029176D01*
X017834Y029274D02*
X017640Y029274D01*
X017704Y029373D02*
X017834Y029373D01*
X017834Y029471D02*
X017729Y029471D01*
X017727Y029570D02*
X017834Y029570D01*
X017834Y029668D02*
X017686Y029668D01*
X017598Y029767D02*
X017834Y029767D01*
X017830Y029865D02*
X017472Y029865D01*
X017472Y029964D02*
X017830Y029964D01*
X017830Y030062D02*
X017472Y030062D01*
X017472Y030161D02*
X017830Y030161D01*
X017653Y030457D02*
X017649Y030457D01*
X017937Y030851D02*
X018034Y030851D01*
X018034Y030949D02*
X017937Y030949D01*
X017937Y031048D02*
X018034Y031048D01*
X017659Y031048D02*
X017643Y031048D01*
X017325Y029176D02*
X015421Y029176D01*
X015421Y029077D02*
X016769Y029077D01*
X018671Y026811D02*
X018795Y026811D01*
X018671Y026811D01*
X013922Y030062D02*
X013880Y030062D01*
X011881Y029964D02*
X006625Y029964D01*
X006689Y029865D02*
X011881Y029865D01*
X011881Y029767D02*
X006711Y029767D01*
X006703Y029668D02*
X011881Y029668D01*
X011881Y029570D02*
X006660Y029570D01*
X006540Y029471D02*
X011881Y029471D01*
X003151Y023559D02*
X003061Y023559D01*
X003061Y023460D02*
X003151Y023460D01*
X003159Y023361D02*
X003055Y023361D01*
X003014Y023263D02*
X003200Y023263D01*
X003259Y023164D02*
X002961Y023164D01*
X002862Y023066D02*
X003358Y023066D01*
X003381Y022967D02*
X002811Y022967D01*
X002811Y022869D02*
X003360Y022869D01*
X003304Y022770D02*
X002811Y022770D01*
X002893Y022672D02*
X003304Y022672D01*
X003304Y022573D02*
X002955Y022573D01*
X002979Y022475D02*
X003304Y022475D01*
X003304Y022376D02*
X002976Y022376D01*
X002935Y022278D02*
X003304Y022278D01*
X003339Y022179D02*
X002844Y022179D01*
X002811Y022080D02*
X003304Y022080D01*
X003304Y021982D02*
X002811Y021982D01*
X002811Y021883D02*
X003304Y021883D01*
X003304Y021785D02*
X002811Y021785D01*
X002811Y021686D02*
X003304Y021686D01*
X003304Y021588D02*
X002811Y021588D01*
X002811Y021489D02*
X003381Y021489D01*
X003381Y021391D02*
X002811Y021391D01*
X002904Y021292D02*
X003316Y021292D01*
X003223Y021194D02*
X002991Y021194D01*
X003031Y021095D02*
X003182Y021095D01*
X003151Y020996D02*
X003061Y020996D01*
X003061Y020898D02*
X003151Y020898D01*
X003160Y020799D02*
X003054Y020799D01*
X003013Y020701D02*
X003201Y020701D01*
X003262Y020602D02*
X002959Y020602D01*
X002860Y020504D02*
X003361Y020504D01*
X004142Y020799D02*
X004198Y020799D01*
X004177Y020898D02*
X004151Y020898D01*
X004151Y020996D02*
X004177Y020996D01*
X004120Y021095D02*
X004477Y021095D01*
X004477Y021050D02*
X004477Y021150D01*
X004177Y021150D01*
X004177Y021345D01*
X004187Y021383D01*
X004207Y021417D01*
X004235Y021445D01*
X004269Y021465D01*
X004307Y021475D01*
X004477Y021475D01*
X004477Y021150D01*
X004577Y021150D01*
X004577Y021475D01*
X004747Y021475D01*
X004785Y021465D01*
X004819Y021445D01*
X004847Y021417D01*
X004867Y021383D01*
X004877Y021345D01*
X004877Y021150D01*
X004577Y021150D01*
X004577Y021050D01*
X004577Y020725D01*
X004747Y020725D01*
X004785Y020735D01*
X004819Y020755D01*
X004847Y020783D01*
X004867Y020817D01*
X004877Y020855D01*
X004877Y021050D01*
X004577Y021050D01*
X004477Y021050D01*
X004477Y020996D02*
X004577Y020996D01*
X004577Y020898D02*
X004477Y020898D01*
X004477Y020799D02*
X004577Y020799D01*
X004857Y020799D02*
X004939Y020799D01*
X004925Y020898D02*
X004877Y020898D01*
X004877Y020996D02*
X004925Y020996D01*
X004925Y021095D02*
X004577Y021095D01*
X004577Y021194D02*
X004477Y021194D01*
X004477Y021292D02*
X004577Y021292D01*
X004577Y021391D02*
X004477Y021391D01*
X004518Y021603D02*
X004518Y021901D01*
X004200Y021901D01*
X004200Y021733D01*
X004210Y021695D01*
X004230Y021661D01*
X004258Y021633D01*
X004292Y021613D01*
X004330Y021603D01*
X004518Y021603D01*
X004518Y021686D02*
X004615Y021686D01*
X004615Y021785D02*
X004518Y021785D01*
X004518Y021883D02*
X004615Y021883D01*
X004200Y021883D02*
X004005Y021883D01*
X004039Y021785D02*
X004200Y021785D01*
X004215Y021686D02*
X004036Y021686D01*
X003998Y021588D02*
X005157Y021588D01*
X005150Y021489D02*
X003921Y021489D01*
X003921Y021391D02*
X004192Y021391D01*
X004177Y021292D02*
X003987Y021292D01*
X004079Y021194D02*
X004177Y021194D01*
X004877Y021194D02*
X004925Y021194D01*
X004925Y021292D02*
X004877Y021292D01*
X004862Y021391D02*
X004929Y021391D01*
X005236Y020602D02*
X005631Y020602D01*
X005670Y020504D02*
X005251Y020504D01*
X005251Y020405D02*
X005711Y020405D01*
X005809Y020307D02*
X005251Y020307D01*
X005251Y020208D02*
X005980Y020208D01*
X005825Y020110D02*
X005251Y020110D01*
X005249Y020011D02*
X005727Y020011D01*
X005676Y019912D02*
X000301Y019912D01*
X000301Y019814D02*
X005636Y019814D01*
X005631Y019715D02*
X000301Y019715D01*
X000301Y019617D02*
X005631Y019617D01*
X005664Y019518D02*
X000301Y019518D01*
X000301Y019420D02*
X005704Y019420D01*
X006598Y019420D02*
X006721Y019420D01*
X006673Y020504D02*
X007383Y020504D01*
X007336Y020602D02*
X006671Y020602D01*
X006671Y020701D02*
X007323Y020701D01*
X007227Y020799D02*
X006671Y020799D01*
X006632Y020898D02*
X007128Y020898D01*
X007029Y020996D02*
X006590Y020996D01*
X006491Y021095D02*
X006931Y021095D01*
X006832Y021194D02*
X006318Y021194D01*
X004938Y022278D02*
X004857Y022278D01*
X004576Y022376D02*
X003998Y022376D01*
X003092Y023657D02*
X003031Y023657D01*
X003001Y023756D02*
X002990Y023756D01*
X002966Y023854D02*
X002902Y023854D01*
X002966Y023953D02*
X002836Y023953D01*
X002836Y024051D02*
X002966Y024051D01*
X002910Y024150D02*
X002892Y024150D01*
X002027Y023361D02*
X001269Y023361D01*
X001234Y023263D02*
X002068Y023263D01*
X002121Y023164D02*
X001175Y023164D01*
X001076Y023066D02*
X002220Y023066D01*
X000640Y026712D02*
X000301Y026712D01*
X000301Y026811D02*
X000439Y026811D01*
X000344Y026909D02*
X000301Y026909D01*
X001086Y029373D02*
X002212Y029373D01*
X002114Y029471D02*
X001180Y029471D01*
X001238Y029570D02*
X002065Y029570D01*
X002024Y029668D02*
X001270Y029668D01*
X000811Y017350D02*
X000711Y017350D01*
X000711Y017252D02*
X000811Y017252D01*
X001267Y017055D02*
X002031Y017055D01*
X002071Y016956D02*
X001230Y016956D01*
X001169Y016858D02*
X002129Y016858D01*
X000811Y015084D02*
X000711Y015084D01*
X000711Y014985D02*
X000811Y014985D01*
X000811Y014887D02*
X000711Y014887D01*
X000711Y014788D02*
X000811Y014788D01*
X000811Y014690D02*
X000711Y014690D01*
X000390Y014985D02*
X000301Y014985D01*
X000301Y014887D02*
X000313Y014887D01*
X000301Y015084D02*
X000525Y015084D01*
X000355Y014296D02*
X000301Y014296D01*
X000301Y014197D02*
X000460Y014197D01*
X000301Y014098D02*
X003849Y014098D01*
X003947Y014000D02*
X000301Y014000D01*
X000301Y013901D02*
X004046Y013901D01*
X004144Y013803D02*
X000301Y013803D01*
X000301Y013704D02*
X004561Y013704D01*
X006998Y015379D02*
X007323Y015379D01*
X007346Y015281D02*
X007096Y015281D01*
X007131Y015246D02*
X007131Y015246D01*
X007195Y015182D02*
X007406Y015182D01*
X007293Y015084D02*
X007559Y015084D01*
X007743Y015084D02*
X010700Y015084D01*
X010700Y014985D02*
X007392Y014985D01*
X007490Y014887D02*
X011018Y014887D01*
X011018Y014852D02*
X010700Y014852D01*
X010700Y014684D01*
X010710Y014646D01*
X010730Y014612D01*
X010758Y014584D01*
X010792Y014564D01*
X010830Y014554D01*
X011018Y014554D01*
X011018Y014852D01*
X011018Y014788D02*
X011115Y014788D01*
X011115Y014690D02*
X011018Y014690D01*
X011018Y014591D02*
X011115Y014591D01*
X011334Y014493D02*
X007968Y014493D01*
X007979Y014394D02*
X011323Y014394D01*
X011340Y014296D02*
X007963Y014296D01*
X007911Y014197D02*
X011391Y014197D01*
X010751Y014591D02*
X007925Y014591D01*
X007811Y014690D02*
X010700Y014690D01*
X010700Y014788D02*
X007589Y014788D01*
X012583Y013507D02*
X013720Y013507D01*
X013621Y013606D02*
X012681Y013606D01*
X012780Y013704D02*
X013522Y013704D01*
X013424Y013803D02*
X012878Y013803D01*
X012977Y013901D02*
X013421Y013901D01*
X013421Y014000D02*
X013076Y014000D01*
X013174Y014098D02*
X013421Y014098D01*
X013421Y014197D02*
X013273Y014197D01*
X013371Y014296D02*
X013421Y014296D01*
X017627Y011536D02*
X017676Y011536D01*
X017937Y011536D02*
X018034Y011536D01*
X018034Y011635D02*
X017937Y011635D01*
X017937Y011733D02*
X018034Y011733D01*
X018378Y010945D02*
X019151Y010945D01*
X011369Y001978D02*
X011361Y001978D01*
X011115Y001978D02*
X011018Y001978D01*
X011018Y002076D02*
X011115Y002076D01*
X011115Y002175D02*
X011018Y002175D01*
X012568Y000894D02*
X013735Y000894D01*
X013636Y000992D02*
X012666Y000992D01*
X012765Y001091D02*
X013538Y001091D01*
X013439Y001189D02*
X012863Y001189D01*
X012962Y001288D02*
X013421Y001288D01*
X013421Y001386D02*
X013060Y001386D01*
X013159Y001485D02*
X013421Y001485D01*
X013421Y001583D02*
X013257Y001583D01*
X013356Y001682D02*
X013421Y001682D01*
X018671Y000697D02*
X038871Y000697D01*
X038871Y000795D02*
X018719Y000795D01*
X018818Y000894D02*
X038871Y000894D01*
X038871Y000992D02*
X019010Y000992D01*
X019154Y001091D02*
X038871Y001091D01*
X038871Y001189D02*
X019209Y001189D01*
X019229Y001288D02*
X038871Y001288D01*
X038871Y001386D02*
X019222Y001386D01*
X018671Y000598D02*
X038871Y000598D01*
X038871Y000499D02*
X018651Y000499D01*
X005005Y002569D02*
X004778Y002569D01*
X004871Y002470D02*
X004925Y002470D01*
X004925Y002372D02*
X004877Y002372D01*
X004877Y002273D02*
X004925Y002273D01*
X004276Y002569D02*
X003921Y002569D01*
X003921Y002470D02*
X004183Y002470D01*
X004177Y002372D02*
X004009Y002372D01*
X004089Y002273D02*
X004177Y002273D01*
X003998Y003003D02*
X003998Y003003D01*
X003986Y003259D02*
X004200Y003259D01*
X004246Y003357D02*
X003997Y003357D01*
X003317Y003259D02*
X002811Y003259D01*
X002811Y003160D02*
X003304Y003160D01*
X003304Y003062D02*
X002811Y003062D01*
X002811Y002963D02*
X003304Y002963D01*
X003304Y002864D02*
X002811Y002864D01*
X002811Y002766D02*
X003304Y002766D01*
X003326Y002667D02*
X002811Y002667D01*
X002811Y002569D02*
X003381Y002569D01*
X003381Y002470D02*
X002818Y002470D01*
X002927Y002372D02*
X003293Y002372D01*
X003214Y002273D02*
X003000Y002273D01*
X003041Y002175D02*
X003173Y002175D01*
X003151Y002076D02*
X003061Y002076D01*
X003061Y001978D02*
X003151Y001978D01*
X003169Y001879D02*
X003045Y001879D01*
X003004Y001781D02*
X003210Y001781D01*
X003285Y001682D02*
X002936Y001682D01*
X002838Y001583D02*
X003405Y001583D01*
X002245Y001583D02*
X001042Y001583D01*
X001156Y001682D02*
X002146Y001682D01*
X002079Y001781D02*
X001222Y001781D01*
X001261Y001879D02*
X002038Y001879D01*
X000811Y001583D02*
X000711Y001583D01*
X000305Y002273D02*
X000301Y002273D01*
X001045Y004146D02*
X002243Y004146D01*
X002037Y004441D02*
X001262Y004441D01*
X001206Y004310D02*
X001158Y004244D01*
X000307Y004835D02*
X000301Y004835D01*
X002836Y005032D02*
X002966Y005032D01*
X002970Y004934D02*
X002925Y004934D01*
X002999Y004835D02*
X003016Y004835D01*
X003040Y004737D02*
X003114Y004737D01*
X003151Y004638D02*
X003061Y004638D01*
X003061Y004540D02*
X003151Y004540D01*
X003168Y004441D02*
X003046Y004441D01*
X003005Y004343D02*
X003209Y004343D01*
X003282Y004244D02*
X002938Y004244D01*
X002840Y004146D02*
X003381Y004146D01*
X003381Y004047D02*
X002811Y004047D01*
X002811Y003948D02*
X003337Y003948D01*
X003304Y003850D02*
X002811Y003850D01*
X002916Y003751D02*
X003304Y003751D01*
X003304Y003653D02*
X002965Y003653D01*
X002979Y003554D02*
X003304Y003554D01*
X003304Y003456D02*
X002966Y003456D01*
X002920Y003357D02*
X003305Y003357D01*
X004020Y004244D02*
X004056Y004244D01*
X002966Y005131D02*
X002836Y005131D01*
X002869Y005230D02*
X002933Y005230D01*
D26*
X016151Y002552D02*
X016651Y002052D01*
X016651Y001302D01*
X016651Y007602D02*
X016651Y008352D01*
X016151Y008852D01*
X016651Y013901D02*
X016651Y014651D01*
X016151Y015151D01*
X016651Y020200D02*
X016651Y020950D01*
X016151Y021450D01*
X016651Y026499D02*
X016651Y027249D01*
X016151Y027749D01*
M02*
