G75*
G70*
%OFA0B0*%
%FSLAX24Y24*%
%IPPOS*%
%LPD*%
%AMOC8*
5,1,8,0,0,1.08239X$1,22.5*
%
%ADD10C,0.0000*%
%ADD11R,0.0280X0.0910*%
%ADD12R,0.0780X0.0780*%
%ADD13OC8,0.0780*%
%ADD14R,0.0440X0.0490*%
%ADD15R,0.0473X0.0434*%
%ADD16C,0.0780*%
%ADD17R,0.0276X0.0355*%
%ADD18R,0.0512X0.0512*%
%ADD19C,0.1040*%
%ADD20R,0.0591X0.0749*%
D10*
X000151Y001048D02*
X000151Y007044D01*
X039533Y007044D01*
X039533Y001048D01*
X000151Y001048D01*
D11*
X012151Y003023D03*
X012651Y003023D03*
X013151Y003023D03*
X013651Y003023D03*
X014151Y003023D03*
X014651Y003023D03*
X015151Y003023D03*
X015151Y005073D03*
X014651Y005073D03*
X014151Y005073D03*
X013651Y005073D03*
X013151Y005073D03*
X012651Y005073D03*
X012151Y005073D03*
D12*
X018151Y002548D03*
D13*
X017151Y002548D03*
X016151Y002548D03*
X016151Y001548D03*
X017151Y001548D03*
X018151Y001548D03*
D14*
X006025Y002948D03*
X005277Y002948D03*
X005651Y002148D03*
D15*
X009317Y002048D03*
X009986Y002048D03*
X011067Y003048D03*
X011736Y003048D03*
X005986Y003798D03*
X005317Y003798D03*
X003986Y004048D03*
X003317Y004048D03*
X010317Y004548D03*
X010986Y004548D03*
X005986Y005798D03*
X005317Y005798D03*
X003236Y006298D03*
X002567Y006298D03*
X012317Y006298D03*
X012986Y006298D03*
X017317Y006298D03*
X017986Y006298D03*
X017736Y004298D03*
X017067Y004298D03*
D16*
X002541Y005328D03*
X000761Y005328D03*
X000761Y002768D03*
X002541Y002768D03*
D17*
X017336Y005548D03*
X017966Y005548D03*
D18*
X011815Y002048D03*
X010988Y002048D03*
D19*
X003651Y003064D03*
X003651Y005032D03*
D20*
X006732Y002048D03*
X008070Y002048D03*
M02*
