G75*
G70*
%OFA0B0*%
%FSLAX24Y24*%
%IPPOS*%
%LPD*%
%AMOC8*
5,1,8,0,0,1.08239X$1,22.5*
%
%ADD10C,0.0000*%
%ADD11R,0.0780X0.0780*%
%ADD12OC8,0.0780*%
%ADD13R,0.1040X0.2040*%
%ADD14C,0.1040*%
D10*
X000100Y000100D02*
X060100Y000100D01*
X060100Y034100D01*
X000100Y034100D01*
X000100Y000100D01*
D11*
X021100Y003600D03*
X021100Y011600D03*
X021100Y019600D03*
X021100Y027600D03*
D12*
X020100Y027600D03*
X019100Y027600D03*
X019100Y026600D03*
X020100Y026600D03*
X021100Y026600D03*
X020100Y019600D03*
X019100Y019600D03*
X019100Y018600D03*
X020100Y018600D03*
X021100Y018600D03*
X020100Y011600D03*
X019100Y011600D03*
X019100Y010600D03*
X020100Y010600D03*
X021100Y010600D03*
X020100Y003600D03*
X019100Y003600D03*
X019100Y002600D03*
X020100Y002600D03*
X021100Y002600D03*
D13*
X018608Y005128D03*
X014179Y005100D03*
X009647Y005108D03*
X009647Y013108D03*
X014179Y013100D03*
X018608Y013128D03*
X018608Y021128D03*
X014179Y021100D03*
X009647Y021108D03*
X009647Y029108D03*
X014179Y029100D03*
X018608Y029128D03*
D14*
X006600Y030084D03*
X006600Y028116D03*
X006600Y022084D03*
X006600Y020116D03*
X006600Y014084D03*
X006600Y012116D03*
X006600Y006084D03*
X006600Y004116D03*
M02*
