G75*
G70*
%OFA0B0*%
%FSLAX24Y24*%
%IPPOS*%
%LPD*%
%AMOC8*
5,1,8,0,0,1.08239X$1,22.5*
%
%ADD10C,0.0000*%
%ADD11R,0.0740X0.0740*%
%ADD12OC8,0.0740*%
%ADD13C,0.0700*%
%ADD14C,0.0740*%
%ADD15R,0.1000X0.2000*%
%ADD16C,0.0317*%
%ADD17C,0.0240*%
%ADD18C,0.0320*%
%ADD19C,0.0356*%
%ADD20C,0.0120*%
%ADD21C,0.0160*%
%ADD22C,0.0100*%
D10*
X000151Y000302D02*
X000151Y006298D01*
X039021Y006298D01*
X039021Y000302D01*
X000151Y000302D01*
X000151Y006602D02*
X000151Y012598D01*
X039021Y012598D01*
X039021Y006602D01*
X000151Y006602D01*
X000151Y012901D02*
X000151Y018897D01*
X039021Y018897D01*
X039021Y012901D01*
X000151Y012901D01*
X000151Y019200D02*
X000151Y025196D01*
X039021Y025196D01*
X039021Y019200D01*
X000151Y019200D01*
X000151Y025499D02*
X000151Y031495D01*
X039021Y031495D01*
X039021Y025499D01*
X000151Y025499D01*
D11*
X018151Y026999D03*
X018151Y020700D03*
X018151Y014401D03*
X018151Y008102D03*
X018151Y001802D03*
D12*
X018151Y000802D03*
X017151Y000802D03*
X016151Y000802D03*
X016151Y001802D03*
X017151Y001802D03*
X017151Y007102D03*
X016151Y007102D03*
X016151Y008102D03*
X017151Y008102D03*
X018151Y007102D03*
X018151Y013401D03*
X017151Y013401D03*
X016151Y013401D03*
X016151Y014401D03*
X017151Y014401D03*
X017151Y019700D03*
X016151Y019700D03*
X016151Y020700D03*
X017151Y020700D03*
X018151Y019700D03*
X018151Y025999D03*
X017151Y025999D03*
X016151Y025999D03*
X016151Y026999D03*
X017151Y026999D03*
D13*
X003651Y027220D03*
X003651Y029779D03*
X003651Y023480D03*
X003651Y020920D03*
X003651Y017180D03*
X003651Y014621D03*
X003651Y010881D03*
X003651Y008322D03*
X003651Y004582D03*
X003651Y002023D03*
D14*
X002541Y002022D03*
X000761Y002022D03*
X000761Y004582D03*
X002541Y004582D03*
X006151Y007102D03*
X006151Y008102D03*
X002541Y008322D03*
X000761Y008322D03*
X000761Y010882D03*
X002541Y010882D03*
X006151Y013401D03*
X006151Y014401D03*
X002541Y014621D03*
X000761Y014621D03*
X000761Y017181D03*
X002541Y017181D03*
X006151Y019700D03*
X006151Y020700D03*
X002541Y020920D03*
X000761Y020920D03*
X000761Y023480D03*
X002541Y023480D03*
X006151Y025999D03*
X006151Y026999D03*
X002541Y027219D03*
X000761Y027219D03*
X000761Y029779D03*
X002541Y029779D03*
X006151Y001802D03*
X006151Y000802D03*
D15*
X006698Y003310D03*
X011230Y003302D03*
X015659Y003330D03*
X011230Y009602D03*
X015659Y009629D03*
X015659Y015928D03*
X011230Y015901D03*
X006698Y015909D03*
X006698Y009609D03*
X006698Y022208D03*
X011230Y022200D03*
X015659Y022228D03*
X015659Y028527D03*
X011230Y028499D03*
X006698Y028507D03*
D16*
X006401Y029749D03*
X006401Y023450D03*
X006401Y017151D03*
X006401Y010852D03*
X006401Y004552D03*
D17*
X006698Y004255D02*
X006698Y003310D01*
X004651Y003802D02*
X004401Y003552D01*
X002651Y003552D01*
X002651Y009852D02*
X004401Y009852D01*
X004651Y010102D01*
X006698Y010554D02*
X006698Y009609D01*
X006698Y015909D02*
X006698Y016854D01*
X004651Y016401D02*
X004401Y016151D01*
X002651Y016151D01*
X006698Y022208D02*
X006698Y023153D01*
X004651Y022700D02*
X004401Y022450D01*
X002651Y022450D01*
X002651Y028749D02*
X004401Y028749D01*
X004651Y028999D01*
X006698Y029452D02*
X006698Y028507D01*
D18*
X007206Y027999D02*
X007651Y027999D01*
X006698Y029452D02*
X006401Y029749D01*
X006401Y023450D02*
X006698Y023153D01*
X007206Y021700D02*
X007651Y021700D01*
X006401Y017151D02*
X006698Y016854D01*
X007206Y015401D02*
X007651Y015401D01*
X006401Y010852D02*
X006698Y010554D01*
X007206Y009102D02*
X007651Y009102D01*
X006401Y004552D02*
X006698Y004255D01*
X007206Y002802D02*
X007651Y002802D01*
D19*
X007651Y002802D03*
X007651Y001802D03*
X010651Y001802D03*
X011651Y001802D03*
X014651Y001302D03*
X016651Y002802D03*
X017401Y002802D03*
X018651Y002802D03*
X018901Y001302D03*
X017401Y004302D03*
X016651Y005052D03*
X014151Y005302D03*
X014651Y007602D03*
X016651Y009102D03*
X017401Y009102D03*
X018651Y009102D03*
X018901Y007602D03*
X017401Y010602D03*
X016651Y011352D03*
X014151Y011602D03*
X014651Y013901D03*
X016651Y015401D03*
X017401Y015401D03*
X018651Y015401D03*
X017401Y016901D03*
X016651Y017651D03*
X014151Y017901D03*
X011651Y017401D03*
X010651Y017401D03*
X007651Y015401D03*
X007651Y014401D03*
X010651Y014401D03*
X011651Y014401D03*
X011651Y011102D03*
X010651Y011102D03*
X007651Y009102D03*
X007651Y008102D03*
X010651Y008102D03*
X011651Y008102D03*
X011651Y004802D03*
X010651Y004802D03*
X004651Y003802D03*
X002651Y003552D03*
X002651Y009852D03*
X004651Y010102D03*
X002651Y016151D03*
X004651Y016401D03*
X007651Y020700D03*
X007651Y021700D03*
X004651Y022700D03*
X002651Y022450D03*
X007651Y026999D03*
X007651Y027999D03*
X004651Y028999D03*
X002651Y028749D03*
X010651Y029999D03*
X011651Y029999D03*
X014151Y030499D03*
X016651Y030249D03*
X017401Y029499D03*
X017401Y027999D03*
X016651Y027999D03*
X018651Y027999D03*
X018901Y026499D03*
X016651Y023950D03*
X017401Y023200D03*
X017401Y021700D03*
X016651Y021700D03*
X018651Y021700D03*
X018901Y020200D03*
X014651Y020200D03*
X011651Y020700D03*
X010651Y020700D03*
X010651Y023700D03*
X011651Y023700D03*
X014151Y024200D03*
X014651Y026499D03*
X011651Y026999D03*
X010651Y026999D03*
X018901Y013901D03*
D20*
X015651Y013901D01*
X015651Y020200D02*
X018901Y020200D01*
X018901Y026499D02*
X015651Y026499D01*
X015651Y007602D02*
X018901Y007602D01*
X018901Y001302D02*
X015651Y001302D01*
D21*
X015151Y001802D01*
X011651Y001802D01*
X014651Y001302D02*
X008151Y001302D01*
X007651Y001802D01*
X007206Y002802D02*
X006698Y003310D01*
X008151Y007602D02*
X007651Y008102D01*
X008151Y007602D02*
X014651Y007602D01*
X015151Y008102D02*
X011651Y008102D01*
X015151Y008102D02*
X015651Y007602D01*
X016651Y009102D02*
X016651Y011352D01*
X017401Y010602D02*
X017401Y009102D01*
X016651Y005052D02*
X016651Y002802D01*
X017401Y002802D02*
X017401Y004302D01*
X007206Y009102D02*
X006698Y009609D01*
X008151Y013901D02*
X007651Y014401D01*
X008151Y013901D02*
X014651Y013901D01*
X015151Y014401D02*
X011651Y014401D01*
X015151Y014401D02*
X015651Y013901D01*
X016651Y015401D02*
X016651Y017651D01*
X017401Y016901D02*
X017401Y015401D01*
X015651Y020200D02*
X015151Y020700D01*
X011651Y020700D01*
X014651Y020200D02*
X008151Y020200D01*
X007651Y020700D01*
X007206Y021700D02*
X006698Y022208D01*
X008151Y026499D02*
X007651Y026999D01*
X008151Y026499D02*
X014651Y026499D01*
X015151Y026999D02*
X011651Y026999D01*
X015151Y026999D02*
X015651Y026499D01*
X016651Y027999D02*
X016651Y030249D01*
X017401Y029499D02*
X017401Y027999D01*
X016651Y023950D02*
X016651Y021700D01*
X017401Y021700D02*
X017401Y023200D01*
X007206Y027999D02*
X006698Y028507D01*
X006698Y015909D02*
X007206Y015401D01*
D22*
X007348Y015711D02*
X007348Y016971D01*
X007261Y017059D01*
X006932Y017059D01*
X006577Y017414D01*
X006463Y017461D01*
X006339Y017461D01*
X006226Y017414D01*
X006138Y017326D01*
X006091Y017212D01*
X006091Y017089D01*
X006113Y017036D01*
X006048Y016971D01*
X006048Y014921D01*
X005857Y014842D01*
X005710Y014695D01*
X005631Y014504D01*
X005631Y014297D01*
X005710Y014106D01*
X005857Y013960D01*
X006000Y013901D01*
X005857Y013842D01*
X005710Y013695D01*
X005631Y013504D01*
X005631Y013297D01*
X005710Y013106D01*
X005766Y013051D01*
X000301Y013051D01*
X000301Y014378D01*
X000316Y014348D01*
X000365Y014282D01*
X000422Y014224D01*
X000489Y014176D01*
X000562Y014139D01*
X000639Y014114D01*
X000711Y014102D01*
X000711Y014571D01*
X000811Y014571D01*
X000811Y014671D01*
X000711Y014671D01*
X000711Y015139D01*
X000639Y015128D01*
X000562Y015103D01*
X000489Y015066D01*
X000422Y015017D01*
X000365Y014960D01*
X000316Y014893D01*
X000301Y014863D01*
X000301Y016938D01*
X000316Y016908D01*
X000365Y016842D01*
X000422Y016784D01*
X000489Y016736D01*
X000562Y016699D01*
X000639Y016674D01*
X000711Y016662D01*
X000711Y017131D01*
X000811Y017131D01*
X000811Y017231D01*
X000711Y017231D01*
X000711Y017699D01*
X000639Y017688D01*
X000562Y017663D01*
X000489Y017626D01*
X000422Y017577D01*
X000365Y017520D01*
X000316Y017453D01*
X000301Y017423D01*
X000301Y018747D01*
X038871Y018747D01*
X038871Y013051D01*
X018536Y013051D01*
X018671Y013185D01*
X018671Y013616D01*
X018596Y013691D01*
X018647Y013691D01*
X018715Y013623D01*
X018836Y013573D01*
X018966Y013573D01*
X019087Y013623D01*
X019179Y013715D01*
X019229Y013835D01*
X019229Y013966D01*
X019179Y014087D01*
X019087Y014179D01*
X018966Y014229D01*
X018836Y014229D01*
X018715Y014179D01*
X018671Y014135D01*
X018671Y014833D01*
X018583Y014921D01*
X017719Y014921D01*
X017631Y014833D01*
X017631Y014656D01*
X017367Y014921D01*
X016936Y014921D01*
X016651Y014636D01*
X016367Y014921D01*
X016309Y014921D01*
X016309Y016990D01*
X016221Y017078D01*
X015097Y017078D01*
X015009Y016990D01*
X015009Y014866D01*
X015097Y014778D01*
X015793Y014778D01*
X015631Y014616D01*
X015631Y014246D01*
X015381Y014496D01*
X015246Y014631D01*
X011885Y014631D01*
X011837Y014679D01*
X011716Y014729D01*
X011586Y014729D01*
X011465Y014679D01*
X011373Y014587D01*
X011323Y014466D01*
X011323Y014335D01*
X011373Y014215D01*
X011457Y014131D01*
X008246Y014131D01*
X007979Y014398D01*
X007979Y014466D01*
X007929Y014587D01*
X007837Y014679D01*
X007716Y014729D01*
X007586Y014729D01*
X007465Y014679D01*
X007373Y014587D01*
X007323Y014466D01*
X007323Y014335D01*
X007373Y014215D01*
X007465Y014123D01*
X007586Y014073D01*
X007654Y014073D01*
X008056Y013671D01*
X008246Y013671D01*
X014417Y013671D01*
X014465Y013623D01*
X014586Y013573D01*
X014716Y013573D01*
X014837Y013623D01*
X014929Y013715D01*
X014979Y013835D01*
X014979Y013966D01*
X014929Y014087D01*
X014845Y014171D01*
X015056Y014171D01*
X015556Y013671D01*
X015686Y013671D01*
X015631Y013616D01*
X015631Y013451D01*
X016101Y013451D01*
X016101Y013351D01*
X015631Y013351D01*
X015631Y013185D01*
X015766Y013051D01*
X006536Y013051D01*
X006592Y013106D01*
X006671Y013297D01*
X006671Y013504D01*
X006592Y013695D01*
X006446Y013842D01*
X006303Y013901D01*
X006446Y013960D01*
X006592Y014106D01*
X006671Y014297D01*
X006671Y014504D01*
X006592Y014695D01*
X006529Y014759D01*
X007261Y014759D01*
X007348Y014846D01*
X007348Y015091D01*
X007542Y015091D01*
X007586Y015073D01*
X007716Y015073D01*
X007837Y015123D01*
X007929Y015215D01*
X007979Y015335D01*
X007979Y015466D01*
X007929Y015587D01*
X007837Y015679D01*
X007716Y015729D01*
X007586Y015729D01*
X007542Y015711D01*
X007348Y015711D01*
X007348Y015774D02*
X010580Y015774D01*
X010580Y015851D02*
X010580Y014881D01*
X010590Y014843D01*
X010610Y014809D01*
X010638Y014781D01*
X010672Y014761D01*
X010710Y014751D01*
X011180Y014751D01*
X011180Y015851D01*
X010580Y015851D01*
X010580Y015951D02*
X011180Y015951D01*
X011180Y017051D01*
X010710Y017051D01*
X010672Y017041D01*
X010638Y017021D01*
X010610Y016993D01*
X010590Y016959D01*
X010580Y016921D01*
X010580Y015951D01*
X010580Y015971D02*
X007348Y015971D01*
X007348Y016069D02*
X010580Y016069D01*
X010580Y016168D02*
X007348Y016168D01*
X007348Y016266D02*
X010580Y016266D01*
X010580Y016365D02*
X007348Y016365D01*
X007348Y016463D02*
X010580Y016463D01*
X010580Y016562D02*
X007348Y016562D01*
X007348Y016661D02*
X010580Y016661D01*
X010580Y016759D02*
X007348Y016759D01*
X007348Y016858D02*
X010580Y016858D01*
X010590Y016956D02*
X007348Y016956D01*
X007264Y017055D02*
X015073Y017055D01*
X015009Y016956D02*
X011870Y016956D01*
X011870Y016959D02*
X011850Y016993D01*
X011822Y017021D01*
X011788Y017041D01*
X011750Y017051D01*
X011280Y017051D01*
X011280Y015951D01*
X011180Y015951D01*
X011180Y015851D01*
X011280Y015851D01*
X011280Y015951D01*
X011880Y015951D01*
X011880Y016921D01*
X011870Y016959D01*
X011880Y016858D02*
X015009Y016858D01*
X015009Y016759D02*
X011880Y016759D01*
X011880Y016661D02*
X015009Y016661D01*
X015009Y016562D02*
X011880Y016562D01*
X011880Y016463D02*
X015009Y016463D01*
X015009Y016365D02*
X011880Y016365D01*
X011880Y016266D02*
X015009Y016266D01*
X015009Y016168D02*
X011880Y016168D01*
X011880Y016069D02*
X015009Y016069D01*
X015009Y015971D02*
X011880Y015971D01*
X011880Y015851D02*
X011880Y014881D01*
X011870Y014843D01*
X011850Y014809D01*
X011822Y014781D01*
X011788Y014761D01*
X011750Y014751D01*
X011280Y014751D01*
X011280Y015851D01*
X011880Y015851D01*
X011880Y015774D02*
X015009Y015774D01*
X015009Y015872D02*
X011280Y015872D01*
X011280Y015774D02*
X011180Y015774D01*
X011180Y015872D02*
X007348Y015872D01*
X007841Y015675D02*
X010580Y015675D01*
X010580Y015577D02*
X007933Y015577D01*
X007974Y015478D02*
X010580Y015478D01*
X010580Y015379D02*
X007979Y015379D01*
X007957Y015281D02*
X010580Y015281D01*
X010580Y015182D02*
X007897Y015182D01*
X007743Y015084D02*
X010580Y015084D01*
X010580Y014985D02*
X007348Y014985D01*
X007348Y014887D02*
X010580Y014887D01*
X010630Y014788D02*
X007290Y014788D01*
X007378Y014591D02*
X006635Y014591D01*
X006671Y014493D02*
X007334Y014493D01*
X007323Y014394D02*
X006671Y014394D01*
X006670Y014296D02*
X007340Y014296D01*
X007391Y014197D02*
X006630Y014197D01*
X006584Y014098D02*
X007524Y014098D01*
X007727Y014000D02*
X006486Y014000D01*
X006484Y013803D02*
X007924Y013803D01*
X007825Y013901D02*
X006304Y013901D01*
X005998Y013901D02*
X000301Y013901D01*
X000301Y013803D02*
X005818Y013803D01*
X005719Y013704D02*
X000301Y013704D01*
X000301Y013606D02*
X005673Y013606D01*
X005632Y013507D02*
X000301Y013507D01*
X000301Y013409D02*
X005631Y013409D01*
X005631Y013310D02*
X000301Y013310D01*
X000301Y013212D02*
X005667Y013212D01*
X005708Y013113D02*
X000301Y013113D01*
X000301Y012448D02*
X038871Y012448D01*
X038871Y006752D01*
X018536Y006752D01*
X018671Y006886D01*
X018671Y007317D01*
X018596Y007392D01*
X018647Y007392D01*
X018715Y007323D01*
X018836Y007273D01*
X018966Y007273D01*
X019087Y007323D01*
X019179Y007416D01*
X019229Y007536D01*
X019229Y007667D01*
X019179Y007787D01*
X019087Y007880D01*
X018966Y007930D01*
X018836Y007930D01*
X018715Y007880D01*
X018671Y007835D01*
X018671Y008534D01*
X018583Y008622D01*
X017719Y008622D01*
X017631Y008534D01*
X017631Y008357D01*
X017367Y008622D01*
X016936Y008622D01*
X016651Y008337D01*
X016367Y008622D01*
X016309Y008622D01*
X016309Y010691D01*
X016221Y010779D01*
X015097Y010779D01*
X015009Y010691D01*
X015009Y008567D01*
X015097Y008479D01*
X015793Y008479D01*
X015631Y008317D01*
X015631Y007947D01*
X015381Y008197D01*
X015246Y008332D01*
X011885Y008332D01*
X011837Y008380D01*
X011716Y008430D01*
X011586Y008430D01*
X011465Y008380D01*
X011373Y008287D01*
X011323Y008167D01*
X011323Y008036D01*
X011373Y007916D01*
X011457Y007832D01*
X008246Y007832D01*
X007979Y008099D01*
X007979Y008167D01*
X007929Y008287D01*
X007837Y008380D01*
X007716Y008430D01*
X007586Y008430D01*
X007465Y008380D01*
X007373Y008287D01*
X007323Y008167D01*
X007323Y008036D01*
X007373Y007916D01*
X007465Y007823D01*
X007586Y007773D01*
X007654Y007773D01*
X008056Y007372D01*
X008246Y007372D01*
X014417Y007372D01*
X014465Y007323D01*
X014586Y007273D01*
X014716Y007273D01*
X014837Y007323D01*
X014929Y007416D01*
X014979Y007536D01*
X014979Y007667D01*
X014929Y007787D01*
X014845Y007872D01*
X015056Y007872D01*
X015556Y007372D01*
X015686Y007372D01*
X015631Y007317D01*
X015631Y007151D01*
X016101Y007151D01*
X016101Y007052D01*
X015631Y007052D01*
X015631Y006886D01*
X015766Y006752D01*
X006536Y006752D01*
X006592Y006807D01*
X006671Y006998D01*
X006671Y007205D01*
X006592Y007396D01*
X006446Y007542D01*
X006303Y007602D01*
X006446Y007661D01*
X006592Y007807D01*
X006671Y007998D01*
X006671Y008205D01*
X006592Y008396D01*
X006529Y008459D01*
X007261Y008459D01*
X007348Y008547D01*
X007348Y008792D01*
X007542Y008792D01*
X007586Y008773D01*
X007716Y008773D01*
X007837Y008823D01*
X007929Y008916D01*
X007979Y009036D01*
X007979Y009167D01*
X007929Y009287D01*
X007837Y009380D01*
X007716Y009430D01*
X007586Y009430D01*
X007542Y009412D01*
X007348Y009412D01*
X007348Y010672D01*
X007261Y010759D01*
X006932Y010759D01*
X006577Y011114D01*
X006463Y011162D01*
X006339Y011162D01*
X006226Y011114D01*
X006138Y011027D01*
X006091Y010913D01*
X006091Y010790D01*
X006113Y010736D01*
X006048Y010672D01*
X006048Y008622D01*
X005857Y008542D01*
X005710Y008396D01*
X005631Y008205D01*
X005631Y007998D01*
X005710Y007807D01*
X005857Y007661D01*
X006000Y007602D01*
X005857Y007542D01*
X005710Y007396D01*
X005631Y007205D01*
X005631Y006998D01*
X005710Y006807D01*
X005766Y006752D01*
X000301Y006752D01*
X000301Y008079D01*
X000316Y008049D01*
X000365Y007983D01*
X000422Y007925D01*
X000489Y007877D01*
X000562Y007840D01*
X000639Y007814D01*
X000711Y007803D01*
X000711Y008271D01*
X000811Y008271D01*
X000811Y007803D01*
X000883Y007814D01*
X000961Y007840D01*
X001034Y007877D01*
X001100Y007925D01*
X001158Y007983D01*
X001206Y008049D01*
X001243Y008122D01*
X001268Y008200D01*
X001280Y008272D01*
X000811Y008272D01*
X000811Y008371D01*
X001280Y008371D01*
X001268Y008443D01*
X001243Y008521D01*
X001206Y008594D01*
X001158Y008660D01*
X001100Y008718D01*
X001034Y008766D01*
X000961Y008803D01*
X000883Y008829D01*
X000811Y008840D01*
X000811Y008372D01*
X000711Y008372D01*
X000711Y008840D01*
X000639Y008829D01*
X000562Y008803D01*
X000489Y008766D01*
X000422Y008718D01*
X000365Y008660D01*
X000316Y008594D01*
X000301Y008564D01*
X000301Y010639D01*
X000316Y010609D01*
X000365Y010543D01*
X000422Y010485D01*
X000489Y010437D01*
X000562Y010400D01*
X000639Y010374D01*
X000711Y010363D01*
X000711Y010831D01*
X000811Y010831D01*
X000811Y010363D01*
X000883Y010374D01*
X000961Y010400D01*
X001034Y010437D01*
X001100Y010485D01*
X001158Y010543D01*
X001206Y010609D01*
X001243Y010682D01*
X001268Y010760D01*
X001280Y010832D01*
X000811Y010832D01*
X000811Y010931D01*
X001280Y010931D01*
X001268Y011003D01*
X001243Y011081D01*
X001206Y011154D01*
X001158Y011220D01*
X001100Y011278D01*
X001034Y011326D01*
X000961Y011363D01*
X000883Y011389D01*
X000811Y011400D01*
X000811Y010932D01*
X000711Y010932D01*
X000711Y011400D01*
X000639Y011389D01*
X000562Y011363D01*
X000489Y011326D01*
X000422Y011278D01*
X000365Y011220D01*
X000316Y011154D01*
X000301Y011124D01*
X000301Y012448D01*
X000301Y012423D02*
X038871Y012423D01*
X038871Y012325D02*
X000301Y012325D01*
X000301Y012226D02*
X038871Y012226D01*
X038871Y012128D02*
X000301Y012128D01*
X000301Y012029D02*
X038871Y012029D01*
X038871Y011930D02*
X000301Y011930D01*
X000301Y011832D02*
X038871Y011832D01*
X038871Y011733D02*
X000301Y011733D01*
X000301Y011635D02*
X016478Y011635D01*
X016465Y011630D02*
X016373Y011537D01*
X016323Y011417D01*
X016323Y011286D01*
X016373Y011166D01*
X016421Y011118D01*
X016421Y009336D01*
X016373Y009287D01*
X016323Y009167D01*
X016323Y009036D01*
X016373Y008916D01*
X016465Y008823D01*
X016586Y008773D01*
X016716Y008773D01*
X016837Y008823D01*
X016929Y008916D01*
X016979Y009036D01*
X016979Y009167D01*
X016929Y009287D01*
X016881Y009336D01*
X016881Y011118D01*
X016929Y011166D01*
X016979Y011286D01*
X016979Y011417D01*
X016929Y011537D01*
X016837Y011630D01*
X016716Y011680D01*
X016586Y011680D01*
X016465Y011630D01*
X016373Y011536D02*
X000301Y011536D01*
X000301Y011438D02*
X016332Y011438D01*
X016323Y011339D02*
X003852Y011339D01*
X003934Y011305D02*
X003751Y011381D01*
X003552Y011381D01*
X003368Y011305D01*
X003227Y011164D01*
X003151Y010981D01*
X003151Y010782D01*
X003227Y010598D01*
X003368Y010457D01*
X003552Y010381D01*
X003751Y010381D01*
X003934Y010457D01*
X004075Y010598D01*
X004151Y010782D01*
X004151Y010981D01*
X004075Y011164D01*
X003934Y011305D01*
X003999Y011241D02*
X016342Y011241D01*
X016397Y011142D02*
X006510Y011142D01*
X006648Y011044D02*
X016421Y011044D01*
X016421Y010945D02*
X006746Y010945D01*
X006845Y010846D02*
X016421Y010846D01*
X016421Y010748D02*
X016252Y010748D01*
X016309Y010649D02*
X016421Y010649D01*
X016421Y010551D02*
X016309Y010551D01*
X016309Y010452D02*
X016421Y010452D01*
X016421Y010354D02*
X016309Y010354D01*
X016309Y010255D02*
X016421Y010255D01*
X016421Y010157D02*
X016309Y010157D01*
X016309Y010058D02*
X016421Y010058D01*
X016421Y009960D02*
X016309Y009960D01*
X016309Y009861D02*
X016421Y009861D01*
X016421Y009763D02*
X016309Y009763D01*
X016309Y009664D02*
X016421Y009664D01*
X016421Y009565D02*
X016309Y009565D01*
X016309Y009467D02*
X016421Y009467D01*
X016421Y009368D02*
X016309Y009368D01*
X016309Y009270D02*
X016366Y009270D01*
X016325Y009171D02*
X016309Y009171D01*
X016309Y009073D02*
X016323Y009073D01*
X016309Y008974D02*
X016349Y008974D01*
X016309Y008876D02*
X016413Y008876D01*
X016309Y008777D02*
X016577Y008777D01*
X016725Y008777D02*
X017327Y008777D01*
X017336Y008773D02*
X017466Y008773D01*
X017587Y008823D01*
X017679Y008916D01*
X017729Y009036D01*
X017729Y009167D01*
X017679Y009287D01*
X017631Y009336D01*
X017631Y010368D01*
X017679Y010416D01*
X017729Y010536D01*
X017729Y010667D01*
X017679Y010787D01*
X017587Y010880D01*
X017466Y010930D01*
X017336Y010930D01*
X017215Y010880D01*
X017123Y010787D01*
X017073Y010667D01*
X017073Y010536D01*
X017123Y010416D01*
X017171Y010368D01*
X017171Y009336D01*
X017123Y009287D01*
X017073Y009167D01*
X017073Y009036D01*
X017123Y008916D01*
X017215Y008823D01*
X017336Y008773D01*
X017475Y008777D02*
X038871Y008777D01*
X038871Y008679D02*
X016309Y008679D01*
X016408Y008580D02*
X016894Y008580D01*
X016796Y008481D02*
X016507Y008481D01*
X016605Y008383D02*
X016697Y008383D01*
X016889Y008876D02*
X017163Y008876D01*
X017099Y008974D02*
X016954Y008974D01*
X016979Y009073D02*
X017073Y009073D01*
X017075Y009171D02*
X016977Y009171D01*
X016937Y009270D02*
X017116Y009270D01*
X017171Y009368D02*
X016881Y009368D01*
X016881Y009467D02*
X017171Y009467D01*
X017171Y009565D02*
X016881Y009565D01*
X016881Y009664D02*
X017171Y009664D01*
X017171Y009763D02*
X016881Y009763D01*
X016881Y009861D02*
X017171Y009861D01*
X017171Y009960D02*
X016881Y009960D01*
X016881Y010058D02*
X017171Y010058D01*
X017171Y010157D02*
X016881Y010157D01*
X016881Y010255D02*
X017171Y010255D01*
X017171Y010354D02*
X016881Y010354D01*
X016881Y010452D02*
X017108Y010452D01*
X017073Y010551D02*
X016881Y010551D01*
X016881Y010649D02*
X017073Y010649D01*
X017107Y010748D02*
X016881Y010748D01*
X016881Y010846D02*
X017182Y010846D01*
X016881Y010945D02*
X038871Y010945D01*
X038871Y010846D02*
X017620Y010846D01*
X017696Y010748D02*
X038871Y010748D01*
X038871Y010649D02*
X017729Y010649D01*
X017729Y010551D02*
X038871Y010551D01*
X038871Y010452D02*
X017694Y010452D01*
X017631Y010354D02*
X038871Y010354D01*
X038871Y010255D02*
X017631Y010255D01*
X017631Y010157D02*
X038871Y010157D01*
X038871Y010058D02*
X017631Y010058D01*
X017631Y009960D02*
X038871Y009960D01*
X038871Y009861D02*
X017631Y009861D01*
X017631Y009763D02*
X038871Y009763D01*
X038871Y009664D02*
X017631Y009664D01*
X017631Y009565D02*
X038871Y009565D01*
X038871Y009467D02*
X017631Y009467D01*
X017631Y009368D02*
X038871Y009368D01*
X038871Y009270D02*
X017687Y009270D01*
X017727Y009171D02*
X038871Y009171D01*
X038871Y009073D02*
X017729Y009073D01*
X017704Y008974D02*
X038871Y008974D01*
X038871Y008876D02*
X017639Y008876D01*
X017677Y008580D02*
X017408Y008580D01*
X017507Y008481D02*
X017631Y008481D01*
X017631Y008383D02*
X017605Y008383D01*
X018625Y008580D02*
X038871Y008580D01*
X038871Y008481D02*
X018671Y008481D01*
X018671Y008383D02*
X038871Y008383D01*
X038871Y008284D02*
X018671Y008284D01*
X018671Y008186D02*
X038871Y008186D01*
X038871Y008087D02*
X018671Y008087D01*
X018671Y007989D02*
X038871Y007989D01*
X038871Y007890D02*
X019062Y007890D01*
X019175Y007792D02*
X038871Y007792D01*
X038871Y007693D02*
X019218Y007693D01*
X019229Y007595D02*
X038871Y007595D01*
X038871Y007496D02*
X019213Y007496D01*
X019161Y007397D02*
X038871Y007397D01*
X038871Y007299D02*
X019028Y007299D01*
X018774Y007299D02*
X018671Y007299D01*
X018671Y007200D02*
X038871Y007200D01*
X038871Y007102D02*
X018671Y007102D01*
X018671Y007003D02*
X038871Y007003D01*
X038871Y006905D02*
X018671Y006905D01*
X018591Y006806D02*
X038871Y006806D01*
X038871Y006148D02*
X038871Y000452D01*
X018536Y000452D01*
X018671Y000587D01*
X018671Y001018D01*
X018596Y001092D01*
X018647Y001092D01*
X018715Y001024D01*
X018836Y000974D01*
X018966Y000974D01*
X019087Y001024D01*
X019179Y001116D01*
X019229Y001237D01*
X019229Y001368D01*
X019179Y001488D01*
X019087Y001580D01*
X018966Y001630D01*
X018836Y001630D01*
X018715Y001580D01*
X018671Y001536D01*
X018671Y002234D01*
X018583Y002322D01*
X017719Y002322D01*
X017631Y002234D01*
X017631Y002058D01*
X017367Y002322D01*
X016936Y002322D01*
X016651Y002038D01*
X016367Y002322D01*
X016309Y002322D01*
X016309Y004392D01*
X016221Y004480D01*
X015097Y004480D01*
X015009Y004392D01*
X015009Y002268D01*
X015097Y002180D01*
X015793Y002180D01*
X015631Y002018D01*
X015631Y001648D01*
X015381Y001898D01*
X015246Y002032D01*
X011885Y002032D01*
X011837Y002080D01*
X011716Y002130D01*
X011586Y002130D01*
X011465Y002080D01*
X011373Y001988D01*
X011323Y001868D01*
X011323Y001737D01*
X011373Y001616D01*
X011457Y001532D01*
X008246Y001532D01*
X007979Y001799D01*
X007979Y001868D01*
X007929Y001988D01*
X007837Y002080D01*
X007716Y002130D01*
X007586Y002130D01*
X007465Y002080D01*
X007373Y001988D01*
X007323Y001868D01*
X007323Y001737D01*
X007373Y001616D01*
X007465Y001524D01*
X007586Y001474D01*
X007654Y001474D01*
X008056Y001072D01*
X008246Y001072D01*
X014417Y001072D01*
X014465Y001024D01*
X014586Y000974D01*
X014716Y000974D01*
X014837Y001024D01*
X014929Y001116D01*
X014979Y001237D01*
X014979Y001368D01*
X014929Y001488D01*
X014845Y001572D01*
X015056Y001572D01*
X015556Y001072D01*
X015686Y001072D01*
X015631Y001018D01*
X015631Y000852D01*
X016101Y000852D01*
X016101Y000752D01*
X015631Y000752D01*
X015631Y000587D01*
X015766Y000452D01*
X006536Y000452D01*
X006592Y000508D01*
X006671Y000699D01*
X006671Y000906D01*
X006592Y001097D01*
X006446Y001243D01*
X006303Y001302D01*
X006446Y001362D01*
X006592Y001508D01*
X006671Y001699D01*
X006671Y001906D01*
X006592Y002097D01*
X006529Y002160D01*
X007261Y002160D01*
X007348Y002248D01*
X007348Y002492D01*
X007542Y002492D01*
X007586Y002474D01*
X007716Y002474D01*
X007837Y002524D01*
X007929Y002616D01*
X007979Y002737D01*
X007979Y002868D01*
X007929Y002988D01*
X007837Y003080D01*
X007716Y003130D01*
X007586Y003130D01*
X007542Y003112D01*
X007348Y003112D01*
X007348Y004372D01*
X007261Y004460D01*
X006932Y004460D01*
X006577Y004815D01*
X006463Y004862D01*
X006339Y004862D01*
X006226Y004815D01*
X006138Y004728D01*
X006091Y004614D01*
X006091Y004491D01*
X006113Y004437D01*
X006048Y004372D01*
X006048Y002322D01*
X005857Y002243D01*
X005710Y002097D01*
X005631Y001906D01*
X005631Y001699D01*
X005710Y001508D01*
X005857Y001362D01*
X006000Y001302D01*
X005857Y001243D01*
X005710Y001097D01*
X005631Y000906D01*
X005631Y000699D01*
X005710Y000508D01*
X005766Y000452D01*
X000301Y000452D01*
X000301Y001780D01*
X000316Y001750D01*
X000365Y001684D01*
X000422Y001626D01*
X000489Y001578D01*
X000562Y001540D01*
X000639Y001515D01*
X000711Y001504D01*
X000711Y001972D01*
X000811Y001972D01*
X000811Y001504D01*
X000883Y001515D01*
X000961Y001540D01*
X001034Y001578D01*
X001100Y001626D01*
X001158Y001684D01*
X001206Y001750D01*
X001243Y001823D01*
X001268Y001901D01*
X001280Y001972D01*
X000811Y001972D01*
X000811Y002072D01*
X001280Y002072D01*
X001268Y002144D01*
X001243Y002222D01*
X001206Y002295D01*
X001158Y002361D01*
X001100Y002419D01*
X001034Y002467D01*
X000961Y002504D01*
X000883Y002530D01*
X000811Y002541D01*
X000811Y002073D01*
X000711Y002073D01*
X000711Y002541D01*
X000639Y002530D01*
X000562Y002504D01*
X000489Y002467D01*
X000422Y002419D01*
X000365Y002361D01*
X000316Y002295D01*
X000301Y002265D01*
X000301Y004340D01*
X000316Y004310D01*
X000365Y004244D01*
X000422Y004186D01*
X000489Y004138D01*
X000562Y004100D01*
X000639Y004075D01*
X000711Y004064D01*
X000711Y004532D01*
X000811Y004532D01*
X000811Y004064D01*
X000883Y004075D01*
X000961Y004100D01*
X001034Y004138D01*
X001100Y004186D01*
X001158Y004244D01*
X002144Y004244D01*
X002100Y004288D02*
X002247Y004142D01*
X002438Y004062D01*
X002645Y004062D01*
X002836Y004142D01*
X002982Y004288D01*
X003061Y004479D01*
X003061Y004686D01*
X002982Y004877D01*
X002836Y005023D01*
X002645Y005102D01*
X002438Y005102D01*
X002247Y005023D01*
X002100Y004877D01*
X002021Y004686D01*
X002021Y004479D01*
X002100Y004288D01*
X002078Y004343D02*
X001223Y004343D01*
X001206Y004310D02*
X001243Y004383D01*
X001268Y004461D01*
X001280Y004532D01*
X000811Y004532D01*
X000811Y004632D01*
X001280Y004632D01*
X001268Y004704D01*
X001243Y004782D01*
X001206Y004855D01*
X001158Y004921D01*
X001100Y004979D01*
X001034Y005027D01*
X000961Y005064D01*
X000883Y005090D01*
X000811Y005101D01*
X000811Y004633D01*
X000711Y004633D01*
X000711Y005101D01*
X000639Y005090D01*
X000562Y005064D01*
X000489Y005027D01*
X000422Y004979D01*
X000365Y004921D01*
X000316Y004855D01*
X000301Y004825D01*
X000301Y006148D01*
X038871Y006148D01*
X038871Y006116D02*
X000301Y006116D01*
X000301Y006018D02*
X038871Y006018D01*
X038871Y005919D02*
X000301Y005919D01*
X000301Y005821D02*
X038871Y005821D01*
X038871Y005722D02*
X000301Y005722D01*
X000301Y005624D02*
X038871Y005624D01*
X038871Y005525D02*
X000301Y005525D01*
X000301Y005427D02*
X038871Y005427D01*
X038871Y005328D02*
X016839Y005328D01*
X016837Y005330D02*
X016716Y005380D01*
X016586Y005380D01*
X016465Y005330D01*
X016373Y005238D01*
X016323Y005118D01*
X016323Y004987D01*
X016373Y004866D01*
X016421Y004818D01*
X016421Y003036D01*
X016373Y002988D01*
X016323Y002868D01*
X016323Y002737D01*
X016373Y002616D01*
X016465Y002524D01*
X016586Y002474D01*
X016716Y002474D01*
X016837Y002524D01*
X016929Y002616D01*
X016979Y002737D01*
X016979Y002868D01*
X016929Y002988D01*
X016881Y003036D01*
X016881Y004818D01*
X016929Y004866D01*
X016979Y004987D01*
X016979Y005118D01*
X016929Y005238D01*
X016837Y005330D01*
X016933Y005230D02*
X038871Y005230D01*
X038871Y005131D02*
X016974Y005131D01*
X016979Y005032D02*
X038871Y005032D01*
X038871Y004934D02*
X016957Y004934D01*
X016898Y004835D02*
X038871Y004835D01*
X038871Y004737D02*
X016881Y004737D01*
X016881Y004638D02*
X038871Y004638D01*
X038871Y004540D02*
X017628Y004540D01*
X017587Y004580D02*
X017466Y004630D01*
X017336Y004630D01*
X017215Y004580D01*
X017123Y004488D01*
X017073Y004368D01*
X017073Y004237D01*
X017123Y004116D01*
X017171Y004068D01*
X017171Y003036D01*
X017123Y002988D01*
X017073Y002868D01*
X017073Y002737D01*
X017123Y002616D01*
X017215Y002524D01*
X017336Y002474D01*
X017466Y002474D01*
X017587Y002524D01*
X017679Y002616D01*
X017729Y002737D01*
X017729Y002868D01*
X017679Y002988D01*
X017631Y003036D01*
X017631Y004068D01*
X017679Y004116D01*
X017729Y004237D01*
X017729Y004368D01*
X017679Y004488D01*
X017587Y004580D01*
X017699Y004441D02*
X038871Y004441D01*
X038871Y004343D02*
X017729Y004343D01*
X017729Y004244D02*
X038871Y004244D01*
X038871Y004146D02*
X017691Y004146D01*
X017631Y004047D02*
X038871Y004047D01*
X038871Y003948D02*
X017631Y003948D01*
X017631Y003850D02*
X038871Y003850D01*
X038871Y003751D02*
X017631Y003751D01*
X017631Y003653D02*
X038871Y003653D01*
X038871Y003554D02*
X017631Y003554D01*
X017631Y003456D02*
X038871Y003456D01*
X038871Y003357D02*
X017631Y003357D01*
X017631Y003259D02*
X038871Y003259D01*
X038871Y003160D02*
X017631Y003160D01*
X017631Y003062D02*
X038871Y003062D01*
X038871Y002963D02*
X017690Y002963D01*
X017729Y002864D02*
X038871Y002864D01*
X038871Y002766D02*
X017729Y002766D01*
X017700Y002667D02*
X038871Y002667D01*
X038871Y002569D02*
X017632Y002569D01*
X017670Y002273D02*
X017416Y002273D01*
X017514Y002175D02*
X017631Y002175D01*
X017631Y002076D02*
X017613Y002076D01*
X017171Y002569D02*
X016882Y002569D01*
X016950Y002667D02*
X017102Y002667D01*
X017073Y002766D02*
X016979Y002766D01*
X016979Y002864D02*
X017073Y002864D01*
X017113Y002963D02*
X016940Y002963D01*
X016881Y003062D02*
X017171Y003062D01*
X017171Y003160D02*
X016881Y003160D01*
X016881Y003259D02*
X017171Y003259D01*
X017171Y003357D02*
X016881Y003357D01*
X016881Y003456D02*
X017171Y003456D01*
X017171Y003554D02*
X016881Y003554D01*
X016881Y003653D02*
X017171Y003653D01*
X017171Y003751D02*
X016881Y003751D01*
X016881Y003850D02*
X017171Y003850D01*
X017171Y003948D02*
X016881Y003948D01*
X016881Y004047D02*
X017171Y004047D01*
X017111Y004146D02*
X016881Y004146D01*
X016881Y004244D02*
X017073Y004244D01*
X017073Y004343D02*
X016881Y004343D01*
X016881Y004441D02*
X017104Y004441D01*
X017175Y004540D02*
X016881Y004540D01*
X016421Y004540D02*
X006852Y004540D01*
X006754Y004638D02*
X016421Y004638D01*
X016421Y004737D02*
X006655Y004737D01*
X006528Y004835D02*
X016404Y004835D01*
X016345Y004934D02*
X004006Y004934D01*
X004075Y004865D02*
X003934Y005006D01*
X003751Y005082D01*
X003552Y005082D01*
X003368Y005006D01*
X003227Y004865D01*
X003151Y004681D01*
X003151Y004482D01*
X003227Y004299D01*
X003368Y004158D01*
X003552Y004082D01*
X003751Y004082D01*
X003934Y004158D01*
X004075Y004299D01*
X004151Y004482D01*
X004151Y004681D01*
X004075Y004865D01*
X004087Y004835D02*
X006274Y004835D01*
X006147Y004737D02*
X004128Y004737D01*
X004151Y004638D02*
X006101Y004638D01*
X006091Y004540D02*
X004151Y004540D01*
X004134Y004441D02*
X006112Y004441D01*
X006048Y004343D02*
X004093Y004343D01*
X004020Y004244D02*
X006048Y004244D01*
X006048Y004146D02*
X003904Y004146D01*
X004373Y003988D02*
X004323Y003868D01*
X004323Y003856D01*
X004289Y003822D01*
X002845Y003822D01*
X002837Y003830D01*
X002716Y003880D01*
X002586Y003880D01*
X002465Y003830D01*
X002373Y003738D01*
X002323Y003618D01*
X002323Y003487D01*
X002373Y003366D01*
X002465Y003274D01*
X002586Y003224D01*
X002716Y003224D01*
X002837Y003274D01*
X002845Y003282D01*
X004347Y003282D01*
X004455Y003282D01*
X004554Y003323D01*
X004705Y003474D01*
X004716Y003474D01*
X004837Y003524D01*
X004929Y003616D01*
X004979Y003737D01*
X004979Y003868D01*
X004929Y003988D01*
X004837Y004080D01*
X004716Y004130D01*
X004586Y004130D01*
X004465Y004080D01*
X004373Y003988D01*
X004357Y003948D02*
X000301Y003948D01*
X000301Y003850D02*
X002512Y003850D01*
X002386Y003751D02*
X000301Y003751D01*
X000301Y003653D02*
X002338Y003653D01*
X002323Y003554D02*
X000301Y003554D01*
X000301Y003456D02*
X002336Y003456D01*
X002382Y003357D02*
X000301Y003357D01*
X000301Y003259D02*
X002503Y003259D01*
X002799Y003259D02*
X006048Y003259D01*
X006048Y003357D02*
X004588Y003357D01*
X004686Y003456D02*
X006048Y003456D01*
X006048Y003554D02*
X004867Y003554D01*
X004944Y003653D02*
X006048Y003653D01*
X006048Y003751D02*
X004979Y003751D01*
X004979Y003850D02*
X006048Y003850D01*
X006048Y003948D02*
X004946Y003948D01*
X004870Y004047D02*
X006048Y004047D01*
X006048Y003160D02*
X000301Y003160D01*
X000301Y003062D02*
X006048Y003062D01*
X006048Y002963D02*
X000301Y002963D01*
X000301Y002864D02*
X006048Y002864D01*
X006048Y002766D02*
X000301Y002766D01*
X000301Y002667D02*
X006048Y002667D01*
X006048Y002569D02*
X000301Y002569D01*
X000301Y002470D02*
X000495Y002470D01*
X000375Y002372D02*
X000301Y002372D01*
X000301Y002273D02*
X000305Y002273D01*
X000711Y002273D02*
X000811Y002273D01*
X000811Y002175D02*
X000711Y002175D01*
X000711Y002076D02*
X000811Y002076D01*
X000811Y001978D02*
X002021Y001978D01*
X002021Y001919D02*
X002021Y002126D01*
X002100Y002317D01*
X002247Y002463D01*
X002438Y002542D01*
X002645Y002542D01*
X002836Y002463D01*
X002982Y002317D01*
X003061Y002126D01*
X003061Y001919D01*
X002982Y001728D01*
X002836Y001582D01*
X002645Y001502D01*
X002438Y001502D01*
X002247Y001582D01*
X002100Y001728D01*
X002021Y001919D01*
X002038Y001879D02*
X001261Y001879D01*
X001222Y001781D02*
X002079Y001781D01*
X002146Y001682D02*
X001156Y001682D01*
X001042Y001583D02*
X002245Y001583D01*
X002021Y002076D02*
X001279Y002076D01*
X001258Y002175D02*
X002041Y002175D01*
X002082Y002273D02*
X001217Y002273D01*
X001147Y002372D02*
X002155Y002372D01*
X002264Y002470D02*
X001027Y002470D01*
X000811Y002470D02*
X000711Y002470D01*
X000711Y002372D02*
X000811Y002372D01*
X000811Y001879D02*
X000711Y001879D01*
X000711Y001781D02*
X000811Y001781D01*
X000811Y001682D02*
X000711Y001682D01*
X000711Y001583D02*
X000811Y001583D01*
X000481Y001583D02*
X000301Y001583D01*
X000301Y001485D02*
X005733Y001485D01*
X005679Y001583D02*
X003897Y001583D01*
X003934Y001599D02*
X003751Y001523D01*
X003552Y001523D01*
X003368Y001599D01*
X003227Y001740D01*
X003151Y001923D01*
X003151Y002122D01*
X003227Y002306D01*
X003368Y002447D01*
X003552Y002523D01*
X003751Y002523D01*
X003934Y002447D01*
X004075Y002306D01*
X004151Y002122D01*
X004151Y001923D01*
X004075Y001740D01*
X003934Y001599D01*
X004017Y001682D02*
X005638Y001682D01*
X005631Y001781D02*
X004092Y001781D01*
X004133Y001879D02*
X005631Y001879D01*
X005661Y001978D02*
X004151Y001978D01*
X004151Y002076D02*
X005702Y002076D01*
X005788Y002175D02*
X004129Y002175D01*
X004089Y002273D02*
X005929Y002273D01*
X006048Y002322D02*
X006048Y002322D01*
X006048Y002372D02*
X004009Y002372D01*
X003877Y002470D02*
X006048Y002470D01*
X006601Y002076D02*
X007461Y002076D01*
X007369Y001978D02*
X006641Y001978D01*
X006671Y001879D02*
X007328Y001879D01*
X007323Y001781D02*
X006671Y001781D01*
X006664Y001682D02*
X007346Y001682D01*
X007406Y001583D02*
X006623Y001583D01*
X006569Y001485D02*
X007560Y001485D01*
X007742Y001386D02*
X006471Y001386D01*
X006338Y001288D02*
X007840Y001288D01*
X007939Y001189D02*
X006500Y001189D01*
X006595Y001091D02*
X008038Y001091D01*
X008195Y001583D02*
X011406Y001583D01*
X011346Y001682D02*
X008097Y001682D01*
X007998Y001781D02*
X011323Y001781D01*
X011328Y001879D02*
X007975Y001879D01*
X007934Y001978D02*
X011369Y001978D01*
X011461Y002076D02*
X007841Y002076D01*
X007348Y002273D02*
X010582Y002273D01*
X010580Y002283D02*
X010590Y002244D01*
X010610Y002210D01*
X010638Y002182D01*
X010672Y002163D01*
X010710Y002152D01*
X011180Y002152D01*
X011180Y003252D01*
X011280Y003252D01*
X011280Y002152D01*
X011750Y002152D01*
X011788Y002163D01*
X011822Y002182D01*
X011850Y002210D01*
X011870Y002244D01*
X011880Y002283D01*
X011880Y003252D01*
X011280Y003252D01*
X011280Y003352D01*
X011880Y003352D01*
X011880Y004322D01*
X011870Y004360D01*
X011850Y004394D01*
X011822Y004422D01*
X011788Y004442D01*
X011750Y004452D01*
X011280Y004452D01*
X011280Y003352D01*
X011180Y003352D01*
X011180Y003252D01*
X010580Y003252D01*
X010580Y002283D01*
X010580Y002372D02*
X007348Y002372D01*
X007348Y002470D02*
X010580Y002470D01*
X010580Y002569D02*
X007882Y002569D01*
X007950Y002667D02*
X010580Y002667D01*
X010580Y002766D02*
X007979Y002766D01*
X007979Y002864D02*
X010580Y002864D01*
X010580Y002963D02*
X007940Y002963D01*
X007856Y003062D02*
X010580Y003062D01*
X010580Y003160D02*
X007348Y003160D01*
X007348Y003259D02*
X011180Y003259D01*
X011180Y003352D02*
X010580Y003352D01*
X010580Y004322D01*
X010590Y004360D01*
X010610Y004394D01*
X010638Y004422D01*
X010672Y004442D01*
X010710Y004452D01*
X011180Y004452D01*
X011180Y003352D01*
X011180Y003357D02*
X011280Y003357D01*
X011280Y003259D02*
X015009Y003259D01*
X015009Y003357D02*
X011880Y003357D01*
X011880Y003456D02*
X015009Y003456D01*
X015009Y003554D02*
X011880Y003554D01*
X011880Y003653D02*
X015009Y003653D01*
X015009Y003751D02*
X011880Y003751D01*
X011880Y003850D02*
X015009Y003850D01*
X015009Y003948D02*
X011880Y003948D01*
X011880Y004047D02*
X015009Y004047D01*
X015009Y004146D02*
X011880Y004146D01*
X011880Y004244D02*
X015009Y004244D01*
X015009Y004343D02*
X011874Y004343D01*
X011789Y004441D02*
X015058Y004441D01*
X016260Y004441D02*
X016421Y004441D01*
X016421Y004343D02*
X016309Y004343D01*
X016309Y004244D02*
X016421Y004244D01*
X016421Y004146D02*
X016309Y004146D01*
X016309Y004047D02*
X016421Y004047D01*
X016421Y003948D02*
X016309Y003948D01*
X016309Y003850D02*
X016421Y003850D01*
X016421Y003751D02*
X016309Y003751D01*
X016309Y003653D02*
X016421Y003653D01*
X016421Y003554D02*
X016309Y003554D01*
X016309Y003456D02*
X016421Y003456D01*
X016421Y003357D02*
X016309Y003357D01*
X016309Y003259D02*
X016421Y003259D01*
X016421Y003160D02*
X016309Y003160D01*
X016309Y003062D02*
X016421Y003062D01*
X016363Y002963D02*
X016309Y002963D01*
X016309Y002864D02*
X016323Y002864D01*
X016309Y002766D02*
X016323Y002766D01*
X016309Y002667D02*
X016352Y002667D01*
X016309Y002569D02*
X016421Y002569D01*
X016309Y002470D02*
X038871Y002470D01*
X038871Y002372D02*
X016309Y002372D01*
X016416Y002273D02*
X016887Y002273D01*
X016788Y002175D02*
X016514Y002175D01*
X016613Y002076D02*
X016690Y002076D01*
X015788Y002175D02*
X011809Y002175D01*
X011841Y002076D02*
X015690Y002076D01*
X015631Y001978D02*
X015301Y001978D01*
X015400Y001879D02*
X015631Y001879D01*
X015631Y001781D02*
X015498Y001781D01*
X015597Y001682D02*
X015631Y001682D01*
X015242Y001386D02*
X014972Y001386D01*
X014979Y001288D02*
X015340Y001288D01*
X015439Y001189D02*
X014959Y001189D01*
X014904Y001091D02*
X015538Y001091D01*
X015631Y000992D02*
X014760Y000992D01*
X014543Y000992D02*
X006635Y000992D01*
X006671Y000894D02*
X015631Y000894D01*
X015631Y000697D02*
X006670Y000697D01*
X006671Y000795D02*
X016101Y000795D01*
X015719Y000499D02*
X006584Y000499D01*
X006629Y000598D02*
X015631Y000598D01*
X015143Y001485D02*
X014931Y001485D01*
X015009Y002273D02*
X011877Y002273D01*
X011880Y002372D02*
X015009Y002372D01*
X015009Y002470D02*
X011880Y002470D01*
X011880Y002569D02*
X015009Y002569D01*
X015009Y002667D02*
X011880Y002667D01*
X011880Y002766D02*
X015009Y002766D01*
X015009Y002864D02*
X011880Y002864D01*
X011880Y002963D02*
X015009Y002963D01*
X015009Y003062D02*
X011880Y003062D01*
X011880Y003160D02*
X015009Y003160D01*
X016323Y005032D02*
X003870Y005032D01*
X003432Y005032D02*
X002813Y005032D01*
X002925Y004934D02*
X003296Y004934D01*
X003215Y004835D02*
X002999Y004835D01*
X003040Y004737D02*
X003174Y004737D01*
X003151Y004638D02*
X003061Y004638D01*
X003061Y004540D02*
X003151Y004540D01*
X003168Y004441D02*
X003046Y004441D01*
X003005Y004343D02*
X003209Y004343D01*
X003282Y004244D02*
X002938Y004244D01*
X002840Y004146D02*
X003398Y004146D01*
X002790Y003850D02*
X004317Y003850D01*
X004432Y004047D02*
X000301Y004047D01*
X000301Y004146D02*
X000478Y004146D01*
X000364Y004244D02*
X000301Y004244D01*
X000711Y004244D02*
X000811Y004244D01*
X000811Y004146D02*
X000711Y004146D01*
X000711Y004343D02*
X000811Y004343D01*
X000811Y004441D02*
X000711Y004441D01*
X000811Y004540D02*
X002021Y004540D01*
X002021Y004638D02*
X001279Y004638D01*
X001258Y004737D02*
X002042Y004737D01*
X002083Y004835D02*
X001216Y004835D01*
X001145Y004934D02*
X002157Y004934D01*
X002269Y005032D02*
X001023Y005032D01*
X000811Y005032D02*
X000711Y005032D01*
X000711Y004934D02*
X000811Y004934D01*
X000811Y004835D02*
X000711Y004835D01*
X000711Y004737D02*
X000811Y004737D01*
X000811Y004638D02*
X000711Y004638D01*
X000377Y004934D02*
X000301Y004934D01*
X000301Y005032D02*
X000499Y005032D01*
X000301Y005131D02*
X016329Y005131D01*
X016369Y005230D02*
X000301Y005230D01*
X000301Y005328D02*
X016463Y005328D01*
X015711Y006806D02*
X006591Y006806D01*
X006632Y006905D02*
X015631Y006905D01*
X015631Y007003D02*
X006671Y007003D01*
X006671Y007102D02*
X016101Y007102D01*
X015631Y007200D02*
X006671Y007200D01*
X006632Y007299D02*
X014524Y007299D01*
X014778Y007299D02*
X015631Y007299D01*
X015530Y007397D02*
X014911Y007397D01*
X014963Y007496D02*
X015431Y007496D01*
X015333Y007595D02*
X014979Y007595D01*
X014968Y007693D02*
X015234Y007693D01*
X015136Y007792D02*
X014925Y007792D01*
X015294Y008284D02*
X015631Y008284D01*
X015631Y008186D02*
X015392Y008186D01*
X015491Y008087D02*
X015631Y008087D01*
X015631Y007989D02*
X015589Y007989D01*
X015697Y008383D02*
X011829Y008383D01*
X011788Y008462D02*
X011822Y008482D01*
X011850Y008509D01*
X011870Y008544D01*
X011880Y008582D01*
X011880Y009552D01*
X011280Y009552D01*
X011280Y009651D01*
X011880Y009651D01*
X011880Y010621D01*
X011870Y010659D01*
X011850Y010694D01*
X011822Y010722D01*
X011788Y010741D01*
X011750Y010752D01*
X011280Y010752D01*
X011280Y009652D01*
X011180Y009652D01*
X011180Y010752D01*
X010710Y010752D01*
X010672Y010741D01*
X010638Y010722D01*
X010610Y010694D01*
X010590Y010659D01*
X010580Y010621D01*
X010580Y009651D01*
X011180Y009651D01*
X011180Y009552D01*
X010580Y009552D01*
X010580Y008582D01*
X010590Y008544D01*
X010610Y008509D01*
X010638Y008482D01*
X010672Y008462D01*
X010710Y008452D01*
X011180Y008452D01*
X011180Y009551D01*
X011280Y009551D01*
X011280Y008452D01*
X011750Y008452D01*
X011788Y008462D01*
X011822Y008481D02*
X015095Y008481D01*
X015009Y008580D02*
X011879Y008580D01*
X011880Y008679D02*
X015009Y008679D01*
X015009Y008777D02*
X011880Y008777D01*
X011880Y008876D02*
X015009Y008876D01*
X015009Y008974D02*
X011880Y008974D01*
X011880Y009073D02*
X015009Y009073D01*
X015009Y009171D02*
X011880Y009171D01*
X011880Y009270D02*
X015009Y009270D01*
X015009Y009368D02*
X011880Y009368D01*
X011880Y009467D02*
X015009Y009467D01*
X015009Y009565D02*
X011280Y009565D01*
X011280Y009467D02*
X011180Y009467D01*
X011180Y009565D02*
X007348Y009565D01*
X007348Y009467D02*
X010580Y009467D01*
X010580Y009368D02*
X007848Y009368D01*
X007937Y009270D02*
X010580Y009270D01*
X010580Y009171D02*
X007977Y009171D01*
X007979Y009073D02*
X010580Y009073D01*
X010580Y008974D02*
X007954Y008974D01*
X007889Y008876D02*
X010580Y008876D01*
X010580Y008777D02*
X007725Y008777D01*
X007577Y008777D02*
X007348Y008777D01*
X007348Y008679D02*
X010580Y008679D01*
X010580Y008580D02*
X007348Y008580D01*
X007283Y008481D02*
X010638Y008481D01*
X011180Y008481D02*
X011280Y008481D01*
X011280Y008580D02*
X011180Y008580D01*
X011180Y008679D02*
X011280Y008679D01*
X011280Y008777D02*
X011180Y008777D01*
X011180Y008876D02*
X011280Y008876D01*
X011280Y008974D02*
X011180Y008974D01*
X011180Y009073D02*
X011280Y009073D01*
X011280Y009171D02*
X011180Y009171D01*
X011180Y009270D02*
X011280Y009270D01*
X011280Y009368D02*
X011180Y009368D01*
X011180Y009664D02*
X011280Y009664D01*
X011280Y009763D02*
X011180Y009763D01*
X011180Y009861D02*
X011280Y009861D01*
X011280Y009960D02*
X011180Y009960D01*
X011180Y010058D02*
X011280Y010058D01*
X011280Y010157D02*
X011180Y010157D01*
X011180Y010255D02*
X011280Y010255D01*
X011280Y010354D02*
X011180Y010354D01*
X011180Y010452D02*
X011280Y010452D01*
X011280Y010551D02*
X011180Y010551D01*
X011180Y010649D02*
X011280Y010649D01*
X011280Y010748D02*
X011180Y010748D01*
X010697Y010748D02*
X007272Y010748D01*
X007348Y010649D02*
X010587Y010649D01*
X010580Y010551D02*
X007348Y010551D01*
X007348Y010452D02*
X010580Y010452D01*
X010580Y010354D02*
X007348Y010354D01*
X007348Y010255D02*
X010580Y010255D01*
X010580Y010157D02*
X007348Y010157D01*
X007348Y010058D02*
X010580Y010058D01*
X010580Y009960D02*
X007348Y009960D01*
X007348Y009861D02*
X010580Y009861D01*
X010580Y009763D02*
X007348Y009763D01*
X007348Y009664D02*
X010580Y009664D01*
X011763Y010748D02*
X015066Y010748D01*
X015009Y010649D02*
X011872Y010649D01*
X011880Y010551D02*
X015009Y010551D01*
X015009Y010452D02*
X011880Y010452D01*
X011880Y010354D02*
X015009Y010354D01*
X015009Y010255D02*
X011880Y010255D01*
X011880Y010157D02*
X015009Y010157D01*
X015009Y010058D02*
X011880Y010058D01*
X011880Y009960D02*
X015009Y009960D01*
X015009Y009861D02*
X011880Y009861D01*
X011880Y009763D02*
X015009Y009763D01*
X015009Y009664D02*
X011880Y009664D01*
X011473Y008383D02*
X007829Y008383D01*
X007931Y008284D02*
X011372Y008284D01*
X011331Y008186D02*
X007971Y008186D01*
X007991Y008087D02*
X011323Y008087D01*
X011343Y007989D02*
X008089Y007989D01*
X008188Y007890D02*
X011399Y007890D01*
X008030Y007397D02*
X006591Y007397D01*
X006492Y007496D02*
X007931Y007496D01*
X007833Y007595D02*
X006320Y007595D01*
X006478Y007693D02*
X007734Y007693D01*
X007542Y007792D02*
X006577Y007792D01*
X006626Y007890D02*
X007399Y007890D01*
X007343Y007989D02*
X006667Y007989D01*
X006671Y008087D02*
X007323Y008087D01*
X007331Y008186D02*
X006671Y008186D01*
X006638Y008284D02*
X007372Y008284D01*
X007473Y008383D02*
X006597Y008383D01*
X006048Y008622D02*
X006048Y008622D01*
X006048Y008679D02*
X004002Y008679D01*
X003934Y008746D02*
X003751Y008822D01*
X003552Y008822D01*
X003368Y008746D01*
X003227Y008605D01*
X003151Y008421D01*
X003151Y008223D01*
X003227Y008039D01*
X003368Y007898D01*
X003552Y007822D01*
X003751Y007822D01*
X003934Y007898D01*
X004075Y008039D01*
X004151Y008223D01*
X004151Y008421D01*
X004075Y008605D01*
X003934Y008746D01*
X003859Y008777D02*
X006048Y008777D01*
X006048Y008876D02*
X000301Y008876D01*
X000301Y008974D02*
X006048Y008974D01*
X006048Y009073D02*
X000301Y009073D01*
X000301Y009171D02*
X006048Y009171D01*
X006048Y009270D02*
X000301Y009270D01*
X000301Y009368D02*
X006048Y009368D01*
X006048Y009467D02*
X000301Y009467D01*
X000301Y009565D02*
X002485Y009565D01*
X002465Y009573D02*
X002586Y009523D01*
X002716Y009523D01*
X002837Y009573D01*
X002845Y009582D01*
X004347Y009582D01*
X004455Y009582D01*
X004554Y009623D01*
X004705Y009773D01*
X004716Y009773D01*
X004837Y009823D01*
X004929Y009916D01*
X004979Y010036D01*
X004979Y010167D01*
X004929Y010287D01*
X004837Y010380D01*
X004716Y010430D01*
X004586Y010430D01*
X004465Y010380D01*
X004373Y010287D01*
X004323Y010167D01*
X004323Y010155D01*
X004289Y010122D01*
X002845Y010122D01*
X002837Y010130D01*
X002716Y010180D01*
X002586Y010180D01*
X002465Y010130D01*
X002373Y010037D01*
X002323Y009917D01*
X002323Y009786D01*
X002373Y009666D01*
X002465Y009573D01*
X002375Y009664D02*
X000301Y009664D01*
X000301Y009763D02*
X002333Y009763D01*
X002323Y009861D02*
X000301Y009861D01*
X000301Y009960D02*
X002341Y009960D01*
X002394Y010058D02*
X000301Y010058D01*
X000301Y010157D02*
X002531Y010157D01*
X002438Y010362D02*
X002247Y010441D01*
X002100Y010587D01*
X002021Y010778D01*
X002021Y010985D01*
X002100Y011176D01*
X002247Y011322D01*
X002438Y011402D01*
X002645Y011402D01*
X002836Y011322D01*
X002982Y011176D01*
X003061Y010985D01*
X003061Y010778D01*
X002982Y010587D01*
X002836Y010441D01*
X002645Y010362D01*
X002438Y010362D01*
X002235Y010452D02*
X001055Y010452D01*
X001164Y010551D02*
X002136Y010551D01*
X002074Y010649D02*
X001226Y010649D01*
X001264Y010748D02*
X002034Y010748D01*
X002021Y010846D02*
X000811Y010846D01*
X000811Y010748D02*
X000711Y010748D01*
X000711Y010649D02*
X000811Y010649D01*
X000811Y010551D02*
X000711Y010551D01*
X000711Y010452D02*
X000811Y010452D01*
X000467Y010452D02*
X000301Y010452D01*
X000301Y010354D02*
X004439Y010354D01*
X004360Y010255D02*
X000301Y010255D01*
X000301Y010551D02*
X000359Y010551D01*
X000711Y010945D02*
X000811Y010945D01*
X000811Y011044D02*
X000711Y011044D01*
X000711Y011142D02*
X000811Y011142D01*
X000811Y011241D02*
X000711Y011241D01*
X000711Y011339D02*
X000811Y011339D01*
X001008Y011339D02*
X002287Y011339D01*
X002165Y011241D02*
X001137Y011241D01*
X001212Y011142D02*
X002086Y011142D01*
X002045Y011044D02*
X001255Y011044D01*
X001278Y010945D02*
X002021Y010945D01*
X002795Y011339D02*
X003451Y011339D01*
X003304Y011241D02*
X002917Y011241D01*
X002996Y011142D02*
X003218Y011142D01*
X003177Y011044D02*
X003037Y011044D01*
X003061Y010945D02*
X003151Y010945D01*
X003151Y010846D02*
X003061Y010846D01*
X003049Y010748D02*
X003165Y010748D01*
X003206Y010649D02*
X003008Y010649D01*
X002946Y010551D02*
X003274Y010551D01*
X003380Y010452D02*
X002847Y010452D01*
X002772Y010157D02*
X004323Y010157D01*
X004028Y010551D02*
X006048Y010551D01*
X006048Y010649D02*
X004096Y010649D01*
X004137Y010748D02*
X006109Y010748D01*
X006091Y010846D02*
X004151Y010846D01*
X004151Y010945D02*
X006104Y010945D01*
X006155Y011044D02*
X004125Y011044D01*
X004084Y011142D02*
X006293Y011142D01*
X006048Y010452D02*
X003923Y010452D01*
X004694Y009763D02*
X006048Y009763D01*
X006048Y009861D02*
X004875Y009861D01*
X004947Y009960D02*
X006048Y009960D01*
X006048Y010058D02*
X004979Y010058D01*
X004979Y010157D02*
X006048Y010157D01*
X006048Y010255D02*
X004943Y010255D01*
X004863Y010354D02*
X006048Y010354D01*
X006048Y009664D02*
X004595Y009664D01*
X003443Y008777D02*
X002800Y008777D01*
X002836Y008762D02*
X002645Y008842D01*
X002438Y008842D01*
X002247Y008762D01*
X002100Y008616D01*
X002021Y008425D01*
X002021Y008218D01*
X002100Y008027D01*
X002247Y007881D01*
X002438Y007802D01*
X002645Y007802D01*
X002836Y007881D01*
X002982Y008027D01*
X003061Y008218D01*
X003061Y008425D01*
X002982Y008616D01*
X002836Y008762D01*
X002920Y008679D02*
X003301Y008679D01*
X003217Y008580D02*
X002997Y008580D01*
X003038Y008481D02*
X003176Y008481D01*
X003151Y008383D02*
X003061Y008383D01*
X003061Y008284D02*
X003151Y008284D01*
X003166Y008186D02*
X003048Y008186D01*
X003007Y008087D02*
X003207Y008087D01*
X003277Y007989D02*
X002944Y007989D01*
X002845Y007890D02*
X003387Y007890D01*
X003915Y007890D02*
X005676Y007890D01*
X005635Y007989D02*
X004025Y007989D01*
X004095Y008087D02*
X005631Y008087D01*
X005631Y008186D02*
X004136Y008186D01*
X004151Y008284D02*
X005664Y008284D01*
X005705Y008383D02*
X004151Y008383D01*
X004126Y008481D02*
X005796Y008481D01*
X005947Y008580D02*
X004086Y008580D01*
X002818Y009565D02*
X006048Y009565D01*
X005726Y007792D02*
X000301Y007792D01*
X000301Y007890D02*
X000470Y007890D01*
X000360Y007989D02*
X000301Y007989D01*
X000301Y007693D02*
X005824Y007693D01*
X005983Y007595D02*
X000301Y007595D01*
X000301Y007496D02*
X005810Y007496D01*
X005712Y007397D02*
X000301Y007397D01*
X000301Y007299D02*
X005670Y007299D01*
X005631Y007200D02*
X000301Y007200D01*
X000301Y007102D02*
X005631Y007102D01*
X005631Y007003D02*
X000301Y007003D01*
X000301Y006905D02*
X005670Y006905D01*
X005711Y006806D02*
X000301Y006806D01*
X000711Y007890D02*
X000811Y007890D01*
X000811Y007989D02*
X000711Y007989D01*
X000711Y008087D02*
X000811Y008087D01*
X000811Y008186D02*
X000711Y008186D01*
X000811Y008284D02*
X002021Y008284D01*
X002021Y008383D02*
X001278Y008383D01*
X001256Y008481D02*
X002045Y008481D01*
X002085Y008580D02*
X001213Y008580D01*
X001140Y008679D02*
X002163Y008679D01*
X002282Y008777D02*
X001013Y008777D01*
X000811Y008777D02*
X000711Y008777D01*
X000711Y008679D02*
X000811Y008679D01*
X000811Y008580D02*
X000711Y008580D01*
X000711Y008481D02*
X000811Y008481D01*
X000811Y008383D02*
X000711Y008383D01*
X000383Y008679D02*
X000301Y008679D01*
X000301Y008777D02*
X000510Y008777D01*
X000309Y008580D02*
X000301Y008580D01*
X001052Y007890D02*
X002237Y007890D01*
X002139Y007989D02*
X001162Y007989D01*
X001225Y008087D02*
X002075Y008087D01*
X002035Y008186D02*
X001264Y008186D01*
X000310Y011142D02*
X000301Y011142D01*
X000301Y011241D02*
X000385Y011241D01*
X000301Y011339D02*
X000514Y011339D01*
X000301Y014000D02*
X005817Y014000D01*
X005718Y014098D02*
X000301Y014098D01*
X000301Y014197D02*
X000460Y014197D01*
X000355Y014296D02*
X000301Y014296D01*
X000711Y014296D02*
X000811Y014296D01*
X000811Y014394D02*
X000711Y014394D01*
X000711Y014493D02*
X000811Y014493D01*
X000811Y014571D02*
X000811Y014102D01*
X000883Y014114D01*
X000961Y014139D01*
X001034Y014176D01*
X001100Y014224D01*
X001158Y014282D01*
X001206Y014348D01*
X001243Y014421D01*
X001268Y014499D01*
X001280Y014571D01*
X000811Y014571D01*
X000811Y014591D02*
X002021Y014591D01*
X002021Y014517D02*
X002100Y014326D01*
X002247Y014180D01*
X002438Y014101D01*
X002645Y014101D01*
X002836Y014180D01*
X002982Y014326D01*
X003061Y014517D01*
X003061Y014724D01*
X002982Y014915D01*
X002836Y015062D01*
X002645Y015141D01*
X002438Y015141D01*
X002247Y015062D01*
X002100Y014915D01*
X002021Y014724D01*
X002021Y014517D01*
X002031Y014493D02*
X001266Y014493D01*
X001229Y014394D02*
X002072Y014394D01*
X002131Y014296D02*
X001168Y014296D01*
X001063Y014197D02*
X002230Y014197D01*
X002021Y014690D02*
X001277Y014690D01*
X001280Y014671D02*
X001268Y014743D01*
X001243Y014820D01*
X001206Y014893D01*
X001158Y014960D01*
X001100Y015017D01*
X001034Y015066D01*
X000961Y015103D01*
X000883Y015128D01*
X000811Y015139D01*
X000811Y014671D01*
X001280Y014671D01*
X001254Y014788D02*
X002048Y014788D01*
X002089Y014887D02*
X001209Y014887D01*
X001132Y014985D02*
X002170Y014985D01*
X002300Y015084D02*
X000998Y015084D01*
X000811Y015084D02*
X000711Y015084D01*
X000711Y014985D02*
X000811Y014985D01*
X000811Y014887D02*
X000711Y014887D01*
X000711Y014788D02*
X000811Y014788D01*
X000811Y014690D02*
X000711Y014690D01*
X000390Y014985D02*
X000301Y014985D01*
X000301Y014887D02*
X000313Y014887D01*
X000301Y015084D02*
X000525Y015084D01*
X000301Y015182D02*
X006048Y015182D01*
X006048Y015084D02*
X003841Y015084D01*
X003751Y015121D02*
X003552Y015121D01*
X003368Y015045D01*
X003227Y014904D01*
X003151Y014721D01*
X003151Y014522D01*
X003227Y014338D01*
X003368Y014197D01*
X003552Y014121D01*
X003751Y014121D01*
X003934Y014197D01*
X004075Y014338D01*
X004151Y014522D01*
X004151Y014721D01*
X004075Y014904D01*
X003934Y015045D01*
X003751Y015121D01*
X003994Y014985D02*
X006048Y014985D01*
X006048Y014921D02*
X006048Y014921D01*
X005966Y014887D02*
X004082Y014887D01*
X004123Y014788D02*
X005803Y014788D01*
X005708Y014690D02*
X004151Y014690D01*
X004151Y014591D02*
X005667Y014591D01*
X005631Y014493D02*
X004139Y014493D01*
X004098Y014394D02*
X005631Y014394D01*
X005632Y014296D02*
X004033Y014296D01*
X003933Y014197D02*
X005673Y014197D01*
X006583Y013704D02*
X008022Y013704D01*
X008180Y014197D02*
X011391Y014197D01*
X011340Y014296D02*
X008082Y014296D01*
X007983Y014394D02*
X011323Y014394D01*
X011334Y014493D02*
X007968Y014493D01*
X007925Y014591D02*
X011378Y014591D01*
X011491Y014690D02*
X007811Y014690D01*
X007491Y014690D02*
X006594Y014690D01*
X006048Y015281D02*
X000301Y015281D01*
X000301Y015379D02*
X006048Y015379D01*
X006048Y015478D02*
X000301Y015478D01*
X000301Y015577D02*
X006048Y015577D01*
X006048Y015675D02*
X000301Y015675D01*
X000301Y015774D02*
X006048Y015774D01*
X006048Y015872D02*
X002836Y015872D01*
X002837Y015873D02*
X002845Y015881D01*
X004347Y015881D01*
X004455Y015881D01*
X004554Y015922D01*
X004705Y016073D01*
X004716Y016073D01*
X004837Y016123D01*
X004929Y016215D01*
X004979Y016335D01*
X004979Y016466D01*
X004929Y016587D01*
X004837Y016679D01*
X004716Y016729D01*
X004586Y016729D01*
X004465Y016679D01*
X004373Y016587D01*
X004323Y016466D01*
X004323Y016454D01*
X004289Y016421D01*
X002845Y016421D01*
X002837Y016429D01*
X002716Y016479D01*
X002586Y016479D01*
X002465Y016429D01*
X002373Y016337D01*
X002323Y016216D01*
X002323Y016085D01*
X002373Y015965D01*
X002465Y015873D01*
X002586Y015823D01*
X002716Y015823D01*
X002837Y015873D01*
X002466Y015872D02*
X000301Y015872D01*
X000301Y015971D02*
X002371Y015971D01*
X002330Y016069D02*
X000301Y016069D01*
X000301Y016168D02*
X002323Y016168D01*
X002344Y016266D02*
X000301Y016266D01*
X000301Y016365D02*
X002401Y016365D01*
X002549Y016463D02*
X000301Y016463D01*
X000301Y016562D02*
X004363Y016562D01*
X004323Y016463D02*
X002754Y016463D01*
X002645Y016661D02*
X002836Y016740D01*
X002982Y016886D01*
X003061Y017077D01*
X003061Y017284D01*
X002982Y017475D01*
X002836Y017622D01*
X002645Y017701D01*
X002438Y017701D01*
X002247Y017622D01*
X002100Y017475D01*
X002021Y017284D01*
X002021Y017077D01*
X002100Y016886D01*
X002247Y016740D01*
X002438Y016661D01*
X002645Y016661D01*
X002855Y016759D02*
X003365Y016759D01*
X003368Y016756D02*
X003552Y016680D01*
X003751Y016680D01*
X003934Y016756D01*
X004075Y016897D01*
X004151Y017081D01*
X004151Y017280D01*
X004075Y017464D01*
X003934Y017604D01*
X003751Y017680D01*
X003552Y017680D01*
X003368Y017604D01*
X003227Y017464D01*
X003151Y017280D01*
X003151Y017081D01*
X003227Y016897D01*
X003368Y016756D01*
X003267Y016858D02*
X002953Y016858D01*
X003011Y016956D02*
X003203Y016956D01*
X003162Y017055D02*
X003052Y017055D01*
X003061Y017153D02*
X003151Y017153D01*
X003151Y017252D02*
X003061Y017252D01*
X003034Y017350D02*
X003180Y017350D01*
X003221Y017449D02*
X002993Y017449D01*
X002910Y017547D02*
X003311Y017547D01*
X003469Y017646D02*
X002777Y017646D01*
X002306Y017646D02*
X000994Y017646D01*
X000961Y017663D02*
X000883Y017688D01*
X000811Y017699D01*
X000811Y017231D01*
X001280Y017231D01*
X001268Y017303D01*
X001243Y017380D01*
X001206Y017453D01*
X001158Y017520D01*
X001100Y017577D01*
X001034Y017626D01*
X000961Y017663D01*
X000811Y017646D02*
X000711Y017646D01*
X000711Y017547D02*
X000811Y017547D01*
X000811Y017449D02*
X000711Y017449D01*
X000711Y017350D02*
X000811Y017350D01*
X000811Y017252D02*
X000711Y017252D01*
X000811Y017153D02*
X002021Y017153D01*
X002031Y017055D02*
X001267Y017055D01*
X001268Y017059D02*
X001280Y017131D01*
X000811Y017131D01*
X000811Y016662D01*
X000883Y016674D01*
X000961Y016699D01*
X001034Y016736D01*
X001100Y016784D01*
X001158Y016842D01*
X001206Y016908D01*
X001243Y016981D01*
X001268Y017059D01*
X001230Y016956D02*
X002071Y016956D01*
X002129Y016858D02*
X001169Y016858D01*
X001065Y016759D02*
X002227Y016759D01*
X002021Y017252D02*
X001276Y017252D01*
X001253Y017350D02*
X002049Y017350D01*
X002089Y017449D02*
X001208Y017449D01*
X001130Y017547D02*
X002172Y017547D01*
X000811Y017055D02*
X000711Y017055D01*
X000711Y016956D02*
X000811Y016956D01*
X000811Y016858D02*
X000711Y016858D01*
X000711Y016759D02*
X000811Y016759D01*
X000457Y016759D02*
X000301Y016759D01*
X000301Y016661D02*
X004447Y016661D01*
X004855Y016661D02*
X006048Y016661D01*
X006048Y016759D02*
X003937Y016759D01*
X004036Y016858D02*
X006048Y016858D01*
X006048Y016956D02*
X004099Y016956D01*
X004140Y017055D02*
X006105Y017055D01*
X006091Y017153D02*
X004151Y017153D01*
X004151Y017252D02*
X006108Y017252D01*
X006162Y017350D02*
X004122Y017350D01*
X004081Y017449D02*
X006311Y017449D01*
X006491Y017449D02*
X016389Y017449D01*
X016373Y017465D02*
X016421Y017417D01*
X016421Y015635D01*
X016373Y015587D01*
X016323Y015466D01*
X016323Y015335D01*
X016373Y015215D01*
X016465Y015123D01*
X016586Y015073D01*
X016716Y015073D01*
X016837Y015123D01*
X016929Y015215D01*
X016979Y015335D01*
X016979Y015466D01*
X016929Y015587D01*
X016881Y015635D01*
X016881Y017417D01*
X016929Y017465D01*
X016979Y017585D01*
X016979Y017716D01*
X016929Y017837D01*
X016837Y017929D01*
X016716Y017979D01*
X016586Y017979D01*
X016465Y017929D01*
X016373Y017837D01*
X016323Y017716D01*
X016323Y017585D01*
X016373Y017465D01*
X016339Y017547D02*
X003991Y017547D01*
X003833Y017646D02*
X016323Y017646D01*
X016335Y017745D02*
X000301Y017745D01*
X000301Y017843D02*
X016379Y017843D01*
X016496Y017942D02*
X000301Y017942D01*
X000301Y018040D02*
X038871Y018040D01*
X038871Y017942D02*
X016806Y017942D01*
X016923Y017843D02*
X038871Y017843D01*
X038871Y017745D02*
X016967Y017745D01*
X016979Y017646D02*
X038871Y017646D01*
X038871Y017547D02*
X016963Y017547D01*
X016913Y017449D02*
X038871Y017449D01*
X038871Y017350D02*
X016881Y017350D01*
X016881Y017252D02*
X038871Y017252D01*
X038871Y017153D02*
X017613Y017153D01*
X017587Y017179D02*
X017466Y017229D01*
X017336Y017229D01*
X017215Y017179D01*
X017123Y017087D01*
X017073Y016966D01*
X017073Y016835D01*
X017123Y016715D01*
X017171Y016667D01*
X017171Y015635D01*
X017123Y015587D01*
X017073Y015466D01*
X017073Y015335D01*
X017123Y015215D01*
X017215Y015123D01*
X017336Y015073D01*
X017466Y015073D01*
X017587Y015123D01*
X017679Y015215D01*
X017729Y015335D01*
X017729Y015466D01*
X017679Y015587D01*
X017631Y015635D01*
X017631Y016667D01*
X017679Y016715D01*
X017729Y016835D01*
X017729Y016966D01*
X017679Y017087D01*
X017587Y017179D01*
X017693Y017055D02*
X038871Y017055D01*
X038871Y016956D02*
X017729Y016956D01*
X017729Y016858D02*
X038871Y016858D01*
X038871Y016759D02*
X017698Y016759D01*
X017631Y016661D02*
X038871Y016661D01*
X038871Y016562D02*
X017631Y016562D01*
X017631Y016463D02*
X038871Y016463D01*
X038871Y016365D02*
X017631Y016365D01*
X017631Y016266D02*
X038871Y016266D01*
X038871Y016168D02*
X017631Y016168D01*
X017631Y016069D02*
X038871Y016069D01*
X038871Y015971D02*
X017631Y015971D01*
X017631Y015872D02*
X038871Y015872D01*
X038871Y015774D02*
X017631Y015774D01*
X017631Y015675D02*
X038871Y015675D01*
X038871Y015577D02*
X017683Y015577D01*
X017724Y015478D02*
X038871Y015478D01*
X038871Y015379D02*
X017729Y015379D01*
X017707Y015281D02*
X038871Y015281D01*
X038871Y015182D02*
X017647Y015182D01*
X017493Y015084D02*
X038871Y015084D01*
X038871Y014985D02*
X016309Y014985D01*
X016309Y015084D02*
X016559Y015084D01*
X016406Y015182D02*
X016309Y015182D01*
X016309Y015281D02*
X016346Y015281D01*
X016323Y015379D02*
X016309Y015379D01*
X016309Y015478D02*
X016328Y015478D01*
X016309Y015577D02*
X016369Y015577D01*
X016421Y015675D02*
X016309Y015675D01*
X016309Y015774D02*
X016421Y015774D01*
X016421Y015872D02*
X016309Y015872D01*
X016309Y015971D02*
X016421Y015971D01*
X016421Y016069D02*
X016309Y016069D01*
X016309Y016168D02*
X016421Y016168D01*
X016421Y016266D02*
X016309Y016266D01*
X016309Y016365D02*
X016421Y016365D01*
X016421Y016463D02*
X016309Y016463D01*
X016309Y016562D02*
X016421Y016562D01*
X016421Y016661D02*
X016309Y016661D01*
X016309Y016759D02*
X016421Y016759D01*
X016421Y016858D02*
X016309Y016858D01*
X016309Y016956D02*
X016421Y016956D01*
X016421Y017055D02*
X016245Y017055D01*
X016421Y017153D02*
X006837Y017153D01*
X006739Y017252D02*
X016421Y017252D01*
X016421Y017350D02*
X006640Y017350D01*
X006048Y016562D02*
X004940Y016562D01*
X004979Y016463D02*
X006048Y016463D01*
X006048Y016365D02*
X004979Y016365D01*
X004951Y016266D02*
X006048Y016266D01*
X006048Y016168D02*
X004882Y016168D01*
X004701Y016069D02*
X006048Y016069D01*
X006048Y015971D02*
X004603Y015971D01*
X003461Y015084D02*
X002782Y015084D01*
X002912Y014985D02*
X003308Y014985D01*
X003220Y014887D02*
X002994Y014887D01*
X003035Y014788D02*
X003179Y014788D01*
X003151Y014690D02*
X003061Y014690D01*
X003061Y014591D02*
X003151Y014591D01*
X003163Y014493D02*
X003051Y014493D01*
X003010Y014394D02*
X003204Y014394D01*
X003270Y014296D02*
X002951Y014296D01*
X002853Y014197D02*
X003369Y014197D01*
X000811Y014197D02*
X000711Y014197D01*
X000353Y016858D02*
X000301Y016858D01*
X000301Y017449D02*
X000314Y017449D01*
X000301Y017547D02*
X000392Y017547D01*
X000301Y017646D02*
X000529Y017646D01*
X000301Y018139D02*
X038871Y018139D01*
X038871Y018237D02*
X000301Y018237D01*
X000301Y018336D02*
X038871Y018336D01*
X038871Y018434D02*
X000301Y018434D01*
X000301Y018533D02*
X038871Y018533D01*
X038871Y018631D02*
X000301Y018631D01*
X000301Y018730D02*
X038871Y018730D01*
X038871Y019350D02*
X018536Y019350D01*
X018671Y019485D01*
X018671Y019915D01*
X018596Y019990D01*
X018647Y019990D01*
X018715Y019922D01*
X018836Y019872D01*
X018966Y019872D01*
X019087Y019922D01*
X019179Y020014D01*
X019229Y020135D01*
X019229Y020265D01*
X019179Y020386D01*
X019087Y020478D01*
X018966Y020528D01*
X018836Y020528D01*
X018715Y020478D01*
X018671Y020434D01*
X018671Y021132D01*
X018583Y021220D01*
X017719Y021220D01*
X017631Y021132D01*
X017631Y020955D01*
X017367Y021220D01*
X016936Y021220D01*
X016651Y020935D01*
X016367Y021220D01*
X016309Y021220D01*
X016309Y023290D01*
X016221Y023378D01*
X015097Y023378D01*
X015009Y023290D01*
X015009Y021165D01*
X015097Y021078D01*
X015793Y021078D01*
X015631Y020915D01*
X015631Y020545D01*
X015246Y020930D01*
X015056Y020930D01*
X011885Y020930D01*
X011837Y020978D01*
X011716Y021028D01*
X011586Y021028D01*
X011465Y020978D01*
X011373Y020886D01*
X011323Y020765D01*
X011323Y020635D01*
X011373Y020514D01*
X011457Y020430D01*
X008246Y020430D01*
X007979Y020697D01*
X007979Y020765D01*
X007929Y020886D01*
X007837Y020978D01*
X007716Y021028D01*
X007586Y021028D01*
X007465Y020978D01*
X007373Y020886D01*
X007323Y020765D01*
X007323Y020635D01*
X007373Y020514D01*
X007465Y020422D01*
X007586Y020372D01*
X007654Y020372D01*
X008056Y019970D01*
X008246Y019970D01*
X014417Y019970D01*
X014465Y019922D01*
X014586Y019872D01*
X014716Y019872D01*
X014837Y019922D01*
X014929Y020014D01*
X014979Y020135D01*
X014979Y020265D01*
X014929Y020386D01*
X014845Y020470D01*
X015056Y020470D01*
X015556Y019970D01*
X015686Y019970D01*
X015631Y019915D01*
X015631Y019750D01*
X016101Y019750D01*
X016101Y019650D01*
X015631Y019650D01*
X015631Y019485D01*
X015766Y019350D01*
X006536Y019350D01*
X006592Y019405D01*
X006671Y019597D01*
X006671Y019803D01*
X006592Y019995D01*
X006446Y020141D01*
X006303Y020200D01*
X006446Y020259D01*
X006592Y020405D01*
X007505Y020405D01*
X007383Y020504D02*
X006633Y020504D01*
X006671Y020597D02*
X006671Y020803D01*
X006592Y020995D01*
X006529Y021058D01*
X007261Y021058D01*
X007348Y021146D01*
X007348Y021390D01*
X007542Y021390D01*
X007586Y021372D01*
X007716Y021372D01*
X007837Y021422D01*
X007929Y021514D01*
X007979Y021635D01*
X007979Y021765D01*
X007929Y021886D01*
X007837Y021978D01*
X007716Y022028D01*
X007586Y022028D01*
X007542Y022010D01*
X007348Y022010D01*
X007348Y023270D01*
X007261Y023358D01*
X006932Y023358D01*
X006577Y023713D01*
X006463Y023760D01*
X006339Y023760D01*
X006226Y023713D01*
X006138Y023626D01*
X006091Y023512D01*
X006091Y023388D01*
X006113Y023335D01*
X006048Y023270D01*
X006048Y021220D01*
X005857Y021141D01*
X005710Y020995D01*
X005631Y020803D01*
X005631Y020597D01*
X005710Y020405D01*
X005857Y020259D01*
X006000Y020200D01*
X005857Y020141D01*
X005710Y019995D01*
X005631Y019803D01*
X005631Y019597D01*
X005710Y019405D01*
X005766Y019350D01*
X000301Y019350D01*
X000301Y020678D01*
X000316Y020647D01*
X000365Y020581D01*
X000422Y020523D01*
X000489Y020475D01*
X000562Y020438D01*
X000639Y020413D01*
X000711Y020401D01*
X000711Y020870D01*
X000811Y020870D01*
X000811Y020401D01*
X000883Y020413D01*
X000961Y020438D01*
X001034Y020475D01*
X001100Y020523D01*
X001158Y020581D01*
X001206Y020647D01*
X001243Y020720D01*
X001268Y020798D01*
X001280Y020870D01*
X000811Y020870D01*
X000811Y020970D01*
X000711Y020970D01*
X000711Y021439D01*
X000639Y021427D01*
X000562Y021402D01*
X000489Y021365D01*
X000422Y021317D01*
X000365Y021259D01*
X000316Y021193D01*
X000301Y021162D01*
X000301Y023238D01*
X000316Y023207D01*
X000365Y023141D01*
X000422Y023083D01*
X000489Y023035D01*
X000562Y022998D01*
X000639Y022973D01*
X000711Y022961D01*
X000711Y023430D01*
X000811Y023430D01*
X000811Y022961D01*
X000883Y022973D01*
X000961Y022998D01*
X001034Y023035D01*
X001100Y023083D01*
X001158Y023141D01*
X001206Y023207D01*
X001243Y023280D01*
X001268Y023358D01*
X001280Y023430D01*
X000811Y023430D01*
X000811Y023530D01*
X000711Y023530D01*
X000711Y023999D01*
X000639Y023987D01*
X000562Y023962D01*
X000489Y023925D01*
X000422Y023877D01*
X000365Y023819D01*
X000316Y023753D01*
X000301Y023722D01*
X000301Y025046D01*
X038871Y025046D01*
X038871Y019350D01*
X038871Y019420D02*
X018606Y019420D01*
X018671Y019518D02*
X038871Y019518D01*
X038871Y019617D02*
X018671Y019617D01*
X018671Y019715D02*
X038871Y019715D01*
X038871Y019814D02*
X018671Y019814D01*
X018671Y019912D02*
X018738Y019912D01*
X019064Y019912D02*
X038871Y019912D01*
X038871Y020011D02*
X019176Y020011D01*
X019219Y020110D02*
X038871Y020110D01*
X038871Y020208D02*
X019229Y020208D01*
X019212Y020307D02*
X038871Y020307D01*
X038871Y020405D02*
X019160Y020405D01*
X019025Y020504D02*
X038871Y020504D01*
X038871Y020602D02*
X018671Y020602D01*
X018671Y020504D02*
X018777Y020504D01*
X018671Y020701D02*
X038871Y020701D01*
X038871Y020799D02*
X018671Y020799D01*
X018671Y020898D02*
X038871Y020898D01*
X038871Y020996D02*
X018671Y020996D01*
X018671Y021095D02*
X038871Y021095D01*
X038871Y021194D02*
X018610Y021194D01*
X017693Y021194D02*
X017393Y021194D01*
X017491Y021095D02*
X017631Y021095D01*
X017631Y020996D02*
X017590Y020996D01*
X017466Y021372D02*
X017587Y021422D01*
X017679Y021514D01*
X017729Y021635D01*
X017729Y021765D01*
X017679Y021886D01*
X017631Y021934D01*
X017631Y022966D01*
X017679Y023014D01*
X017729Y023135D01*
X017729Y023265D01*
X017679Y023386D01*
X017587Y023478D01*
X017466Y023528D01*
X017336Y023528D01*
X017215Y023478D01*
X017123Y023386D01*
X017073Y023265D01*
X017073Y023135D01*
X017123Y023014D01*
X017171Y022966D01*
X017171Y021934D01*
X017123Y021886D01*
X017073Y021765D01*
X017073Y021635D01*
X017123Y021514D01*
X017215Y021422D01*
X017336Y021372D01*
X017466Y021372D01*
X017512Y021391D02*
X038871Y021391D01*
X038871Y021489D02*
X017654Y021489D01*
X017710Y021588D02*
X038871Y021588D01*
X038871Y021686D02*
X017729Y021686D01*
X017721Y021785D02*
X038871Y021785D01*
X038871Y021883D02*
X017680Y021883D01*
X017631Y021982D02*
X038871Y021982D01*
X038871Y022080D02*
X017631Y022080D01*
X017631Y022179D02*
X038871Y022179D01*
X038871Y022278D02*
X017631Y022278D01*
X017631Y022376D02*
X038871Y022376D01*
X038871Y022475D02*
X017631Y022475D01*
X017631Y022573D02*
X038871Y022573D01*
X038871Y022672D02*
X017631Y022672D01*
X017631Y022770D02*
X038871Y022770D01*
X038871Y022869D02*
X017631Y022869D01*
X017632Y022967D02*
X038871Y022967D01*
X038871Y023066D02*
X017701Y023066D01*
X017729Y023164D02*
X038871Y023164D01*
X038871Y023263D02*
X017729Y023263D01*
X017689Y023361D02*
X038871Y023361D01*
X038871Y023460D02*
X017605Y023460D01*
X017197Y023460D02*
X016881Y023460D01*
X016881Y023361D02*
X017113Y023361D01*
X017073Y023263D02*
X016881Y023263D01*
X016881Y023164D02*
X017073Y023164D01*
X017102Y023066D02*
X016881Y023066D01*
X016881Y022967D02*
X017170Y022967D01*
X017171Y022869D02*
X016881Y022869D01*
X016881Y022770D02*
X017171Y022770D01*
X017171Y022672D02*
X016881Y022672D01*
X016881Y022573D02*
X017171Y022573D01*
X017171Y022475D02*
X016881Y022475D01*
X016881Y022376D02*
X017171Y022376D01*
X017171Y022278D02*
X016881Y022278D01*
X016881Y022179D02*
X017171Y022179D01*
X017171Y022080D02*
X016881Y022080D01*
X016881Y021982D02*
X017171Y021982D01*
X017122Y021883D02*
X016930Y021883D01*
X016929Y021886D02*
X016881Y021934D01*
X016881Y023716D01*
X016929Y023764D01*
X016979Y023885D01*
X016979Y024015D01*
X016929Y024136D01*
X016837Y024228D01*
X016716Y024278D01*
X016586Y024278D01*
X016465Y024228D01*
X016373Y024136D01*
X016323Y024015D01*
X016323Y023885D01*
X016373Y023764D01*
X016421Y023716D01*
X016421Y021934D01*
X016373Y021886D01*
X016323Y021765D01*
X016323Y021635D01*
X016373Y021514D01*
X016465Y021422D01*
X016586Y021372D01*
X016716Y021372D01*
X016837Y021422D01*
X016929Y021514D01*
X016979Y021635D01*
X016979Y021765D01*
X016929Y021886D01*
X016971Y021785D02*
X017081Y021785D01*
X017073Y021686D02*
X016979Y021686D01*
X016960Y021588D02*
X017093Y021588D01*
X017148Y021489D02*
X016904Y021489D01*
X016762Y021391D02*
X017291Y021391D01*
X016909Y021194D02*
X016393Y021194D01*
X016309Y021292D02*
X038871Y021292D01*
X038871Y023559D02*
X016881Y023559D01*
X016881Y023657D02*
X038871Y023657D01*
X038871Y023756D02*
X016921Y023756D01*
X016967Y023854D02*
X038871Y023854D01*
X038871Y023953D02*
X016979Y023953D01*
X016964Y024051D02*
X038871Y024051D01*
X038871Y024150D02*
X016915Y024150D01*
X016788Y024248D02*
X038871Y024248D01*
X038871Y024347D02*
X000301Y024347D01*
X000301Y024445D02*
X038871Y024445D01*
X038871Y024544D02*
X000301Y024544D01*
X000301Y024643D02*
X038871Y024643D01*
X038871Y024741D02*
X000301Y024741D01*
X000301Y024840D02*
X038871Y024840D01*
X038871Y024938D02*
X000301Y024938D01*
X000301Y025037D02*
X038871Y025037D01*
X038871Y025649D02*
X018536Y025649D01*
X018671Y025784D01*
X018671Y026215D01*
X018596Y026289D01*
X018647Y026289D01*
X018715Y026221D01*
X018836Y026171D01*
X018966Y026171D01*
X019087Y026221D01*
X019179Y026313D01*
X019229Y026434D01*
X019229Y026564D01*
X019179Y026685D01*
X019087Y026777D01*
X018966Y026827D01*
X018836Y026827D01*
X018715Y026777D01*
X018671Y026733D01*
X018671Y027431D01*
X018583Y027519D01*
X017719Y027519D01*
X017631Y027431D01*
X017631Y027254D01*
X017367Y027519D01*
X016936Y027519D01*
X016651Y027235D01*
X016367Y027519D01*
X016309Y027519D01*
X016309Y029589D01*
X016221Y029677D01*
X015097Y029677D01*
X015009Y029589D01*
X015009Y027465D01*
X015097Y027377D01*
X015793Y027377D01*
X015631Y027215D01*
X015631Y026844D01*
X015381Y027094D01*
X015246Y027229D01*
X011885Y027229D01*
X011837Y027277D01*
X011716Y027327D01*
X011586Y027327D01*
X011465Y027277D01*
X011373Y027185D01*
X011323Y027064D01*
X011323Y026934D01*
X011373Y026813D01*
X011457Y026729D01*
X008246Y026729D01*
X007979Y026996D01*
X007979Y027064D01*
X007929Y027185D01*
X007837Y027277D01*
X007716Y027327D01*
X007586Y027327D01*
X007465Y027277D01*
X007373Y027185D01*
X007323Y027064D01*
X007323Y026934D01*
X007373Y026813D01*
X007465Y026721D01*
X007586Y026671D01*
X007654Y026671D01*
X008056Y026269D01*
X008246Y026269D01*
X014417Y026269D01*
X014465Y026221D01*
X014586Y026171D01*
X014716Y026171D01*
X014837Y026221D01*
X014929Y026313D01*
X014979Y026434D01*
X014979Y026564D01*
X014929Y026685D01*
X014845Y026769D01*
X015056Y026769D01*
X015556Y026269D01*
X015686Y026269D01*
X015631Y026215D01*
X015631Y026049D01*
X016101Y026049D01*
X016101Y025949D01*
X015631Y025949D01*
X015631Y025784D01*
X015766Y025649D01*
X006536Y025649D01*
X006592Y025705D01*
X006671Y025896D01*
X006671Y026103D01*
X006592Y026294D01*
X006446Y026440D01*
X006303Y026499D01*
X006446Y026558D01*
X006592Y026705D01*
X006671Y026896D01*
X006671Y027103D01*
X006592Y027294D01*
X006529Y027357D01*
X007261Y027357D01*
X007348Y027445D01*
X007348Y027689D01*
X007542Y027689D01*
X007586Y027671D01*
X007716Y027671D01*
X007837Y027721D01*
X007929Y027813D01*
X007979Y027934D01*
X007979Y028064D01*
X007929Y028185D01*
X007837Y028277D01*
X007716Y028327D01*
X007586Y028327D01*
X007542Y028309D01*
X007348Y028309D01*
X007348Y029569D01*
X007261Y029657D01*
X006932Y029657D01*
X006577Y030012D01*
X006463Y030059D01*
X006339Y030059D01*
X006226Y030012D01*
X006138Y029925D01*
X006091Y029811D01*
X006091Y029688D01*
X006113Y029634D01*
X006048Y029569D01*
X006048Y027519D01*
X005857Y027440D01*
X005710Y027294D01*
X005631Y027103D01*
X005631Y026896D01*
X005710Y026705D01*
X005857Y026558D01*
X006000Y026499D01*
X005857Y026440D01*
X005710Y026294D01*
X005631Y026103D01*
X005631Y025896D01*
X005710Y025705D01*
X005766Y025649D01*
X000301Y025649D01*
X000301Y026977D01*
X000316Y026947D01*
X000365Y026880D01*
X000422Y026823D01*
X000489Y026774D01*
X000562Y026737D01*
X000639Y026712D01*
X000711Y026701D01*
X000711Y027169D01*
X000811Y027169D01*
X000811Y026701D01*
X000883Y026712D01*
X000961Y026737D01*
X001034Y026774D01*
X001100Y026823D01*
X001158Y026880D01*
X001206Y026947D01*
X001243Y027020D01*
X001268Y027097D01*
X001280Y027169D01*
X000811Y027169D01*
X000811Y027269D01*
X000711Y027269D01*
X000711Y027738D01*
X000639Y027726D01*
X000562Y027701D01*
X000489Y027664D01*
X000422Y027616D01*
X000365Y027558D01*
X000316Y027492D01*
X000301Y027462D01*
X000301Y029537D01*
X000316Y029507D01*
X000365Y029440D01*
X000422Y029383D01*
X000489Y029334D01*
X000562Y029297D01*
X000639Y029272D01*
X000711Y029261D01*
X000711Y029729D01*
X000811Y029729D01*
X000811Y029261D01*
X000883Y029272D01*
X000961Y029297D01*
X001034Y029334D01*
X001100Y029383D01*
X001158Y029440D01*
X001206Y029507D01*
X001243Y029580D01*
X001268Y029657D01*
X001280Y029729D01*
X000811Y029729D01*
X000811Y029829D01*
X000711Y029829D01*
X000711Y030298D01*
X000639Y030286D01*
X000562Y030261D01*
X000489Y030224D01*
X000422Y030176D01*
X000365Y030118D01*
X000316Y030052D01*
X000301Y030022D01*
X000301Y031345D01*
X038871Y031345D01*
X038871Y025649D01*
X038871Y025727D02*
X018614Y025727D01*
X018671Y025825D02*
X038871Y025825D01*
X038871Y025924D02*
X018671Y025924D01*
X018671Y026022D02*
X038871Y026022D01*
X038871Y026121D02*
X018671Y026121D01*
X018666Y026219D02*
X018720Y026219D01*
X019083Y026219D02*
X038871Y026219D01*
X038871Y026318D02*
X019181Y026318D01*
X019222Y026416D02*
X038871Y026416D01*
X038871Y026515D02*
X019229Y026515D01*
X019209Y026613D02*
X038871Y026613D01*
X038871Y026712D02*
X019152Y026712D01*
X019007Y026811D02*
X038871Y026811D01*
X038871Y026909D02*
X018671Y026909D01*
X018671Y026811D02*
X018795Y026811D01*
X018671Y027008D02*
X038871Y027008D01*
X038871Y027106D02*
X018671Y027106D01*
X018671Y027205D02*
X038871Y027205D01*
X038871Y027303D02*
X018671Y027303D01*
X018671Y027402D02*
X038871Y027402D01*
X038871Y027500D02*
X018602Y027500D01*
X017700Y027500D02*
X017385Y027500D01*
X017484Y027402D02*
X017631Y027402D01*
X017631Y027303D02*
X017582Y027303D01*
X017466Y027671D02*
X017587Y027721D01*
X017679Y027813D01*
X017729Y027934D01*
X017729Y028064D01*
X017679Y028185D01*
X017631Y028233D01*
X017631Y029265D01*
X017679Y029313D01*
X017729Y029434D01*
X017729Y029564D01*
X017679Y029685D01*
X017587Y029777D01*
X017466Y029827D01*
X017336Y029827D01*
X017215Y029777D01*
X017123Y029685D01*
X017073Y029564D01*
X017073Y029434D01*
X017123Y029313D01*
X017171Y029265D01*
X017171Y028233D01*
X017123Y028185D01*
X017073Y028064D01*
X017073Y027934D01*
X017123Y027813D01*
X017215Y027721D01*
X017336Y027671D01*
X017466Y027671D01*
X017530Y027697D02*
X038871Y027697D01*
X038871Y027599D02*
X016309Y027599D01*
X016309Y027697D02*
X016522Y027697D01*
X016465Y027721D02*
X016586Y027671D01*
X016716Y027671D01*
X016837Y027721D01*
X016929Y027813D01*
X016979Y027934D01*
X016979Y028064D01*
X016929Y028185D01*
X016881Y028233D01*
X016881Y030015D01*
X016929Y030063D01*
X016979Y030184D01*
X016979Y030314D01*
X016929Y030435D01*
X016837Y030527D01*
X016716Y030577D01*
X016586Y030577D01*
X016465Y030527D01*
X016373Y030435D01*
X016323Y030314D01*
X016323Y030184D01*
X016373Y030063D01*
X016421Y030015D01*
X016421Y028233D01*
X016373Y028185D01*
X016323Y028064D01*
X016323Y027934D01*
X016373Y027813D01*
X016465Y027721D01*
X016390Y027796D02*
X016309Y027796D01*
X016309Y027894D02*
X016339Y027894D01*
X016323Y027993D02*
X016309Y027993D01*
X016309Y028092D02*
X016334Y028092D01*
X016309Y028190D02*
X016378Y028190D01*
X016421Y028289D02*
X016309Y028289D01*
X016309Y028387D02*
X016421Y028387D01*
X016421Y028486D02*
X016309Y028486D01*
X016309Y028584D02*
X016421Y028584D01*
X016421Y028683D02*
X016309Y028683D01*
X016309Y028781D02*
X016421Y028781D01*
X016421Y028880D02*
X016309Y028880D01*
X016309Y028978D02*
X016421Y028978D01*
X016421Y029077D02*
X016309Y029077D01*
X016309Y029176D02*
X016421Y029176D01*
X016421Y029274D02*
X016309Y029274D01*
X016309Y029373D02*
X016421Y029373D01*
X016421Y029471D02*
X016309Y029471D01*
X016309Y029570D02*
X016421Y029570D01*
X016421Y029668D02*
X016230Y029668D01*
X016421Y029767D02*
X006822Y029767D01*
X006723Y029865D02*
X016421Y029865D01*
X016421Y029964D02*
X006625Y029964D01*
X006920Y029668D02*
X015088Y029668D01*
X015009Y029570D02*
X011862Y029570D01*
X011870Y029557D02*
X011850Y029591D01*
X011822Y029619D01*
X011788Y029639D01*
X011750Y029649D01*
X011280Y029649D01*
X011280Y028549D01*
X011880Y028549D01*
X011880Y029519D01*
X011870Y029557D01*
X011880Y029471D02*
X015009Y029471D01*
X015009Y029373D02*
X011880Y029373D01*
X011880Y029274D02*
X015009Y029274D01*
X015009Y029176D02*
X011880Y029176D01*
X011880Y029077D02*
X015009Y029077D01*
X015009Y028978D02*
X011880Y028978D01*
X011880Y028880D02*
X015009Y028880D01*
X015009Y028781D02*
X011880Y028781D01*
X011880Y028683D02*
X015009Y028683D01*
X015009Y028584D02*
X011880Y028584D01*
X011880Y028449D02*
X011880Y027479D01*
X011870Y027441D01*
X011850Y027407D01*
X011822Y027379D01*
X011788Y027359D01*
X011750Y027349D01*
X011280Y027349D01*
X011280Y028449D01*
X011180Y028449D01*
X011180Y027349D01*
X010710Y027349D01*
X010672Y027359D01*
X010638Y027379D01*
X010610Y027407D01*
X010590Y027441D01*
X010580Y027479D01*
X010580Y028449D01*
X011180Y028449D01*
X011180Y028549D01*
X010580Y028549D01*
X010580Y029519D01*
X010590Y029557D01*
X010610Y029591D01*
X010638Y029619D01*
X010672Y029639D01*
X010710Y029649D01*
X011180Y029649D01*
X011180Y028549D01*
X011280Y028549D01*
X011280Y028449D01*
X011880Y028449D01*
X011880Y028387D02*
X015009Y028387D01*
X015009Y028289D02*
X011880Y028289D01*
X011880Y028190D02*
X015009Y028190D01*
X015009Y028092D02*
X011880Y028092D01*
X011880Y027993D02*
X015009Y027993D01*
X015009Y027894D02*
X011880Y027894D01*
X011880Y027796D02*
X015009Y027796D01*
X015009Y027697D02*
X011880Y027697D01*
X011880Y027599D02*
X015009Y027599D01*
X015009Y027500D02*
X011880Y027500D01*
X011845Y027402D02*
X015072Y027402D01*
X015271Y027205D02*
X015631Y027205D01*
X015631Y027106D02*
X015369Y027106D01*
X015468Y027008D02*
X015631Y027008D01*
X015631Y026909D02*
X015567Y026909D01*
X015720Y027303D02*
X011775Y027303D01*
X011528Y027303D02*
X007775Y027303D01*
X007910Y027205D02*
X011393Y027205D01*
X011340Y027106D02*
X007962Y027106D01*
X007979Y027008D02*
X011323Y027008D01*
X011333Y026909D02*
X008067Y026909D01*
X008165Y026811D02*
X011376Y026811D01*
X011280Y027402D02*
X011180Y027402D01*
X011180Y027500D02*
X011280Y027500D01*
X011280Y027599D02*
X011180Y027599D01*
X011180Y027697D02*
X011280Y027697D01*
X011280Y027796D02*
X011180Y027796D01*
X011180Y027894D02*
X011280Y027894D01*
X011280Y027993D02*
X011180Y027993D01*
X011180Y028092D02*
X011280Y028092D01*
X011280Y028190D02*
X011180Y028190D01*
X011180Y028289D02*
X011280Y028289D01*
X011280Y028387D02*
X011180Y028387D01*
X011180Y028486D02*
X007348Y028486D01*
X007348Y028584D02*
X010580Y028584D01*
X010580Y028683D02*
X007348Y028683D01*
X007348Y028781D02*
X010580Y028781D01*
X010580Y028880D02*
X007348Y028880D01*
X007348Y028978D02*
X010580Y028978D01*
X010580Y029077D02*
X007348Y029077D01*
X007348Y029176D02*
X010580Y029176D01*
X010580Y029274D02*
X007348Y029274D01*
X007348Y029373D02*
X010580Y029373D01*
X010580Y029471D02*
X007348Y029471D01*
X007348Y029570D02*
X010597Y029570D01*
X011180Y029570D02*
X011280Y029570D01*
X011280Y029471D02*
X011180Y029471D01*
X011180Y029373D02*
X011280Y029373D01*
X011280Y029274D02*
X011180Y029274D01*
X011180Y029176D02*
X011280Y029176D01*
X011280Y029077D02*
X011180Y029077D01*
X011180Y028978D02*
X011280Y028978D01*
X011280Y028880D02*
X011180Y028880D01*
X011180Y028781D02*
X011280Y028781D01*
X011280Y028683D02*
X011180Y028683D01*
X011180Y028584D02*
X011280Y028584D01*
X011280Y028486D02*
X015009Y028486D01*
X016385Y027500D02*
X016917Y027500D01*
X016818Y027402D02*
X016484Y027402D01*
X016582Y027303D02*
X016720Y027303D01*
X016780Y027697D02*
X017272Y027697D01*
X017140Y027796D02*
X016912Y027796D01*
X016963Y027894D02*
X017089Y027894D01*
X017073Y027993D02*
X016979Y027993D01*
X016968Y028092D02*
X017084Y028092D01*
X017128Y028190D02*
X016924Y028190D01*
X016881Y028289D02*
X017171Y028289D01*
X017171Y028387D02*
X016881Y028387D01*
X016881Y028486D02*
X017171Y028486D01*
X017171Y028584D02*
X016881Y028584D01*
X016881Y028683D02*
X017171Y028683D01*
X017171Y028781D02*
X016881Y028781D01*
X016881Y028880D02*
X017171Y028880D01*
X017171Y028978D02*
X016881Y028978D01*
X016881Y029077D02*
X017171Y029077D01*
X017171Y029176D02*
X016881Y029176D01*
X016881Y029274D02*
X017162Y029274D01*
X017098Y029373D02*
X016881Y029373D01*
X016881Y029471D02*
X017073Y029471D01*
X017075Y029570D02*
X016881Y029570D01*
X016881Y029668D02*
X017116Y029668D01*
X017205Y029767D02*
X016881Y029767D01*
X016881Y029865D02*
X038871Y029865D01*
X038871Y029767D02*
X017598Y029767D01*
X017686Y029668D02*
X038871Y029668D01*
X038871Y029570D02*
X017727Y029570D01*
X017729Y029471D02*
X038871Y029471D01*
X038871Y029373D02*
X017704Y029373D01*
X017640Y029274D02*
X038871Y029274D01*
X038871Y029176D02*
X017631Y029176D01*
X017631Y029077D02*
X038871Y029077D01*
X038871Y028978D02*
X017631Y028978D01*
X017631Y028880D02*
X038871Y028880D01*
X038871Y028781D02*
X017631Y028781D01*
X017631Y028683D02*
X038871Y028683D01*
X038871Y028584D02*
X017631Y028584D01*
X017631Y028486D02*
X038871Y028486D01*
X038871Y028387D02*
X017631Y028387D01*
X017631Y028289D02*
X038871Y028289D01*
X038871Y028190D02*
X017674Y028190D01*
X017718Y028092D02*
X038871Y028092D01*
X038871Y027993D02*
X017729Y027993D01*
X017713Y027894D02*
X038871Y027894D01*
X038871Y027796D02*
X017662Y027796D01*
X016101Y026022D02*
X006671Y026022D01*
X006671Y025924D02*
X015631Y025924D01*
X015631Y025825D02*
X006642Y025825D01*
X006601Y025727D02*
X015688Y025727D01*
X015631Y026121D02*
X006664Y026121D01*
X006623Y026219D02*
X014470Y026219D01*
X014833Y026219D02*
X015636Y026219D01*
X015507Y026318D02*
X014931Y026318D01*
X014972Y026416D02*
X015409Y026416D01*
X015310Y026515D02*
X014979Y026515D01*
X014959Y026613D02*
X015212Y026613D01*
X015113Y026712D02*
X014902Y026712D01*
X016514Y024248D02*
X000301Y024248D01*
X000301Y024150D02*
X016387Y024150D01*
X016338Y024051D02*
X000301Y024051D01*
X000301Y023953D02*
X000544Y023953D01*
X000711Y023953D02*
X000811Y023953D01*
X000811Y023999D02*
X000811Y023530D01*
X001280Y023530D01*
X001268Y023602D01*
X001243Y023680D01*
X001206Y023753D01*
X001158Y023819D01*
X001100Y023877D01*
X001034Y023925D01*
X000961Y023962D01*
X000883Y023987D01*
X000811Y023999D01*
X000811Y023854D02*
X000711Y023854D01*
X000711Y023756D02*
X000811Y023756D01*
X000811Y023657D02*
X000711Y023657D01*
X000711Y023559D02*
X000811Y023559D01*
X000811Y023460D02*
X002021Y023460D01*
X002021Y023377D02*
X002100Y023185D01*
X002247Y023039D01*
X002438Y022960D01*
X002645Y022960D01*
X002836Y023039D01*
X002982Y023185D01*
X003061Y023377D01*
X003061Y023583D01*
X002982Y023775D01*
X002836Y023921D01*
X002645Y024000D01*
X002438Y024000D01*
X002247Y023921D01*
X002100Y023775D01*
X002021Y023583D01*
X002021Y023377D01*
X002027Y023361D02*
X001269Y023361D01*
X001234Y023263D02*
X002068Y023263D01*
X002121Y023164D02*
X001175Y023164D01*
X001076Y023066D02*
X002220Y023066D01*
X002420Y022967D02*
X000848Y022967D01*
X000811Y022967D02*
X000711Y022967D01*
X000674Y022967D02*
X000301Y022967D01*
X000301Y022869D02*
X004366Y022869D01*
X004373Y022886D02*
X004323Y022765D01*
X004323Y022754D01*
X004289Y022720D01*
X002845Y022720D01*
X002837Y022728D01*
X002716Y022778D01*
X002586Y022778D01*
X002465Y022728D01*
X002373Y022636D01*
X002323Y022515D01*
X002323Y022385D01*
X002373Y022264D01*
X002465Y022172D01*
X002586Y022122D01*
X002716Y022122D01*
X002837Y022172D01*
X002845Y022180D01*
X004347Y022180D01*
X004455Y022180D01*
X004554Y022221D01*
X004705Y022372D01*
X004716Y022372D01*
X004837Y022422D01*
X004929Y022514D01*
X004979Y022635D01*
X004979Y022765D01*
X004929Y022886D01*
X004837Y022978D01*
X004716Y023028D01*
X004586Y023028D01*
X004465Y022978D01*
X004373Y022886D01*
X004455Y022967D02*
X002662Y022967D01*
X002735Y022770D02*
X004325Y022770D01*
X003945Y023066D02*
X006048Y023066D01*
X006048Y023164D02*
X004043Y023164D01*
X004075Y023196D02*
X004151Y023380D01*
X004151Y023579D01*
X004075Y023763D01*
X003934Y023903D01*
X003751Y023979D01*
X003552Y023979D01*
X003368Y023903D01*
X003227Y023763D01*
X003151Y023579D01*
X003151Y023380D01*
X003227Y023196D01*
X003368Y023056D01*
X003552Y022980D01*
X003751Y022980D01*
X003934Y023056D01*
X004075Y023196D01*
X004103Y023263D02*
X006048Y023263D01*
X006102Y023361D02*
X004143Y023361D01*
X004151Y023460D02*
X006091Y023460D01*
X006111Y023559D02*
X004151Y023559D01*
X004119Y023657D02*
X006170Y023657D01*
X006329Y023756D02*
X004078Y023756D01*
X003984Y023854D02*
X016336Y023854D01*
X016323Y023953D02*
X003815Y023953D01*
X003487Y023953D02*
X002759Y023953D01*
X002902Y023854D02*
X003319Y023854D01*
X003224Y023756D02*
X002990Y023756D01*
X003031Y023657D02*
X003184Y023657D01*
X003151Y023559D02*
X003061Y023559D01*
X003061Y023460D02*
X003151Y023460D01*
X003159Y023361D02*
X003055Y023361D01*
X003014Y023263D02*
X003200Y023263D01*
X003259Y023164D02*
X002961Y023164D01*
X002862Y023066D02*
X003358Y023066D01*
X002567Y022770D02*
X000301Y022770D01*
X000301Y022672D02*
X002409Y022672D01*
X002347Y022573D02*
X000301Y022573D01*
X000301Y022475D02*
X002323Y022475D01*
X002327Y022376D02*
X000301Y022376D01*
X000301Y022278D02*
X002367Y022278D01*
X002458Y022179D02*
X000301Y022179D01*
X000301Y022080D02*
X006048Y022080D01*
X006048Y021982D02*
X000301Y021982D01*
X000301Y021883D02*
X006048Y021883D01*
X006048Y021785D02*
X000301Y021785D01*
X000301Y021686D02*
X006048Y021686D01*
X006048Y021588D02*
X000301Y021588D01*
X000301Y021489D02*
X006048Y021489D01*
X006048Y021391D02*
X003823Y021391D01*
X003751Y021420D02*
X003552Y021420D01*
X003368Y021344D01*
X003227Y021204D01*
X003151Y021020D01*
X003151Y020821D01*
X003227Y020637D01*
X003368Y020497D01*
X003552Y020420D01*
X003751Y020420D01*
X003934Y020497D01*
X004075Y020637D01*
X004151Y020821D01*
X004151Y021020D01*
X004075Y021204D01*
X003934Y021344D01*
X003751Y021420D01*
X003987Y021292D02*
X006048Y021292D01*
X006048Y021220D02*
X006048Y021220D01*
X005984Y021194D02*
X004079Y021194D01*
X004120Y021095D02*
X005811Y021095D01*
X005712Y020996D02*
X004151Y020996D01*
X004151Y020898D02*
X005670Y020898D01*
X005631Y020799D02*
X004142Y020799D01*
X004101Y020701D02*
X005631Y020701D01*
X005631Y020602D02*
X004040Y020602D01*
X003942Y020504D02*
X005670Y020504D01*
X005711Y020405D02*
X002657Y020405D01*
X002645Y020400D02*
X002836Y020479D01*
X002982Y020625D01*
X003061Y020817D01*
X003061Y021023D01*
X002982Y021215D01*
X002836Y021361D01*
X002645Y021440D01*
X002438Y021440D01*
X002247Y021361D01*
X002100Y021215D01*
X002021Y021023D01*
X002021Y020817D01*
X002100Y020625D01*
X002247Y020479D01*
X002438Y020400D01*
X002645Y020400D01*
X002425Y020405D02*
X000835Y020405D01*
X000811Y020405D02*
X000711Y020405D01*
X000687Y020405D02*
X000301Y020405D01*
X000301Y020307D02*
X005809Y020307D01*
X005980Y020208D02*
X000301Y020208D01*
X000301Y020110D02*
X005825Y020110D01*
X005727Y020011D02*
X000301Y020011D01*
X000301Y019912D02*
X005676Y019912D01*
X005636Y019814D02*
X000301Y019814D01*
X000301Y019715D02*
X005631Y019715D01*
X005631Y019617D02*
X000301Y019617D01*
X000301Y019518D02*
X005664Y019518D01*
X005704Y019420D02*
X000301Y019420D01*
X000301Y020504D02*
X000449Y020504D01*
X000349Y020602D02*
X000301Y020602D01*
X000711Y020602D02*
X000811Y020602D01*
X000811Y020504D02*
X000711Y020504D01*
X000711Y020701D02*
X000811Y020701D01*
X000811Y020799D02*
X000711Y020799D01*
X000811Y020898D02*
X002021Y020898D01*
X002021Y020996D02*
X001276Y020996D01*
X001280Y020970D02*
X001268Y021042D01*
X001243Y021120D01*
X001206Y021193D01*
X001158Y021259D01*
X001100Y021317D01*
X001034Y021365D01*
X000961Y021402D01*
X000883Y021427D01*
X000811Y021439D01*
X000811Y020970D01*
X001280Y020970D01*
X001251Y021095D02*
X002051Y021095D01*
X002092Y021194D02*
X001205Y021194D01*
X001124Y021292D02*
X002178Y021292D01*
X002319Y021391D02*
X000983Y021391D01*
X000811Y021391D02*
X000711Y021391D01*
X000711Y021292D02*
X000811Y021292D01*
X000811Y021194D02*
X000711Y021194D01*
X000711Y021095D02*
X000811Y021095D01*
X000811Y020996D02*
X000711Y020996D01*
X000540Y021391D02*
X000301Y021391D01*
X000301Y021292D02*
X000398Y021292D01*
X000317Y021194D02*
X000301Y021194D01*
X001073Y020504D02*
X002222Y020504D01*
X002124Y020602D02*
X001173Y020602D01*
X001233Y020701D02*
X002069Y020701D01*
X002028Y020799D02*
X001269Y020799D01*
X002764Y021391D02*
X003480Y021391D01*
X003316Y021292D02*
X002904Y021292D01*
X002991Y021194D02*
X003223Y021194D01*
X003182Y021095D02*
X003031Y021095D01*
X003061Y020996D02*
X003151Y020996D01*
X003151Y020898D02*
X003061Y020898D01*
X003054Y020799D02*
X003160Y020799D01*
X003201Y020701D02*
X003013Y020701D01*
X002959Y020602D02*
X003262Y020602D01*
X003361Y020504D02*
X002860Y020504D01*
X002844Y022179D02*
X006048Y022179D01*
X006048Y022278D02*
X004611Y022278D01*
X004726Y022376D02*
X006048Y022376D01*
X006048Y022475D02*
X004890Y022475D01*
X004954Y022573D02*
X006048Y022573D01*
X006048Y022672D02*
X004979Y022672D01*
X004977Y022770D02*
X006048Y022770D01*
X006048Y022869D02*
X004936Y022869D01*
X004848Y022967D02*
X006048Y022967D01*
X006731Y023559D02*
X016421Y023559D01*
X016421Y023657D02*
X006632Y023657D01*
X006473Y023756D02*
X016381Y023756D01*
X016421Y023460D02*
X006829Y023460D01*
X006928Y023361D02*
X015081Y023361D01*
X015009Y023263D02*
X011867Y023263D01*
X011870Y023258D02*
X011850Y023292D01*
X011822Y023320D01*
X011788Y023340D01*
X011750Y023350D01*
X011280Y023350D01*
X011280Y022250D01*
X011880Y022250D01*
X011880Y023220D01*
X011870Y023258D01*
X011880Y023164D02*
X015009Y023164D01*
X015009Y023066D02*
X011880Y023066D01*
X011880Y022967D02*
X015009Y022967D01*
X015009Y022869D02*
X011880Y022869D01*
X011880Y022770D02*
X015009Y022770D01*
X015009Y022672D02*
X011880Y022672D01*
X011880Y022573D02*
X015009Y022573D01*
X015009Y022475D02*
X011880Y022475D01*
X011880Y022376D02*
X015009Y022376D01*
X015009Y022278D02*
X011880Y022278D01*
X011880Y022150D02*
X011880Y021180D01*
X011870Y021142D01*
X011850Y021108D01*
X011822Y021080D01*
X011788Y021060D01*
X011750Y021050D01*
X011280Y021050D01*
X011280Y022150D01*
X011280Y022250D01*
X011180Y022250D01*
X011180Y023350D01*
X010710Y023350D01*
X010672Y023340D01*
X010638Y023320D01*
X010610Y023292D01*
X010590Y023258D01*
X010580Y023220D01*
X010580Y022250D01*
X011180Y022250D01*
X011180Y022150D01*
X011280Y022150D01*
X011880Y022150D01*
X011880Y022080D02*
X015009Y022080D01*
X015009Y021982D02*
X011880Y021982D01*
X011880Y021883D02*
X015009Y021883D01*
X015009Y021785D02*
X011880Y021785D01*
X011880Y021686D02*
X015009Y021686D01*
X015009Y021588D02*
X011880Y021588D01*
X011880Y021489D02*
X015009Y021489D01*
X015009Y021391D02*
X011880Y021391D01*
X011880Y021292D02*
X015009Y021292D01*
X015009Y021194D02*
X011880Y021194D01*
X011837Y021095D02*
X015079Y021095D01*
X015278Y020898D02*
X015631Y020898D01*
X015631Y020799D02*
X015377Y020799D01*
X015476Y020701D02*
X015631Y020701D01*
X015631Y020602D02*
X015574Y020602D01*
X015712Y020996D02*
X011793Y020996D01*
X011510Y020996D02*
X007793Y020996D01*
X007917Y020898D02*
X011385Y020898D01*
X011337Y020799D02*
X007965Y020799D01*
X007979Y020701D02*
X011323Y020701D01*
X011336Y020602D02*
X008074Y020602D01*
X008173Y020504D02*
X011383Y020504D01*
X011180Y021050D02*
X010710Y021050D01*
X010672Y021060D01*
X010638Y021080D01*
X010610Y021108D01*
X010590Y021142D01*
X010580Y021180D01*
X010580Y022150D01*
X011180Y022150D01*
X011180Y021050D01*
X011180Y021095D02*
X011280Y021095D01*
X011280Y021194D02*
X011180Y021194D01*
X011180Y021292D02*
X011280Y021292D01*
X011280Y021391D02*
X011180Y021391D01*
X011180Y021489D02*
X011280Y021489D01*
X011280Y021588D02*
X011180Y021588D01*
X011180Y021686D02*
X011280Y021686D01*
X011280Y021785D02*
X011180Y021785D01*
X011180Y021883D02*
X011280Y021883D01*
X011280Y021982D02*
X011180Y021982D01*
X011180Y022080D02*
X011280Y022080D01*
X011280Y022179D02*
X015009Y022179D01*
X016309Y022179D02*
X016421Y022179D01*
X016421Y022278D02*
X016309Y022278D01*
X016309Y022376D02*
X016421Y022376D01*
X016421Y022475D02*
X016309Y022475D01*
X016309Y022573D02*
X016421Y022573D01*
X016421Y022672D02*
X016309Y022672D01*
X016309Y022770D02*
X016421Y022770D01*
X016421Y022869D02*
X016309Y022869D01*
X016309Y022967D02*
X016421Y022967D01*
X016421Y023066D02*
X016309Y023066D01*
X016309Y023164D02*
X016421Y023164D01*
X016421Y023263D02*
X016309Y023263D01*
X016237Y023361D02*
X016421Y023361D01*
X016421Y022080D02*
X016309Y022080D01*
X016309Y021982D02*
X016421Y021982D01*
X016372Y021883D02*
X016309Y021883D01*
X016309Y021785D02*
X016331Y021785D01*
X016323Y021686D02*
X016309Y021686D01*
X016309Y021588D02*
X016343Y021588D01*
X016309Y021489D02*
X016398Y021489D01*
X016309Y021391D02*
X016541Y021391D01*
X016491Y021095D02*
X016811Y021095D01*
X016712Y020996D02*
X016590Y020996D01*
X015631Y019912D02*
X014814Y019912D01*
X014926Y020011D02*
X015515Y020011D01*
X015416Y020110D02*
X014969Y020110D01*
X014979Y020208D02*
X015318Y020208D01*
X015219Y020307D02*
X014962Y020307D01*
X014910Y020405D02*
X015121Y020405D01*
X015631Y019814D02*
X006667Y019814D01*
X006671Y019715D02*
X016101Y019715D01*
X015631Y019617D02*
X006671Y019617D01*
X006639Y019518D02*
X015631Y019518D01*
X015696Y019420D02*
X006598Y019420D01*
X006626Y019912D02*
X014488Y019912D01*
X011280Y022278D02*
X011180Y022278D01*
X011180Y022376D02*
X011280Y022376D01*
X011280Y022475D02*
X011180Y022475D01*
X011180Y022573D02*
X011280Y022573D01*
X011280Y022672D02*
X011180Y022672D01*
X011180Y022770D02*
X011280Y022770D01*
X011280Y022869D02*
X011180Y022869D01*
X011180Y022967D02*
X011280Y022967D01*
X011280Y023066D02*
X011180Y023066D01*
X011180Y023164D02*
X011280Y023164D01*
X011280Y023263D02*
X011180Y023263D01*
X010593Y023263D02*
X007348Y023263D01*
X007348Y023164D02*
X010580Y023164D01*
X010580Y023066D02*
X007348Y023066D01*
X007348Y022967D02*
X010580Y022967D01*
X010580Y022869D02*
X007348Y022869D01*
X007348Y022770D02*
X010580Y022770D01*
X010580Y022672D02*
X007348Y022672D01*
X007348Y022573D02*
X010580Y022573D01*
X010580Y022475D02*
X007348Y022475D01*
X007348Y022376D02*
X010580Y022376D01*
X010580Y022278D02*
X007348Y022278D01*
X007348Y022179D02*
X011180Y022179D01*
X010580Y022080D02*
X007348Y022080D01*
X007828Y021982D02*
X010580Y021982D01*
X010580Y021883D02*
X007930Y021883D01*
X007971Y021785D02*
X010580Y021785D01*
X010580Y021686D02*
X007979Y021686D01*
X007960Y021588D02*
X010580Y021588D01*
X010580Y021489D02*
X007904Y021489D01*
X007762Y021391D02*
X010580Y021391D01*
X010580Y021292D02*
X007348Y021292D01*
X007348Y021194D02*
X010580Y021194D01*
X010623Y021095D02*
X007298Y021095D01*
X007385Y020898D02*
X006632Y020898D01*
X006671Y020799D02*
X007337Y020799D01*
X007323Y020701D02*
X006671Y020701D01*
X006671Y020602D02*
X007336Y020602D01*
X007510Y020996D02*
X006590Y020996D01*
X006671Y020597D02*
X006592Y020405D01*
X006493Y020307D02*
X007719Y020307D01*
X007818Y020208D02*
X006322Y020208D01*
X006477Y020110D02*
X007916Y020110D01*
X008015Y020011D02*
X006575Y020011D01*
X002021Y023559D02*
X001275Y023559D01*
X001250Y023657D02*
X002052Y023657D01*
X002093Y023756D02*
X001204Y023756D01*
X001122Y023854D02*
X002180Y023854D01*
X002324Y023953D02*
X000979Y023953D01*
X000400Y023854D02*
X000301Y023854D01*
X000301Y023756D02*
X000319Y023756D01*
X000711Y023361D02*
X000811Y023361D01*
X000811Y023263D02*
X000711Y023263D01*
X000711Y023164D02*
X000811Y023164D01*
X000811Y023066D02*
X000711Y023066D01*
X000446Y023066D02*
X000301Y023066D01*
X000301Y023164D02*
X000348Y023164D01*
X000301Y025727D02*
X005701Y025727D01*
X005660Y025825D02*
X000301Y025825D01*
X000301Y025924D02*
X005631Y025924D01*
X005631Y026022D02*
X000301Y026022D01*
X000301Y026121D02*
X005639Y026121D01*
X005680Y026219D02*
X000301Y026219D01*
X000301Y026318D02*
X005734Y026318D01*
X005833Y026416D02*
X000301Y026416D01*
X000301Y026515D02*
X005962Y026515D01*
X005802Y026613D02*
X000301Y026613D01*
X000301Y026712D02*
X000640Y026712D01*
X000711Y026712D02*
X000811Y026712D01*
X000883Y026712D02*
X002407Y026712D01*
X002438Y026699D02*
X002645Y026699D01*
X002836Y026778D01*
X002982Y026925D01*
X003061Y027116D01*
X003061Y027323D01*
X002982Y027514D01*
X002836Y027660D01*
X002645Y027739D01*
X002438Y027739D01*
X002247Y027660D01*
X002100Y027514D01*
X002021Y027323D01*
X002021Y027116D01*
X002100Y026925D01*
X002247Y026778D01*
X002438Y026699D01*
X002675Y026712D02*
X005707Y026712D01*
X005666Y026811D02*
X003949Y026811D01*
X003934Y026796D02*
X004075Y026936D01*
X004151Y027120D01*
X004151Y027319D01*
X004075Y027503D01*
X003934Y027644D01*
X003751Y027720D01*
X003552Y027720D01*
X003368Y027644D01*
X003227Y027503D01*
X003151Y027319D01*
X003151Y027120D01*
X003227Y026936D01*
X003368Y026796D01*
X003552Y026720D01*
X003751Y026720D01*
X003934Y026796D01*
X004048Y026909D02*
X005631Y026909D01*
X005631Y027008D02*
X004104Y027008D01*
X004145Y027106D02*
X005633Y027106D01*
X005673Y027205D02*
X004151Y027205D01*
X004151Y027303D02*
X005720Y027303D01*
X005818Y027402D02*
X004117Y027402D01*
X004076Y027500D02*
X006002Y027500D01*
X006048Y027519D02*
X006048Y027519D01*
X006048Y027599D02*
X003979Y027599D01*
X003804Y027697D02*
X006048Y027697D01*
X006048Y027796D02*
X000301Y027796D01*
X000301Y027894D02*
X006048Y027894D01*
X006048Y027993D02*
X000301Y027993D01*
X000301Y028092D02*
X006048Y028092D01*
X006048Y028190D02*
X000301Y028190D01*
X000301Y028289D02*
X006048Y028289D01*
X006048Y028387D02*
X000301Y028387D01*
X000301Y028486D02*
X002451Y028486D01*
X002465Y028471D02*
X002586Y028421D01*
X002716Y028421D01*
X002837Y028471D01*
X002845Y028479D01*
X004347Y028479D01*
X004455Y028479D01*
X004554Y028520D01*
X004705Y028671D01*
X004716Y028671D01*
X004837Y028721D01*
X004929Y028813D01*
X004979Y028934D01*
X004979Y029064D01*
X004929Y029185D01*
X004837Y029277D01*
X004716Y029327D01*
X004586Y029327D01*
X004465Y029277D01*
X004373Y029185D01*
X004323Y029064D01*
X004323Y029053D01*
X004289Y029019D01*
X002845Y029019D01*
X002837Y029027D01*
X002716Y029077D01*
X002586Y029077D01*
X002465Y029027D01*
X002373Y028935D01*
X002323Y028814D01*
X002323Y028684D01*
X002373Y028563D01*
X002465Y028471D01*
X002364Y028584D02*
X000301Y028584D01*
X000301Y028683D02*
X002324Y028683D01*
X002323Y028781D02*
X000301Y028781D01*
X000301Y028880D02*
X002350Y028880D01*
X002416Y028978D02*
X000301Y028978D01*
X000301Y029077D02*
X002585Y029077D01*
X002717Y029077D02*
X004328Y029077D01*
X004369Y029176D02*
X000301Y029176D01*
X000301Y029274D02*
X000633Y029274D01*
X000711Y029274D02*
X000811Y029274D01*
X000889Y029274D02*
X002402Y029274D01*
X002438Y029259D02*
X002645Y029259D01*
X002836Y029338D01*
X002982Y029485D01*
X003061Y029676D01*
X003061Y029883D01*
X002982Y030074D01*
X002836Y030220D01*
X002645Y030299D01*
X002438Y030299D01*
X002247Y030220D01*
X002100Y030074D01*
X002021Y029883D01*
X002021Y029676D01*
X002100Y029485D01*
X002247Y029338D01*
X002438Y029259D01*
X002681Y029274D02*
X004462Y029274D01*
X004840Y029274D02*
X006048Y029274D01*
X006048Y029176D02*
X004933Y029176D01*
X004974Y029077D02*
X006048Y029077D01*
X006048Y028978D02*
X004979Y028978D01*
X004957Y028880D02*
X006048Y028880D01*
X006048Y028781D02*
X004897Y028781D01*
X004745Y028683D02*
X006048Y028683D01*
X006048Y028584D02*
X004618Y028584D01*
X004471Y028486D02*
X006048Y028486D01*
X006048Y029373D02*
X003952Y029373D01*
X003934Y029355D02*
X004075Y029496D01*
X004151Y029679D01*
X004151Y029878D01*
X004075Y030062D01*
X003934Y030203D01*
X003751Y030279D01*
X003552Y030279D01*
X003368Y030203D01*
X003227Y030062D01*
X003151Y029878D01*
X003151Y029679D01*
X003227Y029496D01*
X003368Y029355D01*
X003552Y029279D01*
X003751Y029279D01*
X003934Y029355D01*
X004051Y029471D02*
X006048Y029471D01*
X006049Y029570D02*
X004106Y029570D01*
X004147Y029668D02*
X006099Y029668D01*
X006091Y029767D02*
X004151Y029767D01*
X004151Y029865D02*
X006114Y029865D01*
X006177Y029964D02*
X004116Y029964D01*
X004075Y030062D02*
X016374Y030062D01*
X016333Y030161D02*
X003976Y030161D01*
X003797Y030260D02*
X016323Y030260D01*
X016341Y030358D02*
X000301Y030358D01*
X000301Y030260D02*
X000559Y030260D01*
X000711Y030260D02*
X000811Y030260D01*
X000811Y030298D02*
X000811Y029829D01*
X001280Y029829D01*
X001268Y029901D01*
X001243Y029979D01*
X001206Y030052D01*
X001158Y030118D01*
X001100Y030176D01*
X001034Y030224D01*
X000961Y030261D01*
X000883Y030286D01*
X000811Y030298D01*
X000811Y030161D02*
X000711Y030161D01*
X000711Y030062D02*
X000811Y030062D01*
X000811Y029964D02*
X000711Y029964D01*
X000711Y029865D02*
X000811Y029865D01*
X000811Y029767D02*
X002021Y029767D01*
X002021Y029865D02*
X001274Y029865D01*
X001248Y029964D02*
X002055Y029964D01*
X002096Y030062D02*
X001198Y030062D01*
X001115Y030161D02*
X002188Y030161D01*
X002342Y030260D02*
X000964Y030260D01*
X000408Y030161D02*
X000301Y030161D01*
X000301Y030062D02*
X000324Y030062D01*
X000711Y029668D02*
X000811Y029668D01*
X000811Y029570D02*
X000711Y029570D01*
X000711Y029471D02*
X000811Y029471D01*
X000811Y029373D02*
X000711Y029373D01*
X000436Y029373D02*
X000301Y029373D01*
X000301Y029471D02*
X000342Y029471D01*
X001086Y029373D02*
X002212Y029373D01*
X002114Y029471D02*
X001180Y029471D01*
X001238Y029570D02*
X002065Y029570D01*
X002024Y029668D02*
X001270Y029668D01*
X000301Y030457D02*
X016395Y030457D01*
X016532Y030555D02*
X000301Y030555D01*
X000301Y030654D02*
X038871Y030654D01*
X038871Y030752D02*
X000301Y030752D01*
X000301Y030851D02*
X038871Y030851D01*
X038871Y030949D02*
X000301Y030949D01*
X000301Y031048D02*
X038871Y031048D01*
X038871Y031146D02*
X000301Y031146D01*
X000301Y031245D02*
X038871Y031245D01*
X038871Y031344D02*
X000301Y031344D01*
X002740Y030260D02*
X003505Y030260D01*
X003326Y030161D02*
X002895Y030161D01*
X002987Y030062D02*
X003228Y030062D01*
X003187Y029964D02*
X003027Y029964D01*
X003061Y029865D02*
X003151Y029865D01*
X003151Y029767D02*
X003061Y029767D01*
X003058Y029668D02*
X003156Y029668D01*
X003197Y029570D02*
X003017Y029570D01*
X002969Y029471D02*
X003252Y029471D01*
X003350Y029373D02*
X002870Y029373D01*
X002745Y027697D02*
X003498Y027697D01*
X003323Y027599D02*
X002897Y027599D01*
X002988Y027500D02*
X003226Y027500D01*
X003185Y027402D02*
X003028Y027402D01*
X003061Y027303D02*
X003151Y027303D01*
X003151Y027205D02*
X003061Y027205D01*
X003057Y027106D02*
X003157Y027106D01*
X003198Y027008D02*
X003016Y027008D01*
X002966Y026909D02*
X003255Y026909D01*
X003353Y026811D02*
X002868Y026811D01*
X002214Y026811D02*
X001083Y026811D01*
X001179Y026909D02*
X002116Y026909D01*
X002066Y027008D02*
X001237Y027008D01*
X001270Y027106D02*
X002025Y027106D01*
X002021Y027205D02*
X000811Y027205D01*
X000811Y027269D02*
X001280Y027269D01*
X001268Y027341D01*
X001243Y027419D01*
X001206Y027492D01*
X001158Y027558D01*
X001100Y027616D01*
X001034Y027664D01*
X000961Y027701D01*
X000883Y027726D01*
X000811Y027738D01*
X000811Y027269D01*
X000811Y027303D02*
X000711Y027303D01*
X000711Y027402D02*
X000811Y027402D01*
X000811Y027500D02*
X000711Y027500D01*
X000711Y027599D02*
X000811Y027599D01*
X000811Y027697D02*
X000711Y027697D01*
X000554Y027697D02*
X000301Y027697D01*
X000301Y027599D02*
X000405Y027599D01*
X000323Y027500D02*
X000301Y027500D01*
X000711Y027106D02*
X000811Y027106D01*
X000811Y027008D02*
X000711Y027008D01*
X000711Y026909D02*
X000811Y026909D01*
X000811Y026811D02*
X000711Y026811D01*
X000439Y026811D02*
X000301Y026811D01*
X000301Y026909D02*
X000344Y026909D01*
X000968Y027697D02*
X002337Y027697D01*
X002185Y027599D02*
X001117Y027599D01*
X001200Y027500D02*
X002095Y027500D01*
X002054Y027402D02*
X001249Y027402D01*
X001274Y027303D02*
X002021Y027303D01*
X006341Y026515D02*
X007810Y026515D01*
X007712Y026613D02*
X006501Y026613D01*
X006595Y026712D02*
X007487Y026712D01*
X007376Y026811D02*
X006636Y026811D01*
X006671Y026909D02*
X007333Y026909D01*
X007323Y027008D02*
X006671Y027008D01*
X006670Y027106D02*
X007340Y027106D01*
X007393Y027205D02*
X006629Y027205D01*
X006582Y027303D02*
X007528Y027303D01*
X007305Y027402D02*
X010615Y027402D01*
X010580Y027500D02*
X007348Y027500D01*
X007348Y027599D02*
X010580Y027599D01*
X010580Y027697D02*
X007780Y027697D01*
X007912Y027796D02*
X010580Y027796D01*
X010580Y027894D02*
X007963Y027894D01*
X007979Y027993D02*
X010580Y027993D01*
X010580Y028092D02*
X007968Y028092D01*
X007924Y028190D02*
X010580Y028190D01*
X010580Y028289D02*
X007810Y028289D01*
X007348Y028387D02*
X010580Y028387D01*
X008007Y026318D02*
X006568Y026318D01*
X006469Y026416D02*
X007909Y026416D01*
X016881Y029964D02*
X038871Y029964D01*
X038871Y030062D02*
X016928Y030062D01*
X016970Y030161D02*
X038871Y030161D01*
X038871Y030260D02*
X016979Y030260D01*
X016961Y030358D02*
X038871Y030358D01*
X038871Y030457D02*
X016908Y030457D01*
X016770Y030555D02*
X038871Y030555D01*
X038871Y014887D02*
X018617Y014887D01*
X018671Y014788D02*
X038871Y014788D01*
X038871Y014690D02*
X018671Y014690D01*
X018671Y014591D02*
X038871Y014591D01*
X038871Y014493D02*
X018671Y014493D01*
X018671Y014394D02*
X038871Y014394D01*
X038871Y014296D02*
X018671Y014296D01*
X018671Y014197D02*
X018759Y014197D01*
X019043Y014197D02*
X038871Y014197D01*
X038871Y014098D02*
X019167Y014098D01*
X019215Y014000D02*
X038871Y014000D01*
X038871Y013901D02*
X019229Y013901D01*
X019216Y013803D02*
X038871Y013803D01*
X038871Y013704D02*
X019169Y013704D01*
X019046Y013606D02*
X038871Y013606D01*
X038871Y013507D02*
X018671Y013507D01*
X018671Y013409D02*
X038871Y013409D01*
X038871Y013310D02*
X018671Y013310D01*
X018671Y013212D02*
X038871Y013212D01*
X038871Y013113D02*
X018599Y013113D01*
X018671Y013606D02*
X018756Y013606D01*
X017631Y014690D02*
X017598Y014690D01*
X017631Y014788D02*
X017499Y014788D01*
X017401Y014887D02*
X017685Y014887D01*
X017309Y015084D02*
X016743Y015084D01*
X016897Y015182D02*
X017156Y015182D01*
X017096Y015281D02*
X016957Y015281D01*
X016979Y015379D02*
X017073Y015379D01*
X017078Y015478D02*
X016974Y015478D01*
X016933Y015577D02*
X017119Y015577D01*
X017171Y015675D02*
X016881Y015675D01*
X016881Y015774D02*
X017171Y015774D01*
X017171Y015872D02*
X016881Y015872D01*
X016881Y015971D02*
X017171Y015971D01*
X017171Y016069D02*
X016881Y016069D01*
X016881Y016168D02*
X017171Y016168D01*
X017171Y016266D02*
X016881Y016266D01*
X016881Y016365D02*
X017171Y016365D01*
X017171Y016463D02*
X016881Y016463D01*
X016881Y016562D02*
X017171Y016562D01*
X017171Y016661D02*
X016881Y016661D01*
X016881Y016759D02*
X017105Y016759D01*
X017073Y016858D02*
X016881Y016858D01*
X016881Y016956D02*
X017073Y016956D01*
X017110Y017055D02*
X016881Y017055D01*
X016881Y017153D02*
X017190Y017153D01*
X015009Y015675D02*
X011880Y015675D01*
X011880Y015577D02*
X015009Y015577D01*
X015009Y015478D02*
X011880Y015478D01*
X011880Y015379D02*
X015009Y015379D01*
X015009Y015281D02*
X011880Y015281D01*
X011880Y015182D02*
X015009Y015182D01*
X015009Y015084D02*
X011880Y015084D01*
X011880Y014985D02*
X015009Y014985D01*
X015009Y014887D02*
X011880Y014887D01*
X011829Y014788D02*
X015087Y014788D01*
X015286Y014591D02*
X015631Y014591D01*
X015631Y014493D02*
X015385Y014493D01*
X015483Y014394D02*
X015631Y014394D01*
X015631Y014296D02*
X015582Y014296D01*
X015705Y014690D02*
X011811Y014690D01*
X011280Y014788D02*
X011180Y014788D01*
X011180Y014887D02*
X011280Y014887D01*
X011280Y014985D02*
X011180Y014985D01*
X011180Y015084D02*
X011280Y015084D01*
X011280Y015182D02*
X011180Y015182D01*
X011180Y015281D02*
X011280Y015281D01*
X011280Y015379D02*
X011180Y015379D01*
X011180Y015478D02*
X011280Y015478D01*
X011280Y015577D02*
X011180Y015577D01*
X011180Y015675D02*
X011280Y015675D01*
X011280Y015971D02*
X011180Y015971D01*
X011180Y016069D02*
X011280Y016069D01*
X011280Y016168D02*
X011180Y016168D01*
X011180Y016266D02*
X011280Y016266D01*
X011280Y016365D02*
X011180Y016365D01*
X011180Y016463D02*
X011280Y016463D01*
X011280Y016562D02*
X011180Y016562D01*
X011180Y016661D02*
X011280Y016661D01*
X011280Y016759D02*
X011180Y016759D01*
X011180Y016858D02*
X011280Y016858D01*
X011280Y016956D02*
X011180Y016956D01*
X007559Y015084D02*
X007348Y015084D01*
X006629Y013606D02*
X014506Y013606D01*
X014796Y013606D02*
X015631Y013606D01*
X015631Y013507D02*
X006670Y013507D01*
X006671Y013409D02*
X016101Y013409D01*
X015631Y013310D02*
X006671Y013310D01*
X006636Y013212D02*
X015631Y013212D01*
X015704Y013113D02*
X006595Y013113D01*
X014919Y013704D02*
X015522Y013704D01*
X015424Y013803D02*
X014966Y013803D01*
X014979Y013901D02*
X015325Y013901D01*
X015227Y014000D02*
X014965Y014000D01*
X014917Y014098D02*
X015128Y014098D01*
X016401Y014887D02*
X016902Y014887D01*
X016803Y014788D02*
X016499Y014788D01*
X016598Y014690D02*
X016705Y014690D01*
X016825Y011635D02*
X038871Y011635D01*
X038871Y011536D02*
X016930Y011536D01*
X016971Y011438D02*
X038871Y011438D01*
X038871Y011339D02*
X016979Y011339D01*
X016960Y011241D02*
X038871Y011241D01*
X038871Y011142D02*
X016906Y011142D01*
X016881Y011044D02*
X038871Y011044D01*
X038871Y002273D02*
X018632Y002273D01*
X018671Y002175D02*
X038871Y002175D01*
X038871Y002076D02*
X018671Y002076D01*
X018671Y001978D02*
X038871Y001978D01*
X038871Y001879D02*
X018671Y001879D01*
X018671Y001781D02*
X038871Y001781D01*
X038871Y001682D02*
X018671Y001682D01*
X018671Y001583D02*
X018722Y001583D01*
X019080Y001583D02*
X038871Y001583D01*
X038871Y001485D02*
X019181Y001485D01*
X019222Y001386D02*
X038871Y001386D01*
X038871Y001288D02*
X019229Y001288D01*
X019209Y001189D02*
X038871Y001189D01*
X038871Y001091D02*
X019154Y001091D01*
X019010Y000992D02*
X038871Y000992D01*
X038871Y000894D02*
X018671Y000894D01*
X018671Y000992D02*
X018793Y000992D01*
X018649Y001091D02*
X018598Y001091D01*
X018671Y000795D02*
X038871Y000795D01*
X038871Y000697D02*
X018671Y000697D01*
X018671Y000598D02*
X038871Y000598D01*
X038871Y000499D02*
X018584Y000499D01*
X011280Y002175D02*
X011180Y002175D01*
X011180Y002273D02*
X011280Y002273D01*
X011280Y002372D02*
X011180Y002372D01*
X011180Y002470D02*
X011280Y002470D01*
X011280Y002569D02*
X011180Y002569D01*
X011180Y002667D02*
X011280Y002667D01*
X011280Y002766D02*
X011180Y002766D01*
X011180Y002864D02*
X011280Y002864D01*
X011280Y002963D02*
X011180Y002963D01*
X011180Y003062D02*
X011280Y003062D01*
X011280Y003160D02*
X011180Y003160D01*
X011180Y003456D02*
X011280Y003456D01*
X011280Y003554D02*
X011180Y003554D01*
X011180Y003653D02*
X011280Y003653D01*
X011280Y003751D02*
X011180Y003751D01*
X011180Y003850D02*
X011280Y003850D01*
X011280Y003948D02*
X011180Y003948D01*
X011180Y004047D02*
X011280Y004047D01*
X011280Y004146D02*
X011180Y004146D01*
X011180Y004244D02*
X011280Y004244D01*
X011280Y004343D02*
X011180Y004343D01*
X011180Y004441D02*
X011280Y004441D01*
X010670Y004441D02*
X007280Y004441D01*
X007348Y004343D02*
X010585Y004343D01*
X010580Y004244D02*
X007348Y004244D01*
X007348Y004146D02*
X010580Y004146D01*
X010580Y004047D02*
X007348Y004047D01*
X007348Y003948D02*
X010580Y003948D01*
X010580Y003850D02*
X007348Y003850D01*
X007348Y003751D02*
X010580Y003751D01*
X010580Y003653D02*
X007348Y003653D01*
X007348Y003554D02*
X010580Y003554D01*
X010580Y003456D02*
X007348Y003456D01*
X007348Y003357D02*
X010580Y003357D01*
X010651Y002175D02*
X007275Y002175D01*
X005964Y001288D02*
X000301Y001288D01*
X000301Y001386D02*
X005832Y001386D01*
X005803Y001189D02*
X000301Y001189D01*
X000301Y001091D02*
X005708Y001091D01*
X005667Y000992D02*
X000301Y000992D01*
X000301Y000894D02*
X005631Y000894D01*
X005631Y000795D02*
X000301Y000795D01*
X000301Y000697D02*
X005632Y000697D01*
X005673Y000598D02*
X000301Y000598D01*
X000301Y000499D02*
X005719Y000499D01*
X003405Y001583D02*
X002838Y001583D01*
X002936Y001682D02*
X003285Y001682D01*
X003210Y001781D02*
X003004Y001781D01*
X003045Y001879D02*
X003169Y001879D01*
X003151Y001978D02*
X003061Y001978D01*
X003061Y002076D02*
X003151Y002076D01*
X003173Y002175D02*
X003041Y002175D01*
X003000Y002273D02*
X003214Y002273D01*
X003293Y002372D02*
X002927Y002372D01*
X002818Y002470D02*
X003425Y002470D01*
X002243Y004146D02*
X001045Y004146D01*
X001158Y004244D02*
X001206Y004310D01*
X001262Y004441D02*
X002037Y004441D01*
X000307Y004835D02*
X000301Y004835D01*
X000301Y001682D02*
X000366Y001682D01*
X018671Y007890D02*
X018741Y007890D01*
M02*
