%
M48
M72
T01C0.0157
T02C0.0394
T03C0.0400
%
T01
X11651Y2548
X10401Y3048
X7651Y3548
X7401Y2798
X6651Y2798
X2651Y4048
X4651Y4548
X6401Y5298
X10651Y5548
X11651Y5548
X14151Y6048
X16651Y5798
X18651Y5548
X17401Y5048
X20651Y6298
X24651Y6298
X29901Y6298
X33651Y6298
X38401Y6298
X18651Y3548
X17401Y3548
X16651Y3548
X14651Y2048
X18901Y2048
X20651Y1548
X30401Y1548
X38401Y1798
T02
X3651Y3064
X3651Y5032
T03
X2541Y5328
X761Y5328
X761Y2768
X2541Y2768
X16151Y2548
X17151Y2548
X18151Y2548
X18151Y1548
X17151Y1548
X16151Y1548
M30
