G75*
G70*
%OFA0B0*%
%FSLAX24Y24*%
%IPPOS*%
%LPD*%
%AMOC8*
5,1,8,0,0,1.08239X$1,22.5*
%
%ADD10C,0.0120*%
%ADD11R,0.0029X0.0029*%
%ADD12R,0.0145X0.0029*%
%ADD13R,0.0116X0.0029*%
%ADD14R,0.0058X0.0029*%
%ADD15R,0.0087X0.0029*%
%ADD16R,0.0812X0.0029*%
%ADD17R,0.0725X0.0029*%
%ADD18R,0.0348X0.0029*%
%ADD19R,0.1566X0.0029*%
%ADD20R,0.1653X0.0029*%
%ADD21R,0.1711X0.0029*%
%ADD22R,0.1218X0.0029*%
%ADD23R,0.0203X0.0029*%
%ADD24R,0.0377X0.0029*%
%ADD25R,0.1740X0.0029*%
%ADD26R,0.0580X0.0029*%
%ADD27R,0.0174X0.0029*%
%ADD28R,0.0290X0.0029*%
%ADD29R,0.0087X0.0029*%
%ADD30R,0.0058X0.0029*%
%ADD31R,0.0261X0.0029*%
%ADD32R,0.0667X0.0029*%
%ADD33R,0.2436X0.0029*%
%ADD34R,0.0232X0.0029*%
%ADD35R,0.2059X0.0029*%
%ADD36R,0.0174X0.0029*%
%ADD37R,0.3770X0.0029*%
%ADD38R,0.1131X0.0029*%
%ADD39R,0.2871X0.0029*%
%ADD40R,0.0319X0.0029*%
%ADD41R,0.0261X0.0029*%
%ADD42R,0.4930X0.0029*%
%ADD43R,0.1015X0.0029*%
%ADD44R,0.0377X0.0029*%
%ADD45R,0.0406X0.0029*%
%ADD46R,0.0754X0.0029*%
%ADD47R,0.0986X0.0029*%
%ADD48R,0.1160X0.0029*%
%ADD49R,0.1392X0.0029*%
%ADD50R,0.1624X0.0029*%
%ADD51R,0.1798X0.0029*%
%ADD52R,0.0435X0.0029*%
%ADD53R,0.1421X0.0029*%
%ADD54R,0.0464X0.0029*%
%ADD55R,0.1450X0.0029*%
%ADD56R,0.0493X0.0029*%
%ADD57R,0.1479X0.0029*%
%ADD58R,0.0551X0.0029*%
%ADD59R,0.0899X0.0029*%
%ADD60R,0.0551X0.0029*%
%ADD61R,0.0464X0.0029*%
%ADD62R,0.0696X0.0029*%
%ADD63R,0.0638X0.0029*%
%ADD64R,0.0870X0.0029*%
%ADD65R,0.0841X0.0029*%
%ADD66R,0.0841X0.0029*%
%ADD67R,0.0928X0.0029*%
%ADD68R,0.0667X0.0029*%
%ADD69R,0.0957X0.0029*%
%ADD70R,0.1073X0.0029*%
%ADD71R,0.1131X0.0029*%
%ADD72R,0.1711X0.0029*%
%ADD73R,0.1856X0.0029*%
%ADD74R,0.1885X0.0029*%
%ADD75R,0.1247X0.0029*%
%ADD76R,0.0522X0.0029*%
%ADD77R,0.1305X0.0029*%
%ADD78R,0.1189X0.0029*%
%ADD79R,0.0928X0.0029*%
%ADD80R,0.0783X0.0029*%
%ADD81R,0.0609X0.0029*%
%ADD82R,0.1102X0.0029*%
%ADD83R,0.2117X0.0029*%
%ADD84R,0.1044X0.0029*%
%ADD85R,0.0754X0.0029*%
%ADD86R,0.1334X0.0029*%
%ADD87R,0.1044X0.0029*%
%ADD88R,0.0348X0.0029*%
%ADD89C,0.0000*%
D10*
X023110Y003550D02*
X023110Y003777D01*
X023223Y003890D01*
X023564Y003890D01*
X023847Y003890D02*
X023847Y003209D01*
X023960Y003436D02*
X024187Y003436D01*
X024300Y003550D01*
X024300Y003890D01*
X024583Y003890D02*
X024810Y003890D01*
X024697Y003890D02*
X024697Y003436D01*
X024583Y003436D01*
X024697Y003209D02*
X024697Y003096D01*
X025074Y003436D02*
X025074Y003890D01*
X025074Y003663D02*
X025301Y003436D01*
X025415Y003436D01*
X025688Y003436D02*
X026028Y003436D01*
X026142Y003550D01*
X026142Y003777D01*
X026028Y003890D01*
X025688Y003890D01*
X025688Y004117D02*
X025688Y003436D01*
X026425Y003550D02*
X026425Y003096D01*
X026425Y003777D02*
X026425Y003890D01*
X023960Y003436D02*
X023847Y003550D01*
X023564Y003436D02*
X023223Y003436D01*
X023110Y003550D01*
X023847Y011209D02*
X023847Y011890D01*
X023564Y011890D02*
X023223Y011890D01*
X023110Y011777D01*
X023110Y011550D01*
X023223Y011436D01*
X023564Y011436D01*
X023847Y011550D02*
X023960Y011436D01*
X024187Y011436D01*
X024300Y011550D01*
X024300Y011890D01*
X024583Y011890D02*
X024810Y011890D01*
X024697Y011890D02*
X024697Y011436D01*
X024583Y011436D01*
X024697Y011209D02*
X024697Y011096D01*
X025074Y011436D02*
X025074Y011890D01*
X025074Y011663D02*
X025301Y011436D01*
X025415Y011436D01*
X025688Y011436D02*
X026028Y011436D01*
X026142Y011550D01*
X026142Y011777D01*
X026028Y011890D01*
X025688Y011890D01*
X025688Y012117D02*
X025688Y011436D01*
X026425Y011550D02*
X026425Y011096D01*
X026425Y011777D02*
X026425Y011890D01*
X026425Y019096D02*
X026425Y019550D01*
X026425Y019777D02*
X026425Y019890D01*
X026142Y019777D02*
X026028Y019890D01*
X025688Y019890D01*
X025688Y020117D02*
X025688Y019436D01*
X026028Y019436D01*
X026142Y019550D01*
X026142Y019777D01*
X025415Y019436D02*
X025301Y019436D01*
X025074Y019663D01*
X025074Y019890D02*
X025074Y019436D01*
X024697Y019436D02*
X024697Y019890D01*
X024810Y019890D02*
X024583Y019890D01*
X024300Y019890D02*
X024300Y019550D01*
X024187Y019436D01*
X023960Y019436D01*
X023847Y019550D01*
X023564Y019436D02*
X023223Y019436D01*
X023110Y019550D01*
X023110Y019777D01*
X023223Y019890D01*
X023564Y019890D01*
X023847Y019890D02*
X023847Y019209D01*
X024583Y019436D02*
X024697Y019436D01*
X024697Y019209D02*
X024697Y019096D01*
X024697Y027096D02*
X024697Y027209D01*
X024697Y027436D02*
X024583Y027436D01*
X024697Y027436D02*
X024697Y027890D01*
X024810Y027890D02*
X024583Y027890D01*
X024300Y027890D02*
X024300Y027550D01*
X024187Y027436D01*
X023960Y027436D01*
X023847Y027550D01*
X023564Y027436D02*
X023223Y027436D01*
X023110Y027550D01*
X023110Y027777D01*
X023223Y027890D01*
X023564Y027890D01*
X023847Y027890D02*
X023847Y027209D01*
X025074Y027436D02*
X025074Y027890D01*
X025074Y027663D02*
X025301Y027436D01*
X025415Y027436D01*
X025688Y027436D02*
X026028Y027436D01*
X026142Y027550D01*
X026142Y027777D01*
X026028Y027890D01*
X025688Y027890D01*
X025688Y028117D02*
X025688Y027436D01*
X026425Y027550D02*
X026425Y027096D01*
X026425Y027777D02*
X026425Y027890D01*
D11*
X026581Y028839D03*
X026639Y028839D03*
X026581Y029100D03*
X026581Y029129D03*
X026581Y029158D03*
X026581Y029187D03*
X026581Y029216D03*
X026581Y029245D03*
X026871Y029274D03*
X027045Y029071D03*
X027219Y029071D03*
X025769Y029100D03*
X025769Y029129D03*
X025769Y029158D03*
X025769Y029187D03*
X025769Y029216D03*
X025769Y029245D03*
X025653Y029013D03*
X025653Y028984D03*
X025653Y028955D03*
X025653Y028926D03*
X025653Y028897D03*
X025653Y028868D03*
X025537Y028868D03*
X025537Y028839D03*
X025537Y028897D03*
X025537Y028926D03*
X025537Y028955D03*
X025537Y028984D03*
X025537Y029013D03*
X025247Y029245D03*
X025073Y029245D03*
X024870Y029274D03*
X024870Y029303D03*
X024870Y029332D03*
X024870Y029361D03*
X024870Y029390D03*
X024870Y029419D03*
X024899Y029506D03*
X024899Y029535D03*
X024899Y029564D03*
X024899Y029593D03*
X024899Y029622D03*
X024899Y029651D03*
X024899Y029680D03*
X024667Y029419D03*
X024667Y029390D03*
X024667Y029361D03*
X024667Y029332D03*
X024667Y029303D03*
X024667Y029274D03*
X024000Y029477D03*
X024000Y029506D03*
X024000Y029535D03*
X024000Y029564D03*
X024000Y029593D03*
X024000Y029622D03*
X024000Y029651D03*
X023739Y029796D03*
X023739Y029825D03*
X023739Y029854D03*
X023739Y029883D03*
X023681Y029883D03*
X023681Y029854D03*
X023681Y029825D03*
X023681Y029796D03*
X023623Y029796D03*
X023623Y029767D03*
X023623Y029738D03*
X023623Y029709D03*
X023623Y029825D03*
X023623Y029854D03*
X023623Y029883D03*
X027480Y031362D03*
X028089Y031391D03*
X028089Y031420D03*
X028089Y031449D03*
X028089Y031478D03*
X028089Y031507D03*
X028089Y031536D03*
X028147Y031536D03*
X028147Y031507D03*
X028147Y031478D03*
X028147Y031449D03*
X028147Y031420D03*
X028147Y031391D03*
X028176Y031304D03*
X028176Y031275D03*
X028176Y031246D03*
X028176Y031217D03*
X028176Y031188D03*
X028176Y031159D03*
X028234Y031159D03*
X028234Y031188D03*
X028234Y031217D03*
X028234Y031246D03*
X028234Y031275D03*
X028234Y031304D03*
X028350Y031130D03*
X028495Y031130D03*
X028640Y031159D03*
X028640Y031188D03*
X028640Y031217D03*
X028640Y031246D03*
X028640Y031275D03*
X028640Y031304D03*
X028669Y031391D03*
X028669Y031420D03*
X028669Y031449D03*
X028669Y031478D03*
X028669Y031507D03*
X028669Y031536D03*
X028669Y031565D03*
X028263Y031565D03*
X028147Y031565D03*
X028785Y031101D03*
X028785Y031072D03*
X028785Y031043D03*
X028785Y031014D03*
X028785Y030985D03*
X028785Y030956D03*
X029510Y030927D03*
X029510Y030898D03*
X029510Y030869D03*
X029510Y030840D03*
X029510Y030811D03*
X029510Y030782D03*
X029510Y030753D03*
X029597Y030753D03*
X029597Y030782D03*
X029597Y030811D03*
X029597Y030840D03*
X029597Y030869D03*
X029597Y030898D03*
X029597Y030927D03*
X029684Y030927D03*
X029684Y030898D03*
X029684Y030869D03*
X029684Y030840D03*
X029684Y030811D03*
X029684Y030782D03*
X029684Y030753D03*
X030409Y030695D03*
X030409Y030666D03*
X030409Y030637D03*
X030409Y030608D03*
X030409Y030579D03*
X030409Y030550D03*
X030409Y030521D03*
X030554Y030521D03*
X030554Y030550D03*
X030554Y030579D03*
X030554Y030608D03*
X030554Y030637D03*
X030554Y030666D03*
X030554Y030695D03*
X030612Y030666D03*
X030612Y030637D03*
X030612Y030608D03*
X030612Y030579D03*
X030612Y030550D03*
X030612Y030521D03*
X030670Y030521D03*
X030670Y030550D03*
X030670Y030579D03*
X030670Y030608D03*
X030670Y030637D03*
X030670Y030666D03*
X030931Y030608D03*
X030931Y030579D03*
X030931Y030550D03*
X030931Y030521D03*
X031395Y030608D03*
X031395Y030637D03*
X031395Y030666D03*
X031395Y030695D03*
X031830Y030550D03*
X031830Y030521D03*
X031917Y030521D03*
X031917Y030550D03*
X031917Y030579D03*
X031917Y030608D03*
X031917Y030637D03*
X031917Y030666D03*
X032178Y030666D03*
X032178Y030637D03*
X032178Y030608D03*
X032178Y030579D03*
X032178Y030550D03*
X032178Y030521D03*
X032178Y030695D03*
X032526Y030956D03*
X032526Y030985D03*
X032526Y031014D03*
X032526Y031043D03*
X032526Y031072D03*
X032526Y031101D03*
X032526Y031130D03*
X032932Y031130D03*
X033773Y030898D03*
X033773Y030869D03*
X033773Y030840D03*
X033773Y030811D03*
X033773Y030782D03*
X033773Y030753D03*
X033773Y030724D03*
X033831Y030724D03*
X033831Y030753D03*
X033831Y030782D03*
X033831Y030811D03*
X033831Y030840D03*
X033831Y030869D03*
X033831Y030898D03*
X034150Y031159D03*
X034875Y031159D03*
X034933Y031188D03*
X034933Y031217D03*
X034933Y031246D03*
X034933Y031275D03*
X034933Y031304D03*
X034933Y031333D03*
X034933Y031362D03*
X035049Y031159D03*
X035397Y031159D03*
X035774Y031362D03*
X036238Y030927D03*
X036557Y031159D03*
X036557Y031188D03*
X036557Y031217D03*
X036557Y031246D03*
X036557Y031275D03*
X036557Y031304D03*
X036644Y031333D03*
X036818Y031333D03*
X036992Y031333D03*
X036673Y031594D03*
X036673Y031623D03*
X036673Y031652D03*
X036673Y031681D03*
X036673Y031710D03*
X036673Y031739D03*
X036673Y031768D03*
X036499Y031565D03*
X036441Y031565D03*
X036441Y031536D03*
X036441Y031507D03*
X036441Y031478D03*
X036441Y031449D03*
X036441Y031420D03*
X037543Y031333D03*
X037717Y031333D03*
X037891Y031333D03*
X037891Y031594D03*
X037891Y031623D03*
X037891Y031652D03*
X037891Y031681D03*
X037891Y031710D03*
X037891Y031739D03*
X037891Y031768D03*
X038123Y031768D03*
X038123Y031739D03*
X038123Y031710D03*
X038123Y031681D03*
X038123Y031652D03*
X038123Y031623D03*
X038123Y031594D03*
X034092Y030231D03*
X031627Y030115D03*
X030496Y029332D03*
X029481Y029071D03*
X036673Y023768D03*
X036673Y023739D03*
X036673Y023710D03*
X036673Y023681D03*
X036673Y023652D03*
X036673Y023623D03*
X036673Y023594D03*
X036499Y023565D03*
X036441Y023565D03*
X036441Y023536D03*
X036441Y023507D03*
X036441Y023478D03*
X036441Y023449D03*
X036441Y023420D03*
X036557Y023304D03*
X036557Y023275D03*
X036557Y023246D03*
X036557Y023217D03*
X036557Y023188D03*
X036557Y023159D03*
X036644Y023333D03*
X036818Y023333D03*
X036992Y023333D03*
X037543Y023333D03*
X037717Y023333D03*
X037891Y023333D03*
X037891Y023594D03*
X037891Y023623D03*
X037891Y023652D03*
X037891Y023681D03*
X037891Y023710D03*
X037891Y023739D03*
X037891Y023768D03*
X038123Y023768D03*
X038123Y023739D03*
X038123Y023710D03*
X038123Y023681D03*
X038123Y023652D03*
X038123Y023623D03*
X038123Y023594D03*
X036238Y022927D03*
X035774Y023362D03*
X035397Y023159D03*
X035049Y023159D03*
X034933Y023188D03*
X034933Y023217D03*
X034933Y023246D03*
X034933Y023275D03*
X034933Y023304D03*
X034933Y023333D03*
X034933Y023362D03*
X034875Y023159D03*
X034150Y023159D03*
X033831Y022898D03*
X033831Y022869D03*
X033831Y022840D03*
X033831Y022811D03*
X033831Y022782D03*
X033831Y022753D03*
X033831Y022724D03*
X033773Y022724D03*
X033773Y022753D03*
X033773Y022782D03*
X033773Y022811D03*
X033773Y022840D03*
X033773Y022869D03*
X033773Y022898D03*
X034092Y022231D03*
X032932Y023130D03*
X032526Y023130D03*
X032526Y023101D03*
X032526Y023072D03*
X032526Y023043D03*
X032526Y023014D03*
X032526Y022985D03*
X032526Y022956D03*
X032178Y022695D03*
X032178Y022666D03*
X032178Y022637D03*
X032178Y022608D03*
X032178Y022579D03*
X032178Y022550D03*
X032178Y022521D03*
X031917Y022521D03*
X031917Y022550D03*
X031917Y022579D03*
X031917Y022608D03*
X031917Y022637D03*
X031917Y022666D03*
X031830Y022550D03*
X031830Y022521D03*
X031395Y022608D03*
X031395Y022637D03*
X031395Y022666D03*
X031395Y022695D03*
X030931Y022608D03*
X030931Y022579D03*
X030931Y022550D03*
X030931Y022521D03*
X030670Y022521D03*
X030670Y022550D03*
X030670Y022579D03*
X030670Y022608D03*
X030670Y022637D03*
X030670Y022666D03*
X030612Y022666D03*
X030612Y022637D03*
X030612Y022608D03*
X030612Y022579D03*
X030612Y022550D03*
X030612Y022521D03*
X030554Y022521D03*
X030554Y022550D03*
X030554Y022579D03*
X030554Y022608D03*
X030554Y022637D03*
X030554Y022666D03*
X030554Y022695D03*
X030409Y022695D03*
X030409Y022666D03*
X030409Y022637D03*
X030409Y022608D03*
X030409Y022579D03*
X030409Y022550D03*
X030409Y022521D03*
X029684Y022753D03*
X029684Y022782D03*
X029684Y022811D03*
X029684Y022840D03*
X029684Y022869D03*
X029684Y022898D03*
X029684Y022927D03*
X029597Y022927D03*
X029597Y022898D03*
X029597Y022869D03*
X029597Y022840D03*
X029597Y022811D03*
X029597Y022782D03*
X029597Y022753D03*
X029510Y022753D03*
X029510Y022782D03*
X029510Y022811D03*
X029510Y022840D03*
X029510Y022869D03*
X029510Y022898D03*
X029510Y022927D03*
X028785Y022956D03*
X028785Y022985D03*
X028785Y023014D03*
X028785Y023043D03*
X028785Y023072D03*
X028785Y023101D03*
X028640Y023159D03*
X028640Y023188D03*
X028640Y023217D03*
X028640Y023246D03*
X028640Y023275D03*
X028640Y023304D03*
X028669Y023391D03*
X028669Y023420D03*
X028669Y023449D03*
X028669Y023478D03*
X028669Y023507D03*
X028669Y023536D03*
X028669Y023565D03*
X028263Y023565D03*
X028147Y023565D03*
X028147Y023536D03*
X028147Y023507D03*
X028147Y023478D03*
X028147Y023449D03*
X028147Y023420D03*
X028147Y023391D03*
X028089Y023391D03*
X028089Y023420D03*
X028089Y023449D03*
X028089Y023478D03*
X028089Y023507D03*
X028089Y023536D03*
X028176Y023304D03*
X028176Y023275D03*
X028176Y023246D03*
X028176Y023217D03*
X028176Y023188D03*
X028176Y023159D03*
X028234Y023159D03*
X028234Y023188D03*
X028234Y023217D03*
X028234Y023246D03*
X028234Y023275D03*
X028234Y023304D03*
X028350Y023130D03*
X028495Y023130D03*
X027480Y023362D03*
X024899Y021680D03*
X024899Y021651D03*
X024899Y021622D03*
X024899Y021593D03*
X024899Y021564D03*
X024899Y021535D03*
X024899Y021506D03*
X024870Y021419D03*
X024870Y021390D03*
X024870Y021361D03*
X024870Y021332D03*
X024870Y021303D03*
X024870Y021274D03*
X024667Y021274D03*
X024667Y021303D03*
X024667Y021332D03*
X024667Y021361D03*
X024667Y021390D03*
X024667Y021419D03*
X025073Y021245D03*
X025247Y021245D03*
X025537Y021013D03*
X025537Y020984D03*
X025537Y020955D03*
X025537Y020926D03*
X025537Y020897D03*
X025537Y020868D03*
X025537Y020839D03*
X025653Y020868D03*
X025653Y020897D03*
X025653Y020926D03*
X025653Y020955D03*
X025653Y020984D03*
X025653Y021013D03*
X025769Y021100D03*
X025769Y021129D03*
X025769Y021158D03*
X025769Y021187D03*
X025769Y021216D03*
X025769Y021245D03*
X026581Y021245D03*
X026581Y021216D03*
X026581Y021187D03*
X026581Y021158D03*
X026581Y021129D03*
X026581Y021100D03*
X026581Y020839D03*
X026639Y020839D03*
X027045Y021071D03*
X027219Y021071D03*
X026871Y021274D03*
X029481Y021071D03*
X030496Y021332D03*
X031627Y022115D03*
X024000Y021651D03*
X024000Y021622D03*
X024000Y021593D03*
X024000Y021564D03*
X024000Y021535D03*
X024000Y021506D03*
X024000Y021477D03*
X023739Y021796D03*
X023739Y021825D03*
X023739Y021854D03*
X023739Y021883D03*
X023681Y021883D03*
X023681Y021854D03*
X023681Y021825D03*
X023681Y021796D03*
X023623Y021796D03*
X023623Y021767D03*
X023623Y021738D03*
X023623Y021709D03*
X023623Y021825D03*
X023623Y021854D03*
X023623Y021883D03*
X028089Y015536D03*
X028089Y015507D03*
X028089Y015478D03*
X028089Y015449D03*
X028089Y015420D03*
X028089Y015391D03*
X028147Y015391D03*
X028147Y015420D03*
X028147Y015449D03*
X028147Y015478D03*
X028147Y015507D03*
X028147Y015536D03*
X028147Y015565D03*
X028263Y015565D03*
X028234Y015304D03*
X028234Y015275D03*
X028234Y015246D03*
X028234Y015217D03*
X028234Y015188D03*
X028234Y015159D03*
X028176Y015159D03*
X028176Y015188D03*
X028176Y015217D03*
X028176Y015246D03*
X028176Y015275D03*
X028176Y015304D03*
X028350Y015130D03*
X028495Y015130D03*
X028640Y015159D03*
X028640Y015188D03*
X028640Y015217D03*
X028640Y015246D03*
X028640Y015275D03*
X028640Y015304D03*
X028669Y015391D03*
X028669Y015420D03*
X028669Y015449D03*
X028669Y015478D03*
X028669Y015507D03*
X028669Y015536D03*
X028669Y015565D03*
X028785Y015101D03*
X028785Y015072D03*
X028785Y015043D03*
X028785Y015014D03*
X028785Y014985D03*
X028785Y014956D03*
X029510Y014927D03*
X029510Y014898D03*
X029510Y014869D03*
X029510Y014840D03*
X029510Y014811D03*
X029510Y014782D03*
X029510Y014753D03*
X029597Y014753D03*
X029597Y014782D03*
X029597Y014811D03*
X029597Y014840D03*
X029597Y014869D03*
X029597Y014898D03*
X029597Y014927D03*
X029684Y014927D03*
X029684Y014898D03*
X029684Y014869D03*
X029684Y014840D03*
X029684Y014811D03*
X029684Y014782D03*
X029684Y014753D03*
X030409Y014695D03*
X030409Y014666D03*
X030409Y014637D03*
X030409Y014608D03*
X030409Y014579D03*
X030409Y014550D03*
X030409Y014521D03*
X030554Y014521D03*
X030554Y014550D03*
X030554Y014579D03*
X030554Y014608D03*
X030554Y014637D03*
X030554Y014666D03*
X030554Y014695D03*
X030612Y014666D03*
X030612Y014637D03*
X030612Y014608D03*
X030612Y014579D03*
X030612Y014550D03*
X030612Y014521D03*
X030670Y014521D03*
X030670Y014550D03*
X030670Y014579D03*
X030670Y014608D03*
X030670Y014637D03*
X030670Y014666D03*
X030931Y014608D03*
X030931Y014579D03*
X030931Y014550D03*
X030931Y014521D03*
X031395Y014608D03*
X031395Y014637D03*
X031395Y014666D03*
X031395Y014695D03*
X031830Y014550D03*
X031830Y014521D03*
X031917Y014521D03*
X031917Y014550D03*
X031917Y014579D03*
X031917Y014608D03*
X031917Y014637D03*
X031917Y014666D03*
X032178Y014666D03*
X032178Y014637D03*
X032178Y014608D03*
X032178Y014579D03*
X032178Y014550D03*
X032178Y014521D03*
X032178Y014695D03*
X032526Y014956D03*
X032526Y014985D03*
X032526Y015014D03*
X032526Y015043D03*
X032526Y015072D03*
X032526Y015101D03*
X032526Y015130D03*
X032932Y015130D03*
X033773Y014898D03*
X033773Y014869D03*
X033773Y014840D03*
X033773Y014811D03*
X033773Y014782D03*
X033773Y014753D03*
X033773Y014724D03*
X033831Y014724D03*
X033831Y014753D03*
X033831Y014782D03*
X033831Y014811D03*
X033831Y014840D03*
X033831Y014869D03*
X033831Y014898D03*
X034150Y015159D03*
X034875Y015159D03*
X034933Y015188D03*
X034933Y015217D03*
X034933Y015246D03*
X034933Y015275D03*
X034933Y015304D03*
X034933Y015333D03*
X034933Y015362D03*
X035049Y015159D03*
X035397Y015159D03*
X035774Y015362D03*
X036238Y014927D03*
X036557Y015159D03*
X036557Y015188D03*
X036557Y015217D03*
X036557Y015246D03*
X036557Y015275D03*
X036557Y015304D03*
X036644Y015333D03*
X036818Y015333D03*
X036992Y015333D03*
X036673Y015594D03*
X036673Y015623D03*
X036673Y015652D03*
X036673Y015681D03*
X036673Y015710D03*
X036673Y015739D03*
X036673Y015768D03*
X036499Y015565D03*
X036441Y015565D03*
X036441Y015536D03*
X036441Y015507D03*
X036441Y015478D03*
X036441Y015449D03*
X036441Y015420D03*
X037543Y015333D03*
X037717Y015333D03*
X037891Y015333D03*
X037891Y015594D03*
X037891Y015623D03*
X037891Y015652D03*
X037891Y015681D03*
X037891Y015710D03*
X037891Y015739D03*
X037891Y015768D03*
X038123Y015768D03*
X038123Y015739D03*
X038123Y015710D03*
X038123Y015681D03*
X038123Y015652D03*
X038123Y015623D03*
X038123Y015594D03*
X034092Y014231D03*
X031627Y014115D03*
X030496Y013332D03*
X029481Y013071D03*
X027219Y013071D03*
X027045Y013071D03*
X026871Y013274D03*
X026581Y013245D03*
X026581Y013216D03*
X026581Y013187D03*
X026581Y013158D03*
X026581Y013129D03*
X026581Y013100D03*
X026581Y012839D03*
X026639Y012839D03*
X025769Y013100D03*
X025769Y013129D03*
X025769Y013158D03*
X025769Y013187D03*
X025769Y013216D03*
X025769Y013245D03*
X025653Y013013D03*
X025653Y012984D03*
X025653Y012955D03*
X025653Y012926D03*
X025653Y012897D03*
X025653Y012868D03*
X025537Y012868D03*
X025537Y012839D03*
X025537Y012897D03*
X025537Y012926D03*
X025537Y012955D03*
X025537Y012984D03*
X025537Y013013D03*
X025247Y013245D03*
X025073Y013245D03*
X024870Y013274D03*
X024870Y013303D03*
X024870Y013332D03*
X024870Y013361D03*
X024870Y013390D03*
X024870Y013419D03*
X024899Y013506D03*
X024899Y013535D03*
X024899Y013564D03*
X024899Y013593D03*
X024899Y013622D03*
X024899Y013651D03*
X024899Y013680D03*
X024667Y013419D03*
X024667Y013390D03*
X024667Y013361D03*
X024667Y013332D03*
X024667Y013303D03*
X024667Y013274D03*
X024000Y013477D03*
X024000Y013506D03*
X024000Y013535D03*
X024000Y013564D03*
X024000Y013593D03*
X024000Y013622D03*
X024000Y013651D03*
X023739Y013796D03*
X023739Y013825D03*
X023739Y013854D03*
X023739Y013883D03*
X023681Y013883D03*
X023681Y013854D03*
X023681Y013825D03*
X023681Y013796D03*
X023623Y013796D03*
X023623Y013767D03*
X023623Y013738D03*
X023623Y013709D03*
X023623Y013825D03*
X023623Y013854D03*
X023623Y013883D03*
X027480Y015362D03*
X028147Y007565D03*
X028147Y007536D03*
X028147Y007507D03*
X028147Y007478D03*
X028147Y007449D03*
X028147Y007420D03*
X028147Y007391D03*
X028089Y007391D03*
X028089Y007420D03*
X028089Y007449D03*
X028089Y007478D03*
X028089Y007507D03*
X028089Y007536D03*
X028263Y007565D03*
X028234Y007304D03*
X028234Y007275D03*
X028234Y007246D03*
X028234Y007217D03*
X028234Y007188D03*
X028234Y007159D03*
X028176Y007159D03*
X028176Y007188D03*
X028176Y007217D03*
X028176Y007246D03*
X028176Y007275D03*
X028176Y007304D03*
X028350Y007130D03*
X028495Y007130D03*
X028640Y007159D03*
X028640Y007188D03*
X028640Y007217D03*
X028640Y007246D03*
X028640Y007275D03*
X028640Y007304D03*
X028669Y007391D03*
X028669Y007420D03*
X028669Y007449D03*
X028669Y007478D03*
X028669Y007507D03*
X028669Y007536D03*
X028669Y007565D03*
X028785Y007101D03*
X028785Y007072D03*
X028785Y007043D03*
X028785Y007014D03*
X028785Y006985D03*
X028785Y006956D03*
X029510Y006927D03*
X029510Y006898D03*
X029510Y006869D03*
X029510Y006840D03*
X029510Y006811D03*
X029510Y006782D03*
X029510Y006753D03*
X029597Y006753D03*
X029597Y006782D03*
X029597Y006811D03*
X029597Y006840D03*
X029597Y006869D03*
X029597Y006898D03*
X029597Y006927D03*
X029684Y006927D03*
X029684Y006898D03*
X029684Y006869D03*
X029684Y006840D03*
X029684Y006811D03*
X029684Y006782D03*
X029684Y006753D03*
X030409Y006695D03*
X030409Y006666D03*
X030409Y006637D03*
X030409Y006608D03*
X030409Y006579D03*
X030409Y006550D03*
X030409Y006521D03*
X030554Y006521D03*
X030554Y006550D03*
X030554Y006579D03*
X030554Y006608D03*
X030554Y006637D03*
X030554Y006666D03*
X030554Y006695D03*
X030612Y006666D03*
X030612Y006637D03*
X030612Y006608D03*
X030612Y006579D03*
X030612Y006550D03*
X030612Y006521D03*
X030670Y006521D03*
X030670Y006550D03*
X030670Y006579D03*
X030670Y006608D03*
X030670Y006637D03*
X030670Y006666D03*
X030931Y006608D03*
X030931Y006579D03*
X030931Y006550D03*
X030931Y006521D03*
X031395Y006608D03*
X031395Y006637D03*
X031395Y006666D03*
X031395Y006695D03*
X031830Y006550D03*
X031830Y006521D03*
X031917Y006521D03*
X031917Y006550D03*
X031917Y006579D03*
X031917Y006608D03*
X031917Y006637D03*
X031917Y006666D03*
X032178Y006666D03*
X032178Y006637D03*
X032178Y006608D03*
X032178Y006579D03*
X032178Y006550D03*
X032178Y006521D03*
X032178Y006695D03*
X032526Y006956D03*
X032526Y006985D03*
X032526Y007014D03*
X032526Y007043D03*
X032526Y007072D03*
X032526Y007101D03*
X032526Y007130D03*
X032932Y007130D03*
X033773Y006898D03*
X033773Y006869D03*
X033773Y006840D03*
X033773Y006811D03*
X033773Y006782D03*
X033773Y006753D03*
X033773Y006724D03*
X033831Y006724D03*
X033831Y006753D03*
X033831Y006782D03*
X033831Y006811D03*
X033831Y006840D03*
X033831Y006869D03*
X033831Y006898D03*
X034150Y007159D03*
X034875Y007159D03*
X034933Y007188D03*
X034933Y007217D03*
X034933Y007246D03*
X034933Y007275D03*
X034933Y007304D03*
X034933Y007333D03*
X034933Y007362D03*
X035049Y007159D03*
X035397Y007159D03*
X035774Y007362D03*
X036238Y006927D03*
X036557Y007159D03*
X036557Y007188D03*
X036557Y007217D03*
X036557Y007246D03*
X036557Y007275D03*
X036557Y007304D03*
X036644Y007333D03*
X036818Y007333D03*
X036992Y007333D03*
X036673Y007594D03*
X036673Y007623D03*
X036673Y007652D03*
X036673Y007681D03*
X036673Y007710D03*
X036673Y007739D03*
X036673Y007768D03*
X036499Y007565D03*
X036441Y007565D03*
X036441Y007536D03*
X036441Y007507D03*
X036441Y007478D03*
X036441Y007449D03*
X036441Y007420D03*
X037543Y007333D03*
X037717Y007333D03*
X037891Y007333D03*
X037891Y007594D03*
X037891Y007623D03*
X037891Y007652D03*
X037891Y007681D03*
X037891Y007710D03*
X037891Y007739D03*
X037891Y007768D03*
X038123Y007768D03*
X038123Y007739D03*
X038123Y007710D03*
X038123Y007681D03*
X038123Y007652D03*
X038123Y007623D03*
X038123Y007594D03*
X034092Y006231D03*
X031627Y006115D03*
X030496Y005332D03*
X029481Y005071D03*
X027219Y005071D03*
X027045Y005071D03*
X026871Y005274D03*
X026581Y005245D03*
X026581Y005216D03*
X026581Y005187D03*
X026581Y005158D03*
X026581Y005129D03*
X026581Y005100D03*
X026581Y004839D03*
X026639Y004839D03*
X025769Y005100D03*
X025769Y005129D03*
X025769Y005158D03*
X025769Y005187D03*
X025769Y005216D03*
X025769Y005245D03*
X025653Y005013D03*
X025653Y004984D03*
X025653Y004955D03*
X025653Y004926D03*
X025653Y004897D03*
X025653Y004868D03*
X025537Y004868D03*
X025537Y004839D03*
X025537Y004897D03*
X025537Y004926D03*
X025537Y004955D03*
X025537Y004984D03*
X025537Y005013D03*
X025247Y005245D03*
X025073Y005245D03*
X024870Y005274D03*
X024870Y005303D03*
X024870Y005332D03*
X024870Y005361D03*
X024870Y005390D03*
X024870Y005419D03*
X024899Y005506D03*
X024899Y005535D03*
X024899Y005564D03*
X024899Y005593D03*
X024899Y005622D03*
X024899Y005651D03*
X024899Y005680D03*
X024667Y005419D03*
X024667Y005390D03*
X024667Y005361D03*
X024667Y005332D03*
X024667Y005303D03*
X024667Y005274D03*
X024000Y005477D03*
X024000Y005506D03*
X024000Y005535D03*
X024000Y005564D03*
X024000Y005593D03*
X024000Y005622D03*
X024000Y005651D03*
X023739Y005796D03*
X023739Y005825D03*
X023739Y005854D03*
X023739Y005883D03*
X023681Y005883D03*
X023681Y005854D03*
X023681Y005825D03*
X023681Y005796D03*
X023623Y005796D03*
X023623Y005767D03*
X023623Y005738D03*
X023623Y005709D03*
X023623Y005825D03*
X023623Y005854D03*
X023623Y005883D03*
X027480Y007362D03*
D12*
X028234Y007333D03*
X028379Y007565D03*
X029220Y006260D03*
X029539Y006057D03*
X030351Y005390D03*
X030351Y005361D03*
X030699Y005390D03*
X030699Y005419D03*
X030728Y005651D03*
X031453Y006405D03*
X031453Y006434D03*
X031453Y006463D03*
X031453Y006492D03*
X031453Y006521D03*
X031511Y006637D03*
X033947Y006666D03*
X033947Y006695D03*
X033976Y006811D03*
X034034Y007188D03*
X034556Y007188D03*
X034556Y007217D03*
X034556Y007246D03*
X034556Y007275D03*
X034556Y007304D03*
X034556Y007333D03*
X034991Y005941D03*
X035020Y005912D03*
X034237Y005361D03*
X034237Y005332D03*
X034208Y005274D03*
X034208Y005245D03*
X034208Y005216D03*
X034121Y004897D03*
X034121Y004868D03*
X032526Y005100D03*
X029713Y004520D03*
X029423Y004520D03*
X029423Y004491D03*
X029423Y004462D03*
X029423Y004549D03*
X029539Y004027D03*
X029539Y003998D03*
X029510Y003969D03*
X029510Y003940D03*
X029481Y003882D03*
X029481Y003853D03*
X029452Y003766D03*
X029423Y003708D03*
X023478Y005709D03*
X023478Y005738D03*
X023478Y005767D03*
X023478Y005796D03*
X023478Y005825D03*
X023478Y005854D03*
X023478Y005883D03*
X029423Y011708D03*
X029452Y011766D03*
X029481Y011853D03*
X029481Y011882D03*
X029510Y011940D03*
X029510Y011969D03*
X029539Y011998D03*
X029539Y012027D03*
X029423Y012462D03*
X029423Y012491D03*
X029423Y012520D03*
X029423Y012549D03*
X029713Y012520D03*
X030351Y013361D03*
X030351Y013390D03*
X030699Y013390D03*
X030699Y013419D03*
X030728Y013651D03*
X029539Y014057D03*
X029220Y014260D03*
X028234Y015333D03*
X028379Y015565D03*
X031453Y014521D03*
X031453Y014492D03*
X031453Y014463D03*
X031453Y014434D03*
X031453Y014405D03*
X031511Y014637D03*
X032526Y013100D03*
X034121Y012897D03*
X034121Y012868D03*
X034208Y013216D03*
X034208Y013245D03*
X034208Y013274D03*
X034237Y013332D03*
X034237Y013361D03*
X034991Y013941D03*
X035020Y013912D03*
X033947Y014666D03*
X033947Y014695D03*
X033976Y014811D03*
X034034Y015188D03*
X034556Y015188D03*
X034556Y015217D03*
X034556Y015246D03*
X034556Y015275D03*
X034556Y015304D03*
X034556Y015333D03*
X029423Y019708D03*
X029452Y019766D03*
X029481Y019853D03*
X029481Y019882D03*
X029510Y019940D03*
X029510Y019969D03*
X029539Y019998D03*
X029539Y020027D03*
X029423Y020462D03*
X029423Y020491D03*
X029423Y020520D03*
X029423Y020549D03*
X029713Y020520D03*
X030351Y021361D03*
X030351Y021390D03*
X030699Y021390D03*
X030699Y021419D03*
X030728Y021651D03*
X031453Y022405D03*
X031453Y022434D03*
X031453Y022463D03*
X031453Y022492D03*
X031453Y022521D03*
X031511Y022637D03*
X029539Y022057D03*
X029220Y022260D03*
X028234Y023333D03*
X028379Y023565D03*
X032526Y021100D03*
X034121Y020897D03*
X034121Y020868D03*
X034208Y021216D03*
X034208Y021245D03*
X034208Y021274D03*
X034237Y021332D03*
X034237Y021361D03*
X034991Y021941D03*
X035020Y021912D03*
X033947Y022666D03*
X033947Y022695D03*
X033976Y022811D03*
X034034Y023188D03*
X034556Y023188D03*
X034556Y023217D03*
X034556Y023246D03*
X034556Y023275D03*
X034556Y023304D03*
X034556Y023333D03*
X029423Y027708D03*
X029452Y027766D03*
X029481Y027853D03*
X029481Y027882D03*
X029510Y027940D03*
X029510Y027969D03*
X029539Y027998D03*
X029539Y028027D03*
X029423Y028462D03*
X029423Y028491D03*
X029423Y028520D03*
X029423Y028549D03*
X029713Y028520D03*
X030351Y029361D03*
X030351Y029390D03*
X030699Y029390D03*
X030699Y029419D03*
X030728Y029651D03*
X031453Y030405D03*
X031453Y030434D03*
X031453Y030463D03*
X031453Y030492D03*
X031453Y030521D03*
X031511Y030637D03*
X029539Y030057D03*
X029220Y030260D03*
X028234Y031333D03*
X028379Y031565D03*
X032526Y029100D03*
X034121Y028897D03*
X034121Y028868D03*
X034208Y029216D03*
X034208Y029245D03*
X034208Y029274D03*
X034237Y029332D03*
X034237Y029361D03*
X034991Y029941D03*
X035020Y029912D03*
X033947Y030666D03*
X033947Y030695D03*
X033976Y030811D03*
X034034Y031188D03*
X034556Y031188D03*
X034556Y031217D03*
X034556Y031246D03*
X034556Y031275D03*
X034556Y031304D03*
X034556Y031333D03*
X023478Y029883D03*
X023478Y029854D03*
X023478Y029825D03*
X023478Y029796D03*
X023478Y029767D03*
X023478Y029738D03*
X023478Y029709D03*
X023478Y021883D03*
X023478Y021854D03*
X023478Y021825D03*
X023478Y021796D03*
X023478Y021767D03*
X023478Y021738D03*
X023478Y021709D03*
X023478Y013883D03*
X023478Y013854D03*
X023478Y013825D03*
X023478Y013796D03*
X023478Y013767D03*
X023478Y013738D03*
X023478Y013709D03*
D13*
X023174Y013709D03*
X023174Y013738D03*
X023174Y013767D03*
X026683Y013274D03*
X027466Y014521D03*
X027494Y014724D03*
X027494Y014753D03*
X027494Y014782D03*
X027494Y014811D03*
X027494Y014840D03*
X027494Y014869D03*
X027494Y014898D03*
X027494Y014927D03*
X027494Y014956D03*
X027494Y014985D03*
X027494Y015014D03*
X027494Y015043D03*
X027494Y015072D03*
X027494Y015101D03*
X028539Y015565D03*
X030046Y014927D03*
X030046Y014898D03*
X030046Y014869D03*
X030046Y014840D03*
X030046Y014811D03*
X030046Y014782D03*
X030046Y014753D03*
X030279Y014695D03*
X030279Y014666D03*
X030279Y014637D03*
X030279Y014608D03*
X030279Y014579D03*
X030279Y014550D03*
X030279Y014521D03*
X030743Y014753D03*
X030743Y014782D03*
X031496Y014608D03*
X029524Y014289D03*
X029524Y014260D03*
X029524Y014231D03*
X029524Y014202D03*
X029524Y014173D03*
X029524Y014144D03*
X029524Y014115D03*
X029524Y014086D03*
X029554Y014028D03*
X029554Y013999D03*
X029554Y013970D03*
X029554Y013941D03*
X029554Y013912D03*
X029554Y013883D03*
X029583Y013854D03*
X029583Y013825D03*
X029321Y011563D03*
X029293Y011447D03*
X029293Y011418D03*
X029293Y011389D03*
X029264Y011273D03*
X029264Y011244D03*
X029264Y011215D03*
X029264Y011186D03*
X029264Y011157D03*
X029264Y011128D03*
X029264Y011099D03*
X029264Y011070D03*
X029264Y011041D03*
X029264Y011012D03*
X029466Y011012D03*
X029466Y011041D03*
X029466Y011070D03*
X029466Y011099D03*
X029466Y011128D03*
X029466Y011157D03*
X029466Y011186D03*
X029466Y011215D03*
X029466Y011244D03*
X029466Y011273D03*
X029466Y011534D03*
X034223Y013303D03*
X035093Y013738D03*
X035093Y013767D03*
X035064Y013796D03*
X035064Y013825D03*
X035064Y013854D03*
X035034Y013883D03*
X034484Y014347D03*
X034513Y014376D03*
X034513Y014405D03*
X034541Y014463D03*
X034599Y014579D03*
X034629Y014637D03*
X034658Y014666D03*
X034164Y014637D03*
X034019Y015159D03*
X034049Y015217D03*
X034106Y015391D03*
X034136Y015420D03*
X034136Y015449D03*
X034164Y015507D03*
X036166Y015507D03*
X036166Y015536D03*
X036166Y015478D03*
X036166Y015449D03*
X036166Y015420D03*
X036166Y015391D03*
X036253Y015159D03*
X036339Y014927D03*
X029466Y019012D03*
X029466Y019041D03*
X029466Y019070D03*
X029466Y019099D03*
X029466Y019128D03*
X029466Y019157D03*
X029466Y019186D03*
X029466Y019215D03*
X029466Y019244D03*
X029466Y019273D03*
X029264Y019273D03*
X029264Y019244D03*
X029264Y019215D03*
X029264Y019186D03*
X029264Y019157D03*
X029264Y019128D03*
X029264Y019099D03*
X029264Y019070D03*
X029264Y019041D03*
X029264Y019012D03*
X029293Y019389D03*
X029293Y019418D03*
X029293Y019447D03*
X029321Y019563D03*
X029466Y019534D03*
X026683Y021274D03*
X027466Y022521D03*
X027494Y022724D03*
X027494Y022753D03*
X027494Y022782D03*
X027494Y022811D03*
X027494Y022840D03*
X027494Y022869D03*
X027494Y022898D03*
X027494Y022927D03*
X027494Y022956D03*
X027494Y022985D03*
X027494Y023014D03*
X027494Y023043D03*
X027494Y023072D03*
X027494Y023101D03*
X028539Y023565D03*
X030046Y022927D03*
X030046Y022898D03*
X030046Y022869D03*
X030046Y022840D03*
X030046Y022811D03*
X030046Y022782D03*
X030046Y022753D03*
X030279Y022695D03*
X030279Y022666D03*
X030279Y022637D03*
X030279Y022608D03*
X030279Y022579D03*
X030279Y022550D03*
X030279Y022521D03*
X030743Y022753D03*
X030743Y022782D03*
X031496Y022608D03*
X029524Y022289D03*
X029524Y022260D03*
X029524Y022231D03*
X029524Y022202D03*
X029524Y022173D03*
X029524Y022144D03*
X029524Y022115D03*
X029524Y022086D03*
X029554Y022028D03*
X029554Y021999D03*
X029554Y021970D03*
X029554Y021941D03*
X029554Y021912D03*
X029554Y021883D03*
X029583Y021854D03*
X029583Y021825D03*
X034019Y023159D03*
X034049Y023217D03*
X034106Y023391D03*
X034136Y023420D03*
X034136Y023449D03*
X034164Y023507D03*
X034164Y022637D03*
X034541Y022463D03*
X034513Y022405D03*
X034513Y022376D03*
X034484Y022347D03*
X034599Y022579D03*
X034629Y022637D03*
X034658Y022666D03*
X035034Y021883D03*
X035064Y021854D03*
X035064Y021825D03*
X035064Y021796D03*
X035093Y021767D03*
X035093Y021738D03*
X034223Y021303D03*
X036339Y022927D03*
X036253Y023159D03*
X036166Y023391D03*
X036166Y023420D03*
X036166Y023449D03*
X036166Y023478D03*
X036166Y023507D03*
X036166Y023536D03*
X029466Y027012D03*
X029466Y027041D03*
X029466Y027070D03*
X029466Y027099D03*
X029466Y027128D03*
X029466Y027157D03*
X029466Y027186D03*
X029466Y027215D03*
X029466Y027244D03*
X029466Y027273D03*
X029264Y027273D03*
X029264Y027244D03*
X029264Y027215D03*
X029264Y027186D03*
X029264Y027157D03*
X029264Y027128D03*
X029264Y027099D03*
X029264Y027070D03*
X029264Y027041D03*
X029264Y027012D03*
X029293Y027389D03*
X029293Y027418D03*
X029293Y027447D03*
X029321Y027563D03*
X029466Y027534D03*
X026683Y029274D03*
X027466Y030521D03*
X027494Y030724D03*
X027494Y030753D03*
X027494Y030782D03*
X027494Y030811D03*
X027494Y030840D03*
X027494Y030869D03*
X027494Y030898D03*
X027494Y030927D03*
X027494Y030956D03*
X027494Y030985D03*
X027494Y031014D03*
X027494Y031043D03*
X027494Y031072D03*
X027494Y031101D03*
X028539Y031565D03*
X030046Y030927D03*
X030046Y030898D03*
X030046Y030869D03*
X030046Y030840D03*
X030046Y030811D03*
X030046Y030782D03*
X030046Y030753D03*
X030279Y030695D03*
X030279Y030666D03*
X030279Y030637D03*
X030279Y030608D03*
X030279Y030579D03*
X030279Y030550D03*
X030279Y030521D03*
X030743Y030753D03*
X030743Y030782D03*
X031496Y030608D03*
X029524Y030289D03*
X029524Y030260D03*
X029524Y030231D03*
X029524Y030202D03*
X029524Y030173D03*
X029524Y030144D03*
X029524Y030115D03*
X029524Y030086D03*
X029554Y030028D03*
X029554Y029999D03*
X029554Y029970D03*
X029554Y029941D03*
X029554Y029912D03*
X029554Y029883D03*
X029583Y029854D03*
X029583Y029825D03*
X034019Y031159D03*
X034049Y031217D03*
X034106Y031391D03*
X034136Y031420D03*
X034136Y031449D03*
X034164Y031507D03*
X034164Y030637D03*
X034541Y030463D03*
X034513Y030405D03*
X034513Y030376D03*
X034484Y030347D03*
X034599Y030579D03*
X034629Y030637D03*
X034658Y030666D03*
X035034Y029883D03*
X035064Y029854D03*
X035064Y029825D03*
X035064Y029796D03*
X035093Y029767D03*
X035093Y029738D03*
X034223Y029303D03*
X036339Y030927D03*
X036253Y031159D03*
X036166Y031391D03*
X036166Y031420D03*
X036166Y031449D03*
X036166Y031478D03*
X036166Y031507D03*
X036166Y031536D03*
X023174Y029767D03*
X023174Y029738D03*
X023174Y029709D03*
X023174Y021767D03*
X023174Y021738D03*
X023174Y021709D03*
X028539Y007565D03*
X027494Y007101D03*
X027494Y007072D03*
X027494Y007043D03*
X027494Y007014D03*
X027494Y006985D03*
X027494Y006956D03*
X027494Y006927D03*
X027494Y006898D03*
X027494Y006869D03*
X027494Y006840D03*
X027494Y006811D03*
X027494Y006782D03*
X027494Y006753D03*
X027494Y006724D03*
X027466Y006521D03*
X026683Y005274D03*
X029554Y005883D03*
X029554Y005912D03*
X029554Y005941D03*
X029554Y005970D03*
X029554Y005999D03*
X029554Y006028D03*
X029524Y006086D03*
X029524Y006115D03*
X029524Y006144D03*
X029524Y006173D03*
X029524Y006202D03*
X029524Y006231D03*
X029524Y006260D03*
X029524Y006289D03*
X029583Y005854D03*
X029583Y005825D03*
X030279Y006521D03*
X030279Y006550D03*
X030279Y006579D03*
X030279Y006608D03*
X030279Y006637D03*
X030279Y006666D03*
X030279Y006695D03*
X030046Y006753D03*
X030046Y006782D03*
X030046Y006811D03*
X030046Y006840D03*
X030046Y006869D03*
X030046Y006898D03*
X030046Y006927D03*
X030743Y006782D03*
X030743Y006753D03*
X031496Y006608D03*
X034019Y007159D03*
X034049Y007217D03*
X034106Y007391D03*
X034136Y007420D03*
X034136Y007449D03*
X034164Y007507D03*
X034164Y006637D03*
X034541Y006463D03*
X034513Y006405D03*
X034513Y006376D03*
X034484Y006347D03*
X034599Y006579D03*
X034629Y006637D03*
X034658Y006666D03*
X035034Y005883D03*
X035064Y005854D03*
X035064Y005825D03*
X035064Y005796D03*
X035093Y005767D03*
X035093Y005738D03*
X034223Y005303D03*
X036339Y006927D03*
X036253Y007159D03*
X036166Y007391D03*
X036166Y007420D03*
X036166Y007449D03*
X036166Y007478D03*
X036166Y007507D03*
X036166Y007536D03*
X029466Y003534D03*
X029321Y003563D03*
X029293Y003447D03*
X029293Y003418D03*
X029293Y003389D03*
X029264Y003273D03*
X029264Y003244D03*
X029264Y003215D03*
X029264Y003186D03*
X029264Y003157D03*
X029264Y003128D03*
X029264Y003099D03*
X029264Y003070D03*
X029264Y003041D03*
X029264Y003012D03*
X029466Y003012D03*
X029466Y003041D03*
X029466Y003070D03*
X029466Y003099D03*
X029466Y003128D03*
X029466Y003157D03*
X029466Y003186D03*
X029466Y003215D03*
X029466Y003244D03*
X029466Y003273D03*
X023174Y005709D03*
X023174Y005738D03*
X023174Y005767D03*
D14*
X024681Y005448D03*
X024884Y005448D03*
X025667Y005274D03*
X026131Y005274D03*
X026219Y005274D03*
X026276Y005013D03*
X026276Y004984D03*
X026276Y004955D03*
X026276Y004926D03*
X026276Y004897D03*
X026276Y004868D03*
X026799Y005274D03*
X027436Y005274D03*
X027436Y005303D03*
X027436Y005332D03*
X027436Y005361D03*
X027436Y005390D03*
X027436Y005419D03*
X027436Y005448D03*
X027436Y005477D03*
X027436Y005506D03*
X027436Y005535D03*
X027436Y005564D03*
X027436Y005593D03*
X027436Y005622D03*
X027436Y005651D03*
X027436Y005680D03*
X027436Y005709D03*
X027436Y005738D03*
X027436Y005767D03*
X027436Y005796D03*
X027436Y005825D03*
X027436Y005854D03*
X027436Y005883D03*
X027436Y005912D03*
X027436Y005941D03*
X027436Y005970D03*
X027436Y005999D03*
X027436Y006028D03*
X027436Y006057D03*
X027436Y006086D03*
X027436Y006115D03*
X027436Y006144D03*
X027436Y006173D03*
X027436Y006202D03*
X027436Y006231D03*
X027436Y006260D03*
X027436Y006289D03*
X027436Y006318D03*
X027436Y006347D03*
X027436Y006376D03*
X027436Y006405D03*
X027436Y006434D03*
X027436Y006463D03*
X027436Y006492D03*
X028104Y007130D03*
X027494Y007304D03*
X027494Y007333D03*
X028799Y006927D03*
X028799Y006898D03*
X028799Y006869D03*
X028799Y006840D03*
X028799Y006811D03*
X028799Y006782D03*
X028799Y006753D03*
X030134Y006666D03*
X030134Y006637D03*
X030134Y006608D03*
X030134Y006579D03*
X030134Y006550D03*
X030134Y006521D03*
X030684Y005593D03*
X031931Y006695D03*
X032946Y006956D03*
X032946Y006985D03*
X032946Y007014D03*
X032946Y007043D03*
X032946Y007072D03*
X032946Y007101D03*
X034194Y006666D03*
X034251Y007362D03*
X034194Y007565D03*
X034947Y007159D03*
X036426Y007188D03*
X036426Y007217D03*
X036571Y007333D03*
X036514Y007536D03*
X037354Y007333D03*
X029437Y010635D03*
X029437Y010664D03*
X029437Y010693D03*
X029466Y010809D03*
X029466Y010867D03*
X029466Y010896D03*
X029466Y010925D03*
X029466Y010954D03*
X029234Y010809D03*
X029176Y010664D03*
X026276Y012868D03*
X026276Y012897D03*
X026276Y012926D03*
X026276Y012955D03*
X026276Y012984D03*
X026276Y013013D03*
X026219Y013274D03*
X026131Y013274D03*
X025667Y013274D03*
X024884Y013448D03*
X024681Y013448D03*
X026799Y013274D03*
X027436Y013274D03*
X027436Y013303D03*
X027436Y013332D03*
X027436Y013361D03*
X027436Y013390D03*
X027436Y013419D03*
X027436Y013448D03*
X027436Y013477D03*
X027436Y013506D03*
X027436Y013535D03*
X027436Y013564D03*
X027436Y013593D03*
X027436Y013622D03*
X027436Y013651D03*
X027436Y013680D03*
X027436Y013709D03*
X027436Y013738D03*
X027436Y013767D03*
X027436Y013796D03*
X027436Y013825D03*
X027436Y013854D03*
X027436Y013883D03*
X027436Y013912D03*
X027436Y013941D03*
X027436Y013970D03*
X027436Y013999D03*
X027436Y014028D03*
X027436Y014057D03*
X027436Y014086D03*
X027436Y014115D03*
X027436Y014144D03*
X027436Y014173D03*
X027436Y014202D03*
X027436Y014231D03*
X027436Y014260D03*
X027436Y014289D03*
X027436Y014318D03*
X027436Y014347D03*
X027436Y014376D03*
X027436Y014405D03*
X027436Y014434D03*
X027436Y014463D03*
X027436Y014492D03*
X027494Y015304D03*
X027494Y015333D03*
X028104Y015130D03*
X028799Y014927D03*
X028799Y014898D03*
X028799Y014869D03*
X028799Y014840D03*
X028799Y014811D03*
X028799Y014782D03*
X028799Y014753D03*
X030134Y014666D03*
X030134Y014637D03*
X030134Y014608D03*
X030134Y014579D03*
X030134Y014550D03*
X030134Y014521D03*
X030684Y013593D03*
X031931Y014695D03*
X032946Y014956D03*
X032946Y014985D03*
X032946Y015014D03*
X032946Y015043D03*
X032946Y015072D03*
X032946Y015101D03*
X034194Y014666D03*
X034251Y015362D03*
X034194Y015565D03*
X034947Y015159D03*
X036426Y015188D03*
X036426Y015217D03*
X036571Y015333D03*
X036514Y015536D03*
X037354Y015333D03*
X029437Y018635D03*
X029437Y018664D03*
X029437Y018693D03*
X029466Y018809D03*
X029466Y018867D03*
X029466Y018896D03*
X029466Y018925D03*
X029466Y018954D03*
X029234Y018809D03*
X029176Y018664D03*
X027436Y021100D03*
X027436Y021129D03*
X027436Y021158D03*
X027436Y021187D03*
X027436Y021216D03*
X027436Y021245D03*
X027436Y021274D03*
X027436Y021303D03*
X027436Y021332D03*
X027436Y021361D03*
X027436Y021390D03*
X027436Y021419D03*
X027436Y021448D03*
X027436Y021477D03*
X027436Y021506D03*
X027436Y021535D03*
X027436Y021564D03*
X027436Y021593D03*
X027436Y021622D03*
X027436Y021651D03*
X027436Y021680D03*
X027436Y021709D03*
X027436Y021738D03*
X027436Y021767D03*
X027436Y021796D03*
X027436Y021825D03*
X027436Y021854D03*
X027436Y021883D03*
X027436Y021912D03*
X027436Y021941D03*
X027436Y021970D03*
X027436Y021999D03*
X027436Y022028D03*
X027436Y022057D03*
X027436Y022086D03*
X027436Y022115D03*
X027436Y022144D03*
X027436Y022173D03*
X027436Y022202D03*
X027436Y022231D03*
X027436Y022260D03*
X027436Y022289D03*
X027436Y022318D03*
X027436Y022347D03*
X027436Y022376D03*
X027436Y022405D03*
X027436Y022434D03*
X027436Y022463D03*
X027436Y022492D03*
X028104Y023130D03*
X027494Y023304D03*
X027494Y023333D03*
X028799Y022927D03*
X028799Y022898D03*
X028799Y022869D03*
X028799Y022840D03*
X028799Y022811D03*
X028799Y022782D03*
X028799Y022753D03*
X030134Y022666D03*
X030134Y022637D03*
X030134Y022608D03*
X030134Y022579D03*
X030134Y022550D03*
X030134Y022521D03*
X030684Y021593D03*
X031931Y022695D03*
X032946Y022956D03*
X032946Y022985D03*
X032946Y023014D03*
X032946Y023043D03*
X032946Y023072D03*
X032946Y023101D03*
X034194Y022666D03*
X034251Y023362D03*
X034194Y023565D03*
X034947Y023159D03*
X036426Y023188D03*
X036426Y023217D03*
X036571Y023333D03*
X036514Y023536D03*
X037354Y023333D03*
X029437Y026635D03*
X029437Y026664D03*
X029437Y026693D03*
X029466Y026809D03*
X029466Y026867D03*
X029466Y026896D03*
X029466Y026925D03*
X029466Y026954D03*
X029234Y026809D03*
X029176Y026664D03*
X026276Y028868D03*
X026276Y028897D03*
X026276Y028926D03*
X026276Y028955D03*
X026276Y028984D03*
X026276Y029013D03*
X026219Y029274D03*
X026131Y029274D03*
X025667Y029274D03*
X024884Y029448D03*
X024681Y029448D03*
X026799Y029274D03*
X027436Y029274D03*
X027436Y029303D03*
X027436Y029332D03*
X027436Y029361D03*
X027436Y029390D03*
X027436Y029419D03*
X027436Y029448D03*
X027436Y029477D03*
X027436Y029506D03*
X027436Y029535D03*
X027436Y029564D03*
X027436Y029593D03*
X027436Y029622D03*
X027436Y029651D03*
X027436Y029680D03*
X027436Y029709D03*
X027436Y029738D03*
X027436Y029767D03*
X027436Y029796D03*
X027436Y029825D03*
X027436Y029854D03*
X027436Y029883D03*
X027436Y029912D03*
X027436Y029941D03*
X027436Y029970D03*
X027436Y029999D03*
X027436Y030028D03*
X027436Y030057D03*
X027436Y030086D03*
X027436Y030115D03*
X027436Y030144D03*
X027436Y030173D03*
X027436Y030202D03*
X027436Y030231D03*
X027436Y030260D03*
X027436Y030289D03*
X027436Y030318D03*
X027436Y030347D03*
X027436Y030376D03*
X027436Y030405D03*
X027436Y030434D03*
X027436Y030463D03*
X027436Y030492D03*
X027494Y031304D03*
X027494Y031333D03*
X028104Y031130D03*
X028799Y030927D03*
X028799Y030898D03*
X028799Y030869D03*
X028799Y030840D03*
X028799Y030811D03*
X028799Y030782D03*
X028799Y030753D03*
X030134Y030666D03*
X030134Y030637D03*
X030134Y030608D03*
X030134Y030579D03*
X030134Y030550D03*
X030134Y030521D03*
X030684Y029593D03*
X031931Y030695D03*
X032946Y030956D03*
X032946Y030985D03*
X032946Y031014D03*
X032946Y031043D03*
X032946Y031072D03*
X032946Y031101D03*
X034194Y030666D03*
X034251Y031362D03*
X034194Y031565D03*
X034947Y031159D03*
X036426Y031188D03*
X036426Y031217D03*
X036571Y031333D03*
X036514Y031536D03*
X037354Y031333D03*
X027436Y029245D03*
X027436Y029216D03*
X027436Y029187D03*
X027436Y029158D03*
X027436Y029129D03*
X027436Y029100D03*
X026799Y021274D03*
X026219Y021274D03*
X026131Y021274D03*
X026276Y021013D03*
X026276Y020984D03*
X026276Y020955D03*
X026276Y020926D03*
X026276Y020897D03*
X026276Y020868D03*
X025667Y021274D03*
X024884Y021448D03*
X024681Y021448D03*
X027436Y013245D03*
X027436Y013216D03*
X027436Y013187D03*
X027436Y013158D03*
X027436Y013129D03*
X027436Y013100D03*
X027436Y005245D03*
X027436Y005216D03*
X027436Y005187D03*
X027436Y005158D03*
X027436Y005129D03*
X027436Y005100D03*
X029234Y002809D03*
X029176Y002664D03*
X029437Y002664D03*
X029437Y002693D03*
X029437Y002635D03*
X029466Y002809D03*
X029466Y002867D03*
X029466Y002896D03*
X029466Y002925D03*
X029466Y002954D03*
D15*
X029452Y002983D03*
X029481Y002838D03*
X029452Y002780D03*
X029452Y002751D03*
X029452Y002722D03*
X029249Y002838D03*
X029249Y002867D03*
X029249Y002896D03*
X029249Y002925D03*
X029249Y002954D03*
X029249Y002983D03*
X029220Y002780D03*
X029220Y002751D03*
X029191Y002693D03*
X029162Y002635D03*
X029452Y003302D03*
X029452Y003331D03*
X029452Y003360D03*
X029452Y003389D03*
X029452Y003418D03*
X029452Y003447D03*
X029452Y003476D03*
X029452Y003505D03*
X029452Y003563D03*
X029452Y003592D03*
X029336Y003592D03*
X029307Y003534D03*
X029307Y003505D03*
X029307Y003476D03*
X029481Y005042D03*
X030670Y005506D03*
X030670Y005535D03*
X030670Y005564D03*
X030699Y005622D03*
X030641Y006695D03*
X030757Y006811D03*
X030757Y006840D03*
X030757Y006869D03*
X030757Y006898D03*
X030757Y006927D03*
X032526Y005854D03*
X033512Y006956D03*
X033512Y006985D03*
X033512Y007014D03*
X033512Y007043D03*
X033512Y007072D03*
X033512Y007101D03*
X033512Y007130D03*
X034150Y007478D03*
X034179Y007536D03*
X034759Y006898D03*
X034759Y006869D03*
X034614Y006608D03*
X034585Y006550D03*
X034556Y006521D03*
X034556Y006492D03*
X034527Y006434D03*
X035107Y005709D03*
X035107Y005680D03*
X035107Y005651D03*
X035107Y005622D03*
X035832Y006927D03*
X035832Y006956D03*
X035832Y006985D03*
X035832Y007014D03*
X035832Y007043D03*
X035832Y007072D03*
X035832Y007101D03*
X035687Y007188D03*
X035687Y007217D03*
X035687Y007246D03*
X035687Y007275D03*
X035687Y007304D03*
X035687Y007333D03*
X036180Y007565D03*
X036441Y007333D03*
X036441Y007304D03*
X036441Y007275D03*
X036441Y007246D03*
X036412Y007159D03*
X029452Y010722D03*
X029452Y010751D03*
X029452Y010780D03*
X029481Y010838D03*
X029452Y010983D03*
X029249Y010983D03*
X029249Y010954D03*
X029249Y010925D03*
X029249Y010896D03*
X029249Y010867D03*
X029249Y010838D03*
X029220Y010780D03*
X029220Y010751D03*
X029191Y010693D03*
X029162Y010635D03*
X029452Y011302D03*
X029452Y011331D03*
X029452Y011360D03*
X029452Y011389D03*
X029452Y011418D03*
X029452Y011447D03*
X029452Y011476D03*
X029452Y011505D03*
X029452Y011563D03*
X029452Y011592D03*
X029336Y011592D03*
X029307Y011534D03*
X029307Y011505D03*
X029307Y011476D03*
X026610Y012868D03*
X026610Y012897D03*
X026610Y012926D03*
X026610Y012955D03*
X026610Y012984D03*
X026610Y013013D03*
X027422Y013071D03*
X029481Y013042D03*
X030670Y013506D03*
X030670Y013535D03*
X030670Y013564D03*
X030699Y013622D03*
X030641Y014695D03*
X030757Y014811D03*
X030757Y014840D03*
X030757Y014869D03*
X030757Y014898D03*
X030757Y014927D03*
X032526Y013854D03*
X033512Y014956D03*
X033512Y014985D03*
X033512Y015014D03*
X033512Y015043D03*
X033512Y015072D03*
X033512Y015101D03*
X033512Y015130D03*
X034150Y015478D03*
X034179Y015536D03*
X034759Y014898D03*
X034759Y014869D03*
X034614Y014608D03*
X034585Y014550D03*
X034556Y014521D03*
X034556Y014492D03*
X034527Y014434D03*
X035107Y013709D03*
X035107Y013680D03*
X035107Y013651D03*
X035107Y013622D03*
X035832Y014927D03*
X035832Y014956D03*
X035832Y014985D03*
X035832Y015014D03*
X035832Y015043D03*
X035832Y015072D03*
X035832Y015101D03*
X035687Y015188D03*
X035687Y015217D03*
X035687Y015246D03*
X035687Y015275D03*
X035687Y015304D03*
X035687Y015333D03*
X036180Y015565D03*
X036441Y015333D03*
X036441Y015304D03*
X036441Y015275D03*
X036441Y015246D03*
X036412Y015159D03*
X029452Y018722D03*
X029452Y018751D03*
X029452Y018780D03*
X029481Y018838D03*
X029452Y018983D03*
X029249Y018983D03*
X029249Y018954D03*
X029249Y018925D03*
X029249Y018896D03*
X029249Y018867D03*
X029249Y018838D03*
X029220Y018780D03*
X029220Y018751D03*
X029191Y018693D03*
X029162Y018635D03*
X029452Y019302D03*
X029452Y019331D03*
X029452Y019360D03*
X029452Y019389D03*
X029452Y019418D03*
X029452Y019447D03*
X029452Y019476D03*
X029452Y019505D03*
X029452Y019563D03*
X029452Y019592D03*
X029336Y019592D03*
X029307Y019534D03*
X029307Y019505D03*
X029307Y019476D03*
X029481Y021042D03*
X030670Y021506D03*
X030670Y021535D03*
X030670Y021564D03*
X030699Y021622D03*
X030641Y022695D03*
X030757Y022811D03*
X030757Y022840D03*
X030757Y022869D03*
X030757Y022898D03*
X030757Y022927D03*
X028756Y023130D03*
X028756Y023159D03*
X028756Y023188D03*
X028756Y023217D03*
X028756Y023246D03*
X028756Y023275D03*
X028756Y023304D03*
X027480Y022695D03*
X027480Y022666D03*
X027480Y022637D03*
X027480Y022608D03*
X027480Y022579D03*
X027480Y022550D03*
X027422Y021071D03*
X026610Y021013D03*
X026610Y020984D03*
X026610Y020955D03*
X026610Y020926D03*
X026610Y020897D03*
X026610Y020868D03*
X024087Y021709D03*
X024087Y021738D03*
X024087Y021767D03*
X024087Y021796D03*
X024087Y021825D03*
X024087Y021854D03*
X024087Y021883D03*
X023710Y021767D03*
X023710Y021738D03*
X023710Y021709D03*
X023304Y021709D03*
X023304Y021738D03*
X023304Y021767D03*
X023304Y021796D03*
X023304Y021825D03*
X023304Y021854D03*
X023304Y021883D03*
X023159Y021883D03*
X023159Y021854D03*
X023159Y021825D03*
X023159Y021796D03*
X029162Y026635D03*
X029191Y026693D03*
X029220Y026751D03*
X029220Y026780D03*
X029249Y026838D03*
X029249Y026867D03*
X029249Y026896D03*
X029249Y026925D03*
X029249Y026954D03*
X029249Y026983D03*
X029452Y026983D03*
X029481Y026838D03*
X029452Y026780D03*
X029452Y026751D03*
X029452Y026722D03*
X029452Y027302D03*
X029452Y027331D03*
X029452Y027360D03*
X029452Y027389D03*
X029452Y027418D03*
X029452Y027447D03*
X029452Y027476D03*
X029452Y027505D03*
X029452Y027563D03*
X029452Y027592D03*
X029336Y027592D03*
X029307Y027534D03*
X029307Y027505D03*
X029307Y027476D03*
X029481Y029042D03*
X030670Y029506D03*
X030670Y029535D03*
X030670Y029564D03*
X030699Y029622D03*
X030641Y030695D03*
X030757Y030811D03*
X030757Y030840D03*
X030757Y030869D03*
X030757Y030898D03*
X030757Y030927D03*
X032526Y029854D03*
X033512Y030956D03*
X033512Y030985D03*
X033512Y031014D03*
X033512Y031043D03*
X033512Y031072D03*
X033512Y031101D03*
X033512Y031130D03*
X034150Y031478D03*
X034179Y031536D03*
X034759Y030898D03*
X034759Y030869D03*
X034614Y030608D03*
X034585Y030550D03*
X034556Y030521D03*
X034556Y030492D03*
X034527Y030434D03*
X035107Y029709D03*
X035107Y029680D03*
X035107Y029651D03*
X035107Y029622D03*
X035832Y030927D03*
X035832Y030956D03*
X035832Y030985D03*
X035832Y031014D03*
X035832Y031043D03*
X035832Y031072D03*
X035832Y031101D03*
X035687Y031188D03*
X035687Y031217D03*
X035687Y031246D03*
X035687Y031275D03*
X035687Y031304D03*
X035687Y031333D03*
X036180Y031565D03*
X036441Y031333D03*
X036441Y031304D03*
X036441Y031275D03*
X036441Y031246D03*
X036412Y031159D03*
X028756Y031159D03*
X028756Y031188D03*
X028756Y031217D03*
X028756Y031246D03*
X028756Y031275D03*
X028756Y031304D03*
X028756Y031130D03*
X027480Y030695D03*
X027480Y030666D03*
X027480Y030637D03*
X027480Y030608D03*
X027480Y030579D03*
X027480Y030550D03*
X027422Y029071D03*
X026610Y029013D03*
X026610Y028984D03*
X026610Y028955D03*
X026610Y028926D03*
X026610Y028897D03*
X026610Y028868D03*
X024087Y029709D03*
X024087Y029738D03*
X024087Y029767D03*
X024087Y029796D03*
X024087Y029825D03*
X024087Y029854D03*
X024087Y029883D03*
X023710Y029767D03*
X023710Y029738D03*
X023710Y029709D03*
X023304Y029709D03*
X023304Y029738D03*
X023304Y029767D03*
X023304Y029796D03*
X023304Y029825D03*
X023304Y029854D03*
X023304Y029883D03*
X023159Y029883D03*
X023159Y029854D03*
X023159Y029825D03*
X023159Y029796D03*
X034179Y023536D03*
X034150Y023478D03*
X033512Y023130D03*
X033512Y023101D03*
X033512Y023072D03*
X033512Y023043D03*
X033512Y023014D03*
X033512Y022985D03*
X033512Y022956D03*
X034556Y022521D03*
X034556Y022492D03*
X034527Y022434D03*
X034585Y022550D03*
X034614Y022608D03*
X034759Y022869D03*
X034759Y022898D03*
X035687Y023188D03*
X035687Y023217D03*
X035687Y023246D03*
X035687Y023275D03*
X035687Y023304D03*
X035687Y023333D03*
X035832Y023101D03*
X035832Y023072D03*
X035832Y023043D03*
X035832Y023014D03*
X035832Y022985D03*
X035832Y022956D03*
X035832Y022927D03*
X036412Y023159D03*
X036441Y023246D03*
X036441Y023275D03*
X036441Y023304D03*
X036441Y023333D03*
X036180Y023565D03*
X035107Y021709D03*
X035107Y021680D03*
X035107Y021651D03*
X035107Y021622D03*
X032526Y021854D03*
X028756Y015304D03*
X028756Y015275D03*
X028756Y015246D03*
X028756Y015217D03*
X028756Y015188D03*
X028756Y015159D03*
X028756Y015130D03*
X027480Y014695D03*
X027480Y014666D03*
X027480Y014637D03*
X027480Y014608D03*
X027480Y014579D03*
X027480Y014550D03*
X024087Y013883D03*
X024087Y013854D03*
X024087Y013825D03*
X024087Y013796D03*
X024087Y013767D03*
X024087Y013738D03*
X024087Y013709D03*
X023710Y013709D03*
X023710Y013738D03*
X023710Y013767D03*
X023304Y013767D03*
X023304Y013796D03*
X023304Y013825D03*
X023304Y013854D03*
X023304Y013883D03*
X023159Y013883D03*
X023159Y013854D03*
X023159Y013825D03*
X023159Y013796D03*
X023304Y013738D03*
X023304Y013709D03*
X028756Y007304D03*
X028756Y007275D03*
X028756Y007246D03*
X028756Y007217D03*
X028756Y007188D03*
X028756Y007159D03*
X028756Y007130D03*
X027480Y006695D03*
X027480Y006666D03*
X027480Y006637D03*
X027480Y006608D03*
X027480Y006579D03*
X027480Y006550D03*
X027422Y005071D03*
X026610Y005013D03*
X026610Y004984D03*
X026610Y004955D03*
X026610Y004926D03*
X026610Y004897D03*
X026610Y004868D03*
X024087Y005709D03*
X024087Y005738D03*
X024087Y005767D03*
X024087Y005796D03*
X024087Y005825D03*
X024087Y005854D03*
X024087Y005883D03*
X023710Y005767D03*
X023710Y005738D03*
X023710Y005709D03*
X023304Y005709D03*
X023304Y005738D03*
X023304Y005767D03*
X023304Y005796D03*
X023304Y005825D03*
X023304Y005854D03*
X023304Y005883D03*
X023159Y005883D03*
X023159Y005854D03*
X023159Y005825D03*
X023159Y005796D03*
D16*
X029206Y006521D03*
X029206Y006550D03*
X029206Y006579D03*
X029206Y006608D03*
X029206Y006637D03*
X030279Y004868D03*
X030742Y004491D03*
X032337Y004955D03*
X032686Y006318D03*
X036977Y007565D03*
X030742Y012491D03*
X030279Y012868D03*
X032337Y012955D03*
X032686Y014318D03*
X029206Y014521D03*
X029206Y014550D03*
X029206Y014579D03*
X029206Y014608D03*
X029206Y014637D03*
X036977Y015565D03*
X030742Y020491D03*
X030279Y020868D03*
X032337Y020955D03*
X032686Y022318D03*
X029206Y022521D03*
X029206Y022550D03*
X029206Y022579D03*
X029206Y022608D03*
X029206Y022637D03*
X036977Y023565D03*
X030742Y028491D03*
X030279Y028868D03*
X032337Y028955D03*
X032686Y030318D03*
X029206Y030521D03*
X029206Y030550D03*
X029206Y030579D03*
X029206Y030608D03*
X029206Y030637D03*
X036977Y031565D03*
D17*
X037775Y031565D03*
X033570Y029303D03*
X033541Y028752D03*
X032932Y030086D03*
X031192Y029361D03*
X030989Y029477D03*
X030438Y029187D03*
X031395Y028665D03*
X031511Y028694D03*
X037775Y023565D03*
X033570Y021303D03*
X033541Y020752D03*
X031511Y020694D03*
X031395Y020665D03*
X031192Y021361D03*
X030989Y021477D03*
X030438Y021187D03*
X032932Y022086D03*
X037775Y015565D03*
X033570Y013303D03*
X033541Y012752D03*
X031511Y012694D03*
X031395Y012665D03*
X031192Y013361D03*
X030989Y013477D03*
X030438Y013187D03*
X032932Y014086D03*
X037775Y007565D03*
X033570Y005303D03*
X033541Y004752D03*
X031511Y004694D03*
X031395Y004665D03*
X031192Y005361D03*
X030989Y005477D03*
X030438Y005187D03*
X032932Y006086D03*
D18*
X032569Y005912D03*
X032366Y006028D03*
X031032Y005158D03*
X030069Y004647D03*
X030017Y004636D03*
X030017Y004665D03*
X033381Y004433D03*
X033439Y004404D03*
X033469Y004375D03*
X033932Y004375D03*
X033932Y004172D03*
X028422Y007391D03*
X028422Y007420D03*
X028422Y007449D03*
X028422Y007478D03*
X028422Y007507D03*
X028422Y007536D03*
X033932Y012172D03*
X033932Y012375D03*
X033469Y012375D03*
X033439Y012404D03*
X033381Y012433D03*
X032569Y013912D03*
X032366Y014028D03*
X031032Y013158D03*
X030069Y012647D03*
X030017Y012636D03*
X030017Y012665D03*
X028422Y015391D03*
X028422Y015420D03*
X028422Y015449D03*
X028422Y015478D03*
X028422Y015507D03*
X028422Y015536D03*
X033932Y020172D03*
X033932Y020375D03*
X033469Y020375D03*
X033439Y020404D03*
X033381Y020433D03*
X031032Y021158D03*
X030069Y020647D03*
X030017Y020636D03*
X030017Y020665D03*
X032366Y022028D03*
X032569Y021912D03*
X028422Y023391D03*
X028422Y023420D03*
X028422Y023449D03*
X028422Y023478D03*
X028422Y023507D03*
X028422Y023536D03*
X033469Y028375D03*
X033439Y028404D03*
X033381Y028433D03*
X033932Y028375D03*
X033932Y028172D03*
X032569Y029912D03*
X032366Y030028D03*
X031032Y029158D03*
X030069Y028647D03*
X030017Y028636D03*
X030017Y028665D03*
X028422Y031391D03*
X028422Y031420D03*
X028422Y031449D03*
X028422Y031478D03*
X028422Y031507D03*
X028422Y031536D03*
D19*
X037354Y031536D03*
X037354Y023536D03*
X037354Y015536D03*
X037354Y007536D03*
D20*
X037311Y007507D03*
X037311Y007478D03*
X037311Y007449D03*
X037311Y007420D03*
X037311Y015420D03*
X037311Y015449D03*
X037311Y015478D03*
X037311Y015507D03*
X037311Y023420D03*
X037311Y023449D03*
X037311Y023478D03*
X037311Y023507D03*
X037311Y031420D03*
X037311Y031449D03*
X037311Y031478D03*
X037311Y031507D03*
D21*
X037282Y031391D03*
X037282Y023391D03*
X037282Y015391D03*
X037282Y007391D03*
D22*
X030887Y004578D03*
X029989Y004259D03*
X028161Y007362D03*
X029989Y012259D03*
X030887Y012578D03*
X028161Y015362D03*
X029989Y020259D03*
X030887Y020578D03*
X028161Y023362D03*
X029989Y028259D03*
X030887Y028578D03*
X028161Y031362D03*
D23*
X028437Y031333D03*
X030264Y030927D03*
X030264Y030898D03*
X030264Y030869D03*
X030264Y030840D03*
X030264Y030811D03*
X030264Y030782D03*
X030264Y030753D03*
X031424Y030318D03*
X031424Y030289D03*
X031424Y030260D03*
X031424Y030231D03*
X031424Y030202D03*
X031540Y030666D03*
X031511Y029622D03*
X030351Y029622D03*
X030351Y029651D03*
X030351Y029593D03*
X030351Y029564D03*
X030351Y029535D03*
X030351Y029506D03*
X030351Y029477D03*
X030351Y029448D03*
X030032Y029013D03*
X029568Y028056D03*
X026436Y029100D03*
X026436Y029129D03*
X026436Y029158D03*
X026436Y029187D03*
X026436Y029216D03*
X026436Y029245D03*
X033802Y029245D03*
X033802Y029216D03*
X034179Y029042D03*
X034179Y029013D03*
X034150Y028984D03*
X034150Y028839D03*
X034092Y028694D03*
X034063Y028665D03*
X034063Y028636D03*
X034034Y028578D03*
X034237Y029187D03*
X033860Y029680D03*
X033860Y029709D03*
X033860Y029738D03*
X033889Y030057D03*
X033889Y030173D03*
X033889Y030202D03*
X034875Y030057D03*
X034904Y030028D03*
X034933Y029999D03*
X036325Y030956D03*
X036325Y030985D03*
X036325Y031014D03*
X036325Y031043D03*
X036325Y031072D03*
X036325Y031101D03*
X035745Y031159D03*
X034556Y031159D03*
X034092Y031275D03*
X034092Y031362D03*
X034092Y023362D03*
X034092Y023275D03*
X034556Y023159D03*
X035745Y023159D03*
X036325Y023101D03*
X036325Y023072D03*
X036325Y023043D03*
X036325Y023014D03*
X036325Y022985D03*
X036325Y022956D03*
X034933Y021999D03*
X034904Y022028D03*
X034875Y022057D03*
X033889Y022057D03*
X033889Y022173D03*
X033889Y022202D03*
X033860Y021738D03*
X033860Y021709D03*
X033860Y021680D03*
X033802Y021245D03*
X033802Y021216D03*
X034179Y021042D03*
X034179Y021013D03*
X034150Y020984D03*
X034150Y020839D03*
X034092Y020694D03*
X034063Y020665D03*
X034063Y020636D03*
X034034Y020578D03*
X034237Y021187D03*
X031511Y021622D03*
X031424Y022202D03*
X031424Y022231D03*
X031424Y022260D03*
X031424Y022289D03*
X031424Y022318D03*
X031540Y022666D03*
X030264Y022753D03*
X030264Y022782D03*
X030264Y022811D03*
X030264Y022840D03*
X030264Y022869D03*
X030264Y022898D03*
X030264Y022927D03*
X028437Y023333D03*
X030351Y021651D03*
X030351Y021622D03*
X030351Y021593D03*
X030351Y021564D03*
X030351Y021535D03*
X030351Y021506D03*
X030351Y021477D03*
X030351Y021448D03*
X030032Y021013D03*
X029568Y020056D03*
X026436Y021100D03*
X026436Y021129D03*
X026436Y021158D03*
X026436Y021187D03*
X026436Y021216D03*
X026436Y021245D03*
X028437Y015333D03*
X030264Y014927D03*
X030264Y014898D03*
X030264Y014869D03*
X030264Y014840D03*
X030264Y014811D03*
X030264Y014782D03*
X030264Y014753D03*
X031424Y014318D03*
X031424Y014289D03*
X031424Y014260D03*
X031424Y014231D03*
X031424Y014202D03*
X031540Y014666D03*
X031511Y013622D03*
X030351Y013622D03*
X030351Y013651D03*
X030351Y013593D03*
X030351Y013564D03*
X030351Y013535D03*
X030351Y013506D03*
X030351Y013477D03*
X030351Y013448D03*
X030032Y013013D03*
X029568Y012056D03*
X026436Y013100D03*
X026436Y013129D03*
X026436Y013158D03*
X026436Y013187D03*
X026436Y013216D03*
X026436Y013245D03*
X033802Y013245D03*
X033802Y013216D03*
X034179Y013042D03*
X034179Y013013D03*
X034150Y012984D03*
X034150Y012839D03*
X034092Y012694D03*
X034063Y012665D03*
X034063Y012636D03*
X034034Y012578D03*
X034237Y013187D03*
X033860Y013680D03*
X033860Y013709D03*
X033860Y013738D03*
X033889Y014057D03*
X033889Y014173D03*
X033889Y014202D03*
X034875Y014057D03*
X034904Y014028D03*
X034933Y013999D03*
X036325Y014956D03*
X036325Y014985D03*
X036325Y015014D03*
X036325Y015043D03*
X036325Y015072D03*
X036325Y015101D03*
X035745Y015159D03*
X034556Y015159D03*
X034092Y015275D03*
X034092Y015362D03*
X034092Y007362D03*
X034092Y007275D03*
X034556Y007159D03*
X033889Y006202D03*
X033889Y006173D03*
X033889Y006057D03*
X033860Y005738D03*
X033860Y005709D03*
X033860Y005680D03*
X033802Y005245D03*
X033802Y005216D03*
X034179Y005042D03*
X034179Y005013D03*
X034150Y004984D03*
X034150Y004839D03*
X034092Y004694D03*
X034063Y004665D03*
X034063Y004636D03*
X034034Y004578D03*
X034237Y005187D03*
X034933Y005999D03*
X034904Y006028D03*
X034875Y006057D03*
X035745Y007159D03*
X036325Y007101D03*
X036325Y007072D03*
X036325Y007043D03*
X036325Y007014D03*
X036325Y006985D03*
X036325Y006956D03*
X031540Y006666D03*
X031424Y006318D03*
X031424Y006289D03*
X031424Y006260D03*
X031424Y006231D03*
X031424Y006202D03*
X031511Y005622D03*
X030351Y005622D03*
X030351Y005651D03*
X030351Y005593D03*
X030351Y005564D03*
X030351Y005535D03*
X030351Y005506D03*
X030351Y005477D03*
X030351Y005448D03*
X030032Y005013D03*
X029568Y004056D03*
X026436Y005100D03*
X026436Y005129D03*
X026436Y005158D03*
X026436Y005187D03*
X026436Y005216D03*
X026436Y005245D03*
X028437Y007333D03*
X030264Y006927D03*
X030264Y006898D03*
X030264Y006869D03*
X030264Y006840D03*
X030264Y006811D03*
X030264Y006782D03*
X030264Y006753D03*
D24*
X030003Y004607D03*
X033918Y004404D03*
X036093Y007362D03*
X033918Y012404D03*
X030003Y012607D03*
X025508Y013100D03*
X025508Y013129D03*
X025508Y013158D03*
X025508Y013187D03*
X025508Y013216D03*
X025508Y013245D03*
X036093Y015362D03*
X033918Y020404D03*
X030003Y020607D03*
X025508Y021100D03*
X025508Y021129D03*
X025508Y021158D03*
X025508Y021187D03*
X025508Y021216D03*
X025508Y021245D03*
X036093Y023362D03*
X033918Y028404D03*
X030003Y028607D03*
X025508Y029100D03*
X025508Y029129D03*
X025508Y029158D03*
X025508Y029187D03*
X025508Y029216D03*
X025508Y029245D03*
X036093Y031362D03*
X025508Y005245D03*
X025508Y005216D03*
X025508Y005187D03*
X025508Y005158D03*
X025508Y005129D03*
X025508Y005100D03*
D25*
X037268Y007362D03*
X037268Y015362D03*
X037268Y023362D03*
X037268Y031362D03*
D26*
X033381Y030202D03*
X032860Y030028D03*
X032251Y030115D03*
X031613Y030086D03*
X031061Y029506D03*
X031120Y029274D03*
X030685Y028433D03*
X029931Y028549D03*
X029670Y028230D03*
X032454Y029013D03*
X032946Y029100D03*
X033816Y028288D03*
X027843Y031304D03*
X027843Y031333D03*
X027756Y031130D03*
X027843Y023333D03*
X027843Y023304D03*
X027756Y023130D03*
X031061Y021506D03*
X031120Y021274D03*
X031613Y022086D03*
X032251Y022115D03*
X032860Y022028D03*
X033381Y022202D03*
X032946Y021100D03*
X032454Y021013D03*
X033816Y020288D03*
X030685Y020433D03*
X029931Y020549D03*
X029670Y020230D03*
X027843Y015333D03*
X027843Y015304D03*
X027756Y015130D03*
X031061Y013506D03*
X031120Y013274D03*
X030685Y012433D03*
X029931Y012549D03*
X029670Y012230D03*
X032454Y013013D03*
X032946Y013100D03*
X032860Y014028D03*
X033381Y014202D03*
X032251Y014115D03*
X031613Y014086D03*
X033816Y012288D03*
X027843Y007333D03*
X027843Y007304D03*
X027756Y007130D03*
X031061Y005506D03*
X031120Y005274D03*
X031613Y006086D03*
X032251Y006115D03*
X032860Y006028D03*
X033381Y006202D03*
X032946Y005100D03*
X032454Y005013D03*
X033816Y004288D03*
X030685Y004433D03*
X029931Y004549D03*
X029670Y004230D03*
D27*
X029699Y004491D03*
X029699Y004578D03*
X029438Y004578D03*
X029438Y004433D03*
X029496Y003911D03*
X029438Y003737D03*
X029409Y003679D03*
X029409Y003650D03*
X029496Y005013D03*
X030366Y005332D03*
X031439Y006347D03*
X031439Y006376D03*
X031468Y006550D03*
X031468Y006579D03*
X029728Y006579D03*
X029728Y006608D03*
X029728Y006637D03*
X029728Y006550D03*
X029728Y006521D03*
X028713Y007333D03*
X028423Y007304D03*
X028423Y007275D03*
X028423Y007246D03*
X028423Y007217D03*
X028423Y007188D03*
X028423Y007159D03*
X033933Y006637D03*
X033991Y006840D03*
X033991Y006869D03*
X033991Y006898D03*
X034078Y007246D03*
X034136Y004955D03*
X034136Y004926D03*
X034049Y004607D03*
X029409Y011650D03*
X029409Y011679D03*
X029438Y011737D03*
X029496Y011911D03*
X029438Y012433D03*
X029438Y012578D03*
X029699Y012578D03*
X029699Y012491D03*
X029496Y013013D03*
X030366Y013332D03*
X031439Y014347D03*
X031439Y014376D03*
X031468Y014550D03*
X031468Y014579D03*
X029728Y014579D03*
X029728Y014608D03*
X029728Y014637D03*
X029728Y014550D03*
X029728Y014521D03*
X028713Y015333D03*
X028423Y015304D03*
X028423Y015275D03*
X028423Y015246D03*
X028423Y015217D03*
X028423Y015188D03*
X028423Y015159D03*
X033933Y014637D03*
X033991Y014840D03*
X033991Y014869D03*
X033991Y014898D03*
X034078Y015246D03*
X034136Y012955D03*
X034136Y012926D03*
X034049Y012607D03*
X029409Y019650D03*
X029409Y019679D03*
X029438Y019737D03*
X029496Y019911D03*
X029438Y020433D03*
X029438Y020578D03*
X029699Y020578D03*
X029699Y020491D03*
X029496Y021013D03*
X030366Y021332D03*
X029728Y022521D03*
X029728Y022550D03*
X029728Y022579D03*
X029728Y022608D03*
X029728Y022637D03*
X028713Y023333D03*
X028423Y023304D03*
X028423Y023275D03*
X028423Y023246D03*
X028423Y023217D03*
X028423Y023188D03*
X028423Y023159D03*
X031468Y022579D03*
X031468Y022550D03*
X031439Y022376D03*
X031439Y022347D03*
X033933Y022637D03*
X033991Y022840D03*
X033991Y022869D03*
X033991Y022898D03*
X034078Y023246D03*
X034136Y020955D03*
X034136Y020926D03*
X034049Y020607D03*
X029409Y027650D03*
X029409Y027679D03*
X029438Y027737D03*
X029496Y027911D03*
X029438Y028433D03*
X029438Y028578D03*
X029699Y028578D03*
X029699Y028491D03*
X029496Y029013D03*
X030366Y029332D03*
X031439Y030347D03*
X031439Y030376D03*
X031468Y030550D03*
X031468Y030579D03*
X029728Y030579D03*
X029728Y030608D03*
X029728Y030637D03*
X029728Y030550D03*
X029728Y030521D03*
X028713Y031333D03*
X028423Y031304D03*
X028423Y031275D03*
X028423Y031246D03*
X028423Y031217D03*
X028423Y031188D03*
X028423Y031159D03*
X033933Y030637D03*
X033991Y030840D03*
X033991Y030869D03*
X033991Y030898D03*
X034078Y031246D03*
X034136Y028955D03*
X034136Y028926D03*
X034049Y028607D03*
D28*
X033961Y028346D03*
X033961Y028317D03*
X033846Y029100D03*
X033846Y029129D03*
X033846Y029158D03*
X033904Y029941D03*
X034803Y030811D03*
X034136Y031333D03*
X036021Y031333D03*
X031584Y029477D03*
X031584Y029448D03*
X031555Y029535D03*
X029554Y028984D03*
X029611Y028085D03*
X026770Y029100D03*
X026770Y029129D03*
X026770Y029158D03*
X026770Y029187D03*
X026770Y029216D03*
X026770Y029245D03*
X029321Y030405D03*
X034136Y023333D03*
X034803Y022811D03*
X033904Y021941D03*
X033846Y021158D03*
X033846Y021129D03*
X033846Y021100D03*
X033961Y020346D03*
X033961Y020317D03*
X031584Y021448D03*
X031584Y021477D03*
X031555Y021535D03*
X029554Y020984D03*
X029611Y020085D03*
X026770Y021100D03*
X026770Y021129D03*
X026770Y021158D03*
X026770Y021187D03*
X026770Y021216D03*
X026770Y021245D03*
X029321Y022405D03*
X036021Y023333D03*
X036021Y015333D03*
X034803Y014811D03*
X034136Y015333D03*
X033904Y013941D03*
X033846Y013158D03*
X033846Y013129D03*
X033846Y013100D03*
X033961Y012346D03*
X033961Y012317D03*
X031584Y013448D03*
X031584Y013477D03*
X031555Y013535D03*
X029554Y012984D03*
X029611Y012085D03*
X026770Y013100D03*
X026770Y013129D03*
X026770Y013158D03*
X026770Y013187D03*
X026770Y013216D03*
X026770Y013245D03*
X029321Y014405D03*
X034136Y007333D03*
X034803Y006811D03*
X033904Y005941D03*
X033846Y005158D03*
X033846Y005129D03*
X033846Y005100D03*
X033961Y004346D03*
X033961Y004317D03*
X031584Y005448D03*
X031584Y005477D03*
X031555Y005535D03*
X029554Y004984D03*
X029611Y004085D03*
X026770Y005100D03*
X026770Y005129D03*
X026770Y005158D03*
X026770Y005187D03*
X026770Y005216D03*
X026770Y005245D03*
X029321Y006405D03*
X036021Y007333D03*
D29*
X036238Y007333D03*
X036238Y007304D03*
X036238Y007275D03*
X036238Y007246D03*
X036238Y007217D03*
X036238Y007188D03*
X035803Y007188D03*
X035803Y007217D03*
X035803Y007246D03*
X035803Y007275D03*
X035803Y007304D03*
X035803Y007333D03*
X030148Y006695D03*
X029278Y003360D03*
X029278Y003331D03*
X029278Y003302D03*
X029278Y011302D03*
X029278Y011331D03*
X029278Y011360D03*
X030148Y014695D03*
X035803Y015188D03*
X035803Y015217D03*
X035803Y015246D03*
X035803Y015275D03*
X035803Y015304D03*
X035803Y015333D03*
X036238Y015333D03*
X036238Y015304D03*
X036238Y015275D03*
X036238Y015246D03*
X036238Y015217D03*
X036238Y015188D03*
X029278Y019302D03*
X029278Y019331D03*
X029278Y019360D03*
X030148Y022695D03*
X035803Y023188D03*
X035803Y023217D03*
X035803Y023246D03*
X035803Y023275D03*
X035803Y023304D03*
X035803Y023333D03*
X036238Y023333D03*
X036238Y023304D03*
X036238Y023275D03*
X036238Y023246D03*
X036238Y023217D03*
X036238Y023188D03*
X029278Y027302D03*
X029278Y027331D03*
X029278Y027360D03*
X030148Y030695D03*
X035803Y031188D03*
X035803Y031217D03*
X035803Y031246D03*
X035803Y031275D03*
X035803Y031304D03*
X035803Y031333D03*
X036238Y031333D03*
X036238Y031304D03*
X036238Y031275D03*
X036238Y031246D03*
X036238Y031217D03*
X036238Y031188D03*
D30*
X037181Y031333D03*
X033411Y031130D03*
X033411Y031101D03*
X033411Y031072D03*
X033411Y031043D03*
X033411Y031014D03*
X033411Y030985D03*
X033411Y030956D03*
X031816Y030695D03*
X031816Y030666D03*
X031816Y030637D03*
X031816Y030608D03*
X031816Y030579D03*
X031816Y030115D03*
X030946Y030637D03*
X030946Y030666D03*
X030946Y030695D03*
X026741Y029013D03*
X026741Y028984D03*
X026741Y028955D03*
X026741Y028926D03*
X026741Y028897D03*
X026741Y028868D03*
X029206Y026722D03*
X033411Y023130D03*
X033411Y023101D03*
X033411Y023072D03*
X033411Y023043D03*
X033411Y023014D03*
X033411Y022985D03*
X033411Y022956D03*
X031816Y022695D03*
X031816Y022666D03*
X031816Y022637D03*
X031816Y022608D03*
X031816Y022579D03*
X030946Y022637D03*
X030946Y022666D03*
X030946Y022695D03*
X031816Y022115D03*
X026741Y021013D03*
X026741Y020984D03*
X026741Y020955D03*
X026741Y020926D03*
X026741Y020897D03*
X026741Y020868D03*
X029206Y018722D03*
X033411Y015130D03*
X033411Y015101D03*
X033411Y015072D03*
X033411Y015043D03*
X033411Y015014D03*
X033411Y014985D03*
X033411Y014956D03*
X031816Y014695D03*
X031816Y014666D03*
X031816Y014637D03*
X031816Y014608D03*
X031816Y014579D03*
X031816Y014115D03*
X030946Y014637D03*
X030946Y014666D03*
X030946Y014695D03*
X026741Y013013D03*
X026741Y012984D03*
X026741Y012955D03*
X026741Y012926D03*
X026741Y012897D03*
X026741Y012868D03*
X029206Y010722D03*
X033411Y007130D03*
X033411Y007101D03*
X033411Y007072D03*
X033411Y007043D03*
X033411Y007014D03*
X033411Y006985D03*
X033411Y006956D03*
X031816Y006695D03*
X031816Y006666D03*
X031816Y006637D03*
X031816Y006608D03*
X031816Y006579D03*
X030946Y006637D03*
X030946Y006666D03*
X030946Y006695D03*
X031816Y006115D03*
X026741Y005013D03*
X026741Y004984D03*
X026741Y004955D03*
X026741Y004926D03*
X026741Y004897D03*
X026741Y004868D03*
X029206Y002722D03*
X037181Y007333D03*
X037181Y015333D03*
X037181Y023333D03*
D31*
X036006Y023304D03*
X036006Y023275D03*
X036006Y023246D03*
X036006Y023217D03*
X036006Y023188D03*
X036006Y023159D03*
X034701Y022144D03*
X035020Y021593D03*
X033918Y021970D03*
X033918Y021999D03*
X033918Y022028D03*
X032555Y021883D03*
X032526Y021071D03*
X031540Y021564D03*
X031018Y021854D03*
X031018Y021129D03*
X029278Y022289D03*
X033831Y021071D03*
X033831Y021042D03*
X033773Y020810D03*
X033773Y020781D03*
X034150Y020781D03*
X034150Y020810D03*
X034121Y023304D03*
X034150Y028781D03*
X034150Y028810D03*
X033773Y028810D03*
X033773Y028781D03*
X033831Y029042D03*
X033831Y029071D03*
X033918Y029970D03*
X033918Y029999D03*
X033918Y030028D03*
X034701Y030144D03*
X035020Y029593D03*
X032555Y029883D03*
X032526Y029071D03*
X031540Y029564D03*
X031018Y029854D03*
X031018Y029129D03*
X029278Y030289D03*
X034121Y031304D03*
X036006Y031304D03*
X036006Y031275D03*
X036006Y031246D03*
X036006Y031217D03*
X036006Y031188D03*
X036006Y031159D03*
X036006Y015304D03*
X036006Y015275D03*
X036006Y015246D03*
X036006Y015217D03*
X036006Y015188D03*
X036006Y015159D03*
X034701Y014144D03*
X033918Y014028D03*
X033918Y013999D03*
X033918Y013970D03*
X033831Y013071D03*
X033831Y013042D03*
X033773Y012810D03*
X033773Y012781D03*
X034150Y012781D03*
X034150Y012810D03*
X035020Y013593D03*
X032555Y013883D03*
X032526Y013071D03*
X031540Y013564D03*
X031018Y013854D03*
X031018Y013129D03*
X029278Y014289D03*
X034121Y015304D03*
X034121Y007304D03*
X036006Y007304D03*
X036006Y007275D03*
X036006Y007246D03*
X036006Y007217D03*
X036006Y007188D03*
X036006Y007159D03*
X034701Y006144D03*
X035020Y005593D03*
X033918Y005970D03*
X033918Y005999D03*
X033918Y006028D03*
X032555Y005883D03*
X031540Y005564D03*
X031018Y005854D03*
X031018Y005129D03*
X032526Y005071D03*
X033773Y004810D03*
X033773Y004781D03*
X033831Y005042D03*
X033831Y005071D03*
X034150Y004810D03*
X034150Y004781D03*
X029278Y006289D03*
D32*
X027799Y007159D03*
X027799Y007188D03*
X027799Y007217D03*
X027799Y007246D03*
X027799Y007275D03*
X025276Y005274D03*
X029945Y004462D03*
X030554Y004665D03*
X030699Y004462D03*
X032236Y006202D03*
X033599Y005332D03*
X033802Y004549D03*
X033802Y012549D03*
X033599Y013332D03*
X032236Y014202D03*
X030554Y012665D03*
X030699Y012462D03*
X029945Y012462D03*
X027799Y015159D03*
X027799Y015188D03*
X027799Y015217D03*
X027799Y015246D03*
X027799Y015275D03*
X025276Y013274D03*
X029945Y020462D03*
X030554Y020665D03*
X030699Y020462D03*
X032236Y022202D03*
X033599Y021332D03*
X033802Y020549D03*
X027799Y023159D03*
X027799Y023188D03*
X027799Y023217D03*
X027799Y023246D03*
X027799Y023275D03*
X025276Y021274D03*
X029945Y028462D03*
X030554Y028665D03*
X030699Y028462D03*
X032236Y030202D03*
X033599Y029332D03*
X033802Y028549D03*
X027799Y031159D03*
X027799Y031188D03*
X027799Y031217D03*
X027799Y031246D03*
X027799Y031275D03*
X025276Y029274D03*
D33*
X034919Y031130D03*
X034919Y023130D03*
X034919Y015130D03*
X034919Y007130D03*
D34*
X034802Y006840D03*
X034716Y006724D03*
X034831Y006086D03*
X033874Y005854D03*
X033874Y005825D03*
X033874Y005796D03*
X033874Y005767D03*
X033816Y005274D03*
X033816Y005187D03*
X033787Y004926D03*
X033787Y004868D03*
X033787Y004839D03*
X034136Y004752D03*
X034136Y004723D03*
X034194Y005071D03*
X034222Y005100D03*
X034251Y005158D03*
X031526Y005593D03*
X031496Y005651D03*
X031004Y005100D03*
X030656Y005332D03*
X029959Y006521D03*
X029959Y006550D03*
X029959Y006579D03*
X029959Y006608D03*
X029959Y006637D03*
X029959Y006666D03*
X029959Y006695D03*
X030511Y006753D03*
X030511Y006782D03*
X030511Y006811D03*
X030511Y006840D03*
X030511Y006869D03*
X030511Y006898D03*
X030511Y006927D03*
X031554Y006695D03*
X036339Y007130D03*
X029409Y003621D03*
X025957Y005274D03*
X024246Y005506D03*
X024246Y005535D03*
X024246Y005564D03*
X024246Y005593D03*
X024246Y005622D03*
X024246Y005651D03*
X029409Y011621D03*
X030656Y013332D03*
X031004Y013100D03*
X031526Y013593D03*
X031496Y013651D03*
X031554Y014695D03*
X030511Y014753D03*
X030511Y014782D03*
X030511Y014811D03*
X030511Y014840D03*
X030511Y014869D03*
X030511Y014898D03*
X030511Y014927D03*
X029959Y014695D03*
X029959Y014666D03*
X029959Y014637D03*
X029959Y014608D03*
X029959Y014579D03*
X029959Y014550D03*
X029959Y014521D03*
X025957Y013274D03*
X024246Y013506D03*
X024246Y013535D03*
X024246Y013564D03*
X024246Y013593D03*
X024246Y013622D03*
X024246Y013651D03*
X033787Y012926D03*
X033787Y012868D03*
X033787Y012839D03*
X033816Y013187D03*
X033816Y013274D03*
X034194Y013071D03*
X034222Y013100D03*
X034251Y013158D03*
X034136Y012752D03*
X034136Y012723D03*
X033874Y013767D03*
X033874Y013796D03*
X033874Y013825D03*
X033874Y013854D03*
X034831Y014086D03*
X034716Y014724D03*
X034802Y014840D03*
X036339Y015130D03*
X029409Y019621D03*
X031004Y021100D03*
X030656Y021332D03*
X031496Y021651D03*
X031526Y021593D03*
X031554Y022695D03*
X030511Y022753D03*
X030511Y022782D03*
X030511Y022811D03*
X030511Y022840D03*
X030511Y022869D03*
X030511Y022898D03*
X030511Y022927D03*
X029959Y022695D03*
X029959Y022666D03*
X029959Y022637D03*
X029959Y022608D03*
X029959Y022579D03*
X029959Y022550D03*
X029959Y022521D03*
X025957Y021274D03*
X024246Y021506D03*
X024246Y021535D03*
X024246Y021564D03*
X024246Y021593D03*
X024246Y021622D03*
X024246Y021651D03*
X033787Y020926D03*
X033787Y020868D03*
X033787Y020839D03*
X033816Y021187D03*
X033816Y021274D03*
X034194Y021071D03*
X034222Y021100D03*
X034251Y021158D03*
X034136Y020752D03*
X034136Y020723D03*
X033874Y021767D03*
X033874Y021796D03*
X033874Y021825D03*
X033874Y021854D03*
X034831Y022086D03*
X034716Y022724D03*
X034802Y022840D03*
X036339Y023130D03*
X029409Y027621D03*
X030656Y029332D03*
X031004Y029100D03*
X031526Y029593D03*
X031496Y029651D03*
X031554Y030695D03*
X030511Y030753D03*
X030511Y030782D03*
X030511Y030811D03*
X030511Y030840D03*
X030511Y030869D03*
X030511Y030898D03*
X030511Y030927D03*
X029959Y030695D03*
X029959Y030666D03*
X029959Y030637D03*
X029959Y030608D03*
X029959Y030579D03*
X029959Y030550D03*
X029959Y030521D03*
X025957Y029274D03*
X024246Y029506D03*
X024246Y029535D03*
X024246Y029564D03*
X024246Y029593D03*
X024246Y029622D03*
X024246Y029651D03*
X033787Y028926D03*
X033787Y028868D03*
X033787Y028839D03*
X033816Y029187D03*
X033816Y029274D03*
X034194Y029071D03*
X034222Y029100D03*
X034251Y029158D03*
X034136Y028752D03*
X034136Y028723D03*
X033874Y029767D03*
X033874Y029796D03*
X033874Y029825D03*
X033874Y029854D03*
X034831Y030086D03*
X034716Y030724D03*
X034802Y030840D03*
X036339Y031130D03*
D35*
X034730Y031101D03*
X034730Y031072D03*
X034730Y031043D03*
X034730Y031014D03*
X034730Y030985D03*
X034730Y030956D03*
X034730Y023101D03*
X034730Y023072D03*
X034730Y023043D03*
X034730Y023014D03*
X034730Y022985D03*
X034730Y022956D03*
X034730Y015101D03*
X034730Y015072D03*
X034730Y015043D03*
X034730Y015014D03*
X034730Y014985D03*
X034730Y014956D03*
X034730Y007101D03*
X034730Y007072D03*
X034730Y007043D03*
X034730Y007014D03*
X034730Y006985D03*
X034730Y006956D03*
D36*
X034686Y006695D03*
X033961Y006724D03*
X033961Y006753D03*
X033961Y006782D03*
X033874Y006144D03*
X033874Y006115D03*
X033874Y006086D03*
X034251Y005390D03*
X034976Y005970D03*
X033961Y004114D03*
X031409Y006115D03*
X031409Y006144D03*
X031409Y006173D03*
X030336Y005709D03*
X030336Y005680D03*
X030336Y005419D03*
X030684Y005361D03*
X029814Y006753D03*
X029814Y006782D03*
X029814Y006811D03*
X029814Y006840D03*
X029814Y006869D03*
X029814Y006898D03*
X029814Y006927D03*
X026421Y005274D03*
X029466Y003824D03*
X029466Y003795D03*
X029466Y011795D03*
X029466Y011824D03*
X030336Y013419D03*
X030336Y013680D03*
X030336Y013709D03*
X030684Y013361D03*
X031409Y014115D03*
X031409Y014144D03*
X031409Y014173D03*
X029814Y014753D03*
X029814Y014782D03*
X029814Y014811D03*
X029814Y014840D03*
X029814Y014869D03*
X029814Y014898D03*
X029814Y014927D03*
X026421Y013274D03*
X033874Y014086D03*
X033874Y014115D03*
X033874Y014144D03*
X034686Y014695D03*
X033961Y014724D03*
X033961Y014753D03*
X033961Y014782D03*
X034976Y013970D03*
X034251Y013390D03*
X033961Y012114D03*
X029466Y019795D03*
X029466Y019824D03*
X030336Y021419D03*
X030336Y021680D03*
X030336Y021709D03*
X030684Y021361D03*
X031409Y022115D03*
X031409Y022144D03*
X031409Y022173D03*
X029814Y022753D03*
X029814Y022782D03*
X029814Y022811D03*
X029814Y022840D03*
X029814Y022869D03*
X029814Y022898D03*
X029814Y022927D03*
X026421Y021274D03*
X033874Y022086D03*
X033874Y022115D03*
X033874Y022144D03*
X033961Y022724D03*
X033961Y022753D03*
X033961Y022782D03*
X034686Y022695D03*
X034976Y021970D03*
X034251Y021390D03*
X033961Y020114D03*
X029466Y027795D03*
X029466Y027824D03*
X030684Y029361D03*
X030336Y029419D03*
X030336Y029680D03*
X030336Y029709D03*
X031409Y030115D03*
X031409Y030144D03*
X031409Y030173D03*
X029814Y030753D03*
X029814Y030782D03*
X029814Y030811D03*
X029814Y030840D03*
X029814Y030869D03*
X029814Y030898D03*
X029814Y030927D03*
X026421Y029274D03*
X033874Y030086D03*
X033874Y030115D03*
X033874Y030144D03*
X033961Y030724D03*
X033961Y030753D03*
X033961Y030782D03*
X034686Y030695D03*
X034976Y029970D03*
X034251Y029390D03*
X033961Y028114D03*
D37*
X032715Y030927D03*
X032715Y022927D03*
X032715Y014927D03*
X032715Y006927D03*
D38*
X035194Y006927D03*
X032932Y005216D03*
X032932Y013216D03*
X035194Y014927D03*
X032932Y021216D03*
X035194Y022927D03*
X032932Y029216D03*
X035194Y030927D03*
D39*
X032265Y030898D03*
X032265Y030869D03*
X032265Y030840D03*
X032265Y030811D03*
X032265Y030782D03*
X032265Y030753D03*
X032265Y022898D03*
X032265Y022869D03*
X032265Y022840D03*
X032265Y022811D03*
X032265Y022782D03*
X032265Y022753D03*
X032265Y014898D03*
X032265Y014869D03*
X032265Y014840D03*
X032265Y014811D03*
X032265Y014782D03*
X032265Y014753D03*
X032265Y006898D03*
X032265Y006869D03*
X032265Y006840D03*
X032265Y006811D03*
X032265Y006782D03*
X032265Y006753D03*
D40*
X031569Y005506D03*
X030148Y004230D03*
X033628Y004317D03*
X033889Y005535D03*
X033889Y005564D03*
X033889Y005593D03*
X033889Y005622D03*
X034643Y006173D03*
X034788Y006782D03*
X030148Y012230D03*
X031569Y013506D03*
X033628Y012317D03*
X033889Y013535D03*
X033889Y013564D03*
X033889Y013593D03*
X033889Y013622D03*
X034643Y014173D03*
X034788Y014782D03*
X033628Y020317D03*
X033889Y021535D03*
X033889Y021564D03*
X033889Y021593D03*
X033889Y021622D03*
X034643Y022173D03*
X034788Y022782D03*
X031569Y021506D03*
X030148Y020230D03*
X030148Y028230D03*
X031569Y029506D03*
X033889Y029535D03*
X033889Y029564D03*
X033889Y029593D03*
X033889Y029622D03*
X034643Y030173D03*
X034788Y030782D03*
X033628Y028317D03*
D41*
X033947Y028143D03*
X033802Y028897D03*
X033802Y028955D03*
X033802Y028984D03*
X033802Y029013D03*
X034237Y029129D03*
X033889Y029651D03*
X033889Y029883D03*
X033889Y029912D03*
X034759Y030115D03*
X034759Y030753D03*
X030177Y029854D03*
X034759Y022753D03*
X034759Y022115D03*
X033889Y021912D03*
X033889Y021883D03*
X033889Y021651D03*
X034237Y021129D03*
X033802Y021013D03*
X033802Y020984D03*
X033802Y020955D03*
X033802Y020897D03*
X033947Y020143D03*
X030177Y021854D03*
X034759Y014753D03*
X034759Y014115D03*
X033889Y013912D03*
X033889Y013883D03*
X033889Y013651D03*
X034237Y013129D03*
X033802Y013013D03*
X033802Y012984D03*
X033802Y012955D03*
X033802Y012897D03*
X033947Y012143D03*
X030177Y013854D03*
X034759Y006753D03*
X034759Y006115D03*
X033889Y005912D03*
X033889Y005883D03*
X033889Y005651D03*
X034237Y005129D03*
X033802Y005013D03*
X033802Y004984D03*
X033802Y004955D03*
X033802Y004897D03*
X033947Y004143D03*
X030177Y005854D03*
D42*
X031236Y006724D03*
X031236Y014724D03*
X031236Y022724D03*
X031236Y030724D03*
D43*
X029307Y030695D03*
X029307Y030666D03*
X030351Y028694D03*
X029307Y022695D03*
X029307Y022666D03*
X030351Y020694D03*
X029307Y014695D03*
X029307Y014666D03*
X030351Y012694D03*
X029307Y006695D03*
X029307Y006666D03*
X030351Y004694D03*
D44*
X030090Y004984D03*
X029597Y004955D03*
X029597Y004926D03*
X029829Y005680D03*
X029336Y006376D03*
X025131Y005448D03*
X025131Y005419D03*
X025131Y005390D03*
X025131Y005361D03*
X025131Y005332D03*
X025131Y005303D03*
X034005Y006550D03*
X034034Y006579D03*
X034034Y006608D03*
X030090Y012984D03*
X029597Y012955D03*
X029597Y012926D03*
X029829Y013680D03*
X029336Y014376D03*
X025131Y013448D03*
X025131Y013419D03*
X025131Y013390D03*
X025131Y013361D03*
X025131Y013332D03*
X025131Y013303D03*
X034005Y014550D03*
X034034Y014579D03*
X034034Y014608D03*
X030090Y020984D03*
X029597Y020955D03*
X029597Y020926D03*
X029829Y021680D03*
X029336Y022376D03*
X025131Y021448D03*
X025131Y021419D03*
X025131Y021390D03*
X025131Y021361D03*
X025131Y021332D03*
X025131Y021303D03*
X034005Y022550D03*
X034034Y022579D03*
X034034Y022608D03*
X030090Y028984D03*
X029597Y028955D03*
X029597Y028926D03*
X029829Y029680D03*
X029336Y030376D03*
X025131Y029448D03*
X025131Y029419D03*
X025131Y029390D03*
X025131Y029361D03*
X025131Y029332D03*
X025131Y029303D03*
X034005Y030550D03*
X034034Y030579D03*
X034034Y030608D03*
D45*
X033991Y030521D03*
X034571Y030202D03*
X032483Y029042D03*
X033236Y028491D03*
X033294Y028462D03*
X031149Y029622D03*
X031149Y029651D03*
X030104Y028955D03*
X030018Y028578D03*
X029583Y028752D03*
X029641Y028143D03*
X029351Y030347D03*
X025523Y029071D03*
X029351Y022347D03*
X031149Y021651D03*
X031149Y021622D03*
X030104Y020955D03*
X030018Y020578D03*
X029583Y020752D03*
X029641Y020143D03*
X032483Y021042D03*
X033236Y020491D03*
X033294Y020462D03*
X034571Y022202D03*
X033991Y022521D03*
X025523Y021071D03*
X033991Y014521D03*
X034571Y014202D03*
X032483Y013042D03*
X033236Y012491D03*
X033294Y012462D03*
X031149Y013622D03*
X031149Y013651D03*
X030104Y012955D03*
X030018Y012578D03*
X029583Y012752D03*
X029641Y012143D03*
X029351Y014347D03*
X025523Y013071D03*
X033991Y006521D03*
X034571Y006202D03*
X032483Y005042D03*
X033236Y004491D03*
X033294Y004462D03*
X031149Y005622D03*
X031149Y005651D03*
X030104Y004955D03*
X030018Y004578D03*
X029583Y004752D03*
X029641Y004143D03*
X029351Y006347D03*
X025523Y005071D03*
D46*
X030424Y005158D03*
X031004Y005448D03*
X031671Y006028D03*
X031729Y004752D03*
X034078Y005448D03*
X033788Y006492D03*
X031729Y012752D03*
X031004Y013448D03*
X030424Y013158D03*
X031671Y014028D03*
X033788Y014492D03*
X034078Y013448D03*
X031729Y020752D03*
X031004Y021448D03*
X030424Y021158D03*
X031671Y022028D03*
X033788Y022492D03*
X034078Y021448D03*
X031729Y028752D03*
X031004Y029448D03*
X030424Y029158D03*
X031671Y030028D03*
X033788Y030492D03*
X034078Y029448D03*
D47*
X033091Y030173D03*
X033671Y030463D03*
X032338Y029506D03*
X032251Y029564D03*
X032164Y029651D03*
X031786Y029912D03*
X030336Y028723D03*
X033671Y022463D03*
X033091Y022173D03*
X032251Y021564D03*
X032338Y021506D03*
X032164Y021651D03*
X031786Y021912D03*
X030336Y020723D03*
X033671Y014463D03*
X033091Y014173D03*
X032338Y013506D03*
X032251Y013564D03*
X032164Y013651D03*
X031786Y013912D03*
X030336Y012723D03*
X033671Y006463D03*
X033091Y006173D03*
X032338Y005506D03*
X032251Y005564D03*
X032164Y005651D03*
X031786Y005912D03*
X030336Y004723D03*
D48*
X033585Y006434D03*
X034310Y005477D03*
X034310Y013477D03*
X033585Y014434D03*
X034310Y021477D03*
X033585Y022434D03*
X034310Y029477D03*
X033585Y030434D03*
D49*
X033439Y030405D03*
X032976Y029274D03*
X033439Y022405D03*
X032976Y021274D03*
X033439Y014405D03*
X032976Y013274D03*
X033439Y006405D03*
X032976Y005274D03*
D50*
X031613Y005825D03*
X033353Y006376D03*
X031613Y013825D03*
X033353Y014376D03*
X031613Y021825D03*
X033353Y022376D03*
X031613Y029825D03*
X033353Y030376D03*
D51*
X033324Y030347D03*
X031612Y029767D03*
X033324Y022347D03*
X031612Y021767D03*
X033324Y014347D03*
X031612Y013767D03*
X033324Y006347D03*
X031612Y005767D03*
D52*
X031134Y005593D03*
X031047Y005187D03*
X030583Y004926D03*
X030119Y004926D03*
X030119Y004897D03*
X030032Y004520D03*
X030032Y004491D03*
X029568Y004607D03*
X029568Y004636D03*
X029568Y004665D03*
X029568Y004694D03*
X029568Y004723D03*
X029568Y004781D03*
X029597Y004868D03*
X029597Y004897D03*
X029365Y006318D03*
X032323Y006057D03*
X032381Y006289D03*
X032845Y006260D03*
X032845Y006231D03*
X033251Y004868D03*
X033280Y004839D03*
X033367Y004781D03*
X033193Y004520D03*
X033889Y004433D03*
X033889Y004201D03*
X034933Y005564D03*
X033889Y012201D03*
X033889Y012433D03*
X033367Y012781D03*
X033280Y012839D03*
X033251Y012868D03*
X033193Y012520D03*
X034933Y013564D03*
X032845Y014231D03*
X032845Y014260D03*
X032381Y014289D03*
X032323Y014057D03*
X031134Y013593D03*
X031047Y013187D03*
X030583Y012926D03*
X030119Y012926D03*
X030119Y012897D03*
X030032Y012520D03*
X030032Y012491D03*
X029568Y012607D03*
X029568Y012636D03*
X029568Y012665D03*
X029568Y012694D03*
X029568Y012723D03*
X029568Y012781D03*
X029597Y012868D03*
X029597Y012897D03*
X029365Y014318D03*
X030032Y020491D03*
X030032Y020520D03*
X030119Y020897D03*
X030119Y020926D03*
X030583Y020926D03*
X031047Y021187D03*
X031134Y021593D03*
X032323Y022057D03*
X032381Y022289D03*
X032845Y022260D03*
X032845Y022231D03*
X033251Y020868D03*
X033280Y020839D03*
X033367Y020781D03*
X033193Y020520D03*
X033889Y020433D03*
X033889Y020201D03*
X034933Y021564D03*
X029597Y020897D03*
X029597Y020868D03*
X029568Y020781D03*
X029568Y020723D03*
X029568Y020694D03*
X029568Y020665D03*
X029568Y020636D03*
X029568Y020607D03*
X029365Y022318D03*
X033889Y028201D03*
X033889Y028433D03*
X033367Y028781D03*
X033280Y028839D03*
X033251Y028868D03*
X033193Y028520D03*
X034933Y029564D03*
X032845Y030231D03*
X032845Y030260D03*
X032381Y030289D03*
X032323Y030057D03*
X031134Y029593D03*
X031047Y029187D03*
X030583Y028926D03*
X030119Y028926D03*
X030119Y028897D03*
X030032Y028520D03*
X030032Y028491D03*
X029568Y028607D03*
X029568Y028636D03*
X029568Y028665D03*
X029568Y028694D03*
X029568Y028723D03*
X029568Y028781D03*
X029597Y028868D03*
X029597Y028897D03*
X029365Y030318D03*
D53*
X033831Y030318D03*
X033831Y022318D03*
X033831Y014318D03*
X033831Y006318D03*
D54*
X032859Y006289D03*
X029669Y004172D03*
X026044Y005100D03*
X026044Y005129D03*
X026044Y005158D03*
X026044Y005187D03*
X026044Y005216D03*
X026044Y005245D03*
X029669Y012172D03*
X026044Y013100D03*
X026044Y013129D03*
X026044Y013158D03*
X026044Y013187D03*
X026044Y013216D03*
X026044Y013245D03*
X032859Y014289D03*
X029669Y020172D03*
X026044Y021100D03*
X026044Y021129D03*
X026044Y021158D03*
X026044Y021187D03*
X026044Y021216D03*
X026044Y021245D03*
X032859Y022289D03*
X029669Y028172D03*
X026044Y029100D03*
X026044Y029129D03*
X026044Y029158D03*
X026044Y029187D03*
X026044Y029216D03*
X026044Y029245D03*
X032859Y030289D03*
D55*
X033846Y030289D03*
X030975Y028636D03*
X033846Y022289D03*
X030975Y020636D03*
X033846Y014289D03*
X030975Y012636D03*
X033846Y006289D03*
X030975Y004636D03*
D56*
X030612Y004955D03*
X031076Y005216D03*
X031105Y005564D03*
X029858Y005709D03*
X032294Y006086D03*
X032352Y006260D03*
X032584Y005941D03*
X033106Y004984D03*
X033135Y004955D03*
X032961Y004636D03*
X032903Y004665D03*
X032845Y004694D03*
X032787Y004723D03*
X032758Y004752D03*
X033019Y004607D03*
X033077Y004578D03*
X033657Y004578D03*
X033860Y004462D03*
X033860Y012462D03*
X033657Y012578D03*
X033077Y012578D03*
X033019Y012607D03*
X032961Y012636D03*
X032903Y012665D03*
X032845Y012694D03*
X032787Y012723D03*
X032758Y012752D03*
X033106Y012984D03*
X033135Y012955D03*
X032584Y013941D03*
X032294Y014086D03*
X032352Y014260D03*
X031105Y013564D03*
X031076Y013216D03*
X030612Y012955D03*
X029858Y013709D03*
X033860Y020462D03*
X033657Y020578D03*
X033077Y020578D03*
X033019Y020607D03*
X032961Y020636D03*
X032903Y020665D03*
X032845Y020694D03*
X032787Y020723D03*
X032758Y020752D03*
X033106Y020984D03*
X033135Y020955D03*
X032584Y021941D03*
X032294Y022086D03*
X032352Y022260D03*
X031105Y021564D03*
X031076Y021216D03*
X030612Y020955D03*
X029858Y021709D03*
X033077Y028578D03*
X033019Y028607D03*
X032961Y028636D03*
X032903Y028665D03*
X032845Y028694D03*
X032787Y028723D03*
X032758Y028752D03*
X033106Y028984D03*
X033135Y028955D03*
X033657Y028578D03*
X033860Y028462D03*
X032584Y029941D03*
X032294Y030086D03*
X032352Y030260D03*
X031105Y029564D03*
X031076Y029216D03*
X030612Y028955D03*
X029858Y029709D03*
D57*
X030090Y028317D03*
X033860Y030260D03*
X033860Y022260D03*
X030090Y020317D03*
X033860Y014260D03*
X030090Y012317D03*
X033860Y006260D03*
X030090Y004317D03*
D58*
X030612Y004984D03*
X032294Y006231D03*
X033744Y005390D03*
X030612Y012984D03*
X032294Y014231D03*
X033744Y013390D03*
X030612Y020984D03*
X032294Y022231D03*
X033744Y021390D03*
X030612Y028984D03*
X032294Y030231D03*
X033744Y029390D03*
D59*
X032526Y029361D03*
X032294Y028926D03*
X033570Y030231D03*
X033570Y022231D03*
X032526Y021361D03*
X032294Y020926D03*
X033570Y014231D03*
X032526Y013361D03*
X032294Y012926D03*
X033570Y006231D03*
X032526Y005361D03*
X032294Y004926D03*
D60*
X032990Y005071D03*
X033628Y004636D03*
X031105Y005245D03*
X030525Y005303D03*
X027190Y005013D03*
X027190Y004984D03*
X027190Y004955D03*
X027190Y004926D03*
X027190Y004897D03*
X027190Y004868D03*
X034411Y006231D03*
X033628Y012636D03*
X032990Y013071D03*
X034411Y014231D03*
X031105Y013245D03*
X030525Y013303D03*
X027190Y013013D03*
X027190Y012984D03*
X027190Y012955D03*
X027190Y012926D03*
X027190Y012897D03*
X027190Y012868D03*
X033628Y020636D03*
X032990Y021071D03*
X031105Y021245D03*
X030525Y021303D03*
X027190Y021013D03*
X027190Y020984D03*
X027190Y020955D03*
X027190Y020926D03*
X027190Y020897D03*
X027190Y020868D03*
X034411Y022231D03*
X033628Y028636D03*
X032990Y029071D03*
X034411Y030231D03*
X031105Y029245D03*
X030525Y029303D03*
X027190Y029013D03*
X027190Y028984D03*
X027190Y028955D03*
X027190Y028926D03*
X027190Y028897D03*
X027190Y028868D03*
D61*
X029583Y028839D03*
X029583Y028810D03*
X029583Y028404D03*
X029583Y028375D03*
X029583Y028346D03*
X033121Y028549D03*
X033324Y028810D03*
X033208Y028897D03*
X033179Y028926D03*
X033846Y028230D03*
X032831Y030202D03*
X032831Y022202D03*
X033179Y020926D03*
X033208Y020897D03*
X033324Y020810D03*
X033121Y020549D03*
X033846Y020230D03*
X029583Y020346D03*
X029583Y020375D03*
X029583Y020404D03*
X029583Y020810D03*
X029583Y020839D03*
X032831Y014202D03*
X033179Y012926D03*
X033208Y012897D03*
X033324Y012810D03*
X033121Y012549D03*
X033846Y012230D03*
X029583Y012346D03*
X029583Y012375D03*
X029583Y012404D03*
X029583Y012810D03*
X029583Y012839D03*
X032831Y006202D03*
X033179Y004926D03*
X033208Y004897D03*
X033324Y004810D03*
X033121Y004549D03*
X033846Y004230D03*
X029583Y004346D03*
X029583Y004375D03*
X029583Y004404D03*
X029583Y004810D03*
X029583Y004839D03*
D62*
X030453Y005216D03*
X031178Y005332D03*
X031641Y006057D03*
X032221Y006173D03*
X032918Y006057D03*
X032918Y005129D03*
X033556Y004723D03*
X033556Y012723D03*
X032918Y013129D03*
X032918Y014057D03*
X032221Y014173D03*
X031641Y014057D03*
X031178Y013332D03*
X030453Y013216D03*
X033556Y020723D03*
X032918Y021129D03*
X032918Y022057D03*
X032221Y022173D03*
X031641Y022057D03*
X031178Y021332D03*
X030453Y021216D03*
X033556Y028723D03*
X032918Y029129D03*
X032918Y030057D03*
X032221Y030173D03*
X031641Y030057D03*
X031178Y029332D03*
X030453Y029216D03*
D63*
X030481Y029245D03*
X030626Y029013D03*
X031149Y029303D03*
X030046Y029825D03*
X032221Y030144D03*
X033584Y028694D03*
X032221Y022144D03*
X031149Y021303D03*
X030626Y021013D03*
X030481Y021245D03*
X030046Y021825D03*
X033584Y020694D03*
X032221Y014144D03*
X031149Y013303D03*
X030626Y013013D03*
X030481Y013245D03*
X030046Y013825D03*
X033584Y012694D03*
X032221Y006144D03*
X031149Y005303D03*
X030626Y005013D03*
X030481Y005245D03*
X030046Y005825D03*
X033584Y004694D03*
D64*
X032570Y005332D03*
X033034Y006144D03*
X034629Y005535D03*
X029989Y005738D03*
X029960Y005796D03*
X032570Y013332D03*
X033034Y014144D03*
X034629Y013535D03*
X029989Y013738D03*
X029960Y013796D03*
X032570Y021332D03*
X033034Y022144D03*
X034629Y021535D03*
X029989Y021738D03*
X029960Y021796D03*
X032570Y029332D03*
X033034Y030144D03*
X034629Y029535D03*
X029989Y029738D03*
X029960Y029796D03*
D65*
X031250Y029419D03*
X031888Y028810D03*
X032613Y029303D03*
X032990Y030115D03*
X030293Y028781D03*
X032990Y022115D03*
X032613Y021303D03*
X031888Y020810D03*
X031250Y021419D03*
X030293Y020781D03*
X032990Y014115D03*
X032613Y013303D03*
X031888Y012810D03*
X031250Y013419D03*
X030293Y012781D03*
X032990Y006115D03*
X032613Y005303D03*
X031888Y004810D03*
X031250Y005419D03*
X030293Y004781D03*
D66*
X030409Y005100D03*
X029974Y005767D03*
X031714Y005999D03*
X032642Y005999D03*
X030409Y013100D03*
X029974Y013767D03*
X031714Y013999D03*
X032642Y013999D03*
X030409Y021100D03*
X029974Y021767D03*
X031714Y021999D03*
X032642Y021999D03*
X030409Y029100D03*
X029974Y029767D03*
X031714Y029999D03*
X032642Y029999D03*
D67*
X032482Y029390D03*
X032946Y029187D03*
X031757Y029970D03*
X031757Y021970D03*
X032482Y021390D03*
X032946Y021187D03*
X031757Y013970D03*
X032482Y013390D03*
X032946Y013187D03*
X031757Y005970D03*
X032482Y005390D03*
X032946Y005187D03*
D68*
X032613Y005970D03*
X032613Y013970D03*
X032613Y021970D03*
X032613Y029970D03*
D69*
X032236Y029593D03*
X032207Y029622D03*
X032120Y029680D03*
X032294Y029535D03*
X032352Y029477D03*
X032439Y029419D03*
X031772Y029941D03*
X031134Y029680D03*
X030322Y028752D03*
X030786Y028520D03*
X031772Y021941D03*
X032120Y021680D03*
X032207Y021622D03*
X032236Y021593D03*
X032294Y021535D03*
X032352Y021477D03*
X032439Y021419D03*
X031134Y021680D03*
X030786Y020520D03*
X030322Y020752D03*
X031772Y013941D03*
X032120Y013680D03*
X032207Y013622D03*
X032236Y013593D03*
X032294Y013535D03*
X032352Y013477D03*
X032439Y013419D03*
X031134Y013680D03*
X030322Y012752D03*
X030786Y012520D03*
X031772Y005941D03*
X032120Y005680D03*
X032207Y005622D03*
X032236Y005593D03*
X032294Y005535D03*
X032352Y005477D03*
X032439Y005419D03*
X031134Y005680D03*
X030786Y004520D03*
X030322Y004752D03*
D70*
X030409Y004375D03*
X030844Y004549D03*
X032265Y004897D03*
X031801Y005883D03*
X030409Y012375D03*
X030844Y012549D03*
X032265Y012897D03*
X031801Y013883D03*
X030409Y020375D03*
X030844Y020549D03*
X032265Y020897D03*
X031801Y021883D03*
X030409Y028375D03*
X030844Y028549D03*
X032265Y028897D03*
X031801Y029883D03*
D71*
X031830Y029854D03*
X031830Y021854D03*
X031830Y013854D03*
X031830Y005854D03*
D72*
X031598Y005796D03*
X031598Y013796D03*
X031598Y021796D03*
X031598Y029796D03*
D73*
X031613Y029738D03*
X031613Y021738D03*
X031613Y013738D03*
X031613Y005738D03*
D74*
X031627Y005709D03*
X031627Y013709D03*
X031627Y021709D03*
X031627Y029709D03*
D75*
X032932Y029245D03*
X023739Y029680D03*
X023739Y021680D03*
X032932Y021245D03*
X023739Y013680D03*
X032932Y013245D03*
X023739Y005680D03*
X032932Y005245D03*
D76*
X033034Y005042D03*
X033062Y005013D03*
X032714Y004781D03*
X032656Y004810D03*
X033642Y004607D03*
X033846Y004491D03*
X033816Y004259D03*
X033671Y005361D03*
X031091Y005535D03*
X029669Y004201D03*
X027204Y004839D03*
X026016Y005071D03*
X029669Y012201D03*
X031091Y013535D03*
X032656Y012810D03*
X032714Y012781D03*
X033034Y013042D03*
X033062Y013013D03*
X033671Y013361D03*
X033642Y012607D03*
X033846Y012491D03*
X033816Y012259D03*
X027204Y012839D03*
X026016Y013071D03*
X029669Y020201D03*
X031091Y021535D03*
X032656Y020810D03*
X032714Y020781D03*
X033034Y021042D03*
X033062Y021013D03*
X033671Y021361D03*
X033642Y020607D03*
X033846Y020491D03*
X033816Y020259D03*
X027204Y020839D03*
X026016Y021071D03*
X029669Y028201D03*
X031091Y029535D03*
X032656Y028810D03*
X032714Y028781D03*
X033034Y029042D03*
X033062Y029013D03*
X033671Y029361D03*
X033642Y028607D03*
X033846Y028491D03*
X033816Y028259D03*
X027204Y028839D03*
X026016Y029071D03*
D77*
X032236Y028839D03*
X034382Y029506D03*
X034382Y021506D03*
X032236Y020839D03*
X034382Y013506D03*
X032236Y012839D03*
X034382Y005506D03*
X032236Y004839D03*
D78*
X032236Y004868D03*
X024725Y005477D03*
X032236Y012868D03*
X024725Y013477D03*
X032236Y020868D03*
X024725Y021477D03*
X032236Y028868D03*
X024725Y029477D03*
D79*
X032396Y029448D03*
X032396Y021448D03*
X032396Y013448D03*
X032396Y005448D03*
D80*
X032932Y005158D03*
X033976Y005419D03*
X031801Y004781D03*
X031598Y004723D03*
X031221Y005390D03*
X030409Y005129D03*
X030264Y004839D03*
X030264Y004810D03*
X030264Y012810D03*
X030264Y012839D03*
X030409Y013129D03*
X031221Y013390D03*
X031598Y012723D03*
X031801Y012781D03*
X032932Y013158D03*
X033976Y013419D03*
X031801Y020781D03*
X031598Y020723D03*
X031221Y021390D03*
X030409Y021129D03*
X030264Y020839D03*
X030264Y020810D03*
X032932Y021158D03*
X033976Y021419D03*
X031598Y028723D03*
X031801Y028781D03*
X031221Y029390D03*
X030409Y029129D03*
X030264Y028839D03*
X030264Y028810D03*
X032932Y029158D03*
X033976Y029419D03*
D81*
X033599Y028665D03*
X033831Y028520D03*
X030496Y029274D03*
X026610Y029071D03*
X030496Y021274D03*
X033599Y020665D03*
X033831Y020520D03*
X026610Y021071D03*
X026610Y013071D03*
X030496Y013274D03*
X033599Y012665D03*
X033831Y012520D03*
X030496Y005274D03*
X033599Y004665D03*
X033831Y004520D03*
X026610Y005071D03*
D82*
X030394Y004404D03*
X030511Y005071D03*
X030394Y012404D03*
X030511Y013071D03*
X030394Y020404D03*
X030511Y021071D03*
X030394Y028404D03*
X030511Y029071D03*
D83*
X026407Y029042D03*
X026407Y021042D03*
X026407Y013042D03*
X026407Y005042D03*
D84*
X030481Y005042D03*
X030481Y013042D03*
X030481Y021042D03*
X030481Y029042D03*
D85*
X029959Y028433D03*
X032366Y028984D03*
X032366Y020984D03*
X029959Y020433D03*
X032366Y012984D03*
X029959Y012433D03*
X032366Y004984D03*
X029959Y004433D03*
D86*
X030046Y004288D03*
X030916Y004607D03*
X030046Y012288D03*
X030916Y012607D03*
X030046Y020288D03*
X030916Y020607D03*
X030046Y028288D03*
X030916Y028607D03*
D87*
X030366Y028346D03*
X030366Y020346D03*
X030366Y012346D03*
X030366Y004346D03*
D88*
X029641Y004114D03*
X033556Y004346D03*
X029641Y012114D03*
X033556Y012346D03*
X029641Y020114D03*
X033556Y020346D03*
X033556Y028346D03*
X029641Y028114D03*
D89*
X000100Y000100D02*
X060100Y000100D01*
X060100Y034100D01*
X000100Y034100D01*
X000100Y000100D01*
M02*
