G75*
G70*
%OFA0B0*%
%FSLAX24Y24*%
%IPPOS*%
%LPD*%
%AMOC8*
5,1,8,0,0,1.08239X$1,22.5*
%
%ADD10C,0.0000*%
%ADD11R,0.0280X0.0910*%
%ADD12R,0.0780X0.0780*%
%ADD13OC8,0.0780*%
%ADD14C,0.0740*%
%ADD15R,0.0440X0.0490*%
%ADD16R,0.0473X0.0434*%
%ADD17R,0.0434X0.0473*%
%ADD18C,0.0780*%
%ADD19R,0.0288X0.0367*%
D10*
X000151Y000302D02*
X000151Y006298D01*
X039021Y006298D01*
X039021Y000302D01*
X000151Y000302D01*
X000151Y006602D02*
X000151Y012598D01*
X039021Y012598D01*
X039021Y006602D01*
X000151Y006602D01*
X000151Y012901D02*
X000151Y018897D01*
X039021Y018897D01*
X039021Y012901D01*
X000151Y012901D01*
X000151Y019200D02*
X000151Y025196D01*
X039021Y025196D01*
X039021Y019200D01*
X000151Y019200D01*
X000151Y025499D02*
X000151Y031495D01*
X039021Y031495D01*
X039021Y025499D01*
X000151Y025499D01*
D11*
X012151Y027474D03*
X012651Y027474D03*
X013151Y027474D03*
X013651Y027474D03*
X014151Y027474D03*
X014651Y027474D03*
X015151Y027474D03*
X015151Y029524D03*
X014651Y029524D03*
X014151Y029524D03*
X013651Y029524D03*
X013151Y029524D03*
X012651Y029524D03*
X012151Y029524D03*
X012151Y023225D03*
X012651Y023225D03*
X013151Y023225D03*
X013651Y023225D03*
X014151Y023225D03*
X014651Y023225D03*
X015151Y023225D03*
X015151Y021175D03*
X014651Y021175D03*
X014151Y021175D03*
X013651Y021175D03*
X013151Y021175D03*
X012651Y021175D03*
X012151Y021175D03*
X012151Y016926D03*
X012651Y016926D03*
X013151Y016926D03*
X013651Y016926D03*
X014151Y016926D03*
X014651Y016926D03*
X015151Y016926D03*
X015151Y014876D03*
X014651Y014876D03*
X014151Y014876D03*
X013651Y014876D03*
X013151Y014876D03*
X012651Y014876D03*
X012151Y014876D03*
X012151Y010627D03*
X012651Y010627D03*
X013151Y010627D03*
X013651Y010627D03*
X014151Y010627D03*
X014651Y010627D03*
X015151Y010627D03*
X015151Y008577D03*
X014651Y008577D03*
X014151Y008577D03*
X013651Y008577D03*
X013151Y008577D03*
X012651Y008577D03*
X012151Y008577D03*
X012151Y004327D03*
X012651Y004327D03*
X013151Y004327D03*
X013651Y004327D03*
X014151Y004327D03*
X014651Y004327D03*
X015151Y004327D03*
X015151Y002277D03*
X014651Y002277D03*
X014151Y002277D03*
X013651Y002277D03*
X013151Y002277D03*
X012651Y002277D03*
X012151Y002277D03*
D12*
X018151Y001802D03*
X018151Y008102D03*
X018151Y014401D03*
X018151Y020700D03*
X018151Y026999D03*
D13*
X018151Y025999D03*
X017151Y025999D03*
X016151Y025999D03*
X016151Y026999D03*
X017151Y026999D03*
X017151Y020700D03*
X016151Y020700D03*
X016151Y019700D03*
X017151Y019700D03*
X018151Y019700D03*
X017151Y014401D03*
X016151Y014401D03*
X016151Y013401D03*
X017151Y013401D03*
X018151Y013401D03*
X017151Y008102D03*
X016151Y008102D03*
X016151Y007102D03*
X017151Y007102D03*
X018151Y007102D03*
X017151Y001802D03*
X016151Y001802D03*
X016151Y000802D03*
X017151Y000802D03*
X018151Y000802D03*
D14*
X003651Y002023D03*
X003651Y004582D03*
X003651Y008322D03*
X003651Y010881D03*
X003651Y014621D03*
X003651Y017180D03*
X003651Y020920D03*
X003651Y023480D03*
X003651Y027220D03*
X003651Y029779D03*
D15*
X004527Y027399D03*
X005275Y027399D03*
X004901Y026599D03*
X004527Y021100D03*
X005275Y021100D03*
X004901Y020300D03*
X004527Y014801D03*
X005275Y014801D03*
X004901Y014001D03*
X004527Y008502D03*
X005275Y008502D03*
X004901Y007702D03*
X004527Y002202D03*
X005275Y002202D03*
X004901Y001402D03*
D16*
X004567Y003052D03*
X005236Y003052D03*
X005236Y005052D03*
X004567Y005052D03*
X003236Y005552D03*
X002567Y005552D03*
X007067Y007102D03*
X007736Y007102D03*
X005236Y009352D03*
X004567Y009352D03*
X004567Y011352D03*
X005236Y011352D03*
X003236Y011852D03*
X002567Y011852D03*
X004567Y015651D03*
X005236Y015651D03*
X005236Y017651D03*
X004567Y017651D03*
X003236Y018151D03*
X002567Y018151D03*
X007067Y019700D03*
X007736Y019700D03*
X005236Y021950D03*
X004567Y021950D03*
X004567Y023950D03*
X005236Y023950D03*
X003236Y024450D03*
X002567Y024450D03*
X007067Y025999D03*
X007736Y025999D03*
X005236Y028249D03*
X004567Y028249D03*
X004567Y030249D03*
X005236Y030249D03*
X003236Y030749D03*
X002567Y030749D03*
X010317Y028999D03*
X010986Y028999D03*
X011067Y027499D03*
X011736Y027499D03*
X012317Y024450D03*
X012986Y024450D03*
X010986Y022700D03*
X010317Y022700D03*
X011067Y021200D03*
X011736Y021200D03*
X012317Y018151D03*
X012986Y018151D03*
X010986Y016401D03*
X010317Y016401D03*
X011067Y014901D03*
X011736Y014901D03*
X012317Y011852D03*
X012986Y011852D03*
X010986Y010102D03*
X010317Y010102D03*
X011067Y008602D03*
X011736Y008602D03*
X012317Y005552D03*
X012986Y005552D03*
X010986Y003802D03*
X010317Y003802D03*
X011067Y002302D03*
X011736Y002302D03*
X007736Y000802D03*
X007067Y000802D03*
X017067Y003552D03*
X017736Y003552D03*
X017986Y005552D03*
X017317Y005552D03*
X017067Y009852D03*
X017736Y009852D03*
X017986Y011852D03*
X017317Y011852D03*
X017067Y016151D03*
X017736Y016151D03*
X017986Y018151D03*
X017317Y018151D03*
X017067Y022450D03*
X017736Y022450D03*
X017986Y024450D03*
X017317Y024450D03*
X017067Y028749D03*
X017736Y028749D03*
X017986Y030749D03*
X017317Y030749D03*
X012986Y030749D03*
X012317Y030749D03*
X007736Y013401D03*
X007067Y013401D03*
D17*
X003651Y015566D03*
X003651Y016235D03*
X003651Y021865D03*
X003651Y022535D03*
X003651Y028165D03*
X003651Y028834D03*
X003651Y009936D03*
X003651Y009267D03*
X003651Y003637D03*
X003651Y002968D03*
D18*
X002541Y002022D03*
X000761Y002022D03*
X000761Y004582D03*
X002541Y004582D03*
X006151Y007102D03*
X006151Y008102D03*
X002541Y008322D03*
X000761Y008322D03*
X000761Y010882D03*
X002541Y010882D03*
X006151Y013401D03*
X006151Y014401D03*
X002541Y014621D03*
X000761Y014621D03*
X000761Y017181D03*
X002541Y017181D03*
X006151Y019700D03*
X006151Y020700D03*
X002541Y020920D03*
X000761Y020920D03*
X000761Y023480D03*
X002541Y023480D03*
X006151Y025999D03*
X006151Y026999D03*
X002541Y027219D03*
X000761Y027219D03*
X000761Y029779D03*
X002541Y029779D03*
X006151Y001802D03*
X006151Y000802D03*
D19*
X017198Y004802D03*
X018104Y004802D03*
X018104Y011102D03*
X017198Y011102D03*
X017198Y017401D03*
X018104Y017401D03*
X018104Y023700D03*
X017198Y023700D03*
X017198Y029999D03*
X018104Y029999D03*
M02*
