G75*
G70*
%OFA0B0*%
%FSLAX24Y24*%
%IPPOS*%
%LPD*%
%AMOC8*
5,1,8,0,0,1.08239X$1,22.5*
%
%ADD10C,0.0000*%
%ADD11R,0.0280X0.0910*%
%ADD12R,0.0780X0.0780*%
%ADD13OC8,0.0780*%
%ADD14R,0.0440X0.0490*%
%ADD15R,0.0473X0.0434*%
%ADD16R,0.0276X0.0355*%
%ADD17R,0.0512X0.0512*%
%ADD18C,0.1040*%
%ADD19R,0.0749X0.0709*%
%ADD20R,0.0590X0.0870*%
D10*
X000100Y000100D02*
X060100Y000100D01*
X060100Y034100D01*
X000100Y034100D01*
X000100Y000100D01*
D11*
X015100Y004075D03*
X015600Y004075D03*
X016100Y004075D03*
X016600Y004075D03*
X017100Y004075D03*
X017600Y004075D03*
X018100Y004075D03*
X018100Y006125D03*
X017600Y006125D03*
X017100Y006125D03*
X016600Y006125D03*
X016100Y006125D03*
X015600Y006125D03*
X015100Y006125D03*
X015100Y012075D03*
X015600Y012075D03*
X016100Y012075D03*
X016600Y012075D03*
X017100Y012075D03*
X017600Y012075D03*
X018100Y012075D03*
X018100Y014125D03*
X017600Y014125D03*
X017100Y014125D03*
X016600Y014125D03*
X016100Y014125D03*
X015600Y014125D03*
X015100Y014125D03*
X015100Y020075D03*
X015600Y020075D03*
X016100Y020075D03*
X016600Y020075D03*
X017100Y020075D03*
X017600Y020075D03*
X018100Y020075D03*
X018100Y022125D03*
X017600Y022125D03*
X017100Y022125D03*
X016600Y022125D03*
X016100Y022125D03*
X015600Y022125D03*
X015100Y022125D03*
X015100Y028075D03*
X015600Y028075D03*
X016100Y028075D03*
X016600Y028075D03*
X017100Y028075D03*
X017600Y028075D03*
X018100Y028075D03*
X018100Y030125D03*
X017600Y030125D03*
X017100Y030125D03*
X016600Y030125D03*
X016100Y030125D03*
X015600Y030125D03*
X015100Y030125D03*
D12*
X021100Y027600D03*
X021100Y019600D03*
X021100Y011600D03*
X021100Y003600D03*
D13*
X020100Y003600D03*
X019100Y003600D03*
X019100Y002600D03*
X020100Y002600D03*
X021100Y002600D03*
X021100Y010600D03*
X020100Y010600D03*
X019100Y010600D03*
X019100Y011600D03*
X020100Y011600D03*
X020100Y018600D03*
X019100Y018600D03*
X019100Y019600D03*
X020100Y019600D03*
X021100Y018600D03*
X021100Y026600D03*
X020100Y026600D03*
X019100Y026600D03*
X019100Y027600D03*
X020100Y027600D03*
D14*
X008974Y028000D03*
X008226Y028000D03*
X008600Y027200D03*
X008226Y020000D03*
X008974Y020000D03*
X008600Y019200D03*
X008226Y012000D03*
X008974Y012000D03*
X008600Y011200D03*
X008226Y004000D03*
X008974Y004000D03*
X008600Y003200D03*
D15*
X008265Y004850D03*
X008935Y004850D03*
X006935Y005100D03*
X006265Y005100D03*
X006415Y007150D03*
X007085Y007150D03*
X008265Y006850D03*
X008935Y006850D03*
X013265Y005600D03*
X013935Y005600D03*
X014015Y004100D03*
X014685Y004100D03*
X013035Y003100D03*
X012365Y003100D03*
X015265Y007350D03*
X015935Y007350D03*
X019265Y007350D03*
X019935Y007350D03*
X019935Y005350D03*
X019265Y005350D03*
X013035Y011100D03*
X012365Y011100D03*
X014015Y012100D03*
X014685Y012100D03*
X013935Y013600D03*
X013265Y013600D03*
X015265Y015350D03*
X015935Y015350D03*
X019265Y015350D03*
X019935Y015350D03*
X019935Y013350D03*
X019265Y013350D03*
X013035Y019100D03*
X012365Y019100D03*
X014015Y020100D03*
X014685Y020100D03*
X013935Y021600D03*
X013265Y021600D03*
X015265Y023350D03*
X015935Y023350D03*
X019265Y023350D03*
X019935Y023350D03*
X019935Y021350D03*
X019265Y021350D03*
X013035Y027100D03*
X012365Y027100D03*
X014015Y028100D03*
X014685Y028100D03*
X013935Y029600D03*
X013265Y029600D03*
X015265Y031350D03*
X015935Y031350D03*
X019265Y031350D03*
X019935Y031350D03*
X019935Y029350D03*
X019265Y029350D03*
X008935Y028850D03*
X008265Y028850D03*
X006935Y029100D03*
X006265Y029100D03*
X008265Y030850D03*
X008935Y030850D03*
X007085Y031150D03*
X006415Y031150D03*
X006415Y023150D03*
X007085Y023150D03*
X008265Y022850D03*
X008935Y022850D03*
X006935Y021100D03*
X006265Y021100D03*
X008265Y020850D03*
X008935Y020850D03*
X007085Y015150D03*
X006415Y015150D03*
X008265Y014850D03*
X008935Y014850D03*
X006935Y013100D03*
X006265Y013100D03*
X008265Y012850D03*
X008935Y012850D03*
D16*
X019285Y014600D03*
X019915Y014600D03*
X019915Y006600D03*
X019285Y006600D03*
X019285Y022600D03*
X019915Y022600D03*
X019915Y030600D03*
X019285Y030600D03*
D17*
X014763Y027100D03*
X013937Y027100D03*
X013937Y019100D03*
X014763Y019100D03*
X014763Y011100D03*
X013937Y011100D03*
X013937Y003100D03*
X014763Y003100D03*
D18*
X006600Y004116D03*
X006600Y006084D03*
X006600Y012116D03*
X006600Y014084D03*
X006600Y020116D03*
X006600Y022084D03*
X006600Y028116D03*
X006600Y030084D03*
D19*
X009643Y027100D03*
X011257Y027100D03*
X011257Y019100D03*
X009643Y019100D03*
X009643Y011100D03*
X011257Y011100D03*
X011257Y003100D03*
X009643Y003100D03*
D20*
X005490Y003310D03*
X003710Y003310D03*
X003710Y006890D03*
X005490Y006899D03*
X005490Y011310D03*
X003710Y011310D03*
X003710Y014890D03*
X005490Y014899D03*
X005490Y019310D03*
X003710Y019310D03*
X003710Y022890D03*
X005490Y022899D03*
X005490Y027310D03*
X003710Y027310D03*
X003710Y030890D03*
X005490Y030899D03*
M02*
