G75*
G70*
%OFA0B0*%
%FSLAX24Y24*%
%IPPOS*%
%LPD*%
%AMOC8*
5,1,8,0,0,1.08239X$1,22.5*
%
%ADD10C,0.0000*%
%ADD11C,0.0240*%
%ADD12R,0.0029X0.0029*%
%ADD13R,0.0145X0.0029*%
%ADD14R,0.0116X0.0029*%
%ADD15R,0.0058X0.0029*%
%ADD16R,0.0087X0.0029*%
%ADD17R,0.0812X0.0029*%
%ADD18R,0.0725X0.0029*%
%ADD19R,0.0348X0.0029*%
%ADD20R,0.1566X0.0029*%
%ADD21R,0.1653X0.0029*%
%ADD22R,0.1711X0.0029*%
%ADD23R,0.1218X0.0029*%
%ADD24R,0.0203X0.0029*%
%ADD25R,0.0377X0.0029*%
%ADD26R,0.1740X0.0029*%
%ADD27R,0.0580X0.0029*%
%ADD28R,0.0174X0.0029*%
%ADD29R,0.0290X0.0029*%
%ADD30R,0.0087X0.0029*%
%ADD31R,0.0058X0.0029*%
%ADD32R,0.0261X0.0029*%
%ADD33R,0.0667X0.0029*%
%ADD34R,0.2436X0.0029*%
%ADD35R,0.0232X0.0029*%
%ADD36R,0.2059X0.0029*%
%ADD37R,0.0174X0.0029*%
%ADD38R,0.3770X0.0029*%
%ADD39R,0.1131X0.0029*%
%ADD40R,0.2871X0.0029*%
%ADD41R,0.0319X0.0029*%
%ADD42R,0.0261X0.0029*%
%ADD43R,0.4930X0.0029*%
%ADD44R,0.1015X0.0029*%
%ADD45R,0.0377X0.0029*%
%ADD46R,0.0406X0.0029*%
%ADD47R,0.0754X0.0029*%
%ADD48R,0.0986X0.0029*%
%ADD49R,0.1160X0.0029*%
%ADD50R,0.1392X0.0029*%
%ADD51R,0.1624X0.0029*%
%ADD52R,0.1798X0.0029*%
%ADD53R,0.0435X0.0029*%
%ADD54R,0.1421X0.0029*%
%ADD55R,0.0464X0.0029*%
%ADD56R,0.1450X0.0029*%
%ADD57R,0.0493X0.0029*%
%ADD58R,0.1479X0.0029*%
%ADD59R,0.0551X0.0029*%
%ADD60R,0.0899X0.0029*%
%ADD61R,0.0551X0.0029*%
%ADD62R,0.0464X0.0029*%
%ADD63R,0.0696X0.0029*%
%ADD64R,0.0638X0.0029*%
%ADD65R,0.0870X0.0029*%
%ADD66R,0.0841X0.0029*%
%ADD67R,0.0841X0.0029*%
%ADD68R,0.0928X0.0029*%
%ADD69R,0.0667X0.0029*%
%ADD70R,0.0957X0.0029*%
%ADD71R,0.1073X0.0029*%
%ADD72R,0.1131X0.0029*%
%ADD73R,0.1711X0.0029*%
%ADD74R,0.1856X0.0029*%
%ADD75R,0.1885X0.0029*%
%ADD76R,0.1247X0.0029*%
%ADD77R,0.0522X0.0029*%
%ADD78R,0.1305X0.0029*%
%ADD79R,0.1189X0.0029*%
%ADD80R,0.0928X0.0029*%
%ADD81R,0.0783X0.0029*%
%ADD82R,0.0609X0.0029*%
%ADD83R,0.1102X0.0029*%
%ADD84R,0.2117X0.0029*%
%ADD85R,0.1044X0.0029*%
%ADD86R,0.0754X0.0029*%
%ADD87R,0.1334X0.0029*%
%ADD88R,0.1044X0.0029*%
%ADD89R,0.0348X0.0029*%
%ADD90C,0.0120*%
D10*
X000151Y001048D02*
X000151Y032169D01*
X039521Y032169D01*
X039521Y001048D01*
X000151Y001048D01*
D11*
X020151Y001298D02*
X020151Y006798D01*
X020151Y007548D02*
X020151Y013048D01*
X020151Y013798D02*
X020151Y019298D01*
X020151Y020048D02*
X020151Y025548D01*
X020151Y026298D02*
X020151Y031798D01*
D12*
X022974Y029731D03*
X022974Y029702D03*
X022974Y029673D03*
X022974Y029644D03*
X022974Y029615D03*
X022974Y029586D03*
X022974Y029557D03*
X023032Y029644D03*
X023032Y029673D03*
X023032Y029702D03*
X023032Y029731D03*
X023090Y029731D03*
X023090Y029702D03*
X023090Y029673D03*
X023090Y029644D03*
X023351Y029499D03*
X023351Y029470D03*
X023351Y029441D03*
X023351Y029412D03*
X023351Y029383D03*
X023351Y029354D03*
X023351Y029325D03*
X024018Y029267D03*
X024018Y029238D03*
X024018Y029209D03*
X024018Y029180D03*
X024018Y029151D03*
X024018Y029122D03*
X024221Y029122D03*
X024221Y029151D03*
X024221Y029180D03*
X024221Y029209D03*
X024221Y029238D03*
X024221Y029267D03*
X024250Y029354D03*
X024250Y029383D03*
X024250Y029412D03*
X024250Y029441D03*
X024250Y029470D03*
X024250Y029499D03*
X024250Y029528D03*
X024424Y029093D03*
X024598Y029093D03*
X024888Y028861D03*
X024888Y028832D03*
X024888Y028803D03*
X024888Y028774D03*
X024888Y028745D03*
X024888Y028716D03*
X024888Y028687D03*
X025004Y028716D03*
X025004Y028745D03*
X025004Y028774D03*
X025004Y028803D03*
X025004Y028832D03*
X025004Y028861D03*
X025120Y028948D03*
X025120Y028977D03*
X025120Y029006D03*
X025120Y029035D03*
X025120Y029064D03*
X025120Y029093D03*
X025932Y029093D03*
X025932Y029064D03*
X025932Y029035D03*
X025932Y029006D03*
X025932Y028977D03*
X025932Y028948D03*
X025932Y028687D03*
X025990Y028687D03*
X026396Y028919D03*
X026570Y028919D03*
X026222Y029122D03*
X028136Y030804D03*
X028136Y030833D03*
X028136Y030862D03*
X028136Y030891D03*
X028136Y030920D03*
X028136Y030949D03*
X027991Y031007D03*
X027991Y031036D03*
X027991Y031065D03*
X027991Y031094D03*
X027991Y031123D03*
X027991Y031152D03*
X028020Y031239D03*
X028020Y031268D03*
X028020Y031297D03*
X028020Y031326D03*
X028020Y031355D03*
X028020Y031384D03*
X028020Y031413D03*
X027614Y031413D03*
X027498Y031413D03*
X027498Y031384D03*
X027498Y031355D03*
X027498Y031326D03*
X027498Y031297D03*
X027498Y031268D03*
X027498Y031239D03*
X027440Y031239D03*
X027440Y031268D03*
X027440Y031297D03*
X027440Y031326D03*
X027440Y031355D03*
X027440Y031384D03*
X027527Y031152D03*
X027527Y031123D03*
X027527Y031094D03*
X027527Y031065D03*
X027527Y031036D03*
X027527Y031007D03*
X027585Y031007D03*
X027585Y031036D03*
X027585Y031065D03*
X027585Y031094D03*
X027585Y031123D03*
X027585Y031152D03*
X027701Y030978D03*
X027846Y030978D03*
X028861Y030775D03*
X028861Y030746D03*
X028861Y030717D03*
X028861Y030688D03*
X028861Y030659D03*
X028861Y030630D03*
X028861Y030601D03*
X028948Y030601D03*
X028948Y030630D03*
X028948Y030659D03*
X028948Y030688D03*
X028948Y030717D03*
X028948Y030746D03*
X028948Y030775D03*
X029035Y030775D03*
X029035Y030746D03*
X029035Y030717D03*
X029035Y030688D03*
X029035Y030659D03*
X029035Y030630D03*
X029035Y030601D03*
X029760Y030543D03*
X029760Y030514D03*
X029760Y030485D03*
X029760Y030456D03*
X029760Y030427D03*
X029760Y030398D03*
X029760Y030369D03*
X029905Y030369D03*
X029905Y030398D03*
X029905Y030427D03*
X029905Y030456D03*
X029905Y030485D03*
X029905Y030514D03*
X029905Y030543D03*
X029963Y030514D03*
X029963Y030485D03*
X029963Y030456D03*
X029963Y030427D03*
X029963Y030398D03*
X029963Y030369D03*
X030021Y030369D03*
X030021Y030398D03*
X030021Y030427D03*
X030021Y030456D03*
X030021Y030485D03*
X030021Y030514D03*
X030282Y030456D03*
X030282Y030427D03*
X030282Y030398D03*
X030282Y030369D03*
X030746Y030456D03*
X030746Y030485D03*
X030746Y030514D03*
X030746Y030543D03*
X031181Y030398D03*
X031181Y030369D03*
X031268Y030369D03*
X031268Y030398D03*
X031268Y030427D03*
X031268Y030456D03*
X031268Y030485D03*
X031268Y030514D03*
X031529Y030514D03*
X031529Y030485D03*
X031529Y030456D03*
X031529Y030427D03*
X031529Y030398D03*
X031529Y030369D03*
X031529Y030543D03*
X031877Y030804D03*
X031877Y030833D03*
X031877Y030862D03*
X031877Y030891D03*
X031877Y030920D03*
X031877Y030949D03*
X031877Y030978D03*
X032283Y030978D03*
X033124Y030746D03*
X033124Y030717D03*
X033124Y030688D03*
X033124Y030659D03*
X033124Y030630D03*
X033124Y030601D03*
X033124Y030572D03*
X033182Y030572D03*
X033182Y030601D03*
X033182Y030630D03*
X033182Y030659D03*
X033182Y030688D03*
X033182Y030717D03*
X033182Y030746D03*
X033501Y031007D03*
X034226Y031007D03*
X034284Y031036D03*
X034284Y031065D03*
X034284Y031094D03*
X034284Y031123D03*
X034284Y031152D03*
X034284Y031181D03*
X034284Y031210D03*
X034400Y031007D03*
X034748Y031007D03*
X035125Y031210D03*
X035589Y030775D03*
X035908Y031007D03*
X035908Y031036D03*
X035908Y031065D03*
X035908Y031094D03*
X035908Y031123D03*
X035908Y031152D03*
X035995Y031181D03*
X036169Y031181D03*
X036343Y031181D03*
X036024Y031442D03*
X036024Y031471D03*
X036024Y031500D03*
X036024Y031529D03*
X036024Y031558D03*
X036024Y031587D03*
X036024Y031616D03*
X035850Y031413D03*
X035792Y031413D03*
X035792Y031384D03*
X035792Y031355D03*
X035792Y031326D03*
X035792Y031297D03*
X035792Y031268D03*
X036894Y031181D03*
X037068Y031181D03*
X037242Y031181D03*
X037242Y031442D03*
X037242Y031471D03*
X037242Y031500D03*
X037242Y031529D03*
X037242Y031558D03*
X037242Y031587D03*
X037242Y031616D03*
X037474Y031616D03*
X037474Y031587D03*
X037474Y031558D03*
X037474Y031529D03*
X037474Y031500D03*
X037474Y031471D03*
X037474Y031442D03*
X033443Y030079D03*
X030978Y029963D03*
X029847Y029180D03*
X028832Y028919D03*
X026831Y031210D03*
X027498Y025163D03*
X027498Y025134D03*
X027498Y025105D03*
X027498Y025076D03*
X027498Y025047D03*
X027498Y025018D03*
X027498Y024989D03*
X027440Y024989D03*
X027440Y025018D03*
X027440Y025047D03*
X027440Y025076D03*
X027440Y025105D03*
X027440Y025134D03*
X027614Y025163D03*
X027585Y024902D03*
X027585Y024873D03*
X027585Y024844D03*
X027585Y024815D03*
X027585Y024786D03*
X027585Y024757D03*
X027527Y024757D03*
X027527Y024786D03*
X027527Y024815D03*
X027527Y024844D03*
X027527Y024873D03*
X027527Y024902D03*
X027701Y024728D03*
X027846Y024728D03*
X027991Y024757D03*
X027991Y024786D03*
X027991Y024815D03*
X027991Y024844D03*
X027991Y024873D03*
X027991Y024902D03*
X028020Y024989D03*
X028020Y025018D03*
X028020Y025047D03*
X028020Y025076D03*
X028020Y025105D03*
X028020Y025134D03*
X028020Y025163D03*
X028136Y024699D03*
X028136Y024670D03*
X028136Y024641D03*
X028136Y024612D03*
X028136Y024583D03*
X028136Y024554D03*
X028861Y024525D03*
X028861Y024496D03*
X028861Y024467D03*
X028861Y024438D03*
X028861Y024409D03*
X028861Y024380D03*
X028861Y024351D03*
X028948Y024351D03*
X028948Y024380D03*
X028948Y024409D03*
X028948Y024438D03*
X028948Y024467D03*
X028948Y024496D03*
X028948Y024525D03*
X029035Y024525D03*
X029035Y024496D03*
X029035Y024467D03*
X029035Y024438D03*
X029035Y024409D03*
X029035Y024380D03*
X029035Y024351D03*
X029760Y024293D03*
X029760Y024264D03*
X029760Y024235D03*
X029760Y024206D03*
X029760Y024177D03*
X029760Y024148D03*
X029760Y024119D03*
X029905Y024119D03*
X029905Y024148D03*
X029905Y024177D03*
X029905Y024206D03*
X029905Y024235D03*
X029905Y024264D03*
X029905Y024293D03*
X029963Y024264D03*
X029963Y024235D03*
X029963Y024206D03*
X029963Y024177D03*
X029963Y024148D03*
X029963Y024119D03*
X030021Y024119D03*
X030021Y024148D03*
X030021Y024177D03*
X030021Y024206D03*
X030021Y024235D03*
X030021Y024264D03*
X030282Y024206D03*
X030282Y024177D03*
X030282Y024148D03*
X030282Y024119D03*
X030746Y024206D03*
X030746Y024235D03*
X030746Y024264D03*
X030746Y024293D03*
X031181Y024148D03*
X031181Y024119D03*
X031268Y024119D03*
X031268Y024148D03*
X031268Y024177D03*
X031268Y024206D03*
X031268Y024235D03*
X031268Y024264D03*
X031529Y024264D03*
X031529Y024235D03*
X031529Y024206D03*
X031529Y024177D03*
X031529Y024148D03*
X031529Y024119D03*
X031529Y024293D03*
X031877Y024554D03*
X031877Y024583D03*
X031877Y024612D03*
X031877Y024641D03*
X031877Y024670D03*
X031877Y024699D03*
X031877Y024728D03*
X032283Y024728D03*
X033124Y024496D03*
X033124Y024467D03*
X033124Y024438D03*
X033124Y024409D03*
X033124Y024380D03*
X033124Y024351D03*
X033124Y024322D03*
X033182Y024322D03*
X033182Y024351D03*
X033182Y024380D03*
X033182Y024409D03*
X033182Y024438D03*
X033182Y024467D03*
X033182Y024496D03*
X033501Y024757D03*
X034226Y024757D03*
X034284Y024786D03*
X034284Y024815D03*
X034284Y024844D03*
X034284Y024873D03*
X034284Y024902D03*
X034284Y024931D03*
X034284Y024960D03*
X034400Y024757D03*
X034748Y024757D03*
X035125Y024960D03*
X035589Y024525D03*
X035908Y024757D03*
X035908Y024786D03*
X035908Y024815D03*
X035908Y024844D03*
X035908Y024873D03*
X035908Y024902D03*
X035995Y024931D03*
X036169Y024931D03*
X036343Y024931D03*
X036024Y025192D03*
X036024Y025221D03*
X036024Y025250D03*
X036024Y025279D03*
X036024Y025308D03*
X036024Y025337D03*
X036024Y025366D03*
X035850Y025163D03*
X035792Y025163D03*
X035792Y025134D03*
X035792Y025105D03*
X035792Y025076D03*
X035792Y025047D03*
X035792Y025018D03*
X036894Y024931D03*
X037068Y024931D03*
X037242Y024931D03*
X037242Y025192D03*
X037242Y025221D03*
X037242Y025250D03*
X037242Y025279D03*
X037242Y025308D03*
X037242Y025337D03*
X037242Y025366D03*
X037474Y025366D03*
X037474Y025337D03*
X037474Y025308D03*
X037474Y025279D03*
X037474Y025250D03*
X037474Y025221D03*
X037474Y025192D03*
X033443Y023829D03*
X030978Y023713D03*
X029847Y022930D03*
X028832Y022669D03*
X026570Y022669D03*
X026396Y022669D03*
X026222Y022872D03*
X025932Y022843D03*
X025932Y022814D03*
X025932Y022785D03*
X025932Y022756D03*
X025932Y022727D03*
X025932Y022698D03*
X025932Y022437D03*
X025990Y022437D03*
X025120Y022698D03*
X025120Y022727D03*
X025120Y022756D03*
X025120Y022785D03*
X025120Y022814D03*
X025120Y022843D03*
X025004Y022611D03*
X025004Y022582D03*
X025004Y022553D03*
X025004Y022524D03*
X025004Y022495D03*
X025004Y022466D03*
X024888Y022466D03*
X024888Y022437D03*
X024888Y022495D03*
X024888Y022524D03*
X024888Y022553D03*
X024888Y022582D03*
X024888Y022611D03*
X024598Y022843D03*
X024424Y022843D03*
X024221Y022872D03*
X024221Y022901D03*
X024221Y022930D03*
X024221Y022959D03*
X024221Y022988D03*
X024221Y023017D03*
X024250Y023104D03*
X024250Y023133D03*
X024250Y023162D03*
X024250Y023191D03*
X024250Y023220D03*
X024250Y023249D03*
X024250Y023278D03*
X024018Y023017D03*
X024018Y022988D03*
X024018Y022959D03*
X024018Y022930D03*
X024018Y022901D03*
X024018Y022872D03*
X023351Y023075D03*
X023351Y023104D03*
X023351Y023133D03*
X023351Y023162D03*
X023351Y023191D03*
X023351Y023220D03*
X023351Y023249D03*
X023090Y023394D03*
X023090Y023423D03*
X023090Y023452D03*
X023090Y023481D03*
X023032Y023481D03*
X023032Y023452D03*
X023032Y023423D03*
X023032Y023394D03*
X022974Y023394D03*
X022974Y023365D03*
X022974Y023336D03*
X022974Y023307D03*
X022974Y023423D03*
X022974Y023452D03*
X022974Y023481D03*
X026831Y024960D03*
X027498Y018913D03*
X027498Y018884D03*
X027498Y018855D03*
X027498Y018826D03*
X027498Y018797D03*
X027498Y018768D03*
X027498Y018739D03*
X027440Y018739D03*
X027440Y018768D03*
X027440Y018797D03*
X027440Y018826D03*
X027440Y018855D03*
X027440Y018884D03*
X027614Y018913D03*
X027585Y018652D03*
X027585Y018623D03*
X027585Y018594D03*
X027585Y018565D03*
X027585Y018536D03*
X027585Y018507D03*
X027527Y018507D03*
X027527Y018536D03*
X027527Y018565D03*
X027527Y018594D03*
X027527Y018623D03*
X027527Y018652D03*
X027701Y018478D03*
X027846Y018478D03*
X027991Y018507D03*
X027991Y018536D03*
X027991Y018565D03*
X027991Y018594D03*
X027991Y018623D03*
X027991Y018652D03*
X028020Y018739D03*
X028020Y018768D03*
X028020Y018797D03*
X028020Y018826D03*
X028020Y018855D03*
X028020Y018884D03*
X028020Y018913D03*
X028136Y018449D03*
X028136Y018420D03*
X028136Y018391D03*
X028136Y018362D03*
X028136Y018333D03*
X028136Y018304D03*
X028861Y018275D03*
X028861Y018246D03*
X028861Y018217D03*
X028861Y018188D03*
X028861Y018159D03*
X028861Y018130D03*
X028861Y018101D03*
X028948Y018101D03*
X028948Y018130D03*
X028948Y018159D03*
X028948Y018188D03*
X028948Y018217D03*
X028948Y018246D03*
X028948Y018275D03*
X029035Y018275D03*
X029035Y018246D03*
X029035Y018217D03*
X029035Y018188D03*
X029035Y018159D03*
X029035Y018130D03*
X029035Y018101D03*
X029760Y018043D03*
X029760Y018014D03*
X029760Y017985D03*
X029760Y017956D03*
X029760Y017927D03*
X029760Y017898D03*
X029760Y017869D03*
X029905Y017869D03*
X029905Y017898D03*
X029905Y017927D03*
X029905Y017956D03*
X029905Y017985D03*
X029905Y018014D03*
X029905Y018043D03*
X029963Y018014D03*
X029963Y017985D03*
X029963Y017956D03*
X029963Y017927D03*
X029963Y017898D03*
X029963Y017869D03*
X030021Y017869D03*
X030021Y017898D03*
X030021Y017927D03*
X030021Y017956D03*
X030021Y017985D03*
X030021Y018014D03*
X030282Y017956D03*
X030282Y017927D03*
X030282Y017898D03*
X030282Y017869D03*
X030746Y017956D03*
X030746Y017985D03*
X030746Y018014D03*
X030746Y018043D03*
X031181Y017898D03*
X031181Y017869D03*
X031268Y017869D03*
X031268Y017898D03*
X031268Y017927D03*
X031268Y017956D03*
X031268Y017985D03*
X031268Y018014D03*
X031529Y018014D03*
X031529Y017985D03*
X031529Y017956D03*
X031529Y017927D03*
X031529Y017898D03*
X031529Y017869D03*
X031529Y018043D03*
X031877Y018304D03*
X031877Y018333D03*
X031877Y018362D03*
X031877Y018391D03*
X031877Y018420D03*
X031877Y018449D03*
X031877Y018478D03*
X032283Y018478D03*
X033124Y018246D03*
X033124Y018217D03*
X033124Y018188D03*
X033124Y018159D03*
X033124Y018130D03*
X033124Y018101D03*
X033124Y018072D03*
X033182Y018072D03*
X033182Y018101D03*
X033182Y018130D03*
X033182Y018159D03*
X033182Y018188D03*
X033182Y018217D03*
X033182Y018246D03*
X033501Y018507D03*
X034226Y018507D03*
X034284Y018536D03*
X034284Y018565D03*
X034284Y018594D03*
X034284Y018623D03*
X034284Y018652D03*
X034284Y018681D03*
X034284Y018710D03*
X034400Y018507D03*
X034748Y018507D03*
X035125Y018710D03*
X035589Y018275D03*
X035908Y018507D03*
X035908Y018536D03*
X035908Y018565D03*
X035908Y018594D03*
X035908Y018623D03*
X035908Y018652D03*
X035995Y018681D03*
X036169Y018681D03*
X036343Y018681D03*
X036024Y018942D03*
X036024Y018971D03*
X036024Y019000D03*
X036024Y019029D03*
X036024Y019058D03*
X036024Y019087D03*
X036024Y019116D03*
X035850Y018913D03*
X035792Y018913D03*
X035792Y018884D03*
X035792Y018855D03*
X035792Y018826D03*
X035792Y018797D03*
X035792Y018768D03*
X036894Y018681D03*
X037068Y018681D03*
X037242Y018681D03*
X037242Y018942D03*
X037242Y018971D03*
X037242Y019000D03*
X037242Y019029D03*
X037242Y019058D03*
X037242Y019087D03*
X037242Y019116D03*
X037474Y019116D03*
X037474Y019087D03*
X037474Y019058D03*
X037474Y019029D03*
X037474Y019000D03*
X037474Y018971D03*
X037474Y018942D03*
X033443Y017579D03*
X030978Y017463D03*
X029847Y016680D03*
X028832Y016419D03*
X026570Y016419D03*
X026396Y016419D03*
X026222Y016622D03*
X025932Y016593D03*
X025932Y016564D03*
X025932Y016535D03*
X025932Y016506D03*
X025932Y016477D03*
X025932Y016448D03*
X025932Y016187D03*
X025990Y016187D03*
X025120Y016448D03*
X025120Y016477D03*
X025120Y016506D03*
X025120Y016535D03*
X025120Y016564D03*
X025120Y016593D03*
X025004Y016361D03*
X025004Y016332D03*
X025004Y016303D03*
X025004Y016274D03*
X025004Y016245D03*
X025004Y016216D03*
X024888Y016216D03*
X024888Y016187D03*
X024888Y016245D03*
X024888Y016274D03*
X024888Y016303D03*
X024888Y016332D03*
X024888Y016361D03*
X024598Y016593D03*
X024424Y016593D03*
X024221Y016622D03*
X024221Y016651D03*
X024221Y016680D03*
X024221Y016709D03*
X024221Y016738D03*
X024221Y016767D03*
X024250Y016854D03*
X024250Y016883D03*
X024250Y016912D03*
X024250Y016941D03*
X024250Y016970D03*
X024250Y016999D03*
X024250Y017028D03*
X024018Y016767D03*
X024018Y016738D03*
X024018Y016709D03*
X024018Y016680D03*
X024018Y016651D03*
X024018Y016622D03*
X023351Y016825D03*
X023351Y016854D03*
X023351Y016883D03*
X023351Y016912D03*
X023351Y016941D03*
X023351Y016970D03*
X023351Y016999D03*
X023090Y017144D03*
X023090Y017173D03*
X023090Y017202D03*
X023090Y017231D03*
X023032Y017231D03*
X023032Y017202D03*
X023032Y017173D03*
X023032Y017144D03*
X022974Y017144D03*
X022974Y017115D03*
X022974Y017086D03*
X022974Y017057D03*
X022974Y017173D03*
X022974Y017202D03*
X022974Y017231D03*
X026831Y018710D03*
X027498Y012663D03*
X027498Y012634D03*
X027498Y012605D03*
X027498Y012576D03*
X027498Y012547D03*
X027498Y012518D03*
X027498Y012489D03*
X027440Y012489D03*
X027440Y012518D03*
X027440Y012547D03*
X027440Y012576D03*
X027440Y012605D03*
X027440Y012634D03*
X027614Y012663D03*
X027585Y012402D03*
X027585Y012373D03*
X027585Y012344D03*
X027585Y012315D03*
X027585Y012286D03*
X027585Y012257D03*
X027527Y012257D03*
X027527Y012286D03*
X027527Y012315D03*
X027527Y012344D03*
X027527Y012373D03*
X027527Y012402D03*
X027701Y012228D03*
X027846Y012228D03*
X027991Y012257D03*
X027991Y012286D03*
X027991Y012315D03*
X027991Y012344D03*
X027991Y012373D03*
X027991Y012402D03*
X028020Y012489D03*
X028020Y012518D03*
X028020Y012547D03*
X028020Y012576D03*
X028020Y012605D03*
X028020Y012634D03*
X028020Y012663D03*
X028136Y012199D03*
X028136Y012170D03*
X028136Y012141D03*
X028136Y012112D03*
X028136Y012083D03*
X028136Y012054D03*
X028861Y012025D03*
X028861Y011996D03*
X028861Y011967D03*
X028861Y011938D03*
X028861Y011909D03*
X028861Y011880D03*
X028861Y011851D03*
X028948Y011851D03*
X028948Y011880D03*
X028948Y011909D03*
X028948Y011938D03*
X028948Y011967D03*
X028948Y011996D03*
X028948Y012025D03*
X029035Y012025D03*
X029035Y011996D03*
X029035Y011967D03*
X029035Y011938D03*
X029035Y011909D03*
X029035Y011880D03*
X029035Y011851D03*
X029760Y011793D03*
X029760Y011764D03*
X029760Y011735D03*
X029760Y011706D03*
X029760Y011677D03*
X029760Y011648D03*
X029760Y011619D03*
X029905Y011619D03*
X029905Y011648D03*
X029905Y011677D03*
X029905Y011706D03*
X029905Y011735D03*
X029905Y011764D03*
X029905Y011793D03*
X029963Y011764D03*
X029963Y011735D03*
X029963Y011706D03*
X029963Y011677D03*
X029963Y011648D03*
X029963Y011619D03*
X030021Y011619D03*
X030021Y011648D03*
X030021Y011677D03*
X030021Y011706D03*
X030021Y011735D03*
X030021Y011764D03*
X030282Y011706D03*
X030282Y011677D03*
X030282Y011648D03*
X030282Y011619D03*
X030746Y011706D03*
X030746Y011735D03*
X030746Y011764D03*
X030746Y011793D03*
X031181Y011648D03*
X031181Y011619D03*
X031268Y011619D03*
X031268Y011648D03*
X031268Y011677D03*
X031268Y011706D03*
X031268Y011735D03*
X031268Y011764D03*
X031529Y011764D03*
X031529Y011735D03*
X031529Y011706D03*
X031529Y011677D03*
X031529Y011648D03*
X031529Y011619D03*
X031529Y011793D03*
X031877Y012054D03*
X031877Y012083D03*
X031877Y012112D03*
X031877Y012141D03*
X031877Y012170D03*
X031877Y012199D03*
X031877Y012228D03*
X032283Y012228D03*
X033124Y011996D03*
X033124Y011967D03*
X033124Y011938D03*
X033124Y011909D03*
X033124Y011880D03*
X033124Y011851D03*
X033124Y011822D03*
X033182Y011822D03*
X033182Y011851D03*
X033182Y011880D03*
X033182Y011909D03*
X033182Y011938D03*
X033182Y011967D03*
X033182Y011996D03*
X033501Y012257D03*
X034226Y012257D03*
X034284Y012286D03*
X034284Y012315D03*
X034284Y012344D03*
X034284Y012373D03*
X034284Y012402D03*
X034284Y012431D03*
X034284Y012460D03*
X034400Y012257D03*
X034748Y012257D03*
X035125Y012460D03*
X035589Y012025D03*
X035908Y012257D03*
X035908Y012286D03*
X035908Y012315D03*
X035908Y012344D03*
X035908Y012373D03*
X035908Y012402D03*
X035995Y012431D03*
X036169Y012431D03*
X036343Y012431D03*
X036024Y012692D03*
X036024Y012721D03*
X036024Y012750D03*
X036024Y012779D03*
X036024Y012808D03*
X036024Y012837D03*
X036024Y012866D03*
X035850Y012663D03*
X035792Y012663D03*
X035792Y012634D03*
X035792Y012605D03*
X035792Y012576D03*
X035792Y012547D03*
X035792Y012518D03*
X036894Y012431D03*
X037068Y012431D03*
X037242Y012431D03*
X037242Y012692D03*
X037242Y012721D03*
X037242Y012750D03*
X037242Y012779D03*
X037242Y012808D03*
X037242Y012837D03*
X037242Y012866D03*
X037474Y012866D03*
X037474Y012837D03*
X037474Y012808D03*
X037474Y012779D03*
X037474Y012750D03*
X037474Y012721D03*
X037474Y012692D03*
X033443Y011329D03*
X030978Y011213D03*
X029847Y010430D03*
X028832Y010169D03*
X026570Y010169D03*
X026396Y010169D03*
X026222Y010372D03*
X025932Y010343D03*
X025932Y010314D03*
X025932Y010285D03*
X025932Y010256D03*
X025932Y010227D03*
X025932Y010198D03*
X025932Y009937D03*
X025990Y009937D03*
X025120Y010198D03*
X025120Y010227D03*
X025120Y010256D03*
X025120Y010285D03*
X025120Y010314D03*
X025120Y010343D03*
X025004Y010111D03*
X025004Y010082D03*
X025004Y010053D03*
X025004Y010024D03*
X025004Y009995D03*
X025004Y009966D03*
X024888Y009966D03*
X024888Y009937D03*
X024888Y009995D03*
X024888Y010024D03*
X024888Y010053D03*
X024888Y010082D03*
X024888Y010111D03*
X024598Y010343D03*
X024424Y010343D03*
X024221Y010372D03*
X024221Y010401D03*
X024221Y010430D03*
X024221Y010459D03*
X024221Y010488D03*
X024221Y010517D03*
X024250Y010604D03*
X024250Y010633D03*
X024250Y010662D03*
X024250Y010691D03*
X024250Y010720D03*
X024250Y010749D03*
X024250Y010778D03*
X024018Y010517D03*
X024018Y010488D03*
X024018Y010459D03*
X024018Y010430D03*
X024018Y010401D03*
X024018Y010372D03*
X023351Y010575D03*
X023351Y010604D03*
X023351Y010633D03*
X023351Y010662D03*
X023351Y010691D03*
X023351Y010720D03*
X023351Y010749D03*
X023090Y010894D03*
X023090Y010923D03*
X023090Y010952D03*
X023090Y010981D03*
X023032Y010981D03*
X023032Y010952D03*
X023032Y010923D03*
X023032Y010894D03*
X022974Y010894D03*
X022974Y010865D03*
X022974Y010836D03*
X022974Y010807D03*
X022974Y010923D03*
X022974Y010952D03*
X022974Y010981D03*
X026831Y012460D03*
X027498Y006413D03*
X027498Y006384D03*
X027498Y006355D03*
X027498Y006326D03*
X027498Y006297D03*
X027498Y006268D03*
X027498Y006239D03*
X027440Y006239D03*
X027440Y006268D03*
X027440Y006297D03*
X027440Y006326D03*
X027440Y006355D03*
X027440Y006384D03*
X027614Y006413D03*
X027585Y006152D03*
X027585Y006123D03*
X027585Y006094D03*
X027585Y006065D03*
X027585Y006036D03*
X027585Y006007D03*
X027527Y006007D03*
X027527Y006036D03*
X027527Y006065D03*
X027527Y006094D03*
X027527Y006123D03*
X027527Y006152D03*
X027701Y005978D03*
X027846Y005978D03*
X027991Y006007D03*
X027991Y006036D03*
X027991Y006065D03*
X027991Y006094D03*
X027991Y006123D03*
X027991Y006152D03*
X028020Y006239D03*
X028020Y006268D03*
X028020Y006297D03*
X028020Y006326D03*
X028020Y006355D03*
X028020Y006384D03*
X028020Y006413D03*
X028136Y005949D03*
X028136Y005920D03*
X028136Y005891D03*
X028136Y005862D03*
X028136Y005833D03*
X028136Y005804D03*
X028861Y005775D03*
X028861Y005746D03*
X028861Y005717D03*
X028861Y005688D03*
X028861Y005659D03*
X028861Y005630D03*
X028861Y005601D03*
X028948Y005601D03*
X028948Y005630D03*
X028948Y005659D03*
X028948Y005688D03*
X028948Y005717D03*
X028948Y005746D03*
X028948Y005775D03*
X029035Y005775D03*
X029035Y005746D03*
X029035Y005717D03*
X029035Y005688D03*
X029035Y005659D03*
X029035Y005630D03*
X029035Y005601D03*
X029760Y005543D03*
X029760Y005514D03*
X029760Y005485D03*
X029760Y005456D03*
X029760Y005427D03*
X029760Y005398D03*
X029760Y005369D03*
X029905Y005369D03*
X029905Y005398D03*
X029905Y005427D03*
X029905Y005456D03*
X029905Y005485D03*
X029905Y005514D03*
X029905Y005543D03*
X029963Y005514D03*
X029963Y005485D03*
X029963Y005456D03*
X029963Y005427D03*
X029963Y005398D03*
X029963Y005369D03*
X030021Y005369D03*
X030021Y005398D03*
X030021Y005427D03*
X030021Y005456D03*
X030021Y005485D03*
X030021Y005514D03*
X030282Y005456D03*
X030282Y005427D03*
X030282Y005398D03*
X030282Y005369D03*
X030746Y005456D03*
X030746Y005485D03*
X030746Y005514D03*
X030746Y005543D03*
X031181Y005398D03*
X031181Y005369D03*
X031268Y005369D03*
X031268Y005398D03*
X031268Y005427D03*
X031268Y005456D03*
X031268Y005485D03*
X031268Y005514D03*
X031529Y005514D03*
X031529Y005485D03*
X031529Y005456D03*
X031529Y005427D03*
X031529Y005398D03*
X031529Y005369D03*
X031529Y005543D03*
X031877Y005804D03*
X031877Y005833D03*
X031877Y005862D03*
X031877Y005891D03*
X031877Y005920D03*
X031877Y005949D03*
X031877Y005978D03*
X032283Y005978D03*
X033124Y005746D03*
X033124Y005717D03*
X033124Y005688D03*
X033124Y005659D03*
X033124Y005630D03*
X033124Y005601D03*
X033124Y005572D03*
X033182Y005572D03*
X033182Y005601D03*
X033182Y005630D03*
X033182Y005659D03*
X033182Y005688D03*
X033182Y005717D03*
X033182Y005746D03*
X033501Y006007D03*
X034226Y006007D03*
X034284Y006036D03*
X034284Y006065D03*
X034284Y006094D03*
X034284Y006123D03*
X034284Y006152D03*
X034284Y006181D03*
X034284Y006210D03*
X034400Y006007D03*
X034748Y006007D03*
X035125Y006210D03*
X035589Y005775D03*
X035908Y006007D03*
X035908Y006036D03*
X035908Y006065D03*
X035908Y006094D03*
X035908Y006123D03*
X035908Y006152D03*
X035995Y006181D03*
X036169Y006181D03*
X036343Y006181D03*
X036024Y006442D03*
X036024Y006471D03*
X036024Y006500D03*
X036024Y006529D03*
X036024Y006558D03*
X036024Y006587D03*
X036024Y006616D03*
X035850Y006413D03*
X035792Y006413D03*
X035792Y006384D03*
X035792Y006355D03*
X035792Y006326D03*
X035792Y006297D03*
X035792Y006268D03*
X036894Y006181D03*
X037068Y006181D03*
X037242Y006181D03*
X037242Y006442D03*
X037242Y006471D03*
X037242Y006500D03*
X037242Y006529D03*
X037242Y006558D03*
X037242Y006587D03*
X037242Y006616D03*
X037474Y006616D03*
X037474Y006587D03*
X037474Y006558D03*
X037474Y006529D03*
X037474Y006500D03*
X037474Y006471D03*
X037474Y006442D03*
X033443Y005079D03*
X030978Y004963D03*
X029847Y004180D03*
X028832Y003919D03*
X026570Y003919D03*
X026396Y003919D03*
X026222Y004122D03*
X025932Y004093D03*
X025932Y004064D03*
X025932Y004035D03*
X025932Y004006D03*
X025932Y003977D03*
X025932Y003948D03*
X025932Y003687D03*
X025990Y003687D03*
X025120Y003948D03*
X025120Y003977D03*
X025120Y004006D03*
X025120Y004035D03*
X025120Y004064D03*
X025120Y004093D03*
X025004Y003861D03*
X025004Y003832D03*
X025004Y003803D03*
X025004Y003774D03*
X025004Y003745D03*
X025004Y003716D03*
X024888Y003716D03*
X024888Y003687D03*
X024888Y003745D03*
X024888Y003774D03*
X024888Y003803D03*
X024888Y003832D03*
X024888Y003861D03*
X024598Y004093D03*
X024424Y004093D03*
X024221Y004122D03*
X024221Y004151D03*
X024221Y004180D03*
X024221Y004209D03*
X024221Y004238D03*
X024221Y004267D03*
X024250Y004354D03*
X024250Y004383D03*
X024250Y004412D03*
X024250Y004441D03*
X024250Y004470D03*
X024250Y004499D03*
X024250Y004528D03*
X024018Y004267D03*
X024018Y004238D03*
X024018Y004209D03*
X024018Y004180D03*
X024018Y004151D03*
X024018Y004122D03*
X023351Y004325D03*
X023351Y004354D03*
X023351Y004383D03*
X023351Y004412D03*
X023351Y004441D03*
X023351Y004470D03*
X023351Y004499D03*
X023090Y004644D03*
X023090Y004673D03*
X023090Y004702D03*
X023090Y004731D03*
X023032Y004731D03*
X023032Y004702D03*
X023032Y004673D03*
X023032Y004644D03*
X022974Y004644D03*
X022974Y004615D03*
X022974Y004586D03*
X022974Y004557D03*
X022974Y004673D03*
X022974Y004702D03*
X022974Y004731D03*
X026831Y006210D03*
D13*
X027585Y006181D03*
X027730Y006413D03*
X028571Y005108D03*
X028890Y004905D03*
X029702Y004238D03*
X029702Y004209D03*
X030050Y004238D03*
X030050Y004267D03*
X030079Y004499D03*
X030804Y005253D03*
X030804Y005282D03*
X030804Y005311D03*
X030804Y005340D03*
X030804Y005369D03*
X030862Y005485D03*
X031877Y003948D03*
X033472Y003745D03*
X033472Y003716D03*
X033559Y004064D03*
X033559Y004093D03*
X033559Y004122D03*
X033588Y004180D03*
X033588Y004209D03*
X034342Y004789D03*
X034371Y004760D03*
X033298Y005514D03*
X033298Y005543D03*
X033327Y005659D03*
X033385Y006036D03*
X033907Y006036D03*
X033907Y006065D03*
X033907Y006094D03*
X033907Y006123D03*
X033907Y006152D03*
X033907Y006181D03*
X033472Y009966D03*
X033472Y009995D03*
X033559Y010314D03*
X033559Y010343D03*
X033559Y010372D03*
X033588Y010430D03*
X033588Y010459D03*
X034342Y011039D03*
X034371Y011010D03*
X033298Y011764D03*
X033298Y011793D03*
X033327Y011909D03*
X033385Y012286D03*
X033907Y012286D03*
X033907Y012315D03*
X033907Y012344D03*
X033907Y012373D03*
X033907Y012402D03*
X033907Y012431D03*
X031877Y010198D03*
X030804Y011503D03*
X030804Y011532D03*
X030804Y011561D03*
X030804Y011590D03*
X030804Y011619D03*
X030862Y011735D03*
X030079Y010749D03*
X030050Y010517D03*
X030050Y010488D03*
X029702Y010488D03*
X029702Y010459D03*
X028890Y011155D03*
X028571Y011358D03*
X027585Y012431D03*
X027730Y012663D03*
X028774Y015056D03*
X028803Y015114D03*
X028832Y015201D03*
X028832Y015230D03*
X028861Y015288D03*
X028861Y015317D03*
X028890Y015346D03*
X028890Y015375D03*
X028774Y015810D03*
X028774Y015839D03*
X028774Y015868D03*
X028774Y015897D03*
X029064Y015868D03*
X029702Y016709D03*
X029702Y016738D03*
X030050Y016738D03*
X030050Y016767D03*
X030079Y016999D03*
X030804Y017753D03*
X030804Y017782D03*
X030804Y017811D03*
X030804Y017840D03*
X030804Y017869D03*
X030862Y017985D03*
X031877Y016448D03*
X033472Y016245D03*
X033472Y016216D03*
X033559Y016564D03*
X033559Y016593D03*
X033559Y016622D03*
X033588Y016680D03*
X033588Y016709D03*
X034342Y017289D03*
X034371Y017260D03*
X033298Y018014D03*
X033298Y018043D03*
X033327Y018159D03*
X033385Y018536D03*
X033907Y018536D03*
X033907Y018565D03*
X033907Y018594D03*
X033907Y018623D03*
X033907Y018652D03*
X033907Y018681D03*
X033472Y022466D03*
X033472Y022495D03*
X033559Y022814D03*
X033559Y022843D03*
X033559Y022872D03*
X033588Y022930D03*
X033588Y022959D03*
X034342Y023539D03*
X034371Y023510D03*
X033298Y024264D03*
X033298Y024293D03*
X033327Y024409D03*
X033385Y024786D03*
X033907Y024786D03*
X033907Y024815D03*
X033907Y024844D03*
X033907Y024873D03*
X033907Y024902D03*
X033907Y024931D03*
X031877Y022698D03*
X030804Y024003D03*
X030804Y024032D03*
X030804Y024061D03*
X030804Y024090D03*
X030804Y024119D03*
X030862Y024235D03*
X030079Y023249D03*
X030050Y023017D03*
X030050Y022988D03*
X029702Y022988D03*
X029702Y022959D03*
X029064Y022118D03*
X028774Y022118D03*
X028774Y022089D03*
X028774Y022060D03*
X028774Y022147D03*
X028890Y021625D03*
X028890Y021596D03*
X028861Y021567D03*
X028861Y021538D03*
X028832Y021480D03*
X028832Y021451D03*
X028803Y021364D03*
X028774Y021306D03*
X028890Y023655D03*
X028571Y023858D03*
X027585Y024931D03*
X027730Y025163D03*
X028774Y027556D03*
X028803Y027614D03*
X028832Y027701D03*
X028832Y027730D03*
X028861Y027788D03*
X028861Y027817D03*
X028890Y027846D03*
X028890Y027875D03*
X028774Y028310D03*
X028774Y028339D03*
X028774Y028368D03*
X028774Y028397D03*
X029064Y028368D03*
X029702Y029209D03*
X029702Y029238D03*
X030050Y029238D03*
X030050Y029267D03*
X030079Y029499D03*
X030804Y030253D03*
X030804Y030282D03*
X030804Y030311D03*
X030804Y030340D03*
X030804Y030369D03*
X030862Y030485D03*
X031877Y028948D03*
X033472Y028745D03*
X033472Y028716D03*
X033559Y029064D03*
X033559Y029093D03*
X033559Y029122D03*
X033588Y029180D03*
X033588Y029209D03*
X034342Y029789D03*
X034371Y029760D03*
X033298Y030514D03*
X033298Y030543D03*
X033327Y030659D03*
X033385Y031036D03*
X033907Y031036D03*
X033907Y031065D03*
X033907Y031094D03*
X033907Y031123D03*
X033907Y031152D03*
X033907Y031181D03*
X028890Y029905D03*
X028571Y030108D03*
X027585Y031181D03*
X027730Y031413D03*
X022829Y029731D03*
X022829Y029702D03*
X022829Y029673D03*
X022829Y029644D03*
X022829Y029615D03*
X022829Y029586D03*
X022829Y029557D03*
X022829Y023481D03*
X022829Y023452D03*
X022829Y023423D03*
X022829Y023394D03*
X022829Y023365D03*
X022829Y023336D03*
X022829Y023307D03*
X027730Y018913D03*
X027585Y018681D03*
X028571Y017608D03*
X028890Y017405D03*
X022829Y017231D03*
X022829Y017202D03*
X022829Y017173D03*
X022829Y017144D03*
X022829Y017115D03*
X022829Y017086D03*
X022829Y017057D03*
X022829Y010981D03*
X022829Y010952D03*
X022829Y010923D03*
X022829Y010894D03*
X022829Y010865D03*
X022829Y010836D03*
X022829Y010807D03*
X028774Y009647D03*
X028774Y009618D03*
X028774Y009589D03*
X028774Y009560D03*
X029064Y009618D03*
X028890Y009125D03*
X028890Y009096D03*
X028861Y009067D03*
X028861Y009038D03*
X028832Y008980D03*
X028832Y008951D03*
X028803Y008864D03*
X028774Y008806D03*
X022829Y004731D03*
X022829Y004702D03*
X022829Y004673D03*
X022829Y004644D03*
X022829Y004615D03*
X022829Y004586D03*
X022829Y004557D03*
X028774Y003397D03*
X028774Y003368D03*
X028774Y003339D03*
X028774Y003310D03*
X029064Y003368D03*
X028890Y002875D03*
X028890Y002846D03*
X028861Y002817D03*
X028861Y002788D03*
X028832Y002730D03*
X028832Y002701D03*
X028803Y002614D03*
X028774Y002556D03*
D14*
X028673Y002411D03*
X028644Y002295D03*
X028644Y002266D03*
X028644Y002237D03*
X028615Y002121D03*
X028615Y002092D03*
X028615Y002063D03*
X028615Y002034D03*
X028615Y002005D03*
X028615Y001976D03*
X028615Y001947D03*
X028615Y001918D03*
X028615Y001889D03*
X028615Y001860D03*
X028818Y001860D03*
X028818Y001889D03*
X028818Y001918D03*
X028818Y001947D03*
X028818Y001976D03*
X028818Y002005D03*
X028818Y002034D03*
X028818Y002063D03*
X028818Y002092D03*
X028818Y002121D03*
X028818Y002382D03*
X028934Y004673D03*
X028934Y004702D03*
X028905Y004731D03*
X028905Y004760D03*
X028905Y004789D03*
X028905Y004818D03*
X028905Y004847D03*
X028905Y004876D03*
X028876Y004934D03*
X028876Y004963D03*
X028876Y004992D03*
X028876Y005021D03*
X028876Y005050D03*
X028876Y005079D03*
X028876Y005108D03*
X028876Y005137D03*
X029398Y005601D03*
X029398Y005630D03*
X029398Y005659D03*
X029398Y005688D03*
X029398Y005717D03*
X029398Y005746D03*
X029398Y005775D03*
X029630Y005543D03*
X029630Y005514D03*
X029630Y005485D03*
X029630Y005456D03*
X029630Y005427D03*
X029630Y005398D03*
X029630Y005369D03*
X030094Y005601D03*
X030094Y005630D03*
X030848Y005456D03*
X033371Y006007D03*
X033400Y006065D03*
X033458Y006239D03*
X033487Y006268D03*
X033487Y006297D03*
X033516Y006355D03*
X033516Y005485D03*
X033893Y005311D03*
X033864Y005253D03*
X033864Y005224D03*
X033835Y005195D03*
X033951Y005427D03*
X033980Y005485D03*
X034009Y005514D03*
X034386Y004731D03*
X034415Y004702D03*
X034415Y004673D03*
X034415Y004644D03*
X034444Y004615D03*
X034444Y004586D03*
X033574Y004151D03*
X035691Y005775D03*
X035604Y006007D03*
X035517Y006239D03*
X035517Y006268D03*
X035517Y006297D03*
X035517Y006326D03*
X035517Y006355D03*
X035517Y006384D03*
X033574Y010401D03*
X034444Y010836D03*
X034444Y010865D03*
X034415Y010894D03*
X034415Y010923D03*
X034415Y010952D03*
X034386Y010981D03*
X033864Y011474D03*
X033864Y011503D03*
X033835Y011445D03*
X033893Y011561D03*
X033951Y011677D03*
X033980Y011735D03*
X034009Y011764D03*
X033516Y011735D03*
X033371Y012257D03*
X033400Y012315D03*
X033458Y012489D03*
X033487Y012518D03*
X033487Y012547D03*
X033516Y012605D03*
X035517Y012605D03*
X035517Y012576D03*
X035517Y012547D03*
X035517Y012518D03*
X035517Y012489D03*
X035517Y012634D03*
X035604Y012257D03*
X035691Y012025D03*
X030848Y011706D03*
X030094Y011851D03*
X030094Y011880D03*
X029630Y011793D03*
X029630Y011764D03*
X029630Y011735D03*
X029630Y011706D03*
X029630Y011677D03*
X029630Y011648D03*
X029630Y011619D03*
X029398Y011851D03*
X029398Y011880D03*
X029398Y011909D03*
X029398Y011938D03*
X029398Y011967D03*
X029398Y011996D03*
X029398Y012025D03*
X028876Y011387D03*
X028876Y011358D03*
X028876Y011329D03*
X028876Y011300D03*
X028876Y011271D03*
X028876Y011242D03*
X028876Y011213D03*
X028876Y011184D03*
X028905Y011126D03*
X028905Y011097D03*
X028905Y011068D03*
X028905Y011039D03*
X028905Y011010D03*
X028905Y010981D03*
X028934Y010952D03*
X028934Y010923D03*
X026817Y011619D03*
X026846Y011822D03*
X026846Y011851D03*
X026846Y011880D03*
X026846Y011909D03*
X026846Y011938D03*
X026846Y011967D03*
X026846Y011996D03*
X026846Y012025D03*
X026846Y012054D03*
X026846Y012083D03*
X026846Y012112D03*
X026846Y012141D03*
X026846Y012170D03*
X026846Y012199D03*
X027890Y012663D03*
X028615Y014360D03*
X028615Y014389D03*
X028615Y014418D03*
X028615Y014447D03*
X028615Y014476D03*
X028615Y014505D03*
X028615Y014534D03*
X028615Y014563D03*
X028615Y014592D03*
X028615Y014621D03*
X028644Y014737D03*
X028644Y014766D03*
X028644Y014795D03*
X028673Y014911D03*
X028818Y014882D03*
X028818Y014621D03*
X028818Y014592D03*
X028818Y014563D03*
X028818Y014534D03*
X028818Y014505D03*
X028818Y014476D03*
X028818Y014447D03*
X028818Y014418D03*
X028818Y014389D03*
X028818Y014360D03*
X026034Y016622D03*
X026817Y017869D03*
X026846Y018072D03*
X026846Y018101D03*
X026846Y018130D03*
X026846Y018159D03*
X026846Y018188D03*
X026846Y018217D03*
X026846Y018246D03*
X026846Y018275D03*
X026846Y018304D03*
X026846Y018333D03*
X026846Y018362D03*
X026846Y018391D03*
X026846Y018420D03*
X026846Y018449D03*
X027890Y018913D03*
X028876Y017637D03*
X028876Y017608D03*
X028876Y017579D03*
X028876Y017550D03*
X028876Y017521D03*
X028876Y017492D03*
X028876Y017463D03*
X028876Y017434D03*
X028905Y017376D03*
X028905Y017347D03*
X028905Y017318D03*
X028905Y017289D03*
X028905Y017260D03*
X028905Y017231D03*
X028934Y017202D03*
X028934Y017173D03*
X029630Y017869D03*
X029630Y017898D03*
X029630Y017927D03*
X029630Y017956D03*
X029630Y017985D03*
X029630Y018014D03*
X029630Y018043D03*
X029398Y018101D03*
X029398Y018130D03*
X029398Y018159D03*
X029398Y018188D03*
X029398Y018217D03*
X029398Y018246D03*
X029398Y018275D03*
X030094Y018130D03*
X030094Y018101D03*
X030848Y017956D03*
X033371Y018507D03*
X033400Y018565D03*
X033458Y018739D03*
X033487Y018768D03*
X033487Y018797D03*
X033516Y018855D03*
X033516Y017985D03*
X033893Y017811D03*
X033864Y017753D03*
X033864Y017724D03*
X033835Y017695D03*
X033951Y017927D03*
X033980Y017985D03*
X034009Y018014D03*
X034386Y017231D03*
X034415Y017202D03*
X034415Y017173D03*
X034415Y017144D03*
X034444Y017115D03*
X034444Y017086D03*
X033574Y016651D03*
X035691Y018275D03*
X035604Y018507D03*
X035517Y018739D03*
X035517Y018768D03*
X035517Y018797D03*
X035517Y018826D03*
X035517Y018855D03*
X035517Y018884D03*
X033574Y022901D03*
X034444Y023336D03*
X034444Y023365D03*
X034415Y023394D03*
X034415Y023423D03*
X034415Y023452D03*
X034386Y023481D03*
X033835Y023945D03*
X033864Y023974D03*
X033864Y024003D03*
X033893Y024061D03*
X033951Y024177D03*
X033980Y024235D03*
X034009Y024264D03*
X033516Y024235D03*
X033371Y024757D03*
X033400Y024815D03*
X033458Y024989D03*
X033487Y025018D03*
X033487Y025047D03*
X033516Y025105D03*
X035517Y025105D03*
X035517Y025076D03*
X035517Y025047D03*
X035517Y025018D03*
X035517Y024989D03*
X035517Y025134D03*
X035604Y024757D03*
X035691Y024525D03*
X030848Y024206D03*
X030094Y024351D03*
X030094Y024380D03*
X029630Y024293D03*
X029630Y024264D03*
X029630Y024235D03*
X029630Y024206D03*
X029630Y024177D03*
X029630Y024148D03*
X029630Y024119D03*
X029398Y024351D03*
X029398Y024380D03*
X029398Y024409D03*
X029398Y024438D03*
X029398Y024467D03*
X029398Y024496D03*
X029398Y024525D03*
X028876Y023887D03*
X028876Y023858D03*
X028876Y023829D03*
X028876Y023800D03*
X028876Y023771D03*
X028876Y023742D03*
X028876Y023713D03*
X028876Y023684D03*
X028905Y023626D03*
X028905Y023597D03*
X028905Y023568D03*
X028905Y023539D03*
X028905Y023510D03*
X028905Y023481D03*
X028934Y023452D03*
X028934Y023423D03*
X027890Y025163D03*
X026846Y024699D03*
X026846Y024670D03*
X026846Y024641D03*
X026846Y024612D03*
X026846Y024583D03*
X026846Y024554D03*
X026846Y024525D03*
X026846Y024496D03*
X026846Y024467D03*
X026846Y024438D03*
X026846Y024409D03*
X026846Y024380D03*
X026846Y024351D03*
X026846Y024322D03*
X026817Y024119D03*
X026034Y022872D03*
X028673Y021161D03*
X028644Y021045D03*
X028644Y021016D03*
X028644Y020987D03*
X028615Y020871D03*
X028615Y020842D03*
X028615Y020813D03*
X028615Y020784D03*
X028615Y020755D03*
X028615Y020726D03*
X028615Y020697D03*
X028615Y020668D03*
X028615Y020639D03*
X028615Y020610D03*
X028818Y020610D03*
X028818Y020639D03*
X028818Y020668D03*
X028818Y020697D03*
X028818Y020726D03*
X028818Y020755D03*
X028818Y020784D03*
X028818Y020813D03*
X028818Y020842D03*
X028818Y020871D03*
X028818Y021132D03*
X022525Y023307D03*
X022525Y023336D03*
X022525Y023365D03*
X028615Y026860D03*
X028615Y026889D03*
X028615Y026918D03*
X028615Y026947D03*
X028615Y026976D03*
X028615Y027005D03*
X028615Y027034D03*
X028615Y027063D03*
X028615Y027092D03*
X028615Y027121D03*
X028644Y027237D03*
X028644Y027266D03*
X028644Y027295D03*
X028673Y027411D03*
X028818Y027382D03*
X028818Y027121D03*
X028818Y027092D03*
X028818Y027063D03*
X028818Y027034D03*
X028818Y027005D03*
X028818Y026976D03*
X028818Y026947D03*
X028818Y026918D03*
X028818Y026889D03*
X028818Y026860D03*
X026034Y029122D03*
X026817Y030369D03*
X026846Y030572D03*
X026846Y030601D03*
X026846Y030630D03*
X026846Y030659D03*
X026846Y030688D03*
X026846Y030717D03*
X026846Y030746D03*
X026846Y030775D03*
X026846Y030804D03*
X026846Y030833D03*
X026846Y030862D03*
X026846Y030891D03*
X026846Y030920D03*
X026846Y030949D03*
X027890Y031413D03*
X028876Y030137D03*
X028876Y030108D03*
X028876Y030079D03*
X028876Y030050D03*
X028876Y030021D03*
X028876Y029992D03*
X028876Y029963D03*
X028876Y029934D03*
X028905Y029876D03*
X028905Y029847D03*
X028905Y029818D03*
X028905Y029789D03*
X028905Y029760D03*
X028905Y029731D03*
X028934Y029702D03*
X028934Y029673D03*
X029630Y030369D03*
X029630Y030398D03*
X029630Y030427D03*
X029630Y030456D03*
X029630Y030485D03*
X029630Y030514D03*
X029630Y030543D03*
X029398Y030601D03*
X029398Y030630D03*
X029398Y030659D03*
X029398Y030688D03*
X029398Y030717D03*
X029398Y030746D03*
X029398Y030775D03*
X030094Y030630D03*
X030094Y030601D03*
X030848Y030456D03*
X033371Y031007D03*
X033400Y031065D03*
X033458Y031239D03*
X033487Y031268D03*
X033487Y031297D03*
X033516Y031355D03*
X033516Y030485D03*
X033893Y030311D03*
X033864Y030253D03*
X033864Y030224D03*
X033835Y030195D03*
X033951Y030427D03*
X033980Y030485D03*
X034009Y030514D03*
X034386Y029731D03*
X034415Y029702D03*
X034415Y029673D03*
X034415Y029644D03*
X034444Y029615D03*
X034444Y029586D03*
X033574Y029151D03*
X035691Y030775D03*
X035604Y031007D03*
X035517Y031239D03*
X035517Y031268D03*
X035517Y031297D03*
X035517Y031326D03*
X035517Y031355D03*
X035517Y031384D03*
X022525Y029615D03*
X022525Y029586D03*
X022525Y029557D03*
X022525Y017115D03*
X022525Y017086D03*
X022525Y017057D03*
X022525Y010865D03*
X022525Y010836D03*
X022525Y010807D03*
X026034Y010372D03*
X028673Y008661D03*
X028644Y008545D03*
X028644Y008516D03*
X028644Y008487D03*
X028615Y008371D03*
X028615Y008342D03*
X028615Y008313D03*
X028615Y008284D03*
X028615Y008255D03*
X028615Y008226D03*
X028615Y008197D03*
X028615Y008168D03*
X028615Y008139D03*
X028615Y008110D03*
X028818Y008110D03*
X028818Y008139D03*
X028818Y008168D03*
X028818Y008197D03*
X028818Y008226D03*
X028818Y008255D03*
X028818Y008284D03*
X028818Y008313D03*
X028818Y008342D03*
X028818Y008371D03*
X028818Y008632D03*
X027890Y006413D03*
X026846Y005949D03*
X026846Y005920D03*
X026846Y005891D03*
X026846Y005862D03*
X026846Y005833D03*
X026846Y005804D03*
X026846Y005775D03*
X026846Y005746D03*
X026846Y005717D03*
X026846Y005688D03*
X026846Y005659D03*
X026846Y005630D03*
X026846Y005601D03*
X026846Y005572D03*
X026817Y005369D03*
X026034Y004122D03*
X022525Y004557D03*
X022525Y004586D03*
X022525Y004615D03*
D15*
X024033Y004296D03*
X024236Y004296D03*
X025019Y004122D03*
X025483Y004122D03*
X025570Y004122D03*
X025628Y003861D03*
X025628Y003832D03*
X025628Y003803D03*
X025628Y003774D03*
X025628Y003745D03*
X025628Y003716D03*
X026150Y004122D03*
X026788Y004122D03*
X026788Y004093D03*
X026788Y004064D03*
X026788Y004035D03*
X026788Y004006D03*
X026788Y003977D03*
X026788Y003948D03*
X026788Y004151D03*
X026788Y004180D03*
X026788Y004209D03*
X026788Y004238D03*
X026788Y004267D03*
X026788Y004296D03*
X026788Y004325D03*
X026788Y004354D03*
X026788Y004383D03*
X026788Y004412D03*
X026788Y004441D03*
X026788Y004470D03*
X026788Y004499D03*
X026788Y004528D03*
X026788Y004557D03*
X026788Y004586D03*
X026788Y004615D03*
X026788Y004644D03*
X026788Y004673D03*
X026788Y004702D03*
X026788Y004731D03*
X026788Y004760D03*
X026788Y004789D03*
X026788Y004818D03*
X026788Y004847D03*
X026788Y004876D03*
X026788Y004905D03*
X026788Y004934D03*
X026788Y004963D03*
X026788Y004992D03*
X026788Y005021D03*
X026788Y005050D03*
X026788Y005079D03*
X026788Y005108D03*
X026788Y005137D03*
X026788Y005166D03*
X026788Y005195D03*
X026788Y005224D03*
X026788Y005253D03*
X026788Y005282D03*
X026788Y005311D03*
X026788Y005340D03*
X026846Y006152D03*
X026846Y006181D03*
X027455Y005978D03*
X028151Y005775D03*
X028151Y005746D03*
X028151Y005717D03*
X028151Y005688D03*
X028151Y005659D03*
X028151Y005630D03*
X028151Y005601D03*
X029485Y005514D03*
X029485Y005485D03*
X029485Y005456D03*
X029485Y005427D03*
X029485Y005398D03*
X029485Y005369D03*
X030036Y004441D03*
X031283Y005543D03*
X032298Y005804D03*
X032298Y005833D03*
X032298Y005862D03*
X032298Y005891D03*
X032298Y005920D03*
X032298Y005949D03*
X033545Y005514D03*
X033603Y006210D03*
X033545Y006413D03*
X034299Y006007D03*
X035778Y006036D03*
X035778Y006065D03*
X035923Y006181D03*
X035865Y006384D03*
X036706Y006181D03*
X033545Y011764D03*
X033603Y012460D03*
X033545Y012663D03*
X034299Y012257D03*
X035778Y012286D03*
X035778Y012315D03*
X035923Y012431D03*
X035865Y012634D03*
X036706Y012431D03*
X032298Y012199D03*
X032298Y012170D03*
X032298Y012141D03*
X032298Y012112D03*
X032298Y012083D03*
X032298Y012054D03*
X031283Y011793D03*
X030036Y010691D03*
X029485Y011619D03*
X029485Y011648D03*
X029485Y011677D03*
X029485Y011706D03*
X029485Y011735D03*
X029485Y011764D03*
X028151Y011851D03*
X028151Y011880D03*
X028151Y011909D03*
X028151Y011938D03*
X028151Y011967D03*
X028151Y011996D03*
X028151Y012025D03*
X027455Y012228D03*
X026846Y012402D03*
X026846Y012431D03*
X026788Y011590D03*
X026788Y011561D03*
X026788Y011532D03*
X026788Y011503D03*
X026788Y011474D03*
X026788Y011445D03*
X026788Y011416D03*
X026788Y011387D03*
X026788Y011358D03*
X026788Y011329D03*
X026788Y011300D03*
X026788Y011271D03*
X026788Y011242D03*
X026788Y011213D03*
X026788Y011184D03*
X026788Y011155D03*
X026788Y011126D03*
X026788Y011097D03*
X026788Y011068D03*
X026788Y011039D03*
X026788Y011010D03*
X026788Y010981D03*
X026788Y010952D03*
X026788Y010923D03*
X026788Y010894D03*
X026788Y010865D03*
X026788Y010836D03*
X026788Y010807D03*
X026788Y010778D03*
X026788Y010749D03*
X026788Y010720D03*
X026788Y010691D03*
X026788Y010662D03*
X026788Y010633D03*
X026788Y010604D03*
X026788Y010575D03*
X026788Y010546D03*
X026788Y010517D03*
X026788Y010488D03*
X026788Y010459D03*
X026788Y010430D03*
X026788Y010401D03*
X026788Y010372D03*
X026788Y010343D03*
X026788Y010314D03*
X026788Y010285D03*
X026788Y010256D03*
X026788Y010227D03*
X026788Y010198D03*
X026150Y010372D03*
X025570Y010372D03*
X025483Y010372D03*
X025628Y010111D03*
X025628Y010082D03*
X025628Y010053D03*
X025628Y010024D03*
X025628Y009995D03*
X025628Y009966D03*
X025019Y010372D03*
X024236Y010546D03*
X024033Y010546D03*
X028528Y007762D03*
X028586Y007907D03*
X028818Y007907D03*
X028818Y007965D03*
X028818Y007994D03*
X028818Y008023D03*
X028818Y008052D03*
X028789Y007791D03*
X028789Y007762D03*
X028789Y007733D03*
X028818Y001802D03*
X028818Y001773D03*
X028818Y001744D03*
X028818Y001715D03*
X028818Y001657D03*
X028789Y001541D03*
X028789Y001512D03*
X028789Y001483D03*
X028528Y001512D03*
X028586Y001657D03*
X028789Y013983D03*
X028789Y014012D03*
X028789Y014041D03*
X028818Y014157D03*
X028818Y014215D03*
X028818Y014244D03*
X028818Y014273D03*
X028818Y014302D03*
X028586Y014157D03*
X028528Y014012D03*
X026788Y016448D03*
X026788Y016477D03*
X026788Y016506D03*
X026788Y016535D03*
X026788Y016564D03*
X026788Y016593D03*
X026788Y016622D03*
X026788Y016651D03*
X026788Y016680D03*
X026788Y016709D03*
X026788Y016738D03*
X026788Y016767D03*
X026788Y016796D03*
X026788Y016825D03*
X026788Y016854D03*
X026788Y016883D03*
X026788Y016912D03*
X026788Y016941D03*
X026788Y016970D03*
X026788Y016999D03*
X026788Y017028D03*
X026788Y017057D03*
X026788Y017086D03*
X026788Y017115D03*
X026788Y017144D03*
X026788Y017173D03*
X026788Y017202D03*
X026788Y017231D03*
X026788Y017260D03*
X026788Y017289D03*
X026788Y017318D03*
X026788Y017347D03*
X026788Y017376D03*
X026788Y017405D03*
X026788Y017434D03*
X026788Y017463D03*
X026788Y017492D03*
X026788Y017521D03*
X026788Y017550D03*
X026788Y017579D03*
X026788Y017608D03*
X026788Y017637D03*
X026788Y017666D03*
X026788Y017695D03*
X026788Y017724D03*
X026788Y017753D03*
X026788Y017782D03*
X026788Y017811D03*
X026788Y017840D03*
X027455Y018478D03*
X028151Y018275D03*
X028151Y018246D03*
X028151Y018217D03*
X028151Y018188D03*
X028151Y018159D03*
X028151Y018130D03*
X028151Y018101D03*
X026846Y018652D03*
X026846Y018681D03*
X028528Y020262D03*
X028586Y020407D03*
X028818Y020407D03*
X028818Y020465D03*
X028818Y020494D03*
X028818Y020523D03*
X028818Y020552D03*
X028789Y020291D03*
X028789Y020262D03*
X028789Y020233D03*
X029485Y018014D03*
X029485Y017985D03*
X029485Y017956D03*
X029485Y017927D03*
X029485Y017898D03*
X029485Y017869D03*
X030036Y016941D03*
X031283Y018043D03*
X032298Y018304D03*
X032298Y018333D03*
X032298Y018362D03*
X032298Y018391D03*
X032298Y018420D03*
X032298Y018449D03*
X033545Y018014D03*
X033603Y018710D03*
X033545Y018913D03*
X034299Y018507D03*
X035778Y018536D03*
X035778Y018565D03*
X035923Y018681D03*
X035865Y018884D03*
X036706Y018681D03*
X033545Y024264D03*
X034299Y024757D03*
X033603Y024960D03*
X033545Y025163D03*
X032298Y024699D03*
X032298Y024670D03*
X032298Y024641D03*
X032298Y024612D03*
X032298Y024583D03*
X032298Y024554D03*
X031283Y024293D03*
X030036Y023191D03*
X029485Y024119D03*
X029485Y024148D03*
X029485Y024177D03*
X029485Y024206D03*
X029485Y024235D03*
X029485Y024264D03*
X028151Y024351D03*
X028151Y024380D03*
X028151Y024409D03*
X028151Y024438D03*
X028151Y024467D03*
X028151Y024496D03*
X028151Y024525D03*
X027455Y024728D03*
X026846Y024902D03*
X026846Y024931D03*
X026788Y024090D03*
X026788Y024061D03*
X026788Y024032D03*
X026788Y024003D03*
X026788Y023974D03*
X026788Y023945D03*
X026788Y023916D03*
X026788Y023887D03*
X026788Y023858D03*
X026788Y023829D03*
X026788Y023800D03*
X026788Y023771D03*
X026788Y023742D03*
X026788Y023713D03*
X026788Y023684D03*
X026788Y023655D03*
X026788Y023626D03*
X026788Y023597D03*
X026788Y023568D03*
X026788Y023539D03*
X026788Y023510D03*
X026788Y023481D03*
X026788Y023452D03*
X026788Y023423D03*
X026788Y023394D03*
X026788Y023365D03*
X026788Y023336D03*
X026788Y023307D03*
X026788Y023278D03*
X026788Y023249D03*
X026788Y023220D03*
X026788Y023191D03*
X026788Y023162D03*
X026788Y023133D03*
X026788Y023104D03*
X026788Y023075D03*
X026788Y023046D03*
X026788Y023017D03*
X026788Y022988D03*
X026788Y022959D03*
X026788Y022930D03*
X026788Y022901D03*
X026788Y022872D03*
X026788Y022843D03*
X026788Y022814D03*
X026788Y022785D03*
X026788Y022756D03*
X026788Y022727D03*
X026788Y022698D03*
X026150Y022872D03*
X025570Y022872D03*
X025483Y022872D03*
X025628Y022611D03*
X025628Y022582D03*
X025628Y022553D03*
X025628Y022524D03*
X025628Y022495D03*
X025628Y022466D03*
X025019Y022872D03*
X024236Y023046D03*
X024033Y023046D03*
X028528Y026512D03*
X028586Y026657D03*
X028818Y026657D03*
X028818Y026715D03*
X028818Y026744D03*
X028818Y026773D03*
X028818Y026802D03*
X028789Y026541D03*
X028789Y026512D03*
X028789Y026483D03*
X026788Y028948D03*
X026788Y028977D03*
X026788Y029006D03*
X026788Y029035D03*
X026788Y029064D03*
X026788Y029093D03*
X026788Y029122D03*
X026788Y029151D03*
X026788Y029180D03*
X026788Y029209D03*
X026788Y029238D03*
X026788Y029267D03*
X026788Y029296D03*
X026788Y029325D03*
X026788Y029354D03*
X026788Y029383D03*
X026788Y029412D03*
X026788Y029441D03*
X026788Y029470D03*
X026788Y029499D03*
X026788Y029528D03*
X026788Y029557D03*
X026788Y029586D03*
X026788Y029615D03*
X026788Y029644D03*
X026788Y029673D03*
X026788Y029702D03*
X026788Y029731D03*
X026788Y029760D03*
X026788Y029789D03*
X026788Y029818D03*
X026788Y029847D03*
X026788Y029876D03*
X026788Y029905D03*
X026788Y029934D03*
X026788Y029963D03*
X026788Y029992D03*
X026788Y030021D03*
X026788Y030050D03*
X026788Y030079D03*
X026788Y030108D03*
X026788Y030137D03*
X026788Y030166D03*
X026788Y030195D03*
X026788Y030224D03*
X026788Y030253D03*
X026788Y030282D03*
X026788Y030311D03*
X026788Y030340D03*
X026846Y031152D03*
X026846Y031181D03*
X027455Y030978D03*
X028151Y030775D03*
X028151Y030746D03*
X028151Y030717D03*
X028151Y030688D03*
X028151Y030659D03*
X028151Y030630D03*
X028151Y030601D03*
X029485Y030514D03*
X029485Y030485D03*
X029485Y030456D03*
X029485Y030427D03*
X029485Y030398D03*
X029485Y030369D03*
X030036Y029441D03*
X031283Y030543D03*
X032298Y030804D03*
X032298Y030833D03*
X032298Y030862D03*
X032298Y030891D03*
X032298Y030920D03*
X032298Y030949D03*
X033545Y030514D03*
X033603Y031210D03*
X033545Y031413D03*
X034299Y031007D03*
X035778Y031036D03*
X035778Y031065D03*
X035923Y031181D03*
X035865Y031384D03*
X036706Y031181D03*
X035865Y025134D03*
X035923Y024931D03*
X035778Y024815D03*
X035778Y024786D03*
X036706Y024931D03*
X026150Y029122D03*
X025570Y029122D03*
X025483Y029122D03*
X025628Y028861D03*
X025628Y028832D03*
X025628Y028803D03*
X025628Y028774D03*
X025628Y028745D03*
X025628Y028716D03*
X025019Y029122D03*
X024236Y029296D03*
X024033Y029296D03*
X024033Y016796D03*
X024236Y016796D03*
X025019Y016622D03*
X025483Y016622D03*
X025570Y016622D03*
X025628Y016361D03*
X025628Y016332D03*
X025628Y016303D03*
X025628Y016274D03*
X025628Y016245D03*
X025628Y016216D03*
X026150Y016622D03*
D16*
X025961Y016361D03*
X025961Y016332D03*
X025961Y016303D03*
X025961Y016274D03*
X025961Y016245D03*
X025961Y016216D03*
X026773Y016419D03*
X026831Y017898D03*
X026831Y017927D03*
X026831Y017956D03*
X026831Y017985D03*
X026831Y018014D03*
X026831Y018043D03*
X028107Y018478D03*
X028107Y018507D03*
X028107Y018536D03*
X028107Y018565D03*
X028107Y018594D03*
X028107Y018623D03*
X028107Y018652D03*
X028513Y020233D03*
X028542Y020291D03*
X028571Y020349D03*
X028571Y020378D03*
X028600Y020436D03*
X028600Y020465D03*
X028600Y020494D03*
X028600Y020523D03*
X028600Y020552D03*
X028600Y020581D03*
X028803Y020581D03*
X028832Y020436D03*
X028803Y020378D03*
X028803Y020349D03*
X028803Y020320D03*
X028803Y020900D03*
X028803Y020929D03*
X028803Y020958D03*
X028803Y020987D03*
X028803Y021016D03*
X028803Y021045D03*
X028803Y021074D03*
X028803Y021103D03*
X028803Y021161D03*
X028803Y021190D03*
X028687Y021190D03*
X028658Y021132D03*
X028658Y021103D03*
X028658Y021074D03*
X028832Y022640D03*
X030021Y023104D03*
X030021Y023133D03*
X030021Y023162D03*
X030050Y023220D03*
X029992Y024293D03*
X030108Y024409D03*
X030108Y024438D03*
X030108Y024467D03*
X030108Y024496D03*
X030108Y024525D03*
X028107Y024728D03*
X028107Y024757D03*
X028107Y024786D03*
X028107Y024815D03*
X028107Y024844D03*
X028107Y024873D03*
X028107Y024902D03*
X026831Y024293D03*
X026831Y024264D03*
X026831Y024235D03*
X026831Y024206D03*
X026831Y024177D03*
X026831Y024148D03*
X026773Y022669D03*
X025961Y022611D03*
X025961Y022582D03*
X025961Y022553D03*
X025961Y022524D03*
X025961Y022495D03*
X025961Y022466D03*
X023438Y023307D03*
X023438Y023336D03*
X023438Y023365D03*
X023438Y023394D03*
X023438Y023423D03*
X023438Y023452D03*
X023438Y023481D03*
X023061Y023365D03*
X023061Y023336D03*
X023061Y023307D03*
X022655Y023307D03*
X022655Y023336D03*
X022655Y023365D03*
X022655Y023394D03*
X022655Y023423D03*
X022655Y023452D03*
X022655Y023481D03*
X022510Y023481D03*
X022510Y023452D03*
X022510Y023423D03*
X022510Y023394D03*
X028513Y026483D03*
X028542Y026541D03*
X028571Y026599D03*
X028571Y026628D03*
X028600Y026686D03*
X028600Y026715D03*
X028600Y026744D03*
X028600Y026773D03*
X028600Y026802D03*
X028600Y026831D03*
X028803Y026831D03*
X028832Y026686D03*
X028803Y026628D03*
X028803Y026599D03*
X028803Y026570D03*
X028803Y027150D03*
X028803Y027179D03*
X028803Y027208D03*
X028803Y027237D03*
X028803Y027266D03*
X028803Y027295D03*
X028803Y027324D03*
X028803Y027353D03*
X028803Y027411D03*
X028803Y027440D03*
X028687Y027440D03*
X028658Y027382D03*
X028658Y027353D03*
X028658Y027324D03*
X028832Y028890D03*
X030021Y029354D03*
X030021Y029383D03*
X030021Y029412D03*
X030050Y029470D03*
X029992Y030543D03*
X030108Y030659D03*
X030108Y030688D03*
X030108Y030717D03*
X030108Y030746D03*
X030108Y030775D03*
X028107Y030978D03*
X028107Y031007D03*
X028107Y031036D03*
X028107Y031065D03*
X028107Y031094D03*
X028107Y031123D03*
X028107Y031152D03*
X026831Y030543D03*
X026831Y030514D03*
X026831Y030485D03*
X026831Y030456D03*
X026831Y030427D03*
X026831Y030398D03*
X026773Y028919D03*
X025961Y028861D03*
X025961Y028832D03*
X025961Y028803D03*
X025961Y028774D03*
X025961Y028745D03*
X025961Y028716D03*
X023438Y029557D03*
X023438Y029586D03*
X023438Y029615D03*
X023438Y029644D03*
X023438Y029673D03*
X023438Y029702D03*
X023438Y029731D03*
X023061Y029615D03*
X023061Y029586D03*
X023061Y029557D03*
X022655Y029557D03*
X022655Y029586D03*
X022655Y029615D03*
X022655Y029644D03*
X022655Y029673D03*
X022655Y029702D03*
X022655Y029731D03*
X022510Y029731D03*
X022510Y029702D03*
X022510Y029673D03*
X022510Y029644D03*
X031877Y029702D03*
X032863Y030804D03*
X032863Y030833D03*
X032863Y030862D03*
X032863Y030891D03*
X032863Y030920D03*
X032863Y030949D03*
X032863Y030978D03*
X033501Y031326D03*
X033530Y031384D03*
X034110Y030746D03*
X034110Y030717D03*
X033965Y030456D03*
X033936Y030398D03*
X033907Y030369D03*
X033907Y030340D03*
X033878Y030282D03*
X034458Y029557D03*
X034458Y029528D03*
X034458Y029499D03*
X034458Y029470D03*
X035183Y030775D03*
X035183Y030804D03*
X035183Y030833D03*
X035183Y030862D03*
X035183Y030891D03*
X035183Y030920D03*
X035183Y030949D03*
X035038Y031036D03*
X035038Y031065D03*
X035038Y031094D03*
X035038Y031123D03*
X035038Y031152D03*
X035038Y031181D03*
X035531Y031413D03*
X035792Y031181D03*
X035792Y031152D03*
X035792Y031123D03*
X035792Y031094D03*
X035763Y031007D03*
X035531Y025163D03*
X035792Y024931D03*
X035792Y024902D03*
X035792Y024873D03*
X035792Y024844D03*
X035763Y024757D03*
X035183Y024699D03*
X035183Y024670D03*
X035183Y024641D03*
X035183Y024612D03*
X035183Y024583D03*
X035183Y024554D03*
X035183Y024525D03*
X035038Y024786D03*
X035038Y024815D03*
X035038Y024844D03*
X035038Y024873D03*
X035038Y024902D03*
X035038Y024931D03*
X034110Y024496D03*
X034110Y024467D03*
X033965Y024206D03*
X033936Y024148D03*
X033907Y024119D03*
X033907Y024090D03*
X033878Y024032D03*
X034458Y023307D03*
X034458Y023278D03*
X034458Y023249D03*
X034458Y023220D03*
X032863Y024554D03*
X032863Y024583D03*
X032863Y024612D03*
X032863Y024641D03*
X032863Y024670D03*
X032863Y024699D03*
X032863Y024728D03*
X033501Y025076D03*
X033530Y025134D03*
X031877Y023452D03*
X033530Y018884D03*
X033501Y018826D03*
X032863Y018478D03*
X032863Y018449D03*
X032863Y018420D03*
X032863Y018391D03*
X032863Y018362D03*
X032863Y018333D03*
X032863Y018304D03*
X033907Y017869D03*
X033907Y017840D03*
X033878Y017782D03*
X033936Y017898D03*
X033965Y017956D03*
X034110Y018217D03*
X034110Y018246D03*
X035038Y018536D03*
X035038Y018565D03*
X035038Y018594D03*
X035038Y018623D03*
X035038Y018652D03*
X035038Y018681D03*
X035183Y018449D03*
X035183Y018420D03*
X035183Y018391D03*
X035183Y018362D03*
X035183Y018333D03*
X035183Y018304D03*
X035183Y018275D03*
X035763Y018507D03*
X035792Y018594D03*
X035792Y018623D03*
X035792Y018652D03*
X035792Y018681D03*
X035531Y018913D03*
X034458Y017057D03*
X034458Y017028D03*
X034458Y016999D03*
X034458Y016970D03*
X031877Y017202D03*
X030050Y016970D03*
X030021Y016912D03*
X030021Y016883D03*
X030021Y016854D03*
X028832Y016390D03*
X028803Y014940D03*
X028803Y014911D03*
X028803Y014853D03*
X028803Y014824D03*
X028803Y014795D03*
X028803Y014766D03*
X028803Y014737D03*
X028803Y014708D03*
X028803Y014679D03*
X028803Y014650D03*
X028658Y014824D03*
X028658Y014853D03*
X028658Y014882D03*
X028687Y014940D03*
X028600Y014331D03*
X028600Y014302D03*
X028600Y014273D03*
X028600Y014244D03*
X028600Y014215D03*
X028600Y014186D03*
X028571Y014128D03*
X028571Y014099D03*
X028542Y014041D03*
X028513Y013983D03*
X028803Y014070D03*
X028803Y014099D03*
X028803Y014128D03*
X028832Y014186D03*
X028803Y014331D03*
X028107Y012402D03*
X028107Y012373D03*
X028107Y012344D03*
X028107Y012315D03*
X028107Y012286D03*
X028107Y012257D03*
X028107Y012228D03*
X026831Y011793D03*
X026831Y011764D03*
X026831Y011735D03*
X026831Y011706D03*
X026831Y011677D03*
X026831Y011648D03*
X026773Y010169D03*
X025961Y010111D03*
X025961Y010082D03*
X025961Y010053D03*
X025961Y010024D03*
X025961Y009995D03*
X025961Y009966D03*
X023438Y010807D03*
X023438Y010836D03*
X023438Y010865D03*
X023438Y010894D03*
X023438Y010923D03*
X023438Y010952D03*
X023438Y010981D03*
X023061Y010865D03*
X023061Y010836D03*
X023061Y010807D03*
X022655Y010807D03*
X022655Y010836D03*
X022655Y010865D03*
X022655Y010894D03*
X022655Y010923D03*
X022655Y010952D03*
X022655Y010981D03*
X022510Y010981D03*
X022510Y010952D03*
X022510Y010923D03*
X022510Y010894D03*
X028107Y006152D03*
X028107Y006123D03*
X028107Y006094D03*
X028107Y006065D03*
X028107Y006036D03*
X028107Y006007D03*
X028107Y005978D03*
X026831Y005543D03*
X026831Y005514D03*
X026831Y005485D03*
X026831Y005456D03*
X026831Y005427D03*
X026831Y005398D03*
X026773Y003919D03*
X025961Y003861D03*
X025961Y003832D03*
X025961Y003803D03*
X025961Y003774D03*
X025961Y003745D03*
X025961Y003716D03*
X023438Y004557D03*
X023438Y004586D03*
X023438Y004615D03*
X023438Y004644D03*
X023438Y004673D03*
X023438Y004702D03*
X023438Y004731D03*
X023061Y004615D03*
X023061Y004586D03*
X023061Y004557D03*
X022655Y004557D03*
X022655Y004586D03*
X022655Y004615D03*
X022655Y004644D03*
X022655Y004673D03*
X022655Y004702D03*
X022655Y004731D03*
X022510Y004731D03*
X022510Y004702D03*
X022510Y004673D03*
X022510Y004644D03*
X028513Y007733D03*
X028542Y007791D03*
X028571Y007849D03*
X028571Y007878D03*
X028600Y007936D03*
X028600Y007965D03*
X028600Y007994D03*
X028600Y008023D03*
X028600Y008052D03*
X028600Y008081D03*
X028803Y008081D03*
X028832Y007936D03*
X028803Y007878D03*
X028803Y007849D03*
X028803Y007820D03*
X028803Y008400D03*
X028803Y008429D03*
X028803Y008458D03*
X028803Y008487D03*
X028803Y008516D03*
X028803Y008545D03*
X028803Y008574D03*
X028803Y008603D03*
X028803Y008661D03*
X028803Y008690D03*
X028687Y008690D03*
X028658Y008632D03*
X028658Y008603D03*
X028658Y008574D03*
X028832Y010140D03*
X030021Y010604D03*
X030021Y010633D03*
X030021Y010662D03*
X030050Y010720D03*
X029992Y011793D03*
X030108Y011909D03*
X030108Y011938D03*
X030108Y011967D03*
X030108Y011996D03*
X030108Y012025D03*
X031877Y010952D03*
X032863Y012054D03*
X032863Y012083D03*
X032863Y012112D03*
X032863Y012141D03*
X032863Y012170D03*
X032863Y012199D03*
X032863Y012228D03*
X033501Y012576D03*
X033530Y012634D03*
X034110Y011996D03*
X034110Y011967D03*
X033965Y011706D03*
X033936Y011648D03*
X033907Y011619D03*
X033907Y011590D03*
X033878Y011532D03*
X034458Y010807D03*
X034458Y010778D03*
X034458Y010749D03*
X034458Y010720D03*
X035183Y012025D03*
X035183Y012054D03*
X035183Y012083D03*
X035183Y012112D03*
X035183Y012141D03*
X035183Y012170D03*
X035183Y012199D03*
X035038Y012286D03*
X035038Y012315D03*
X035038Y012344D03*
X035038Y012373D03*
X035038Y012402D03*
X035038Y012431D03*
X035531Y012663D03*
X035792Y012431D03*
X035792Y012402D03*
X035792Y012373D03*
X035792Y012344D03*
X035763Y012257D03*
X035531Y006413D03*
X035792Y006181D03*
X035792Y006152D03*
X035792Y006123D03*
X035792Y006094D03*
X035763Y006007D03*
X035183Y005949D03*
X035183Y005920D03*
X035183Y005891D03*
X035183Y005862D03*
X035183Y005833D03*
X035183Y005804D03*
X035183Y005775D03*
X035038Y006036D03*
X035038Y006065D03*
X035038Y006094D03*
X035038Y006123D03*
X035038Y006152D03*
X035038Y006181D03*
X034110Y005746D03*
X034110Y005717D03*
X033965Y005456D03*
X033936Y005398D03*
X033907Y005369D03*
X033907Y005340D03*
X033878Y005282D03*
X034458Y004557D03*
X034458Y004528D03*
X034458Y004499D03*
X034458Y004470D03*
X032863Y005804D03*
X032863Y005833D03*
X032863Y005862D03*
X032863Y005891D03*
X032863Y005920D03*
X032863Y005949D03*
X032863Y005978D03*
X033501Y006326D03*
X033530Y006384D03*
X031877Y004702D03*
X030050Y004470D03*
X030021Y004412D03*
X030021Y004383D03*
X030021Y004354D03*
X029992Y005543D03*
X030108Y005659D03*
X030108Y005688D03*
X030108Y005717D03*
X030108Y005746D03*
X030108Y005775D03*
X028832Y003890D03*
X028803Y002440D03*
X028803Y002411D03*
X028803Y002353D03*
X028803Y002324D03*
X028803Y002295D03*
X028803Y002266D03*
X028803Y002237D03*
X028803Y002208D03*
X028803Y002179D03*
X028803Y002150D03*
X028658Y002324D03*
X028658Y002353D03*
X028658Y002382D03*
X028687Y002440D03*
X028600Y001831D03*
X028600Y001802D03*
X028600Y001773D03*
X028600Y001744D03*
X028600Y001715D03*
X028600Y001686D03*
X028571Y001628D03*
X028571Y001599D03*
X028542Y001541D03*
X028513Y001483D03*
X028803Y001570D03*
X028803Y001599D03*
X028803Y001628D03*
X028832Y001686D03*
X028803Y001831D03*
X023438Y017057D03*
X023438Y017086D03*
X023438Y017115D03*
X023438Y017144D03*
X023438Y017173D03*
X023438Y017202D03*
X023438Y017231D03*
X023061Y017115D03*
X023061Y017086D03*
X023061Y017057D03*
X022655Y017057D03*
X022655Y017086D03*
X022655Y017115D03*
X022655Y017144D03*
X022655Y017173D03*
X022655Y017202D03*
X022655Y017231D03*
X022510Y017231D03*
X022510Y017202D03*
X022510Y017173D03*
X022510Y017144D03*
X029992Y018043D03*
X030108Y018159D03*
X030108Y018188D03*
X030108Y018217D03*
X030108Y018246D03*
X030108Y018275D03*
D17*
X028557Y017985D03*
X028557Y017956D03*
X028557Y017927D03*
X028557Y017898D03*
X028557Y017869D03*
X029630Y016216D03*
X030094Y015839D03*
X031689Y016303D03*
X032037Y017666D03*
X036329Y018913D03*
X031689Y022553D03*
X032037Y023916D03*
X030094Y022089D03*
X029630Y022466D03*
X028557Y024119D03*
X028557Y024148D03*
X028557Y024177D03*
X028557Y024206D03*
X028557Y024235D03*
X030094Y028339D03*
X029630Y028716D03*
X028557Y030369D03*
X028557Y030398D03*
X028557Y030427D03*
X028557Y030456D03*
X028557Y030485D03*
X031689Y028803D03*
X032037Y030166D03*
X036329Y031413D03*
X036329Y025163D03*
X036329Y012663D03*
X032037Y011416D03*
X031689Y010053D03*
X030094Y009589D03*
X029630Y009966D03*
X028557Y011619D03*
X028557Y011648D03*
X028557Y011677D03*
X028557Y011706D03*
X028557Y011735D03*
X028557Y005485D03*
X028557Y005456D03*
X028557Y005427D03*
X028557Y005398D03*
X028557Y005369D03*
X029630Y003716D03*
X030094Y003339D03*
X031689Y003803D03*
X032037Y005166D03*
X036329Y006413D03*
D18*
X037126Y006413D03*
X032921Y004151D03*
X032892Y003600D03*
X032283Y004934D03*
X030862Y003542D03*
X030746Y003513D03*
X030543Y004209D03*
X030340Y004325D03*
X029789Y004035D03*
X030746Y009763D03*
X030862Y009792D03*
X030543Y010459D03*
X030340Y010575D03*
X029789Y010285D03*
X032283Y011184D03*
X032921Y010401D03*
X032892Y009850D03*
X037126Y012663D03*
X032892Y016100D03*
X032921Y016651D03*
X032283Y017434D03*
X030862Y016042D03*
X030746Y016013D03*
X030543Y016709D03*
X030340Y016825D03*
X029789Y016535D03*
X030746Y022263D03*
X030862Y022292D03*
X030543Y022959D03*
X030340Y023075D03*
X029789Y022785D03*
X032283Y023684D03*
X032921Y022901D03*
X032892Y022350D03*
X037126Y025163D03*
X032892Y028600D03*
X032921Y029151D03*
X032283Y029934D03*
X030862Y028542D03*
X030746Y028513D03*
X030543Y029209D03*
X030340Y029325D03*
X029789Y029035D03*
X037126Y031413D03*
X037126Y018913D03*
D19*
X033284Y021770D03*
X033284Y021973D03*
X032820Y021973D03*
X032791Y022002D03*
X032733Y022031D03*
X031921Y023510D03*
X031718Y023626D03*
X030384Y022756D03*
X029920Y022495D03*
X029369Y022263D03*
X029369Y022234D03*
X027774Y024989D03*
X027774Y025018D03*
X027774Y025047D03*
X027774Y025076D03*
X027774Y025105D03*
X027774Y025134D03*
X029369Y028484D03*
X029369Y028513D03*
X029920Y028745D03*
X030384Y029006D03*
X031718Y029876D03*
X031921Y029760D03*
X032733Y028281D03*
X032791Y028252D03*
X032820Y028223D03*
X033284Y028223D03*
X033284Y028020D03*
X027774Y031239D03*
X027774Y031268D03*
X027774Y031297D03*
X027774Y031326D03*
X027774Y031355D03*
X027774Y031384D03*
X027774Y018884D03*
X027774Y018855D03*
X027774Y018826D03*
X027774Y018797D03*
X027774Y018768D03*
X027774Y018739D03*
X030384Y016506D03*
X029920Y016245D03*
X029369Y016013D03*
X029369Y015984D03*
X031718Y017376D03*
X031921Y017260D03*
X032733Y015781D03*
X032791Y015752D03*
X032820Y015723D03*
X033284Y015723D03*
X033284Y015520D03*
X031718Y011126D03*
X031921Y011010D03*
X030384Y010256D03*
X029920Y009995D03*
X029369Y009763D03*
X029369Y009734D03*
X027774Y012489D03*
X027774Y012518D03*
X027774Y012547D03*
X027774Y012576D03*
X027774Y012605D03*
X027774Y012634D03*
X032733Y009531D03*
X032791Y009502D03*
X032820Y009473D03*
X033284Y009473D03*
X033284Y009270D03*
X031718Y004876D03*
X031921Y004760D03*
X030384Y004006D03*
X029920Y003745D03*
X029369Y003513D03*
X029369Y003484D03*
X027774Y006239D03*
X027774Y006268D03*
X027774Y006297D03*
X027774Y006326D03*
X027774Y006355D03*
X027774Y006384D03*
X032733Y003281D03*
X032791Y003252D03*
X032820Y003223D03*
X033284Y003223D03*
X033284Y003020D03*
D20*
X036706Y006384D03*
X036706Y012634D03*
X036706Y018884D03*
X036706Y025134D03*
X036706Y031384D03*
D21*
X036662Y031355D03*
X036662Y031326D03*
X036662Y031297D03*
X036662Y031268D03*
X036662Y025105D03*
X036662Y025076D03*
X036662Y025047D03*
X036662Y025018D03*
X036662Y018855D03*
X036662Y018826D03*
X036662Y018797D03*
X036662Y018768D03*
X036662Y012605D03*
X036662Y012576D03*
X036662Y012547D03*
X036662Y012518D03*
X036662Y006355D03*
X036662Y006326D03*
X036662Y006297D03*
X036662Y006268D03*
D22*
X036633Y006239D03*
X036633Y012489D03*
X036633Y018739D03*
X036633Y024989D03*
X036633Y031239D03*
D23*
X030239Y028426D03*
X029340Y028107D03*
X027513Y031210D03*
X027513Y024960D03*
X030239Y022176D03*
X029340Y021857D03*
X027513Y018710D03*
X030239Y015926D03*
X029340Y015607D03*
X027513Y012460D03*
X030239Y009676D03*
X029340Y009357D03*
X027513Y006210D03*
X030239Y003426D03*
X029340Y003107D03*
D24*
X028919Y002904D03*
X029383Y003861D03*
X029702Y004296D03*
X029702Y004325D03*
X029702Y004354D03*
X029702Y004383D03*
X029702Y004412D03*
X029702Y004441D03*
X029702Y004470D03*
X029702Y004499D03*
X029615Y005601D03*
X029615Y005630D03*
X029615Y005659D03*
X029615Y005688D03*
X029615Y005717D03*
X029615Y005746D03*
X029615Y005775D03*
X030891Y005514D03*
X030775Y005166D03*
X030775Y005137D03*
X030775Y005108D03*
X030775Y005079D03*
X030775Y005050D03*
X030862Y004470D03*
X033153Y004093D03*
X033153Y004064D03*
X033530Y003890D03*
X033530Y003861D03*
X033501Y003832D03*
X033501Y003687D03*
X033443Y003542D03*
X033414Y003513D03*
X033414Y003484D03*
X033385Y003426D03*
X033588Y004035D03*
X033211Y004528D03*
X033211Y004557D03*
X033211Y004586D03*
X033240Y004905D03*
X033240Y005021D03*
X033240Y005050D03*
X034226Y004905D03*
X034255Y004876D03*
X034284Y004847D03*
X035676Y005804D03*
X035676Y005833D03*
X035676Y005862D03*
X035676Y005891D03*
X035676Y005920D03*
X035676Y005949D03*
X035096Y006007D03*
X033907Y006007D03*
X033443Y006123D03*
X033443Y006210D03*
X033385Y009676D03*
X033414Y009734D03*
X033414Y009763D03*
X033443Y009792D03*
X033501Y009937D03*
X033501Y010082D03*
X033530Y010111D03*
X033530Y010140D03*
X033588Y010285D03*
X033153Y010314D03*
X033153Y010343D03*
X033211Y010778D03*
X033211Y010807D03*
X033211Y010836D03*
X033240Y011155D03*
X033240Y011271D03*
X033240Y011300D03*
X034226Y011155D03*
X034255Y011126D03*
X034284Y011097D03*
X033907Y012257D03*
X033443Y012373D03*
X033443Y012460D03*
X035096Y012257D03*
X035676Y012199D03*
X035676Y012170D03*
X035676Y012141D03*
X035676Y012112D03*
X035676Y012083D03*
X035676Y012054D03*
X033385Y015926D03*
X033414Y015984D03*
X033414Y016013D03*
X033443Y016042D03*
X033501Y016187D03*
X033501Y016332D03*
X033530Y016361D03*
X033530Y016390D03*
X033588Y016535D03*
X033153Y016564D03*
X033153Y016593D03*
X033211Y017028D03*
X033211Y017057D03*
X033211Y017086D03*
X033240Y017405D03*
X033240Y017521D03*
X033240Y017550D03*
X034226Y017405D03*
X034255Y017376D03*
X034284Y017347D03*
X033907Y018507D03*
X033443Y018623D03*
X033443Y018710D03*
X035096Y018507D03*
X035676Y018449D03*
X035676Y018420D03*
X035676Y018391D03*
X035676Y018362D03*
X035676Y018333D03*
X035676Y018304D03*
X033385Y022176D03*
X033414Y022234D03*
X033414Y022263D03*
X033443Y022292D03*
X033501Y022437D03*
X033501Y022582D03*
X033530Y022611D03*
X033530Y022640D03*
X033588Y022785D03*
X033153Y022814D03*
X033153Y022843D03*
X033211Y023278D03*
X033211Y023307D03*
X033211Y023336D03*
X033240Y023655D03*
X033240Y023771D03*
X033240Y023800D03*
X034226Y023655D03*
X034255Y023626D03*
X034284Y023597D03*
X035676Y024554D03*
X035676Y024583D03*
X035676Y024612D03*
X035676Y024641D03*
X035676Y024670D03*
X035676Y024699D03*
X035096Y024757D03*
X033907Y024757D03*
X033443Y024873D03*
X033443Y024960D03*
X030891Y024264D03*
X030775Y023916D03*
X030775Y023887D03*
X030775Y023858D03*
X030775Y023829D03*
X030775Y023800D03*
X030862Y023220D03*
X029702Y023220D03*
X029702Y023191D03*
X029702Y023162D03*
X029702Y023133D03*
X029702Y023104D03*
X029702Y023075D03*
X029702Y023046D03*
X029702Y023249D03*
X029383Y022611D03*
X028919Y021654D03*
X029615Y024351D03*
X029615Y024380D03*
X029615Y024409D03*
X029615Y024438D03*
X029615Y024467D03*
X029615Y024496D03*
X029615Y024525D03*
X027788Y024931D03*
X025787Y022843D03*
X025787Y022814D03*
X025787Y022785D03*
X025787Y022756D03*
X025787Y022727D03*
X025787Y022698D03*
X027788Y018681D03*
X029615Y018275D03*
X029615Y018246D03*
X029615Y018217D03*
X029615Y018188D03*
X029615Y018159D03*
X029615Y018130D03*
X029615Y018101D03*
X029702Y016999D03*
X029702Y016970D03*
X029702Y016941D03*
X029702Y016912D03*
X029702Y016883D03*
X029702Y016854D03*
X029702Y016825D03*
X029702Y016796D03*
X029383Y016361D03*
X028919Y015404D03*
X030862Y016970D03*
X030775Y017550D03*
X030775Y017579D03*
X030775Y017608D03*
X030775Y017637D03*
X030775Y017666D03*
X030891Y018014D03*
X025787Y016593D03*
X025787Y016564D03*
X025787Y016535D03*
X025787Y016506D03*
X025787Y016477D03*
X025787Y016448D03*
X027788Y012431D03*
X029615Y012025D03*
X029615Y011996D03*
X029615Y011967D03*
X029615Y011938D03*
X029615Y011909D03*
X029615Y011880D03*
X029615Y011851D03*
X029702Y010749D03*
X029702Y010720D03*
X029702Y010691D03*
X029702Y010662D03*
X029702Y010633D03*
X029702Y010604D03*
X029702Y010575D03*
X029702Y010546D03*
X029383Y010111D03*
X028919Y009154D03*
X030862Y010720D03*
X030775Y011300D03*
X030775Y011329D03*
X030775Y011358D03*
X030775Y011387D03*
X030775Y011416D03*
X030891Y011764D03*
X025787Y010343D03*
X025787Y010314D03*
X025787Y010285D03*
X025787Y010256D03*
X025787Y010227D03*
X025787Y010198D03*
X027788Y006181D03*
X025787Y004093D03*
X025787Y004064D03*
X025787Y004035D03*
X025787Y004006D03*
X025787Y003977D03*
X025787Y003948D03*
X028919Y027904D03*
X029383Y028861D03*
X029702Y029296D03*
X029702Y029325D03*
X029702Y029354D03*
X029702Y029383D03*
X029702Y029412D03*
X029702Y029441D03*
X029702Y029470D03*
X029702Y029499D03*
X029615Y030601D03*
X029615Y030630D03*
X029615Y030659D03*
X029615Y030688D03*
X029615Y030717D03*
X029615Y030746D03*
X029615Y030775D03*
X030891Y030514D03*
X030775Y030166D03*
X030775Y030137D03*
X030775Y030108D03*
X030775Y030079D03*
X030775Y030050D03*
X030862Y029470D03*
X033153Y029093D03*
X033153Y029064D03*
X033530Y028890D03*
X033530Y028861D03*
X033501Y028832D03*
X033501Y028687D03*
X033443Y028542D03*
X033414Y028513D03*
X033414Y028484D03*
X033385Y028426D03*
X033588Y029035D03*
X033211Y029528D03*
X033211Y029557D03*
X033211Y029586D03*
X033240Y029905D03*
X033240Y030021D03*
X033240Y030050D03*
X034226Y029905D03*
X034255Y029876D03*
X034284Y029847D03*
X035676Y030804D03*
X035676Y030833D03*
X035676Y030862D03*
X035676Y030891D03*
X035676Y030920D03*
X035676Y030949D03*
X035096Y031007D03*
X033907Y031007D03*
X033443Y031123D03*
X033443Y031210D03*
X027788Y031181D03*
X025787Y029093D03*
X025787Y029064D03*
X025787Y029035D03*
X025787Y029006D03*
X025787Y028977D03*
X025787Y028948D03*
D25*
X024859Y028948D03*
X024859Y028977D03*
X024859Y029006D03*
X024859Y029035D03*
X024859Y029064D03*
X024859Y029093D03*
X029354Y028455D03*
X033269Y028252D03*
X035444Y031210D03*
X035444Y024960D03*
X033269Y022002D03*
X029354Y022205D03*
X024859Y022698D03*
X024859Y022727D03*
X024859Y022756D03*
X024859Y022785D03*
X024859Y022814D03*
X024859Y022843D03*
X024859Y016593D03*
X024859Y016564D03*
X024859Y016535D03*
X024859Y016506D03*
X024859Y016477D03*
X024859Y016448D03*
X029354Y015955D03*
X033269Y015752D03*
X035444Y018710D03*
X035444Y012460D03*
X033269Y009502D03*
X029354Y009705D03*
X024859Y010198D03*
X024859Y010227D03*
X024859Y010256D03*
X024859Y010285D03*
X024859Y010314D03*
X024859Y010343D03*
X024859Y004093D03*
X024859Y004064D03*
X024859Y004035D03*
X024859Y004006D03*
X024859Y003977D03*
X024859Y003948D03*
X029354Y003455D03*
X033269Y003252D03*
X035444Y006210D03*
D26*
X036619Y006210D03*
X036619Y012460D03*
X036619Y018710D03*
X036619Y024960D03*
X036619Y031210D03*
D27*
X033168Y028136D03*
X032298Y028948D03*
X031805Y028861D03*
X032211Y029876D03*
X032733Y030050D03*
X031602Y029963D03*
X030964Y029934D03*
X030413Y029354D03*
X030471Y029122D03*
X030036Y028281D03*
X029282Y028397D03*
X029021Y028078D03*
X027107Y030978D03*
X027194Y031152D03*
X027194Y031181D03*
X027194Y024931D03*
X027194Y024902D03*
X027107Y024728D03*
X029282Y022147D03*
X029021Y021828D03*
X030036Y022031D03*
X030471Y022872D03*
X030413Y023104D03*
X030964Y023684D03*
X031602Y023713D03*
X032211Y023626D03*
X032733Y023800D03*
X032298Y022698D03*
X031805Y022611D03*
X033168Y021886D03*
X032733Y017550D03*
X032211Y017376D03*
X031602Y017463D03*
X030964Y017434D03*
X030413Y016854D03*
X030471Y016622D03*
X030036Y015781D03*
X029282Y015897D03*
X029021Y015578D03*
X031805Y016361D03*
X032298Y016448D03*
X033168Y015636D03*
X032733Y011300D03*
X032211Y011126D03*
X031602Y011213D03*
X030964Y011184D03*
X030413Y010604D03*
X030471Y010372D03*
X030036Y009531D03*
X029282Y009647D03*
X029021Y009328D03*
X031805Y010111D03*
X032298Y010198D03*
X033168Y009386D03*
X032733Y005050D03*
X032211Y004876D03*
X031602Y004963D03*
X030964Y004934D03*
X030413Y004354D03*
X030471Y004122D03*
X030036Y003281D03*
X029282Y003397D03*
X029021Y003078D03*
X031805Y003861D03*
X032298Y003948D03*
X033168Y003136D03*
X027194Y006152D03*
X027194Y006181D03*
X027107Y005978D03*
X027107Y012228D03*
X027194Y012402D03*
X027194Y012431D03*
X027107Y018478D03*
X027194Y018652D03*
X027194Y018681D03*
D28*
X027774Y018652D03*
X027774Y018623D03*
X027774Y018594D03*
X027774Y018565D03*
X027774Y018536D03*
X027774Y018507D03*
X028064Y018681D03*
X029079Y017985D03*
X029079Y017956D03*
X029079Y017927D03*
X029079Y017898D03*
X029079Y017869D03*
X029717Y016680D03*
X028847Y016361D03*
X028789Y015926D03*
X028789Y015781D03*
X029050Y015839D03*
X029050Y015926D03*
X028847Y015259D03*
X028789Y015085D03*
X028760Y015027D03*
X028760Y014998D03*
X028064Y012431D03*
X027774Y012402D03*
X027774Y012373D03*
X027774Y012344D03*
X027774Y012315D03*
X027774Y012286D03*
X027774Y012257D03*
X029079Y011735D03*
X029079Y011706D03*
X029079Y011677D03*
X029079Y011648D03*
X029079Y011619D03*
X029717Y010430D03*
X028847Y010111D03*
X028789Y009676D03*
X028789Y009531D03*
X029050Y009589D03*
X029050Y009676D03*
X028847Y009009D03*
X028789Y008835D03*
X028760Y008777D03*
X028760Y008748D03*
X028064Y006181D03*
X027774Y006152D03*
X027774Y006123D03*
X027774Y006094D03*
X027774Y006065D03*
X027774Y006036D03*
X027774Y006007D03*
X029079Y005485D03*
X029079Y005456D03*
X029079Y005427D03*
X029079Y005398D03*
X029079Y005369D03*
X029717Y004180D03*
X028847Y003861D03*
X028789Y003426D03*
X028789Y003281D03*
X029050Y003339D03*
X029050Y003426D03*
X028847Y002759D03*
X028789Y002585D03*
X028760Y002527D03*
X028760Y002498D03*
X030790Y005195D03*
X030790Y005224D03*
X030819Y005398D03*
X030819Y005427D03*
X033284Y005485D03*
X033342Y005688D03*
X033342Y005717D03*
X033342Y005746D03*
X033429Y006094D03*
X033487Y003803D03*
X033487Y003774D03*
X033400Y003455D03*
X033400Y009705D03*
X033487Y010024D03*
X033487Y010053D03*
X033284Y011735D03*
X033342Y011938D03*
X033342Y011967D03*
X033342Y011996D03*
X033429Y012344D03*
X030819Y011677D03*
X030819Y011648D03*
X030790Y011474D03*
X030790Y011445D03*
X033400Y015955D03*
X033487Y016274D03*
X033487Y016303D03*
X033284Y017985D03*
X033342Y018188D03*
X033342Y018217D03*
X033342Y018246D03*
X033429Y018594D03*
X030819Y017927D03*
X030819Y017898D03*
X030790Y017724D03*
X030790Y017695D03*
X028760Y021248D03*
X028760Y021277D03*
X028789Y021335D03*
X028847Y021509D03*
X028789Y022031D03*
X028789Y022176D03*
X029050Y022176D03*
X029050Y022089D03*
X028847Y022611D03*
X029717Y022930D03*
X030790Y023945D03*
X030790Y023974D03*
X030819Y024148D03*
X030819Y024177D03*
X029079Y024177D03*
X029079Y024148D03*
X029079Y024119D03*
X029079Y024206D03*
X029079Y024235D03*
X028064Y024931D03*
X027774Y024902D03*
X027774Y024873D03*
X027774Y024844D03*
X027774Y024815D03*
X027774Y024786D03*
X027774Y024757D03*
X028760Y027498D03*
X028760Y027527D03*
X028789Y027585D03*
X028847Y027759D03*
X028789Y028281D03*
X028789Y028426D03*
X029050Y028426D03*
X029050Y028339D03*
X028847Y028861D03*
X029717Y029180D03*
X030790Y030195D03*
X030790Y030224D03*
X030819Y030398D03*
X030819Y030427D03*
X029079Y030427D03*
X029079Y030398D03*
X029079Y030369D03*
X029079Y030456D03*
X029079Y030485D03*
X028064Y031181D03*
X027774Y031152D03*
X027774Y031123D03*
X027774Y031094D03*
X027774Y031065D03*
X027774Y031036D03*
X027774Y031007D03*
X033284Y030485D03*
X033342Y030688D03*
X033342Y030717D03*
X033342Y030746D03*
X033429Y031094D03*
X033487Y028803D03*
X033487Y028774D03*
X033400Y028455D03*
X033429Y024844D03*
X033342Y024496D03*
X033342Y024467D03*
X033342Y024438D03*
X033284Y024235D03*
X033487Y022553D03*
X033487Y022524D03*
X033400Y022205D03*
D29*
X033313Y021944D03*
X033313Y021915D03*
X033197Y022698D03*
X033197Y022727D03*
X033197Y022756D03*
X033255Y023539D03*
X034154Y024409D03*
X033487Y024931D03*
X035372Y024931D03*
X033313Y028165D03*
X033313Y028194D03*
X033197Y028948D03*
X033197Y028977D03*
X033197Y029006D03*
X033255Y029789D03*
X034154Y030659D03*
X033487Y031181D03*
X035372Y031181D03*
X030935Y029325D03*
X030935Y029296D03*
X030906Y029383D03*
X028905Y028832D03*
X028963Y027933D03*
X028673Y030253D03*
X026121Y029093D03*
X026121Y029064D03*
X026121Y029035D03*
X026121Y029006D03*
X026121Y028977D03*
X026121Y028948D03*
X028673Y024003D03*
X028905Y022582D03*
X028963Y021683D03*
X030935Y023046D03*
X030935Y023075D03*
X030906Y023133D03*
X026121Y022843D03*
X026121Y022814D03*
X026121Y022785D03*
X026121Y022756D03*
X026121Y022727D03*
X026121Y022698D03*
X028673Y017753D03*
X028905Y016332D03*
X028963Y015433D03*
X030935Y016796D03*
X030935Y016825D03*
X030906Y016883D03*
X033197Y016506D03*
X033197Y016477D03*
X033197Y016448D03*
X033313Y015694D03*
X033313Y015665D03*
X033255Y017289D03*
X034154Y018159D03*
X033487Y018681D03*
X035372Y018681D03*
X035372Y012431D03*
X034154Y011909D03*
X033487Y012431D03*
X033255Y011039D03*
X033197Y010256D03*
X033197Y010227D03*
X033197Y010198D03*
X033313Y009444D03*
X033313Y009415D03*
X030935Y010546D03*
X030935Y010575D03*
X030906Y010633D03*
X028905Y010082D03*
X028963Y009183D03*
X028673Y011503D03*
X026121Y010343D03*
X026121Y010314D03*
X026121Y010285D03*
X026121Y010256D03*
X026121Y010227D03*
X026121Y010198D03*
X028673Y005253D03*
X028905Y003832D03*
X028963Y002933D03*
X030935Y004296D03*
X030935Y004325D03*
X030906Y004383D03*
X033197Y004006D03*
X033197Y003977D03*
X033197Y003948D03*
X033313Y003194D03*
X033313Y003165D03*
X033255Y004789D03*
X034154Y005659D03*
X033487Y006181D03*
X035372Y006181D03*
X026121Y004093D03*
X026121Y004064D03*
X026121Y004035D03*
X026121Y004006D03*
X026121Y003977D03*
X026121Y003948D03*
X026121Y016448D03*
X026121Y016477D03*
X026121Y016506D03*
X026121Y016535D03*
X026121Y016564D03*
X026121Y016593D03*
D30*
X028629Y014708D03*
X028629Y014679D03*
X028629Y014650D03*
X029499Y011793D03*
X028629Y008458D03*
X028629Y008429D03*
X028629Y008400D03*
X029499Y005543D03*
X028629Y002208D03*
X028629Y002179D03*
X028629Y002150D03*
X035154Y006036D03*
X035154Y006065D03*
X035154Y006094D03*
X035154Y006123D03*
X035154Y006152D03*
X035154Y006181D03*
X035589Y006181D03*
X035589Y006152D03*
X035589Y006123D03*
X035589Y006094D03*
X035589Y006065D03*
X035589Y006036D03*
X035589Y012286D03*
X035589Y012315D03*
X035589Y012344D03*
X035589Y012373D03*
X035589Y012402D03*
X035589Y012431D03*
X035154Y012431D03*
X035154Y012402D03*
X035154Y012373D03*
X035154Y012344D03*
X035154Y012315D03*
X035154Y012286D03*
X029499Y018043D03*
X028629Y020900D03*
X028629Y020929D03*
X028629Y020958D03*
X029499Y024293D03*
X028629Y027150D03*
X028629Y027179D03*
X028629Y027208D03*
X029499Y030543D03*
X035154Y031036D03*
X035154Y031065D03*
X035154Y031094D03*
X035154Y031123D03*
X035154Y031152D03*
X035154Y031181D03*
X035589Y031181D03*
X035589Y031152D03*
X035589Y031123D03*
X035589Y031094D03*
X035589Y031065D03*
X035589Y031036D03*
X035589Y024931D03*
X035589Y024902D03*
X035589Y024873D03*
X035589Y024844D03*
X035589Y024815D03*
X035589Y024786D03*
X035154Y024786D03*
X035154Y024815D03*
X035154Y024844D03*
X035154Y024873D03*
X035154Y024902D03*
X035154Y024931D03*
X035154Y018681D03*
X035154Y018652D03*
X035154Y018623D03*
X035154Y018594D03*
X035154Y018565D03*
X035154Y018536D03*
X035589Y018536D03*
X035589Y018565D03*
X035589Y018594D03*
X035589Y018623D03*
X035589Y018652D03*
X035589Y018681D03*
D31*
X036532Y018681D03*
X032762Y018478D03*
X032762Y018449D03*
X032762Y018420D03*
X032762Y018391D03*
X032762Y018362D03*
X032762Y018333D03*
X032762Y018304D03*
X031167Y018043D03*
X031167Y018014D03*
X031167Y017985D03*
X031167Y017956D03*
X031167Y017927D03*
X031167Y017463D03*
X030297Y017985D03*
X030297Y018014D03*
X030297Y018043D03*
X028557Y020320D03*
X026092Y022466D03*
X026092Y022495D03*
X026092Y022524D03*
X026092Y022553D03*
X026092Y022582D03*
X026092Y022611D03*
X030297Y024235D03*
X030297Y024264D03*
X030297Y024293D03*
X031167Y024293D03*
X031167Y024264D03*
X031167Y024235D03*
X031167Y024206D03*
X031167Y024177D03*
X031167Y023713D03*
X032762Y024554D03*
X032762Y024583D03*
X032762Y024612D03*
X032762Y024641D03*
X032762Y024670D03*
X032762Y024699D03*
X032762Y024728D03*
X036532Y024931D03*
X031167Y029963D03*
X031167Y030427D03*
X031167Y030456D03*
X031167Y030485D03*
X031167Y030514D03*
X031167Y030543D03*
X030297Y030543D03*
X030297Y030514D03*
X030297Y030485D03*
X032762Y030804D03*
X032762Y030833D03*
X032762Y030862D03*
X032762Y030891D03*
X032762Y030920D03*
X032762Y030949D03*
X032762Y030978D03*
X036532Y031181D03*
X028557Y026570D03*
X026092Y028716D03*
X026092Y028745D03*
X026092Y028774D03*
X026092Y028803D03*
X026092Y028832D03*
X026092Y028861D03*
X026092Y016361D03*
X026092Y016332D03*
X026092Y016303D03*
X026092Y016274D03*
X026092Y016245D03*
X026092Y016216D03*
X028557Y014070D03*
X030297Y011793D03*
X030297Y011764D03*
X030297Y011735D03*
X031167Y011735D03*
X031167Y011706D03*
X031167Y011677D03*
X031167Y011764D03*
X031167Y011793D03*
X031167Y011213D03*
X032762Y012054D03*
X032762Y012083D03*
X032762Y012112D03*
X032762Y012141D03*
X032762Y012170D03*
X032762Y012199D03*
X032762Y012228D03*
X036532Y012431D03*
X036532Y006181D03*
X032762Y005978D03*
X032762Y005949D03*
X032762Y005920D03*
X032762Y005891D03*
X032762Y005862D03*
X032762Y005833D03*
X032762Y005804D03*
X031167Y005543D03*
X031167Y005514D03*
X031167Y005485D03*
X031167Y005456D03*
X031167Y005427D03*
X031167Y004963D03*
X030297Y005485D03*
X030297Y005514D03*
X030297Y005543D03*
X028557Y007820D03*
X026092Y009966D03*
X026092Y009995D03*
X026092Y010024D03*
X026092Y010053D03*
X026092Y010082D03*
X026092Y010111D03*
X026092Y003861D03*
X026092Y003832D03*
X026092Y003803D03*
X026092Y003774D03*
X026092Y003745D03*
X026092Y003716D03*
X028557Y001570D03*
D32*
X030369Y003977D03*
X030891Y004412D03*
X030369Y004702D03*
X031906Y004731D03*
X031877Y003919D03*
X033124Y003658D03*
X033124Y003629D03*
X033182Y003890D03*
X033182Y003919D03*
X033501Y003658D03*
X033501Y003629D03*
X034371Y004441D03*
X034052Y004992D03*
X033269Y004876D03*
X033269Y004847D03*
X033269Y004818D03*
X033472Y006152D03*
X035357Y006152D03*
X035357Y006123D03*
X035357Y006094D03*
X035357Y006065D03*
X035357Y006036D03*
X035357Y006007D03*
X033501Y009879D03*
X033501Y009908D03*
X033124Y009908D03*
X033124Y009879D03*
X033182Y010140D03*
X033182Y010169D03*
X033269Y011068D03*
X033269Y011097D03*
X033269Y011126D03*
X034052Y011242D03*
X034371Y010691D03*
X035357Y012257D03*
X035357Y012286D03*
X035357Y012315D03*
X035357Y012344D03*
X035357Y012373D03*
X035357Y012402D03*
X033472Y012402D03*
X031906Y010981D03*
X031877Y010169D03*
X030891Y010662D03*
X030369Y010952D03*
X030369Y010227D03*
X028629Y011387D03*
X033124Y016129D03*
X033124Y016158D03*
X033182Y016390D03*
X033182Y016419D03*
X033501Y016158D03*
X033501Y016129D03*
X034371Y016941D03*
X034052Y017492D03*
X033269Y017376D03*
X033269Y017347D03*
X033269Y017318D03*
X031906Y017231D03*
X031877Y016419D03*
X030891Y016912D03*
X030369Y017202D03*
X030369Y016477D03*
X028629Y017637D03*
X033472Y018652D03*
X035357Y018652D03*
X035357Y018623D03*
X035357Y018594D03*
X035357Y018565D03*
X035357Y018536D03*
X035357Y018507D03*
X033501Y022379D03*
X033501Y022408D03*
X033124Y022408D03*
X033124Y022379D03*
X033182Y022640D03*
X033182Y022669D03*
X033269Y023568D03*
X033269Y023597D03*
X033269Y023626D03*
X034052Y023742D03*
X034371Y023191D03*
X035357Y024757D03*
X035357Y024786D03*
X035357Y024815D03*
X035357Y024844D03*
X035357Y024873D03*
X035357Y024902D03*
X033472Y024902D03*
X031906Y023481D03*
X031877Y022669D03*
X030891Y023162D03*
X030369Y023452D03*
X030369Y022727D03*
X028629Y023887D03*
X031877Y028919D03*
X031906Y029731D03*
X030891Y029412D03*
X030369Y029702D03*
X030369Y028977D03*
X028629Y030137D03*
X033269Y029876D03*
X033269Y029847D03*
X033269Y029818D03*
X034052Y029992D03*
X034371Y029441D03*
X033501Y028658D03*
X033501Y028629D03*
X033124Y028629D03*
X033124Y028658D03*
X033182Y028890D03*
X033182Y028919D03*
X033472Y031152D03*
X035357Y031152D03*
X035357Y031123D03*
X035357Y031094D03*
X035357Y031065D03*
X035357Y031036D03*
X035357Y031007D03*
X028629Y005137D03*
D33*
X027150Y006007D03*
X027150Y006036D03*
X027150Y006065D03*
X027150Y006094D03*
X027150Y006123D03*
X024627Y004122D03*
X029296Y003310D03*
X029905Y003513D03*
X030050Y003310D03*
X031587Y005050D03*
X032950Y004180D03*
X033153Y003397D03*
X033153Y009647D03*
X032950Y010430D03*
X031587Y011300D03*
X029905Y009763D03*
X030050Y009560D03*
X029296Y009560D03*
X027150Y012257D03*
X027150Y012286D03*
X027150Y012315D03*
X027150Y012344D03*
X027150Y012373D03*
X024627Y010372D03*
X029296Y015810D03*
X029905Y016013D03*
X030050Y015810D03*
X031587Y017550D03*
X032950Y016680D03*
X033153Y015897D03*
X027150Y018507D03*
X027150Y018536D03*
X027150Y018565D03*
X027150Y018594D03*
X027150Y018623D03*
X024627Y016622D03*
X029296Y022060D03*
X029905Y022263D03*
X030050Y022060D03*
X031587Y023800D03*
X032950Y022930D03*
X033153Y022147D03*
X027150Y024757D03*
X027150Y024786D03*
X027150Y024815D03*
X027150Y024844D03*
X027150Y024873D03*
X024627Y022872D03*
X029296Y028310D03*
X029905Y028513D03*
X030050Y028310D03*
X031587Y030050D03*
X032950Y029180D03*
X033153Y028397D03*
X027150Y031007D03*
X027150Y031036D03*
X027150Y031065D03*
X027150Y031094D03*
X027150Y031123D03*
X024627Y029122D03*
D34*
X034270Y030978D03*
X034270Y024728D03*
X034270Y018478D03*
X034270Y012228D03*
X034270Y005978D03*
D35*
X034154Y005688D03*
X034067Y005572D03*
X034183Y004934D03*
X033603Y004006D03*
X033574Y003948D03*
X033545Y003919D03*
X033487Y003600D03*
X033487Y003571D03*
X033139Y003687D03*
X033139Y003716D03*
X033139Y003774D03*
X033168Y004035D03*
X033168Y004122D03*
X033226Y004615D03*
X033226Y004644D03*
X033226Y004673D03*
X033226Y004702D03*
X030877Y004441D03*
X030848Y004499D03*
X030355Y003948D03*
X030007Y004180D03*
X029311Y005369D03*
X029311Y005398D03*
X029311Y005427D03*
X029311Y005456D03*
X029311Y005485D03*
X029311Y005514D03*
X029311Y005543D03*
X029862Y005601D03*
X029862Y005630D03*
X029862Y005659D03*
X029862Y005688D03*
X029862Y005717D03*
X029862Y005746D03*
X029862Y005775D03*
X030906Y005543D03*
X028760Y002469D03*
X025309Y004122D03*
X023598Y004354D03*
X023598Y004383D03*
X023598Y004412D03*
X023598Y004441D03*
X023598Y004470D03*
X023598Y004499D03*
X028760Y008719D03*
X030355Y010198D03*
X030007Y010430D03*
X030848Y010749D03*
X030877Y010691D03*
X030906Y011793D03*
X029862Y011851D03*
X029862Y011880D03*
X029862Y011909D03*
X029862Y011938D03*
X029862Y011967D03*
X029862Y011996D03*
X029862Y012025D03*
X029311Y011793D03*
X029311Y011764D03*
X029311Y011735D03*
X029311Y011706D03*
X029311Y011677D03*
X029311Y011648D03*
X029311Y011619D03*
X028760Y014969D03*
X030355Y016448D03*
X030007Y016680D03*
X030848Y016999D03*
X030877Y016941D03*
X030906Y018043D03*
X029862Y018101D03*
X029862Y018130D03*
X029862Y018159D03*
X029862Y018188D03*
X029862Y018217D03*
X029862Y018246D03*
X029862Y018275D03*
X029311Y018043D03*
X029311Y018014D03*
X029311Y017985D03*
X029311Y017956D03*
X029311Y017927D03*
X029311Y017898D03*
X029311Y017869D03*
X028760Y021219D03*
X030007Y022930D03*
X030355Y022698D03*
X030877Y023191D03*
X030848Y023249D03*
X030906Y024293D03*
X029862Y024351D03*
X029862Y024380D03*
X029862Y024409D03*
X029862Y024438D03*
X029862Y024467D03*
X029862Y024496D03*
X029862Y024525D03*
X029311Y024293D03*
X029311Y024264D03*
X029311Y024235D03*
X029311Y024206D03*
X029311Y024177D03*
X029311Y024148D03*
X029311Y024119D03*
X028760Y027469D03*
X030355Y028948D03*
X030007Y029180D03*
X030848Y029499D03*
X030877Y029441D03*
X030906Y030543D03*
X029862Y030601D03*
X029862Y030630D03*
X029862Y030659D03*
X029862Y030688D03*
X029862Y030717D03*
X029862Y030746D03*
X029862Y030775D03*
X029311Y030543D03*
X029311Y030514D03*
X029311Y030485D03*
X029311Y030456D03*
X029311Y030427D03*
X029311Y030398D03*
X029311Y030369D03*
X033226Y029702D03*
X033226Y029673D03*
X033226Y029644D03*
X033226Y029615D03*
X033168Y029122D03*
X033168Y029035D03*
X033139Y028774D03*
X033139Y028716D03*
X033139Y028687D03*
X033487Y028600D03*
X033487Y028571D03*
X033545Y028919D03*
X033574Y028948D03*
X033603Y029006D03*
X034183Y029934D03*
X034067Y030572D03*
X034154Y030688D03*
X035691Y030978D03*
X035691Y024728D03*
X034154Y024438D03*
X034067Y024322D03*
X034183Y023684D03*
X033226Y023452D03*
X033226Y023423D03*
X033226Y023394D03*
X033226Y023365D03*
X033168Y022872D03*
X033168Y022785D03*
X033139Y022524D03*
X033139Y022466D03*
X033139Y022437D03*
X033487Y022350D03*
X033487Y022321D03*
X033545Y022669D03*
X033574Y022698D03*
X033603Y022756D03*
X035691Y018478D03*
X034154Y018188D03*
X034067Y018072D03*
X034183Y017434D03*
X033226Y017202D03*
X033226Y017173D03*
X033226Y017144D03*
X033226Y017115D03*
X033168Y016622D03*
X033168Y016535D03*
X033139Y016274D03*
X033139Y016216D03*
X033139Y016187D03*
X033487Y016100D03*
X033487Y016071D03*
X033545Y016419D03*
X033574Y016448D03*
X033603Y016506D03*
X035691Y012228D03*
X034154Y011938D03*
X034067Y011822D03*
X034183Y011184D03*
X033226Y010952D03*
X033226Y010923D03*
X033226Y010894D03*
X033226Y010865D03*
X033168Y010372D03*
X033168Y010285D03*
X033139Y010024D03*
X033139Y009966D03*
X033139Y009937D03*
X033487Y009850D03*
X033487Y009821D03*
X033545Y010169D03*
X033574Y010198D03*
X033603Y010256D03*
X035691Y005978D03*
X025309Y010372D03*
X023598Y010604D03*
X023598Y010633D03*
X023598Y010662D03*
X023598Y010691D03*
X023598Y010720D03*
X023598Y010749D03*
X025309Y016622D03*
X023598Y016854D03*
X023598Y016883D03*
X023598Y016912D03*
X023598Y016941D03*
X023598Y016970D03*
X023598Y016999D03*
X025309Y022872D03*
X023598Y023104D03*
X023598Y023133D03*
X023598Y023162D03*
X023598Y023191D03*
X023598Y023220D03*
X023598Y023249D03*
X025309Y029122D03*
X023598Y029354D03*
X023598Y029383D03*
X023598Y029412D03*
X023598Y029441D03*
X023598Y029470D03*
X023598Y029499D03*
D36*
X034081Y030804D03*
X034081Y030833D03*
X034081Y030862D03*
X034081Y030891D03*
X034081Y030920D03*
X034081Y030949D03*
X034081Y024699D03*
X034081Y024670D03*
X034081Y024641D03*
X034081Y024612D03*
X034081Y024583D03*
X034081Y024554D03*
X034081Y018449D03*
X034081Y018420D03*
X034081Y018391D03*
X034081Y018362D03*
X034081Y018333D03*
X034081Y018304D03*
X034081Y012199D03*
X034081Y012170D03*
X034081Y012141D03*
X034081Y012112D03*
X034081Y012083D03*
X034081Y012054D03*
X034081Y005949D03*
X034081Y005920D03*
X034081Y005891D03*
X034081Y005862D03*
X034081Y005833D03*
X034081Y005804D03*
D37*
X034038Y005543D03*
X033313Y005572D03*
X033313Y005601D03*
X033313Y005630D03*
X033226Y004992D03*
X033226Y004963D03*
X033226Y004934D03*
X033603Y004238D03*
X034328Y004818D03*
X033313Y002962D03*
X030761Y004963D03*
X030761Y004992D03*
X030761Y005021D03*
X030036Y004209D03*
X029688Y004267D03*
X029688Y004528D03*
X029688Y004557D03*
X029166Y005601D03*
X029166Y005630D03*
X029166Y005659D03*
X029166Y005688D03*
X029166Y005717D03*
X029166Y005746D03*
X029166Y005775D03*
X028818Y002672D03*
X028818Y002643D03*
X025773Y004122D03*
X028818Y008893D03*
X028818Y008922D03*
X029688Y010517D03*
X029688Y010778D03*
X029688Y010807D03*
X030036Y010459D03*
X030761Y011213D03*
X030761Y011242D03*
X030761Y011271D03*
X029166Y011851D03*
X029166Y011880D03*
X029166Y011909D03*
X029166Y011938D03*
X029166Y011967D03*
X029166Y011996D03*
X029166Y012025D03*
X028818Y015143D03*
X028818Y015172D03*
X029688Y016767D03*
X029688Y017028D03*
X029688Y017057D03*
X030036Y016709D03*
X030761Y017463D03*
X030761Y017492D03*
X030761Y017521D03*
X029166Y018101D03*
X029166Y018130D03*
X029166Y018159D03*
X029166Y018188D03*
X029166Y018217D03*
X029166Y018246D03*
X029166Y018275D03*
X025773Y016622D03*
X028818Y021393D03*
X028818Y021422D03*
X030036Y022959D03*
X029688Y023017D03*
X029688Y023278D03*
X029688Y023307D03*
X030761Y023713D03*
X030761Y023742D03*
X030761Y023771D03*
X029166Y024351D03*
X029166Y024380D03*
X029166Y024409D03*
X029166Y024438D03*
X029166Y024467D03*
X029166Y024496D03*
X029166Y024525D03*
X025773Y022872D03*
X028818Y027643D03*
X028818Y027672D03*
X029688Y029267D03*
X029688Y029528D03*
X029688Y029557D03*
X030036Y029209D03*
X030761Y029963D03*
X030761Y029992D03*
X030761Y030021D03*
X029166Y030601D03*
X029166Y030630D03*
X029166Y030659D03*
X029166Y030688D03*
X029166Y030717D03*
X029166Y030746D03*
X029166Y030775D03*
X025773Y029122D03*
X033226Y029934D03*
X033226Y029963D03*
X033226Y029992D03*
X033313Y030572D03*
X033313Y030601D03*
X033313Y030630D03*
X034038Y030543D03*
X034328Y029818D03*
X033603Y029238D03*
X033313Y027962D03*
X033313Y024380D03*
X033313Y024351D03*
X033313Y024322D03*
X033226Y023742D03*
X033226Y023713D03*
X033226Y023684D03*
X033603Y022988D03*
X034328Y023568D03*
X034038Y024293D03*
X033313Y021712D03*
X033313Y018130D03*
X033313Y018101D03*
X033313Y018072D03*
X033226Y017492D03*
X033226Y017463D03*
X033226Y017434D03*
X033603Y016738D03*
X034328Y017318D03*
X034038Y018043D03*
X033313Y015462D03*
X033313Y011880D03*
X033313Y011851D03*
X033313Y011822D03*
X033226Y011242D03*
X033226Y011213D03*
X033226Y011184D03*
X033603Y010488D03*
X034328Y011068D03*
X034038Y011793D03*
X033313Y009212D03*
X025773Y010372D03*
D38*
X032066Y012025D03*
X032066Y018275D03*
X032066Y024525D03*
X032066Y030775D03*
X032066Y005775D03*
D39*
X032283Y004064D03*
X034545Y005775D03*
X032283Y010314D03*
X034545Y012025D03*
X032283Y016564D03*
X034545Y018275D03*
X032283Y022814D03*
X034545Y024525D03*
X032283Y029064D03*
X034545Y030775D03*
D40*
X031616Y030746D03*
X031616Y030717D03*
X031616Y030688D03*
X031616Y030659D03*
X031616Y030630D03*
X031616Y030601D03*
X031616Y024496D03*
X031616Y024467D03*
X031616Y024438D03*
X031616Y024409D03*
X031616Y024380D03*
X031616Y024351D03*
X031616Y018246D03*
X031616Y018217D03*
X031616Y018188D03*
X031616Y018159D03*
X031616Y018130D03*
X031616Y018101D03*
X031616Y011996D03*
X031616Y011967D03*
X031616Y011938D03*
X031616Y011909D03*
X031616Y011880D03*
X031616Y011851D03*
X031616Y005746D03*
X031616Y005717D03*
X031616Y005688D03*
X031616Y005659D03*
X031616Y005630D03*
X031616Y005601D03*
D41*
X030920Y004354D03*
X029499Y003078D03*
X032979Y003165D03*
X033240Y004383D03*
X033240Y004412D03*
X033240Y004441D03*
X033240Y004470D03*
X033994Y005021D03*
X034139Y005630D03*
X032979Y009415D03*
X033240Y010633D03*
X033240Y010662D03*
X033240Y010691D03*
X033240Y010720D03*
X033994Y011271D03*
X034139Y011880D03*
X030920Y010604D03*
X029499Y009328D03*
X029499Y015578D03*
X030920Y016854D03*
X033240Y016883D03*
X033240Y016912D03*
X033240Y016941D03*
X033240Y016970D03*
X033994Y017521D03*
X034139Y018130D03*
X032979Y015665D03*
X032979Y021915D03*
X033240Y023133D03*
X033240Y023162D03*
X033240Y023191D03*
X033240Y023220D03*
X033994Y023771D03*
X034139Y024380D03*
X030920Y023104D03*
X029499Y021828D03*
X029499Y028078D03*
X030920Y029354D03*
X033240Y029383D03*
X033240Y029412D03*
X033240Y029441D03*
X033240Y029470D03*
X033994Y030021D03*
X034139Y030630D03*
X032979Y028165D03*
D42*
X033298Y027991D03*
X033153Y028745D03*
X033153Y028803D03*
X033153Y028832D03*
X033153Y028861D03*
X033588Y028977D03*
X033240Y029499D03*
X033240Y029731D03*
X033240Y029760D03*
X034110Y029963D03*
X034110Y030601D03*
X029528Y029702D03*
X034110Y024351D03*
X034110Y023713D03*
X033240Y023510D03*
X033240Y023481D03*
X033240Y023249D03*
X033588Y022727D03*
X033153Y022611D03*
X033153Y022582D03*
X033153Y022553D03*
X033153Y022495D03*
X033298Y021741D03*
X029528Y023452D03*
X034110Y018101D03*
X034110Y017463D03*
X033240Y017260D03*
X033240Y017231D03*
X033240Y016999D03*
X033588Y016477D03*
X033153Y016361D03*
X033153Y016332D03*
X033153Y016303D03*
X033153Y016245D03*
X033298Y015491D03*
X029528Y017202D03*
X034110Y011851D03*
X034110Y011213D03*
X033240Y011010D03*
X033240Y010981D03*
X033240Y010749D03*
X033588Y010227D03*
X033153Y010111D03*
X033153Y010082D03*
X033153Y010053D03*
X033153Y009995D03*
X033298Y009241D03*
X029528Y010952D03*
X034110Y005601D03*
X034110Y004963D03*
X033240Y004760D03*
X033240Y004731D03*
X033240Y004499D03*
X033588Y003977D03*
X033153Y003861D03*
X033153Y003832D03*
X033153Y003803D03*
X033153Y003745D03*
X033298Y002991D03*
X029528Y004702D03*
D43*
X030587Y005572D03*
X030587Y011822D03*
X030587Y018072D03*
X030587Y024322D03*
X030587Y030572D03*
D44*
X028658Y030543D03*
X028658Y030514D03*
X029702Y028542D03*
X028658Y024293D03*
X028658Y024264D03*
X029702Y022292D03*
X028658Y018043D03*
X028658Y018014D03*
X029702Y016042D03*
X028658Y011793D03*
X028658Y011764D03*
X029702Y009792D03*
X028658Y005543D03*
X028658Y005514D03*
X029702Y003542D03*
D45*
X029441Y003832D03*
X028948Y003803D03*
X028948Y003774D03*
X029180Y004528D03*
X028687Y005224D03*
X024482Y004296D03*
X024482Y004267D03*
X024482Y004238D03*
X024482Y004209D03*
X024482Y004180D03*
X024482Y004151D03*
X028948Y010024D03*
X028948Y010053D03*
X029441Y010082D03*
X029180Y010778D03*
X028687Y011474D03*
X024482Y010546D03*
X024482Y010517D03*
X024482Y010488D03*
X024482Y010459D03*
X024482Y010430D03*
X024482Y010401D03*
X028948Y016274D03*
X028948Y016303D03*
X029441Y016332D03*
X029180Y017028D03*
X028687Y017724D03*
X024482Y016796D03*
X024482Y016767D03*
X024482Y016738D03*
X024482Y016709D03*
X024482Y016680D03*
X024482Y016651D03*
X028948Y022524D03*
X028948Y022553D03*
X029441Y022582D03*
X029180Y023278D03*
X028687Y023974D03*
X024482Y023046D03*
X024482Y023017D03*
X024482Y022988D03*
X024482Y022959D03*
X024482Y022930D03*
X024482Y022901D03*
X028948Y028774D03*
X028948Y028803D03*
X029441Y028832D03*
X029180Y029528D03*
X028687Y030224D03*
X024482Y029296D03*
X024482Y029267D03*
X024482Y029238D03*
X024482Y029209D03*
X024482Y029180D03*
X024482Y029151D03*
X033356Y030398D03*
X033385Y030427D03*
X033385Y030456D03*
X033385Y024206D03*
X033385Y024177D03*
X033356Y024148D03*
X033385Y017956D03*
X033385Y017927D03*
X033356Y017898D03*
X033385Y011706D03*
X033385Y011677D03*
X033356Y011648D03*
X033385Y005456D03*
X033385Y005427D03*
X033356Y005398D03*
D46*
X033342Y005369D03*
X033922Y005050D03*
X032588Y003339D03*
X032646Y003310D03*
X031834Y003890D03*
X030500Y004470D03*
X030500Y004499D03*
X029456Y003803D03*
X029369Y003426D03*
X028934Y003600D03*
X028992Y002991D03*
X028702Y005195D03*
X024874Y003919D03*
X028992Y009241D03*
X029369Y009676D03*
X029456Y010053D03*
X028934Y009850D03*
X030500Y010720D03*
X030500Y010749D03*
X031834Y010140D03*
X032588Y009589D03*
X032646Y009560D03*
X033922Y011300D03*
X033342Y011619D03*
X028702Y011445D03*
X024874Y010169D03*
X028992Y015491D03*
X029369Y015926D03*
X029456Y016303D03*
X028934Y016100D03*
X030500Y016970D03*
X030500Y016999D03*
X031834Y016390D03*
X032588Y015839D03*
X032646Y015810D03*
X033922Y017550D03*
X033342Y017869D03*
X028702Y017695D03*
X024874Y016419D03*
X028992Y021741D03*
X029369Y022176D03*
X029456Y022553D03*
X028934Y022350D03*
X028702Y023945D03*
X030500Y023249D03*
X030500Y023220D03*
X031834Y022640D03*
X032588Y022089D03*
X032646Y022060D03*
X033922Y023800D03*
X033342Y024119D03*
X028992Y027991D03*
X029369Y028426D03*
X029456Y028803D03*
X028934Y028600D03*
X030500Y029470D03*
X030500Y029499D03*
X031834Y028890D03*
X032588Y028339D03*
X032646Y028310D03*
X033922Y030050D03*
X033342Y030369D03*
X028702Y030195D03*
X024874Y028919D03*
X024874Y022669D03*
D47*
X029775Y022756D03*
X030355Y023046D03*
X031022Y023626D03*
X031080Y022350D03*
X033139Y024090D03*
X033429Y023046D03*
X033139Y017840D03*
X033429Y016796D03*
X031080Y016100D03*
X030355Y016796D03*
X029775Y016506D03*
X031022Y017376D03*
X033139Y011590D03*
X033429Y010546D03*
X031080Y009850D03*
X030355Y010546D03*
X029775Y010256D03*
X031022Y011126D03*
X033139Y005340D03*
X033429Y004296D03*
X031080Y003600D03*
X030355Y004296D03*
X029775Y004006D03*
X031022Y004876D03*
X031080Y028600D03*
X030355Y029296D03*
X029775Y029006D03*
X031022Y029876D03*
X033139Y030340D03*
X033429Y029296D03*
D48*
X033023Y030311D03*
X032443Y030021D03*
X031689Y029354D03*
X031602Y029412D03*
X031515Y029499D03*
X031138Y029760D03*
X029688Y028571D03*
X033023Y024061D03*
X032443Y023771D03*
X031689Y023104D03*
X031602Y023162D03*
X031515Y023249D03*
X031138Y023510D03*
X029688Y022321D03*
X033023Y017811D03*
X032443Y017521D03*
X031689Y016854D03*
X031602Y016912D03*
X031515Y016999D03*
X031138Y017260D03*
X029688Y016071D03*
X033023Y011561D03*
X032443Y011271D03*
X031689Y010604D03*
X031602Y010662D03*
X031515Y010749D03*
X031138Y011010D03*
X029688Y009821D03*
X032443Y005021D03*
X033023Y005311D03*
X031689Y004354D03*
X031602Y004412D03*
X031515Y004499D03*
X031138Y004760D03*
X029688Y003571D03*
D49*
X032936Y005282D03*
X033661Y004325D03*
X033661Y010575D03*
X032936Y011532D03*
X033661Y016825D03*
X032936Y017782D03*
X033661Y023075D03*
X032936Y024032D03*
X033661Y029325D03*
X032936Y030282D03*
D50*
X032791Y030253D03*
X032327Y029122D03*
X032791Y024003D03*
X032327Y022872D03*
X032791Y017753D03*
X032327Y016622D03*
X032791Y011503D03*
X032327Y010372D03*
X032791Y005253D03*
X032327Y004122D03*
D51*
X032704Y005224D03*
X030964Y004673D03*
X030964Y010923D03*
X032704Y011474D03*
X030964Y017173D03*
X032704Y017724D03*
X030964Y023423D03*
X032704Y023974D03*
X030964Y029673D03*
X032704Y030224D03*
D52*
X032675Y030195D03*
X030964Y029615D03*
X032675Y023945D03*
X030964Y023365D03*
X032675Y017695D03*
X030964Y017115D03*
X032675Y011445D03*
X030964Y010865D03*
X032675Y005195D03*
X030964Y004615D03*
D53*
X031674Y004905D03*
X031732Y005137D03*
X032196Y005108D03*
X032196Y005079D03*
X032602Y003716D03*
X032631Y003687D03*
X032718Y003629D03*
X032544Y003368D03*
X033240Y003281D03*
X033240Y003049D03*
X034284Y004412D03*
X030485Y004441D03*
X030398Y004035D03*
X029934Y003774D03*
X029470Y003774D03*
X029470Y003745D03*
X029383Y003368D03*
X029383Y003339D03*
X028919Y003455D03*
X028919Y003484D03*
X028919Y003513D03*
X028919Y003542D03*
X028919Y003571D03*
X028919Y003629D03*
X028948Y003716D03*
X028948Y003745D03*
X028716Y005166D03*
X033240Y009299D03*
X033240Y009531D03*
X032718Y009879D03*
X032631Y009937D03*
X032602Y009966D03*
X032544Y009618D03*
X034284Y010662D03*
X032196Y011329D03*
X032196Y011358D03*
X031732Y011387D03*
X031674Y011155D03*
X030485Y010691D03*
X030398Y010285D03*
X029934Y010024D03*
X029470Y010024D03*
X029470Y009995D03*
X029383Y009618D03*
X029383Y009589D03*
X028919Y009705D03*
X028919Y009734D03*
X028919Y009763D03*
X028919Y009792D03*
X028919Y009821D03*
X028919Y009879D03*
X028948Y009966D03*
X028948Y009995D03*
X028716Y011416D03*
X033240Y015549D03*
X033240Y015781D03*
X032718Y016129D03*
X032631Y016187D03*
X032602Y016216D03*
X032544Y015868D03*
X034284Y016912D03*
X032196Y017579D03*
X032196Y017608D03*
X031732Y017637D03*
X031674Y017405D03*
X030485Y016941D03*
X030398Y016535D03*
X029934Y016274D03*
X029470Y016274D03*
X029470Y016245D03*
X029383Y015868D03*
X029383Y015839D03*
X028919Y015955D03*
X028919Y015984D03*
X028919Y016013D03*
X028919Y016042D03*
X028919Y016071D03*
X028919Y016129D03*
X028948Y016216D03*
X028948Y016245D03*
X028716Y017666D03*
X033240Y021799D03*
X033240Y022031D03*
X032718Y022379D03*
X032631Y022437D03*
X032602Y022466D03*
X032544Y022118D03*
X034284Y023162D03*
X032196Y023829D03*
X032196Y023858D03*
X031732Y023887D03*
X031674Y023655D03*
X030485Y023191D03*
X030398Y022785D03*
X029934Y022524D03*
X029470Y022524D03*
X029470Y022495D03*
X029383Y022118D03*
X029383Y022089D03*
X028919Y022205D03*
X028919Y022234D03*
X028919Y022263D03*
X028919Y022292D03*
X028919Y022321D03*
X028919Y022379D03*
X028948Y022466D03*
X028948Y022495D03*
X028716Y023916D03*
X033240Y028049D03*
X033240Y028281D03*
X032544Y028368D03*
X032718Y028629D03*
X032631Y028687D03*
X032602Y028716D03*
X031674Y029905D03*
X031732Y030137D03*
X032196Y030108D03*
X032196Y030079D03*
X030485Y029441D03*
X030398Y029035D03*
X029934Y028774D03*
X029470Y028774D03*
X029470Y028745D03*
X029383Y028368D03*
X029383Y028339D03*
X028919Y028455D03*
X028919Y028484D03*
X028919Y028513D03*
X028919Y028542D03*
X028919Y028571D03*
X028919Y028629D03*
X028948Y028716D03*
X028948Y028745D03*
X028716Y030166D03*
X034284Y029412D03*
D54*
X033182Y030166D03*
X033182Y023916D03*
X033182Y017666D03*
X033182Y011416D03*
X033182Y005166D03*
D55*
X032211Y005137D03*
X029021Y003020D03*
X025396Y003948D03*
X025396Y003977D03*
X025396Y004006D03*
X025396Y004035D03*
X025396Y004064D03*
X025396Y004093D03*
X029021Y009270D03*
X032211Y011387D03*
X029021Y015520D03*
X032211Y017637D03*
X029021Y021770D03*
X032211Y023887D03*
X029021Y028020D03*
X032211Y030137D03*
X025396Y029093D03*
X025396Y029064D03*
X025396Y029035D03*
X025396Y029006D03*
X025396Y028977D03*
X025396Y028948D03*
X025396Y022843D03*
X025396Y022814D03*
X025396Y022785D03*
X025396Y022756D03*
X025396Y022727D03*
X025396Y022698D03*
X025396Y016593D03*
X025396Y016564D03*
X025396Y016535D03*
X025396Y016506D03*
X025396Y016477D03*
X025396Y016448D03*
X025396Y010343D03*
X025396Y010314D03*
X025396Y010285D03*
X025396Y010256D03*
X025396Y010227D03*
X025396Y010198D03*
D56*
X030326Y009734D03*
X033197Y011387D03*
X030326Y015984D03*
X033197Y017637D03*
X030326Y022234D03*
X033197Y023887D03*
X030326Y028484D03*
X033197Y030137D03*
X033197Y005137D03*
X030326Y003484D03*
D57*
X029963Y003803D03*
X030427Y004064D03*
X030456Y004412D03*
X029209Y004557D03*
X031645Y004934D03*
X031703Y005108D03*
X031935Y004789D03*
X032457Y003832D03*
X032486Y003803D03*
X032312Y003484D03*
X032254Y003513D03*
X032196Y003542D03*
X032138Y003571D03*
X032109Y003600D03*
X032370Y003455D03*
X032428Y003426D03*
X033008Y003426D03*
X033211Y003310D03*
X033211Y009560D03*
X033008Y009676D03*
X032428Y009676D03*
X032370Y009705D03*
X032312Y009734D03*
X032254Y009763D03*
X032196Y009792D03*
X032138Y009821D03*
X032109Y009850D03*
X032457Y010082D03*
X032486Y010053D03*
X031935Y011039D03*
X031645Y011184D03*
X031703Y011358D03*
X030456Y010662D03*
X030427Y010314D03*
X029963Y010053D03*
X029209Y010807D03*
X032370Y015955D03*
X032312Y015984D03*
X032254Y016013D03*
X032196Y016042D03*
X032138Y016071D03*
X032109Y016100D03*
X032428Y015926D03*
X032486Y016303D03*
X032457Y016332D03*
X033008Y015926D03*
X033211Y015810D03*
X031935Y017289D03*
X031645Y017434D03*
X031703Y017608D03*
X030456Y016912D03*
X030427Y016564D03*
X029963Y016303D03*
X029209Y017057D03*
X032196Y022292D03*
X032138Y022321D03*
X032109Y022350D03*
X032254Y022263D03*
X032312Y022234D03*
X032370Y022205D03*
X032428Y022176D03*
X032486Y022553D03*
X032457Y022582D03*
X033008Y022176D03*
X033211Y022060D03*
X031935Y023539D03*
X031645Y023684D03*
X031703Y023858D03*
X030456Y023162D03*
X030427Y022814D03*
X029963Y022553D03*
X029209Y023307D03*
X032138Y028571D03*
X032109Y028600D03*
X032196Y028542D03*
X032254Y028513D03*
X032312Y028484D03*
X032370Y028455D03*
X032428Y028426D03*
X032486Y028803D03*
X032457Y028832D03*
X033008Y028426D03*
X033211Y028310D03*
X031935Y029789D03*
X031645Y029934D03*
X031703Y030108D03*
X030456Y029412D03*
X030427Y029064D03*
X029963Y028803D03*
X029209Y029557D03*
D58*
X029441Y028165D03*
X033211Y030108D03*
X033211Y023858D03*
X029441Y021915D03*
X033211Y017608D03*
X029441Y015665D03*
X033211Y011358D03*
X029441Y009415D03*
X033211Y005108D03*
X029441Y003165D03*
D59*
X029963Y003832D03*
X031645Y005079D03*
X033095Y004238D03*
X029963Y010082D03*
X031645Y011329D03*
X033095Y010488D03*
X029963Y016332D03*
X031645Y017579D03*
X033095Y016738D03*
X029963Y022582D03*
X031645Y023829D03*
X033095Y022988D03*
X029963Y028832D03*
X031645Y030079D03*
X033095Y029238D03*
D60*
X032921Y030079D03*
X031877Y029209D03*
X031645Y028774D03*
X032921Y023829D03*
X031877Y022959D03*
X031645Y022524D03*
X032921Y017579D03*
X031877Y016709D03*
X031645Y016274D03*
X032921Y011329D03*
X031877Y010459D03*
X031645Y010024D03*
X032921Y005079D03*
X031877Y004209D03*
X031645Y003774D03*
D61*
X032341Y003919D03*
X032979Y003484D03*
X033762Y005079D03*
X030456Y004093D03*
X029876Y004151D03*
X026541Y003861D03*
X026541Y003832D03*
X026541Y003803D03*
X026541Y003774D03*
X026541Y003745D03*
X026541Y003716D03*
X026541Y009966D03*
X026541Y009995D03*
X026541Y010024D03*
X026541Y010053D03*
X026541Y010082D03*
X026541Y010111D03*
X029876Y010401D03*
X030456Y010343D03*
X032341Y010169D03*
X032979Y009734D03*
X033762Y011329D03*
X032979Y015984D03*
X032341Y016419D03*
X033762Y017579D03*
X030456Y016593D03*
X029876Y016651D03*
X026541Y016361D03*
X026541Y016332D03*
X026541Y016303D03*
X026541Y016274D03*
X026541Y016245D03*
X026541Y016216D03*
X032979Y022234D03*
X032341Y022669D03*
X033762Y023829D03*
X030456Y022843D03*
X029876Y022901D03*
X026541Y022611D03*
X026541Y022582D03*
X026541Y022553D03*
X026541Y022524D03*
X026541Y022495D03*
X026541Y022466D03*
X032979Y028484D03*
X032341Y028919D03*
X033762Y030079D03*
X030456Y029093D03*
X029876Y029151D03*
X026541Y028861D03*
X026541Y028832D03*
X026541Y028803D03*
X026541Y028774D03*
X026541Y028745D03*
X026541Y028716D03*
D62*
X028934Y028687D03*
X028934Y028658D03*
X028934Y028252D03*
X028934Y028223D03*
X028934Y028194D03*
X032472Y028397D03*
X032675Y028658D03*
X032559Y028745D03*
X032530Y028774D03*
X033197Y028078D03*
X032182Y030050D03*
X032182Y023800D03*
X032530Y022524D03*
X032559Y022495D03*
X032675Y022408D03*
X032472Y022147D03*
X033197Y021828D03*
X028934Y021944D03*
X028934Y021973D03*
X028934Y022002D03*
X028934Y022408D03*
X028934Y022437D03*
X032182Y017550D03*
X032530Y016274D03*
X032559Y016245D03*
X032675Y016158D03*
X032472Y015897D03*
X033197Y015578D03*
X028934Y015694D03*
X028934Y015723D03*
X028934Y015752D03*
X028934Y016158D03*
X028934Y016187D03*
X032182Y011300D03*
X032530Y010024D03*
X032559Y009995D03*
X032675Y009908D03*
X032472Y009647D03*
X033197Y009328D03*
X028934Y009444D03*
X028934Y009473D03*
X028934Y009502D03*
X028934Y009908D03*
X028934Y009937D03*
X032182Y005050D03*
X032530Y003774D03*
X032559Y003745D03*
X032675Y003658D03*
X032472Y003397D03*
X033197Y003078D03*
X028934Y003194D03*
X028934Y003223D03*
X028934Y003252D03*
X028934Y003658D03*
X028934Y003687D03*
D63*
X029804Y004064D03*
X030529Y004180D03*
X030993Y004905D03*
X031573Y005021D03*
X032269Y004905D03*
X032269Y003977D03*
X032907Y003571D03*
X032907Y009821D03*
X032269Y010227D03*
X032269Y011155D03*
X031573Y011271D03*
X030993Y011155D03*
X030529Y010430D03*
X029804Y010314D03*
X032907Y016071D03*
X032269Y016477D03*
X032269Y017405D03*
X031573Y017521D03*
X030993Y017405D03*
X030529Y016680D03*
X029804Y016564D03*
X032907Y022321D03*
X032269Y022727D03*
X032269Y023655D03*
X031573Y023771D03*
X030993Y023655D03*
X030529Y022930D03*
X029804Y022814D03*
X032907Y028571D03*
X032269Y028977D03*
X032269Y029905D03*
X031573Y030021D03*
X030993Y029905D03*
X030529Y029180D03*
X029804Y029064D03*
D64*
X029833Y029093D03*
X029978Y028861D03*
X030500Y029151D03*
X029398Y029673D03*
X031573Y029992D03*
X032936Y028542D03*
X031573Y023742D03*
X030500Y022901D03*
X029978Y022611D03*
X029833Y022843D03*
X029398Y023423D03*
X032936Y022292D03*
X031573Y017492D03*
X030500Y016651D03*
X029978Y016361D03*
X029833Y016593D03*
X029398Y017173D03*
X032936Y016042D03*
X031573Y011242D03*
X030500Y010401D03*
X029978Y010111D03*
X029833Y010343D03*
X029398Y010923D03*
X032936Y009792D03*
X031573Y004992D03*
X030500Y004151D03*
X029978Y003861D03*
X029833Y004093D03*
X029398Y004673D03*
X032936Y003542D03*
D65*
X031921Y004180D03*
X032385Y004992D03*
X033980Y004383D03*
X029340Y004586D03*
X029311Y004644D03*
X031921Y010430D03*
X032385Y011242D03*
X033980Y010633D03*
X029340Y010836D03*
X029311Y010894D03*
X031921Y016680D03*
X032385Y017492D03*
X033980Y016883D03*
X029340Y017086D03*
X029311Y017144D03*
X031921Y022930D03*
X032385Y023742D03*
X033980Y023133D03*
X029340Y023336D03*
X029311Y023394D03*
X031921Y029180D03*
X032385Y029992D03*
X033980Y029383D03*
X029340Y029586D03*
X029311Y029644D03*
D66*
X029644Y028629D03*
X030601Y029267D03*
X031239Y028658D03*
X031964Y029151D03*
X032341Y029963D03*
X032341Y023713D03*
X031964Y022901D03*
X031239Y022408D03*
X030601Y023017D03*
X029644Y022379D03*
X032341Y017463D03*
X031964Y016651D03*
X031239Y016158D03*
X030601Y016767D03*
X029644Y016129D03*
X032341Y011213D03*
X031964Y010401D03*
X031239Y009908D03*
X030601Y010517D03*
X029644Y009879D03*
X032341Y004963D03*
X031964Y004151D03*
X031239Y003658D03*
X030601Y004267D03*
X029644Y003629D03*
D67*
X029760Y003948D03*
X029325Y004615D03*
X031065Y004847D03*
X031993Y004847D03*
X029760Y010198D03*
X029325Y010865D03*
X031065Y011097D03*
X031993Y011097D03*
X029760Y016448D03*
X029325Y017115D03*
X031065Y017347D03*
X031993Y017347D03*
X029760Y022698D03*
X029325Y023365D03*
X031065Y023597D03*
X031993Y023597D03*
X029760Y028948D03*
X029325Y029615D03*
X031065Y029847D03*
X031993Y029847D03*
D68*
X031834Y029238D03*
X032298Y029035D03*
X031109Y029818D03*
X031109Y023568D03*
X031834Y022988D03*
X032298Y022785D03*
X031109Y017318D03*
X031834Y016738D03*
X032298Y016535D03*
X031109Y011068D03*
X031834Y010488D03*
X032298Y010285D03*
X031109Y004818D03*
X031834Y004238D03*
X032298Y004035D03*
D69*
X031964Y004818D03*
X031964Y011068D03*
X031964Y017318D03*
X031964Y023568D03*
X031964Y029818D03*
D70*
X031587Y029441D03*
X031558Y029470D03*
X031471Y029528D03*
X031645Y029383D03*
X031703Y029325D03*
X031790Y029267D03*
X031123Y029789D03*
X030485Y029528D03*
X030137Y028368D03*
X029673Y028600D03*
X031123Y023539D03*
X031471Y023278D03*
X031558Y023220D03*
X031587Y023191D03*
X031645Y023133D03*
X031703Y023075D03*
X031790Y023017D03*
X030485Y023278D03*
X029673Y022350D03*
X030137Y022118D03*
X031123Y017289D03*
X031471Y017028D03*
X031558Y016970D03*
X031587Y016941D03*
X031645Y016883D03*
X031703Y016825D03*
X031790Y016767D03*
X030485Y017028D03*
X029673Y016100D03*
X030137Y015868D03*
X031123Y011039D03*
X031471Y010778D03*
X031558Y010720D03*
X031587Y010691D03*
X031645Y010633D03*
X031703Y010575D03*
X031790Y010517D03*
X030485Y010778D03*
X029673Y009850D03*
X030137Y009618D03*
X031123Y004789D03*
X031471Y004528D03*
X031558Y004470D03*
X031587Y004441D03*
X031645Y004383D03*
X031703Y004325D03*
X031790Y004267D03*
X030485Y004528D03*
X030137Y003368D03*
X029673Y003600D03*
D71*
X029760Y003223D03*
X030195Y003397D03*
X031616Y003745D03*
X031152Y004731D03*
X029760Y009473D03*
X030195Y009647D03*
X031616Y009995D03*
X031152Y010981D03*
X029760Y015723D03*
X030195Y015897D03*
X031616Y016245D03*
X031152Y017231D03*
X029760Y021973D03*
X030195Y022147D03*
X031616Y022495D03*
X031152Y023481D03*
X029760Y028223D03*
X030195Y028397D03*
X031616Y028745D03*
X031152Y029731D03*
D72*
X031181Y029702D03*
X031181Y023452D03*
X031181Y017202D03*
X031181Y010952D03*
X031181Y004702D03*
D73*
X030949Y004644D03*
X030949Y010894D03*
X030949Y017144D03*
X030949Y023394D03*
X030949Y029644D03*
D74*
X030964Y029586D03*
X030964Y023336D03*
X030964Y017086D03*
X030964Y010836D03*
X030964Y004586D03*
D75*
X030978Y004557D03*
X030978Y010807D03*
X030978Y017057D03*
X030978Y023307D03*
X030978Y029557D03*
D76*
X032283Y029093D03*
X032283Y022843D03*
X032283Y016593D03*
X032283Y010343D03*
X032283Y004093D03*
X023090Y004528D03*
X023090Y010778D03*
X023090Y017028D03*
X023090Y023278D03*
X023090Y029528D03*
D77*
X025367Y028919D03*
X026556Y028687D03*
X029021Y028049D03*
X030442Y029383D03*
X032008Y028658D03*
X032066Y028629D03*
X032385Y028890D03*
X032414Y028861D03*
X033023Y029209D03*
X032994Y028455D03*
X033197Y028339D03*
X033168Y028107D03*
X030442Y023133D03*
X032008Y022408D03*
X032066Y022379D03*
X032385Y022640D03*
X032414Y022611D03*
X033023Y022959D03*
X032994Y022205D03*
X033197Y022089D03*
X033168Y021857D03*
X029021Y021799D03*
X026556Y022437D03*
X025367Y022669D03*
X030442Y016883D03*
X032008Y016158D03*
X032066Y016129D03*
X032385Y016390D03*
X032414Y016361D03*
X033023Y016709D03*
X032994Y015955D03*
X033197Y015839D03*
X033168Y015607D03*
X029021Y015549D03*
X026556Y016187D03*
X025367Y016419D03*
X030442Y010633D03*
X032008Y009908D03*
X032066Y009879D03*
X032385Y010140D03*
X032414Y010111D03*
X033023Y010459D03*
X032994Y009705D03*
X033197Y009589D03*
X033168Y009357D03*
X029021Y009299D03*
X026556Y009937D03*
X025367Y010169D03*
X030442Y004383D03*
X032008Y003658D03*
X032066Y003629D03*
X032385Y003890D03*
X032414Y003861D03*
X033023Y004209D03*
X032994Y003455D03*
X033197Y003339D03*
X033168Y003107D03*
X029021Y003049D03*
X026556Y003687D03*
X025367Y003919D03*
D78*
X031587Y003687D03*
X033733Y004354D03*
X031587Y009937D03*
X033733Y010604D03*
X031587Y016187D03*
X033733Y016854D03*
X031587Y022437D03*
X033733Y023104D03*
X031587Y028687D03*
X033733Y029354D03*
D79*
X031587Y028716D03*
X031587Y022466D03*
X031587Y016216D03*
X031587Y009966D03*
X031587Y003716D03*
X024076Y004325D03*
X024076Y010575D03*
X024076Y016825D03*
X024076Y023075D03*
X024076Y029325D03*
D80*
X031747Y029296D03*
X031747Y023046D03*
X031747Y016796D03*
X031747Y010546D03*
X031747Y004296D03*
D81*
X032283Y004006D03*
X033327Y004267D03*
X031152Y003629D03*
X030949Y003571D03*
X030572Y004238D03*
X029760Y003977D03*
X029615Y003687D03*
X029615Y003658D03*
X029615Y009908D03*
X029615Y009937D03*
X029760Y010227D03*
X030572Y010488D03*
X030949Y009821D03*
X031152Y009879D03*
X032283Y010256D03*
X033327Y010517D03*
X031152Y016129D03*
X030949Y016071D03*
X030572Y016738D03*
X029760Y016477D03*
X029615Y016187D03*
X029615Y016158D03*
X032283Y016506D03*
X033327Y016767D03*
X031152Y022379D03*
X030949Y022321D03*
X030572Y022988D03*
X029760Y022727D03*
X029615Y022437D03*
X029615Y022408D03*
X032283Y022756D03*
X033327Y023017D03*
X030949Y028571D03*
X031152Y028629D03*
X030572Y029238D03*
X029760Y028977D03*
X029615Y028687D03*
X029615Y028658D03*
X032283Y029006D03*
X033327Y029267D03*
D82*
X032950Y028513D03*
X033182Y028368D03*
X029847Y029122D03*
X025961Y028919D03*
X025961Y022669D03*
X029847Y022872D03*
X032950Y022263D03*
X033182Y022118D03*
X029847Y016622D03*
X032950Y016013D03*
X033182Y015868D03*
X029847Y010372D03*
X032950Y009763D03*
X033182Y009618D03*
X029847Y004122D03*
X032950Y003513D03*
X033182Y003368D03*
X025961Y003919D03*
X025961Y010169D03*
X025961Y016419D03*
D83*
X029746Y015752D03*
X029862Y016419D03*
X029746Y022002D03*
X029862Y022669D03*
X029746Y028252D03*
X029862Y028919D03*
X029862Y010169D03*
X029746Y009502D03*
X029862Y003919D03*
X029746Y003252D03*
D84*
X025758Y003890D03*
X025758Y010140D03*
X025758Y016390D03*
X025758Y022640D03*
X025758Y028890D03*
D85*
X029833Y028890D03*
X029833Y022640D03*
X029833Y016390D03*
X029833Y010140D03*
X029833Y003890D03*
D86*
X029311Y003281D03*
X031718Y003832D03*
X029311Y009531D03*
X031718Y010082D03*
X029311Y015781D03*
X031718Y016332D03*
X029311Y022031D03*
X031718Y022582D03*
X029311Y028281D03*
X031718Y028832D03*
D87*
X030268Y028455D03*
X029398Y028136D03*
X030268Y022205D03*
X029398Y021886D03*
X030268Y015955D03*
X029398Y015636D03*
X030268Y009705D03*
X029398Y009386D03*
X030268Y003455D03*
X029398Y003136D03*
D88*
X029717Y003194D03*
X029717Y009444D03*
X029717Y015694D03*
X029717Y021944D03*
X029717Y028194D03*
D89*
X028992Y027962D03*
X032907Y028194D03*
X032907Y021944D03*
X028992Y021712D03*
X032907Y015694D03*
X028992Y015462D03*
X032907Y009444D03*
X028992Y009212D03*
X032907Y003194D03*
X028992Y002962D03*
D90*
X025776Y002738D02*
X025776Y002625D01*
X025776Y002398D02*
X025776Y001944D01*
X025380Y002284D02*
X025493Y002398D01*
X025493Y002625D01*
X025380Y002738D01*
X025039Y002738D01*
X025039Y002965D02*
X025039Y002284D01*
X025380Y002284D01*
X024766Y002284D02*
X024652Y002284D01*
X024425Y002511D01*
X024425Y002738D02*
X024425Y002284D01*
X024048Y002284D02*
X024048Y002738D01*
X024161Y002738D02*
X023934Y002738D01*
X023651Y002738D02*
X023651Y002398D01*
X023538Y002284D01*
X023311Y002284D01*
X023198Y002398D01*
X022915Y002284D02*
X022575Y002284D01*
X022461Y002398D01*
X022461Y002625D01*
X022575Y002738D01*
X022915Y002738D01*
X023198Y002738D02*
X023198Y002058D01*
X023934Y002284D02*
X024048Y002284D01*
X024048Y002058D02*
X024048Y001944D01*
X024048Y008194D02*
X024048Y008308D01*
X024048Y008534D02*
X024048Y008988D01*
X024161Y008988D02*
X023934Y008988D01*
X023651Y008988D02*
X023651Y008648D01*
X023538Y008534D01*
X023311Y008534D01*
X023198Y008648D01*
X022915Y008534D02*
X022575Y008534D01*
X022461Y008648D01*
X022461Y008875D01*
X022575Y008988D01*
X022915Y008988D01*
X023198Y008988D02*
X023198Y008308D01*
X023934Y008534D02*
X024048Y008534D01*
X024425Y008534D02*
X024425Y008988D01*
X024425Y008761D02*
X024652Y008534D01*
X024766Y008534D01*
X025039Y008534D02*
X025380Y008534D01*
X025493Y008648D01*
X025493Y008875D01*
X025380Y008988D01*
X025039Y008988D01*
X025039Y009215D02*
X025039Y008534D01*
X025776Y008648D02*
X025776Y008194D01*
X025776Y008875D02*
X025776Y008988D01*
X025776Y014444D02*
X025776Y014898D01*
X025776Y015125D02*
X025776Y015238D01*
X025493Y015125D02*
X025380Y015238D01*
X025039Y015238D01*
X025039Y015465D02*
X025039Y014784D01*
X025380Y014784D01*
X025493Y014898D01*
X025493Y015125D01*
X024766Y014784D02*
X024652Y014784D01*
X024425Y015011D01*
X024425Y015238D02*
X024425Y014784D01*
X024048Y014784D02*
X024048Y015238D01*
X024161Y015238D02*
X023934Y015238D01*
X023651Y015238D02*
X023651Y014898D01*
X023538Y014784D01*
X023311Y014784D01*
X023198Y014898D01*
X022915Y014784D02*
X022575Y014784D01*
X022461Y014898D01*
X022461Y015125D01*
X022575Y015238D01*
X022915Y015238D01*
X023198Y015238D02*
X023198Y014558D01*
X023934Y014784D02*
X024048Y014784D01*
X024048Y014558D02*
X024048Y014444D01*
X024048Y020694D02*
X024048Y020808D01*
X024048Y021034D02*
X024048Y021488D01*
X024161Y021488D02*
X023934Y021488D01*
X023651Y021488D02*
X023651Y021148D01*
X023538Y021034D01*
X023311Y021034D01*
X023198Y021148D01*
X022915Y021034D02*
X022575Y021034D01*
X022461Y021148D01*
X022461Y021375D01*
X022575Y021488D01*
X022915Y021488D01*
X023198Y021488D02*
X023198Y020808D01*
X023934Y021034D02*
X024048Y021034D01*
X024425Y021034D02*
X024425Y021488D01*
X024425Y021261D02*
X024652Y021034D01*
X024766Y021034D01*
X025039Y021034D02*
X025380Y021034D01*
X025493Y021148D01*
X025493Y021375D01*
X025380Y021488D01*
X025039Y021488D01*
X025039Y021715D02*
X025039Y021034D01*
X025776Y021148D02*
X025776Y020694D01*
X025776Y021375D02*
X025776Y021488D01*
X025776Y026944D02*
X025776Y027398D01*
X025776Y027625D02*
X025776Y027738D01*
X025493Y027625D02*
X025380Y027738D01*
X025039Y027738D01*
X025039Y027965D02*
X025039Y027284D01*
X025380Y027284D01*
X025493Y027398D01*
X025493Y027625D01*
X024766Y027284D02*
X024652Y027284D01*
X024425Y027511D01*
X024425Y027738D02*
X024425Y027284D01*
X024048Y027284D02*
X024048Y027738D01*
X024161Y027738D02*
X023934Y027738D01*
X023651Y027738D02*
X023651Y027398D01*
X023538Y027284D01*
X023311Y027284D01*
X023198Y027398D01*
X022915Y027284D02*
X022575Y027284D01*
X022461Y027398D01*
X022461Y027625D01*
X022575Y027738D01*
X022915Y027738D01*
X023198Y027738D02*
X023198Y027058D01*
X023934Y027284D02*
X024048Y027284D01*
X024048Y027058D02*
X024048Y026944D01*
M02*
