G75*
G70*
%OFA0B0*%
%FSLAX24Y24*%
%IPPOS*%
%LPD*%
%AMOC8*
5,1,8,0,0,1.08239X$1,22.5*
%
%ADD10C,0.0000*%
%ADD11R,0.0240X0.0870*%
%ADD12R,0.0740X0.0740*%
%ADD13OC8,0.0740*%
%ADD14R,0.0400X0.0450*%
%ADD15R,0.0433X0.0394*%
%ADD16C,0.0740*%
%ADD17R,0.0236X0.0315*%
%ADD18R,0.0472X0.0472*%
%ADD19C,0.1000*%
%ADD20R,0.0551X0.0709*%
%ADD21C,0.0277*%
%ADD22C,0.0320*%
%ADD23C,0.0160*%
%ADD24C,0.0240*%
%ADD25C,0.0100*%
%ADD26C,0.0120*%
%ADD27C,0.0400*%
D10*
X000151Y001048D02*
X000151Y007044D01*
X039521Y007044D01*
X039521Y001048D01*
X000151Y001048D01*
D11*
X012151Y003023D03*
X012651Y003023D03*
X013151Y003023D03*
X013651Y003023D03*
X014151Y003023D03*
X014651Y003023D03*
X015151Y003023D03*
X015151Y005073D03*
X014651Y005073D03*
X014151Y005073D03*
X013651Y005073D03*
X013151Y005073D03*
X012651Y005073D03*
X012151Y005073D03*
D12*
X018151Y002548D03*
D13*
X017151Y002548D03*
X016151Y002548D03*
X016151Y001548D03*
X017151Y001548D03*
X018151Y001548D03*
D14*
X006025Y002948D03*
X005277Y002948D03*
X005651Y002148D03*
D15*
X009317Y002048D03*
X009986Y002048D03*
X011067Y003048D03*
X011736Y003048D03*
X005986Y003798D03*
X005317Y003798D03*
X003986Y004048D03*
X003317Y004048D03*
X010317Y004548D03*
X010986Y004548D03*
X016317Y004298D03*
X016986Y004298D03*
X016986Y006298D03*
X016317Y006298D03*
X012986Y006298D03*
X012317Y006298D03*
X005986Y005798D03*
X005317Y005798D03*
X003236Y006298D03*
X002567Y006298D03*
D16*
X002541Y005328D03*
X000761Y005328D03*
X000761Y002768D03*
X002541Y002768D03*
D17*
X016336Y005548D03*
X016966Y005548D03*
D18*
X011815Y002048D03*
X010988Y002048D03*
D19*
X003651Y003064D03*
X003651Y005032D03*
D20*
X006732Y002048D03*
X008070Y002048D03*
D21*
X007401Y002798D03*
X006651Y002798D03*
X007651Y003548D03*
X010401Y003048D03*
X011651Y002548D03*
X014651Y002048D03*
X018901Y002048D03*
X020151Y001548D03*
X018651Y003548D03*
X017401Y003548D03*
X016651Y003548D03*
X017401Y004798D03*
X018651Y005548D03*
X015651Y005798D03*
X014151Y006048D03*
X011651Y005548D03*
X010651Y005548D03*
X006401Y005298D03*
X004651Y004548D03*
X002651Y004048D03*
X020151Y006298D03*
X024651Y006298D03*
X029901Y006298D03*
X033651Y006298D03*
X038401Y006298D03*
X038401Y001798D03*
X030401Y001548D03*
D22*
X020643Y003307D02*
X020151Y004048D01*
X018698Y004298D02*
X018651Y004298D01*
X018651Y004548D01*
X017651Y005548D01*
X016986Y004298D02*
X018651Y004298D01*
X016317Y004298D02*
X014901Y004298D01*
X014151Y003548D01*
X014151Y003023D01*
X011746Y003204D02*
X011736Y003048D01*
X011746Y003204D02*
X011401Y003548D01*
X007651Y003548D01*
X003917Y005298D02*
X003651Y005032D01*
X003917Y005298D02*
X005151Y005298D01*
X006401Y005298D01*
D23*
X003986Y004698D02*
X003651Y005032D01*
X003986Y004698D02*
X003986Y004048D01*
X003317Y004048D02*
X003317Y003399D01*
X003651Y003064D01*
X003651Y002548D01*
X004051Y002148D01*
X005651Y002148D01*
X006901Y003298D02*
X007401Y002798D01*
X006901Y003298D02*
X006177Y003298D01*
X002557Y002753D02*
X002541Y002768D01*
X009317Y002048D02*
X009401Y001964D01*
X009401Y001798D01*
X009651Y001548D01*
X012151Y001548D01*
X013151Y002548D01*
X013151Y003023D01*
X013651Y003023D02*
X013651Y002048D01*
X014151Y001548D01*
X015151Y001548D01*
X016151Y002548D01*
X017151Y002548D02*
X017151Y003048D01*
X016651Y003548D01*
X017401Y003548D02*
X017651Y003548D01*
X018151Y003048D01*
X018151Y002548D01*
X018901Y002048D02*
X018401Y001548D01*
X018151Y001548D01*
X017151Y001548D02*
X016651Y002048D01*
X014651Y002048D02*
X014651Y003023D01*
X015151Y003023D02*
X015176Y003298D01*
X016151Y003298D01*
X012651Y003023D02*
X012651Y002548D01*
X012151Y002048D01*
X011815Y002048D01*
X010988Y002048D02*
X009986Y002048D01*
X011651Y002548D02*
X011676Y002548D01*
X011736Y003048D02*
X012126Y003048D01*
X015151Y005073D02*
X015176Y005048D01*
X013151Y006133D02*
X012986Y006298D01*
X012986Y006383D01*
X002567Y005354D02*
X002541Y005328D01*
D24*
X002541Y002768D01*
X002541Y004188D01*
X002651Y004048D01*
X004651Y004548D02*
X006651Y004548D01*
X007151Y004048D01*
X011151Y004048D01*
X010996Y004204D01*
X010986Y004548D01*
X011151Y004048D02*
X013151Y004048D01*
X013651Y003548D01*
X013651Y003023D01*
X011736Y003048D02*
X011676Y002989D01*
X011676Y002548D01*
X006732Y002717D02*
X006732Y002048D01*
X006732Y002717D02*
X006651Y002798D01*
X006025Y002948D02*
X006177Y003298D01*
X006177Y003607D01*
X005986Y003798D01*
X003651Y005032D02*
X003236Y005448D01*
X003236Y006298D01*
X002567Y006298D02*
X002567Y005354D01*
X005151Y005298D02*
X005317Y005464D01*
X005317Y005798D01*
X012986Y006383D02*
X013151Y006548D01*
X016057Y006548D01*
X016317Y006298D01*
X016336Y006279D01*
X016336Y005548D01*
X016966Y005548D02*
X017651Y005548D01*
X015651Y005798D02*
X014901Y005798D01*
X014651Y005548D01*
X014651Y005073D01*
X015151Y005073D02*
X015151Y004798D01*
X017401Y004798D01*
X013151Y005073D02*
X013151Y006133D01*
D25*
X013386Y006271D02*
X015950Y006271D01*
X015950Y006276D02*
X015950Y006039D01*
X016038Y005951D01*
X016066Y005951D01*
X016066Y005494D01*
X016068Y005490D01*
X016068Y005329D01*
X016156Y005241D01*
X016516Y005241D01*
X016604Y005329D01*
X016604Y005490D01*
X016606Y005494D01*
X016606Y005962D01*
X016651Y006007D01*
X016677Y005981D01*
X016711Y005962D01*
X016750Y005951D01*
X016937Y005951D01*
X016937Y006249D01*
X017034Y006249D01*
X017034Y005951D01*
X017222Y005951D01*
X017260Y005962D01*
X017294Y005981D01*
X017322Y006009D01*
X017342Y006043D01*
X017352Y006082D01*
X017352Y006250D01*
X017034Y006250D01*
X017034Y006347D01*
X016937Y006347D01*
X016937Y006645D01*
X016750Y006645D01*
X016711Y006635D01*
X016677Y006615D01*
X016651Y006589D01*
X016595Y006645D01*
X016345Y006645D01*
X016246Y006741D01*
X016210Y006777D01*
X016207Y006778D01*
X016205Y006780D01*
X016158Y006799D01*
X016110Y006818D01*
X016108Y006818D01*
X016105Y006819D01*
X016055Y006818D01*
X013205Y006818D01*
X013097Y006818D01*
X012998Y006777D01*
X012866Y006645D01*
X012707Y006645D01*
X012651Y006589D01*
X012625Y006615D01*
X012591Y006635D01*
X012553Y006645D01*
X012365Y006645D01*
X012365Y006347D01*
X012268Y006347D01*
X012268Y006645D01*
X012080Y006645D01*
X012042Y006635D01*
X012008Y006615D01*
X011980Y006587D01*
X011960Y006553D01*
X011950Y006515D01*
X011950Y006347D01*
X012268Y006347D01*
X012268Y006250D01*
X011950Y006250D01*
X011950Y006082D01*
X011960Y006043D01*
X011980Y006009D01*
X012008Y005981D01*
X012042Y005962D01*
X012080Y005951D01*
X012268Y005951D01*
X012268Y006249D01*
X012365Y006249D01*
X012365Y005951D01*
X012553Y005951D01*
X012591Y005962D01*
X012625Y005981D01*
X012651Y006007D01*
X012707Y005951D01*
X012881Y005951D01*
X012881Y005610D01*
X012833Y005658D01*
X012469Y005658D01*
X012398Y005588D01*
X012391Y005600D01*
X012363Y005628D01*
X012329Y005648D01*
X012291Y005658D01*
X012161Y005658D01*
X012161Y005083D01*
X012141Y005083D01*
X012141Y005063D01*
X012161Y005063D01*
X012161Y004488D01*
X012291Y004488D01*
X012329Y004498D01*
X012363Y004518D01*
X012391Y004546D01*
X012398Y004559D01*
X012469Y004488D01*
X012833Y004488D01*
X012901Y004556D01*
X012969Y004488D01*
X013333Y004488D01*
X013401Y004556D01*
X013469Y004488D01*
X013833Y004488D01*
X013901Y004556D01*
X013969Y004488D01*
X014333Y004488D01*
X014401Y004556D01*
X014469Y004488D01*
X014653Y004488D01*
X014638Y004474D01*
X013888Y003724D01*
X013879Y003702D01*
X013804Y003777D01*
X013304Y004277D01*
X013205Y004318D01*
X013097Y004318D01*
X011352Y004318D01*
X011352Y004807D01*
X011264Y004895D01*
X010707Y004895D01*
X010651Y004839D01*
X010625Y004865D01*
X010591Y004885D01*
X010553Y004895D01*
X010365Y004895D01*
X010365Y004597D01*
X010268Y004597D01*
X010268Y004895D01*
X010080Y004895D01*
X010042Y004885D01*
X010008Y004865D01*
X009980Y004837D01*
X009960Y004803D01*
X009950Y004765D01*
X009950Y004597D01*
X010268Y004597D01*
X010268Y004500D01*
X009950Y004500D01*
X009950Y004332D01*
X009954Y004318D01*
X007263Y004318D01*
X006880Y004701D01*
X006880Y004701D01*
X006804Y004777D01*
X006705Y004818D01*
X004754Y004818D01*
X004709Y004837D01*
X004594Y004837D01*
X004488Y004793D01*
X004406Y004712D01*
X004362Y004606D01*
X004362Y004491D01*
X004406Y004385D01*
X004488Y004303D01*
X004594Y004259D01*
X004709Y004259D01*
X004754Y004278D01*
X006539Y004278D01*
X006998Y003819D01*
X007097Y003778D01*
X007205Y003778D01*
X007443Y003778D01*
X007388Y003724D01*
X007341Y003610D01*
X007341Y003486D01*
X007388Y003373D01*
X007476Y003285D01*
X007589Y003238D01*
X010700Y003238D01*
X010700Y003097D01*
X011018Y003097D01*
X011018Y003000D01*
X010700Y003000D01*
X010700Y002832D01*
X010710Y002793D01*
X010730Y002759D01*
X010758Y002731D01*
X010792Y002712D01*
X010830Y002701D01*
X011018Y002701D01*
X011018Y002999D01*
X011115Y002999D01*
X011115Y002701D01*
X011303Y002701D01*
X011341Y002712D01*
X011375Y002731D01*
X011401Y002757D01*
X011406Y002752D01*
X011406Y002711D01*
X011362Y002606D01*
X011362Y002491D01*
X011406Y002385D01*
X011436Y002355D01*
X011428Y002347D01*
X011428Y001778D01*
X011374Y001778D01*
X011374Y002347D01*
X011286Y002434D01*
X010689Y002434D01*
X010602Y002347D01*
X010602Y002278D01*
X010352Y002278D01*
X010352Y002307D01*
X010264Y002395D01*
X009707Y002395D01*
X009651Y002339D01*
X009595Y002395D01*
X009038Y002395D01*
X008950Y002307D01*
X008950Y001789D01*
X009038Y001701D01*
X009173Y001701D01*
X009306Y001568D01*
X009556Y001318D01*
X009746Y001318D01*
X012246Y001318D01*
X012381Y001453D01*
X013381Y002453D01*
X013381Y002486D01*
X013401Y002506D01*
X013421Y002486D01*
X013421Y001953D01*
X013556Y001818D01*
X014056Y001318D01*
X014246Y001318D01*
X015246Y001318D01*
X015381Y001453D01*
X015631Y001703D01*
X015631Y001598D01*
X016101Y001598D01*
X016101Y001498D01*
X015631Y001498D01*
X015631Y001333D01*
X015766Y001198D01*
X000301Y001198D01*
X000301Y002526D01*
X000316Y002496D01*
X000365Y002429D01*
X000422Y002372D01*
X000489Y002323D01*
X000562Y002286D01*
X000639Y002261D01*
X000711Y002250D01*
X000711Y002718D01*
X000811Y002718D01*
X000811Y002250D01*
X000883Y002261D01*
X000961Y002286D01*
X001034Y002323D01*
X001100Y002372D01*
X001158Y002429D01*
X001206Y002496D01*
X001243Y002569D01*
X001268Y002646D01*
X001280Y002718D01*
X000811Y002718D01*
X000811Y002818D01*
X000711Y002818D01*
X000711Y003287D01*
X000639Y003275D01*
X000562Y003250D01*
X000489Y003213D01*
X000422Y003165D01*
X000365Y003107D01*
X000316Y003041D01*
X000301Y003011D01*
X000301Y005086D01*
X000316Y005056D01*
X000365Y004989D01*
X000422Y004932D01*
X000489Y004883D01*
X000562Y004846D01*
X000639Y004821D01*
X000711Y004810D01*
X000711Y005278D01*
X000811Y005278D01*
X000811Y004810D01*
X000883Y004821D01*
X000961Y004846D01*
X001034Y004883D01*
X001100Y004932D01*
X001158Y004989D01*
X001206Y005056D01*
X001243Y005129D01*
X001268Y005206D01*
X001280Y005278D01*
X000811Y005278D01*
X000811Y005378D01*
X000711Y005378D01*
X000711Y005847D01*
X000639Y005835D01*
X000562Y005810D01*
X000489Y005773D01*
X000422Y005725D01*
X000365Y005667D01*
X000316Y005601D01*
X000301Y005571D01*
X000301Y006894D01*
X018651Y006894D01*
X039371Y006894D01*
X039371Y001198D01*
X018651Y001198D01*
X018651Y001313D01*
X018671Y001333D01*
X018671Y001493D01*
X018938Y001759D01*
X018959Y001759D01*
X019065Y001803D01*
X019146Y001885D01*
X019190Y001991D01*
X019190Y002106D01*
X019146Y002212D01*
X019065Y002293D01*
X018959Y002337D01*
X018844Y002337D01*
X018738Y002293D01*
X018671Y002226D01*
X018671Y002980D01*
X018651Y003000D01*
X018651Y003548D01*
X018664Y003370D01*
X018702Y003196D01*
X018764Y003029D01*
X018850Y002872D01*
X018956Y002730D01*
X019083Y002604D01*
X019225Y002497D01*
X019382Y002411D01*
X019549Y002349D01*
X019723Y002311D01*
X019901Y002298D01*
X037151Y002298D01*
X037364Y002296D01*
X037576Y002321D01*
X037783Y002374D01*
X037980Y002453D01*
X038166Y002558D01*
X038337Y002686D01*
X038489Y002835D01*
X038621Y003002D01*
X038730Y003186D01*
X038813Y003382D01*
X038871Y003587D01*
X038901Y003798D01*
X038901Y004298D01*
X038871Y004509D01*
X038813Y004715D01*
X038730Y004911D01*
X038621Y005094D01*
X038489Y005262D01*
X038337Y005411D01*
X038166Y005539D01*
X037980Y005643D01*
X037783Y005722D01*
X037576Y005775D01*
X037364Y005801D01*
X037151Y005798D01*
X020151Y005798D01*
X019971Y005803D01*
X019791Y005784D01*
X019615Y005741D01*
X019447Y005676D01*
X019288Y005590D01*
X019142Y005484D01*
X019011Y005359D01*
X018898Y005219D01*
X018804Y005065D01*
X018733Y004905D01*
X018651Y004987D01*
X018651Y006894D01*
X018651Y004987D01*
X017827Y005811D01*
X017713Y005858D01*
X017589Y005858D01*
X017493Y005818D01*
X017184Y005818D01*
X017146Y005856D01*
X016786Y005856D01*
X016698Y005768D01*
X016698Y005606D01*
X016696Y005602D01*
X016696Y005494D01*
X016698Y005490D01*
X016698Y005329D01*
X016786Y005241D01*
X017146Y005241D01*
X017184Y005278D01*
X017483Y005278D01*
X018153Y004608D01*
X017619Y004608D01*
X017646Y004635D01*
X017690Y004741D01*
X017690Y004856D01*
X017646Y004962D01*
X017565Y005043D01*
X017459Y005087D01*
X017344Y005087D01*
X017298Y005068D01*
X015421Y005068D01*
X015421Y005127D01*
X015421Y005528D01*
X015548Y005528D01*
X015594Y005509D01*
X015709Y005509D01*
X015815Y005553D01*
X015896Y005635D01*
X015940Y005741D01*
X015940Y005856D01*
X015896Y005962D01*
X015815Y006043D01*
X015709Y006087D01*
X015594Y006087D01*
X015548Y006068D01*
X014955Y006068D01*
X014847Y006068D01*
X014748Y006027D01*
X014498Y005777D01*
X014422Y005701D01*
X014384Y005608D01*
X014333Y005658D01*
X013969Y005658D01*
X013901Y005590D01*
X013833Y005658D01*
X013469Y005658D01*
X013421Y005610D01*
X013421Y006187D01*
X013383Y006278D01*
X015948Y006278D01*
X015950Y006276D01*
X015950Y006172D02*
X013421Y006172D01*
X013421Y006074D02*
X015562Y006074D01*
X015740Y006074D02*
X015950Y006074D01*
X016014Y005975D02*
X015882Y005975D01*
X016619Y005975D02*
X016687Y005975D01*
X016937Y005975D02*
X017034Y005975D01*
X017034Y006074D02*
X016937Y006074D01*
X016937Y006172D02*
X017034Y006172D01*
X017034Y006271D02*
X018651Y006271D01*
X039371Y006271D01*
X039371Y006172D02*
X018651Y006172D01*
X017352Y006172D01*
X017350Y006074D02*
X018651Y006074D01*
X039371Y006074D01*
X039371Y005975D02*
X018651Y005975D01*
X017284Y005975D01*
X016606Y005877D02*
X018651Y005877D01*
X039371Y005877D01*
X039371Y005778D02*
X037550Y005778D01*
X037889Y005680D02*
X039371Y005680D01*
X039371Y005581D02*
X038090Y005581D01*
X038241Y005483D02*
X039371Y005483D01*
X039371Y005384D02*
X038364Y005384D01*
X038465Y005286D02*
X039371Y005286D01*
X039371Y005187D02*
X038548Y005187D01*
X038624Y005088D02*
X039371Y005088D01*
X039371Y004990D02*
X038683Y004990D01*
X038738Y004891D02*
X039371Y004891D01*
X039371Y004793D02*
X038780Y004793D01*
X038819Y004694D02*
X039371Y004694D01*
X039371Y004596D02*
X038847Y004596D01*
X038873Y004497D02*
X039371Y004497D01*
X039371Y004399D02*
X038887Y004399D01*
X038901Y004300D02*
X039371Y004300D01*
X039371Y004202D02*
X038901Y004202D01*
X038901Y004103D02*
X039371Y004103D01*
X039371Y004004D02*
X038901Y004004D01*
X038901Y003906D02*
X039371Y003906D01*
X039371Y003807D02*
X038901Y003807D01*
X038888Y003709D02*
X039371Y003709D01*
X039371Y003610D02*
X038874Y003610D01*
X038850Y003512D02*
X039371Y003512D01*
X039371Y003413D02*
X038822Y003413D01*
X038785Y003315D02*
X039371Y003315D01*
X039371Y003216D02*
X038743Y003216D01*
X038689Y003118D02*
X039371Y003118D01*
X039371Y003019D02*
X038631Y003019D01*
X038557Y002921D02*
X039371Y002921D01*
X039371Y002822D02*
X038476Y002822D01*
X038375Y002723D02*
X039371Y002723D01*
X039371Y002625D02*
X038256Y002625D01*
X038110Y002526D02*
X039371Y002526D01*
X039371Y002428D02*
X037917Y002428D01*
X037607Y002329D02*
X039371Y002329D01*
X039371Y002231D02*
X019127Y002231D01*
X019179Y002132D02*
X039371Y002132D01*
X039371Y002034D02*
X019190Y002034D01*
X019167Y001935D02*
X039371Y001935D01*
X039371Y001837D02*
X019098Y001837D01*
X018916Y001738D02*
X039371Y001738D01*
X039371Y001639D02*
X018818Y001639D01*
X018719Y001541D02*
X039371Y001541D01*
X039371Y001442D02*
X018671Y001442D01*
X018671Y001344D02*
X039371Y001344D01*
X039371Y001245D02*
X018651Y001245D01*
X016101Y001541D02*
X015469Y001541D01*
X015371Y001442D02*
X015631Y001442D01*
X015631Y001344D02*
X015272Y001344D01*
X015719Y001245D02*
X000301Y001245D01*
X000301Y001344D02*
X009530Y001344D01*
X009432Y001442D02*
X000301Y001442D01*
X000301Y001541D02*
X009333Y001541D01*
X009235Y001639D02*
X008487Y001639D01*
X008486Y001636D02*
X008496Y001674D01*
X008496Y001998D01*
X008121Y001998D01*
X008121Y002098D01*
X008496Y002098D01*
X008496Y002422D01*
X008486Y002460D01*
X008466Y002495D01*
X008438Y002523D01*
X008404Y002542D01*
X008366Y002552D01*
X008120Y002552D01*
X008120Y002098D01*
X008021Y002098D01*
X008021Y002552D01*
X007775Y002552D01*
X007737Y002542D01*
X007703Y002523D01*
X007675Y002495D01*
X007655Y002460D01*
X007645Y002422D01*
X007645Y002098D01*
X008020Y002098D01*
X008020Y001998D01*
X007645Y001998D01*
X007645Y001674D01*
X007655Y001636D01*
X007675Y001602D01*
X007703Y001574D01*
X007737Y001554D01*
X007775Y001544D01*
X008021Y001544D01*
X008021Y001998D01*
X008120Y001998D01*
X008120Y001544D01*
X008366Y001544D01*
X008404Y001554D01*
X008438Y001574D01*
X008466Y001602D01*
X008486Y001636D01*
X008496Y001738D02*
X009001Y001738D01*
X008950Y001837D02*
X008496Y001837D01*
X008496Y001935D02*
X008950Y001935D01*
X008950Y002034D02*
X008121Y002034D01*
X008120Y002132D02*
X008021Y002132D01*
X008020Y002034D02*
X007157Y002034D01*
X007157Y002132D02*
X007645Y002132D01*
X007645Y002231D02*
X007157Y002231D01*
X007157Y002329D02*
X007645Y002329D01*
X007646Y002428D02*
X007157Y002428D01*
X007157Y002465D02*
X007070Y002552D01*
X007002Y002552D01*
X007002Y002664D01*
X007002Y002771D01*
X006961Y002870D01*
X006915Y002916D01*
X006896Y002962D01*
X006815Y003043D01*
X006754Y003068D01*
X006806Y003068D01*
X007112Y002762D01*
X007112Y002741D01*
X007156Y002635D01*
X007238Y002553D01*
X007344Y002509D01*
X007459Y002509D01*
X007565Y002553D01*
X007646Y002635D01*
X007690Y002741D01*
X007690Y002856D01*
X007646Y002962D01*
X007565Y003043D01*
X007459Y003087D01*
X007438Y003087D01*
X007131Y003393D01*
X006996Y003528D01*
X006447Y003528D01*
X006447Y003553D01*
X006447Y003661D01*
X006406Y003760D01*
X006352Y003813D01*
X006352Y004057D01*
X006264Y004145D01*
X005707Y004145D01*
X005651Y004089D01*
X005625Y004115D01*
X005591Y004135D01*
X005553Y004145D01*
X005365Y004145D01*
X005365Y003847D01*
X005268Y003847D01*
X005268Y004145D01*
X005080Y004145D01*
X005042Y004135D01*
X005008Y004115D01*
X004980Y004087D01*
X004960Y004053D01*
X004950Y004015D01*
X004950Y003847D01*
X005268Y003847D01*
X005268Y003750D01*
X004950Y003750D01*
X004950Y003582D01*
X004960Y003543D01*
X004980Y003509D01*
X005008Y003481D01*
X005042Y003462D01*
X005080Y003451D01*
X005268Y003451D01*
X005268Y003749D01*
X005365Y003749D01*
X005365Y003451D01*
X005553Y003451D01*
X005591Y003462D01*
X005625Y003481D01*
X005651Y003507D01*
X005707Y003451D01*
X005907Y003451D01*
X005907Y003354D01*
X005894Y003323D01*
X005763Y003323D01*
X005675Y003235D01*
X005675Y002661D01*
X005763Y002573D01*
X006287Y002573D01*
X006375Y002661D01*
X006375Y002710D01*
X006406Y002635D01*
X006462Y002579D01*
X006462Y002552D01*
X006394Y002552D01*
X006306Y002465D01*
X006306Y001632D01*
X006394Y001544D01*
X007070Y001544D01*
X007157Y001632D01*
X007157Y002465D01*
X007096Y002526D02*
X007303Y002526D01*
X007166Y002625D02*
X007002Y002625D01*
X007002Y002723D02*
X007120Y002723D01*
X006416Y002625D02*
X006339Y002625D01*
X006368Y002526D02*
X004033Y002526D01*
X004019Y002513D02*
X004202Y002696D01*
X004301Y002935D01*
X004301Y003193D01*
X004202Y003432D01*
X004019Y003615D01*
X003811Y003701D01*
X004264Y003701D01*
X004352Y003789D01*
X004352Y004307D01*
X004264Y004395D01*
X004216Y004395D01*
X004216Y004603D01*
X004216Y004697D01*
X004301Y004903D01*
X004301Y004988D01*
X005089Y004988D01*
X006463Y004988D01*
X006577Y005035D01*
X006664Y005123D01*
X006711Y005236D01*
X006711Y005360D01*
X006664Y005474D01*
X006577Y005561D01*
X006463Y005608D01*
X006352Y005608D01*
X006352Y005750D01*
X006034Y005750D01*
X006034Y005847D01*
X005937Y005847D01*
X005937Y006145D01*
X005750Y006145D01*
X005711Y006135D01*
X005677Y006115D01*
X005651Y006089D01*
X005595Y006145D01*
X005038Y006145D01*
X004950Y006057D01*
X004950Y005608D01*
X003979Y005608D01*
X003960Y005608D01*
X003780Y005682D01*
X003522Y005682D01*
X003506Y005676D01*
X003506Y005951D01*
X003514Y005951D01*
X003602Y006039D01*
X003602Y006557D01*
X003514Y006645D01*
X002957Y006645D01*
X002901Y006589D01*
X002845Y006645D01*
X002288Y006645D01*
X002200Y006557D01*
X002200Y006039D01*
X002288Y005951D01*
X002297Y005951D01*
X002297Y005790D01*
X002247Y005769D01*
X002100Y005623D01*
X002021Y005432D01*
X002021Y005225D01*
X002100Y005034D01*
X002247Y004887D01*
X002271Y004877D01*
X002271Y004242D01*
X002271Y004204D01*
X002267Y004167D01*
X002271Y004151D01*
X002271Y003219D01*
X002247Y003209D01*
X002100Y003063D01*
X002021Y002872D01*
X002021Y002665D01*
X002100Y002474D01*
X002247Y002327D01*
X002438Y002248D01*
X002645Y002248D01*
X002836Y002327D01*
X002982Y002474D01*
X003061Y002665D01*
X003061Y002790D01*
X003100Y002696D01*
X003283Y002513D01*
X003421Y002456D01*
X003421Y002453D01*
X003556Y002318D01*
X003821Y002053D01*
X003956Y001918D01*
X005301Y001918D01*
X005301Y001861D01*
X005389Y001773D01*
X005913Y001773D01*
X006001Y001861D01*
X006001Y002435D01*
X005913Y002523D01*
X005389Y002523D01*
X005301Y002435D01*
X005301Y002378D01*
X004146Y002378D01*
X004014Y002511D01*
X004019Y002513D01*
X004097Y002428D02*
X005301Y002428D01*
X005327Y002573D02*
X005497Y002573D01*
X005535Y002583D01*
X005569Y002603D01*
X005597Y002631D01*
X005617Y002665D01*
X005627Y002703D01*
X005627Y002898D01*
X005327Y002898D01*
X005327Y002573D01*
X005327Y002625D02*
X005227Y002625D01*
X005227Y002573D02*
X005057Y002573D01*
X005019Y002583D01*
X004985Y002603D01*
X004957Y002631D01*
X004937Y002665D01*
X004927Y002703D01*
X004927Y002898D01*
X005227Y002898D01*
X005327Y002898D01*
X005327Y002998D01*
X005627Y002998D01*
X005627Y003193D01*
X005617Y003231D01*
X005597Y003265D01*
X005569Y003293D01*
X005535Y003313D01*
X005497Y003323D01*
X005327Y003323D01*
X005327Y002998D01*
X005227Y002998D01*
X005227Y002898D01*
X005227Y002573D01*
X005227Y002723D02*
X005327Y002723D01*
X005591Y002625D02*
X005711Y002625D01*
X005675Y002723D02*
X005627Y002723D01*
X005627Y002822D02*
X005675Y002822D01*
X005675Y002921D02*
X005327Y002921D01*
X005327Y003019D02*
X005227Y003019D01*
X005227Y002998D02*
X005227Y003323D01*
X005057Y003323D01*
X005019Y003313D01*
X004985Y003293D01*
X004957Y003265D01*
X004937Y003231D01*
X004927Y003193D01*
X004927Y002998D01*
X005227Y002998D01*
X005227Y002921D02*
X004295Y002921D01*
X004301Y003019D02*
X004927Y003019D01*
X004927Y003118D02*
X004301Y003118D01*
X004292Y003216D02*
X004933Y003216D01*
X005227Y003216D02*
X005327Y003216D01*
X005327Y003118D02*
X005227Y003118D01*
X005627Y003118D02*
X005675Y003118D01*
X005675Y003216D02*
X005621Y003216D01*
X005528Y003315D02*
X005755Y003315D01*
X005907Y003413D02*
X004210Y003413D01*
X004251Y003315D02*
X005026Y003315D01*
X005227Y003315D02*
X005327Y003315D01*
X005365Y003512D02*
X005268Y003512D01*
X005268Y003610D02*
X005365Y003610D01*
X005365Y003709D02*
X005268Y003709D01*
X005268Y003807D02*
X004352Y003807D01*
X004272Y003709D02*
X004950Y003709D01*
X004950Y003610D02*
X004024Y003610D01*
X004123Y003512D02*
X004978Y003512D01*
X006358Y003807D02*
X007027Y003807D01*
X007382Y003709D02*
X006427Y003709D01*
X006447Y003610D02*
X007341Y003610D01*
X007341Y003512D02*
X007013Y003512D01*
X007111Y003413D02*
X007372Y003413D01*
X007446Y003315D02*
X007210Y003315D01*
X007308Y003216D02*
X010700Y003216D01*
X010700Y003118D02*
X007407Y003118D01*
X007589Y003019D02*
X011018Y003019D01*
X011018Y002921D02*
X011115Y002921D01*
X011115Y002822D02*
X011018Y002822D01*
X010703Y002822D02*
X007690Y002822D01*
X007663Y002921D02*
X010700Y002921D01*
X010771Y002723D02*
X007683Y002723D01*
X007636Y002625D02*
X011370Y002625D01*
X011361Y002723D02*
X011406Y002723D01*
X011115Y002723D02*
X011018Y002723D01*
X011362Y002526D02*
X008432Y002526D01*
X008495Y002428D02*
X010683Y002428D01*
X010602Y002329D02*
X010330Y002329D01*
X011293Y002428D02*
X011388Y002428D01*
X011374Y002329D02*
X011428Y002329D01*
X011428Y002231D02*
X011374Y002231D01*
X011374Y002132D02*
X011428Y002132D01*
X011428Y002034D02*
X011374Y002034D01*
X011374Y001935D02*
X011428Y001935D01*
X011428Y001837D02*
X011374Y001837D01*
X012568Y001639D02*
X013735Y001639D01*
X013833Y001541D02*
X012469Y001541D01*
X012371Y001442D02*
X013932Y001442D01*
X014030Y001344D02*
X012272Y001344D01*
X012666Y001738D02*
X013636Y001738D01*
X013538Y001837D02*
X012765Y001837D01*
X012863Y001935D02*
X013439Y001935D01*
X013421Y002034D02*
X012962Y002034D01*
X013060Y002132D02*
X013421Y002132D01*
X013421Y002231D02*
X013159Y002231D01*
X013257Y002329D02*
X013421Y002329D01*
X013421Y002428D02*
X013356Y002428D01*
X016629Y003118D02*
X016756Y003118D01*
X016727Y003019D02*
X016855Y003019D01*
X016871Y003003D02*
X016807Y002939D01*
X016381Y003365D01*
X016381Y003393D01*
X016246Y003528D01*
X015413Y003528D01*
X015333Y003608D01*
X014969Y003608D01*
X014901Y003540D01*
X014833Y003608D01*
X014649Y003608D01*
X015030Y003988D01*
X016001Y003988D01*
X016038Y003951D01*
X016595Y003951D01*
X016651Y004007D01*
X016707Y003951D01*
X017264Y003951D01*
X017301Y003988D01*
X018513Y003988D01*
X018651Y003850D01*
X018651Y003000D01*
X018583Y003068D01*
X018381Y003068D01*
X018381Y003143D01*
X017746Y003778D01*
X017580Y003778D01*
X017565Y003793D01*
X017459Y003837D01*
X017344Y003837D01*
X017238Y003793D01*
X017156Y003712D01*
X017112Y003606D01*
X017112Y003491D01*
X017156Y003385D01*
X017238Y003303D01*
X017344Y003259D01*
X017459Y003259D01*
X017565Y003303D01*
X017568Y003306D01*
X017806Y003068D01*
X017719Y003068D01*
X017631Y002980D01*
X017631Y002803D01*
X017381Y003054D01*
X017381Y003143D01*
X016940Y003585D01*
X016940Y003606D01*
X016896Y003712D01*
X016815Y003793D01*
X016709Y003837D01*
X016594Y003837D01*
X016488Y003793D01*
X016406Y003712D01*
X016362Y003606D01*
X016362Y003491D01*
X016406Y003385D01*
X016488Y003303D01*
X016594Y003259D01*
X016615Y003259D01*
X016871Y003003D01*
X017381Y003118D02*
X017757Y003118D01*
X017670Y003019D02*
X017416Y003019D01*
X017514Y002921D02*
X017631Y002921D01*
X017631Y002822D02*
X017613Y002822D01*
X018632Y003019D02*
X018651Y003019D01*
X018770Y003019D01*
X018731Y003118D02*
X018651Y003118D01*
X018381Y003118D01*
X018308Y003216D02*
X018651Y003216D01*
X018697Y003216D01*
X018676Y003315D02*
X018651Y003315D01*
X018210Y003315D01*
X018111Y003413D02*
X018651Y003413D01*
X018661Y003413D01*
X018651Y003512D02*
X018654Y003512D01*
X018651Y003512D02*
X018013Y003512D01*
X017914Y003610D02*
X018651Y003610D01*
X018651Y003709D02*
X017816Y003709D01*
X017530Y003807D02*
X018651Y003807D01*
X019411Y003906D02*
X019442Y003766D01*
X019492Y003633D01*
X019560Y003508D01*
X019645Y003393D01*
X019746Y003292D01*
X019861Y003207D01*
X019986Y003139D01*
X020119Y003089D01*
X020259Y003058D01*
X020401Y003048D01*
X037151Y003048D01*
X037294Y003058D01*
X037433Y003089D01*
X037567Y003139D01*
X037692Y003207D01*
X037806Y003292D01*
X037907Y003393D01*
X037992Y003508D01*
X038061Y003633D01*
X038111Y003766D01*
X038141Y003906D01*
X019411Y003906D01*
X019401Y004048D01*
X019411Y004191D01*
X019442Y004330D01*
X019492Y004464D01*
X019560Y004589D01*
X019645Y004703D01*
X019746Y004804D01*
X019861Y004889D01*
X019986Y004958D01*
X020119Y005008D01*
X020259Y005038D01*
X020401Y005048D01*
X037151Y005048D01*
X037294Y005038D01*
X037433Y005008D01*
X037567Y004958D01*
X037692Y004889D01*
X037806Y004804D01*
X037907Y004703D01*
X037992Y004589D01*
X038061Y004464D01*
X038111Y004330D01*
X038141Y004191D01*
X038151Y004048D01*
X038141Y003906D01*
X038148Y004004D02*
X019404Y004004D01*
X019405Y004103D02*
X038147Y004103D01*
X038139Y004202D02*
X019414Y004202D01*
X019435Y004300D02*
X038117Y004300D01*
X038085Y004399D02*
X019467Y004399D01*
X019510Y004497D02*
X038042Y004497D01*
X037987Y004596D02*
X019565Y004596D01*
X019639Y004694D02*
X037913Y004694D01*
X037817Y004793D02*
X019735Y004793D01*
X019864Y004891D02*
X037688Y004891D01*
X037481Y004990D02*
X020072Y004990D01*
X018952Y005286D02*
X018651Y005286D01*
X018352Y005286D01*
X018254Y005384D02*
X018651Y005384D01*
X019037Y005384D01*
X019141Y005483D02*
X018651Y005483D01*
X018155Y005483D01*
X018057Y005581D02*
X018651Y005581D01*
X019276Y005581D01*
X019455Y005680D02*
X018651Y005680D01*
X017958Y005680D01*
X017859Y005778D02*
X018651Y005778D01*
X019769Y005778D01*
X018878Y005187D02*
X018651Y005187D01*
X018451Y005187D01*
X018549Y005088D02*
X018651Y005088D01*
X018818Y005088D01*
X018770Y004990D02*
X018651Y004990D01*
X018648Y004990D01*
X017870Y004891D02*
X017675Y004891D01*
X017618Y004990D02*
X017771Y004990D01*
X017672Y005088D02*
X015421Y005088D01*
X015421Y005187D02*
X017574Y005187D01*
X016741Y005286D02*
X016561Y005286D01*
X016604Y005384D02*
X016698Y005384D01*
X016698Y005483D02*
X016604Y005483D01*
X016606Y005581D02*
X016696Y005581D01*
X016698Y005680D02*
X016606Y005680D01*
X016606Y005778D02*
X016709Y005778D01*
X016066Y005778D02*
X015940Y005778D01*
X015931Y005877D02*
X016066Y005877D01*
X016066Y005680D02*
X015915Y005680D01*
X015843Y005581D02*
X016066Y005581D01*
X016068Y005483D02*
X015421Y005483D01*
X015421Y005384D02*
X016068Y005384D01*
X016111Y005286D02*
X015421Y005286D01*
X014413Y005680D02*
X013421Y005680D01*
X013421Y005778D02*
X014499Y005778D01*
X014598Y005877D02*
X013421Y005877D01*
X012881Y005877D02*
X006352Y005877D01*
X006352Y005847D02*
X006352Y006015D01*
X006342Y006053D01*
X006322Y006087D01*
X006294Y006115D01*
X006260Y006135D01*
X006222Y006145D01*
X006034Y006145D01*
X006034Y005847D01*
X006352Y005847D01*
X006034Y005877D02*
X005937Y005877D01*
X006034Y005778D02*
X012881Y005778D01*
X012881Y005680D02*
X006352Y005680D01*
X006528Y005581D02*
X011900Y005581D01*
X011891Y005566D02*
X011881Y005528D01*
X011881Y005083D01*
X012141Y005083D01*
X012141Y005658D01*
X012011Y005658D01*
X011973Y005648D01*
X011939Y005628D01*
X011911Y005600D01*
X011891Y005566D01*
X011881Y005483D02*
X006655Y005483D01*
X006701Y005384D02*
X011881Y005384D01*
X011881Y005286D02*
X006711Y005286D01*
X006691Y005187D02*
X011881Y005187D01*
X011881Y005088D02*
X006630Y005088D01*
X006467Y004990D02*
X011881Y004990D01*
X011881Y005063D02*
X011881Y004618D01*
X011891Y004580D01*
X011911Y004546D01*
X011939Y004518D01*
X011973Y004498D01*
X012011Y004488D01*
X012141Y004488D01*
X012141Y005063D01*
X011881Y005063D01*
X012141Y005088D02*
X012161Y005088D01*
X012161Y004990D02*
X012141Y004990D01*
X012141Y004891D02*
X012161Y004891D01*
X011881Y004891D02*
X011268Y004891D01*
X011352Y004793D02*
X011881Y004793D01*
X011881Y004694D02*
X011352Y004694D01*
X011352Y004596D02*
X011887Y004596D01*
X011978Y004497D02*
X011352Y004497D01*
X011352Y004399D02*
X014563Y004399D01*
X014460Y004497D02*
X014342Y004497D01*
X013960Y004497D02*
X013842Y004497D01*
X013460Y004497D02*
X013342Y004497D01*
X012960Y004497D02*
X012842Y004497D01*
X012460Y004497D02*
X012324Y004497D01*
X012161Y004497D02*
X012141Y004497D01*
X012141Y004596D02*
X012161Y004596D01*
X012161Y004694D02*
X012141Y004694D01*
X012141Y004793D02*
X012161Y004793D01*
X010704Y004891D02*
X010566Y004891D01*
X010365Y004891D02*
X010268Y004891D01*
X010067Y004891D02*
X004296Y004891D01*
X004255Y004793D02*
X004487Y004793D01*
X004399Y004694D02*
X004216Y004694D01*
X004216Y004596D02*
X004362Y004596D01*
X004362Y004497D02*
X004216Y004497D01*
X004216Y004399D02*
X004401Y004399D01*
X004352Y004300D02*
X004495Y004300D01*
X004352Y004202D02*
X006616Y004202D01*
X006714Y004103D02*
X006306Y004103D01*
X006352Y004004D02*
X006813Y004004D01*
X006912Y003906D02*
X006352Y003906D01*
X005665Y004103D02*
X005637Y004103D01*
X005365Y004103D02*
X005268Y004103D01*
X005268Y004004D02*
X005365Y004004D01*
X005365Y003906D02*
X005268Y003906D01*
X004950Y003906D02*
X004352Y003906D01*
X004352Y004004D02*
X004950Y004004D01*
X004996Y004103D02*
X004352Y004103D01*
X002271Y004103D02*
X000301Y004103D01*
X000301Y004004D02*
X002271Y004004D01*
X002271Y003906D02*
X000301Y003906D01*
X000301Y003807D02*
X002271Y003807D01*
X002271Y003709D02*
X000301Y003709D01*
X000301Y003610D02*
X002271Y003610D01*
X002271Y003512D02*
X000301Y003512D01*
X000301Y003413D02*
X002271Y003413D01*
X002271Y003315D02*
X000301Y003315D01*
X000301Y003216D02*
X000495Y003216D01*
X000375Y003118D02*
X000301Y003118D01*
X000301Y003019D02*
X000305Y003019D01*
X000711Y003019D02*
X000811Y003019D01*
X000811Y002921D02*
X000711Y002921D01*
X000711Y002822D02*
X000811Y002822D01*
X000811Y002818D02*
X000811Y003287D01*
X000883Y003275D01*
X000961Y003250D01*
X001034Y003213D01*
X001100Y003165D01*
X001158Y003107D01*
X001206Y003041D01*
X001243Y002968D01*
X001268Y002890D01*
X001280Y002818D01*
X000811Y002818D01*
X001258Y002921D02*
X002041Y002921D01*
X002021Y002822D02*
X001279Y002822D01*
X001217Y003019D02*
X002082Y003019D01*
X002155Y003118D02*
X001147Y003118D01*
X001027Y003216D02*
X002264Y003216D01*
X000811Y003216D02*
X000711Y003216D01*
X000711Y003118D02*
X000811Y003118D01*
X000811Y002723D02*
X002021Y002723D01*
X002038Y002625D02*
X001261Y002625D01*
X001222Y002526D02*
X002079Y002526D01*
X002146Y002428D02*
X001156Y002428D01*
X001042Y002329D02*
X002245Y002329D01*
X002838Y002329D02*
X003545Y002329D01*
X003556Y002318D02*
X003556Y002318D01*
X003643Y002231D02*
X000301Y002231D01*
X000301Y002132D02*
X003742Y002132D01*
X003821Y002053D02*
X003821Y002053D01*
X003840Y002034D02*
X000301Y002034D01*
X000301Y001935D02*
X003939Y001935D01*
X005326Y001837D02*
X000301Y001837D01*
X000301Y001738D02*
X006306Y001738D01*
X006306Y001639D02*
X000301Y001639D01*
X000301Y002329D02*
X000481Y002329D01*
X000366Y002428D02*
X000301Y002428D01*
X000711Y002428D02*
X000811Y002428D01*
X000811Y002526D02*
X000711Y002526D01*
X000711Y002625D02*
X000811Y002625D01*
X000811Y002329D02*
X000711Y002329D01*
X002936Y002428D02*
X003446Y002428D01*
X003269Y002526D02*
X003004Y002526D01*
X003045Y002625D02*
X003171Y002625D01*
X003089Y002723D02*
X003061Y002723D01*
X004131Y002625D02*
X004963Y002625D01*
X004927Y002723D02*
X004214Y002723D01*
X004254Y002822D02*
X004927Y002822D01*
X005227Y002822D02*
X005327Y002822D01*
X005627Y003019D02*
X005675Y003019D01*
X006839Y003019D02*
X006855Y003019D01*
X006913Y002921D02*
X006954Y002921D01*
X006981Y002822D02*
X007052Y002822D01*
X007499Y002526D02*
X007709Y002526D01*
X008021Y002526D02*
X008120Y002526D01*
X008120Y002428D02*
X008021Y002428D01*
X008021Y002329D02*
X008120Y002329D01*
X008496Y002329D02*
X008972Y002329D01*
X008950Y002231D02*
X008496Y002231D01*
X008496Y002132D02*
X008950Y002132D01*
X008120Y002231D02*
X008021Y002231D01*
X008021Y001935D02*
X008120Y001935D01*
X008120Y001837D02*
X008021Y001837D01*
X007645Y001837D02*
X007157Y001837D01*
X007157Y001935D02*
X007645Y001935D01*
X007645Y001738D02*
X007157Y001738D01*
X007157Y001639D02*
X007654Y001639D01*
X008021Y001639D02*
X008120Y001639D01*
X008120Y001738D02*
X008021Y001738D01*
X006306Y001837D02*
X005977Y001837D01*
X006001Y001935D02*
X006306Y001935D01*
X006306Y002034D02*
X006001Y002034D01*
X006001Y002132D02*
X006306Y002132D01*
X006306Y002231D02*
X006001Y002231D01*
X006001Y002329D02*
X006306Y002329D01*
X006306Y002428D02*
X006001Y002428D01*
X013577Y004004D02*
X014169Y004004D01*
X014071Y003906D02*
X013675Y003906D01*
X013774Y003807D02*
X013972Y003807D01*
X013882Y003709D02*
X013872Y003709D01*
X014652Y003610D02*
X016364Y003610D01*
X016362Y003512D02*
X016263Y003512D01*
X016361Y003413D02*
X016394Y003413D01*
X016432Y003315D02*
X016476Y003315D01*
X016530Y003216D02*
X016658Y003216D01*
X017210Y003315D02*
X017226Y003315D01*
X017144Y003413D02*
X017111Y003413D01*
X017112Y003512D02*
X017013Y003512D01*
X016938Y003610D02*
X017114Y003610D01*
X017155Y003709D02*
X016897Y003709D01*
X016780Y003807D02*
X017273Y003807D01*
X016523Y003807D02*
X014849Y003807D01*
X014750Y003709D02*
X016405Y003709D01*
X016648Y004004D02*
X016654Y004004D01*
X014947Y003906D02*
X018596Y003906D01*
X019433Y003807D02*
X038120Y003807D01*
X038089Y003709D02*
X019463Y003709D01*
X019504Y003610D02*
X038049Y003610D01*
X037995Y003512D02*
X019558Y003512D01*
X019631Y003413D02*
X037922Y003413D01*
X037828Y003315D02*
X019724Y003315D01*
X019848Y003216D02*
X037704Y003216D01*
X037510Y003118D02*
X020042Y003118D01*
X018887Y002822D02*
X018671Y002822D01*
X018671Y002921D02*
X018823Y002921D01*
X018963Y002723D02*
X018671Y002723D01*
X018671Y002625D02*
X019061Y002625D01*
X019186Y002526D02*
X018671Y002526D01*
X018671Y002428D02*
X019351Y002428D01*
X019639Y002329D02*
X018977Y002329D01*
X018825Y002329D02*
X018671Y002329D01*
X018671Y002231D02*
X018675Y002231D01*
X015631Y001639D02*
X015568Y001639D01*
X017308Y003216D02*
X017658Y003216D01*
X014268Y004103D02*
X013478Y004103D01*
X013380Y004202D02*
X014366Y004202D01*
X014465Y004300D02*
X013248Y004300D01*
X010365Y004694D02*
X010268Y004694D01*
X010268Y004596D02*
X006985Y004596D01*
X006887Y004694D02*
X009950Y004694D01*
X009958Y004793D02*
X006766Y004793D01*
X007084Y004497D02*
X009950Y004497D01*
X009950Y004399D02*
X007182Y004399D01*
X010268Y004793D02*
X010365Y004793D01*
X012141Y005187D02*
X012161Y005187D01*
X012161Y005286D02*
X012141Y005286D01*
X012141Y005384D02*
X012161Y005384D01*
X012161Y005483D02*
X012141Y005483D01*
X012141Y005581D02*
X012161Y005581D01*
X012268Y005975D02*
X012365Y005975D01*
X012365Y006074D02*
X012268Y006074D01*
X012268Y006172D02*
X012365Y006172D01*
X012268Y006271D02*
X003602Y006271D01*
X003602Y006172D02*
X011950Y006172D01*
X011952Y006074D02*
X006330Y006074D01*
X006352Y005975D02*
X012018Y005975D01*
X012615Y005975D02*
X012683Y005975D01*
X013421Y005975D02*
X014697Y005975D01*
X016937Y006370D02*
X017034Y006370D01*
X017034Y006347D02*
X017034Y006645D01*
X017222Y006645D01*
X017260Y006635D01*
X017294Y006615D01*
X017322Y006587D01*
X017342Y006553D01*
X017352Y006515D01*
X017352Y006347D01*
X017034Y006347D01*
X017352Y006370D02*
X018651Y006370D01*
X039371Y006370D01*
X039371Y006468D02*
X018651Y006468D01*
X017352Y006468D01*
X017334Y006567D02*
X018651Y006567D01*
X039371Y006567D01*
X039371Y006665D02*
X018651Y006665D01*
X016324Y006665D01*
X016223Y006764D02*
X018651Y006764D01*
X039371Y006764D01*
X039371Y006862D02*
X018651Y006862D01*
X000301Y006862D01*
X000301Y006764D02*
X012985Y006764D01*
X012886Y006665D02*
X000301Y006665D01*
X000301Y006567D02*
X002209Y006567D01*
X002200Y006468D02*
X000301Y006468D01*
X000301Y006370D02*
X002200Y006370D01*
X002200Y006271D02*
X000301Y006271D01*
X000301Y006172D02*
X002200Y006172D01*
X002200Y006074D02*
X000301Y006074D01*
X000301Y005975D02*
X002264Y005975D01*
X002297Y005877D02*
X000301Y005877D01*
X000301Y005778D02*
X000499Y005778D01*
X000377Y005680D02*
X000301Y005680D01*
X000301Y005581D02*
X000307Y005581D01*
X000711Y005581D02*
X000811Y005581D01*
X000811Y005483D02*
X000711Y005483D01*
X000711Y005384D02*
X000811Y005384D01*
X000811Y005378D02*
X000811Y005847D01*
X000883Y005835D01*
X000961Y005810D01*
X001034Y005773D01*
X001100Y005725D01*
X001158Y005667D01*
X001206Y005601D01*
X001243Y005528D01*
X001268Y005450D01*
X001280Y005378D01*
X000811Y005378D01*
X000811Y005286D02*
X002021Y005286D01*
X002021Y005384D02*
X001279Y005384D01*
X001258Y005483D02*
X002042Y005483D01*
X002083Y005581D02*
X001216Y005581D01*
X001145Y005680D02*
X002157Y005680D01*
X002269Y005778D02*
X001023Y005778D01*
X000811Y005778D02*
X000711Y005778D01*
X000711Y005680D02*
X000811Y005680D01*
X000811Y005187D02*
X000711Y005187D01*
X000711Y005088D02*
X000811Y005088D01*
X000811Y004990D02*
X000711Y004990D01*
X000711Y004891D02*
X000811Y004891D01*
X001045Y004891D02*
X002243Y004891D01*
X002144Y004990D02*
X001158Y004990D01*
X001223Y005088D02*
X002078Y005088D01*
X002037Y005187D02*
X001262Y005187D01*
X000478Y004891D02*
X000301Y004891D01*
X000301Y004990D02*
X000364Y004990D01*
X000301Y004793D02*
X002271Y004793D01*
X002271Y004694D02*
X000301Y004694D01*
X000301Y004596D02*
X002271Y004596D01*
X002271Y004497D02*
X000301Y004497D01*
X000301Y004399D02*
X002271Y004399D01*
X002271Y004300D02*
X000301Y004300D01*
X000301Y004202D02*
X002271Y004202D01*
X003506Y005680D02*
X003515Y005680D01*
X003506Y005778D02*
X004950Y005778D01*
X004950Y005680D02*
X003787Y005680D01*
X003506Y005877D02*
X004950Y005877D01*
X004950Y005975D02*
X003539Y005975D01*
X003602Y006074D02*
X004967Y006074D01*
X005937Y006074D02*
X006034Y006074D01*
X006034Y005975D02*
X005937Y005975D01*
X003602Y006370D02*
X011950Y006370D01*
X012268Y006370D02*
X012365Y006370D01*
X012365Y006468D02*
X012268Y006468D01*
X012268Y006567D02*
X012365Y006567D01*
X011968Y006567D02*
X003593Y006567D01*
X003602Y006468D02*
X011950Y006468D01*
X016937Y006468D02*
X017034Y006468D01*
X017034Y006567D02*
X016937Y006567D01*
X017690Y004793D02*
X017968Y004793D01*
X018067Y004694D02*
X017671Y004694D01*
D26*
X016151Y003298D02*
X016651Y002798D01*
X016651Y002048D01*
D27*
X018698Y004298D02*
X018948Y004048D01*
X020151Y004048D01*
M02*
