G75*
G70*
%OFA0B0*%
%FSLAX24Y24*%
%IPPOS*%
%LPD*%
%AMOC8*
5,1,8,0,0,1.08239X$1,22.5*
%
%ADD10C,0.0000*%
%ADD11R,0.0240X0.0870*%
%ADD12R,0.0400X0.0450*%
%ADD13R,0.0433X0.0394*%
%ADD14R,0.0236X0.0315*%
%ADD15R,0.0472X0.0472*%
%ADD16R,0.0551X0.0709*%
D10*
X000151Y001048D02*
X000151Y007044D01*
X039521Y007044D01*
X039521Y001048D01*
X000151Y001048D01*
D11*
X012151Y003023D03*
X012651Y003023D03*
X013151Y003023D03*
X013651Y003023D03*
X014151Y003023D03*
X014651Y003023D03*
X015151Y003023D03*
X015151Y005073D03*
X014651Y005073D03*
X014151Y005073D03*
X013651Y005073D03*
X013151Y005073D03*
X012651Y005073D03*
X012151Y005073D03*
D12*
X006025Y002948D03*
X005277Y002948D03*
X005651Y002148D03*
D13*
X009317Y002048D03*
X009986Y002048D03*
X011067Y003048D03*
X011736Y003048D03*
X005986Y003798D03*
X005317Y003798D03*
X003986Y004048D03*
X003317Y004048D03*
X010317Y004548D03*
X010986Y004548D03*
X016317Y004298D03*
X016986Y004298D03*
X016986Y006298D03*
X016317Y006298D03*
X012986Y006298D03*
X012317Y006298D03*
X005986Y005798D03*
X005317Y005798D03*
X003236Y006298D03*
X002567Y006298D03*
D14*
X016336Y005548D03*
X016966Y005548D03*
D15*
X011815Y002048D03*
X010988Y002048D03*
D16*
X008070Y002048D03*
X006732Y002048D03*
M02*
