G04 #@! TF.GenerationSoftware,KiCad,Pcbnew,5.0.0-rc2-dev-unknown-0ded476~63~ubuntu16.04.1*
G04 #@! TF.CreationDate,2018-03-27T22:27:57+03:00*
G04 #@! TF.ProjectId,chirp-v2.4,63686972702D76322E342E6B69636164,rev?*
G04 #@! TF.SameCoordinates,Original*
G04 #@! TF.FileFunction,Paste,Top*
G04 #@! TF.FilePolarity,Positive*
%FSLAX46Y46*%
G04 Gerber Fmt 4.6, Leading zero omitted, Abs format (unit mm)*
G04 Created by KiCad (PCBNEW 5.0.0-rc2-dev-unknown-0ded476~63~ubuntu16.04.1) date Tue Mar 27 22:27:57 2018*
%MOMM*%
%LPD*%
G01*
G04 APERTURE LIST*
%ADD10R,2.499360X1.800860*%
%ADD11R,1.200000X1.200000*%
%ADD12R,0.900000X0.800000*%
%ADD13R,0.600000X1.500000*%
%ADD14R,0.670000X1.000000*%
%ADD15R,1.000000X0.670000*%
%ADD16R,1.397000X2.108200*%
%ADD17R,0.600000X0.800000*%
G04 APERTURE END LIST*
D10*
X96451020Y-101800000D03*
X100448980Y-101800000D03*
D11*
X106176100Y-110081100D03*
X108276100Y-110081100D03*
D12*
X93000000Y-108500000D03*
X93000000Y-106600000D03*
X91000000Y-107550000D03*
D13*
X109290000Y-107700000D03*
X110560000Y-107700000D03*
X111830000Y-107700000D03*
X113100000Y-107700000D03*
X114370000Y-107700000D03*
X115640000Y-107700000D03*
X116910000Y-107700000D03*
X116910000Y-102300000D03*
X115640000Y-102300000D03*
X114370000Y-102300000D03*
X113100000Y-102300000D03*
X111830000Y-102300000D03*
X110560000Y-102300000D03*
X109290000Y-102300000D03*
D14*
X94375000Y-108550000D03*
X96125000Y-108550000D03*
D15*
X89450000Y-104125000D03*
X89450000Y-105875000D03*
D14*
X105925000Y-105100000D03*
X107675000Y-105100000D03*
X119686100Y-104366100D03*
X121436100Y-104366100D03*
X110075000Y-100150000D03*
X111825000Y-100150000D03*
X110075000Y-110100000D03*
X111825000Y-110100000D03*
X105951100Y-107541100D03*
X107701100Y-107541100D03*
X105925000Y-102900000D03*
X107675000Y-102900000D03*
X121425000Y-100050000D03*
X119675000Y-100050000D03*
D15*
X89800000Y-99925000D03*
X89800000Y-101675000D03*
D16*
X80200500Y-109547700D03*
X80200500Y-100454500D03*
X84721700Y-100432700D03*
X84721700Y-109547700D03*
D17*
X119750000Y-101600000D03*
X121350000Y-101600000D03*
D15*
X100800000Y-106525000D03*
X100800000Y-108275000D03*
D12*
X102400000Y-107300000D03*
X104400000Y-106350000D03*
X104400000Y-108250000D03*
M02*
