M48
;DRILL file {KiCad 5.0.0-rc2-dev-unknown-0ded476~63~ubuntu16.04.1} date Tue Mar 27 22:27:59 2018
;FORMAT={-:-/ absolute / metric / decimal}
FMAT,2
METRIC,TZ
T1C0.400
T2C1.000
T3C1.016
%
G90
G05
M71
T1
X90.85Y-100.
X91.75Y-106.6
X94.526Y-101.826
X97.25Y-108.5
X97.3Y-106.5
X98.4Y-101.8
X100.45Y-100.1
X100.75Y-109.2
X102.5Y-101.75
X103.1Y-108.3
X104.8Y-102.9
X105.9Y-108.9
X108.05Y-101.75
X109.05Y-100.2
X110.1Y-98.9
X110.4Y-105.8
X113.75Y-105.15
X114.75Y-110.3
X116.Y-106.15
X117.Y-111.3
X118.5Y-101.05
X121.4Y-103.1
X121.4Y-105.6
X122.4Y-100.05
X129.Y-101.
X129.Y-107.
X133.Y-101.
X133.Y-107.
X137.Y-101.
X137.Y-107.
T2
X87.541Y-102.501
X87.541Y-107.501
T3
X119.291Y-108.811
X119.291Y-111.351
X121.831Y-108.811
X121.831Y-111.351
X124.371Y-108.811
X124.371Y-111.351
T0
M30
